# Tiled2Unity generated file. Do not modify by hand.
# Wavefront file for 'SalleN-SF_mesh_0003.obj'

# Vertices (Count = 48)
v -1536 -1080 0
v -1560 -1080 0
v -1560 -1056 0
v -1536 -1056 0
v -1560 -1080 0
v -1584 -1080 0
v -1584 -1056 0
v -1560 -1056 0
v -1536 -1104 0
v -1560 -1104 0
v -1560 -1080 0
v -1536 -1080 0
v -1560 -1104 0
v -1584 -1104 0
v -1584 -1080 0
v -1560 -1080 0
v -1584 -1272 0
v -1608 -1272 0
v -1608 -1248 0
v -1584 -1248 0
v -1608 -1272 0
v -1632 -1272 0
v -1632 -1248 0
v -1608 -1248 0
v -1776 -1272 0
v -1800 -1272 0
v -1800 -1248 0
v -1776 -1248 0
v -1800 -1272 0
v -1824 -1272 0
v -1824 -1248 0
v -1800 -1248 0
v -1584 -1296 0
v -1608 -1296 0
v -1608 -1272 0
v -1584 -1272 0
v -1608 -1296 0
v -1632 -1296 0
v -1632 -1272 0
v -1608 -1272 0
v -1776 -1296 0
v -1800 -1296 0
v -1800 -1272 0
v -1776 -1272 0
v -1800 -1296 0
v -1824 -1296 0
v -1824 -1272 0
v -1800 -1272 0

# Texture cooridinates (Count = 9)
vt 0.1875 0.71875
vt 0.21875 0.71875
vt 0.21875 0.75
vt 0.1875 0.75
vt 0.25 0.71875
vt 0.25 0.75
vt 0.1875 0.6875
vt 0.21875 0.6875
vt 0.25 0.6875

# Normal
vn 0 0 -1

# Mesh description
g SalleN-SF_mesh_0003

# Faces
f 1/1/1 2/2/1 3/3/1 4/4/1
f 5/2/1 6/5/1 7/6/1 8/3/1
f 9/7/1 10/8/1 11/2/1 12/1/1
f 13/8/1 14/9/1 15/5/1 16/2/1
f 17/1/1 18/2/1 19/3/1 20/4/1
f 21/2/1 22/5/1 23/6/1 24/3/1
f 25/1/1 26/2/1 27/3/1 28/4/1
f 29/2/1 30/5/1 31/6/1 32/3/1
f 33/7/1 34/8/1 35/2/1 36/1/1
f 37/8/1 38/9/1 39/5/1 40/2/1
f 41/7/1 42/8/1 43/2/1 44/1/1
f 45/8/1 46/9/1 47/5/1 48/2/1

