# Tiled2Unity generated file. Do not modify by hand.
# Wavefront file for 'SalleNE_mesh_0004.obj'

# Vertices (Count = 224)
v -1680 -1056 0
v -1704 -1056 0
v -1704 -1032 0
v -1680 -1032 0
v -1704 -1056 0
v -1728 -1056 0
v -1728 -1032 0
v -1704 -1032 0
v -1584 -1080 0
v -1608 -1080 0
v -1608 -1056 0
v -1584 -1056 0
v -1608 -1080 0
v -1632 -1080 0
v -1632 -1056 0
v -1608 -1056 0
v -1680 -1080 0
v -1704 -1080 0
v -1704 -1056 0
v -1680 -1056 0
v -1704 -1080 0
v -1728 -1080 0
v -1728 -1056 0
v -1704 -1056 0
v -1848 -1080 0
v -1872 -1080 0
v -1872 -1056 0
v -1848 -1056 0
v -1872 -1080 0
v -1896 -1080 0
v -1896 -1056 0
v -1872 -1056 0
v -1464 -1104 0
v -1488 -1104 0
v -1488 -1080 0
v -1464 -1080 0
v -1488 -1104 0
v -1512 -1104 0
v -1512 -1080 0
v -1488 -1080 0
v -1584 -1104 0
v -1608 -1104 0
v -1608 -1080 0
v -1584 -1080 0
v -1608 -1104 0
v -1632 -1104 0
v -1632 -1080 0
v -1608 -1080 0
v -1848 -1104 0
v -1872 -1104 0
v -1872 -1080 0
v -1848 -1080 0
v -1872 -1104 0
v -1896 -1104 0
v -1896 -1080 0
v -1872 -1080 0
v -1464 -1128 0
v -1488 -1128 0
v -1488 -1104 0
v -1464 -1104 0
v -1488 -1128 0
v -1512 -1128 0
v -1512 -1104 0
v -1488 -1104 0
v -1800 -1128 0
v -1824 -1128 0
v -1824 -1104 0
v -1800 -1104 0
v -1824 -1128 0
v -1848 -1128 0
v -1848 -1104 0
v -1824 -1104 0
v -1800 -1152 0
v -1824 -1152 0
v -1824 -1128 0
v -1800 -1128 0
v -1824 -1152 0
v -1848 -1152 0
v -1848 -1128 0
v -1824 -1128 0
v -1440 -1176 0
v -1464 -1176 0
v -1464 -1152 0
v -1440 -1152 0
v -1464 -1176 0
v -1488 -1176 0
v -1488 -1152 0
v -1464 -1152 0
v -1440 -1200 0
v -1464 -1200 0
v -1464 -1176 0
v -1440 -1176 0
v -1464 -1200 0
v -1488 -1200 0
v -1488 -1176 0
v -1464 -1176 0
v -1608 -1200 0
v -1632 -1200 0
v -1632 -1176 0
v -1608 -1176 0
v -1632 -1200 0
v -1656 -1200 0
v -1656 -1176 0
v -1632 -1176 0
v -1680 -1200 0
v -1704 -1200 0
v -1704 -1176 0
v -1680 -1176 0
v -1704 -1200 0
v -1728 -1200 0
v -1728 -1176 0
v -1704 -1176 0
v -1800 -1200 0
v -1824 -1200 0
v -1824 -1176 0
v -1800 -1176 0
v -1824 -1200 0
v -1848 -1200 0
v -1848 -1176 0
v -1824 -1176 0
v -1512 -1224 0
v -1536 -1224 0
v -1536 -1200 0
v -1512 -1200 0
v -1536 -1224 0
v -1560 -1224 0
v -1560 -1200 0
v -1536 -1200 0
v -1608 -1224 0
v -1632 -1224 0
v -1632 -1200 0
v -1608 -1200 0
v -1632 -1224 0
v -1656 -1224 0
v -1656 -1200 0
v -1632 -1200 0
v -1680 -1224 0
v -1704 -1224 0
v -1704 -1200 0
v -1680 -1200 0
v -1704 -1224 0
v -1728 -1224 0
v -1728 -1200 0
v -1704 -1200 0
v -1800 -1224 0
v -1824 -1224 0
v -1824 -1200 0
v -1800 -1200 0
v -1824 -1224 0
v -1848 -1224 0
v -1848 -1200 0
v -1824 -1200 0
v -1512 -1248 0
v -1536 -1248 0
v -1536 -1224 0
v -1512 -1224 0
v -1536 -1248 0
v -1560 -1248 0
v -1560 -1224 0
v -1536 -1224 0
v -1464 -1272 0
v -1488 -1272 0
v -1488 -1248 0
v -1464 -1248 0
v -1488 -1272 0
v -1512 -1272 0
v -1512 -1248 0
v -1488 -1248 0
v -1608 -1272 0
v -1632 -1272 0
v -1632 -1248 0
v -1608 -1248 0
v -1632 -1272 0
v -1656 -1272 0
v -1656 -1248 0
v -1632 -1248 0
v -1728 -1272 0
v -1752 -1272 0
v -1752 -1248 0
v -1728 -1248 0
v -1752 -1272 0
v -1776 -1272 0
v -1776 -1248 0
v -1752 -1248 0
v -1824 -1272 0
v -1848 -1272 0
v -1848 -1248 0
v -1824 -1248 0
v -1848 -1272 0
v -1872 -1272 0
v -1872 -1248 0
v -1848 -1248 0
v -1464 -1296 0
v -1488 -1296 0
v -1488 -1272 0
v -1464 -1272 0
v -1488 -1296 0
v -1512 -1296 0
v -1512 -1272 0
v -1488 -1272 0
v -1608 -1296 0
v -1632 -1296 0
v -1632 -1272 0
v -1608 -1272 0
v -1632 -1296 0
v -1656 -1296 0
v -1656 -1272 0
v -1632 -1272 0
v -1728 -1296 0
v -1752 -1296 0
v -1752 -1272 0
v -1728 -1272 0
v -1752 -1296 0
v -1776 -1296 0
v -1776 -1272 0
v -1752 -1272 0
v -1824 -1296 0
v -1848 -1296 0
v -1848 -1272 0
v -1824 -1272 0
v -1848 -1296 0
v -1872 -1296 0
v -1872 -1272 0
v -1848 -1272 0

# Texture cooridinates (Count = 18)
vt 0.75 0.7083334
vt 0.78125 0.7083334
vt 0.78125 0.75
vt 0.75 0.75
vt 0.8125 0.7083334
vt 0.8125 0.75
vt 0.75 0.9583333
vt 0.78125 0.9583333
vt 0.78125 1
vt 0.75 1
vt 0.8125 0.9583333
vt 0.8125 1
vt 0.75 0.6666666
vt 0.78125 0.6666666
vt 0.8125 0.6666666
vt 0.75 0.9166667
vt 0.78125 0.9166667
vt 0.8125 0.9166667

# Normal
vn 0 0 -1

# Mesh description
g SalleNE_mesh_0004

# Faces
f 1/1/1 2/2/1 3/3/1 4/4/1
f 5/2/1 6/5/1 7/6/1 8/3/1
f 9/7/1 10/8/1 11/9/1 12/10/1
f 13/8/1 14/11/1 15/12/1 16/9/1
f 17/13/1 18/14/1 19/2/1 20/1/1
f 21/14/1 22/15/1 23/5/1 24/2/1
f 25/7/1 26/8/1 27/9/1 28/10/1
f 29/8/1 30/11/1 31/12/1 32/9/1
f 33/7/1 34/8/1 35/9/1 36/10/1
f 37/8/1 38/11/1 39/12/1 40/9/1
f 41/16/1 42/17/1 43/8/1 44/7/1
f 45/17/1 46/18/1 47/11/1 48/8/1
f 49/16/1 50/17/1 51/8/1 52/7/1
f 53/17/1 54/18/1 55/11/1 56/8/1
f 57/16/1 58/17/1 59/8/1 60/7/1
f 61/17/1 62/18/1 63/11/1 64/8/1
f 65/7/1 66/8/1 67/9/1 68/10/1
f 69/8/1 70/11/1 71/12/1 72/9/1
f 73/16/1 74/17/1 75/8/1 76/7/1
f 77/17/1 78/18/1 79/11/1 80/8/1
f 81/1/1 82/2/1 83/3/1 84/4/1
f 85/2/1 86/5/1 87/6/1 88/3/1
f 89/13/1 90/14/1 91/2/1 92/1/1
f 93/14/1 94/15/1 95/5/1 96/2/1
f 97/7/1 98/8/1 99/9/1 100/10/1
f 101/8/1 102/11/1 103/12/1 104/9/1
f 105/7/1 106/8/1 107/9/1 108/10/1
f 109/8/1 110/11/1 111/12/1 112/9/1
f 113/1/1 114/2/1 115/3/1 116/4/1
f 117/2/1 118/5/1 119/6/1 120/3/1
f 121/7/1 122/8/1 123/9/1 124/10/1
f 125/8/1 126/11/1 127/12/1 128/9/1
f 129/16/1 130/17/1 131/8/1 132/7/1
f 133/17/1 134/18/1 135/11/1 136/8/1
f 137/16/1 138/17/1 139/8/1 140/7/1
f 141/17/1 142/18/1 143/11/1 144/8/1
f 145/13/1 146/14/1 147/2/1 148/1/1
f 149/14/1 150/15/1 151/5/1 152/2/1
f 153/16/1 154/17/1 155/8/1 156/7/1
f 157/17/1 158/18/1 159/11/1 160/8/1
f 161/1/1 162/2/1 163/3/1 164/4/1
f 165/2/1 166/5/1 167/6/1 168/3/1
f 169/7/1 170/8/1 171/9/1 172/10/1
f 173/8/1 174/11/1 175/12/1 176/9/1
f 177/1/1 178/2/1 179/3/1 180/4/1
f 181/2/1 182/5/1 183/6/1 184/3/1
f 185/7/1 186/8/1 187/9/1 188/10/1
f 189/8/1 190/11/1 191/12/1 192/9/1
f 193/13/1 194/14/1 195/2/1 196/1/1
f 197/14/1 198/15/1 199/5/1 200/2/1
f 201/16/1 202/17/1 203/8/1 204/7/1
f 205/17/1 206/18/1 207/11/1 208/8/1
f 209/13/1 210/14/1 211/2/1 212/1/1
f 213/14/1 214/15/1 215/5/1 216/2/1
f 217/16/1 218/17/1 219/8/1 220/7/1
f 221/17/1 222/18/1 223/11/1 224/8/1

