# Tiled2Unity generated file. Do not modify by hand.
# Wavefront file for 'SalleNS-Wagon_mesh_0009.obj'

# Vertices (Count = 8)
v -1848 -1320 0
v -1872 -1320 0
v -1872 -1296 0
v -1848 -1296 0
v -1872 -1320 0
v -1896 -1320 0
v -1896 -1296 0
v -1872 -1296 0

# Texture cooridinates (Count = 6)
vt 0.0625 0.53125
vt 0.09375 0.53125
vt 0.09375 0.5625
vt 0.0625 0.5625
vt 0.125 0.53125
vt 0.125 0.5625

# Normal
vn 0 0 -1

# Mesh description
g SalleNS-Wagon_mesh_0009

# Faces
f 1/1/1 2/2/1 3/3/1 4/4/1
f 5/2/1 6/5/1 7/6/1 8/3/1

