# Tiled2Unity generated file. Do not modify by hand.
# Wavefront file for 'SalleSW-SF---SP_mesh_0007.obj'

# Vertices (Count = 32)
v -1848 -1224 0
v -1872 -1224 0
v -1872 -1200 0
v -1848 -1200 0
v -1872 -1224 0
v -1896 -1224 0
v -1896 -1200 0
v -1872 -1200 0
v -1848 -1248 0
v -1872 -1248 0
v -1872 -1224 0
v -1848 -1224 0
v -1872 -1248 0
v -1896 -1248 0
v -1896 -1224 0
v -1872 -1224 0
v -1848 -1272 0
v -1872 -1272 0
v -1872 -1248 0
v -1848 -1248 0
v -1872 -1272 0
v -1896 -1272 0
v -1896 -1248 0
v -1872 -1248 0
v -1848 -1296 0
v -1872 -1296 0
v -1872 -1272 0
v -1848 -1272 0
v -1872 -1296 0
v -1896 -1296 0
v -1896 -1272 0
v -1872 -1272 0

# Texture cooridinates (Count = 15)
vt 0.125 0.84375
vt 0.15625 0.84375
vt 0.15625 0.875
vt 0.125 0.875
vt 0.1875 0.84375
vt 0.1875 0.875
vt 0.125 0.8125
vt 0.15625 0.8125
vt 0.1875 0.8125
vt 0.125 0.78125
vt 0.15625 0.78125
vt 0.1875 0.78125
vt 0.125 0.75
vt 0.15625 0.75
vt 0.1875 0.75

# Normal
vn 0 0 -1

# Mesh description
g SalleSW-SF---SP_mesh_0007

# Faces
f 1/1/1 2/2/1 3/3/1 4/4/1
f 5/2/1 6/5/1 7/6/1 8/3/1
f 9/7/1 10/8/1 11/2/1 12/1/1
f 13/8/1 14/9/1 15/5/1 16/2/1
f 17/10/1 18/11/1 19/8/1 20/7/1
f 21/11/1 22/12/1 23/9/1 24/8/1
f 25/13/1 26/14/1 27/11/1 28/10/1
f 29/14/1 30/15/1 31/12/1 32/11/1

