# Tiled2Unity generated file. Do not modify by hand.
# Wavefront file for 'SalleSW-SF---SP_mesh_0004.obj'

# Vertices (Count = 32)
v -1848 -1032 0
v -1872 -1032 0
v -1872 -1008 0
v -1848 -1008 0
v -1872 -1032 0
v -1896 -1032 0
v -1896 -1008 0
v -1872 -1008 0
v -1848 -1056 0
v -1872 -1056 0
v -1872 -1032 0
v -1848 -1032 0
v -1872 -1056 0
v -1896 -1056 0
v -1896 -1032 0
v -1872 -1032 0
v -1848 -1080 0
v -1872 -1080 0
v -1872 -1056 0
v -1848 -1056 0
v -1872 -1080 0
v -1896 -1080 0
v -1896 -1056 0
v -1872 -1056 0
v -1848 -1104 0
v -1872 -1104 0
v -1872 -1080 0
v -1848 -1080 0
v -1872 -1104 0
v -1896 -1104 0
v -1896 -1080 0
v -1872 -1080 0

# Texture cooridinates (Count = 15)
vt 0.75 0.15625
vt 0.78125 0.15625
vt 0.78125 0.1875
vt 0.75 0.1875
vt 0.8125 0.15625
vt 0.8125 0.1875
vt 0.75 0.125
vt 0.78125 0.125
vt 0.8125 0.125
vt 0.75 0.09375
vt 0.78125 0.09375
vt 0.8125 0.09375
vt 0.75 0.0625
vt 0.78125 0.0625
vt 0.8125 0.0625

# Normal
vn 0 0 -1

# Mesh description
g SalleSW-SF---SP_mesh_0004

# Faces
f 1/1/1 2/2/1 3/3/1 4/4/1
f 5/2/1 6/5/1 7/6/1 8/3/1
f 9/7/1 10/8/1 11/2/1 12/1/1
f 13/8/1 14/9/1 15/5/1 16/2/1
f 17/10/1 18/11/1 19/8/1 20/7/1
f 21/11/1 22/12/1 23/9/1 24/8/1
f 25/13/1 26/14/1 27/11/1 28/10/1
f 29/14/1 30/15/1 31/12/1 32/11/1

