# Tiled2Unity generated file. Do not modify by hand.
# Wavefront file for 'SalleS_mesh_0004.obj'

# Vertices (Count = 64)
v -1680 -1080 0
v -1704 -1080 0
v -1704 -1056 0
v -1680 -1056 0
v -1704 -1080 0
v -1728 -1080 0
v -1728 -1056 0
v -1704 -1056 0
v -1680 -1104 0
v -1704 -1104 0
v -1704 -1080 0
v -1680 -1080 0
v -1704 -1104 0
v -1728 -1104 0
v -1728 -1080 0
v -1704 -1080 0
v -1776 -1152 0
v -1800 -1152 0
v -1800 -1128 0
v -1776 -1128 0
v -1800 -1152 0
v -1824 -1152 0
v -1824 -1128 0
v -1800 -1128 0
v -1776 -1176 0
v -1800 -1176 0
v -1800 -1152 0
v -1776 -1152 0
v -1800 -1176 0
v -1824 -1176 0
v -1824 -1152 0
v -1800 -1152 0
v -1464 -1248 0
v -1488 -1248 0
v -1488 -1224 0
v -1464 -1224 0
v -1488 -1248 0
v -1512 -1248 0
v -1512 -1224 0
v -1488 -1224 0
v -1464 -1272 0
v -1488 -1272 0
v -1488 -1248 0
v -1464 -1248 0
v -1488 -1272 0
v -1512 -1272 0
v -1512 -1248 0
v -1488 -1248 0
v -1680 -1272 0
v -1704 -1272 0
v -1704 -1248 0
v -1680 -1248 0
v -1704 -1272 0
v -1728 -1272 0
v -1728 -1248 0
v -1704 -1248 0
v -1680 -1296 0
v -1704 -1296 0
v -1704 -1272 0
v -1680 -1272 0
v -1704 -1296 0
v -1728 -1296 0
v -1728 -1272 0
v -1704 -1272 0

# Texture cooridinates (Count = 9)
vt 0.5 0.9583333
vt 0.53125 0.9583333
vt 0.53125 1
vt 0.5 1
vt 0.5625 0.9583333
vt 0.5625 1
vt 0.5 0.9166667
vt 0.53125 0.9166667
vt 0.5625 0.9166667

# Normal
vn 0 0 -1

# Mesh description
g SalleS_mesh_0004

# Faces
f 1/1/1 2/2/1 3/3/1 4/4/1
f 5/2/1 6/5/1 7/6/1 8/3/1
f 9/7/1 10/8/1 11/2/1 12/1/1
f 13/8/1 14/9/1 15/5/1 16/2/1
f 17/1/1 18/2/1 19/3/1 20/4/1
f 21/2/1 22/5/1 23/6/1 24/3/1
f 25/7/1 26/8/1 27/2/1 28/1/1
f 29/8/1 30/9/1 31/5/1 32/2/1
f 33/1/1 34/2/1 35/3/1 36/4/1
f 37/2/1 38/5/1 39/6/1 40/3/1
f 41/7/1 42/8/1 43/2/1 44/1/1
f 45/8/1 46/9/1 47/5/1 48/2/1
f 49/1/1 50/2/1 51/3/1 52/4/1
f 53/2/1 54/5/1 55/6/1 56/3/1
f 57/7/1 58/8/1 59/2/1 60/1/1
f 61/8/1 62/9/1 63/5/1 64/2/1

