# Tiled2Unity generated file. Do not modify by hand.
# Wavefront file for 'SalleS_mesh_0003.obj'

# Vertices (Count = 224)
v -1440 -1008 0
v -1464 -1008 0
v -1464 -984 0
v -1440 -984 0
v -1464 -1008 0
v -1488 -1008 0
v -1488 -984 0
v -1464 -984 0
v -1536 -1008 0
v -1560 -1008 0
v -1560 -984 0
v -1536 -984 0
v -1560 -1008 0
v -1584 -1008 0
v -1584 -984 0
v -1560 -984 0
v -1632 -1008 0
v -1656 -1008 0
v -1656 -984 0
v -1632 -984 0
v -1656 -1008 0
v -1680 -1008 0
v -1680 -984 0
v -1656 -984 0
v -1704 -1008 0
v -1728 -1008 0
v -1728 -984 0
v -1704 -984 0
v -1728 -1008 0
v -1752 -1008 0
v -1752 -984 0
v -1728 -984 0
v -1440 -1032 0
v -1464 -1032 0
v -1464 -1008 0
v -1440 -1008 0
v -1464 -1032 0
v -1488 -1032 0
v -1488 -1008 0
v -1464 -1008 0
v -1536 -1032 0
v -1560 -1032 0
v -1560 -1008 0
v -1536 -1008 0
v -1560 -1032 0
v -1584 -1032 0
v -1584 -1008 0
v -1560 -1008 0
v -1632 -1032 0
v -1656 -1032 0
v -1656 -1008 0
v -1632 -1008 0
v -1656 -1032 0
v -1680 -1032 0
v -1680 -1008 0
v -1656 -1008 0
v -1704 -1032 0
v -1728 -1032 0
v -1728 -1008 0
v -1704 -1008 0
v -1728 -1032 0
v -1752 -1032 0
v -1752 -1008 0
v -1728 -1008 0
v -1488 -1056 0
v -1512 -1056 0
v -1512 -1032 0
v -1488 -1032 0
v -1512 -1056 0
v -1536 -1056 0
v -1536 -1032 0
v -1512 -1032 0
v -1488 -1080 0
v -1512 -1080 0
v -1512 -1056 0
v -1488 -1056 0
v -1512 -1080 0
v -1536 -1080 0
v -1536 -1056 0
v -1512 -1056 0
v -1608 -1128 0
v -1632 -1128 0
v -1632 -1104 0
v -1608 -1104 0
v -1632 -1128 0
v -1656 -1128 0
v -1656 -1104 0
v -1632 -1104 0
v -1824 -1128 0
v -1848 -1128 0
v -1848 -1104 0
v -1824 -1104 0
v -1848 -1128 0
v -1872 -1128 0
v -1872 -1104 0
v -1848 -1104 0
v -1440 -1152 0
v -1464 -1152 0
v -1464 -1128 0
v -1440 -1128 0
v -1464 -1152 0
v -1488 -1152 0
v -1488 -1128 0
v -1464 -1128 0
v -1608 -1152 0
v -1632 -1152 0
v -1632 -1128 0
v -1608 -1128 0
v -1632 -1152 0
v -1656 -1152 0
v -1656 -1128 0
v -1632 -1128 0
v -1824 -1152 0
v -1848 -1152 0
v -1848 -1128 0
v -1824 -1128 0
v -1848 -1152 0
v -1872 -1152 0
v -1872 -1128 0
v -1848 -1128 0
v -1440 -1176 0
v -1464 -1176 0
v -1464 -1152 0
v -1440 -1152 0
v -1464 -1176 0
v -1488 -1176 0
v -1488 -1152 0
v -1464 -1152 0
v -1800 -1200 0
v -1824 -1200 0
v -1824 -1176 0
v -1800 -1176 0
v -1824 -1200 0
v -1848 -1200 0
v -1848 -1176 0
v -1824 -1176 0
v -1536 -1224 0
v -1560 -1224 0
v -1560 -1200 0
v -1536 -1200 0
v -1560 -1224 0
v -1584 -1224 0
v -1584 -1200 0
v -1560 -1200 0
v -1800 -1224 0
v -1824 -1224 0
v -1824 -1200 0
v -1800 -1200 0
v -1824 -1224 0
v -1848 -1224 0
v -1848 -1200 0
v -1824 -1200 0
v -1536 -1248 0
v -1560 -1248 0
v -1560 -1224 0
v -1536 -1224 0
v -1560 -1248 0
v -1584 -1248 0
v -1584 -1224 0
v -1560 -1224 0
v -1392 -1392 0
v -1416 -1392 0
v -1416 -1368 0
v -1392 -1368 0
v -1416 -1392 0
v -1440 -1392 0
v -1440 -1368 0
v -1416 -1368 0
v -1464 -1392 0
v -1488 -1392 0
v -1488 -1368 0
v -1464 -1368 0
v -1488 -1392 0
v -1512 -1392 0
v -1512 -1368 0
v -1488 -1368 0
v -1512 -1392 0
v -1536 -1392 0
v -1536 -1368 0
v -1512 -1368 0
v -1536 -1392 0
v -1560 -1392 0
v -1560 -1368 0
v -1536 -1368 0
v -1824 -1392 0
v -1848 -1392 0
v -1848 -1368 0
v -1824 -1368 0
v -1848 -1392 0
v -1872 -1392 0
v -1872 -1368 0
v -1848 -1368 0
v -1392 -1416 0
v -1416 -1416 0
v -1416 -1392 0
v -1392 -1392 0
v -1416 -1416 0
v -1440 -1416 0
v -1440 -1392 0
v -1416 -1392 0
v -1464 -1416 0
v -1488 -1416 0
v -1488 -1392 0
v -1464 -1392 0
v -1488 -1416 0
v -1512 -1416 0
v -1512 -1392 0
v -1488 -1392 0
v -1512 -1416 0
v -1536 -1416 0
v -1536 -1392 0
v -1512 -1392 0
v -1536 -1416 0
v -1560 -1416 0
v -1560 -1392 0
v -1536 -1392 0
v -1824 -1416 0
v -1848 -1416 0
v -1848 -1392 0
v -1824 -1392 0
v -1848 -1416 0
v -1872 -1416 0
v -1872 -1392 0
v -1848 -1392 0

# Texture cooridinates (Count = 33)
vt 0.75 0.78125
vt 0.78125 0.78125
vt 0.78125 0.8125
vt 0.75 0.8125
vt 0.8125 0.78125
vt 0.8125 0.8125
vt 0.9375 0.71875
vt 0.96875 0.71875
vt 0.96875 0.75
vt 0.9375 0.75
vt 1 0.71875
vt 1 0.75
vt 0.75 0.71875
vt 0.78125 0.71875
vt 0.78125 0.75
vt 0.75 0.75
vt 0.8125 0.71875
vt 0.8125 0.75
vt 0.9375 0.6875
vt 0.96875 0.6875
vt 1 0.6875
vt 0.75 0.6875
vt 0.78125 0.6875
vt 0.8125 0.6875
vt 0.0625 0.59375
vt 0.09375 0.59375
vt 0.09375 0.625
vt 0.0625 0.625
vt 0.125 0.59375
vt 0.125 0.625
vt 0.0625 0.5625
vt 0.09375 0.5625
vt 0.125 0.5625

# Normal
vn 0 0 -1

# Mesh description
g SalleS_mesh_0003

# Faces
f 1/1/1 2/2/1 3/3/1 4/4/1
f 5/2/1 6/5/1 7/6/1 8/3/1
f 9/7/1 10/8/1 11/9/1 12/10/1
f 13/8/1 14/11/1 15/12/1 16/9/1
f 17/7/1 18/8/1 19/9/1 20/10/1
f 21/8/1 22/11/1 23/12/1 24/9/1
f 25/13/1 26/14/1 27/15/1 28/16/1
f 29/14/1 30/17/1 31/18/1 32/15/1
f 33/16/1 34/15/1 35/2/1 36/1/1
f 37/15/1 38/18/1 39/5/1 40/2/1
f 41/19/1 42/20/1 43/8/1 44/7/1
f 45/20/1 46/21/1 47/11/1 48/8/1
f 49/19/1 50/20/1 51/8/1 52/7/1
f 53/20/1 54/21/1 55/11/1 56/8/1
f 57/22/1 58/23/1 59/14/1 60/13/1
f 61/23/1 62/24/1 63/17/1 64/14/1
f 65/25/1 66/26/1 67/27/1 68/28/1
f 69/26/1 70/29/1 71/30/1 72/27/1
f 73/31/1 74/32/1 75/26/1 76/25/1
f 77/32/1 78/33/1 79/29/1 80/26/1
f 81/25/1 82/26/1 83/27/1 84/28/1
f 85/26/1 86/29/1 87/30/1 88/27/1
f 89/25/1 90/26/1 91/27/1 92/28/1
f 93/26/1 94/29/1 95/30/1 96/27/1
f 97/25/1 98/26/1 99/27/1 100/28/1
f 101/26/1 102/29/1 103/30/1 104/27/1
f 105/31/1 106/32/1 107/26/1 108/25/1
f 109/32/1 110/33/1 111/29/1 112/26/1
f 113/31/1 114/32/1 115/26/1 116/25/1
f 117/32/1 118/33/1 119/29/1 120/26/1
f 121/31/1 122/32/1 123/26/1 124/25/1
f 125/32/1 126/33/1 127/29/1 128/26/1
f 129/25/1 130/26/1 131/27/1 132/28/1
f 133/26/1 134/29/1 135/30/1 136/27/1
f 137/25/1 138/26/1 139/27/1 140/28/1
f 141/26/1 142/29/1 143/30/1 144/27/1
f 145/31/1 146/32/1 147/26/1 148/25/1
f 149/32/1 150/33/1 151/29/1 152/26/1
f 153/31/1 154/32/1 155/26/1 156/25/1
f 157/32/1 158/33/1 159/29/1 160/26/1
f 161/1/1 162/2/1 163/3/1 164/4/1
f 165/2/1 166/5/1 167/6/1 168/3/1
f 169/7/1 170/8/1 171/9/1 172/10/1
f 173/8/1 174/11/1 175/12/1 176/9/1
f 177/1/1 178/2/1 179/3/1 180/4/1
f 181/2/1 182/5/1 183/6/1 184/3/1
f 185/1/1 186/2/1 187/3/1 188/4/1
f 189/2/1 190/5/1 191/6/1 192/3/1
f 193/16/1 194/15/1 195/2/1 196/1/1
f 197/15/1 198/18/1 199/5/1 200/2/1
f 201/19/1 202/20/1 203/8/1 204/7/1
f 205/20/1 206/21/1 207/11/1 208/8/1
f 209/16/1 210/15/1 211/2/1 212/1/1
f 213/15/1 214/18/1 215/5/1 216/2/1
f 217/16/1 218/15/1 219/2/1 220/1/1
f 221/15/1 222/18/1 223/5/1 224/2/1

