# Tiled2Unity generated file. Do not modify by hand.
# Wavefront file for 'SalleNEW-Smiley_mesh_0004.obj'

# Vertices (Count = 248)
v -1824 -1056 0
v -1848 -1056 0
v -1848 -1032 0
v -1824 -1032 0
v -1848 -1056 0
v -1872 -1056 0
v -1872 -1032 0
v -1848 -1032 0
v -1656 -1080 0
v -1680 -1080 0
v -1680 -1056 0
v -1656 -1056 0
v -1680 -1080 0
v -1704 -1080 0
v -1704 -1056 0
v -1680 -1056 0
v -1824 -1080 0
v -1848 -1080 0
v -1848 -1056 0
v -1824 -1056 0
v -1848 -1080 0
v -1872 -1080 0
v -1872 -1056 0
v -1848 -1056 0
v -1440 -1104 0
v -1464 -1104 0
v -1464 -1080 0
v -1440 -1080 0
v -1464 -1104 0
v -1488 -1104 0
v -1488 -1080 0
v -1464 -1080 0
v -1536 -1104 0
v -1560 -1104 0
v -1560 -1080 0
v -1536 -1080 0
v -1560 -1104 0
v -1584 -1104 0
v -1584 -1080 0
v -1560 -1080 0
v -1656 -1104 0
v -1680 -1104 0
v -1680 -1080 0
v -1656 -1080 0
v -1680 -1104 0
v -1704 -1104 0
v -1704 -1080 0
v -1680 -1080 0
v -1752 -1104 0
v -1776 -1104 0
v -1776 -1080 0
v -1752 -1080 0
v -1776 -1104 0
v -1800 -1104 0
v -1800 -1080 0
v -1776 -1080 0
v -1440 -1128 0
v -1464 -1128 0
v -1464 -1104 0
v -1440 -1104 0
v -1464 -1128 0
v -1488 -1128 0
v -1488 -1104 0
v -1464 -1104 0
v -1536 -1128 0
v -1560 -1128 0
v -1560 -1104 0
v -1536 -1104 0
v -1560 -1128 0
v -1584 -1128 0
v -1584 -1104 0
v -1560 -1104 0
v -1656 -1128 0
v -1680 -1128 0
v -1680 -1104 0
v -1656 -1104 0
v -1680 -1128 0
v -1704 -1128 0
v -1704 -1104 0
v -1680 -1104 0
v -1752 -1128 0
v -1776 -1128 0
v -1776 -1104 0
v -1752 -1104 0
v -1776 -1128 0
v -1800 -1128 0
v -1800 -1104 0
v -1776 -1104 0
v -1656 -1152 0
v -1680 -1152 0
v -1680 -1128 0
v -1656 -1128 0
v -1680 -1152 0
v -1704 -1152 0
v -1704 -1128 0
v -1680 -1128 0
v -1656 -1176 0
v -1680 -1176 0
v -1680 -1152 0
v -1656 -1152 0
v -1680 -1176 0
v -1704 -1176 0
v -1704 -1152 0
v -1680 -1152 0
v -1824 -1176 0
v -1848 -1176 0
v -1848 -1152 0
v -1824 -1152 0
v -1848 -1176 0
v -1872 -1176 0
v -1872 -1152 0
v -1848 -1152 0
v -1584 -1200 0
v -1608 -1200 0
v -1608 -1176 0
v -1584 -1176 0
v -1608 -1200 0
v -1632 -1200 0
v -1632 -1176 0
v -1608 -1176 0
v -1824 -1200 0
v -1848 -1200 0
v -1848 -1176 0
v -1824 -1176 0
v -1848 -1200 0
v -1872 -1200 0
v -1872 -1176 0
v -1848 -1176 0
v -1488 -1224 0
v -1512 -1224 0
v -1512 -1200 0
v -1488 -1200 0
v -1512 -1224 0
v -1536 -1224 0
v -1536 -1200 0
v -1512 -1200 0
v -1584 -1224 0
v -1608 -1224 0
v -1608 -1200 0
v -1584 -1200 0
v -1608 -1224 0
v -1632 -1224 0
v -1632 -1200 0
v -1608 -1200 0
v -1776 -1224 0
v -1800 -1224 0
v -1800 -1200 0
v -1776 -1200 0
v -1800 -1224 0
v -1824 -1224 0
v -1824 -1200 0
v -1800 -1200 0
v -1440 -1248 0
v -1464 -1248 0
v -1464 -1224 0
v -1440 -1224 0
v -1464 -1248 0
v -1488 -1248 0
v -1488 -1224 0
v -1464 -1224 0
v -1488 -1248 0
v -1512 -1248 0
v -1512 -1224 0
v -1488 -1224 0
v -1512 -1248 0
v -1536 -1248 0
v -1536 -1224 0
v -1512 -1224 0
v -1776 -1248 0
v -1800 -1248 0
v -1800 -1224 0
v -1776 -1224 0
v -1800 -1248 0
v -1824 -1248 0
v -1824 -1224 0
v -1800 -1224 0
v -1440 -1272 0
v -1464 -1272 0
v -1464 -1248 0
v -1440 -1248 0
v -1464 -1272 0
v -1488 -1272 0
v -1488 -1248 0
v -1464 -1248 0
v -1560 -1272 0
v -1584 -1272 0
v -1584 -1248 0
v -1560 -1248 0
v -1584 -1272 0
v -1608 -1272 0
v -1608 -1248 0
v -1584 -1248 0
v -1632 -1272 0
v -1656 -1272 0
v -1656 -1248 0
v -1632 -1248 0
v -1656 -1272 0
v -1680 -1272 0
v -1680 -1248 0
v -1656 -1248 0
v -1704 -1272 0
v -1728 -1272 0
v -1728 -1248 0
v -1704 -1248 0
v -1728 -1272 0
v -1752 -1272 0
v -1752 -1248 0
v -1728 -1248 0
v -1824 -1272 0
v -1848 -1272 0
v -1848 -1248 0
v -1824 -1248 0
v -1848 -1272 0
v -1872 -1272 0
v -1872 -1248 0
v -1848 -1248 0
v -1560 -1296 0
v -1584 -1296 0
v -1584 -1272 0
v -1560 -1272 0
v -1584 -1296 0
v -1608 -1296 0
v -1608 -1272 0
v -1584 -1272 0
v -1632 -1296 0
v -1656 -1296 0
v -1656 -1272 0
v -1632 -1272 0
v -1656 -1296 0
v -1680 -1296 0
v -1680 -1272 0
v -1656 -1272 0
v -1704 -1296 0
v -1728 -1296 0
v -1728 -1272 0
v -1704 -1272 0
v -1728 -1296 0
v -1752 -1296 0
v -1752 -1272 0
v -1728 -1272 0
v -1824 -1296 0
v -1848 -1296 0
v -1848 -1272 0
v -1824 -1272 0
v -1848 -1296 0
v -1872 -1296 0
v -1872 -1272 0
v -1848 -1272 0

# Texture cooridinates (Count = 18)
vt 0.0625 0.59375
vt 0.09375 0.59375
vt 0.09375 0.625
vt 0.0625 0.625
vt 0.125 0.59375
vt 0.125 0.625
vt 0.0625 0.5625
vt 0.09375 0.5625
vt 0.125 0.5625
vt 0.0625 0.40625
vt 0.09375 0.40625
vt 0.09375 0.4375
vt 0.0625 0.4375
vt 0.125 0.40625
vt 0.125 0.4375
vt 0.0625 0.375
vt 0.09375 0.375
vt 0.125 0.375

# Normal
vn 0 0 -1

# Mesh description
g SalleNEW-Smiley_mesh_0004

# Faces
f 1/1/1 2/2/1 3/3/1 4/4/1
f 5/2/1 6/5/1 7/6/1 8/3/1
f 9/1/1 10/2/1 11/3/1 12/4/1
f 13/2/1 14/5/1 15/6/1 16/3/1
f 17/7/1 18/8/1 19/2/1 20/1/1
f 21/8/1 22/9/1 23/5/1 24/2/1
f 25/1/1 26/2/1 27/3/1 28/4/1
f 29/2/1 30/5/1 31/6/1 32/3/1
f 33/10/1 34/11/1 35/12/1 36/13/1
f 37/11/1 38/14/1 39/15/1 40/12/1
f 41/7/1 42/8/1 43/2/1 44/1/1
f 45/8/1 46/9/1 47/5/1 48/2/1
f 49/10/1 50/11/1 51/12/1 52/13/1
f 53/11/1 54/14/1 55/15/1 56/12/1
f 57/7/1 58/8/1 59/2/1 60/1/1
f 61/8/1 62/9/1 63/5/1 64/2/1
f 65/16/1 66/17/1 67/11/1 68/10/1
f 69/17/1 70/18/1 71/14/1 72/11/1
f 73/1/1 74/2/1 75/3/1 76/4/1
f 77/2/1 78/5/1 79/6/1 80/3/1
f 81/16/1 82/17/1 83/11/1 84/10/1
f 85/17/1 86/18/1 87/14/1 88/11/1
f 89/1/1 90/2/1 91/3/1 92/4/1
f 93/2/1 94/5/1 95/6/1 96/3/1
f 97/7/1 98/8/1 99/2/1 100/1/1
f 101/8/1 102/9/1 103/5/1 104/2/1
f 105/1/1 106/2/1 107/3/1 108/4/1
f 109/2/1 110/5/1 111/6/1 112/3/1
f 113/1/1 114/2/1 115/3/1 116/4/1
f 117/2/1 118/5/1 119/6/1 120/3/1
f 121/7/1 122/8/1 123/2/1 124/1/1
f 125/8/1 126/9/1 127/5/1 128/2/1
f 129/10/1 130/11/1 131/12/1 132/13/1
f 133/11/1 134/14/1 135/15/1 136/12/1
f 137/7/1 138/8/1 139/2/1 140/1/1
f 141/8/1 142/9/1 143/5/1 144/2/1
f 145/10/1 146/11/1 147/12/1 148/13/1
f 149/11/1 150/14/1 151/15/1 152/12/1
f 153/1/1 154/2/1 155/3/1 156/4/1
f 157/2/1 158/5/1 159/6/1 160/3/1
f 161/16/1 162/17/1 163/11/1 164/10/1
f 165/17/1 166/18/1 167/14/1 168/11/1
f 169/16/1 170/17/1 171/11/1 172/10/1
f 173/17/1 174/18/1 175/14/1 176/11/1
f 177/7/1 178/8/1 179/2/1 180/1/1
f 181/8/1 182/9/1 183/5/1 184/2/1
f 185/10/1 186/11/1 187/12/1 188/13/1
f 189/11/1 190/14/1 191/15/1 192/12/1
f 193/10/1 194/11/1 195/12/1 196/13/1
f 197/11/1 198/14/1 199/15/1 200/12/1
f 201/10/1 202/11/1 203/12/1 204/13/1
f 205/11/1 206/14/1 207/15/1 208/12/1
f 209/1/1 210/2/1 211/3/1 212/4/1
f 213/2/1 214/5/1 215/6/1 216/3/1
f 217/16/1 218/17/1 219/11/1 220/10/1
f 221/17/1 222/18/1 223/14/1 224/11/1
f 225/16/1 226/17/1 227/11/1 228/10/1
f 229/17/1 230/18/1 231/14/1 232/11/1
f 233/16/1 234/17/1 235/11/1 236/10/1
f 237/17/1 238/18/1 239/14/1 240/11/1
f 241/7/1 242/8/1 243/2/1 244/1/1
f 245/8/1 246/9/1 247/5/1 248/2/1

