# Tiled2Unity generated file. Do not modify by hand.
# Wavefront file for 'SalleNEW-Smiley_mesh_0003.obj'

# Vertices (Count = 72)
v -1464 -1056 0
v -1488 -1056 0
v -1488 -1032 0
v -1464 -1032 0
v -1488 -1056 0
v -1512 -1056 0
v -1512 -1032 0
v -1488 -1032 0
v -1464 -1080 0
v -1488 -1080 0
v -1488 -1056 0
v -1464 -1056 0
v -1488 -1080 0
v -1512 -1080 0
v -1512 -1056 0
v -1488 -1056 0
v -1584 -1152 0
v -1608 -1152 0
v -1608 -1128 0
v -1584 -1128 0
v -1608 -1152 0
v -1632 -1152 0
v -1632 -1128 0
v -1608 -1128 0
v -1584 -1176 0
v -1608 -1176 0
v -1608 -1152 0
v -1584 -1152 0
v -1608 -1176 0
v -1632 -1176 0
v -1632 -1152 0
v -1608 -1152 0
v -1752 -1176 0
v -1776 -1176 0
v -1776 -1152 0
v -1752 -1152 0
v -1776 -1176 0
v -1800 -1176 0
v -1800 -1152 0
v -1776 -1152 0
v -1752 -1200 0
v -1776 -1200 0
v -1776 -1176 0
v -1752 -1176 0
v -1776 -1200 0
v -1800 -1200 0
v -1800 -1176 0
v -1776 -1176 0
v -1488 -1296 0
v -1512 -1296 0
v -1512 -1272 0
v -1488 -1272 0
v -1752 -1296 0
v -1776 -1296 0
v -1776 -1272 0
v -1752 -1272 0
v -1776 -1296 0
v -1800 -1296 0
v -1800 -1272 0
v -1776 -1272 0
v -1488 -1320 0
v -1512 -1320 0
v -1512 -1296 0
v -1488 -1296 0
v -1752 -1320 0
v -1776 -1320 0
v -1776 -1296 0
v -1752 -1296 0
v -1776 -1320 0
v -1800 -1320 0
v -1800 -1296 0
v -1776 -1296 0

# Texture cooridinates (Count = 9)
vt 0.875 0.9583333
vt 0.90625 0.9583333
vt 0.90625 1
vt 0.875 1
vt 0.9375 0.9583333
vt 0.9375 1
vt 0.875 0.9166667
vt 0.90625 0.9166667
vt 0.9375 0.9166667

# Normal
vn 0 0 -1

# Mesh description
g SalleNEW-Smiley_mesh_0003

# Faces
f 1/1/1 2/2/1 3/3/1 4/4/1
f 5/2/1 6/5/1 7/6/1 8/3/1
f 9/7/1 10/8/1 11/2/1 12/1/1
f 13/8/1 14/9/1 15/5/1 16/2/1
f 17/1/1 18/2/1 19/3/1 20/4/1
f 21/2/1 22/5/1 23/6/1 24/3/1
f 25/7/1 26/8/1 27/2/1 28/1/1
f 29/8/1 30/9/1 31/5/1 32/2/1
f 33/1/1 34/2/1 35/3/1 36/4/1
f 37/2/1 38/5/1 39/6/1 40/3/1
f 41/7/1 42/8/1 43/2/1 44/1/1
f 45/8/1 46/9/1 47/5/1 48/2/1
f 49/1/1 50/2/1 51/3/1 52/4/1
f 53/1/1 54/2/1 55/3/1 56/4/1
f 57/2/1 58/5/1 59/6/1 60/3/1
f 61/7/1 62/8/1 63/2/1 64/1/1
f 65/7/1 66/8/1 67/2/1 68/1/1
f 69/8/1 70/9/1 71/5/1 72/2/1

