# Tiled2Unity generated file. Do not modify by hand.
# Wavefront file for 'SalleNSW-SF---SP_mesh_0004.obj'

# Vertices (Count = 96)
v -1488 -1104 0
v -1512 -1104 0
v -1512 -1080 0
v -1488 -1080 0
v -1512 -1104 0
v -1536 -1104 0
v -1536 -1080 0
v -1512 -1080 0
v -1776 -1104 0
v -1800 -1104 0
v -1800 -1080 0
v -1776 -1080 0
v -1800 -1104 0
v -1824 -1104 0
v -1824 -1080 0
v -1800 -1080 0
v -1488 -1128 0
v -1512 -1128 0
v -1512 -1104 0
v -1488 -1104 0
v -1512 -1128 0
v -1536 -1128 0
v -1536 -1104 0
v -1512 -1104 0
v -1776 -1128 0
v -1800 -1128 0
v -1800 -1104 0
v -1776 -1104 0
v -1800 -1128 0
v -1824 -1128 0
v -1824 -1104 0
v -1800 -1104 0
v -1488 -1200 0
v -1512 -1200 0
v -1512 -1176 0
v -1488 -1176 0
v -1512 -1200 0
v -1536 -1200 0
v -1536 -1176 0
v -1512 -1176 0
v -1776 -1200 0
v -1800 -1200 0
v -1800 -1176 0
v -1776 -1176 0
v -1800 -1200 0
v -1824 -1200 0
v -1824 -1176 0
v -1800 -1176 0
v -1488 -1224 0
v -1512 -1224 0
v -1512 -1200 0
v -1488 -1200 0
v -1512 -1224 0
v -1536 -1224 0
v -1536 -1200 0
v -1512 -1200 0
v -1776 -1224 0
v -1800 -1224 0
v -1800 -1200 0
v -1776 -1200 0
v -1800 -1224 0
v -1824 -1224 0
v -1824 -1200 0
v -1800 -1200 0
v -1488 -1296 0
v -1512 -1296 0
v -1512 -1272 0
v -1488 -1272 0
v -1512 -1296 0
v -1536 -1296 0
v -1536 -1272 0
v -1512 -1272 0
v -1776 -1296 0
v -1800 -1296 0
v -1800 -1272 0
v -1776 -1272 0
v -1800 -1296 0
v -1824 -1296 0
v -1824 -1272 0
v -1800 -1272 0
v -1488 -1320 0
v -1512 -1320 0
v -1512 -1296 0
v -1488 -1296 0
v -1512 -1320 0
v -1536 -1320 0
v -1536 -1296 0
v -1512 -1296 0
v -1776 -1320 0
v -1800 -1320 0
v -1800 -1296 0
v -1776 -1296 0
v -1800 -1320 0
v -1824 -1320 0
v -1824 -1296 0
v -1800 -1296 0

# Texture cooridinates (Count = 9)
vt 0.125 0.34375
vt 0.15625 0.34375
vt 0.15625 0.375
vt 0.125 0.375
vt 0.1875 0.34375
vt 0.1875 0.375
vt 0.125 0.3125
vt 0.15625 0.3125
vt 0.1875 0.3125

# Normal
vn 0 0 -1

# Mesh description
g SalleNSW-SF---SP_mesh_0004

# Faces
f 1/1/1 2/2/1 3/3/1 4/4/1
f 5/2/1 6/5/1 7/6/1 8/3/1
f 9/1/1 10/2/1 11/3/1 12/4/1
f 13/2/1 14/5/1 15/6/1 16/3/1
f 17/7/1 18/8/1 19/2/1 20/1/1
f 21/8/1 22/9/1 23/5/1 24/2/1
f 25/7/1 26/8/1 27/2/1 28/1/1
f 29/8/1 30/9/1 31/5/1 32/2/1
f 33/1/1 34/2/1 35/3/1 36/4/1
f 37/2/1 38/5/1 39/6/1 40/3/1
f 41/1/1 42/2/1 43/3/1 44/4/1
f 45/2/1 46/5/1 47/6/1 48/3/1
f 49/7/1 50/8/1 51/2/1 52/1/1
f 53/8/1 54/9/1 55/5/1 56/2/1
f 57/7/1 58/8/1 59/2/1 60/1/1
f 61/8/1 62/9/1 63/5/1 64/2/1
f 65/1/1 66/2/1 67/3/1 68/4/1
f 69/2/1 70/5/1 71/6/1 72/3/1
f 73/1/1 74/2/1 75/3/1 76/4/1
f 77/2/1 78/5/1 79/6/1 80/3/1
f 81/7/1 82/8/1 83/2/1 84/1/1
f 85/8/1 86/9/1 87/5/1 88/2/1
f 89/7/1 90/8/1 91/2/1 92/1/1
f 93/8/1 94/9/1 95/5/1 96/2/1

