# Tiled2Unity generated file. Do not modify by hand.
# Wavefront file for 'SalleNSW-SF---SP_mesh_0005.obj'

# Vertices (Count = 268)
v -1584 -888 0
v -1608 -888 0
v -1608 -864 0
v -1584 -864 0
v -1608 -888 0
v -1632 -888 0
v -1632 -864 0
v -1608 -864 0
v -1680 -888 0
v -1704 -888 0
v -1704 -864 0
v -1680 -864 0
v -1704 -888 0
v -1728 -888 0
v -1728 -864 0
v -1704 -864 0
v -1584 -912 0
v -1608 -912 0
v -1608 -888 0
v -1584 -888 0
v -1608 -912 0
v -1632 -912 0
v -1632 -888 0
v -1608 -888 0
v -1680 -912 0
v -1704 -912 0
v -1704 -888 0
v -1680 -888 0
v -1704 -912 0
v -1728 -912 0
v -1728 -888 0
v -1704 -888 0
v -1584 -936 0
v -1608 -936 0
v -1608 -912 0
v -1584 -912 0
v -1608 -936 0
v -1632 -936 0
v -1632 -912 0
v -1608 -912 0
v -1680 -936 0
v -1704 -936 0
v -1704 -912 0
v -1680 -912 0
v -1704 -936 0
v -1728 -936 0
v -1728 -912 0
v -1704 -912 0
v -1368 -960 0
v -1392 -960 0
v -1392 -936 0
v -1368 -936 0
v -1392 -960 0
v -1416 -960 0
v -1416 -936 0
v -1392 -936 0
v -1416 -960 0
v -1440 -960 0
v -1440 -936 0
v -1416 -936 0
v -1440 -960 0
v -1464 -960 0
v -1464 -936 0
v -1440 -936 0
v -1464 -960 0
v -1488 -960 0
v -1488 -936 0
v -1464 -936 0
v -1488 -960 0
v -1512 -960 0
v -1512 -936 0
v -1488 -936 0
v -1512 -960 0
v -1536 -960 0
v -1536 -936 0
v -1512 -936 0
v -1536 -960 0
v -1560 -960 0
v -1560 -936 0
v -1536 -936 0
v -1560 -960 0
v -1584 -960 0
v -1584 -936 0
v -1560 -936 0
v -1608 -960 0
v -1632 -960 0
v -1632 -936 0
v -1608 -936 0
v -1680 -960 0
v -1704 -960 0
v -1704 -936 0
v -1680 -936 0
v -1728 -960 0
v -1752 -960 0
v -1752 -936 0
v -1728 -936 0
v -1752 -960 0
v -1776 -960 0
v -1776 -936 0
v -1752 -936 0
v -1776 -960 0
v -1800 -960 0
v -1800 -936 0
v -1776 -936 0
v -1800 -960 0
v -1824 -960 0
v -1824 -936 0
v -1800 -936 0
v -1824 -960 0
v -1848 -960 0
v -1848 -936 0
v -1824 -936 0
v -1848 -960 0
v -1872 -960 0
v -1872 -936 0
v -1848 -936 0
v -1872 -960 0
v -1896 -960 0
v -1896 -936 0
v -1872 -936 0
v -1896 -960 0
v -1920 -960 0
v -1920 -936 0
v -1896 -936 0
v -1920 -960 0
v -1944 -960 0
v -1944 -936 0
v -1920 -936 0
v -1272 -1080 0
v -1296 -1080 0
v -1296 -1056 0
v -1272 -1056 0
v -1296 -1080 0
v -1320 -1080 0
v -1320 -1056 0
v -1296 -1056 0
v -1320 -1080 0
v -1344 -1080 0
v -1344 -1056 0
v -1320 -1056 0
v -1344 -1080 0
v -1368 -1080 0
v -1368 -1056 0
v -1344 -1056 0
v -1272 -1224 0
v -1296 -1224 0
v -1296 -1200 0
v -1272 -1200 0
v -1296 -1224 0
v -1320 -1224 0
v -1320 -1200 0
v -1296 -1200 0
v -1320 -1224 0
v -1344 -1224 0
v -1344 -1200 0
v -1320 -1200 0
v -1344 -1224 0
v -1368 -1224 0
v -1368 -1200 0
v -1344 -1200 0
v -1368 -1224 0
v -1392 -1224 0
v -1392 -1200 0
v -1368 -1200 0
v -1392 -1224 0
v -1416 -1224 0
v -1416 -1200 0
v -1392 -1200 0
v -1392 -1344 0
v -1416 -1344 0
v -1416 -1320 0
v -1392 -1320 0
v -1416 -1344 0
v -1440 -1344 0
v -1440 -1320 0
v -1416 -1320 0
v -1440 -1344 0
v -1464 -1344 0
v -1464 -1320 0
v -1440 -1320 0
v -1464 -1344 0
v -1488 -1344 0
v -1488 -1320 0
v -1464 -1320 0
v -1488 -1344 0
v -1512 -1344 0
v -1512 -1320 0
v -1488 -1320 0
v -1512 -1344 0
v -1536 -1344 0
v -1536 -1320 0
v -1512 -1320 0
v -1536 -1344 0
v -1560 -1344 0
v -1560 -1320 0
v -1536 -1320 0
v -1560 -1344 0
v -1584 -1344 0
v -1584 -1320 0
v -1560 -1320 0
v -1584 -1344 0
v -1608 -1344 0
v -1608 -1320 0
v -1584 -1320 0
v -1608 -1344 0
v -1632 -1344 0
v -1632 -1320 0
v -1608 -1320 0
v -1680 -1344 0
v -1704 -1344 0
v -1704 -1320 0
v -1680 -1320 0
v -1704 -1344 0
v -1728 -1344 0
v -1728 -1320 0
v -1704 -1320 0
v -1728 -1344 0
v -1752 -1344 0
v -1752 -1320 0
v -1728 -1320 0
v -1752 -1344 0
v -1776 -1344 0
v -1776 -1320 0
v -1752 -1320 0
v -1776 -1344 0
v -1800 -1344 0
v -1800 -1320 0
v -1776 -1320 0
v -1800 -1344 0
v -1824 -1344 0
v -1824 -1320 0
v -1800 -1320 0
v -1824 -1344 0
v -1848 -1344 0
v -1848 -1320 0
v -1824 -1320 0
v -1848 -1344 0
v -1872 -1344 0
v -1872 -1320 0
v -1848 -1320 0
v -1872 -1344 0
v -1896 -1344 0
v -1896 -1320 0
v -1872 -1320 0
v -1896 -1344 0
v -1920 -1344 0
v -1920 -1320 0
v -1896 -1320 0
v -1920 -1344 0
v -1944 -1344 0
v -1944 -1320 0
v -1920 -1320 0
v -1680 -1368 0
v -1704 -1368 0
v -1704 -1344 0
v -1680 -1344 0
v -1680 -1392 0
v -1704 -1392 0
v -1704 -1368 0
v -1680 -1368 0
v -1680 -1416 0
v -1704 -1416 0
v -1704 -1392 0
v -1680 -1392 0
v -1680 -1440 0
v -1704 -1440 0
v -1704 -1416 0
v -1680 -1416 0

# Texture cooridinates (Count = 24)
vt 0.875 0.5333333
vt 0.90625 0.5333333
vt 0.90625 0.5666667
vt 0.875 0.5666667
vt 0.96875 0.5333333
vt 1 0.5333333
vt 1 0.5666667
vt 0.96875 0.5666667
vt 0.875 0.5
vt 0.90625 0.5
vt 0.96875 0.5
vt 1 0.5
vt 0.90625 0.6
vt 0.875 0.6
vt 0.9375 0.5666667
vt 0.9375 0.6
vt 0.96875 0.6
vt 1 0.6
vt 0.96875 0.6333333
vt 1 0.6333333
vt 1 0.6666666
vt 0.96875 0.6666666
vt 0.9375 0.6333333
vt 0.9375 0.6666666

# Normal
vn 0 0 -1

# Mesh description
g SalleNSW-SF---SP_mesh_0005

# Faces
f 1/1/1 2/2/1 3/3/1 4/4/1
f 5/5/1 6/6/1 7/7/1 8/8/1
f 9/1/1 10/2/1 11/3/1 12/4/1
f 13/5/1 14/6/1 15/7/1 16/8/1
f 17/9/1 18/10/1 19/2/1 20/1/1
f 21/11/1 22/12/1 23/6/1 24/5/1
f 25/9/1 26/10/1 27/2/1 28/1/1
f 29/11/1 30/12/1 31/6/1 32/5/1
f 33/9/1 34/10/1 35/2/1 36/1/1
f 37/11/1 38/12/1 39/6/1 40/5/1
f 41/9/1 42/10/1 43/2/1 44/1/1
f 45/11/1 46/12/1 47/6/1 48/5/1
f 49/4/1 50/3/1 51/13/1 52/14/1
f 53/3/1 54/15/1 55/16/1 56/13/1
f 57/15/1 58/8/1 59/17/1 60/16/1
f 61/15/1 62/8/1 63/17/1 64/16/1
f 65/15/1 66/8/1 67/17/1 68/16/1
f 69/15/1 70/8/1 71/17/1 72/16/1
f 73/15/1 74/8/1 75/17/1 76/16/1
f 77/15/1 78/8/1 79/17/1 80/16/1
f 81/15/1 82/8/1 83/17/1 84/16/1
f 85/11/1 86/12/1 87/6/1 88/5/1
f 89/9/1 90/10/1 91/2/1 92/1/1
f 93/3/1 94/15/1 95/16/1 96/13/1
f 97/3/1 98/15/1 99/16/1 100/13/1
f 101/3/1 102/15/1 103/16/1 104/13/1
f 105/3/1 106/15/1 107/16/1 108/13/1
f 109/3/1 110/15/1 111/16/1 112/13/1
f 113/3/1 114/15/1 115/16/1 116/13/1
f 117/3/1 118/15/1 119/16/1 120/13/1
f 121/15/1 122/8/1 123/17/1 124/16/1
f 125/8/1 126/7/1 127/18/1 128/17/1
f 129/3/1 130/15/1 131/16/1 132/13/1
f 133/15/1 134/8/1 135/17/1 136/16/1
f 137/15/1 138/8/1 139/17/1 140/16/1
f 141/15/1 142/8/1 143/17/1 144/16/1
f 145/3/1 146/15/1 147/16/1 148/13/1
f 149/15/1 150/8/1 151/17/1 152/16/1
f 153/15/1 154/8/1 155/17/1 156/16/1
f 157/15/1 158/8/1 159/17/1 160/16/1
f 161/15/1 162/8/1 163/17/1 164/16/1
f 165/8/1 166/7/1 167/18/1 168/17/1
f 169/19/1 170/20/1 171/21/1 172/22/1
f 173/3/1 174/15/1 175/16/1 176/13/1
f 177/15/1 178/8/1 179/17/1 180/16/1
f 181/15/1 182/8/1 183/17/1 184/16/1
f 185/15/1 186/8/1 187/17/1 188/16/1
f 189/15/1 190/8/1 191/17/1 192/16/1
f 193/15/1 194/8/1 195/17/1 196/16/1
f 197/15/1 198/8/1 199/17/1 200/16/1
f 201/15/1 202/8/1 203/17/1 204/16/1
f 205/8/1 206/7/1 207/18/1 208/17/1
f 209/4/1 210/3/1 211/13/1 212/14/1
f 213/3/1 214/15/1 215/16/1 216/13/1
f 217/3/1 218/15/1 219/16/1 220/13/1
f 221/3/1 222/15/1 223/16/1 224/13/1
f 225/3/1 226/15/1 227/16/1 228/13/1
f 229/3/1 230/15/1 231/16/1 232/13/1
f 233/3/1 234/15/1 235/16/1 236/13/1
f 237/3/1 238/15/1 239/16/1 240/13/1
f 241/15/1 242/8/1 243/17/1 244/16/1
f 245/23/1 246/19/1 247/22/1 248/24/1
f 249/5/1 250/6/1 251/7/1 252/8/1
f 253/1/1 254/2/1 255/3/1 256/4/1
f 257/1/1 258/2/1 259/3/1 260/4/1
f 261/1/1 262/2/1 263/3/1 264/4/1
f 265/9/1 266/10/1 267/2/1 268/1/1

