# Tiled2Unity generated file. Do not modify by hand.
# Wavefront file for 'SalleW-SF---SP_mesh_0001.obj'

# Vertices (Count = 856)
v -1368 -984 0
v -1392 -984 0
v -1392 -960 0
v -1368 -960 0
v -1392 -984 0
v -1416 -984 0
v -1416 -960 0
v -1392 -960 0
v -1416 -984 0
v -1440 -984 0
v -1440 -960 0
v -1416 -960 0
v -1440 -984 0
v -1464 -984 0
v -1464 -960 0
v -1440 -960 0
v -1464 -984 0
v -1488 -984 0
v -1488 -960 0
v -1464 -960 0
v -1488 -984 0
v -1512 -984 0
v -1512 -960 0
v -1488 -960 0
v -1512 -984 0
v -1536 -984 0
v -1536 -960 0
v -1512 -960 0
v -1536 -984 0
v -1560 -984 0
v -1560 -960 0
v -1536 -960 0
v -1560 -984 0
v -1584 -984 0
v -1584 -960 0
v -1560 -960 0
v -1584 -984 0
v -1608 -984 0
v -1608 -960 0
v -1584 -960 0
v -1608 -984 0
v -1632 -984 0
v -1632 -960 0
v -1608 -960 0
v -1632 -984 0
v -1656 -984 0
v -1656 -960 0
v -1632 -960 0
v -1656 -984 0
v -1680 -984 0
v -1680 -960 0
v -1656 -960 0
v -1680 -984 0
v -1704 -984 0
v -1704 -960 0
v -1680 -960 0
v -1704 -984 0
v -1728 -984 0
v -1728 -960 0
v -1704 -960 0
v -1728 -984 0
v -1752 -984 0
v -1752 -960 0
v -1728 -960 0
v -1752 -984 0
v -1776 -984 0
v -1776 -960 0
v -1752 -960 0
v -1776 -984 0
v -1800 -984 0
v -1800 -960 0
v -1776 -960 0
v -1800 -984 0
v -1824 -984 0
v -1824 -960 0
v -1800 -960 0
v -1824 -984 0
v -1848 -984 0
v -1848 -960 0
v -1824 -960 0
v -1848 -984 0
v -1872 -984 0
v -1872 -960 0
v -1848 -960 0
v -1872 -984 0
v -1896 -984 0
v -1896 -960 0
v -1872 -960 0
v -1896 -984 0
v -1920 -984 0
v -1920 -960 0
v -1896 -960 0
v -1920 -984 0
v -1944 -984 0
v -1944 -960 0
v -1920 -960 0
v -1368 -1008 0
v -1392 -1008 0
v -1392 -984 0
v -1368 -984 0
v -1392 -1008 0
v -1416 -1008 0
v -1416 -984 0
v -1392 -984 0
v -1416 -1008 0
v -1440 -1008 0
v -1440 -984 0
v -1416 -984 0
v -1440 -1008 0
v -1464 -1008 0
v -1464 -984 0
v -1440 -984 0
v -1464 -1008 0
v -1488 -1008 0
v -1488 -984 0
v -1464 -984 0
v -1488 -1008 0
v -1512 -1008 0
v -1512 -984 0
v -1488 -984 0
v -1512 -1008 0
v -1536 -1008 0
v -1536 -984 0
v -1512 -984 0
v -1536 -1008 0
v -1560 -1008 0
v -1560 -984 0
v -1536 -984 0
v -1560 -1008 0
v -1584 -1008 0
v -1584 -984 0
v -1560 -984 0
v -1584 -1008 0
v -1608 -1008 0
v -1608 -984 0
v -1584 -984 0
v -1608 -1008 0
v -1632 -1008 0
v -1632 -984 0
v -1608 -984 0
v -1632 -1008 0
v -1656 -1008 0
v -1656 -984 0
v -1632 -984 0
v -1656 -1008 0
v -1680 -1008 0
v -1680 -984 0
v -1656 -984 0
v -1680 -1008 0
v -1704 -1008 0
v -1704 -984 0
v -1680 -984 0
v -1704 -1008 0
v -1728 -1008 0
v -1728 -984 0
v -1704 -984 0
v -1728 -1008 0
v -1752 -1008 0
v -1752 -984 0
v -1728 -984 0
v -1752 -1008 0
v -1776 -1008 0
v -1776 -984 0
v -1752 -984 0
v -1776 -1008 0
v -1800 -1008 0
v -1800 -984 0
v -1776 -984 0
v -1800 -1008 0
v -1824 -1008 0
v -1824 -984 0
v -1800 -984 0
v -1824 -1008 0
v -1848 -1008 0
v -1848 -984 0
v -1824 -984 0
v -1848 -1008 0
v -1872 -1008 0
v -1872 -984 0
v -1848 -984 0
v -1872 -1008 0
v -1896 -1008 0
v -1896 -984 0
v -1872 -984 0
v -1896 -1008 0
v -1920 -1008 0
v -1920 -984 0
v -1896 -984 0
v -1920 -1008 0
v -1944 -1008 0
v -1944 -984 0
v -1920 -984 0
v -1368 -1032 0
v -1392 -1032 0
v -1392 -1008 0
v -1368 -1008 0
v -1392 -1032 0
v -1416 -1032 0
v -1416 -1008 0
v -1392 -1008 0
v -1416 -1032 0
v -1440 -1032 0
v -1440 -1008 0
v -1416 -1008 0
v -1440 -1032 0
v -1464 -1032 0
v -1464 -1008 0
v -1440 -1008 0
v -1464 -1032 0
v -1488 -1032 0
v -1488 -1008 0
v -1464 -1008 0
v -1488 -1032 0
v -1512 -1032 0
v -1512 -1008 0
v -1488 -1008 0
v -1512 -1032 0
v -1536 -1032 0
v -1536 -1008 0
v -1512 -1008 0
v -1536 -1032 0
v -1560 -1032 0
v -1560 -1008 0
v -1536 -1008 0
v -1560 -1032 0
v -1584 -1032 0
v -1584 -1008 0
v -1560 -1008 0
v -1584 -1032 0
v -1608 -1032 0
v -1608 -1008 0
v -1584 -1008 0
v -1608 -1032 0
v -1632 -1032 0
v -1632 -1008 0
v -1608 -1008 0
v -1632 -1032 0
v -1656 -1032 0
v -1656 -1008 0
v -1632 -1008 0
v -1656 -1032 0
v -1680 -1032 0
v -1680 -1008 0
v -1656 -1008 0
v -1680 -1032 0
v -1704 -1032 0
v -1704 -1008 0
v -1680 -1008 0
v -1704 -1032 0
v -1728 -1032 0
v -1728 -1008 0
v -1704 -1008 0
v -1728 -1032 0
v -1752 -1032 0
v -1752 -1008 0
v -1728 -1008 0
v -1752 -1032 0
v -1776 -1032 0
v -1776 -1008 0
v -1752 -1008 0
v -1776 -1032 0
v -1800 -1032 0
v -1800 -1008 0
v -1776 -1008 0
v -1800 -1032 0
v -1824 -1032 0
v -1824 -1008 0
v -1800 -1008 0
v -1824 -1032 0
v -1848 -1032 0
v -1848 -1008 0
v -1824 -1008 0
v -1848 -1032 0
v -1872 -1032 0
v -1872 -1008 0
v -1848 -1008 0
v -1872 -1032 0
v -1896 -1032 0
v -1896 -1008 0
v -1872 -1008 0
v -1896 -1032 0
v -1920 -1032 0
v -1920 -1008 0
v -1896 -1008 0
v -1920 -1032 0
v -1944 -1032 0
v -1944 -1008 0
v -1920 -1008 0
v -1368 -1056 0
v -1392 -1056 0
v -1392 -1032 0
v -1368 -1032 0
v -1392 -1056 0
v -1416 -1056 0
v -1416 -1032 0
v -1392 -1032 0
v -1896 -1056 0
v -1920 -1056 0
v -1920 -1032 0
v -1896 -1032 0
v -1920 -1056 0
v -1944 -1056 0
v -1944 -1032 0
v -1920 -1032 0
v -1368 -1080 0
v -1392 -1080 0
v -1392 -1056 0
v -1368 -1056 0
v -1392 -1080 0
v -1416 -1080 0
v -1416 -1056 0
v -1392 -1056 0
v -1896 -1080 0
v -1920 -1080 0
v -1920 -1056 0
v -1896 -1056 0
v -1920 -1080 0
v -1944 -1080 0
v -1944 -1056 0
v -1920 -1056 0
v -1272 -1104 0
v -1296 -1104 0
v -1296 -1080 0
v -1272 -1080 0
v -1296 -1104 0
v -1320 -1104 0
v -1320 -1080 0
v -1296 -1080 0
v -1320 -1104 0
v -1344 -1104 0
v -1344 -1080 0
v -1320 -1080 0
v -1344 -1104 0
v -1368 -1104 0
v -1368 -1080 0
v -1344 -1080 0
v -1368 -1104 0
v -1392 -1104 0
v -1392 -1080 0
v -1368 -1080 0
v -1392 -1104 0
v -1416 -1104 0
v -1416 -1080 0
v -1392 -1080 0
v -1896 -1104 0
v -1920 -1104 0
v -1920 -1080 0
v -1896 -1080 0
v -1920 -1104 0
v -1944 -1104 0
v -1944 -1080 0
v -1920 -1080 0
v -1272 -1128 0
v -1296 -1128 0
v -1296 -1104 0
v -1272 -1104 0
v -1296 -1128 0
v -1320 -1128 0
v -1320 -1104 0
v -1296 -1104 0
v -1320 -1128 0
v -1344 -1128 0
v -1344 -1104 0
v -1320 -1104 0
v -1344 -1128 0
v -1368 -1128 0
v -1368 -1104 0
v -1344 -1104 0
v -1368 -1128 0
v -1392 -1128 0
v -1392 -1104 0
v -1368 -1104 0
v -1392 -1128 0
v -1416 -1128 0
v -1416 -1104 0
v -1392 -1104 0
v -1896 -1128 0
v -1920 -1128 0
v -1920 -1104 0
v -1896 -1104 0
v -1920 -1128 0
v -1944 -1128 0
v -1944 -1104 0
v -1920 -1104 0
v -1272 -1152 0
v -1296 -1152 0
v -1296 -1128 0
v -1272 -1128 0
v -1296 -1152 0
v -1320 -1152 0
v -1320 -1128 0
v -1296 -1128 0
v -1320 -1152 0
v -1344 -1152 0
v -1344 -1128 0
v -1320 -1128 0
v -1344 -1152 0
v -1368 -1152 0
v -1368 -1128 0
v -1344 -1128 0
v -1368 -1152 0
v -1392 -1152 0
v -1392 -1128 0
v -1368 -1128 0
v -1392 -1152 0
v -1416 -1152 0
v -1416 -1128 0
v -1392 -1128 0
v -1896 -1152 0
v -1920 -1152 0
v -1920 -1128 0
v -1896 -1128 0
v -1920 -1152 0
v -1944 -1152 0
v -1944 -1128 0
v -1920 -1128 0
v -1896 -1176 0
v -1920 -1176 0
v -1920 -1152 0
v -1896 -1152 0
v -1920 -1176 0
v -1944 -1176 0
v -1944 -1152 0
v -1920 -1152 0
v -1896 -1200 0
v -1920 -1200 0
v -1920 -1176 0
v -1896 -1176 0
v -1920 -1200 0
v -1944 -1200 0
v -1944 -1176 0
v -1920 -1176 0
v -1896 -1224 0
v -1920 -1224 0
v -1920 -1200 0
v -1896 -1200 0
v -1920 -1224 0
v -1944 -1224 0
v -1944 -1200 0
v -1920 -1200 0
v -1272 -1248 0
v -1296 -1248 0
v -1296 -1224 0
v -1272 -1224 0
v -1296 -1248 0
v -1320 -1248 0
v -1320 -1224 0
v -1296 -1224 0
v -1320 -1248 0
v -1344 -1248 0
v -1344 -1224 0
v -1320 -1224 0
v -1344 -1248 0
v -1368 -1248 0
v -1368 -1224 0
v -1344 -1224 0
v -1368 -1248 0
v -1392 -1248 0
v -1392 -1224 0
v -1368 -1224 0
v -1392 -1248 0
v -1416 -1248 0
v -1416 -1224 0
v -1392 -1224 0
v -1896 -1248 0
v -1920 -1248 0
v -1920 -1224 0
v -1896 -1224 0
v -1920 -1248 0
v -1944 -1248 0
v -1944 -1224 0
v -1920 -1224 0
v -1272 -1272 0
v -1296 -1272 0
v -1296 -1248 0
v -1272 -1248 0
v -1296 -1272 0
v -1320 -1272 0
v -1320 -1248 0
v -1296 -1248 0
v -1320 -1272 0
v -1344 -1272 0
v -1344 -1248 0
v -1320 -1248 0
v -1344 -1272 0
v -1368 -1272 0
v -1368 -1248 0
v -1344 -1248 0
v -1368 -1272 0
v -1392 -1272 0
v -1392 -1248 0
v -1368 -1248 0
v -1392 -1272 0
v -1416 -1272 0
v -1416 -1248 0
v -1392 -1248 0
v -1896 -1272 0
v -1920 -1272 0
v -1920 -1248 0
v -1896 -1248 0
v -1920 -1272 0
v -1944 -1272 0
v -1944 -1248 0
v -1920 -1248 0
v -1272 -1296 0
v -1296 -1296 0
v -1296 -1272 0
v -1272 -1272 0
v -1296 -1296 0
v -1320 -1296 0
v -1320 -1272 0
v -1296 -1272 0
v -1320 -1296 0
v -1344 -1296 0
v -1344 -1272 0
v -1320 -1272 0
v -1344 -1296 0
v -1368 -1296 0
v -1368 -1272 0
v -1344 -1272 0
v -1368 -1296 0
v -1392 -1296 0
v -1392 -1272 0
v -1368 -1272 0
v -1392 -1296 0
v -1416 -1296 0
v -1416 -1272 0
v -1392 -1272 0
v -1896 -1296 0
v -1920 -1296 0
v -1920 -1272 0
v -1896 -1272 0
v -1920 -1296 0
v -1944 -1296 0
v -1944 -1272 0
v -1920 -1272 0
v -1368 -1320 0
v -1392 -1320 0
v -1392 -1296 0
v -1368 -1296 0
v -1392 -1320 0
v -1416 -1320 0
v -1416 -1296 0
v -1392 -1296 0
v -1896 -1320 0
v -1920 -1320 0
v -1920 -1296 0
v -1896 -1296 0
v -1920 -1320 0
v -1944 -1320 0
v -1944 -1296 0
v -1920 -1296 0
v -1368 -1344 0
v -1392 -1344 0
v -1392 -1320 0
v -1368 -1320 0
v -1392 -1344 0
v -1416 -1344 0
v -1416 -1320 0
v -1392 -1320 0
v -1896 -1344 0
v -1920 -1344 0
v -1920 -1320 0
v -1896 -1320 0
v -1920 -1344 0
v -1944 -1344 0
v -1944 -1320 0
v -1920 -1320 0
v -1368 -1368 0
v -1392 -1368 0
v -1392 -1344 0
v -1368 -1344 0
v -1392 -1368 0
v -1416 -1368 0
v -1416 -1344 0
v -1392 -1344 0
v -1416 -1368 0
v -1440 -1368 0
v -1440 -1344 0
v -1416 -1344 0
v -1440 -1368 0
v -1464 -1368 0
v -1464 -1344 0
v -1440 -1344 0
v -1464 -1368 0
v -1488 -1368 0
v -1488 -1344 0
v -1464 -1344 0
v -1488 -1368 0
v -1512 -1368 0
v -1512 -1344 0
v -1488 -1344 0
v -1512 -1368 0
v -1536 -1368 0
v -1536 -1344 0
v -1512 -1344 0
v -1536 -1368 0
v -1560 -1368 0
v -1560 -1344 0
v -1536 -1344 0
v -1560 -1368 0
v -1584 -1368 0
v -1584 -1344 0
v -1560 -1344 0
v -1584 -1368 0
v -1608 -1368 0
v -1608 -1344 0
v -1584 -1344 0
v -1608 -1368 0
v -1632 -1368 0
v -1632 -1344 0
v -1608 -1344 0
v -1632 -1368 0
v -1656 -1368 0
v -1656 -1344 0
v -1632 -1344 0
v -1656 -1368 0
v -1680 -1368 0
v -1680 -1344 0
v -1656 -1344 0
v -1680 -1368 0
v -1704 -1368 0
v -1704 -1344 0
v -1680 -1344 0
v -1704 -1368 0
v -1728 -1368 0
v -1728 -1344 0
v -1704 -1344 0
v -1728 -1368 0
v -1752 -1368 0
v -1752 -1344 0
v -1728 -1344 0
v -1752 -1368 0
v -1776 -1368 0
v -1776 -1344 0
v -1752 -1344 0
v -1776 -1368 0
v -1800 -1368 0
v -1800 -1344 0
v -1776 -1344 0
v -1800 -1368 0
v -1824 -1368 0
v -1824 -1344 0
v -1800 -1344 0
v -1824 -1368 0
v -1848 -1368 0
v -1848 -1344 0
v -1824 -1344 0
v -1848 -1368 0
v -1872 -1368 0
v -1872 -1344 0
v -1848 -1344 0
v -1872 -1368 0
v -1896 -1368 0
v -1896 -1344 0
v -1872 -1344 0
v -1896 -1368 0
v -1920 -1368 0
v -1920 -1344 0
v -1896 -1344 0
v -1920 -1368 0
v -1944 -1368 0
v -1944 -1344 0
v -1920 -1344 0
v -1368 -1392 0
v -1392 -1392 0
v -1392 -1368 0
v -1368 -1368 0
v -1392 -1392 0
v -1416 -1392 0
v -1416 -1368 0
v -1392 -1368 0
v -1416 -1392 0
v -1440 -1392 0
v -1440 -1368 0
v -1416 -1368 0
v -1440 -1392 0
v -1464 -1392 0
v -1464 -1368 0
v -1440 -1368 0
v -1464 -1392 0
v -1488 -1392 0
v -1488 -1368 0
v -1464 -1368 0
v -1488 -1392 0
v -1512 -1392 0
v -1512 -1368 0
v -1488 -1368 0
v -1512 -1392 0
v -1536 -1392 0
v -1536 -1368 0
v -1512 -1368 0
v -1536 -1392 0
v -1560 -1392 0
v -1560 -1368 0
v -1536 -1368 0
v -1560 -1392 0
v -1584 -1392 0
v -1584 -1368 0
v -1560 -1368 0
v -1584 -1392 0
v -1608 -1392 0
v -1608 -1368 0
v -1584 -1368 0
v -1608 -1392 0
v -1632 -1392 0
v -1632 -1368 0
v -1608 -1368 0
v -1632 -1392 0
v -1656 -1392 0
v -1656 -1368 0
v -1632 -1368 0
v -1656 -1392 0
v -1680 -1392 0
v -1680 -1368 0
v -1656 -1368 0
v -1680 -1392 0
v -1704 -1392 0
v -1704 -1368 0
v -1680 -1368 0
v -1704 -1392 0
v -1728 -1392 0
v -1728 -1368 0
v -1704 -1368 0
v -1728 -1392 0
v -1752 -1392 0
v -1752 -1368 0
v -1728 -1368 0
v -1752 -1392 0
v -1776 -1392 0
v -1776 -1368 0
v -1752 -1368 0
v -1776 -1392 0
v -1800 -1392 0
v -1800 -1368 0
v -1776 -1368 0
v -1800 -1392 0
v -1824 -1392 0
v -1824 -1368 0
v -1800 -1368 0
v -1824 -1392 0
v -1848 -1392 0
v -1848 -1368 0
v -1824 -1368 0
v -1848 -1392 0
v -1872 -1392 0
v -1872 -1368 0
v -1848 -1368 0
v -1872 -1392 0
v -1896 -1392 0
v -1896 -1368 0
v -1872 -1368 0
v -1896 -1392 0
v -1920 -1392 0
v -1920 -1368 0
v -1896 -1368 0
v -1920 -1392 0
v -1944 -1392 0
v -1944 -1368 0
v -1920 -1368 0
v -1368 -1416 0
v -1392 -1416 0
v -1392 -1392 0
v -1368 -1392 0
v -1392 -1416 0
v -1416 -1416 0
v -1416 -1392 0
v -1392 -1392 0
v -1416 -1416 0
v -1440 -1416 0
v -1440 -1392 0
v -1416 -1392 0
v -1440 -1416 0
v -1464 -1416 0
v -1464 -1392 0
v -1440 -1392 0
v -1464 -1416 0
v -1488 -1416 0
v -1488 -1392 0
v -1464 -1392 0
v -1488 -1416 0
v -1512 -1416 0
v -1512 -1392 0
v -1488 -1392 0
v -1512 -1416 0
v -1536 -1416 0
v -1536 -1392 0
v -1512 -1392 0
v -1536 -1416 0
v -1560 -1416 0
v -1560 -1392 0
v -1536 -1392 0
v -1560 -1416 0
v -1584 -1416 0
v -1584 -1392 0
v -1560 -1392 0
v -1584 -1416 0
v -1608 -1416 0
v -1608 -1392 0
v -1584 -1392 0
v -1608 -1416 0
v -1632 -1416 0
v -1632 -1392 0
v -1608 -1392 0
v -1632 -1416 0
v -1656 -1416 0
v -1656 -1392 0
v -1632 -1392 0
v -1656 -1416 0
v -1680 -1416 0
v -1680 -1392 0
v -1656 -1392 0
v -1680 -1416 0
v -1704 -1416 0
v -1704 -1392 0
v -1680 -1392 0
v -1704 -1416 0
v -1728 -1416 0
v -1728 -1392 0
v -1704 -1392 0
v -1728 -1416 0
v -1752 -1416 0
v -1752 -1392 0
v -1728 -1392 0
v -1752 -1416 0
v -1776 -1416 0
v -1776 -1392 0
v -1752 -1392 0
v -1776 -1416 0
v -1800 -1416 0
v -1800 -1392 0
v -1776 -1392 0
v -1800 -1416 0
v -1824 -1416 0
v -1824 -1392 0
v -1800 -1392 0
v -1824 -1416 0
v -1848 -1416 0
v -1848 -1392 0
v -1824 -1392 0
v -1848 -1416 0
v -1872 -1416 0
v -1872 -1392 0
v -1848 -1392 0
v -1872 -1416 0
v -1896 -1416 0
v -1896 -1392 0
v -1872 -1392 0
v -1896 -1416 0
v -1920 -1416 0
v -1920 -1392 0
v -1896 -1392 0
v -1920 -1416 0
v -1944 -1416 0
v -1944 -1392 0
v -1920 -1392 0

# Texture cooridinates (Count = 37)
vt 0.75 0.2
vt 0.78125 0.2
vt 0.78125 0.2333333
vt 0.75 0.2333333
vt 0.84375 0.2666667
vt 0.875 0.2666667
vt 0.875 0.3
vt 0.84375 0.3
vt 0.78125 0.1333333
vt 0.8125 0.1333333
vt 0.8125 0.1666667
vt 0.78125 0.1666667
vt 0.84375 0.1333333
vt 0.84375 0.1666667
vt 0.8125 0.2666667
vt 0.8125 0.3
vt 0.84375 0.2
vt 0.875 0.2
vt 0.875 0.2333333
vt 0.84375 0.2333333
vt 0.75 0.1666667
vt 0.75 0.1
vt 0.78125 0.1
vt 0.75 0.1333333
vt 0.8125 0.1
vt 0.84375 0.1
vt 0.875 0.1
vt 0.875 0.1333333
vt 0.75 0.06666666
vt 0.78125 0.06666666
vt 0.8125 0.06666666
vt 0.84375 0.06666666
vt 0.875 0.06666666
vt 0.84375 0.3333333
vt 0.8125 0.3333333
vt 0.875 0.1666667
vt 0.875 0.3333333

# Normal
vn 0 0 -1

# Mesh description
g SalleW-SF---SP_mesh_0001

# Faces
f 1/1/1 2/2/1 3/3/1 4/4/1
f 5/5/1 6/6/1 7/7/1 8/8/1
f 9/9/1 10/10/1 11/11/1 12/12/1
f 13/9/1 14/10/1 15/11/1 16/12/1
f 17/9/1 18/10/1 19/11/1 20/12/1
f 21/9/1 22/10/1 23/11/1 24/12/1
f 25/9/1 26/10/1 27/11/1 28/12/1
f 29/9/1 30/10/1 31/11/1 32/12/1
f 33/9/1 34/10/1 35/11/1 36/12/1
f 37/9/1 38/10/1 39/11/1 40/12/1
f 41/9/1 42/10/1 43/11/1 44/12/1
f 45/9/1 46/10/1 47/11/1 48/12/1
f 49/9/1 50/10/1 51/11/1 52/12/1
f 53/9/1 54/10/1 55/11/1 56/12/1
f 57/9/1 58/10/1 59/11/1 60/12/1
f 61/9/1 62/10/1 63/11/1 64/12/1
f 65/9/1 66/10/1 67/11/1 68/12/1
f 69/9/1 70/10/1 71/11/1 72/12/1
f 73/9/1 74/10/1 75/11/1 76/12/1
f 77/9/1 78/10/1 79/11/1 80/12/1
f 81/9/1 82/10/1 83/11/1 84/12/1
f 85/10/1 86/13/1 87/14/1 88/11/1
f 89/15/1 90/5/1 91/8/1 92/16/1
f 93/17/1 94/18/1 95/19/1 96/20/1
f 97/21/1 98/12/1 99/2/1 100/1/1
f 101/17/1 102/18/1 103/19/1 104/20/1
f 105/22/1 106/23/1 107/9/1 108/24/1
f 109/23/1 110/25/1 111/10/1 112/9/1
f 113/25/1 114/26/1 115/13/1 116/10/1
f 117/26/1 118/27/1 119/28/1 120/13/1
f 121/22/1 122/23/1 123/9/1 124/24/1
f 125/23/1 126/25/1 127/10/1 128/9/1
f 129/25/1 130/26/1 131/13/1 132/10/1
f 133/26/1 134/27/1 135/28/1 136/13/1
f 137/22/1 138/23/1 139/9/1 140/24/1
f 141/23/1 142/25/1 143/10/1 144/9/1
f 145/25/1 146/26/1 147/13/1 148/10/1
f 149/26/1 150/27/1 151/28/1 152/13/1
f 153/22/1 154/23/1 155/9/1 156/24/1
f 157/23/1 158/25/1 159/10/1 160/9/1
f 161/25/1 162/26/1 163/13/1 164/10/1
f 165/26/1 166/27/1 167/28/1 168/13/1
f 169/22/1 170/23/1 171/9/1 172/24/1
f 173/23/1 174/25/1 175/10/1 176/9/1
f 177/25/1 178/26/1 179/13/1 180/10/1
f 181/26/1 182/27/1 183/28/1 184/13/1
f 185/1/1 186/2/1 187/3/1 188/4/1
f 189/17/1 190/18/1 191/19/1 192/20/1
f 193/21/1 194/12/1 195/2/1 196/1/1
f 197/17/1 198/18/1 199/19/1 200/20/1
f 201/29/1 202/30/1 203/23/1 204/22/1
f 205/30/1 206/31/1 207/25/1 208/23/1
f 209/31/1 210/32/1 211/26/1 212/25/1
f 213/32/1 214/33/1 215/27/1 216/26/1
f 217/29/1 218/30/1 219/23/1 220/22/1
f 221/30/1 222/31/1 223/25/1 224/23/1
f 225/31/1 226/32/1 227/26/1 228/25/1
f 229/32/1 230/33/1 231/27/1 232/26/1
f 233/29/1 234/30/1 235/23/1 236/22/1
f 237/30/1 238/31/1 239/25/1 240/23/1
f 241/31/1 242/32/1 243/26/1 244/25/1
f 245/32/1 246/33/1 247/27/1 248/26/1
f 249/29/1 250/30/1 251/23/1 252/22/1
f 253/30/1 254/31/1 255/25/1 256/23/1
f 257/31/1 258/32/1 259/26/1 260/25/1
f 261/32/1 262/33/1 263/27/1 264/26/1
f 265/29/1 266/30/1 267/23/1 268/22/1
f 269/30/1 270/31/1 271/25/1 272/23/1
f 273/31/1 274/32/1 275/26/1 276/25/1
f 277/32/1 278/33/1 279/27/1 280/26/1
f 281/21/1 282/12/1 283/2/1 284/1/1
f 285/17/1 286/18/1 287/19/1 288/20/1
f 289/21/1 290/12/1 291/2/1 292/1/1
f 293/17/1 294/18/1 295/19/1 296/20/1
f 297/21/1 298/12/1 299/2/1 300/1/1
f 301/17/1 302/18/1 303/19/1 304/20/1
f 305/16/1 306/8/1 307/34/1 308/35/1
f 309/14/1 310/36/1 311/18/1 312/17/1
f 313/21/1 314/12/1 315/2/1 316/1/1
f 317/17/1 318/18/1 319/19/1 320/20/1
f 321/9/1 322/10/1 323/11/1 324/12/1
f 325/10/1 326/13/1 327/14/1 328/11/1
f 329/10/1 330/13/1 331/14/1 332/11/1
f 333/10/1 334/13/1 335/14/1 336/11/1
f 337/10/1 338/13/1 339/14/1 340/11/1
f 341/13/1 342/28/1 343/36/1 344/14/1
f 345/21/1 346/12/1 347/2/1 348/1/1
f 349/17/1 350/18/1 351/19/1 352/20/1
f 353/25/1 354/26/1 355/13/1 356/10/1
f 357/26/1 358/27/1 359/28/1 360/13/1
f 361/22/1 362/23/1 363/9/1 364/24/1
f 365/23/1 366/25/1 367/10/1 368/9/1
f 369/25/1 370/26/1 371/13/1 372/10/1
f 373/26/1 374/27/1 375/28/1 376/13/1
f 377/21/1 378/12/1 379/2/1 380/1/1
f 381/17/1 382/18/1 383/19/1 384/20/1
f 385/31/1 386/32/1 387/26/1 388/25/1
f 389/32/1 390/33/1 391/27/1 392/26/1
f 393/29/1 394/30/1 395/23/1 396/22/1
f 397/30/1 398/31/1 399/25/1 400/23/1
f 401/31/1 402/32/1 403/26/1 404/25/1
f 405/32/1 406/33/1 407/27/1 408/26/1
f 409/21/1 410/12/1 411/2/1 412/1/1
f 413/17/1 414/18/1 415/19/1 416/20/1
f 417/21/1 418/12/1 419/2/1 420/1/1
f 421/17/1 422/18/1 423/19/1 424/20/1
f 425/21/1 426/12/1 427/2/1 428/1/1
f 429/17/1 430/18/1 431/19/1 432/20/1
f 433/21/1 434/12/1 435/2/1 436/1/1
f 437/17/1 438/18/1 439/19/1 440/20/1
f 441/9/1 442/10/1 443/11/1 444/12/1
f 445/10/1 446/13/1 447/14/1 448/11/1
f 449/10/1 450/13/1 451/14/1 452/11/1
f 453/10/1 454/13/1 455/14/1 456/11/1
f 457/15/1 458/5/1 459/8/1 460/16/1
f 461/17/1 462/18/1 463/19/1 464/20/1
f 465/21/1 466/12/1 467/2/1 468/1/1
f 469/17/1 470/18/1 471/19/1 472/20/1
f 473/22/1 474/23/1 475/9/1 476/24/1
f 477/23/1 478/25/1 479/10/1 480/9/1
f 481/25/1 482/26/1 483/13/1 484/10/1
f 485/26/1 486/27/1 487/28/1 488/13/1
f 489/1/1 490/2/1 491/3/1 492/4/1
f 493/14/1 494/36/1 495/18/1 496/17/1
f 497/21/1 498/12/1 499/2/1 500/1/1
f 501/17/1 502/18/1 503/19/1 504/20/1
f 505/29/1 506/30/1 507/23/1 508/22/1
f 509/30/1 510/31/1 511/25/1 512/23/1
f 513/31/1 514/32/1 515/26/1 516/25/1
f 517/32/1 518/33/1 519/27/1 520/26/1
f 521/1/1 522/2/1 523/3/1 524/4/1
f 525/14/1 526/36/1 527/18/1 528/17/1
f 529/21/1 530/12/1 531/2/1 532/1/1
f 533/17/1 534/18/1 535/19/1 536/20/1
f 537/1/1 538/2/1 539/3/1 540/4/1
f 541/14/1 542/36/1 543/18/1 544/17/1
f 545/21/1 546/12/1 547/2/1 548/1/1
f 549/17/1 550/18/1 551/19/1 552/20/1
f 553/21/1 554/12/1 555/2/1 556/1/1
f 557/8/1 558/7/1 559/37/1 560/34/1
f 561/16/1 562/8/1 563/34/1 564/35/1
f 565/14/1 566/36/1 567/18/1 568/17/1
f 569/24/1 570/9/1 571/12/1 572/21/1
f 573/9/1 574/10/1 575/11/1 576/12/1
f 577/10/1 578/13/1 579/14/1 580/11/1
f 581/10/1 582/13/1 583/14/1 584/11/1
f 585/10/1 586/13/1 587/14/1 588/11/1
f 589/10/1 590/13/1 591/14/1 592/11/1
f 593/10/1 594/13/1 595/14/1 596/11/1
f 597/10/1 598/13/1 599/14/1 600/11/1
f 601/10/1 602/13/1 603/14/1 604/11/1
f 605/10/1 606/13/1 607/14/1 608/11/1
f 609/10/1 610/13/1 611/14/1 612/11/1
f 613/10/1 614/13/1 615/14/1 616/11/1
f 617/10/1 618/13/1 619/14/1 620/11/1
f 621/10/1 622/13/1 623/14/1 624/11/1
f 625/10/1 626/13/1 627/14/1 628/11/1
f 629/10/1 630/13/1 631/14/1 632/11/1
f 633/10/1 634/13/1 635/14/1 636/11/1
f 637/10/1 638/13/1 639/14/1 640/11/1
f 641/10/1 642/13/1 643/14/1 644/11/1
f 645/10/1 646/13/1 647/14/1 648/11/1
f 649/10/1 650/13/1 651/14/1 652/11/1
f 653/10/1 654/13/1 655/14/1 656/11/1
f 657/10/1 658/13/1 659/14/1 660/11/1
f 661/13/1 662/28/1 663/36/1 664/14/1
f 665/22/1 666/23/1 667/9/1 668/24/1
f 669/23/1 670/25/1 671/10/1 672/9/1
f 673/25/1 674/26/1 675/13/1 676/10/1
f 677/26/1 678/27/1 679/28/1 680/13/1
f 681/22/1 682/23/1 683/9/1 684/24/1
f 685/23/1 686/25/1 687/10/1 688/9/1
f 689/25/1 690/26/1 691/13/1 692/10/1
f 693/26/1 694/27/1 695/28/1 696/13/1
f 697/22/1 698/23/1 699/9/1 700/24/1
f 701/23/1 702/25/1 703/10/1 704/9/1
f 705/25/1 706/26/1 707/13/1 708/10/1
f 709/26/1 710/27/1 711/28/1 712/13/1
f 713/22/1 714/23/1 715/9/1 716/24/1
f 717/23/1 718/25/1 719/10/1 720/9/1
f 721/25/1 722/26/1 723/13/1 724/10/1
f 725/26/1 726/27/1 727/28/1 728/13/1
f 729/22/1 730/23/1 731/9/1 732/24/1
f 733/23/1 734/25/1 735/10/1 736/9/1
f 737/25/1 738/26/1 739/13/1 740/10/1
f 741/26/1 742/27/1 743/28/1 744/13/1
f 745/22/1 746/23/1 747/9/1 748/24/1
f 749/23/1 750/25/1 751/10/1 752/9/1
f 753/25/1 754/26/1 755/13/1 756/10/1
f 757/26/1 758/27/1 759/28/1 760/13/1
f 761/29/1 762/30/1 763/23/1 764/22/1
f 765/30/1 766/31/1 767/25/1 768/23/1
f 769/31/1 770/32/1 771/26/1 772/25/1
f 773/32/1 774/33/1 775/27/1 776/26/1
f 777/29/1 778/30/1 779/23/1 780/22/1
f 781/30/1 782/31/1 783/25/1 784/23/1
f 785/31/1 786/32/1 787/26/1 788/25/1
f 789/32/1 790/33/1 791/27/1 792/26/1
f 793/29/1 794/30/1 795/23/1 796/22/1
f 797/30/1 798/31/1 799/25/1 800/23/1
f 801/31/1 802/32/1 803/26/1 804/25/1
f 805/32/1 806/33/1 807/27/1 808/26/1
f 809/29/1 810/30/1 811/23/1 812/22/1
f 813/30/1 814/31/1 815/25/1 816/23/1
f 817/31/1 818/32/1 819/26/1 820/25/1
f 821/32/1 822/33/1 823/27/1 824/26/1
f 825/29/1 826/30/1 827/23/1 828/22/1
f 829/30/1 830/31/1 831/25/1 832/23/1
f 833/31/1 834/32/1 835/26/1 836/25/1
f 837/32/1 838/33/1 839/27/1 840/26/1
f 841/29/1 842/30/1 843/23/1 844/22/1
f 845/30/1 846/31/1 847/25/1 848/23/1
f 849/31/1 850/32/1 851/26/1 852/25/1
f 853/32/1 854/33/1 855/27/1 856/26/1

