# Tiled2Unity generated file. Do not modify by hand.
# Wavefront file for 'SalleW-SF---SP_mesh_0007.obj'

# Vertices (Count = 48)
v -1584 -1056 0
v -1608 -1056 0
v -1608 -1032 0
v -1584 -1032 0
v -1608 -1056 0
v -1632 -1056 0
v -1632 -1032 0
v -1608 -1032 0
v -1632 -1056 0
v -1656 -1056 0
v -1656 -1032 0
v -1632 -1032 0
v -1656 -1056 0
v -1680 -1056 0
v -1680 -1032 0
v -1656 -1032 0
v -1680 -1056 0
v -1704 -1056 0
v -1704 -1032 0
v -1680 -1032 0
v -1704 -1056 0
v -1728 -1056 0
v -1728 -1032 0
v -1704 -1032 0
v -1584 -1080 0
v -1608 -1080 0
v -1608 -1056 0
v -1584 -1056 0
v -1608 -1080 0
v -1632 -1080 0
v -1632 -1056 0
v -1608 -1056 0
v -1632 -1080 0
v -1656 -1080 0
v -1656 -1056 0
v -1632 -1056 0
v -1656 -1080 0
v -1680 -1080 0
v -1680 -1056 0
v -1656 -1056 0
v -1680 -1080 0
v -1704 -1080 0
v -1704 -1056 0
v -1680 -1056 0
v -1704 -1080 0
v -1728 -1080 0
v -1728 -1056 0
v -1704 -1056 0

# Texture cooridinates (Count = 21)
vt 0.1875 0.96875
vt 0.21875 0.96875
vt 0.21875 1
vt 0.1875 1
vt 0.25 0.96875
vt 0.25 1
vt 0.28125 0.96875
vt 0.28125 1
vt 0.3125 0.96875
vt 0.3125 1
vt 0.34375 0.96875
vt 0.34375 1
vt 0.375 0.96875
vt 0.375 1
vt 0.1875 0.9375
vt 0.21875 0.9375
vt 0.25 0.9375
vt 0.28125 0.9375
vt 0.3125 0.9375
vt 0.34375 0.9375
vt 0.375 0.9375

# Normal
vn 0 0 -1

# Mesh description
g SalleW-SF---SP_mesh_0007

# Faces
f 1/1/1 2/2/1 3/3/1 4/4/1
f 5/2/1 6/5/1 7/6/1 8/3/1
f 9/5/1 10/7/1 11/8/1 12/6/1
f 13/7/1 14/9/1 15/10/1 16/8/1
f 17/9/1 18/11/1 19/12/1 20/10/1
f 21/11/1 22/13/1 23/14/1 24/12/1
f 25/15/1 26/16/1 27/2/1 28/1/1
f 29/16/1 30/17/1 31/5/1 32/2/1
f 33/17/1 34/18/1 35/7/1 36/5/1
f 37/18/1 38/19/1 39/9/1 40/7/1
f 41/19/1 42/20/1 43/11/1 44/9/1
f 45/20/1 46/21/1 47/13/1 48/11/1

