# Tiled2Unity generated file. Do not modify by hand.
# Wavefront file for 'SalleW-SF---SP_mesh_0006.obj'

# Vertices (Count = 216)
v -1368 -960 0
v -1392 -960 0
v -1392 -936 0
v -1368 -936 0
v -1392 -960 0
v -1416 -960 0
v -1416 -936 0
v -1392 -936 0
v -1416 -960 0
v -1440 -960 0
v -1440 -936 0
v -1416 -936 0
v -1440 -960 0
v -1464 -960 0
v -1464 -936 0
v -1440 -936 0
v -1464 -960 0
v -1488 -960 0
v -1488 -936 0
v -1464 -936 0
v -1488 -960 0
v -1512 -960 0
v -1512 -936 0
v -1488 -936 0
v -1512 -960 0
v -1536 -960 0
v -1536 -936 0
v -1512 -936 0
v -1536 -960 0
v -1560 -960 0
v -1560 -936 0
v -1536 -936 0
v -1560 -960 0
v -1584 -960 0
v -1584 -936 0
v -1560 -936 0
v -1584 -960 0
v -1608 -960 0
v -1608 -936 0
v -1584 -936 0
v -1608 -960 0
v -1632 -960 0
v -1632 -936 0
v -1608 -936 0
v -1632 -960 0
v -1656 -960 0
v -1656 -936 0
v -1632 -936 0
v -1656 -960 0
v -1680 -960 0
v -1680 -936 0
v -1656 -936 0
v -1680 -960 0
v -1704 -960 0
v -1704 -936 0
v -1680 -936 0
v -1704 -960 0
v -1728 -960 0
v -1728 -936 0
v -1704 -936 0
v -1728 -960 0
v -1752 -960 0
v -1752 -936 0
v -1728 -936 0
v -1752 -960 0
v -1776 -960 0
v -1776 -936 0
v -1752 -936 0
v -1776 -960 0
v -1800 -960 0
v -1800 -936 0
v -1776 -936 0
v -1800 -960 0
v -1824 -960 0
v -1824 -936 0
v -1800 -936 0
v -1824 -960 0
v -1848 -960 0
v -1848 -936 0
v -1824 -936 0
v -1848 -960 0
v -1872 -960 0
v -1872 -936 0
v -1848 -936 0
v -1872 -960 0
v -1896 -960 0
v -1896 -936 0
v -1872 -936 0
v -1896 -960 0
v -1920 -960 0
v -1920 -936 0
v -1896 -936 0
v -1920 -960 0
v -1944 -960 0
v -1944 -936 0
v -1920 -936 0
v -1272 -1080 0
v -1296 -1080 0
v -1296 -1056 0
v -1272 -1056 0
v -1296 -1080 0
v -1320 -1080 0
v -1320 -1056 0
v -1296 -1056 0
v -1320 -1080 0
v -1344 -1080 0
v -1344 -1056 0
v -1320 -1056 0
v -1344 -1080 0
v -1368 -1080 0
v -1368 -1056 0
v -1344 -1056 0
v -1272 -1224 0
v -1296 -1224 0
v -1296 -1200 0
v -1272 -1200 0
v -1296 -1224 0
v -1320 -1224 0
v -1320 -1200 0
v -1296 -1200 0
v -1320 -1224 0
v -1344 -1224 0
v -1344 -1200 0
v -1320 -1200 0
v -1344 -1224 0
v -1368 -1224 0
v -1368 -1200 0
v -1344 -1200 0
v -1368 -1224 0
v -1392 -1224 0
v -1392 -1200 0
v -1368 -1200 0
v -1392 -1224 0
v -1416 -1224 0
v -1416 -1200 0
v -1392 -1200 0
v -1416 -1344 0
v -1440 -1344 0
v -1440 -1320 0
v -1416 -1320 0
v -1440 -1344 0
v -1464 -1344 0
v -1464 -1320 0
v -1440 -1320 0
v -1464 -1344 0
v -1488 -1344 0
v -1488 -1320 0
v -1464 -1320 0
v -1488 -1344 0
v -1512 -1344 0
v -1512 -1320 0
v -1488 -1320 0
v -1512 -1344 0
v -1536 -1344 0
v -1536 -1320 0
v -1512 -1320 0
v -1536 -1344 0
v -1560 -1344 0
v -1560 -1320 0
v -1536 -1320 0
v -1560 -1344 0
v -1584 -1344 0
v -1584 -1320 0
v -1560 -1320 0
v -1584 -1344 0
v -1608 -1344 0
v -1608 -1320 0
v -1584 -1320 0
v -1608 -1344 0
v -1632 -1344 0
v -1632 -1320 0
v -1608 -1320 0
v -1632 -1344 0
v -1656 -1344 0
v -1656 -1320 0
v -1632 -1320 0
v -1656 -1344 0
v -1680 -1344 0
v -1680 -1320 0
v -1656 -1320 0
v -1680 -1344 0
v -1704 -1344 0
v -1704 -1320 0
v -1680 -1320 0
v -1704 -1344 0
v -1728 -1344 0
v -1728 -1320 0
v -1704 -1320 0
v -1728 -1344 0
v -1752 -1344 0
v -1752 -1320 0
v -1728 -1320 0
v -1752 -1344 0
v -1776 -1344 0
v -1776 -1320 0
v -1752 -1320 0
v -1776 -1344 0
v -1800 -1344 0
v -1800 -1320 0
v -1776 -1320 0
v -1800 -1344 0
v -1824 -1344 0
v -1824 -1320 0
v -1800 -1320 0
v -1824 -1344 0
v -1848 -1344 0
v -1848 -1320 0
v -1824 -1320 0
v -1848 -1344 0
v -1872 -1344 0
v -1872 -1320 0
v -1848 -1320 0
v -1872 -1344 0
v -1896 -1344 0
v -1896 -1320 0
v -1872 -1320 0

# Texture cooridinates (Count = 10)
vt 0.75 0.2333333
vt 0.78125 0.2333333
vt 0.78125 0.2666667
vt 0.75 0.2666667
vt 0.8125 0.2333333
vt 0.8125 0.2666667
vt 0.84375 0.2333333
vt 0.84375 0.2666667
vt 0.875 0.2333333
vt 0.875 0.2666667

# Normal
vn 0 0 -1

# Mesh description
g SalleW-SF---SP_mesh_0006

# Faces
f 1/1/1 2/2/1 3/3/1 4/4/1
f 5/2/1 6/5/1 7/6/1 8/3/1
f 9/2/1 10/5/1 11/6/1 12/3/1
f 13/2/1 14/5/1 15/6/1 16/3/1
f 17/2/1 18/5/1 19/6/1 20/3/1
f 21/2/1 22/5/1 23/6/1 24/3/1
f 25/2/1 26/5/1 27/6/1 28/3/1
f 29/2/1 30/5/1 31/6/1 32/3/1
f 33/2/1 34/5/1 35/6/1 36/3/1
f 37/2/1 38/5/1 39/6/1 40/3/1
f 41/2/1 42/5/1 43/6/1 44/3/1
f 45/2/1 46/5/1 47/6/1 48/3/1
f 49/2/1 50/5/1 51/6/1 52/3/1
f 53/2/1 54/5/1 55/6/1 56/3/1
f 57/2/1 58/5/1 59/6/1 60/3/1
f 61/2/1 62/5/1 63/6/1 64/3/1
f 65/2/1 66/5/1 67/6/1 68/3/1
f 69/2/1 70/5/1 71/6/1 72/3/1
f 73/2/1 74/5/1 75/6/1 76/3/1
f 77/2/1 78/5/1 79/6/1 80/3/1
f 81/2/1 82/5/1 83/6/1 84/3/1
f 85/2/1 86/5/1 87/6/1 88/3/1
f 89/5/1 90/7/1 91/8/1 92/6/1
f 93/7/1 94/9/1 95/10/1 96/8/1
f 97/2/1 98/5/1 99/6/1 100/3/1
f 101/5/1 102/7/1 103/8/1 104/6/1
f 105/5/1 106/7/1 107/8/1 108/6/1
f 109/5/1 110/7/1 111/8/1 112/6/1
f 113/2/1 114/5/1 115/6/1 116/3/1
f 117/5/1 118/7/1 119/8/1 120/6/1
f 121/5/1 122/7/1 123/8/1 124/6/1
f 125/5/1 126/7/1 127/8/1 128/6/1
f 129/5/1 130/7/1 131/8/1 132/6/1
f 133/7/1 134/9/1 135/10/1 136/8/1
f 137/2/1 138/5/1 139/6/1 140/3/1
f 141/5/1 142/7/1 143/8/1 144/6/1
f 145/5/1 146/7/1 147/8/1 148/6/1
f 149/5/1 150/7/1 151/8/1 152/6/1
f 153/5/1 154/7/1 155/8/1 156/6/1
f 157/5/1 158/7/1 159/8/1 160/6/1
f 161/5/1 162/7/1 163/8/1 164/6/1
f 165/5/1 166/7/1 167/8/1 168/6/1
f 169/5/1 170/7/1 171/8/1 172/6/1
f 173/5/1 174/7/1 175/8/1 176/6/1
f 177/5/1 178/7/1 179/8/1 180/6/1
f 181/5/1 182/7/1 183/8/1 184/6/1
f 185/5/1 186/7/1 187/8/1 188/6/1
f 189/5/1 190/7/1 191/8/1 192/6/1
f 193/5/1 194/7/1 195/8/1 196/6/1
f 197/5/1 198/7/1 199/8/1 200/6/1
f 201/5/1 202/7/1 203/8/1 204/6/1
f 205/5/1 206/7/1 207/8/1 208/6/1
f 209/5/1 210/7/1 211/8/1 212/6/1
f 213/5/1 214/7/1 215/8/1 216/6/1

