# Tiled2Unity generated file. Do not modify by hand.
# Wavefront file for 'SalleW-SF---SP_mesh_0004.obj'

# Vertices (Count = 160)
v -1440 -1008 0
v -1464 -1008 0
v -1464 -984 0
v -1440 -984 0
v -1464 -1008 0
v -1488 -1008 0
v -1488 -984 0
v -1464 -984 0
v -1440 -1032 0
v -1464 -1032 0
v -1464 -1008 0
v -1440 -1008 0
v -1464 -1032 0
v -1488 -1032 0
v -1488 -1008 0
v -1464 -1008 0
v -1584 -1104 0
v -1608 -1104 0
v -1608 -1080 0
v -1584 -1080 0
v -1608 -1104 0
v -1632 -1104 0
v -1632 -1080 0
v -1608 -1080 0
v -1632 -1104 0
v -1656 -1104 0
v -1656 -1080 0
v -1632 -1080 0
v -1656 -1104 0
v -1680 -1104 0
v -1680 -1080 0
v -1656 -1080 0
v -1680 -1104 0
v -1704 -1104 0
v -1704 -1080 0
v -1680 -1080 0
v -1704 -1104 0
v -1728 -1104 0
v -1728 -1080 0
v -1704 -1080 0
v -1584 -1128 0
v -1608 -1128 0
v -1608 -1104 0
v -1584 -1104 0
v -1608 -1128 0
v -1632 -1128 0
v -1632 -1104 0
v -1608 -1104 0
v -1632 -1128 0
v -1656 -1128 0
v -1656 -1104 0
v -1632 -1104 0
v -1656 -1128 0
v -1680 -1128 0
v -1680 -1104 0
v -1656 -1104 0
v -1680 -1128 0
v -1704 -1128 0
v -1704 -1104 0
v -1680 -1104 0
v -1704 -1128 0
v -1728 -1128 0
v -1728 -1104 0
v -1704 -1104 0
v -1776 -1128 0
v -1800 -1128 0
v -1800 -1104 0
v -1776 -1104 0
v -1800 -1128 0
v -1824 -1128 0
v -1824 -1104 0
v -1800 -1104 0
v -1776 -1152 0
v -1800 -1152 0
v -1800 -1128 0
v -1776 -1128 0
v -1800 -1152 0
v -1824 -1152 0
v -1824 -1128 0
v -1800 -1128 0
v -1656 -1200 0
v -1680 -1200 0
v -1680 -1176 0
v -1656 -1176 0
v -1680 -1200 0
v -1704 -1200 0
v -1704 -1176 0
v -1680 -1176 0
v -1824 -1200 0
v -1848 -1200 0
v -1848 -1176 0
v -1824 -1176 0
v -1848 -1200 0
v -1872 -1200 0
v -1872 -1176 0
v -1848 -1176 0
v -1656 -1224 0
v -1680 -1224 0
v -1680 -1200 0
v -1656 -1200 0
v -1680 -1224 0
v -1704 -1224 0
v -1704 -1200 0
v -1680 -1200 0
v -1752 -1224 0
v -1776 -1224 0
v -1776 -1200 0
v -1752 -1200 0
v -1776 -1224 0
v -1800 -1224 0
v -1800 -1200 0
v -1776 -1200 0
v -1824 -1224 0
v -1848 -1224 0
v -1848 -1200 0
v -1824 -1200 0
v -1848 -1224 0
v -1872 -1224 0
v -1872 -1200 0
v -1848 -1200 0
v -1752 -1248 0
v -1776 -1248 0
v -1776 -1224 0
v -1752 -1224 0
v -1776 -1248 0
v -1800 -1248 0
v -1800 -1224 0
v -1776 -1224 0
v -1584 -1272 0
v -1608 -1272 0
v -1608 -1248 0
v -1584 -1248 0
v -1608 -1272 0
v -1632 -1272 0
v -1632 -1248 0
v -1608 -1248 0
v -1776 -1272 0
v -1800 -1272 0
v -1800 -1248 0
v -1776 -1248 0
v -1800 -1272 0
v -1824 -1272 0
v -1824 -1248 0
v -1800 -1248 0
v -1584 -1296 0
v -1608 -1296 0
v -1608 -1272 0
v -1584 -1272 0
v -1608 -1296 0
v -1632 -1296 0
v -1632 -1272 0
v -1608 -1272 0
v -1776 -1296 0
v -1800 -1296 0
v -1800 -1272 0
v -1776 -1272 0
v -1800 -1296 0
v -1824 -1296 0
v -1824 -1272 0
v -1800 -1272 0

# Texture cooridinates (Count = 48)
vt 0.3125 0.59375
vt 0.34375 0.59375
vt 0.34375 0.625
vt 0.3125 0.625
vt 0.375 0.59375
vt 0.375 0.625
vt 0.3125 0.5625
vt 0.34375 0.5625
vt 0.375 0.5625
vt 0.1875 0.90625
vt 0.21875 0.90625
vt 0.21875 0.9375
vt 0.1875 0.9375
vt 0.25 0.90625
vt 0.25 0.9375
vt 0.28125 0.90625
vt 0.28125 0.9375
vt 0.3125 0.90625
vt 0.3125 0.9375
vt 0.34375 0.90625
vt 0.34375 0.9375
vt 0.375 0.90625
vt 0.375 0.9375
vt 0.1875 0.875
vt 0.21875 0.875
vt 0.25 0.875
vt 0.28125 0.875
vt 0.3125 0.875
vt 0.34375 0.875
vt 0.375 0.875
vt 0.375 0.34375
vt 0.40625 0.34375
vt 0.40625 0.375
vt 0.375 0.375
vt 0.4375 0.34375
vt 0.4375 0.375
vt 0.375 0.3125
vt 0.40625 0.3125
vt 0.4375 0.3125
vt 0.5625 0.59375
vt 0.59375 0.59375
vt 0.59375 0.625
vt 0.5625 0.625
vt 0.625 0.59375
vt 0.625 0.625
vt 0.5625 0.5625
vt 0.59375 0.5625
vt 0.625 0.5625

# Normal
vn 0 0 -1

# Mesh description
g SalleW-SF---SP_mesh_0004

# Faces
f 1/1/1 2/2/1 3/3/1 4/4/1
f 5/2/1 6/5/1 7/6/1 8/3/1
f 9/7/1 10/8/1 11/2/1 12/1/1
f 13/8/1 14/9/1 15/5/1 16/2/1
f 17/10/1 18/11/1 19/12/1 20/13/1
f 21/11/1 22/14/1 23/15/1 24/12/1
f 25/14/1 26/16/1 27/17/1 28/15/1
f 29/16/1 30/18/1 31/19/1 32/17/1
f 33/18/1 34/20/1 35/21/1 36/19/1
f 37/20/1 38/22/1 39/23/1 40/21/1
f 41/24/1 42/25/1 43/11/1 44/10/1
f 45/25/1 46/26/1 47/14/1 48/11/1
f 49/26/1 50/27/1 51/16/1 52/14/1
f 53/27/1 54/28/1 55/18/1 56/16/1
f 57/28/1 58/29/1 59/20/1 60/18/1
f 61/29/1 62/30/1 63/22/1 64/20/1
f 65/31/1 66/32/1 67/33/1 68/34/1
f 69/32/1 70/35/1 71/36/1 72/33/1
f 73/37/1 74/38/1 75/32/1 76/31/1
f 77/38/1 78/39/1 79/35/1 80/32/1
f 81/31/1 82/32/1 83/33/1 84/34/1
f 85/32/1 86/35/1 87/36/1 88/33/1
f 89/40/1 90/41/1 91/42/1 92/43/1
f 93/41/1 94/44/1 95/45/1 96/42/1
f 97/37/1 98/38/1 99/32/1 100/31/1
f 101/38/1 102/39/1 103/35/1 104/32/1
f 105/31/1 106/32/1 107/33/1 108/34/1
f 109/32/1 110/35/1 111/36/1 112/33/1
f 113/46/1 114/47/1 115/41/1 116/40/1
f 117/47/1 118/48/1 119/44/1 120/41/1
f 121/37/1 122/38/1 123/32/1 124/31/1
f 125/38/1 126/39/1 127/35/1 128/32/1
f 129/40/1 130/41/1 131/42/1 132/43/1
f 133/41/1 134/44/1 135/45/1 136/42/1
f 137/40/1 138/41/1 139/42/1 140/43/1
f 141/41/1 142/44/1 143/45/1 144/42/1
f 145/46/1 146/47/1 147/41/1 148/40/1
f 149/47/1 150/48/1 151/44/1 152/41/1
f 153/46/1 154/47/1 155/41/1 156/40/1
f 157/47/1 158/48/1 159/44/1 160/41/1

