# Tiled2Unity generated file. Do not modify by hand.
# Wavefront file for 'SalleBoss-Alt_mesh_0009.obj'

# Vertices (Count = 32)
v -312 -96 0
v -336 -96 0
v -336 -72 0
v -312 -72 0
v -336 -96 0
v -360 -96 0
v -360 -72 0
v -336 -72 0
v -312 -120 0
v -336 -120 0
v -336 -96 0
v -312 -96 0
v -336 -120 0
v -360 -120 0
v -360 -96 0
v -336 -96 0
v -312 -360 0
v -336 -360 0
v -336 -336 0
v -312 -336 0
v -336 -360 0
v -360 -360 0
v -360 -336 0
v -336 -336 0
v -312 -384 0
v -336 -384 0
v -336 -360 0
v -312 -360 0
v -336 -384 0
v -360 -384 0
v -360 -360 0
v -336 -360 0

# Texture cooridinates (Count = 9)
vt 0.4375 0.96875
vt 0.46875 0.96875
vt 0.46875 1
vt 0.4375 1
vt 0.5 0.96875
vt 0.5 1
vt 0.4375 0.9375
vt 0.46875 0.9375
vt 0.5 0.9375

# Normal
vn 0 0 -1

# Mesh description
g SalleBoss-Alt_mesh_0009

# Faces
f 1/1/1 2/2/1 3/3/1 4/4/1
f 5/2/1 6/5/1 7/6/1 8/3/1
f 9/7/1 10/8/1 11/2/1 12/1/1
f 13/8/1 14/9/1 15/5/1 16/2/1
f 17/1/1 18/2/1 19/3/1 20/4/1
f 21/2/1 22/5/1 23/6/1 24/3/1
f 25/7/1 26/8/1 27/2/1 28/1/1
f 29/8/1 30/9/1 31/5/1 32/2/1

