# Tiled2Unity generated file. Do not modify by hand.
# Wavefront file for 'SalleBoss-Alt_mesh_0005.obj'

# Vertices (Count = 176)
v -192 -72 0
v -216 -72 0
v -216 -48 0
v -192 -48 0
v -216 -72 0
v -240 -72 0
v -240 -48 0
v -216 -48 0
v -336 -72 0
v -360 -72 0
v -360 -48 0
v -336 -48 0
v -360 -72 0
v -384 -72 0
v -384 -48 0
v -360 -48 0
v -672 -72 0
v -696 -72 0
v -696 -48 0
v -672 -48 0
v -696 -72 0
v -720 -72 0
v -720 -48 0
v -696 -48 0
v -720 -72 0
v -744 -72 0
v -744 -48 0
v -720 -48 0
v -744 -72 0
v -768 -72 0
v -768 -48 0
v -744 -48 0
v -192 -96 0
v -216 -96 0
v -216 -72 0
v -192 -72 0
v -216 -96 0
v -240 -96 0
v -240 -72 0
v -216 -72 0
v -336 -96 0
v -360 -96 0
v -360 -72 0
v -336 -72 0
v -360 -96 0
v -384 -96 0
v -384 -72 0
v -360 -72 0
v -672 -96 0
v -696 -96 0
v -696 -72 0
v -672 -72 0
v -696 -96 0
v -720 -96 0
v -720 -72 0
v -696 -72 0
v -720 -96 0
v -744 -96 0
v -744 -72 0
v -720 -72 0
v -744 -96 0
v -768 -96 0
v -768 -72 0
v -744 -72 0
v -96 -120 0
v -120 -120 0
v -120 -96 0
v -96 -96 0
v -120 -120 0
v -144 -120 0
v -144 -96 0
v -120 -96 0
v -96 -144 0
v -120 -144 0
v -120 -120 0
v -96 -120 0
v -120 -144 0
v -144 -144 0
v -144 -120 0
v -120 -120 0
v -816 -240 0
v -840 -240 0
v -840 -216 0
v -816 -216 0
v -840 -240 0
v -864 -240 0
v -864 -216 0
v -840 -216 0
v -96 -264 0
v -120 -264 0
v -120 -240 0
v -96 -240 0
v -120 -264 0
v -144 -264 0
v -144 -240 0
v -120 -240 0
v -816 -264 0
v -840 -264 0
v -840 -240 0
v -816 -240 0
v -840 -264 0
v -864 -264 0
v -864 -240 0
v -840 -240 0
v -96 -288 0
v -120 -288 0
v -120 -264 0
v -96 -264 0
v -120 -288 0
v -144 -288 0
v -144 -264 0
v -120 -264 0
v -816 -384 0
v -840 -384 0
v -840 -360 0
v -816 -360 0
v -840 -384 0
v -864 -384 0
v -864 -360 0
v -840 -360 0
v -816 -408 0
v -840 -408 0
v -840 -384 0
v -816 -384 0
v -840 -408 0
v -864 -408 0
v -864 -384 0
v -840 -384 0
v -192 -552 0
v -216 -552 0
v -216 -528 0
v -192 -528 0
v -216 -552 0
v -240 -552 0
v -240 -528 0
v -216 -528 0
v -432 -552 0
v -456 -552 0
v -456 -528 0
v -432 -528 0
v -456 -552 0
v -480 -552 0
v -480 -528 0
v -456 -528 0
v -720 -552 0
v -744 -552 0
v -744 -528 0
v -720 -528 0
v -744 -552 0
v -768 -552 0
v -768 -528 0
v -744 -528 0
v -192 -576 0
v -216 -576 0
v -216 -552 0
v -192 -552 0
v -216 -576 0
v -240 -576 0
v -240 -552 0
v -216 -552 0
v -432 -576 0
v -456 -576 0
v -456 -552 0
v -432 -552 0
v -456 -576 0
v -480 -576 0
v -480 -552 0
v -456 -552 0
v -720 -576 0
v -744 -576 0
v -744 -552 0
v -720 -552 0
v -744 -576 0
v -768 -576 0
v -768 -552 0
v -744 -552 0

# Texture cooridinates (Count = 21)
vt 0.8125 0.90625
vt 0.84375 0.90625
vt 0.84375 0.9375
vt 0.8125 0.9375
vt 0.875 0.90625
vt 0.875 0.9375
vt 0.75 0.75
vt 0.78125 0.75
vt 0.78125 0.78125
vt 0.75 0.78125
vt 0.8125 0.75
vt 0.8125 0.78125
vt 0.75 0.71875
vt 0.78125 0.71875
vt 0.8125 0.71875
vt 0.8125 0.875
vt 0.84375 0.875
vt 0.875 0.875
vt 0.75 0.6875
vt 0.78125 0.6875
vt 0.8125 0.6875

# Normal
vn 0 0 -1

# Mesh description
g SalleBoss-Alt_mesh_0005

# Faces
f 1/1/1 2/2/1 3/3/1 4/4/1
f 5/2/1 6/5/1 7/6/1 8/3/1
f 9/7/1 10/8/1 11/9/1 12/10/1
f 13/8/1 14/11/1 15/12/1 16/9/1
f 17/13/1 18/14/1 19/8/1 20/7/1
f 21/14/1 22/15/1 23/11/1 24/8/1
f 25/1/1 26/2/1 27/3/1 28/4/1
f 29/2/1 30/5/1 31/6/1 32/3/1
f 33/16/1 34/17/1 35/2/1 36/1/1
f 37/17/1 38/18/1 39/5/1 40/2/1
f 41/13/1 42/14/1 43/8/1 44/7/1
f 45/14/1 46/15/1 47/11/1 48/8/1
f 49/19/1 50/20/1 51/14/1 52/13/1
f 53/20/1 54/21/1 55/15/1 56/14/1
f 57/16/1 58/17/1 59/2/1 60/1/1
f 61/17/1 62/18/1 63/5/1 64/2/1
f 65/1/1 66/2/1 67/3/1 68/4/1
f 69/2/1 70/5/1 71/6/1 72/3/1
f 73/16/1 74/17/1 75/2/1 76/1/1
f 77/17/1 78/18/1 79/5/1 80/2/1
f 81/1/1 82/2/1 83/3/1 84/4/1
f 85/2/1 86/5/1 87/6/1 88/3/1
f 89/1/1 90/2/1 91/3/1 92/4/1
f 93/2/1 94/5/1 95/6/1 96/3/1
f 97/16/1 98/17/1 99/2/1 100/1/1
f 101/17/1 102/18/1 103/5/1 104/2/1
f 105/16/1 106/17/1 107/2/1 108/1/1
f 109/17/1 110/18/1 111/5/1 112/2/1
f 113/1/1 114/2/1 115/3/1 116/4/1
f 117/2/1 118/5/1 119/6/1 120/3/1
f 121/16/1 122/17/1 123/2/1 124/1/1
f 125/17/1 126/18/1 127/5/1 128/2/1
f 129/1/1 130/2/1 131/3/1 132/4/1
f 133/2/1 134/5/1 135/6/1 136/3/1
f 137/13/1 138/14/1 139/8/1 140/7/1
f 141/14/1 142/15/1 143/11/1 144/8/1
f 145/1/1 146/2/1 147/3/1 148/4/1
f 149/2/1 150/5/1 151/6/1 152/3/1
f 153/16/1 154/17/1 155/2/1 156/1/1
f 157/17/1 158/18/1 159/5/1 160/2/1
f 161/19/1 162/20/1 163/14/1 164/13/1
f 165/20/1 166/21/1 167/15/1 168/14/1
f 169/16/1 170/17/1 171/2/1 172/1/1
f 173/17/1 174/18/1 175/5/1 176/2/1

