# Tiled2Unity generated file. Do not modify by hand.
# Wavefront file for 'SalleBoss-Alt_mesh_0004.obj'

# Vertices (Count = 32)
v -120 -120 0
v -144 -120 0
v -144 -96 0
v -120 -96 0
v -144 -120 0
v -168 -120 0
v -168 -96 0
v -144 -96 0
v -120 -144 0
v -144 -144 0
v -144 -120 0
v -120 -120 0
v -144 -144 0
v -168 -144 0
v -168 -120 0
v -144 -120 0
v -840 -240 0
v -864 -240 0
v -864 -216 0
v -840 -216 0
v -864 -240 0
v -888 -240 0
v -888 -216 0
v -864 -216 0
v -840 -264 0
v -864 -264 0
v -864 -240 0
v -840 -240 0
v -864 -264 0
v -888 -264 0
v -888 -240 0
v -864 -240 0

# Texture cooridinates (Count = 9)
vt 0.9375 0.40625
vt 0.96875 0.40625
vt 0.96875 0.4375
vt 0.9375 0.4375
vt 1 0.40625
vt 1 0.4375
vt 0.9375 0.375
vt 0.96875 0.375
vt 1 0.375

# Normal
vn 0 0 -1

# Mesh description
g SalleBoss-Alt_mesh_0004

# Faces
f 1/1/1 2/2/1 3/3/1 4/4/1
f 5/2/1 6/5/1 7/6/1 8/3/1
f 9/7/1 10/8/1 11/2/1 12/1/1
f 13/8/1 14/9/1 15/5/1 16/2/1
f 17/1/1 18/2/1 19/3/1 20/4/1
f 21/2/1 22/5/1 23/6/1 24/3/1
f 25/7/1 26/8/1 27/2/1 28/1/1
f 29/8/1 30/9/1 31/5/1 32/2/1

