# Tiled2Unity generated file. Do not modify by hand.
# Wavefront file for 'SalleBoss_mesh_0009.obj'

# Vertices (Count = 64)
v -312 -96 0
v -336 -96 0
v -336 -72 0
v -312 -72 0
v -336 -96 0
v -360 -96 0
v -360 -72 0
v -336 -72 0
v -576 -96 0
v -600 -96 0
v -600 -72 0
v -576 -72 0
v -600 -96 0
v -624 -96 0
v -624 -72 0
v -600 -72 0
v -312 -120 0
v -336 -120 0
v -336 -96 0
v -312 -96 0
v -336 -120 0
v -360 -120 0
v -360 -96 0
v -336 -96 0
v -576 -120 0
v -600 -120 0
v -600 -96 0
v -576 -96 0
v -600 -120 0
v -624 -120 0
v -624 -96 0
v -600 -96 0
v -312 -360 0
v -336 -360 0
v -336 -336 0
v -312 -336 0
v -336 -360 0
v -360 -360 0
v -360 -336 0
v -336 -336 0
v -576 -360 0
v -600 -360 0
v -600 -336 0
v -576 -336 0
v -600 -360 0
v -624 -360 0
v -624 -336 0
v -600 -336 0
v -312 -384 0
v -336 -384 0
v -336 -360 0
v -312 -360 0
v -336 -384 0
v -360 -384 0
v -360 -360 0
v -336 -360 0
v -576 -384 0
v -600 -384 0
v -600 -360 0
v -576 -360 0
v -600 -384 0
v -624 -384 0
v -624 -360 0
v -600 -360 0

# Texture cooridinates (Count = 9)
vt 0.4375 0.96875
vt 0.46875 0.96875
vt 0.46875 1
vt 0.4375 1
vt 0.5 0.96875
vt 0.5 1
vt 0.4375 0.9375
vt 0.46875 0.9375
vt 0.5 0.9375

# Normal
vn 0 0 -1

# Mesh description
g SalleBoss_mesh_0009

# Faces
f 1/1/1 2/2/1 3/3/1 4/4/1
f 5/2/1 6/5/1 7/6/1 8/3/1
f 9/1/1 10/2/1 11/3/1 12/4/1
f 13/2/1 14/5/1 15/6/1 16/3/1
f 17/7/1 18/8/1 19/2/1 20/1/1
f 21/8/1 22/9/1 23/5/1 24/2/1
f 25/7/1 26/8/1 27/2/1 28/1/1
f 29/8/1 30/9/1 31/5/1 32/2/1
f 33/1/1 34/2/1 35/3/1 36/4/1
f 37/2/1 38/5/1 39/6/1 40/3/1
f 41/1/1 42/2/1 43/3/1 44/4/1
f 45/2/1 46/5/1 47/6/1 48/3/1
f 49/7/1 50/8/1 51/2/1 52/1/1
f 53/8/1 54/9/1 55/5/1 56/2/1
f 57/7/1 58/8/1 59/2/1 60/1/1
f 61/8/1 62/9/1 63/5/1 64/2/1

