# Tiled2Unity generated file. Do not modify by hand.
# Wavefront file for 'SalleBoss_mesh_0006.obj'

# Vertices (Count = 424)
v -480 -120 0
v -504 -120 0
v -504 -96 0
v -480 -96 0
v -504 -120 0
v -528 -120 0
v -528 -96 0
v -504 -96 0
v -528 -120 0
v -552 -120 0
v -552 -96 0
v -528 -96 0
v -552 -120 0
v -576 -120 0
v -576 -96 0
v -552 -96 0
v -768 -120 0
v -792 -120 0
v -792 -96 0
v -768 -96 0
v -792 -120 0
v -816 -120 0
v -816 -96 0
v -792 -96 0
v -192 -144 0
v -216 -144 0
v -216 -120 0
v -192 -120 0
v -216 -144 0
v -240 -144 0
v -240 -120 0
v -216 -120 0
v -240 -144 0
v -264 -144 0
v -264 -120 0
v -240 -120 0
v -264 -144 0
v -288 -144 0
v -288 -120 0
v -264 -120 0
v -480 -144 0
v -504 -144 0
v -504 -120 0
v -480 -120 0
v -504 -144 0
v -528 -144 0
v -528 -120 0
v -504 -120 0
v -528 -144 0
v -552 -144 0
v -552 -120 0
v -528 -120 0
v -552 -144 0
v -576 -144 0
v -576 -120 0
v -552 -120 0
v -768 -144 0
v -792 -144 0
v -792 -120 0
v -768 -120 0
v -792 -144 0
v -816 -144 0
v -816 -120 0
v -792 -120 0
v -192 -168 0
v -216 -168 0
v -216 -144 0
v -192 -144 0
v -216 -168 0
v -240 -168 0
v -240 -144 0
v -216 -144 0
v -240 -168 0
v -264 -168 0
v -264 -144 0
v -240 -144 0
v -264 -168 0
v -288 -168 0
v -288 -144 0
v -264 -144 0
v -480 -168 0
v -504 -168 0
v -504 -144 0
v -480 -144 0
v -504 -168 0
v -528 -168 0
v -528 -144 0
v -504 -144 0
v -528 -168 0
v -552 -168 0
v -552 -144 0
v -528 -144 0
v -552 -168 0
v -576 -168 0
v -576 -144 0
v -552 -144 0
v -192 -192 0
v -216 -192 0
v -216 -168 0
v -192 -168 0
v -216 -192 0
v -240 -192 0
v -240 -168 0
v -216 -168 0
v -240 -192 0
v -264 -192 0
v -264 -168 0
v -240 -168 0
v -264 -192 0
v -288 -192 0
v -288 -168 0
v -264 -168 0
v -480 -192 0
v -504 -192 0
v -504 -168 0
v -480 -168 0
v -504 -192 0
v -528 -192 0
v -528 -168 0
v -504 -168 0
v -528 -192 0
v -552 -192 0
v -552 -168 0
v -528 -168 0
v -552 -192 0
v -576 -192 0
v -576 -168 0
v -552 -168 0
v -192 -216 0
v -216 -216 0
v -216 -192 0
v -192 -192 0
v -216 -216 0
v -240 -216 0
v -240 -192 0
v -216 -192 0
v -240 -216 0
v -264 -216 0
v -264 -192 0
v -240 -192 0
v -264 -216 0
v -288 -216 0
v -288 -192 0
v -264 -192 0
v -480 -216 0
v -504 -216 0
v -504 -192 0
v -480 -192 0
v -504 -216 0
v -528 -216 0
v -528 -192 0
v -504 -192 0
v -528 -216 0
v -552 -216 0
v -552 -192 0
v -528 -192 0
v -552 -216 0
v -576 -216 0
v -576 -192 0
v -552 -192 0
v -480 -240 0
v -504 -240 0
v -504 -216 0
v -480 -216 0
v -504 -240 0
v -528 -240 0
v -528 -216 0
v -504 -216 0
v -528 -240 0
v -552 -240 0
v -552 -216 0
v -528 -216 0
v -552 -240 0
v -576 -240 0
v -576 -216 0
v -552 -216 0
v -672 -240 0
v -696 -240 0
v -696 -216 0
v -672 -216 0
v -696 -240 0
v -720 -240 0
v -720 -216 0
v -696 -216 0
v -720 -240 0
v -744 -240 0
v -744 -216 0
v -720 -216 0
v -744 -240 0
v -768 -240 0
v -768 -216 0
v -744 -216 0
v -360 -264 0
v -384 -264 0
v -384 -240 0
v -360 -240 0
v -384 -264 0
v -408 -264 0
v -408 -240 0
v -384 -240 0
v -408 -264 0
v -432 -264 0
v -432 -240 0
v -408 -240 0
v -432 -264 0
v -456 -264 0
v -456 -240 0
v -432 -240 0
v -456 -264 0
v -480 -264 0
v -480 -240 0
v -456 -240 0
v -480 -264 0
v -504 -264 0
v -504 -240 0
v -480 -240 0
v -504 -264 0
v -528 -264 0
v -528 -240 0
v -504 -240 0
v -528 -264 0
v -552 -264 0
v -552 -240 0
v -528 -240 0
v -552 -264 0
v -576 -264 0
v -576 -240 0
v -552 -240 0
v -672 -264 0
v -696 -264 0
v -696 -240 0
v -672 -240 0
v -696 -264 0
v -720 -264 0
v -720 -240 0
v -696 -240 0
v -720 -264 0
v -744 -264 0
v -744 -240 0
v -720 -240 0
v -744 -264 0
v -768 -264 0
v -768 -240 0
v -744 -240 0
v -360 -288 0
v -384 -288 0
v -384 -264 0
v -360 -264 0
v -384 -288 0
v -408 -288 0
v -408 -264 0
v -384 -264 0
v -408 -288 0
v -432 -288 0
v -432 -264 0
v -408 -264 0
v -432 -288 0
v -456 -288 0
v -456 -264 0
v -432 -264 0
v -456 -288 0
v -480 -288 0
v -480 -264 0
v -456 -264 0
v -480 -288 0
v -504 -288 0
v -504 -264 0
v -480 -264 0
v -504 -288 0
v -528 -288 0
v -528 -264 0
v -504 -264 0
v -528 -288 0
v -552 -288 0
v -552 -264 0
v -528 -264 0
v -552 -288 0
v -576 -288 0
v -576 -264 0
v -552 -264 0
v -672 -288 0
v -696 -288 0
v -696 -264 0
v -672 -264 0
v -696 -288 0
v -720 -288 0
v -720 -264 0
v -696 -264 0
v -720 -288 0
v -744 -288 0
v -744 -264 0
v -720 -264 0
v -744 -288 0
v -768 -288 0
v -768 -264 0
v -744 -264 0
v -360 -312 0
v -384 -312 0
v -384 -288 0
v -360 -288 0
v -384 -312 0
v -408 -312 0
v -408 -288 0
v -384 -288 0
v -408 -312 0
v -432 -312 0
v -432 -288 0
v -408 -288 0
v -432 -312 0
v -456 -312 0
v -456 -288 0
v -432 -288 0
v -672 -312 0
v -696 -312 0
v -696 -288 0
v -672 -288 0
v -696 -312 0
v -720 -312 0
v -720 -288 0
v -696 -288 0
v -720 -312 0
v -744 -312 0
v -744 -288 0
v -720 -288 0
v -744 -312 0
v -768 -312 0
v -768 -288 0
v -744 -288 0
v -360 -336 0
v -384 -336 0
v -384 -312 0
v -360 -312 0
v -384 -336 0
v -408 -336 0
v -408 -312 0
v -384 -312 0
v -408 -336 0
v -432 -336 0
v -432 -312 0
v -408 -312 0
v -432 -336 0
v -456 -336 0
v -456 -312 0
v -432 -312 0
v -144 -360 0
v -168 -360 0
v -168 -336 0
v -144 -336 0
v -168 -360 0
v -192 -360 0
v -192 -336 0
v -168 -336 0
v -360 -360 0
v -384 -360 0
v -384 -336 0
v -360 -336 0
v -384 -360 0
v -408 -360 0
v -408 -336 0
v -384 -336 0
v -408 -360 0
v -432 -360 0
v -432 -336 0
v -408 -336 0
v -432 -360 0
v -456 -360 0
v -456 -336 0
v -432 -336 0
v -144 -384 0
v -168 -384 0
v -168 -360 0
v -144 -360 0
v -168 -384 0
v -192 -384 0
v -192 -360 0
v -168 -360 0
v -360 -384 0
v -384 -384 0
v -384 -360 0
v -360 -360 0
v -384 -384 0
v -408 -384 0
v -408 -360 0
v -384 -360 0
v -408 -384 0
v -432 -384 0
v -432 -360 0
v -408 -360 0
v -432 -384 0
v -456 -384 0
v -456 -360 0
v -432 -360 0
v -360 -408 0
v -384 -408 0
v -384 -384 0
v -360 -384 0
v -384 -408 0
v -408 -408 0
v -408 -384 0
v -384 -384 0
v -408 -408 0
v -432 -408 0
v -432 -384 0
v -408 -384 0
v -432 -408 0
v -456 -408 0
v -456 -384 0
v -432 -384 0
v -360 -432 0
v -384 -432 0
v -384 -408 0
v -360 -408 0
v -384 -432 0
v -408 -432 0
v -408 -408 0
v -384 -408 0
v -408 -432 0
v -432 -432 0
v -432 -408 0
v -408 -408 0
v -432 -432 0
v -456 -432 0
v -456 -408 0
v -432 -408 0

# Texture cooridinates (Count = 39)
vt 0.75 0.625
vt 0.78125 0.625
vt 0.78125 0.6666666
vt 0.75 0.6666666
vt 0.8125 0.625
vt 0.8125 0.6666666
vt 0.84375 0.625
vt 0.84375 0.6666666
vt 0.875 0.625
vt 0.875 0.6666666
vt 0.75 0.9583333
vt 0.78125 0.9583333
vt 0.78125 1
vt 0.75 1
vt 0.8125 0.9583333
vt 0.8125 1
vt 0.75 0.5833334
vt 0.78125 0.5833334
vt 0.8125 0.5833334
vt 0.84375 0.5833334
vt 0.875 0.5833334
vt 0.75 0.9166667
vt 0.78125 0.9166667
vt 0.8125 0.9166667
vt 0.75 0.5416666
vt 0.78125 0.5416666
vt 0.8125 0.5416666
vt 0.84375 0.5416666
vt 0.875 0.5416666
vt 0.75 0.5
vt 0.78125 0.5
vt 0.8125 0.5
vt 0.84375 0.5
vt 0.875 0.5
vt 0.8125 0.7083334
vt 0.84375 0.7083334
vt 0.84375 0.75
vt 0.8125 0.75
vt 0.875 0.7083334

# Normal
vn 0 0 -1

# Mesh description
g SalleBoss_mesh_0006

# Faces
f 1/1/1 2/2/1 3/3/1 4/4/1
f 5/2/1 6/5/1 7/6/1 8/3/1
f 9/5/1 10/7/1 11/8/1 12/6/1
f 13/7/1 14/9/1 15/10/1 16/8/1
f 17/11/1 18/12/1 19/13/1 20/14/1
f 21/12/1 22/15/1 23/16/1 24/13/1
f 25/1/1 26/2/1 27/3/1 28/4/1
f 29/2/1 30/5/1 31/6/1 32/3/1
f 33/5/1 34/7/1 35/8/1 36/6/1
f 37/7/1 38/9/1 39/10/1 40/8/1
f 41/17/1 42/18/1 43/2/1 44/1/1
f 45/18/1 46/19/1 47/5/1 48/2/1
f 49/19/1 50/20/1 51/7/1 52/5/1
f 53/20/1 54/21/1 55/9/1 56/7/1
f 57/22/1 58/23/1 59/12/1 60/11/1
f 61/23/1 62/24/1 63/15/1 64/12/1
f 65/17/1 66/18/1 67/2/1 68/1/1
f 69/18/1 70/19/1 71/5/1 72/2/1
f 73/19/1 74/20/1 75/7/1 76/5/1
f 77/20/1 78/21/1 79/9/1 80/7/1
f 81/17/1 82/18/1 83/2/1 84/1/1
f 85/18/1 86/19/1 87/5/1 88/2/1
f 89/19/1 90/20/1 91/7/1 92/5/1
f 93/20/1 94/21/1 95/9/1 96/7/1
f 97/25/1 98/26/1 99/18/1 100/17/1
f 101/26/1 102/27/1 103/19/1 104/18/1
f 105/27/1 106/28/1 107/20/1 108/19/1
f 109/28/1 110/29/1 111/21/1 112/20/1
f 113/25/1 114/26/1 115/18/1 116/17/1
f 117/26/1 118/27/1 119/19/1 120/18/1
f 121/27/1 122/28/1 123/20/1 124/19/1
f 125/28/1 126/29/1 127/21/1 128/20/1
f 129/30/1 130/31/1 131/26/1 132/25/1
f 133/31/1 134/32/1 135/27/1 136/26/1
f 137/32/1 138/33/1 139/28/1 140/27/1
f 141/33/1 142/34/1 143/29/1 144/28/1
f 145/17/1 146/18/1 147/2/1 148/1/1
f 149/18/1 150/19/1 151/5/1 152/2/1
f 153/19/1 154/20/1 155/7/1 156/5/1
f 157/20/1 158/21/1 159/9/1 160/7/1
f 161/25/1 162/26/1 163/18/1 164/17/1
f 165/26/1 166/27/1 167/19/1 168/18/1
f 169/27/1 170/28/1 171/20/1 172/19/1
f 173/28/1 174/29/1 175/21/1 176/20/1
f 177/1/1 178/2/1 179/3/1 180/4/1
f 181/2/1 182/5/1 183/6/1 184/3/1
f 185/5/1 186/7/1 187/8/1 188/6/1
f 189/7/1 190/9/1 191/10/1 192/8/1
f 193/1/1 194/2/1 195/3/1 196/4/1
f 197/2/1 198/5/1 199/6/1 200/3/1
f 201/5/1 202/7/1 203/8/1 204/6/1
f 205/2/1 206/5/1 207/6/1 208/3/1
f 209/5/1 210/7/1 211/8/1 212/6/1
f 213/35/1 214/36/1 215/37/1 216/38/1
f 217/18/1 218/19/1 219/5/1 220/2/1
f 221/19/1 222/20/1 223/7/1 224/5/1
f 225/28/1 226/29/1 227/21/1 228/20/1
f 229/17/1 230/18/1 231/2/1 232/1/1
f 233/18/1 234/19/1 235/5/1 236/2/1
f 237/19/1 238/20/1 239/7/1 240/5/1
f 241/20/1 242/21/1 243/9/1 244/7/1
f 245/17/1 246/18/1 247/2/1 248/1/1
f 249/18/1 250/19/1 251/5/1 252/2/1
f 253/19/1 254/20/1 255/7/1 256/5/1
f 257/8/1 258/10/1 259/39/1 260/36/1
f 261/31/1 262/32/1 263/27/1 264/26/1
f 265/32/1 266/33/1 267/28/1 268/27/1
f 269/31/1 270/32/1 271/27/1 272/26/1
f 273/32/1 274/33/1 275/28/1 276/27/1
f 277/33/1 278/34/1 279/29/1 280/28/1
f 281/25/1 282/26/1 283/18/1 284/17/1
f 285/26/1 286/27/1 287/19/1 288/18/1
f 289/27/1 290/28/1 291/20/1 292/19/1
f 293/28/1 294/29/1 295/21/1 296/20/1
f 297/17/1 298/18/1 299/2/1 300/1/1
f 301/18/1 302/19/1 303/5/1 304/2/1
f 305/19/1 306/20/1 307/7/1 308/5/1
f 309/20/1 310/21/1 311/9/1 312/7/1
f 313/30/1 314/31/1 315/26/1 316/25/1
f 317/31/1 318/32/1 319/27/1 320/26/1
f 321/32/1 322/33/1 323/28/1 324/27/1
f 325/33/1 326/34/1 327/29/1 328/28/1
f 329/25/1 330/26/1 331/18/1 332/17/1
f 333/26/1 334/27/1 335/19/1 336/18/1
f 337/27/1 338/28/1 339/20/1 340/19/1
f 341/28/1 342/29/1 343/21/1 344/20/1
f 345/11/1 346/12/1 347/13/1 348/14/1
f 349/12/1 350/15/1 351/16/1 352/13/1
f 353/17/1 354/18/1 355/2/1 356/1/1
f 357/18/1 358/19/1 359/5/1 360/2/1
f 361/19/1 362/20/1 363/7/1 364/5/1
f 365/20/1 366/21/1 367/9/1 368/7/1
f 369/22/1 370/23/1 371/12/1 372/11/1
f 373/23/1 374/24/1 375/15/1 376/12/1
f 377/25/1 378/26/1 379/18/1 380/17/1
f 381/26/1 382/27/1 383/19/1 384/18/1
f 385/27/1 386/28/1 387/20/1 388/19/1
f 389/28/1 390/29/1 391/21/1 392/20/1
f 393/25/1 394/26/1 395/18/1 396/17/1
f 397/26/1 398/27/1 399/19/1 400/18/1
f 401/27/1 402/28/1 403/20/1 404/19/1
f 405/28/1 406/29/1 407/21/1 408/20/1
f 409/30/1 410/31/1 411/26/1 412/25/1
f 413/31/1 414/32/1 415/27/1 416/26/1
f 417/32/1 418/33/1 419/28/1 420/27/1
f 421/33/1 422/34/1 423/29/1 424/28/1

