# Tiled2Unity generated file. Do not modify by hand.
# Wavefront file for 'SalleNSE-Entrepot_mesh_0003.obj'

# Vertices (Count = 176)
v -1416 -1008 0
v -1440 -1008 0
v -1440 -984 0
v -1416 -984 0
v -1440 -1008 0
v -1464 -1008 0
v -1464 -984 0
v -1440 -984 0
v -1464 -1008 0
v -1488 -1008 0
v -1488 -984 0
v -1464 -984 0
v -1488 -1008 0
v -1512 -1008 0
v -1512 -984 0
v -1488 -984 0
v -1416 -1032 0
v -1440 -1032 0
v -1440 -1008 0
v -1416 -1008 0
v -1440 -1032 0
v -1464 -1032 0
v -1464 -1008 0
v -1440 -1008 0
v -1464 -1032 0
v -1488 -1032 0
v -1488 -1008 0
v -1464 -1008 0
v -1488 -1032 0
v -1512 -1032 0
v -1512 -1008 0
v -1488 -1008 0
v -1728 -1032 0
v -1752 -1032 0
v -1752 -1008 0
v -1728 -1008 0
v -1752 -1032 0
v -1776 -1032 0
v -1776 -1008 0
v -1752 -1008 0
v -1776 -1032 0
v -1800 -1032 0
v -1800 -1008 0
v -1776 -1008 0
v -1800 -1032 0
v -1824 -1032 0
v -1824 -1008 0
v -1800 -1008 0
v -1824 -1032 0
v -1848 -1032 0
v -1848 -1008 0
v -1824 -1008 0
v -1848 -1032 0
v -1872 -1032 0
v -1872 -1008 0
v -1848 -1008 0
v -1416 -1056 0
v -1440 -1056 0
v -1440 -1032 0
v -1416 -1032 0
v -1440 -1056 0
v -1464 -1056 0
v -1464 -1032 0
v -1440 -1032 0
v -1464 -1056 0
v -1488 -1056 0
v -1488 -1032 0
v -1464 -1032 0
v -1488 -1056 0
v -1512 -1056 0
v -1512 -1032 0
v -1488 -1032 0
v -1728 -1056 0
v -1752 -1056 0
v -1752 -1032 0
v -1728 -1032 0
v -1752 -1056 0
v -1776 -1056 0
v -1776 -1032 0
v -1752 -1032 0
v -1776 -1056 0
v -1800 -1056 0
v -1800 -1032 0
v -1776 -1032 0
v -1800 -1056 0
v -1824 -1056 0
v -1824 -1032 0
v -1800 -1032 0
v -1824 -1056 0
v -1848 -1056 0
v -1848 -1032 0
v -1824 -1032 0
v -1848 -1056 0
v -1872 -1056 0
v -1872 -1032 0
v -1848 -1032 0
v -1416 -1080 0
v -1440 -1080 0
v -1440 -1056 0
v -1416 -1056 0
v -1440 -1080 0
v -1464 -1080 0
v -1464 -1056 0
v -1440 -1056 0
v -1464 -1080 0
v -1488 -1080 0
v -1488 -1056 0
v -1464 -1056 0
v -1488 -1080 0
v -1512 -1080 0
v -1512 -1056 0
v -1488 -1056 0
v -1872 -1224 0
v -1896 -1224 0
v -1896 -1200 0
v -1872 -1200 0
v -1704 -1272 0
v -1728 -1272 0
v -1728 -1248 0
v -1704 -1248 0
v -1728 -1272 0
v -1752 -1272 0
v -1752 -1248 0
v -1728 -1248 0
v -1800 -1272 0
v -1824 -1272 0
v -1824 -1248 0
v -1800 -1248 0
v -1824 -1272 0
v -1848 -1272 0
v -1848 -1248 0
v -1824 -1248 0
v -1848 -1272 0
v -1872 -1272 0
v -1872 -1248 0
v -1848 -1248 0
v -1872 -1272 0
v -1896 -1272 0
v -1896 -1248 0
v -1872 -1248 0
v -1704 -1296 0
v -1728 -1296 0
v -1728 -1272 0
v -1704 -1272 0
v -1728 -1296 0
v -1752 -1296 0
v -1752 -1272 0
v -1728 -1272 0
v -1776 -1296 0
v -1800 -1296 0
v -1800 -1272 0
v -1776 -1272 0
v -1800 -1296 0
v -1824 -1296 0
v -1824 -1272 0
v -1800 -1272 0
v -1824 -1296 0
v -1848 -1296 0
v -1848 -1272 0
v -1824 -1272 0
v -1848 -1296 0
v -1872 -1296 0
v -1872 -1272 0
v -1848 -1272 0
v -1872 -1296 0
v -1896 -1296 0
v -1896 -1272 0
v -1872 -1272 0
v -1752 -1320 0
v -1776 -1320 0
v -1776 -1296 0
v -1752 -1296 0
v -1776 -1320 0
v -1800 -1320 0
v -1800 -1296 0
v -1776 -1296 0

# Texture cooridinates (Count = 78)
vt 0.625 0.40625
vt 0.65625 0.40625
vt 0.65625 0.4375
vt 0.625 0.4375
vt 0.6875 0.40625
vt 0.6875 0.4375
vt 0.71875 0.40625
vt 0.71875 0.4375
vt 0.75 0.40625
vt 0.75 0.4375
vt 0.625 0.375
vt 0.65625 0.375
vt 0.6875 0.375
vt 0.71875 0.375
vt 0.75 0.375
vt 0.8125 0.15625
vt 0.84375 0.15625
vt 0.84375 0.1875
vt 0.8125 0.1875
vt 0.875 0.15625
vt 0.875 0.1875
vt 0.875 0.28125
vt 0.90625 0.28125
vt 0.90625 0.3125
vt 0.875 0.3125
vt 0.9375 0.28125
vt 0.9375 0.3125
vt 0.8125 0.28125
vt 0.84375 0.28125
vt 0.84375 0.3125
vt 0.8125 0.3125
vt 0.625 0.34375
vt 0.65625 0.34375
vt 0.6875 0.34375
vt 0.71875 0.34375
vt 0.75 0.34375
vt 0.8125 0.125
vt 0.84375 0.125
vt 0.875 0.125
vt 0.875 0.25
vt 0.90625 0.25
vt 0.9375 0.25
vt 0.8125 0.25
vt 0.84375 0.25
vt 0.625 0.3125
vt 0.65625 0.3125
vt 0.6875 0.3125
vt 0.71875 0.3125
vt 0.75 0.3125
vt 0.59375 0.40625
vt 0.59375 0.4375
vt 0.0625 0.59375
vt 0.09375 0.59375
vt 0.09375 0.625
vt 0.0625 0.625
vt 0.125 0.59375
vt 0.125 0.625
vt 0.5 0.34375
vt 0.53125 0.34375
vt 0.53125 0.375
vt 0.5 0.375
vt 0.5625 0.34375
vt 0.5625 0.375
vt 0.59375 0.34375
vt 0.59375 0.375
vt 0.0625 0.5625
vt 0.09375 0.5625
vt 0.125 0.5625
vt 0.53125 0.28125
vt 0.5625 0.28125
vt 0.5625 0.3125
vt 0.53125 0.3125
vt 0.5 0.3125
vt 0.59375 0.3125
vt 0.5 0.25
vt 0.53125 0.25
vt 0.5 0.28125
vt 0.5625 0.25

# Normal
vn 0 0 -1

# Mesh description
g SalleNSE-Entrepot_mesh_0003

# Faces
f 1/1/1 2/2/1 3/3/1 4/4/1
f 5/2/1 6/5/1 7/6/1 8/3/1
f 9/5/1 10/7/1 11/8/1 12/6/1
f 13/7/1 14/9/1 15/10/1 16/8/1
f 17/11/1 18/12/1 19/2/1 20/1/1
f 21/12/1 22/13/1 23/5/1 24/2/1
f 25/13/1 26/14/1 27/7/1 28/5/1
f 29/14/1 30/15/1 31/9/1 32/7/1
f 33/16/1 34/17/1 35/18/1 36/19/1
f 37/17/1 38/20/1 39/21/1 40/18/1
f 41/22/1 42/23/1 43/24/1 44/25/1
f 45/23/1 46/26/1 47/27/1 48/24/1
f 49/28/1 50/29/1 51/30/1 52/31/1
f 53/29/1 54/22/1 55/25/1 56/30/1
f 57/32/1 58/33/1 59/12/1 60/11/1
f 61/33/1 62/34/1 63/13/1 64/12/1
f 65/34/1 66/35/1 67/14/1 68/13/1
f 69/35/1 70/36/1 71/15/1 72/14/1
f 73/37/1 74/38/1 75/17/1 76/16/1
f 77/38/1 78/39/1 79/20/1 80/17/1
f 81/40/1 82/41/1 83/23/1 84/22/1
f 85/41/1 86/42/1 87/26/1 88/23/1
f 89/43/1 90/44/1 91/29/1 92/28/1
f 93/44/1 94/40/1 95/22/1 96/29/1
f 97/45/1 98/46/1 99/33/1 100/32/1
f 101/46/1 102/47/1 103/34/1 104/33/1
f 105/47/1 106/48/1 107/35/1 108/34/1
f 109/48/1 110/49/1 111/36/1 112/35/1
f 113/50/1 114/1/1 115/4/1 116/51/1
f 117/52/1 118/53/1 119/54/1 120/55/1
f 121/53/1 122/56/1 123/57/1 124/54/1
f 125/58/1 126/59/1 127/60/1 128/61/1
f 129/59/1 130/62/1 131/63/1 132/60/1
f 133/62/1 134/64/1 135/65/1 136/63/1
f 137/64/1 138/32/1 139/11/1 140/65/1
f 141/66/1 142/67/1 143/53/1 144/52/1
f 145/67/1 146/68/1 147/56/1 148/53/1
f 149/69/1 150/70/1 151/71/1 152/72/1
f 153/73/1 154/72/1 155/59/1 156/58/1
f 157/72/1 158/71/1 159/62/1 160/59/1
f 161/71/1 162/74/1 163/64/1 164/62/1
f 165/74/1 166/45/1 167/32/1 168/64/1
f 169/75/1 170/76/1 171/69/1 172/77/1
f 173/76/1 174/78/1 175/70/1 176/69/1

