# Tiled2Unity generated file. Do not modify by hand.
# Wavefront file for 'SalleSEW-SF---SP_mesh_0002.obj'

# Vertices (Count = 456)
v -1368 -984 0
v -1392 -984 0
v -1392 -960 0
v -1368 -960 0
v -1392 -984 0
v -1416 -984 0
v -1416 -960 0
v -1392 -960 0
v -1416 -984 0
v -1440 -984 0
v -1440 -960 0
v -1416 -960 0
v -1440 -984 0
v -1464 -984 0
v -1464 -960 0
v -1440 -960 0
v -1464 -984 0
v -1488 -984 0
v -1488 -960 0
v -1464 -960 0
v -1488 -984 0
v -1512 -984 0
v -1512 -960 0
v -1488 -960 0
v -1512 -984 0
v -1536 -984 0
v -1536 -960 0
v -1512 -960 0
v -1536 -984 0
v -1560 -984 0
v -1560 -960 0
v -1536 -960 0
v -1560 -984 0
v -1584 -984 0
v -1584 -960 0
v -1560 -960 0
v -1584 -984 0
v -1608 -984 0
v -1608 -960 0
v -1584 -960 0
v -1608 -984 0
v -1632 -984 0
v -1632 -960 0
v -1608 -960 0
v -1632 -984 0
v -1656 -984 0
v -1656 -960 0
v -1632 -960 0
v -1656 -984 0
v -1680 -984 0
v -1680 -960 0
v -1656 -960 0
v -1680 -984 0
v -1704 -984 0
v -1704 -960 0
v -1680 -960 0
v -1704 -984 0
v -1728 -984 0
v -1728 -960 0
v -1704 -960 0
v -1728 -984 0
v -1752 -984 0
v -1752 -960 0
v -1728 -960 0
v -1752 -984 0
v -1776 -984 0
v -1776 -960 0
v -1752 -960 0
v -1776 -984 0
v -1800 -984 0
v -1800 -960 0
v -1776 -960 0
v -1800 -984 0
v -1824 -984 0
v -1824 -960 0
v -1800 -960 0
v -1824 -984 0
v -1848 -984 0
v -1848 -960 0
v -1824 -960 0
v -1848 -984 0
v -1872 -984 0
v -1872 -960 0
v -1848 -960 0
v -1872 -984 0
v -1896 -984 0
v -1896 -960 0
v -1872 -960 0
v -1896 -984 0
v -1920 -984 0
v -1920 -960 0
v -1896 -960 0
v -1920 -984 0
v -1944 -984 0
v -1944 -960 0
v -1920 -960 0
v -1368 -1008 0
v -1392 -1008 0
v -1392 -984 0
v -1368 -984 0
v -1392 -1008 0
v -1416 -1008 0
v -1416 -984 0
v -1392 -984 0
v -1896 -1008 0
v -1920 -1008 0
v -1920 -984 0
v -1896 -984 0
v -1920 -1008 0
v -1944 -1008 0
v -1944 -984 0
v -1920 -984 0
v -1368 -1032 0
v -1392 -1032 0
v -1392 -1008 0
v -1368 -1008 0
v -1392 -1032 0
v -1416 -1032 0
v -1416 -1008 0
v -1392 -1008 0
v -1896 -1032 0
v -1920 -1032 0
v -1920 -1008 0
v -1896 -1008 0
v -1920 -1032 0
v -1944 -1032 0
v -1944 -1008 0
v -1920 -1008 0
v -1368 -1056 0
v -1392 -1056 0
v -1392 -1032 0
v -1368 -1032 0
v -1392 -1056 0
v -1416 -1056 0
v -1416 -1032 0
v -1392 -1032 0
v -1896 -1056 0
v -1920 -1056 0
v -1920 -1032 0
v -1896 -1032 0
v -1920 -1056 0
v -1944 -1056 0
v -1944 -1032 0
v -1920 -1032 0
v -1368 -1080 0
v -1392 -1080 0
v -1392 -1056 0
v -1368 -1056 0
v -1392 -1080 0
v -1416 -1080 0
v -1416 -1056 0
v -1392 -1056 0
v -1896 -1080 0
v -1920 -1080 0
v -1920 -1056 0
v -1896 -1056 0
v -1920 -1080 0
v -1944 -1080 0
v -1944 -1056 0
v -1920 -1056 0
v -1272 -1104 0
v -1296 -1104 0
v -1296 -1080 0
v -1272 -1080 0
v -1296 -1104 0
v -1320 -1104 0
v -1320 -1080 0
v -1296 -1080 0
v -1320 -1104 0
v -1344 -1104 0
v -1344 -1080 0
v -1320 -1080 0
v -1344 -1104 0
v -1368 -1104 0
v -1368 -1080 0
v -1344 -1080 0
v -1368 -1104 0
v -1392 -1104 0
v -1392 -1080 0
v -1368 -1080 0
v -1392 -1104 0
v -1416 -1104 0
v -1416 -1080 0
v -1392 -1080 0
v -1896 -1104 0
v -1920 -1104 0
v -1920 -1080 0
v -1896 -1080 0
v -1920 -1104 0
v -1944 -1104 0
v -1944 -1080 0
v -1920 -1080 0
v -1944 -1104 0
v -1968 -1104 0
v -1968 -1080 0
v -1944 -1080 0
v -1968 -1104 0
v -1992 -1104 0
v -1992 -1080 0
v -1968 -1080 0
v -1992 -1104 0
v -2016 -1104 0
v -2016 -1080 0
v -1992 -1080 0
v -2016 -1104 0
v -2040 -1104 0
v -2040 -1080 0
v -2016 -1080 0
v -1272 -1248 0
v -1296 -1248 0
v -1296 -1224 0
v -1272 -1224 0
v -1296 -1248 0
v -1320 -1248 0
v -1320 -1224 0
v -1296 -1224 0
v -1320 -1248 0
v -1344 -1248 0
v -1344 -1224 0
v -1320 -1224 0
v -1344 -1248 0
v -1368 -1248 0
v -1368 -1224 0
v -1344 -1224 0
v -1368 -1248 0
v -1392 -1248 0
v -1392 -1224 0
v -1368 -1224 0
v -1392 -1248 0
v -1416 -1248 0
v -1416 -1224 0
v -1392 -1224 0
v -1896 -1248 0
v -1920 -1248 0
v -1920 -1224 0
v -1896 -1224 0
v -1920 -1248 0
v -1944 -1248 0
v -1944 -1224 0
v -1920 -1224 0
v -1944 -1248 0
v -1968 -1248 0
v -1968 -1224 0
v -1944 -1224 0
v -1968 -1248 0
v -1992 -1248 0
v -1992 -1224 0
v -1968 -1224 0
v -1992 -1248 0
v -2016 -1248 0
v -2016 -1224 0
v -1992 -1224 0
v -2016 -1248 0
v -2040 -1248 0
v -2040 -1224 0
v -2016 -1224 0
v -1368 -1272 0
v -1392 -1272 0
v -1392 -1248 0
v -1368 -1248 0
v -1392 -1272 0
v -1416 -1272 0
v -1416 -1248 0
v -1392 -1248 0
v -1896 -1272 0
v -1920 -1272 0
v -1920 -1248 0
v -1896 -1248 0
v -1920 -1272 0
v -1944 -1272 0
v -1944 -1248 0
v -1920 -1248 0
v -1368 -1296 0
v -1392 -1296 0
v -1392 -1272 0
v -1368 -1272 0
v -1392 -1296 0
v -1416 -1296 0
v -1416 -1272 0
v -1392 -1272 0
v -1896 -1296 0
v -1920 -1296 0
v -1920 -1272 0
v -1896 -1272 0
v -1920 -1296 0
v -1944 -1296 0
v -1944 -1272 0
v -1920 -1272 0
v -1368 -1320 0
v -1392 -1320 0
v -1392 -1296 0
v -1368 -1296 0
v -1392 -1320 0
v -1416 -1320 0
v -1416 -1296 0
v -1392 -1296 0
v -1896 -1320 0
v -1920 -1320 0
v -1920 -1296 0
v -1896 -1296 0
v -1920 -1320 0
v -1944 -1320 0
v -1944 -1296 0
v -1920 -1296 0
v -1368 -1344 0
v -1392 -1344 0
v -1392 -1320 0
v -1368 -1320 0
v -1392 -1344 0
v -1416 -1344 0
v -1416 -1320 0
v -1392 -1320 0
v -1896 -1344 0
v -1920 -1344 0
v -1920 -1320 0
v -1896 -1320 0
v -1920 -1344 0
v -1944 -1344 0
v -1944 -1320 0
v -1920 -1320 0
v -1368 -1368 0
v -1392 -1368 0
v -1392 -1344 0
v -1368 -1344 0
v -1392 -1368 0
v -1416 -1368 0
v -1416 -1344 0
v -1392 -1344 0
v -1416 -1368 0
v -1440 -1368 0
v -1440 -1344 0
v -1416 -1344 0
v -1440 -1368 0
v -1464 -1368 0
v -1464 -1344 0
v -1440 -1344 0
v -1464 -1368 0
v -1488 -1368 0
v -1488 -1344 0
v -1464 -1344 0
v -1488 -1368 0
v -1512 -1368 0
v -1512 -1344 0
v -1488 -1344 0
v -1512 -1368 0
v -1536 -1368 0
v -1536 -1344 0
v -1512 -1344 0
v -1536 -1368 0
v -1560 -1368 0
v -1560 -1344 0
v -1536 -1344 0
v -1560 -1368 0
v -1584 -1368 0
v -1584 -1344 0
v -1560 -1344 0
v -1584 -1368 0
v -1608 -1368 0
v -1608 -1344 0
v -1584 -1344 0
v -1608 -1368 0
v -1632 -1368 0
v -1632 -1344 0
v -1608 -1344 0
v -1680 -1368 0
v -1704 -1368 0
v -1704 -1344 0
v -1680 -1344 0
v -1704 -1368 0
v -1728 -1368 0
v -1728 -1344 0
v -1704 -1344 0
v -1728 -1368 0
v -1752 -1368 0
v -1752 -1344 0
v -1728 -1344 0
v -1752 -1368 0
v -1776 -1368 0
v -1776 -1344 0
v -1752 -1344 0
v -1776 -1368 0
v -1800 -1368 0
v -1800 -1344 0
v -1776 -1344 0
v -1800 -1368 0
v -1824 -1368 0
v -1824 -1344 0
v -1800 -1344 0
v -1824 -1368 0
v -1848 -1368 0
v -1848 -1344 0
v -1824 -1344 0
v -1848 -1368 0
v -1872 -1368 0
v -1872 -1344 0
v -1848 -1344 0
v -1872 -1368 0
v -1896 -1368 0
v -1896 -1344 0
v -1872 -1344 0
v -1896 -1368 0
v -1920 -1368 0
v -1920 -1344 0
v -1896 -1344 0
v -1920 -1368 0
v -1944 -1368 0
v -1944 -1344 0
v -1920 -1344 0
v -1584 -1392 0
v -1608 -1392 0
v -1608 -1368 0
v -1584 -1368 0
v -1608 -1392 0
v -1632 -1392 0
v -1632 -1368 0
v -1608 -1368 0
v -1680 -1392 0
v -1704 -1392 0
v -1704 -1368 0
v -1680 -1368 0
v -1704 -1392 0
v -1728 -1392 0
v -1728 -1368 0
v -1704 -1368 0
v -1584 -1416 0
v -1608 -1416 0
v -1608 -1392 0
v -1584 -1392 0
v -1608 -1416 0
v -1632 -1416 0
v -1632 -1392 0
v -1608 -1392 0
v -1680 -1416 0
v -1704 -1416 0
v -1704 -1392 0
v -1680 -1392 0
v -1704 -1416 0
v -1728 -1416 0
v -1728 -1392 0
v -1704 -1392 0
v -1584 -1440 0
v -1608 -1440 0
v -1608 -1416 0
v -1584 -1416 0
v -1608 -1440 0
v -1632 -1440 0
v -1632 -1416 0
v -1608 -1416 0
v -1680 -1440 0
v -1704 -1440 0
v -1704 -1416 0
v -1680 -1416 0
v -1704 -1440 0
v -1728 -1440 0
v -1728 -1416 0
v -1704 -1416 0

# Texture cooridinates (Count = 27)
vt 0.625 0.5333333
vt 0.65625 0.5333333
vt 0.65625 0.5666667
vt 0.625 0.5666667
vt 0.71875 0.6
vt 0.75 0.6
vt 0.75 0.6333333
vt 0.71875 0.6333333
vt 0.65625 0.4666666
vt 0.6875 0.4666666
vt 0.6875 0.5
vt 0.65625 0.5
vt 0.71875 0.4666666
vt 0.71875 0.5
vt 0.6875 0.6
vt 0.6875 0.6333333
vt 0.71875 0.5333333
vt 0.75 0.5333333
vt 0.75 0.5666667
vt 0.71875 0.5666667
vt 0.75 0.5
vt 0.625 0.5
vt 0.71875 0.6666666
vt 0.6875 0.6666666
vt 0.75 0.6666666
vt 0.75 0.4666666
vt 0.625 0.4666666

# Normal
vn 0 0 -1

# Mesh description
g SalleSEW-SF---SP_mesh_0002

# Faces
f 1/1/1 2/2/1 3/3/1 4/4/1
f 5/5/1 6/6/1 7/7/1 8/8/1
f 9/9/1 10/10/1 11/11/1 12/12/1
f 13/9/1 14/10/1 15/11/1 16/12/1
f 17/9/1 18/10/1 19/11/1 20/12/1
f 21/9/1 22/10/1 23/11/1 24/12/1
f 25/9/1 26/10/1 27/11/1 28/12/1
f 29/9/1 30/10/1 31/11/1 32/12/1
f 33/9/1 34/10/1 35/11/1 36/12/1
f 37/9/1 38/10/1 39/11/1 40/12/1
f 41/9/1 42/10/1 43/11/1 44/12/1
f 45/9/1 46/10/1 47/11/1 48/12/1
f 49/9/1 50/10/1 51/11/1 52/12/1
f 53/9/1 54/10/1 55/11/1 56/12/1
f 57/9/1 58/10/1 59/11/1 60/12/1
f 61/9/1 62/10/1 63/11/1 64/12/1
f 65/9/1 66/10/1 67/11/1 68/12/1
f 69/9/1 70/10/1 71/11/1 72/12/1
f 73/9/1 74/10/1 75/11/1 76/12/1
f 77/9/1 78/10/1 79/11/1 80/12/1
f 81/9/1 82/10/1 83/11/1 84/12/1
f 85/10/1 86/13/1 87/14/1 88/11/1
f 89/15/1 90/5/1 91/8/1 92/16/1
f 93/17/1 94/18/1 95/19/1 96/20/1
f 97/1/1 98/2/1 99/3/1 100/4/1
f 101/17/1 102/18/1 103/19/1 104/20/1
f 105/1/1 106/2/1 107/3/1 108/4/1
f 109/14/1 110/21/1 111/18/1 112/17/1
f 113/1/1 114/2/1 115/3/1 116/4/1
f 117/17/1 118/18/1 119/19/1 120/20/1
f 121/22/1 122/12/1 123/2/1 124/1/1
f 125/14/1 126/21/1 127/18/1 128/17/1
f 129/22/1 130/12/1 131/2/1 132/1/1
f 133/17/1 134/18/1 135/19/1 136/20/1
f 137/22/1 138/12/1 139/2/1 140/1/1
f 141/14/1 142/21/1 143/18/1 144/17/1
f 145/16/1 146/8/1 147/23/1 148/24/1
f 149/14/1 150/21/1 151/18/1 152/17/1
f 153/22/1 154/12/1 155/2/1 156/1/1
f 157/8/1 158/7/1 159/25/1 160/23/1
f 161/9/1 162/10/1 163/11/1 164/12/1
f 165/9/1 166/10/1 167/11/1 168/12/1
f 169/10/1 170/13/1 171/14/1 172/11/1
f 173/9/1 174/10/1 175/11/1 176/12/1
f 177/10/1 178/13/1 179/14/1 180/11/1
f 181/13/1 182/26/1 183/21/1 184/14/1
f 185/27/1 186/9/1 187/12/1 188/22/1
f 189/9/1 190/10/1 191/11/1 192/12/1
f 193/9/1 194/10/1 195/11/1 196/12/1
f 197/9/1 198/10/1 199/11/1 200/12/1
f 201/9/1 202/10/1 203/11/1 204/12/1
f 205/10/1 206/13/1 207/14/1 208/11/1
f 209/9/1 210/10/1 211/11/1 212/12/1
f 213/9/1 214/10/1 215/11/1 216/12/1
f 217/9/1 218/10/1 219/11/1 220/12/1
f 221/10/1 222/13/1 223/14/1 224/11/1
f 225/15/1 226/5/1 227/8/1 228/16/1
f 229/17/1 230/18/1 231/19/1 232/20/1
f 233/1/1 234/2/1 235/3/1 236/4/1
f 237/5/1 238/6/1 239/7/1 240/8/1
f 241/9/1 242/10/1 243/11/1 244/12/1
f 245/10/1 246/13/1 247/14/1 248/11/1
f 249/10/1 250/13/1 251/14/1 252/11/1
f 253/10/1 254/13/1 255/14/1 256/11/1
f 257/1/1 258/2/1 259/3/1 260/4/1
f 261/17/1 262/18/1 263/19/1 264/20/1
f 265/1/1 266/2/1 267/3/1 268/4/1
f 269/17/1 270/18/1 271/19/1 272/20/1
f 273/22/1 274/12/1 275/2/1 276/1/1
f 277/17/1 278/18/1 279/19/1 280/20/1
f 281/1/1 282/2/1 283/3/1 284/4/1
f 285/17/1 286/18/1 287/19/1 288/20/1
f 289/22/1 290/12/1 291/2/1 292/1/1
f 293/14/1 294/21/1 295/18/1 296/17/1
f 297/22/1 298/12/1 299/2/1 300/1/1
f 301/17/1 302/18/1 303/19/1 304/20/1
f 305/22/1 306/12/1 307/2/1 308/1/1
f 309/8/1 310/7/1 311/25/1 312/23/1
f 313/16/1 314/8/1 315/23/1 316/24/1
f 317/14/1 318/21/1 319/18/1 320/17/1
f 321/27/1 322/9/1 323/12/1 324/22/1
f 325/9/1 326/10/1 327/11/1 328/12/1
f 329/10/1 330/13/1 331/14/1 332/11/1
f 333/10/1 334/13/1 335/14/1 336/11/1
f 337/10/1 338/13/1 339/14/1 340/11/1
f 341/10/1 342/13/1 343/14/1 344/11/1
f 345/10/1 346/13/1 347/14/1 348/11/1
f 349/10/1 350/13/1 351/14/1 352/11/1
f 353/10/1 354/13/1 355/14/1 356/11/1
f 357/15/1 358/5/1 359/8/1 360/16/1
f 361/17/1 362/18/1 363/19/1 364/20/1
f 365/1/1 366/2/1 367/3/1 368/4/1
f 369/5/1 370/6/1 371/7/1 372/8/1
f 373/9/1 374/10/1 375/11/1 376/12/1
f 377/10/1 378/13/1 379/14/1 380/11/1
f 381/10/1 382/13/1 383/14/1 384/11/1
f 385/10/1 386/13/1 387/14/1 388/11/1
f 389/10/1 390/13/1 391/14/1 392/11/1
f 393/10/1 394/13/1 395/14/1 396/11/1
f 397/10/1 398/13/1 399/14/1 400/11/1
f 401/10/1 402/13/1 403/14/1 404/11/1
f 405/13/1 406/26/1 407/21/1 408/14/1
f 409/1/1 410/2/1 411/3/1 412/4/1
f 413/14/1 414/21/1 415/18/1 416/17/1
f 417/22/1 418/12/1 419/2/1 420/1/1
f 421/17/1 422/18/1 423/19/1 424/20/1
f 425/1/1 426/2/1 427/3/1 428/4/1
f 429/17/1 430/18/1 431/19/1 432/20/1
f 433/22/1 434/12/1 435/2/1 436/1/1
f 437/17/1 438/18/1 439/19/1 440/20/1
f 441/22/1 442/12/1 443/2/1 444/1/1
f 445/14/1 446/21/1 447/18/1 448/17/1
f 449/22/1 450/12/1 451/2/1 452/1/1
f 453/14/1 454/21/1 455/18/1 456/17/1

