# Tiled2Unity generated file. Do not modify by hand.
# Wavefront file for 'SalleEW-Pilliers_mesh_0005.obj'

# Vertices (Count = 256)
v -1368 -960 0
v -1392 -960 0
v -1392 -936 0
v -1368 -936 0
v -1392 -960 0
v -1416 -960 0
v -1416 -936 0
v -1392 -936 0
v -1416 -960 0
v -1440 -960 0
v -1440 -936 0
v -1416 -936 0
v -1440 -960 0
v -1464 -960 0
v -1464 -936 0
v -1440 -936 0
v -1464 -960 0
v -1488 -960 0
v -1488 -936 0
v -1464 -936 0
v -1488 -960 0
v -1512 -960 0
v -1512 -936 0
v -1488 -936 0
v -1512 -960 0
v -1536 -960 0
v -1536 -936 0
v -1512 -936 0
v -1536 -960 0
v -1560 -960 0
v -1560 -936 0
v -1536 -936 0
v -1560 -960 0
v -1584 -960 0
v -1584 -936 0
v -1560 -936 0
v -1584 -960 0
v -1608 -960 0
v -1608 -936 0
v -1584 -936 0
v -1608 -960 0
v -1632 -960 0
v -1632 -936 0
v -1608 -936 0
v -1632 -960 0
v -1656 -960 0
v -1656 -936 0
v -1632 -936 0
v -1656 -960 0
v -1680 -960 0
v -1680 -936 0
v -1656 -936 0
v -1680 -960 0
v -1704 -960 0
v -1704 -936 0
v -1680 -936 0
v -1704 -960 0
v -1728 -960 0
v -1728 -936 0
v -1704 -936 0
v -1728 -960 0
v -1752 -960 0
v -1752 -936 0
v -1728 -936 0
v -1752 -960 0
v -1776 -960 0
v -1776 -936 0
v -1752 -936 0
v -1776 -960 0
v -1800 -960 0
v -1800 -936 0
v -1776 -936 0
v -1800 -960 0
v -1824 -960 0
v -1824 -936 0
v -1800 -936 0
v -1824 -960 0
v -1848 -960 0
v -1848 -936 0
v -1824 -936 0
v -1848 -960 0
v -1872 -960 0
v -1872 -936 0
v -1848 -936 0
v -1872 -960 0
v -1896 -960 0
v -1896 -936 0
v -1872 -936 0
v -1896 -960 0
v -1920 -960 0
v -1920 -936 0
v -1896 -936 0
v -1920 -960 0
v -1944 -960 0
v -1944 -936 0
v -1920 -936 0
v -1272 -1080 0
v -1296 -1080 0
v -1296 -1056 0
v -1272 -1056 0
v -1296 -1080 0
v -1320 -1080 0
v -1320 -1056 0
v -1296 -1056 0
v -1320 -1080 0
v -1344 -1080 0
v -1344 -1056 0
v -1320 -1056 0
v -1344 -1080 0
v -1368 -1080 0
v -1368 -1056 0
v -1344 -1056 0
v -1944 -1080 0
v -1968 -1080 0
v -1968 -1056 0
v -1944 -1056 0
v -1968 -1080 0
v -1992 -1080 0
v -1992 -1056 0
v -1968 -1056 0
v -1992 -1080 0
v -2016 -1080 0
v -2016 -1056 0
v -1992 -1056 0
v -2016 -1080 0
v -2040 -1080 0
v -2040 -1056 0
v -2016 -1056 0
v -1272 -1224 0
v -1296 -1224 0
v -1296 -1200 0
v -1272 -1200 0
v -1296 -1224 0
v -1320 -1224 0
v -1320 -1200 0
v -1296 -1200 0
v -1320 -1224 0
v -1344 -1224 0
v -1344 -1200 0
v -1320 -1200 0
v -1344 -1224 0
v -1368 -1224 0
v -1368 -1200 0
v -1344 -1200 0
v -1368 -1224 0
v -1392 -1224 0
v -1392 -1200 0
v -1368 -1200 0
v -1392 -1224 0
v -1416 -1224 0
v -1416 -1200 0
v -1392 -1200 0
v -1896 -1224 0
v -1920 -1224 0
v -1920 -1200 0
v -1896 -1200 0
v -1920 -1224 0
v -1944 -1224 0
v -1944 -1200 0
v -1920 -1200 0
v -1944 -1224 0
v -1968 -1224 0
v -1968 -1200 0
v -1944 -1200 0
v -1968 -1224 0
v -1992 -1224 0
v -1992 -1200 0
v -1968 -1200 0
v -1992 -1224 0
v -2016 -1224 0
v -2016 -1200 0
v -1992 -1200 0
v -2016 -1224 0
v -2040 -1224 0
v -2040 -1200 0
v -2016 -1200 0
v -1416 -1344 0
v -1440 -1344 0
v -1440 -1320 0
v -1416 -1320 0
v -1440 -1344 0
v -1464 -1344 0
v -1464 -1320 0
v -1440 -1320 0
v -1464 -1344 0
v -1488 -1344 0
v -1488 -1320 0
v -1464 -1320 0
v -1488 -1344 0
v -1512 -1344 0
v -1512 -1320 0
v -1488 -1320 0
v -1512 -1344 0
v -1536 -1344 0
v -1536 -1320 0
v -1512 -1320 0
v -1536 -1344 0
v -1560 -1344 0
v -1560 -1320 0
v -1536 -1320 0
v -1560 -1344 0
v -1584 -1344 0
v -1584 -1320 0
v -1560 -1320 0
v -1584 -1344 0
v -1608 -1344 0
v -1608 -1320 0
v -1584 -1320 0
v -1608 -1344 0
v -1632 -1344 0
v -1632 -1320 0
v -1608 -1320 0
v -1632 -1344 0
v -1656 -1344 0
v -1656 -1320 0
v -1632 -1320 0
v -1656 -1344 0
v -1680 -1344 0
v -1680 -1320 0
v -1656 -1320 0
v -1680 -1344 0
v -1704 -1344 0
v -1704 -1320 0
v -1680 -1320 0
v -1704 -1344 0
v -1728 -1344 0
v -1728 -1320 0
v -1704 -1320 0
v -1728 -1344 0
v -1752 -1344 0
v -1752 -1320 0
v -1728 -1320 0
v -1752 -1344 0
v -1776 -1344 0
v -1776 -1320 0
v -1752 -1320 0
v -1776 -1344 0
v -1800 -1344 0
v -1800 -1320 0
v -1776 -1320 0
v -1800 -1344 0
v -1824 -1344 0
v -1824 -1320 0
v -1800 -1320 0
v -1824 -1344 0
v -1848 -1344 0
v -1848 -1320 0
v -1824 -1320 0
v -1848 -1344 0
v -1872 -1344 0
v -1872 -1320 0
v -1848 -1320 0
v -1872 -1344 0
v -1896 -1344 0
v -1896 -1320 0
v -1872 -1320 0

# Texture cooridinates (Count = 10)
vt 0.125 0.9
vt 0.15625 0.9
vt 0.15625 0.9333333
vt 0.125 0.9333333
vt 0.1875 0.9
vt 0.1875 0.9333333
vt 0.21875 0.9
vt 0.21875 0.9333333
vt 0.25 0.9
vt 0.25 0.9333333

# Normal
vn 0 0 -1

# Mesh description
g SalleEW-Pilliers_mesh_0005

# Faces
f 1/1/1 2/2/1 3/3/1 4/4/1
f 5/2/1 6/5/1 7/6/1 8/3/1
f 9/5/1 10/7/1 11/8/1 12/6/1
f 13/2/1 14/5/1 15/6/1 16/3/1
f 17/5/1 18/7/1 19/8/1 20/6/1
f 21/2/1 22/5/1 23/6/1 24/3/1
f 25/5/1 26/7/1 27/8/1 28/6/1
f 29/2/1 30/5/1 31/6/1 32/3/1
f 33/5/1 34/7/1 35/8/1 36/6/1
f 37/2/1 38/5/1 39/6/1 40/3/1
f 41/5/1 42/7/1 43/8/1 44/6/1
f 45/2/1 46/5/1 47/6/1 48/3/1
f 49/5/1 50/7/1 51/8/1 52/6/1
f 53/2/1 54/5/1 55/6/1 56/3/1
f 57/5/1 58/7/1 59/8/1 60/6/1
f 61/2/1 62/5/1 63/6/1 64/3/1
f 65/5/1 66/7/1 67/8/1 68/6/1
f 69/2/1 70/5/1 71/6/1 72/3/1
f 73/5/1 74/7/1 75/8/1 76/6/1
f 77/2/1 78/5/1 79/6/1 80/3/1
f 81/5/1 82/7/1 83/8/1 84/6/1
f 85/2/1 86/5/1 87/6/1 88/3/1
f 89/5/1 90/7/1 91/8/1 92/6/1
f 93/7/1 94/9/1 95/10/1 96/8/1
f 97/2/1 98/5/1 99/6/1 100/3/1
f 101/5/1 102/7/1 103/8/1 104/6/1
f 105/2/1 106/5/1 107/6/1 108/3/1
f 109/5/1 110/7/1 111/8/1 112/6/1
f 113/2/1 114/5/1 115/6/1 116/3/1
f 117/5/1 118/7/1 119/8/1 120/6/1
f 121/2/1 122/5/1 123/6/1 124/3/1
f 125/5/1 126/7/1 127/8/1 128/6/1
f 129/2/1 130/5/1 131/6/1 132/3/1
f 133/2/1 134/5/1 135/6/1 136/3/1
f 137/5/1 138/7/1 139/8/1 140/6/1
f 141/2/1 142/5/1 143/6/1 144/3/1
f 145/5/1 146/7/1 147/8/1 148/6/1
f 149/7/1 150/9/1 151/10/1 152/8/1
f 153/1/1 154/2/1 155/3/1 156/4/1
f 157/2/1 158/5/1 159/6/1 160/3/1
f 161/2/1 162/5/1 163/6/1 164/3/1
f 165/2/1 166/5/1 167/6/1 168/3/1
f 169/5/1 170/7/1 171/8/1 172/6/1
f 173/2/1 174/5/1 175/6/1 176/3/1
f 177/2/1 178/5/1 179/6/1 180/3/1
f 181/5/1 182/7/1 183/8/1 184/6/1
f 185/2/1 186/5/1 187/6/1 188/3/1
f 189/5/1 190/7/1 191/8/1 192/6/1
f 193/2/1 194/5/1 195/6/1 196/3/1
f 197/5/1 198/7/1 199/8/1 200/6/1
f 201/2/1 202/5/1 203/6/1 204/3/1
f 205/5/1 206/7/1 207/8/1 208/6/1
f 209/2/1 210/5/1 211/6/1 212/3/1
f 213/5/1 214/7/1 215/8/1 216/6/1
f 217/2/1 218/5/1 219/6/1 220/3/1
f 221/5/1 222/7/1 223/8/1 224/6/1
f 225/2/1 226/5/1 227/6/1 228/3/1
f 229/5/1 230/7/1 231/8/1 232/6/1
f 233/2/1 234/5/1 235/6/1 236/3/1
f 237/5/1 238/7/1 239/8/1 240/6/1
f 241/2/1 242/5/1 243/6/1 244/3/1
f 245/5/1 246/7/1 247/8/1 248/6/1
f 249/2/1 250/5/1 251/6/1 252/3/1
f 253/5/1 254/7/1 255/8/1 256/6/1

