# Tiled2Unity generated file. Do not modify by hand.
# Wavefront file for 'SalleEW-Pilliers_mesh_0003.obj'

# Vertices (Count = 264)
v -1440 -1008 0
v -1464 -1008 0
v -1464 -984 0
v -1440 -984 0
v -1464 -1008 0
v -1488 -1008 0
v -1488 -984 0
v -1464 -984 0
v -1440 -1032 0
v -1464 -1032 0
v -1464 -1008 0
v -1440 -1008 0
v -1464 -1032 0
v -1488 -1032 0
v -1488 -1008 0
v -1464 -1008 0
v -1560 -1032 0
v -1584 -1032 0
v -1584 -1008 0
v -1560 -1008 0
v -1584 -1032 0
v -1608 -1032 0
v -1608 -1008 0
v -1584 -1008 0
v -1608 -1032 0
v -1632 -1032 0
v -1632 -1008 0
v -1608 -1008 0
v -1632 -1032 0
v -1656 -1032 0
v -1656 -1008 0
v -1632 -1008 0
v -1560 -1056 0
v -1584 -1056 0
v -1584 -1032 0
v -1560 -1032 0
v -1584 -1056 0
v -1608 -1056 0
v -1608 -1032 0
v -1584 -1032 0
v -1608 -1056 0
v -1632 -1056 0
v -1632 -1032 0
v -1608 -1032 0
v -1632 -1056 0
v -1656 -1056 0
v -1656 -1032 0
v -1632 -1032 0
v -1464 -1080 0
v -1488 -1080 0
v -1488 -1056 0
v -1464 -1056 0
v -1488 -1080 0
v -1512 -1080 0
v -1512 -1056 0
v -1488 -1056 0
v -1800 -1080 0
v -1824 -1080 0
v -1824 -1056 0
v -1800 -1056 0
v -1824 -1080 0
v -1848 -1080 0
v -1848 -1056 0
v -1824 -1056 0
v -1464 -1104 0
v -1488 -1104 0
v -1488 -1080 0
v -1464 -1080 0
v -1488 -1104 0
v -1512 -1104 0
v -1512 -1080 0
v -1488 -1080 0
v -1512 -1104 0
v -1536 -1104 0
v -1536 -1080 0
v -1512 -1080 0
v -1536 -1104 0
v -1560 -1104 0
v -1560 -1080 0
v -1536 -1080 0
v -1800 -1104 0
v -1824 -1104 0
v -1824 -1080 0
v -1800 -1080 0
v -1824 -1104 0
v -1848 -1104 0
v -1848 -1080 0
v -1824 -1080 0
v -1440 -1128 0
v -1464 -1128 0
v -1464 -1104 0
v -1440 -1104 0
v -1464 -1128 0
v -1488 -1128 0
v -1488 -1104 0
v -1464 -1104 0
v -1512 -1128 0
v -1536 -1128 0
v -1536 -1104 0
v -1512 -1104 0
v -1536 -1128 0
v -1560 -1128 0
v -1560 -1104 0
v -1536 -1104 0
v -1440 -1152 0
v -1464 -1152 0
v -1464 -1128 0
v -1440 -1128 0
v -1464 -1152 0
v -1488 -1152 0
v -1488 -1128 0
v -1464 -1128 0
v -1608 -1152 0
v -1632 -1152 0
v -1632 -1128 0
v -1608 -1128 0
v -1632 -1152 0
v -1656 -1152 0
v -1656 -1128 0
v -1632 -1128 0
v -1560 -1176 0
v -1584 -1176 0
v -1584 -1152 0
v -1560 -1152 0
v -1584 -1176 0
v -1608 -1176 0
v -1608 -1152 0
v -1584 -1152 0
v -1608 -1176 0
v -1632 -1176 0
v -1632 -1152 0
v -1608 -1152 0
v -1632 -1176 0
v -1656 -1176 0
v -1656 -1152 0
v -1632 -1152 0
v -1704 -1176 0
v -1728 -1176 0
v -1728 -1152 0
v -1704 -1152 0
v -1728 -1176 0
v -1752 -1176 0
v -1752 -1152 0
v -1728 -1152 0
v -1560 -1200 0
v -1584 -1200 0
v -1584 -1176 0
v -1560 -1176 0
v -1584 -1200 0
v -1608 -1200 0
v -1608 -1176 0
v -1584 -1176 0
v -1704 -1200 0
v -1728 -1200 0
v -1728 -1176 0
v -1704 -1176 0
v -1728 -1200 0
v -1752 -1200 0
v -1752 -1176 0
v -1728 -1176 0
v -1512 -1248 0
v -1536 -1248 0
v -1536 -1224 0
v -1512 -1224 0
v -1536 -1248 0
v -1560 -1248 0
v -1560 -1224 0
v -1536 -1224 0
v -1464 -1272 0
v -1488 -1272 0
v -1488 -1248 0
v -1464 -1248 0
v -1488 -1272 0
v -1512 -1272 0
v -1512 -1248 0
v -1488 -1248 0
v -1512 -1272 0
v -1536 -1272 0
v -1536 -1248 0
v -1512 -1248 0
v -1536 -1272 0
v -1560 -1272 0
v -1560 -1248 0
v -1536 -1248 0
v -1752 -1272 0
v -1776 -1272 0
v -1776 -1248 0
v -1752 -1248 0
v -1776 -1272 0
v -1800 -1272 0
v -1800 -1248 0
v -1776 -1248 0
v -1800 -1272 0
v -1824 -1272 0
v -1824 -1248 0
v -1800 -1248 0
v -1824 -1272 0
v -1848 -1272 0
v -1848 -1248 0
v -1824 -1248 0
v -1464 -1296 0
v -1488 -1296 0
v -1488 -1272 0
v -1464 -1272 0
v -1488 -1296 0
v -1512 -1296 0
v -1512 -1272 0
v -1488 -1272 0
v -1752 -1296 0
v -1776 -1296 0
v -1776 -1272 0
v -1752 -1272 0
v -1776 -1296 0
v -1800 -1296 0
v -1800 -1272 0
v -1776 -1272 0
v -1800 -1296 0
v -1824 -1296 0
v -1824 -1272 0
v -1800 -1272 0
v -1824 -1296 0
v -1848 -1296 0
v -1848 -1272 0
v -1824 -1272 0
v -1488 -1320 0
v -1512 -1320 0
v -1512 -1296 0
v -1488 -1296 0
v -1512 -1320 0
v -1536 -1320 0
v -1536 -1296 0
v -1512 -1296 0
v -1776 -1320 0
v -1800 -1320 0
v -1800 -1296 0
v -1776 -1296 0
v -1800 -1320 0
v -1824 -1320 0
v -1824 -1296 0
v -1800 -1296 0
v -1824 -1320 0
v -1848 -1320 0
v -1848 -1296 0
v -1824 -1296 0
v -1488 -1344 0
v -1512 -1344 0
v -1512 -1320 0
v -1488 -1320 0
v -1512 -1344 0
v -1536 -1344 0
v -1536 -1320 0
v -1512 -1320 0
v -1776 -1344 0
v -1800 -1344 0
v -1800 -1320 0
v -1776 -1320 0
v -1800 -1344 0
v -1824 -1344 0
v -1824 -1320 0
v -1800 -1320 0
v -1824 -1344 0
v -1848 -1344 0
v -1848 -1320 0
v -1824 -1320 0

# Texture cooridinates (Count = 42)
vt 0.5 0.84375
vt 0.53125 0.84375
vt 0.53125 0.875
vt 0.5 0.875
vt 0.5625 0.84375
vt 0.5625 0.875
vt 0.5 0.8125
vt 0.53125 0.8125
vt 0.5625 0.8125
vt 0.9375 0.28125
vt 0.96875 0.28125
vt 0.96875 0.3125
vt 0.9375 0.3125
vt 1 0.28125
vt 1 0.3125
vt 0.9375 0.25
vt 0.96875 0.25
vt 1 0.25
vt 0.0625 0.21875
vt 0.09375 0.21875
vt 0.09375 0.25
vt 0.0625 0.25
vt 0.125 0.21875
vt 0.125 0.25
vt 0.0625 0.28125
vt 0.09375 0.28125
vt 0.09375 0.3125
vt 0.0625 0.3125
vt 0.125 0.28125
vt 0.125 0.3125
vt 0.0625 0.1875
vt 0.09375 0.1875
vt 0.125 0.1875
vt 0.0625 0.59375
vt 0.09375 0.59375
vt 0.09375 0.625
vt 0.0625 0.625
vt 0.125 0.59375
vt 0.125 0.625
vt 0.0625 0.5625
vt 0.09375 0.5625
vt 0.125 0.5625

# Normal
vn 0 0 -1

# Mesh description
g SalleEW-Pilliers_mesh_0003

# Faces
f 1/1/1 2/2/1 3/3/1 4/4/1
f 5/2/1 6/5/1 7/6/1 8/3/1
f 9/7/1 10/8/1 11/2/1 12/1/1
f 13/8/1 14/9/1 15/5/1 16/2/1
f 17/10/1 18/11/1 19/12/1 20/13/1
f 21/11/1 22/14/1 23/15/1 24/12/1
f 25/10/1 26/11/1 27/12/1 28/13/1
f 29/11/1 30/14/1 31/15/1 32/12/1
f 33/16/1 34/17/1 35/11/1 36/10/1
f 37/17/1 38/18/1 39/14/1 40/11/1
f 41/16/1 42/17/1 43/11/1 44/10/1
f 45/17/1 46/18/1 47/14/1 48/11/1
f 49/19/1 50/20/1 51/21/1 52/22/1
f 53/20/1 54/23/1 55/24/1 56/21/1
f 57/25/1 58/26/1 59/27/1 60/28/1
f 61/26/1 62/29/1 63/30/1 64/27/1
f 65/31/1 66/32/1 67/20/1 68/19/1
f 69/32/1 70/33/1 71/23/1 72/20/1
f 73/34/1 74/35/1 75/36/1 76/37/1
f 77/35/1 78/38/1 79/39/1 80/36/1
f 81/22/1 82/21/1 83/26/1 84/25/1
f 85/21/1 86/24/1 87/29/1 88/26/1
f 89/34/1 90/35/1 91/36/1 92/37/1
f 93/35/1 94/38/1 95/39/1 96/36/1
f 97/40/1 98/41/1 99/35/1 100/34/1
f 101/41/1 102/42/1 103/38/1 104/35/1
f 105/40/1 106/41/1 107/35/1 108/34/1
f 109/41/1 110/42/1 111/38/1 112/35/1
f 113/34/1 114/35/1 115/36/1 116/37/1
f 117/35/1 118/38/1 119/39/1 120/36/1
f 121/19/1 122/20/1 123/21/1 124/22/1
f 125/20/1 126/23/1 127/24/1 128/21/1
f 129/40/1 130/41/1 131/35/1 132/34/1
f 133/41/1 134/42/1 135/38/1 136/35/1
f 137/25/1 138/26/1 139/27/1 140/28/1
f 141/26/1 142/29/1 143/30/1 144/27/1
f 145/31/1 146/32/1 147/20/1 148/19/1
f 149/32/1 150/33/1 151/23/1 152/20/1
f 153/22/1 154/21/1 155/26/1 156/25/1
f 157/21/1 158/24/1 159/29/1 160/26/1
f 161/34/1 162/35/1 163/36/1 164/37/1
f 165/35/1 166/38/1 167/39/1 168/36/1
f 169/19/1 170/20/1 171/21/1 172/22/1
f 173/20/1 174/23/1 175/24/1 176/21/1
f 177/40/1 178/41/1 179/35/1 180/34/1
f 181/41/1 182/42/1 183/38/1 184/35/1
f 185/34/1 186/35/1 187/36/1 188/37/1
f 189/35/1 190/38/1 191/39/1 192/36/1
f 193/19/1 194/20/1 195/21/1 196/22/1
f 197/20/1 198/23/1 199/24/1 200/21/1
f 201/31/1 202/32/1 203/20/1 204/19/1
f 205/32/1 206/33/1 207/23/1 208/20/1
f 209/40/1 210/41/1 211/35/1 212/34/1
f 213/41/1 214/42/1 215/38/1 216/35/1
f 217/31/1 218/32/1 219/20/1 220/19/1
f 221/32/1 222/33/1 223/23/1 224/20/1
f 225/34/1 226/35/1 227/36/1 228/37/1
f 229/35/1 230/38/1 231/39/1 232/36/1
f 233/34/1 234/35/1 235/36/1 236/37/1
f 237/35/1 238/38/1 239/39/1 240/36/1
f 241/35/1 242/38/1 243/39/1 244/36/1
f 245/40/1 246/41/1 247/35/1 248/34/1
f 249/41/1 250/42/1 251/38/1 252/35/1
f 253/40/1 254/41/1 255/35/1 256/34/1
f 257/41/1 258/42/1 259/38/1 260/35/1
f 261/41/1 262/42/1 263/38/1 264/35/1

