# Tiled2Unity generated file. Do not modify by hand.
# Wavefront file for 'SalleEW-Pilliers_mesh_0006.obj'

# Vertices (Count = 32)
v -1800 -1032 0
v -1824 -1032 0
v -1824 -1008 0
v -1800 -1008 0
v -1824 -1032 0
v -1848 -1032 0
v -1848 -1008 0
v -1824 -1008 0
v -1800 -1056 0
v -1824 -1056 0
v -1824 -1032 0
v -1800 -1032 0
v -1824 -1056 0
v -1848 -1056 0
v -1848 -1032 0
v -1824 -1032 0
v -1704 -1128 0
v -1728 -1128 0
v -1728 -1104 0
v -1704 -1104 0
v -1728 -1128 0
v -1752 -1128 0
v -1752 -1104 0
v -1728 -1104 0
v -1704 -1152 0
v -1728 -1152 0
v -1728 -1128 0
v -1704 -1128 0
v -1728 -1152 0
v -1752 -1152 0
v -1752 -1128 0
v -1728 -1128 0

# Texture cooridinates (Count = 9)
vt 0.0625 0.34375
vt 0.09375 0.34375
vt 0.09375 0.375
vt 0.0625 0.375
vt 0.125 0.34375
vt 0.125 0.375
vt 0.0625 0.3125
vt 0.09375 0.3125
vt 0.125 0.3125

# Normal
vn 0 0 -1

# Mesh description
g SalleEW-Pilliers_mesh_0006

# Faces
f 1/1/1 2/2/1 3/3/1 4/4/1
f 5/2/1 6/5/1 7/6/1 8/3/1
f 9/7/1 10/8/1 11/2/1 12/1/1
f 13/8/1 14/9/1 15/5/1 16/2/1
f 17/1/1 18/2/1 19/3/1 20/4/1
f 21/2/1 22/5/1 23/6/1 24/3/1
f 25/7/1 26/8/1 27/2/1 28/1/1
f 29/8/1 30/9/1 31/5/1 32/2/1

