# Tiled2Unity generated file. Do not modify by hand.
# Wavefront file for 'SalleW-Trous_mesh_0005.obj'

# Vertices (Count = 40)
v -1728 -1272 0
v -1752 -1272 0
v -1752 -1248 0
v -1728 -1248 0
v -1752 -1272 0
v -1776 -1272 0
v -1776 -1248 0
v -1752 -1248 0
v -1728 -1296 0
v -1752 -1296 0
v -1752 -1272 0
v -1728 -1272 0
v -1752 -1296 0
v -1776 -1296 0
v -1776 -1272 0
v -1752 -1272 0
v -1848 -1296 0
v -1872 -1296 0
v -1872 -1272 0
v -1848 -1272 0
v -1872 -1296 0
v -1896 -1296 0
v -1896 -1272 0
v -1872 -1272 0
v -1848 -1320 0
v -1872 -1320 0
v -1872 -1296 0
v -1848 -1296 0
v -1872 -1320 0
v -1896 -1320 0
v -1896 -1296 0
v -1872 -1296 0
v -1416 -1344 0
v -1440 -1344 0
v -1440 -1320 0
v -1416 -1320 0
v -1440 -1344 0
v -1464 -1344 0
v -1464 -1320 0
v -1440 -1320 0

# Texture cooridinates (Count = 15)
vt 0.75 0.9583333
vt 0.78125 0.9583333
vt 0.78125 1
vt 0.75 1
vt 0.8125 0.9583333
vt 0.8125 1
vt 0.75 0.9166667
vt 0.78125 0.9166667
vt 0.8125 0.9166667
vt 0.75 0.75
vt 0.78125 0.75
vt 0.78125 0.7916667
vt 0.75 0.7916667
vt 0.8125 0.75
vt 0.8125 0.7916667

# Normal
vn 0 0 -1

# Mesh description
g SalleW-Trous_mesh_0005

# Faces
f 1/1/1 2/2/1 3/3/1 4/4/1
f 5/2/1 6/5/1 7/6/1 8/3/1
f 9/7/1 10/8/1 11/2/1 12/1/1
f 13/8/1 14/9/1 15/5/1 16/2/1
f 17/1/1 18/2/1 19/3/1 20/4/1
f 21/2/1 22/5/1 23/6/1 24/3/1
f 25/7/1 26/8/1 27/2/1 28/1/1
f 29/8/1 30/9/1 31/5/1 32/2/1
f 33/10/1 34/11/1 35/12/1 36/13/1
f 37/11/1 38/14/1 39/15/1 40/12/1

