# Tiled2Unity generated file. Do not modify by hand.
# Wavefront file for 'SalleW-Fin_mesh_0004.obj'

# Vertices (Count = 64)
v -1440 -1008 0
v -1464 -1008 0
v -1464 -984 0
v -1440 -984 0
v -1464 -1008 0
v -1488 -1008 0
v -1488 -984 0
v -1464 -984 0
v -1824 -1008 0
v -1848 -1008 0
v -1848 -984 0
v -1824 -984 0
v -1848 -1008 0
v -1872 -1008 0
v -1872 -984 0
v -1848 -984 0
v -1440 -1032 0
v -1464 -1032 0
v -1464 -1008 0
v -1440 -1008 0
v -1464 -1032 0
v -1488 -1032 0
v -1488 -1008 0
v -1464 -1008 0
v -1488 -1032 0
v -1512 -1032 0
v -1512 -1008 0
v -1488 -1008 0
v -1512 -1032 0
v -1536 -1032 0
v -1536 -1008 0
v -1512 -1008 0
v -1776 -1032 0
v -1800 -1032 0
v -1800 -1008 0
v -1776 -1008 0
v -1800 -1032 0
v -1824 -1032 0
v -1824 -1008 0
v -1800 -1008 0
v -1824 -1032 0
v -1848 -1032 0
v -1848 -1008 0
v -1824 -1008 0
v -1848 -1032 0
v -1872 -1032 0
v -1872 -1008 0
v -1848 -1008 0
v -1488 -1056 0
v -1512 -1056 0
v -1512 -1032 0
v -1488 -1032 0
v -1512 -1056 0
v -1536 -1056 0
v -1536 -1032 0
v -1512 -1032 0
v -1776 -1056 0
v -1800 -1056 0
v -1800 -1032 0
v -1776 -1032 0
v -1800 -1056 0
v -1824 -1056 0
v -1824 -1032 0
v -1800 -1032 0

# Texture cooridinates (Count = 18)
vt 0.1875 0.71875
vt 0.21875 0.71875
vt 0.21875 0.75
vt 0.1875 0.75
vt 0.25 0.71875
vt 0.25 0.75
vt 0.1875 0.6875
vt 0.21875 0.6875
vt 0.25 0.6875
vt 0.8125 0.28125
vt 0.84375 0.28125
vt 0.84375 0.3125
vt 0.8125 0.3125
vt 0.875 0.28125
vt 0.875 0.3125
vt 0.8125 0.25
vt 0.84375 0.25
vt 0.875 0.25

# Normal
vn 0 0 -1

# Mesh description
g SalleW-Fin_mesh_0004

# Faces
f 1/1/1 2/2/1 3/3/1 4/4/1
f 5/2/1 6/5/1 7/6/1 8/3/1
f 9/1/1 10/2/1 11/3/1 12/4/1
f 13/2/1 14/5/1 15/6/1 16/3/1
f 17/7/1 18/8/1 19/2/1 20/1/1
f 21/8/1 22/9/1 23/5/1 24/2/1
f 25/10/1 26/11/1 27/12/1 28/13/1
f 29/11/1 30/14/1 31/15/1 32/12/1
f 33/10/1 34/11/1 35/12/1 36/13/1
f 37/11/1 38/14/1 39/15/1 40/12/1
f 41/7/1 42/8/1 43/2/1 44/1/1
f 45/8/1 46/9/1 47/5/1 48/2/1
f 49/16/1 50/17/1 51/11/1 52/10/1
f 53/17/1 54/18/1 55/14/1 56/11/1
f 57/16/1 58/17/1 59/11/1 60/10/1
f 61/17/1 62/18/1 63/14/1 64/11/1

