# Tiled2Unity generated file. Do not modify by hand.
# Wavefront file for 'SalleNSEW-SF_mesh_0002.obj'

# Vertices (Count = 112)
v -1536 -1008 0
v -1560 -1008 0
v -1560 -984 0
v -1536 -984 0
v -1560 -1008 0
v -1584 -1008 0
v -1584 -984 0
v -1560 -984 0
v -1800 -1008 0
v -1824 -1008 0
v -1824 -984 0
v -1800 -984 0
v -1824 -1008 0
v -1848 -1008 0
v -1848 -984 0
v -1824 -984 0
v -1536 -1032 0
v -1560 -1032 0
v -1560 -1008 0
v -1536 -1008 0
v -1560 -1032 0
v -1584 -1032 0
v -1584 -1008 0
v -1560 -1008 0
v -1800 -1032 0
v -1824 -1032 0
v -1824 -1008 0
v -1800 -1008 0
v -1824 -1032 0
v -1848 -1032 0
v -1848 -1008 0
v -1824 -1008 0
v -1296 -1128 0
v -1320 -1128 0
v -1320 -1104 0
v -1296 -1104 0
v -1320 -1128 0
v -1344 -1128 0
v -1344 -1104 0
v -1320 -1104 0
v -1296 -1152 0
v -1320 -1152 0
v -1320 -1128 0
v -1296 -1128 0
v -1320 -1152 0
v -1344 -1152 0
v -1344 -1128 0
v -1320 -1128 0
v -1704 -1152 0
v -1728 -1152 0
v -1728 -1128 0
v -1704 -1128 0
v -1728 -1152 0
v -1752 -1152 0
v -1752 -1128 0
v -1728 -1128 0
v -1704 -1176 0
v -1728 -1176 0
v -1728 -1152 0
v -1704 -1152 0
v -1728 -1176 0
v -1752 -1176 0
v -1752 -1152 0
v -1728 -1152 0
v -1536 -1248 0
v -1560 -1248 0
v -1560 -1224 0
v -1536 -1224 0
v -1560 -1248 0
v -1584 -1248 0
v -1584 -1224 0
v -1560 -1224 0
v -1536 -1272 0
v -1560 -1272 0
v -1560 -1248 0
v -1536 -1248 0
v -1560 -1272 0
v -1584 -1272 0
v -1584 -1248 0
v -1560 -1248 0
v -1392 -1392 0
v -1416 -1392 0
v -1416 -1368 0
v -1392 -1368 0
v -1416 -1392 0
v -1440 -1392 0
v -1440 -1368 0
v -1416 -1368 0
v -1848 -1392 0
v -1872 -1392 0
v -1872 -1368 0
v -1848 -1368 0
v -1872 -1392 0
v -1896 -1392 0
v -1896 -1368 0
v -1872 -1368 0
v -1392 -1416 0
v -1416 -1416 0
v -1416 -1392 0
v -1392 -1392 0
v -1416 -1416 0
v -1440 -1416 0
v -1440 -1392 0
v -1416 -1392 0
v -1848 -1416 0
v -1872 -1416 0
v -1872 -1392 0
v -1848 -1392 0
v -1872 -1416 0
v -1896 -1416 0
v -1896 -1392 0
v -1872 -1392 0

# Texture cooridinates (Count = 18)
vt 0.75 0.9583333
vt 0.78125 0.9583333
vt 0.78125 1
vt 0.75 1
vt 0.8125 0.9583333
vt 0.8125 1
vt 0.75 0.9166667
vt 0.78125 0.9166667
vt 0.8125 0.9166667
vt 0.5 0.9583333
vt 0.53125 0.9583333
vt 0.53125 1
vt 0.5 1
vt 0.5625 0.9583333
vt 0.5625 1
vt 0.5 0.9166667
vt 0.53125 0.9166667
vt 0.5625 0.9166667

# Normal
vn 0 0 -1

# Mesh description
g SalleNSEW-SF_mesh_0002

# Faces
f 1/1/1 2/2/1 3/3/1 4/4/1
f 5/2/1 6/5/1 7/6/1 8/3/1
f 9/1/1 10/2/1 11/3/1 12/4/1
f 13/2/1 14/5/1 15/6/1 16/3/1
f 17/7/1 18/8/1 19/2/1 20/1/1
f 21/8/1 22/9/1 23/5/1 24/2/1
f 25/7/1 26/8/1 27/2/1 28/1/1
f 29/8/1 30/9/1 31/5/1 32/2/1
f 33/1/1 34/2/1 35/3/1 36/4/1
f 37/2/1 38/5/1 39/6/1 40/3/1
f 41/7/1 42/8/1 43/2/1 44/1/1
f 45/8/1 46/9/1 47/5/1 48/2/1
f 49/10/1 50/11/1 51/12/1 52/13/1
f 53/11/1 54/14/1 55/15/1 56/12/1
f 57/16/1 58/17/1 59/11/1 60/10/1
f 61/17/1 62/18/1 63/14/1 64/11/1
f 65/10/1 66/11/1 67/12/1 68/13/1
f 69/11/1 70/14/1 71/15/1 72/12/1
f 73/16/1 74/17/1 75/11/1 76/10/1
f 77/17/1 78/18/1 79/14/1 80/11/1
f 81/1/1 82/2/1 83/3/1 84/4/1
f 85/2/1 86/5/1 87/6/1 88/3/1
f 89/1/1 90/2/1 91/3/1 92/4/1
f 93/2/1 94/5/1 95/6/1 96/3/1
f 97/7/1 98/8/1 99/2/1 100/1/1
f 101/8/1 102/9/1 103/5/1 104/2/1
f 105/7/1 106/8/1 107/2/1 108/1/1
f 109/8/1 110/9/1 111/5/1 112/2/1

