# Tiled2Unity generated file. Do not modify by hand.
# Wavefront file for 'SalleNW-SF---SP_mesh_0003.obj'

# Vertices (Count = 160)
v -1488 -1008 0
v -1512 -1008 0
v -1512 -984 0
v -1488 -984 0
v -1512 -1008 0
v -1536 -1008 0
v -1536 -984 0
v -1512 -984 0
v -1776 -1008 0
v -1800 -1008 0
v -1800 -984 0
v -1776 -984 0
v -1800 -1008 0
v -1824 -1008 0
v -1824 -984 0
v -1800 -984 0
v -1488 -1032 0
v -1512 -1032 0
v -1512 -1008 0
v -1488 -1008 0
v -1512 -1032 0
v -1536 -1032 0
v -1536 -1008 0
v -1512 -1008 0
v -1776 -1032 0
v -1800 -1032 0
v -1800 -1008 0
v -1776 -1008 0
v -1800 -1032 0
v -1824 -1032 0
v -1824 -1008 0
v -1800 -1008 0
v -1488 -1056 0
v -1512 -1056 0
v -1512 -1032 0
v -1488 -1032 0
v -1512 -1056 0
v -1536 -1056 0
v -1536 -1032 0
v -1512 -1032 0
v -1776 -1056 0
v -1800 -1056 0
v -1800 -1032 0
v -1776 -1032 0
v -1800 -1056 0
v -1824 -1056 0
v -1824 -1032 0
v -1800 -1032 0
v -1488 -1080 0
v -1512 -1080 0
v -1512 -1056 0
v -1488 -1056 0
v -1512 -1080 0
v -1536 -1080 0
v -1536 -1056 0
v -1512 -1056 0
v -1776 -1080 0
v -1800 -1080 0
v -1800 -1056 0
v -1776 -1056 0
v -1800 -1080 0
v -1824 -1080 0
v -1824 -1056 0
v -1800 -1056 0
v -1488 -1104 0
v -1512 -1104 0
v -1512 -1080 0
v -1488 -1080 0
v -1512 -1104 0
v -1536 -1104 0
v -1536 -1080 0
v -1512 -1080 0
v -1776 -1104 0
v -1800 -1104 0
v -1800 -1080 0
v -1776 -1080 0
v -1800 -1104 0
v -1824 -1104 0
v -1824 -1080 0
v -1800 -1080 0
v -1488 -1128 0
v -1512 -1128 0
v -1512 -1104 0
v -1488 -1104 0
v -1512 -1128 0
v -1536 -1128 0
v -1536 -1104 0
v -1512 -1104 0
v -1776 -1128 0
v -1800 -1128 0
v -1800 -1104 0
v -1776 -1104 0
v -1800 -1128 0
v -1824 -1128 0
v -1824 -1104 0
v -1800 -1104 0
v -1776 -1200 0
v -1800 -1200 0
v -1800 -1176 0
v -1776 -1176 0
v -1800 -1200 0
v -1824 -1200 0
v -1824 -1176 0
v -1800 -1176 0
v -1776 -1224 0
v -1800 -1224 0
v -1800 -1200 0
v -1776 -1200 0
v -1800 -1224 0
v -1824 -1224 0
v -1824 -1200 0
v -1800 -1200 0
v -1776 -1248 0
v -1800 -1248 0
v -1800 -1224 0
v -1776 -1224 0
v -1800 -1248 0
v -1824 -1248 0
v -1824 -1224 0
v -1800 -1224 0
v -1776 -1272 0
v -1800 -1272 0
v -1800 -1248 0
v -1776 -1248 0
v -1800 -1272 0
v -1824 -1272 0
v -1824 -1248 0
v -1800 -1248 0
v -1488 -1296 0
v -1512 -1296 0
v -1512 -1272 0
v -1488 -1272 0
v -1512 -1296 0
v -1536 -1296 0
v -1536 -1272 0
v -1512 -1272 0
v -1776 -1296 0
v -1800 -1296 0
v -1800 -1272 0
v -1776 -1272 0
v -1800 -1296 0
v -1824 -1296 0
v -1824 -1272 0
v -1800 -1272 0
v -1488 -1320 0
v -1512 -1320 0
v -1512 -1296 0
v -1488 -1296 0
v -1512 -1320 0
v -1536 -1320 0
v -1536 -1296 0
v -1512 -1296 0
v -1776 -1320 0
v -1800 -1320 0
v -1800 -1296 0
v -1776 -1296 0
v -1800 -1320 0
v -1824 -1320 0
v -1824 -1296 0
v -1800 -1296 0

# Texture cooridinates (Count = 21)
vt 0.9375 0.78125
vt 0.96875 0.78125
vt 0.96875 0.8125
vt 0.9375 0.8125
vt 1 0.78125
vt 1 0.8125
vt 0.9375 0.75
vt 0.96875 0.75
vt 1 0.75
vt 0.9375 0.71875
vt 0.96875 0.71875
vt 1 0.71875
vt 0.9375 0.6875
vt 0.96875 0.6875
vt 1 0.6875
vt 0.9375 0.65625
vt 0.96875 0.65625
vt 1 0.65625
vt 0.9375 0.625
vt 0.96875 0.625
vt 1 0.625

# Normal
vn 0 0 -1

# Mesh description
g SalleNW-SF---SP_mesh_0003

# Faces
f 1/1/1 2/2/1 3/3/1 4/4/1
f 5/2/1 6/5/1 7/6/1 8/3/1
f 9/1/1 10/2/1 11/3/1 12/4/1
f 13/2/1 14/5/1 15/6/1 16/3/1
f 17/7/1 18/8/1 19/2/1 20/1/1
f 21/8/1 22/9/1 23/5/1 24/2/1
f 25/7/1 26/8/1 27/2/1 28/1/1
f 29/8/1 30/9/1 31/5/1 32/2/1
f 33/10/1 34/11/1 35/8/1 36/7/1
f 37/11/1 38/12/1 39/9/1 40/8/1
f 41/10/1 42/11/1 43/8/1 44/7/1
f 45/11/1 46/12/1 47/9/1 48/8/1
f 49/13/1 50/14/1 51/11/1 52/10/1
f 53/14/1 54/15/1 55/12/1 56/11/1
f 57/13/1 58/14/1 59/11/1 60/10/1
f 61/14/1 62/15/1 63/12/1 64/11/1
f 65/16/1 66/17/1 67/14/1 68/13/1
f 69/17/1 70/18/1 71/15/1 72/14/1
f 73/16/1 74/17/1 75/14/1 76/13/1
f 77/17/1 78/18/1 79/15/1 80/14/1
f 81/19/1 82/20/1 83/17/1 84/16/1
f 85/20/1 86/21/1 87/18/1 88/17/1
f 89/19/1 90/20/1 91/17/1 92/16/1
f 93/20/1 94/21/1 95/18/1 96/17/1
f 97/1/1 98/2/1 99/3/1 100/4/1
f 101/2/1 102/5/1 103/6/1 104/3/1
f 105/7/1 106/8/1 107/2/1 108/1/1
f 109/8/1 110/9/1 111/5/1 112/2/1
f 113/10/1 114/11/1 115/8/1 116/7/1
f 117/11/1 118/12/1 119/9/1 120/8/1
f 121/13/1 122/14/1 123/11/1 124/10/1
f 125/14/1 126/15/1 127/12/1 128/11/1
f 129/16/1 130/17/1 131/14/1 132/13/1
f 133/17/1 134/18/1 135/15/1 136/14/1
f 137/16/1 138/17/1 139/14/1 140/13/1
f 141/17/1 142/18/1 143/15/1 144/14/1
f 145/19/1 146/20/1 147/17/1 148/16/1
f 149/20/1 150/21/1 151/18/1 152/17/1
f 153/19/1 154/20/1 155/17/1 156/16/1
f 157/20/1 158/21/1 159/18/1 160/17/1

