# Tiled2Unity generated file. Do not modify by hand.
# Wavefront file for 'SalleNW-SF---SP_mesh_0004.obj'

# Vertices (Count = 96)
v -1560 -1296 0
v -1584 -1296 0
v -1584 -1272 0
v -1560 -1272 0
v -1584 -1296 0
v -1608 -1296 0
v -1608 -1272 0
v -1584 -1272 0
v -1608 -1296 0
v -1632 -1296 0
v -1632 -1272 0
v -1608 -1272 0
v -1632 -1296 0
v -1656 -1296 0
v -1656 -1272 0
v -1632 -1272 0
v -1656 -1296 0
v -1680 -1296 0
v -1680 -1272 0
v -1656 -1272 0
v -1680 -1296 0
v -1704 -1296 0
v -1704 -1272 0
v -1680 -1272 0
v -1704 -1296 0
v -1728 -1296 0
v -1728 -1272 0
v -1704 -1272 0
v -1728 -1296 0
v -1752 -1296 0
v -1752 -1272 0
v -1728 -1272 0
v -1560 -1320 0
v -1584 -1320 0
v -1584 -1296 0
v -1560 -1296 0
v -1584 -1320 0
v -1608 -1320 0
v -1608 -1296 0
v -1584 -1296 0
v -1608 -1320 0
v -1632 -1320 0
v -1632 -1296 0
v -1608 -1296 0
v -1632 -1320 0
v -1656 -1320 0
v -1656 -1296 0
v -1632 -1296 0
v -1656 -1320 0
v -1680 -1320 0
v -1680 -1296 0
v -1656 -1296 0
v -1680 -1320 0
v -1704 -1320 0
v -1704 -1296 0
v -1680 -1296 0
v -1704 -1320 0
v -1728 -1320 0
v -1728 -1296 0
v -1704 -1296 0
v -1728 -1320 0
v -1752 -1320 0
v -1752 -1296 0
v -1728 -1296 0
v -1560 -1344 0
v -1584 -1344 0
v -1584 -1320 0
v -1560 -1320 0
v -1584 -1344 0
v -1608 -1344 0
v -1608 -1320 0
v -1584 -1320 0
v -1608 -1344 0
v -1632 -1344 0
v -1632 -1320 0
v -1608 -1320 0
v -1632 -1344 0
v -1656 -1344 0
v -1656 -1320 0
v -1632 -1320 0
v -1656 -1344 0
v -1680 -1344 0
v -1680 -1320 0
v -1656 -1320 0
v -1680 -1344 0
v -1704 -1344 0
v -1704 -1320 0
v -1680 -1320 0
v -1704 -1344 0
v -1728 -1344 0
v -1728 -1320 0
v -1704 -1320 0
v -1728 -1344 0
v -1752 -1344 0
v -1752 -1320 0
v -1728 -1320 0

# Texture cooridinates (Count = 19)
vt 0.6875 0
vt 0.71875 0
vt 0.71875 0.03125
vt 0.6875 0.03125
vt 0.75 0
vt 0.75 0.03125
vt 0.78125 0
vt 0.78125 0.03125
vt 0.8125 0
vt 0.8125 0.03125
vt 0.5625 0.78125
vt 0.59375 0.78125
vt 0.59375 0.8125
vt 0.5625 0.8125
vt 0.625 0.78125
vt 0.625 0.8125
vt 0.5625 0.75
vt 0.59375 0.75
vt 0.625 0.75

# Normal
vn 0 0 -1

# Mesh description
g SalleNW-SF---SP_mesh_0004

# Faces
f 1/1/1 2/2/1 3/3/1 4/4/1
f 5/2/1 6/5/1 7/6/1 8/3/1
f 9/5/1 10/7/1 11/8/1 12/6/1
f 13/7/1 14/9/1 15/10/1 16/8/1
f 17/1/1 18/2/1 19/3/1 20/4/1
f 21/2/1 22/5/1 23/6/1 24/3/1
f 25/5/1 26/7/1 27/8/1 28/6/1
f 29/7/1 30/9/1 31/10/1 32/8/1
f 33/11/1 34/12/1 35/13/1 36/14/1
f 37/12/1 38/15/1 39/16/1 40/13/1
f 41/11/1 42/12/1 43/13/1 44/14/1
f 45/12/1 46/15/1 47/16/1 48/13/1
f 49/11/1 50/12/1 51/13/1 52/14/1
f 53/12/1 54/15/1 55/16/1 56/13/1
f 57/11/1 58/12/1 59/13/1 60/14/1
f 61/12/1 62/15/1 63/16/1 64/13/1
f 65/17/1 66/18/1 67/12/1 68/11/1
f 69/18/1 70/19/1 71/15/1 72/12/1
f 73/17/1 74/18/1 75/12/1 76/11/1
f 77/18/1 78/19/1 79/15/1 80/12/1
f 81/17/1 82/18/1 83/12/1 84/11/1
f 85/18/1 86/19/1 87/15/1 88/12/1
f 89/17/1 90/18/1 91/12/1 92/11/1
f 93/18/1 94/19/1 95/15/1 96/12/1

