# Tiled2Unity generated file. Do not modify by hand.
# Wavefront file for 'SalleE-Pilliers_mesh_0005.obj'

# Vertices (Count = 64)
v -1464 -1032 0
v -1488 -1032 0
v -1488 -1008 0
v -1464 -1008 0
v -1488 -1032 0
v -1512 -1032 0
v -1512 -1008 0
v -1488 -1008 0
v -1800 -1032 0
v -1824 -1032 0
v -1824 -1008 0
v -1800 -1008 0
v -1824 -1032 0
v -1848 -1032 0
v -1848 -1008 0
v -1824 -1008 0
v -1464 -1056 0
v -1488 -1056 0
v -1488 -1032 0
v -1464 -1032 0
v -1488 -1056 0
v -1512 -1056 0
v -1512 -1032 0
v -1488 -1032 0
v -1800 -1056 0
v -1824 -1056 0
v -1824 -1032 0
v -1800 -1032 0
v -1824 -1056 0
v -1848 -1056 0
v -1848 -1032 0
v -1824 -1032 0
v -1464 -1224 0
v -1488 -1224 0
v -1488 -1200 0
v -1464 -1200 0
v -1488 -1224 0
v -1512 -1224 0
v -1512 -1200 0
v -1488 -1200 0
v -1800 -1224 0
v -1824 -1224 0
v -1824 -1200 0
v -1800 -1200 0
v -1824 -1224 0
v -1848 -1224 0
v -1848 -1200 0
v -1824 -1200 0
v -1464 -1248 0
v -1488 -1248 0
v -1488 -1224 0
v -1464 -1224 0
v -1488 -1248 0
v -1512 -1248 0
v -1512 -1224 0
v -1488 -1224 0
v -1800 -1248 0
v -1824 -1248 0
v -1824 -1224 0
v -1800 -1224 0
v -1824 -1248 0
v -1848 -1248 0
v -1848 -1224 0
v -1824 -1224 0

# Texture cooridinates (Count = 9)
vt 0.0625 0.46875
vt 0.09375 0.46875
vt 0.09375 0.5
vt 0.0625 0.5
vt 0.125 0.46875
vt 0.125 0.5
vt 0.0625 0.4375
vt 0.09375 0.4375
vt 0.125 0.4375

# Normal
vn 0 0 -1

# Mesh description
g SalleE-Pilliers_mesh_0005

# Faces
f 1/1/1 2/2/1 3/3/1 4/4/1
f 5/2/1 6/5/1 7/6/1 8/3/1
f 9/1/1 10/2/1 11/3/1 12/4/1
f 13/2/1 14/5/1 15/6/1 16/3/1
f 17/7/1 18/8/1 19/2/1 20/1/1
f 21/8/1 22/9/1 23/5/1 24/2/1
f 25/7/1 26/8/1 27/2/1 28/1/1
f 29/8/1 30/9/1 31/5/1 32/2/1
f 33/1/1 34/2/1 35/3/1 36/4/1
f 37/2/1 38/5/1 39/6/1 40/3/1
f 41/1/1 42/2/1 43/3/1 44/4/1
f 45/2/1 46/5/1 47/6/1 48/3/1
f 49/7/1 50/8/1 51/2/1 52/1/1
f 53/8/1 54/9/1 55/5/1 56/2/1
f 57/7/1 58/8/1 59/2/1 60/1/1
f 61/8/1 62/9/1 63/5/1 64/2/1

