# Tiled2Unity generated file. Do not modify by hand.
# Wavefront file for 'SalleE-Pilliers_mesh_0003.obj'

# Vertices (Count = 184)
v -1464 -1080 0
v -1488 -1080 0
v -1488 -1056 0
v -1464 -1056 0
v -1488 -1080 0
v -1512 -1080 0
v -1512 -1056 0
v -1488 -1056 0
v -1704 -1080 0
v -1728 -1080 0
v -1728 -1056 0
v -1704 -1056 0
v -1728 -1080 0
v -1752 -1080 0
v -1752 -1056 0
v -1728 -1056 0
v -1800 -1080 0
v -1824 -1080 0
v -1824 -1056 0
v -1800 -1056 0
v -1824 -1080 0
v -1848 -1080 0
v -1848 -1056 0
v -1824 -1056 0
v -1464 -1104 0
v -1488 -1104 0
v -1488 -1080 0
v -1464 -1080 0
v -1488 -1104 0
v -1512 -1104 0
v -1512 -1080 0
v -1488 -1080 0
v -1704 -1104 0
v -1728 -1104 0
v -1728 -1080 0
v -1704 -1080 0
v -1728 -1104 0
v -1752 -1104 0
v -1752 -1080 0
v -1728 -1080 0
v -1800 -1104 0
v -1824 -1104 0
v -1824 -1080 0
v -1800 -1080 0
v -1824 -1104 0
v -1848 -1104 0
v -1848 -1080 0
v -1824 -1080 0
v -1656 -1152 0
v -1680 -1152 0
v -1680 -1128 0
v -1656 -1128 0
v -1680 -1152 0
v -1704 -1152 0
v -1704 -1128 0
v -1680 -1128 0
v -1704 -1152 0
v -1728 -1152 0
v -1728 -1128 0
v -1704 -1128 0
v -1464 -1176 0
v -1488 -1176 0
v -1488 -1152 0
v -1464 -1152 0
v -1488 -1176 0
v -1512 -1176 0
v -1512 -1152 0
v -1488 -1152 0
v -1656 -1176 0
v -1680 -1176 0
v -1680 -1152 0
v -1656 -1152 0
v -1680 -1176 0
v -1704 -1176 0
v -1704 -1152 0
v -1680 -1152 0
v -1704 -1176 0
v -1728 -1176 0
v -1728 -1152 0
v -1704 -1152 0
v -1464 -1200 0
v -1488 -1200 0
v -1488 -1176 0
v -1464 -1176 0
v -1488 -1200 0
v -1512 -1200 0
v -1512 -1176 0
v -1488 -1176 0
v -1464 -1272 0
v -1488 -1272 0
v -1488 -1248 0
v -1464 -1248 0
v -1488 -1272 0
v -1512 -1272 0
v -1512 -1248 0
v -1488 -1248 0
v -1608 -1272 0
v -1632 -1272 0
v -1632 -1248 0
v -1608 -1248 0
v -1632 -1272 0
v -1656 -1272 0
v -1656 -1248 0
v -1632 -1248 0
v -1800 -1272 0
v -1824 -1272 0
v -1824 -1248 0
v -1800 -1248 0
v -1824 -1272 0
v -1848 -1272 0
v -1848 -1248 0
v -1824 -1248 0
v -1464 -1296 0
v -1488 -1296 0
v -1488 -1272 0
v -1464 -1272 0
v -1488 -1296 0
v -1512 -1296 0
v -1512 -1272 0
v -1488 -1272 0
v -1560 -1296 0
v -1584 -1296 0
v -1584 -1272 0
v -1560 -1272 0
v -1584 -1296 0
v -1608 -1296 0
v -1608 -1272 0
v -1584 -1272 0
v -1608 -1296 0
v -1632 -1296 0
v -1632 -1272 0
v -1608 -1272 0
v -1632 -1296 0
v -1656 -1296 0
v -1656 -1272 0
v -1632 -1272 0
v -1800 -1296 0
v -1824 -1296 0
v -1824 -1272 0
v -1800 -1272 0
v -1824 -1296 0
v -1848 -1296 0
v -1848 -1272 0
v -1824 -1272 0
v -1416 -1320 0
v -1440 -1320 0
v -1440 -1296 0
v -1416 -1296 0
v -1440 -1320 0
v -1464 -1320 0
v -1464 -1296 0
v -1440 -1296 0
v -1560 -1320 0
v -1584 -1320 0
v -1584 -1296 0
v -1560 -1296 0
v -1584 -1320 0
v -1608 -1320 0
v -1608 -1296 0
v -1584 -1296 0
v -1848 -1320 0
v -1872 -1320 0
v -1872 -1296 0
v -1848 -1296 0
v -1872 -1320 0
v -1896 -1320 0
v -1896 -1296 0
v -1872 -1296 0
v -1416 -1344 0
v -1440 -1344 0
v -1440 -1320 0
v -1416 -1320 0
v -1440 -1344 0
v -1464 -1344 0
v -1464 -1320 0
v -1440 -1320 0
v -1848 -1344 0
v -1872 -1344 0
v -1872 -1320 0
v -1848 -1320 0
v -1872 -1344 0
v -1896 -1344 0
v -1896 -1320 0
v -1872 -1320 0

# Texture cooridinates (Count = 18)
vt 0.0625 0.40625
vt 0.09375 0.40625
vt 0.09375 0.4375
vt 0.0625 0.4375
vt 0.125 0.40625
vt 0.125 0.4375
vt 0.0625 0.59375
vt 0.09375 0.59375
vt 0.09375 0.625
vt 0.0625 0.625
vt 0.125 0.59375
vt 0.125 0.625
vt 0.0625 0.375
vt 0.09375 0.375
vt 0.125 0.375
vt 0.0625 0.5625
vt 0.09375 0.5625
vt 0.125 0.5625

# Normal
vn 0 0 -1

# Mesh description
g SalleE-Pilliers_mesh_0003

# Faces
f 1/1/1 2/2/1 3/3/1 4/4/1
f 5/2/1 6/5/1 7/6/1 8/3/1
f 9/7/1 10/8/1 11/9/1 12/10/1
f 13/8/1 14/11/1 15/12/1 16/9/1
f 17/1/1 18/2/1 19/3/1 20/4/1
f 21/2/1 22/5/1 23/6/1 24/3/1
f 25/13/1 26/14/1 27/2/1 28/1/1
f 29/14/1 30/15/1 31/5/1 32/2/1
f 33/16/1 34/17/1 35/8/1 36/7/1
f 37/17/1 38/18/1 39/11/1 40/8/1
f 41/13/1 42/14/1 43/2/1 44/1/1
f 45/14/1 46/15/1 47/5/1 48/2/1
f 49/7/1 50/8/1 51/9/1 52/10/1
f 53/7/1 54/8/1 55/9/1 56/10/1
f 57/8/1 58/11/1 59/12/1 60/9/1
f 61/7/1 62/8/1 63/9/1 64/10/1
f 65/8/1 66/11/1 67/12/1 68/9/1
f 69/16/1 70/17/1 71/8/1 72/7/1
f 73/16/1 74/17/1 75/8/1 76/7/1
f 77/17/1 78/18/1 79/11/1 80/8/1
f 81/16/1 82/17/1 83/8/1 84/7/1
f 85/17/1 86/18/1 87/11/1 88/8/1
f 89/1/1 90/2/1 91/3/1 92/4/1
f 93/2/1 94/5/1 95/6/1 96/3/1
f 97/7/1 98/8/1 99/9/1 100/10/1
f 101/8/1 102/11/1 103/12/1 104/9/1
f 105/1/1 106/2/1 107/3/1 108/4/1
f 109/2/1 110/5/1 111/6/1 112/3/1
f 113/13/1 114/14/1 115/2/1 116/1/1
f 117/14/1 118/15/1 119/5/1 120/2/1
f 121/7/1 122/8/1 123/9/1 124/10/1
f 125/8/1 126/11/1 127/12/1 128/9/1
f 129/16/1 130/17/1 131/8/1 132/7/1
f 133/17/1 134/18/1 135/11/1 136/8/1
f 137/13/1 138/14/1 139/2/1 140/1/1
f 141/14/1 142/15/1 143/5/1 144/2/1
f 145/7/1 146/8/1 147/9/1 148/10/1
f 149/8/1 150/11/1 151/12/1 152/9/1
f 153/16/1 154/17/1 155/8/1 156/7/1
f 157/17/1 158/18/1 159/11/1 160/8/1
f 161/7/1 162/8/1 163/9/1 164/10/1
f 165/8/1 166/11/1 167/12/1 168/9/1
f 169/16/1 170/17/1 171/8/1 172/7/1
f 173/17/1 174/18/1 175/11/1 176/8/1
f 177/16/1 178/17/1 179/8/1 180/7/1
f 181/17/1 182/18/1 183/11/1 184/8/1

