# Tiled2Unity generated file. Do not modify by hand.
# Wavefront file for 'SalleMarchand_mesh_0003.obj'

# Vertices (Count = 112)
v -1440 -984 0
v -1464 -984 0
v -1464 -960 0
v -1440 -960 0
v -1464 -984 0
v -1488 -984 0
v -1488 -960 0
v -1464 -960 0
v -1488 -984 0
v -1512 -984 0
v -1512 -960 0
v -1488 -960 0
v -1512 -984 0
v -1536 -984 0
v -1536 -960 0
v -1512 -960 0
v -1440 -1008 0
v -1464 -1008 0
v -1464 -984 0
v -1440 -984 0
v -1464 -1008 0
v -1488 -1008 0
v -1488 -984 0
v -1464 -984 0
v -1488 -1008 0
v -1512 -1008 0
v -1512 -984 0
v -1488 -984 0
v -1512 -1008 0
v -1536 -1008 0
v -1536 -984 0
v -1512 -984 0
v -1776 -1008 0
v -1800 -1008 0
v -1800 -984 0
v -1776 -984 0
v -1800 -1008 0
v -1824 -1008 0
v -1824 -984 0
v -1800 -984 0
v -1824 -1008 0
v -1848 -1008 0
v -1848 -984 0
v -1824 -984 0
v -1848 -1008 0
v -1872 -1008 0
v -1872 -984 0
v -1848 -984 0
v -1440 -1032 0
v -1464 -1032 0
v -1464 -1008 0
v -1440 -1008 0
v -1464 -1032 0
v -1488 -1032 0
v -1488 -1008 0
v -1464 -1008 0
v -1488 -1032 0
v -1512 -1032 0
v -1512 -1008 0
v -1488 -1008 0
v -1512 -1032 0
v -1536 -1032 0
v -1536 -1008 0
v -1512 -1008 0
v -1776 -1032 0
v -1800 -1032 0
v -1800 -1008 0
v -1776 -1008 0
v -1800 -1032 0
v -1824 -1032 0
v -1824 -1008 0
v -1800 -1008 0
v -1824 -1032 0
v -1848 -1032 0
v -1848 -1008 0
v -1824 -1008 0
v -1848 -1032 0
v -1872 -1032 0
v -1872 -1008 0
v -1848 -1008 0
v -1440 -1056 0
v -1464 -1056 0
v -1464 -1032 0
v -1440 -1032 0
v -1464 -1056 0
v -1488 -1056 0
v -1488 -1032 0
v -1464 -1032 0
v -1488 -1056 0
v -1512 -1056 0
v -1512 -1032 0
v -1488 -1032 0
v -1512 -1056 0
v -1536 -1056 0
v -1536 -1032 0
v -1512 -1032 0
v -1776 -1056 0
v -1800 -1056 0
v -1800 -1032 0
v -1776 -1032 0
v -1800 -1056 0
v -1824 -1056 0
v -1824 -1032 0
v -1800 -1032 0
v -1824 -1056 0
v -1848 -1056 0
v -1848 -1032 0
v -1824 -1032 0
v -1848 -1056 0
v -1872 -1056 0
v -1872 -1032 0
v -1848 -1032 0

# Texture cooridinates (Count = 50)
vt 0.6875 0.59375
vt 0.71875 0.59375
vt 0.71875 0.625
vt 0.6875 0.625
vt 0.75 0.59375
vt 0.75 0.625
vt 0.5625 0.46875
vt 0.59375 0.46875
vt 0.59375 0.5
vt 0.5625 0.5
vt 0.625 0.46875
vt 0.625 0.5
vt 0.6875 0.5625
vt 0.71875 0.5625
vt 0.75 0.5625
vt 0.5625 0.4375
vt 0.59375 0.4375
vt 0.625 0.4375
vt 0.75 0.21875
vt 0.78125 0.21875
vt 0.78125 0.25
vt 0.75 0.25
vt 0.8125 0.21875
vt 0.8125 0.25
vt 0.84375 0.21875
vt 0.84375 0.25
vt 0.875 0.21875
vt 0.875 0.25
vt 0.6875 0.53125
vt 0.71875 0.53125
vt 0.75 0.53125
vt 0.5625 0.40625
vt 0.59375 0.40625
vt 0.625 0.40625
vt 0.75 0.1875
vt 0.78125 0.1875
vt 0.8125 0.1875
vt 0.84375 0.1875
vt 0.875 0.1875
vt 0.6875 0.5
vt 0.71875 0.5
vt 0.75 0.5
vt 0.5625 0.375
vt 0.59375 0.375
vt 0.625 0.375
vt 0.75 0.15625
vt 0.78125 0.15625
vt 0.8125 0.15625
vt 0.84375 0.15625
vt 0.875 0.15625

# Normal
vn 0 0 -1

# Mesh description
g SalleMarchand_mesh_0003

# Faces
f 1/1/1 2/2/1 3/3/1 4/4/1
f 5/2/1 6/5/1 7/6/1 8/3/1
f 9/7/1 10/8/1 11/9/1 12/10/1
f 13/8/1 14/11/1 15/12/1 16/9/1
f 17/13/1 18/14/1 19/2/1 20/1/1
f 21/14/1 22/15/1 23/5/1 24/2/1
f 25/16/1 26/17/1 27/8/1 28/7/1
f 29/17/1 30/18/1 31/11/1 32/8/1
f 33/19/1 34/20/1 35/21/1 36/22/1
f 37/20/1 38/23/1 39/24/1 40/21/1
f 41/23/1 42/25/1 43/26/1 44/24/1
f 45/25/1 46/27/1 47/28/1 48/26/1
f 49/29/1 50/30/1 51/14/1 52/13/1
f 53/30/1 54/31/1 55/15/1 56/14/1
f 57/32/1 58/33/1 59/17/1 60/16/1
f 61/33/1 62/34/1 63/18/1 64/17/1
f 65/35/1 66/36/1 67/20/1 68/19/1
f 69/36/1 70/37/1 71/23/1 72/20/1
f 73/37/1 74/38/1 75/25/1 76/23/1
f 77/38/1 78/39/1 79/27/1 80/25/1
f 81/40/1 82/41/1 83/30/1 84/29/1
f 85/41/1 86/42/1 87/31/1 88/30/1
f 89/43/1 90/44/1 91/33/1 92/32/1
f 93/44/1 94/45/1 95/34/1 96/33/1
f 97/46/1 98/47/1 99/36/1 100/35/1
f 101/47/1 102/48/1 103/37/1 104/36/1
f 105/48/1 106/49/1 107/38/1 108/37/1
f 109/49/1 110/50/1 111/39/1 112/38/1

