# Tiled2Unity generated file. Do not modify by hand.
# Wavefront file for 'SalleMarchand_mesh_0006.obj'

# Vertices (Count = 96)
v -1584 -1008 0
v -1608 -1008 0
v -1608 -984 0
v -1584 -984 0
v -1608 -1008 0
v -1632 -1008 0
v -1632 -984 0
v -1608 -984 0
v -1632 -1008 0
v -1656 -1008 0
v -1656 -984 0
v -1632 -984 0
v -1656 -1008 0
v -1680 -1008 0
v -1680 -984 0
v -1656 -984 0
v -1680 -1008 0
v -1704 -1008 0
v -1704 -984 0
v -1680 -984 0
v -1704 -1008 0
v -1728 -1008 0
v -1728 -984 0
v -1704 -984 0
v -1632 -1056 0
v -1656 -1056 0
v -1656 -1032 0
v -1632 -1032 0
v -1656 -1056 0
v -1680 -1056 0
v -1680 -1032 0
v -1656 -1032 0
v -1632 -1080 0
v -1656 -1080 0
v -1656 -1056 0
v -1632 -1056 0
v -1656 -1080 0
v -1680 -1080 0
v -1680 -1056 0
v -1656 -1056 0
v -1920 -1128 0
v -1944 -1128 0
v -1944 -1104 0
v -1920 -1104 0
v -1944 -1128 0
v -1968 -1128 0
v -1968 -1104 0
v -1944 -1104 0
v -1968 -1128 0
v -1992 -1128 0
v -1992 -1104 0
v -1968 -1104 0
v -1992 -1128 0
v -2016 -1128 0
v -2016 -1104 0
v -1992 -1104 0
v -1920 -1152 0
v -1944 -1152 0
v -1944 -1128 0
v -1920 -1128 0
v -1944 -1152 0
v -1968 -1152 0
v -1968 -1128 0
v -1944 -1128 0
v -1968 -1152 0
v -1992 -1152 0
v -1992 -1128 0
v -1968 -1128 0
v -1992 -1152 0
v -2016 -1152 0
v -2016 -1128 0
v -1992 -1128 0
v -1416 -1320 0
v -1440 -1320 0
v -1440 -1296 0
v -1416 -1296 0
v -1440 -1320 0
v -1464 -1320 0
v -1464 -1296 0
v -1440 -1296 0
v -1824 -1320 0
v -1848 -1320 0
v -1848 -1296 0
v -1824 -1296 0
v -1848 -1320 0
v -1872 -1320 0
v -1872 -1296 0
v -1848 -1296 0
v -1416 -1344 0
v -1440 -1344 0
v -1440 -1320 0
v -1416 -1320 0
v -1440 -1344 0
v -1464 -1344 0
v -1464 -1320 0
v -1440 -1320 0

# Texture cooridinates (Count = 53)
vt 0.5 0.46875
vt 0.53125 0.46875
vt 0.53125 0.5
vt 0.5 0.5
vt 0.5625 0.46875
vt 0.5625 0.5
vt 0.625 0.46875
vt 0.65625 0.46875
vt 0.65625 0.5
vt 0.625 0.5
vt 0.6875 0.46875
vt 0.6875 0.5
vt 0.59375 0.46875
vt 0.59375 0.5
vt 0.125 0.15625
vt 0.15625 0.15625
vt 0.15625 0.1875
vt 0.125 0.1875
vt 0.1875 0.15625
vt 0.1875 0.1875
vt 0.125 0.125
vt 0.15625 0.125
vt 0.1875 0.125
vt 0.75 0.71875
vt 0.78125 0.71875
vt 0.78125 0.75
vt 0.75 0.75
vt 0.8125 0.71875
vt 0.8125 0.75
vt 0.84375 0.71875
vt 0.84375 0.75
vt 0.875 0.71875
vt 0.875 0.75
vt 0.75 0.6875
vt 0.78125 0.6875
vt 0.8125 0.6875
vt 0.84375 0.6875
vt 0.875 0.6875
vt 0.5625 0.40625
vt 0.59375 0.40625
vt 0.59375 0.4375
vt 0.5625 0.4375
vt 0.625 0.40625
vt 0.625 0.4375
vt 0.5625 0.3125
vt 0.59375 0.3125
vt 0.59375 0.34375
vt 0.5625 0.34375
vt 0.625 0.3125
vt 0.625 0.34375
vt 0.5625 0.375
vt 0.59375 0.375
vt 0.625 0.375

# Normal
vn 0 0 -1

# Mesh description
g SalleMarchand_mesh_0006

# Faces
f 1/1/1 2/2/1 3/3/1 4/4/1
f 5/2/1 6/5/1 7/6/1 8/3/1
f 9/7/1 10/8/1 11/9/1 12/10/1
f 13/8/1 14/11/1 15/12/1 16/9/1
f 17/5/1 18/13/1 19/14/1 20/6/1
f 21/13/1 22/7/1 23/10/1 24/14/1
f 25/15/1 26/16/1 27/17/1 28/18/1
f 29/16/1 30/19/1 31/20/1 32/17/1
f 33/21/1 34/22/1 35/16/1 36/15/1
f 37/22/1 38/23/1 39/19/1 40/16/1
f 41/24/1 42/25/1 43/26/1 44/27/1
f 45/25/1 46/28/1 47/29/1 48/26/1
f 49/28/1 50/30/1 51/31/1 52/29/1
f 53/30/1 54/32/1 55/33/1 56/31/1
f 57/34/1 58/35/1 59/25/1 60/24/1
f 61/35/1 62/36/1 63/28/1 64/25/1
f 65/36/1 66/37/1 67/30/1 68/28/1
f 69/37/1 70/38/1 71/32/1 72/30/1
f 73/39/1 74/40/1 75/41/1 76/42/1
f 77/40/1 78/43/1 79/44/1 80/41/1
f 81/45/1 82/46/1 83/47/1 84/48/1
f 85/46/1 86/49/1 87/50/1 88/47/1
f 89/51/1 90/52/1 91/40/1 92/39/1
f 93/52/1 94/53/1 95/43/1 96/40/1

