# Tiled2Unity generated file. Do not modify by hand.
# Wavefront file for 'SalleMarchand_mesh_0010.obj'

# Vertices (Count = 24)
v -1416 -1296 0
v -1440 -1296 0
v -1440 -1272 0
v -1416 -1272 0
v -1440 -1296 0
v -1464 -1296 0
v -1464 -1272 0
v -1440 -1272 0
v -1824 -1296 0
v -1848 -1296 0
v -1848 -1272 0
v -1824 -1272 0
v -1848 -1296 0
v -1872 -1296 0
v -1872 -1272 0
v -1848 -1272 0
v -1800 -1320 0
v -1824 -1320 0
v -1824 -1296 0
v -1800 -1296 0
v -1872 -1320 0
v -1896 -1320 0
v -1896 -1296 0
v -1872 -1296 0

# Texture cooridinates (Count = 12)
vt 0.5625 0.40625
vt 0.59375 0.40625
vt 0.59375 0.4375
vt 0.5625 0.4375
vt 0.625 0.40625
vt 0.625 0.4375
vt 0.5625 0.34375
vt 0.59375 0.34375
vt 0.59375 0.375
vt 0.5625 0.375
vt 0.625 0.34375
vt 0.625 0.375

# Normal
vn 0 0 -1

# Mesh description
g SalleMarchand_mesh_0010

# Faces
f 1/1/1 2/2/1 3/3/1 4/4/1
f 5/2/1 6/5/1 7/6/1 8/3/1
f 9/7/1 10/8/1 11/9/1 12/10/1
f 13/8/1 14/11/1 15/12/1 16/9/1
f 17/7/1 18/8/1 19/9/1 20/10/1
f 21/8/1 22/11/1 23/12/1 24/9/1

