# Tiled2Unity generated file. Do not modify by hand.
# Wavefront file for 'SalleMarchand_mesh_0007.obj'

# Vertices (Count = 184)
v -1536 -1032 0
v -1560 -1032 0
v -1560 -1008 0
v -1536 -1008 0
v -1560 -1032 0
v -1584 -1032 0
v -1584 -1008 0
v -1560 -1008 0
v -1584 -1032 0
v -1608 -1032 0
v -1608 -1008 0
v -1584 -1008 0
v -1608 -1032 0
v -1632 -1032 0
v -1632 -1008 0
v -1608 -1008 0
v -1632 -1032 0
v -1656 -1032 0
v -1656 -1008 0
v -1632 -1008 0
v -1656 -1032 0
v -1680 -1032 0
v -1680 -1008 0
v -1656 -1008 0
v -1680 -1032 0
v -1704 -1032 0
v -1704 -1008 0
v -1680 -1008 0
v -1704 -1032 0
v -1728 -1032 0
v -1728 -1008 0
v -1704 -1008 0
v -1536 -1056 0
v -1560 -1056 0
v -1560 -1032 0
v -1536 -1032 0
v -1560 -1056 0
v -1584 -1056 0
v -1584 -1032 0
v -1560 -1032 0
v -1776 -1056 0
v -1800 -1056 0
v -1800 -1032 0
v -1776 -1032 0
v -1800 -1056 0
v -1824 -1056 0
v -1824 -1032 0
v -1800 -1032 0
v -1824 -1056 0
v -1848 -1056 0
v -1848 -1032 0
v -1824 -1032 0
v -1848 -1056 0
v -1872 -1056 0
v -1872 -1032 0
v -1848 -1032 0
v -1536 -1080 0
v -1560 -1080 0
v -1560 -1056 0
v -1536 -1056 0
v -1560 -1080 0
v -1584 -1080 0
v -1584 -1056 0
v -1560 -1056 0
v -1584 -1080 0
v -1608 -1080 0
v -1608 -1056 0
v -1584 -1056 0
v -1608 -1080 0
v -1632 -1080 0
v -1632 -1056 0
v -1608 -1056 0
v -1680 -1080 0
v -1704 -1080 0
v -1704 -1056 0
v -1680 -1056 0
v -1704 -1080 0
v -1728 -1080 0
v -1728 -1056 0
v -1704 -1056 0
v -1776 -1080 0
v -1800 -1080 0
v -1800 -1056 0
v -1776 -1056 0
v -1800 -1080 0
v -1824 -1080 0
v -1824 -1056 0
v -1800 -1056 0
v -1824 -1080 0
v -1848 -1080 0
v -1848 -1056 0
v -1824 -1056 0
v -1848 -1080 0
v -1872 -1080 0
v -1872 -1056 0
v -1848 -1056 0
v -1536 -1104 0
v -1560 -1104 0
v -1560 -1080 0
v -1536 -1080 0
v -1560 -1104 0
v -1584 -1104 0
v -1584 -1080 0
v -1560 -1080 0
v -1584 -1104 0
v -1608 -1104 0
v -1608 -1080 0
v -1584 -1080 0
v -1608 -1104 0
v -1632 -1104 0
v -1632 -1080 0
v -1608 -1080 0
v -1680 -1104 0
v -1704 -1104 0
v -1704 -1080 0
v -1680 -1080 0
v -1704 -1104 0
v -1728 -1104 0
v -1728 -1080 0
v -1704 -1080 0
v -1296 -1128 0
v -1320 -1128 0
v -1320 -1104 0
v -1296 -1104 0
v -1320 -1128 0
v -1344 -1128 0
v -1344 -1104 0
v -1320 -1104 0
v -1344 -1128 0
v -1368 -1128 0
v -1368 -1104 0
v -1344 -1104 0
v -1368 -1128 0
v -1392 -1128 0
v -1392 -1104 0
v -1368 -1104 0
v -1296 -1152 0
v -1320 -1152 0
v -1320 -1128 0
v -1296 -1128 0
v -1320 -1152 0
v -1344 -1152 0
v -1344 -1128 0
v -1320 -1128 0
v -1344 -1152 0
v -1368 -1152 0
v -1368 -1128 0
v -1344 -1128 0
v -1368 -1152 0
v -1392 -1152 0
v -1392 -1128 0
v -1368 -1128 0
v -1536 -1272 0
v -1560 -1272 0
v -1560 -1248 0
v -1536 -1248 0
v -1560 -1272 0
v -1584 -1272 0
v -1584 -1248 0
v -1560 -1248 0
v -1584 -1272 0
v -1608 -1272 0
v -1608 -1248 0
v -1584 -1248 0
v -1608 -1272 0
v -1632 -1272 0
v -1632 -1248 0
v -1608 -1248 0
v -1656 -1272 0
v -1680 -1272 0
v -1680 -1248 0
v -1656 -1248 0
v -1680 -1272 0
v -1704 -1272 0
v -1704 -1248 0
v -1680 -1248 0
v -1704 -1272 0
v -1728 -1272 0
v -1728 -1248 0
v -1704 -1248 0
v -1728 -1272 0
v -1752 -1272 0
v -1752 -1248 0
v -1728 -1248 0

# Texture cooridinates (Count = 99)
vt 0.5 0.84375
vt 0.53125 0.84375
vt 0.53125 0.875
vt 0.5 0.875
vt 0.5625 0.84375
vt 0.5625 0.875
vt 0.625 0.875
vt 0.65625 0.875
vt 0.65625 0.90625
vt 0.625 0.90625
vt 0.6875 0.875
vt 0.6875 0.90625
vt 0.625 0.9375
vt 0.65625 0.9375
vt 0.65625 0.96875
vt 0.625 0.96875
vt 0.6875 0.9375
vt 0.6875 0.96875
vt 0.5625 0.9375
vt 0.59375 0.9375
vt 0.59375 0.96875
vt 0.5625 0.96875
vt 0.5 0.8125
vt 0.53125 0.8125
vt 0.5625 0.8125
vt 0.8125 0.71875
vt 0.84375 0.71875
vt 0.84375 0.75
vt 0.8125 0.75
vt 0.875 0.71875
vt 0.875 0.75
vt 0.75 0.71875
vt 0.78125 0.71875
vt 0.78125 0.75
vt 0.75 0.75
vt 0.5625 0.78125
vt 0.59375 0.78125
vt 0.59375 0.8125
vt 0.625 0.78125
vt 0.625 0.8125
vt 0.4375 0.21875
vt 0.46875 0.21875
vt 0.46875 0.25
vt 0.4375 0.25
vt 0.5 0.21875
vt 0.5 0.25
vt 0.375 0.21875
vt 0.40625 0.21875
vt 0.40625 0.25
vt 0.375 0.25
vt 0.8125 0.6875
vt 0.84375 0.6875
vt 0.875 0.6875
vt 0.75 0.6875
vt 0.78125 0.6875
vt 0.5625 0.75
vt 0.59375 0.75
vt 0.625 0.75
vt 0.4375 0.1875
vt 0.46875 0.1875
vt 0.5 0.1875
vt 0.375 0.1875
vt 0.40625 0.1875
vt 0.75 0.96875
vt 0.78125 0.96875
vt 0.78125 1
vt 0.75 1
vt 0.8125 0.96875
vt 0.8125 1
vt 0.84375 0.96875
vt 0.84375 1
vt 0.875 0.96875
vt 0.875 1
vt 0.75 0.9375
vt 0.78125 0.9375
vt 0.8125 0.9375
vt 0.84375 0.9375
vt 0.875 0.9375
vt 0.9375 0.9375
vt 0.96875 0.9375
vt 0.96875 0.96875
vt 0.9375 0.96875
vt 1 0.9375
vt 1 0.96875
vt 0.1875 0.3125
vt 0.21875 0.3125
vt 0.21875 0.34375
vt 0.1875 0.34375
vt 0.25 0.3125
vt 0.25 0.34375
vt 0.84375 0.78125
vt 0.8125 0.78125
vt 0.875 0.78125
vt 0.6875 0.8125
vt 0.71875 0.8125
vt 0.71875 0.84375
vt 0.6875 0.84375
vt 0.75 0.8125
vt 0.75 0.84375

# Normal
vn 0 0 -1

# Mesh description
g SalleMarchand_mesh_0007

# Faces
f 1/1/1 2/2/1 3/3/1 4/4/1
f 5/2/1 6/5/1 7/6/1 8/3/1
f 9/7/1 10/8/1 11/9/1 12/10/1
f 13/8/1 14/11/1 15/12/1 16/9/1
f 17/13/1 18/14/1 19/15/1 20/16/1
f 21/14/1 22/17/1 23/18/1 24/15/1
f 25/19/1 26/20/1 27/21/1 28/22/1
f 29/20/1 30/13/1 31/16/1 32/21/1
f 33/23/1 34/24/1 35/2/1 36/1/1
f 37/24/1 38/25/1 39/5/1 40/2/1
f 41/26/1 42/27/1 43/28/1 44/29/1
f 45/27/1 46/30/1 47/31/1 48/28/1
f 49/32/1 50/33/1 51/34/1 52/35/1
f 53/33/1 54/26/1 55/29/1 56/34/1
f 57/36/1 58/37/1 59/38/1 60/25/1
f 61/37/1 62/39/1 63/40/1 64/38/1
f 65/41/1 66/42/1 67/43/1 68/44/1
f 69/42/1 70/45/1 71/46/1 72/43/1
f 73/47/1 74/48/1 75/49/1 76/50/1
f 77/48/1 78/41/1 79/44/1 80/49/1
f 81/51/1 82/52/1 83/27/1 84/26/1
f 85/52/1 86/53/1 87/30/1 88/27/1
f 89/54/1 90/55/1 91/33/1 92/32/1
f 93/55/1 94/51/1 95/26/1 96/33/1
f 97/56/1 98/57/1 99/37/1 100/36/1
f 101/57/1 102/58/1 103/39/1 104/37/1
f 105/59/1 106/60/1 107/42/1 108/41/1
f 109/60/1 110/61/1 111/45/1 112/42/1
f 113/62/1 114/63/1 115/48/1 116/47/1
f 117/63/1 118/59/1 119/41/1 120/48/1
f 121/64/1 122/65/1 123/66/1 124/67/1
f 125/65/1 126/68/1 127/69/1 128/66/1
f 129/68/1 130/70/1 131/71/1 132/69/1
f 133/70/1 134/72/1 135/73/1 136/71/1
f 137/74/1 138/75/1 139/65/1 140/64/1
f 141/75/1 142/76/1 143/68/1 144/65/1
f 145/76/1 146/77/1 147/70/1 148/68/1
f 149/77/1 150/78/1 151/72/1 152/70/1
f 153/79/1 154/80/1 155/81/1 156/82/1
f 157/80/1 158/83/1 159/84/1 160/81/1
f 161/85/1 162/86/1 163/87/1 164/88/1
f 165/86/1 166/89/1 167/90/1 168/87/1
f 169/29/1 170/28/1 171/91/1 172/92/1
f 173/28/1 174/31/1 175/93/1 176/91/1
f 177/94/1 178/95/1 179/96/1 180/97/1
f 181/95/1 182/98/1 183/99/1 184/96/1

