# Tiled2Unity generated file. Do not modify by hand.
# Wavefront file for 'SalleMarchand_mesh_0004.obj'

# Vertices (Count = 184)
v -1536 -1032 0
v -1560 -1032 0
v -1560 -1008 0
v -1536 -1008 0
v -1560 -1032 0
v -1584 -1032 0
v -1584 -1008 0
v -1560 -1008 0
v -1536 -1056 0
v -1560 -1056 0
v -1560 -1032 0
v -1536 -1032 0
v -1560 -1056 0
v -1584 -1056 0
v -1584 -1032 0
v -1560 -1032 0
v -1536 -1080 0
v -1560 -1080 0
v -1560 -1056 0
v -1536 -1056 0
v -1560 -1080 0
v -1584 -1080 0
v -1584 -1056 0
v -1560 -1056 0
v -1536 -1104 0
v -1560 -1104 0
v -1560 -1080 0
v -1536 -1080 0
v -1560 -1104 0
v -1584 -1104 0
v -1584 -1080 0
v -1560 -1080 0
v -1584 -1104 0
v -1608 -1104 0
v -1608 -1080 0
v -1584 -1080 0
v -1608 -1104 0
v -1632 -1104 0
v -1632 -1080 0
v -1608 -1080 0
v -1632 -1104 0
v -1656 -1104 0
v -1656 -1080 0
v -1632 -1080 0
v -1656 -1104 0
v -1680 -1104 0
v -1680 -1080 0
v -1656 -1080 0
v -1680 -1104 0
v -1704 -1104 0
v -1704 -1080 0
v -1680 -1080 0
v -1704 -1104 0
v -1728 -1104 0
v -1728 -1080 0
v -1704 -1080 0
v -1728 -1104 0
v -1752 -1104 0
v -1752 -1080 0
v -1728 -1080 0
v -1536 -1128 0
v -1560 -1128 0
v -1560 -1104 0
v -1536 -1104 0
v -1560 -1128 0
v -1584 -1128 0
v -1584 -1104 0
v -1560 -1104 0
v -1584 -1128 0
v -1608 -1128 0
v -1608 -1104 0
v -1584 -1104 0
v -1608 -1128 0
v -1632 -1128 0
v -1632 -1104 0
v -1608 -1104 0
v -1632 -1128 0
v -1656 -1128 0
v -1656 -1104 0
v -1632 -1104 0
v -1656 -1128 0
v -1680 -1128 0
v -1680 -1104 0
v -1656 -1104 0
v -1680 -1128 0
v -1704 -1128 0
v -1704 -1104 0
v -1680 -1104 0
v -1704 -1128 0
v -1728 -1128 0
v -1728 -1104 0
v -1704 -1104 0
v -1728 -1128 0
v -1752 -1128 0
v -1752 -1104 0
v -1728 -1104 0
v -1512 -1272 0
v -1536 -1272 0
v -1536 -1248 0
v -1512 -1248 0
v -1536 -1272 0
v -1560 -1272 0
v -1560 -1248 0
v -1536 -1248 0
v -1560 -1272 0
v -1584 -1272 0
v -1584 -1248 0
v -1560 -1248 0
v -1584 -1272 0
v -1608 -1272 0
v -1608 -1248 0
v -1584 -1248 0
v -1608 -1272 0
v -1632 -1272 0
v -1632 -1248 0
v -1608 -1248 0
v -1632 -1272 0
v -1656 -1272 0
v -1656 -1248 0
v -1632 -1248 0
v -1656 -1272 0
v -1680 -1272 0
v -1680 -1248 0
v -1656 -1248 0
v -1680 -1272 0
v -1704 -1272 0
v -1704 -1248 0
v -1680 -1248 0
v -1704 -1272 0
v -1728 -1272 0
v -1728 -1248 0
v -1704 -1248 0
v -1728 -1272 0
v -1752 -1272 0
v -1752 -1248 0
v -1728 -1248 0
v -1752 -1272 0
v -1776 -1272 0
v -1776 -1248 0
v -1752 -1248 0
v -1512 -1296 0
v -1536 -1296 0
v -1536 -1272 0
v -1512 -1272 0
v -1536 -1296 0
v -1560 -1296 0
v -1560 -1272 0
v -1536 -1272 0
v -1560 -1296 0
v -1584 -1296 0
v -1584 -1272 0
v -1560 -1272 0
v -1584 -1296 0
v -1608 -1296 0
v -1608 -1272 0
v -1584 -1272 0
v -1608 -1296 0
v -1632 -1296 0
v -1632 -1272 0
v -1608 -1272 0
v -1632 -1296 0
v -1656 -1296 0
v -1656 -1272 0
v -1632 -1272 0
v -1656 -1296 0
v -1680 -1296 0
v -1680 -1272 0
v -1656 -1272 0
v -1680 -1296 0
v -1704 -1296 0
v -1704 -1272 0
v -1680 -1272 0
v -1704 -1296 0
v -1728 -1296 0
v -1728 -1272 0
v -1704 -1272 0
v -1728 -1296 0
v -1752 -1296 0
v -1752 -1272 0
v -1728 -1272 0
v -1752 -1296 0
v -1776 -1296 0
v -1776 -1272 0
v -1752 -1272 0

# Texture cooridinates (Count = 32)
vt 0.875 0.875
vt 0.90625 0.875
vt 0.90625 0.9166667
vt 0.875 0.9166667
vt 0.96875 0.875
vt 1 0.875
vt 1 0.9166667
vt 0.96875 0.9166667
vt 0.875 0.8333333
vt 0.90625 0.8333333
vt 0.96875 0.8333333
vt 1 0.8333333
vt 0.875 0.7916667
vt 0.90625 0.7916667
vt 0.96875 0.9583333
vt 1 0.9583333
vt 1 1
vt 0.96875 1
vt 0.9375 0.875
vt 0.9375 0.9166667
vt 0.875 0.75
vt 0.90625 0.75
vt 0.9375 0.75
vt 0.9375 0.7916667
vt 0.96875 0.75
vt 0.96875 0.7916667
vt 1 0.75
vt 1 0.7916667
vt 0.9375 0.8333333
vt 0.90625 0.9583333
vt 0.875 0.9583333
vt 0.9375 0.9583333

# Normal
vn 0 0 -1

# Mesh description
g SalleMarchand_mesh_0004

# Faces
f 1/1/1 2/2/1 3/3/1 4/4/1
f 5/5/1 6/6/1 7/7/1 8/8/1
f 9/9/1 10/10/1 11/2/1 12/1/1
f 13/11/1 14/12/1 15/6/1 16/5/1
f 17/13/1 18/14/1 19/10/1 20/9/1
f 21/11/1 22/12/1 23/6/1 24/5/1
f 25/13/1 26/14/1 27/10/1 28/9/1
f 29/15/1 30/16/1 31/17/1 32/18/1
f 33/2/1 34/19/1 35/20/1 36/3/1
f 37/19/1 38/5/1 39/8/1 40/20/1
f 41/2/1 42/19/1 43/20/1 44/3/1
f 45/19/1 46/5/1 47/8/1 48/20/1
f 49/2/1 50/19/1 51/20/1 52/3/1
f 53/19/1 54/5/1 55/8/1 56/20/1
f 57/5/1 58/6/1 59/7/1 60/8/1
f 61/21/1 62/22/1 63/14/1 64/13/1
f 65/22/1 66/23/1 67/24/1 68/14/1
f 69/23/1 70/25/1 71/26/1 72/24/1
f 73/22/1 74/23/1 75/24/1 76/14/1
f 77/23/1 78/25/1 79/26/1 80/24/1
f 81/22/1 82/23/1 83/24/1 84/14/1
f 85/22/1 86/23/1 87/24/1 88/14/1
f 89/23/1 90/25/1 91/26/1 92/24/1
f 93/25/1 94/27/1 95/28/1 96/26/1
f 97/9/1 98/10/1 99/2/1 100/1/1
f 101/10/1 102/29/1 103/19/1 104/2/1
f 105/29/1 106/11/1 107/5/1 108/19/1
f 109/29/1 110/11/1 111/5/1 112/19/1
f 113/29/1 114/11/1 115/5/1 116/19/1
f 117/29/1 118/11/1 119/5/1 120/19/1
f 121/29/1 122/11/1 123/5/1 124/19/1
f 125/29/1 126/11/1 127/5/1 128/19/1
f 129/29/1 130/11/1 131/5/1 132/19/1
f 133/29/1 134/11/1 135/5/1 136/19/1
f 137/11/1 138/12/1 139/6/1 140/5/1
f 141/4/1 142/3/1 143/30/1 144/31/1
f 145/22/1 146/23/1 147/24/1 148/14/1
f 149/23/1 150/25/1 151/26/1 152/24/1
f 153/23/1 154/25/1 155/26/1 156/24/1
f 157/23/1 158/25/1 159/26/1 160/24/1
f 161/23/1 162/25/1 163/26/1 164/24/1
f 165/23/1 166/25/1 167/26/1 168/24/1
f 169/23/1 170/25/1 171/26/1 172/24/1
f 173/23/1 174/25/1 175/26/1 176/24/1
f 177/23/1 178/25/1 179/26/1 180/24/1
f 181/3/1 182/20/1 183/32/1 184/30/1

