# Tiled2Unity generated file. Do not modify by hand.
# Wavefront file for 'SalleMarchand_mesh_0002.obj'

# Vertices (Count = 56)
v -1584 -1056 0
v -1608 -1056 0
v -1608 -1032 0
v -1584 -1032 0
v -1608 -1056 0
v -1632 -1056 0
v -1632 -1032 0
v -1608 -1032 0
v -1632 -1056 0
v -1656 -1056 0
v -1656 -1032 0
v -1632 -1032 0
v -1656 -1056 0
v -1680 -1056 0
v -1680 -1032 0
v -1656 -1032 0
v -1680 -1056 0
v -1704 -1056 0
v -1704 -1032 0
v -1680 -1032 0
v -1704 -1056 0
v -1728 -1056 0
v -1728 -1032 0
v -1704 -1032 0
v -1728 -1056 0
v -1752 -1056 0
v -1752 -1032 0
v -1728 -1032 0
v -1584 -1080 0
v -1608 -1080 0
v -1608 -1056 0
v -1584 -1056 0
v -1608 -1080 0
v -1632 -1080 0
v -1632 -1056 0
v -1608 -1056 0
v -1632 -1080 0
v -1656 -1080 0
v -1656 -1056 0
v -1632 -1056 0
v -1656 -1080 0
v -1680 -1080 0
v -1680 -1056 0
v -1656 -1056 0
v -1680 -1080 0
v -1704 -1080 0
v -1704 -1056 0
v -1680 -1056 0
v -1704 -1080 0
v -1728 -1080 0
v -1728 -1056 0
v -1704 -1056 0
v -1728 -1080 0
v -1752 -1080 0
v -1752 -1056 0
v -1728 -1056 0

# Texture cooridinates (Count = 20)
vt 0.25 0.625
vt 0.28125 0.625
vt 0.28125 0.6666666
vt 0.25 0.6666666
vt 0.3125 0.625
vt 0.3125 0.6666666
vt 0.34375 0.625
vt 0.34375 0.6666666
vt 0.375 0.625
vt 0.375 0.6666666
vt 0.25 0.5833334
vt 0.28125 0.5833334
vt 0.28125 0.5
vt 0.3125 0.5
vt 0.3125 0.5416666
vt 0.28125 0.5416666
vt 0.34375 0.5
vt 0.34375 0.5416666
vt 0.34375 0.5833334
vt 0.375 0.5833334

# Normal
vn 0 0 -1

# Mesh description
g SalleMarchand_mesh_0002

# Faces
f 1/1/1 2/2/1 3/3/1 4/4/1
f 5/2/1 6/5/1 7/6/1 8/3/1
f 9/5/1 10/7/1 11/8/1 12/6/1
f 13/2/1 14/5/1 15/6/1 16/3/1
f 17/2/1 18/5/1 19/6/1 20/3/1
f 21/5/1 22/7/1 23/8/1 24/6/1
f 25/7/1 26/9/1 27/10/1 28/8/1
f 29/11/1 30/12/1 31/2/1 32/1/1
f 33/13/1 34/14/1 35/15/1 36/16/1
f 37/14/1 38/17/1 39/18/1 40/15/1
f 41/13/1 42/14/1 43/15/1 44/16/1
f 45/13/1 46/14/1 47/15/1 48/16/1
f 49/14/1 50/17/1 51/18/1 52/15/1
f 53/19/1 54/20/1 55/9/1 56/7/1

