# Tiled2Unity generated file. Do not modify by hand.
# Wavefront file for 'SalleNSEW-SF---SP_mesh_0002.obj'

# Vertices (Count = 128)
v -1560 -1008 0
v -1584 -1008 0
v -1584 -984 0
v -1560 -984 0
v -1584 -1008 0
v -1608 -1008 0
v -1608 -984 0
v -1584 -984 0
v -1704 -1008 0
v -1728 -1008 0
v -1728 -984 0
v -1704 -984 0
v -1728 -1008 0
v -1752 -1008 0
v -1752 -984 0
v -1728 -984 0
v -1560 -1032 0
v -1584 -1032 0
v -1584 -1008 0
v -1560 -1008 0
v -1584 -1032 0
v -1608 -1032 0
v -1608 -1008 0
v -1584 -1008 0
v -1704 -1032 0
v -1728 -1032 0
v -1728 -1008 0
v -1704 -1008 0
v -1728 -1032 0
v -1752 -1032 0
v -1752 -1008 0
v -1728 -1008 0
v -1440 -1128 0
v -1464 -1128 0
v -1464 -1104 0
v -1440 -1104 0
v -1464 -1128 0
v -1488 -1128 0
v -1488 -1104 0
v -1464 -1104 0
v -1440 -1152 0
v -1464 -1152 0
v -1464 -1128 0
v -1440 -1128 0
v -1464 -1152 0
v -1488 -1152 0
v -1488 -1128 0
v -1464 -1128 0
v -1824 -1200 0
v -1848 -1200 0
v -1848 -1176 0
v -1824 -1176 0
v -1848 -1200 0
v -1872 -1200 0
v -1872 -1176 0
v -1848 -1176 0
v -1824 -1224 0
v -1848 -1224 0
v -1848 -1200 0
v -1824 -1200 0
v -1848 -1224 0
v -1872 -1224 0
v -1872 -1200 0
v -1848 -1200 0
v -1680 -1272 0
v -1704 -1272 0
v -1704 -1248 0
v -1680 -1248 0
v -1704 -1272 0
v -1728 -1272 0
v -1728 -1248 0
v -1704 -1248 0
v -1992 -1272 0
v -2016 -1272 0
v -2016 -1248 0
v -1992 -1248 0
v -2016 -1272 0
v -2040 -1272 0
v -2040 -1248 0
v -2016 -1248 0
v -1680 -1296 0
v -1704 -1296 0
v -1704 -1272 0
v -1680 -1272 0
v -1704 -1296 0
v -1728 -1296 0
v -1728 -1272 0
v -1704 -1272 0
v -1992 -1296 0
v -2016 -1296 0
v -2016 -1272 0
v -1992 -1272 0
v -2016 -1296 0
v -2040 -1296 0
v -2040 -1272 0
v -2016 -1272 0
v -1416 -1392 0
v -1440 -1392 0
v -1440 -1368 0
v -1416 -1368 0
v -1440 -1392 0
v -1464 -1392 0
v -1464 -1368 0
v -1440 -1368 0
v -1848 -1392 0
v -1872 -1392 0
v -1872 -1368 0
v -1848 -1368 0
v -1872 -1392 0
v -1896 -1392 0
v -1896 -1368 0
v -1872 -1368 0
v -1416 -1416 0
v -1440 -1416 0
v -1440 -1392 0
v -1416 -1392 0
v -1440 -1416 0
v -1464 -1416 0
v -1464 -1392 0
v -1440 -1392 0
v -1848 -1416 0
v -1872 -1416 0
v -1872 -1392 0
v -1848 -1392 0
v -1872 -1416 0
v -1896 -1416 0
v -1896 -1392 0
v -1872 -1392 0

# Texture cooridinates (Count = 24)
vt 0.6875 0.40625
vt 0.71875 0.40625
vt 0.71875 0.4375
vt 0.6875 0.4375
vt 0.75 0.40625
vt 0.75 0.4375
vt 0.6875 0.46875
vt 0.71875 0.46875
vt 0.71875 0.5
vt 0.6875 0.5
vt 0.75 0.46875
vt 0.75 0.5
vt 0.6875 0.375
vt 0.71875 0.375
vt 0.75 0.375
vt 0.125 0.28125
vt 0.15625 0.28125
vt 0.15625 0.3125
vt 0.125 0.3125
vt 0.1875 0.28125
vt 0.1875 0.3125
vt 0.125 0.25
vt 0.15625 0.25
vt 0.1875 0.25

# Normal
vn 0 0 -1

# Mesh description
g SalleNSEW-SF---SP_mesh_0002

# Faces
f 1/1/1 2/2/1 3/3/1 4/4/1
f 5/2/1 6/5/1 7/6/1 8/3/1
f 9/7/1 10/8/1 11/9/1 12/10/1
f 13/8/1 14/11/1 15/12/1 16/9/1
f 17/13/1 18/14/1 19/2/1 20/1/1
f 21/14/1 22/15/1 23/5/1 24/2/1
f 25/4/1 26/3/1 27/8/1 28/7/1
f 29/3/1 30/6/1 31/11/1 32/8/1
f 33/16/1 34/17/1 35/18/1 36/19/1
f 37/17/1 38/20/1 39/21/1 40/18/1
f 41/22/1 42/23/1 43/17/1 44/16/1
f 45/23/1 46/24/1 47/20/1 48/17/1
f 49/16/1 50/17/1 51/18/1 52/19/1
f 53/17/1 54/20/1 55/21/1 56/18/1
f 57/22/1 58/23/1 59/17/1 60/16/1
f 61/23/1 62/24/1 63/20/1 64/17/1
f 65/16/1 66/17/1 67/18/1 68/19/1
f 69/17/1 70/20/1 71/21/1 72/18/1
f 73/1/1 74/2/1 75/3/1 76/4/1
f 77/2/1 78/5/1 79/6/1 80/3/1
f 81/22/1 82/23/1 83/17/1 84/16/1
f 85/23/1 86/24/1 87/20/1 88/17/1
f 89/13/1 90/14/1 91/2/1 92/1/1
f 93/14/1 94/15/1 95/5/1 96/2/1
f 97/7/1 98/8/1 99/9/1 100/10/1
f 101/8/1 102/11/1 103/12/1 104/9/1
f 105/1/1 106/2/1 107/3/1 108/4/1
f 109/2/1 110/5/1 111/6/1 112/3/1
f 113/4/1 114/3/1 115/8/1 116/7/1
f 117/3/1 118/6/1 119/11/1 120/8/1
f 121/13/1 122/14/1 123/2/1 124/1/1
f 125/14/1 126/15/1 127/5/1 128/2/1

