# Tiled2Unity generated file. Do not modify by hand.
# Wavefront file for 'SalleNSEW-SF---SP_mesh_0006.obj'

# Vertices (Count = 32)
v -1464 -1272 0
v -1488 -1272 0
v -1488 -1248 0
v -1464 -1248 0
v -1488 -1272 0
v -1512 -1272 0
v -1512 -1248 0
v -1488 -1248 0
v -1800 -1272 0
v -1824 -1272 0
v -1824 -1248 0
v -1800 -1248 0
v -1824 -1272 0
v -1848 -1272 0
v -1848 -1248 0
v -1824 -1248 0
v -1464 -1296 0
v -1488 -1296 0
v -1488 -1272 0
v -1464 -1272 0
v -1488 -1296 0
v -1512 -1296 0
v -1512 -1272 0
v -1488 -1272 0
v -1800 -1296 0
v -1824 -1296 0
v -1824 -1272 0
v -1800 -1272 0
v -1824 -1296 0
v -1848 -1296 0
v -1848 -1272 0
v -1824 -1272 0

# Texture cooridinates (Count = 9)
vt 0.25 0.40625
vt 0.28125 0.40625
vt 0.28125 0.4375
vt 0.25 0.4375
vt 0.3125 0.40625
vt 0.3125 0.4375
vt 0.25 0.375
vt 0.28125 0.375
vt 0.3125 0.375

# Normal
vn 0 0 -1

# Mesh description
g SalleNSEW-SF---SP_mesh_0006

# Faces
f 1/1/1 2/2/1 3/3/1 4/4/1
f 5/2/1 6/5/1 7/6/1 8/3/1
f 9/1/1 10/2/1 11/3/1 12/4/1
f 13/2/1 14/5/1 15/6/1 16/3/1
f 17/7/1 18/8/1 19/2/1 20/1/1
f 21/8/1 22/9/1 23/5/1 24/2/1
f 25/7/1 26/8/1 27/2/1 28/1/1
f 29/8/1 30/9/1 31/5/1 32/2/1

