# Tiled2Unity generated file. Do not modify by hand.
# Wavefront file for 'SalleS-Tombes_mesh_0005.obj'

# Vertices (Count = 200)
v -1416 -1008 0
v -1440 -1008 0
v -1440 -984 0
v -1416 -984 0
v -1440 -1008 0
v -1464 -1008 0
v -1464 -984 0
v -1440 -984 0
v -1632 -1008 0
v -1656 -1008 0
v -1656 -984 0
v -1632 -984 0
v -1656 -1008 0
v -1680 -1008 0
v -1680 -984 0
v -1656 -984 0
v -1776 -1008 0
v -1800 -1008 0
v -1800 -984 0
v -1776 -984 0
v -1800 -1008 0
v -1824 -1008 0
v -1824 -984 0
v -1800 -984 0
v -1848 -1008 0
v -1872 -1008 0
v -1872 -984 0
v -1848 -984 0
v -1872 -1008 0
v -1896 -1008 0
v -1896 -984 0
v -1872 -984 0
v -1416 -1032 0
v -1440 -1032 0
v -1440 -1008 0
v -1416 -1008 0
v -1440 -1032 0
v -1464 -1032 0
v -1464 -1008 0
v -1440 -1008 0
v -1632 -1032 0
v -1656 -1032 0
v -1656 -1008 0
v -1632 -1008 0
v -1656 -1032 0
v -1680 -1032 0
v -1680 -1008 0
v -1656 -1008 0
v -1776 -1032 0
v -1800 -1032 0
v -1800 -1008 0
v -1776 -1008 0
v -1800 -1032 0
v -1824 -1032 0
v -1824 -1008 0
v -1800 -1008 0
v -1848 -1032 0
v -1872 -1032 0
v -1872 -1008 0
v -1848 -1008 0
v -1872 -1032 0
v -1896 -1032 0
v -1896 -1008 0
v -1872 -1008 0
v -1728 -1080 0
v -1752 -1080 0
v -1752 -1056 0
v -1728 -1056 0
v -1752 -1080 0
v -1776 -1080 0
v -1776 -1056 0
v -1752 -1056 0
v -1464 -1104 0
v -1488 -1104 0
v -1488 -1080 0
v -1464 -1080 0
v -1728 -1104 0
v -1752 -1104 0
v -1752 -1080 0
v -1728 -1080 0
v -1752 -1104 0
v -1776 -1104 0
v -1776 -1080 0
v -1752 -1080 0
v -1824 -1104 0
v -1848 -1104 0
v -1848 -1080 0
v -1824 -1080 0
v -1440 -1128 0
v -1464 -1128 0
v -1464 -1104 0
v -1440 -1104 0
v -1464 -1128 0
v -1488 -1128 0
v -1488 -1104 0
v -1464 -1104 0
v -1560 -1128 0
v -1584 -1128 0
v -1584 -1104 0
v -1560 -1104 0
v -1584 -1128 0
v -1608 -1128 0
v -1608 -1104 0
v -1584 -1104 0
v -1656 -1128 0
v -1680 -1128 0
v -1680 -1104 0
v -1656 -1104 0
v -1680 -1128 0
v -1704 -1128 0
v -1704 -1104 0
v -1680 -1104 0
v -1824 -1128 0
v -1848 -1128 0
v -1848 -1104 0
v -1824 -1104 0
v -1848 -1128 0
v -1872 -1128 0
v -1872 -1104 0
v -1848 -1104 0
v -1464 -1152 0
v -1488 -1152 0
v -1488 -1128 0
v -1464 -1128 0
v -1488 -1152 0
v -1512 -1152 0
v -1512 -1128 0
v -1488 -1128 0
v -1560 -1152 0
v -1584 -1152 0
v -1584 -1128 0
v -1560 -1128 0
v -1584 -1152 0
v -1608 -1152 0
v -1608 -1128 0
v -1584 -1128 0
v -1656 -1152 0
v -1680 -1152 0
v -1680 -1128 0
v -1656 -1128 0
v -1680 -1152 0
v -1704 -1152 0
v -1704 -1128 0
v -1680 -1128 0
v -1464 -1176 0
v -1488 -1176 0
v -1488 -1152 0
v -1464 -1152 0
v -1488 -1176 0
v -1512 -1176 0
v -1512 -1152 0
v -1488 -1152 0
v -1704 -1176 0
v -1728 -1176 0
v -1728 -1152 0
v -1704 -1152 0
v -1728 -1176 0
v -1752 -1176 0
v -1752 -1152 0
v -1728 -1152 0
v -1608 -1200 0
v -1632 -1200 0
v -1632 -1176 0
v -1608 -1176 0
v -1632 -1200 0
v -1656 -1200 0
v -1656 -1176 0
v -1632 -1176 0
v -1704 -1200 0
v -1728 -1200 0
v -1728 -1176 0
v -1704 -1176 0
v -1728 -1200 0
v -1752 -1200 0
v -1752 -1176 0
v -1728 -1176 0
v -1608 -1224 0
v -1632 -1224 0
v -1632 -1200 0
v -1608 -1200 0
v -1632 -1224 0
v -1656 -1224 0
v -1656 -1200 0
v -1632 -1200 0
v -1416 -1272 0
v -1440 -1272 0
v -1440 -1248 0
v -1416 -1248 0
v -1440 -1272 0
v -1464 -1272 0
v -1464 -1248 0
v -1440 -1248 0
v -1416 -1296 0
v -1440 -1296 0
v -1440 -1272 0
v -1416 -1272 0
v -1440 -1296 0
v -1464 -1296 0
v -1464 -1272 0
v -1440 -1272 0

# Texture cooridinates (Count = 36)
vt 0.6875 0.71875
vt 0.71875 0.71875
vt 0.71875 0.75
vt 0.6875 0.75
vt 0.75 0.71875
vt 0.75 0.75
vt 0.9375 0.71875
vt 0.96875 0.71875
vt 0.96875 0.75
vt 0.9375 0.75
vt 1 0.71875
vt 1 0.75
vt 0.6875 0.6875
vt 0.71875 0.6875
vt 0.75 0.6875
vt 0.9375 0.6875
vt 0.96875 0.6875
vt 1 0.6875
vt 0.0625 0.59375
vt 0.09375 0.59375
vt 0.09375 0.625
vt 0.0625 0.625
vt 0.125 0.59375
vt 0.125 0.625
vt 0.59375 0.59375
vt 0.625 0.59375
vt 0.625 0.625
vt 0.59375 0.625
vt 0.0625 0.5625
vt 0.09375 0.5625
vt 0.125 0.5625
vt 0.5625 0.59375
vt 0.5625 0.625
vt 0.5625 0.5625
vt 0.59375 0.5625
vt 0.625 0.5625

# Normal
vn 0 0 -1

# Mesh description
g SalleS-Tombes_mesh_0005

# Faces
f 1/1/1 2/2/1 3/3/1 4/4/1
f 5/2/1 6/5/1 7/6/1 8/3/1
f 9/7/1 10/8/1 11/9/1 12/10/1
f 13/8/1 14/11/1 15/12/1 16/9/1
f 17/7/1 18/8/1 19/9/1 20/10/1
f 21/8/1 22/11/1 23/12/1 24/9/1
f 25/1/1 26/2/1 27/3/1 28/4/1
f 29/2/1 30/5/1 31/6/1 32/3/1
f 33/13/1 34/14/1 35/2/1 36/1/1
f 37/14/1 38/15/1 39/5/1 40/2/1
f 41/16/1 42/17/1 43/8/1 44/7/1
f 45/17/1 46/18/1 47/11/1 48/8/1
f 49/16/1 50/17/1 51/8/1 52/7/1
f 53/17/1 54/18/1 55/11/1 56/8/1
f 57/13/1 58/14/1 59/2/1 60/1/1
f 61/14/1 62/15/1 63/5/1 64/2/1
f 65/19/1 66/20/1 67/21/1 68/22/1
f 69/20/1 70/23/1 71/24/1 72/21/1
f 73/25/1 74/26/1 75/27/1 76/28/1
f 77/29/1 78/30/1 79/20/1 80/19/1
f 81/30/1 82/31/1 83/23/1 84/20/1
f 85/32/1 86/25/1 87/28/1 88/33/1
f 89/34/1 90/35/1 91/25/1 92/32/1
f 93/35/1 94/36/1 95/26/1 96/25/1
f 97/19/1 98/20/1 99/21/1 100/22/1
f 101/20/1 102/23/1 103/24/1 104/21/1
f 105/19/1 106/20/1 107/21/1 108/22/1
f 109/20/1 110/23/1 111/24/1 112/21/1
f 113/34/1 114/35/1 115/25/1 116/32/1
f 117/35/1 118/36/1 119/26/1 120/25/1
f 121/19/1 122/20/1 123/21/1 124/22/1
f 125/20/1 126/23/1 127/24/1 128/21/1
f 129/29/1 130/30/1 131/20/1 132/19/1
f 133/30/1 134/31/1 135/23/1 136/20/1
f 137/29/1 138/30/1 139/20/1 140/19/1
f 141/30/1 142/31/1 143/23/1 144/20/1
f 145/29/1 146/30/1 147/20/1 148/19/1
f 149/30/1 150/31/1 151/23/1 152/20/1
f 153/19/1 154/20/1 155/21/1 156/22/1
f 157/20/1 158/23/1 159/24/1 160/21/1
f 161/19/1 162/20/1 163/21/1 164/22/1
f 165/20/1 166/23/1 167/24/1 168/21/1
f 169/29/1 170/30/1 171/20/1 172/19/1
f 173/30/1 174/31/1 175/23/1 176/20/1
f 177/29/1 178/30/1 179/20/1 180/19/1
f 181/30/1 182/31/1 183/23/1 184/20/1
f 185/19/1 186/20/1 187/21/1 188/22/1
f 189/20/1 190/23/1 191/24/1 192/21/1
f 193/29/1 194/30/1 195/20/1 196/19/1
f 197/30/1 198/31/1 199/23/1 200/20/1

