# Tiled2Unity generated file. Do not modify by hand.
# Wavefront file for 'SalleS-Tombes_mesh_0007.obj'

# Vertices (Count = 48)
v -1464 -1032 0
v -1488 -1032 0
v -1488 -1008 0
v -1464 -1008 0
v -1488 -1032 0
v -1512 -1032 0
v -1512 -1008 0
v -1488 -1008 0
v -1512 -1032 0
v -1536 -1032 0
v -1536 -1008 0
v -1512 -1008 0
v -1536 -1032 0
v -1560 -1032 0
v -1560 -1008 0
v -1536 -1008 0
v -1800 -1032 0
v -1824 -1032 0
v -1824 -1008 0
v -1800 -1008 0
v -1824 -1032 0
v -1848 -1032 0
v -1848 -1008 0
v -1824 -1008 0
v -1464 -1056 0
v -1488 -1056 0
v -1488 -1032 0
v -1464 -1032 0
v -1488 -1056 0
v -1512 -1056 0
v -1512 -1032 0
v -1488 -1032 0
v -1512 -1056 0
v -1536 -1056 0
v -1536 -1032 0
v -1512 -1032 0
v -1536 -1056 0
v -1560 -1056 0
v -1560 -1032 0
v -1536 -1032 0
v -1800 -1056 0
v -1824 -1056 0
v -1824 -1032 0
v -1800 -1032 0
v -1824 -1056 0
v -1848 -1056 0
v -1848 -1032 0
v -1824 -1032 0

# Texture cooridinates (Count = 24)
vt 0.875 0.53125
vt 0.90625 0.53125
vt 0.90625 0.5625
vt 0.875 0.5625
vt 0.9375 0.53125
vt 0.9375 0.5625
vt 0.96875 0.53125
vt 0.96875 0.5625
vt 1 0.53125
vt 1 0.5625
vt 0.5 0.53125
vt 0.53125 0.53125
vt 0.53125 0.5625
vt 0.5 0.5625
vt 0.5625 0.53125
vt 0.5625 0.5625
vt 0.875 0.5
vt 0.90625 0.5
vt 0.9375 0.5
vt 0.96875 0.5
vt 1 0.5
vt 0.5 0.5
vt 0.53125 0.5
vt 0.5625 0.5

# Normal
vn 0 0 -1

# Mesh description
g SalleS-Tombes_mesh_0007

# Faces
f 1/1/1 2/2/1 3/3/1 4/4/1
f 5/2/1 6/5/1 7/6/1 8/3/1
f 9/5/1 10/7/1 11/8/1 12/6/1
f 13/7/1 14/9/1 15/10/1 16/8/1
f 17/11/1 18/12/1 19/13/1 20/14/1
f 21/12/1 22/15/1 23/16/1 24/13/1
f 25/17/1 26/18/1 27/2/1 28/1/1
f 29/18/1 30/19/1 31/5/1 32/2/1
f 33/19/1 34/20/1 35/7/1 36/5/1
f 37/20/1 38/21/1 39/9/1 40/7/1
f 41/22/1 42/23/1 43/12/1 44/11/1
f 45/23/1 46/24/1 47/15/1 48/12/1

