# Tiled2Unity generated file. Do not modify by hand.
# Wavefront file for 'SalleEW_mesh_0003.obj'

# Vertices (Count = 128)
v -1608 -1008 0
v -1632 -1008 0
v -1632 -984 0
v -1608 -984 0
v -1632 -1008 0
v -1656 -1008 0
v -1656 -984 0
v -1632 -984 0
v -1776 -1008 0
v -1800 -1008 0
v -1800 -984 0
v -1776 -984 0
v -1800 -1008 0
v -1824 -1008 0
v -1824 -984 0
v -1800 -984 0
v -1608 -1032 0
v -1632 -1032 0
v -1632 -1008 0
v -1608 -1008 0
v -1632 -1032 0
v -1656 -1032 0
v -1656 -1008 0
v -1632 -1008 0
v -1776 -1032 0
v -1800 -1032 0
v -1800 -1008 0
v -1776 -1008 0
v -1800 -1032 0
v -1824 -1032 0
v -1824 -1008 0
v -1800 -1008 0
v -1440 -1056 0
v -1464 -1056 0
v -1464 -1032 0
v -1440 -1032 0
v -1464 -1056 0
v -1488 -1056 0
v -1488 -1032 0
v -1464 -1032 0
v -1440 -1080 0
v -1464 -1080 0
v -1464 -1056 0
v -1440 -1056 0
v -1464 -1080 0
v -1488 -1080 0
v -1488 -1056 0
v -1464 -1056 0
v -1344 -1128 0
v -1368 -1128 0
v -1368 -1104 0
v -1344 -1104 0
v -1368 -1128 0
v -1392 -1128 0
v -1392 -1104 0
v -1368 -1104 0
v -1728 -1128 0
v -1752 -1128 0
v -1752 -1104 0
v -1728 -1104 0
v -1752 -1128 0
v -1776 -1128 0
v -1776 -1104 0
v -1752 -1104 0
v -1968 -1128 0
v -1992 -1128 0
v -1992 -1104 0
v -1968 -1104 0
v -1992 -1128 0
v -2016 -1128 0
v -2016 -1104 0
v -1992 -1104 0
v -1344 -1152 0
v -1368 -1152 0
v -1368 -1128 0
v -1344 -1128 0
v -1368 -1152 0
v -1392 -1152 0
v -1392 -1128 0
v -1368 -1128 0
v -1728 -1152 0
v -1752 -1152 0
v -1752 -1128 0
v -1728 -1128 0
v -1752 -1152 0
v -1776 -1152 0
v -1776 -1128 0
v -1752 -1128 0
v -1968 -1152 0
v -1992 -1152 0
v -1992 -1128 0
v -1968 -1128 0
v -1992 -1152 0
v -2016 -1152 0
v -2016 -1128 0
v -1992 -1128 0
v -1584 -1176 0
v -1608 -1176 0
v -1608 -1152 0
v -1584 -1152 0
v -1608 -1176 0
v -1632 -1176 0
v -1632 -1152 0
v -1608 -1152 0
v -1584 -1200 0
v -1608 -1200 0
v -1608 -1176 0
v -1584 -1176 0
v -1608 -1200 0
v -1632 -1200 0
v -1632 -1176 0
v -1608 -1176 0
v -1848 -1272 0
v -1872 -1272 0
v -1872 -1248 0
v -1848 -1248 0
v -1872 -1272 0
v -1896 -1272 0
v -1896 -1248 0
v -1872 -1248 0
v -1848 -1296 0
v -1872 -1296 0
v -1872 -1272 0
v -1848 -1272 0
v -1872 -1296 0
v -1896 -1296 0
v -1896 -1272 0
v -1872 -1272 0

# Texture cooridinates (Count = 27)
vt 0.6875 0.71875
vt 0.71875 0.71875
vt 0.71875 0.75
vt 0.6875 0.75
vt 0.75 0.71875
vt 0.75 0.75
vt 0.9375 0.71875
vt 0.96875 0.71875
vt 0.96875 0.75
vt 0.9375 0.75
vt 1 0.71875
vt 1 0.75
vt 0.6875 0.6875
vt 0.71875 0.6875
vt 0.75 0.6875
vt 0.9375 0.6875
vt 0.96875 0.6875
vt 1 0.6875
vt 0.0625 0.59375
vt 0.09375 0.59375
vt 0.09375 0.625
vt 0.0625 0.625
vt 0.125 0.59375
vt 0.125 0.625
vt 0.0625 0.5625
vt 0.09375 0.5625
vt 0.125 0.5625

# Normal
vn 0 0 -1

# Mesh description
g SalleEW_mesh_0003

# Faces
f 1/1/1 2/2/1 3/3/1 4/4/1
f 5/2/1 6/5/1 7/6/1 8/3/1
f 9/7/1 10/8/1 11/9/1 12/10/1
f 13/8/1 14/11/1 15/12/1 16/9/1
f 17/13/1 18/14/1 19/2/1 20/1/1
f 21/14/1 22/15/1 23/5/1 24/2/1
f 25/16/1 26/17/1 27/8/1 28/7/1
f 29/17/1 30/18/1 31/11/1 32/8/1
f 33/19/1 34/20/1 35/21/1 36/22/1
f 37/20/1 38/23/1 39/24/1 40/21/1
f 41/25/1 42/26/1 43/20/1 44/19/1
f 45/26/1 46/27/1 47/23/1 48/20/1
f 49/1/1 50/2/1 51/3/1 52/4/1
f 53/2/1 54/5/1 55/6/1 56/3/1
f 57/19/1 58/20/1 59/21/1 60/22/1
f 61/20/1 62/23/1 63/24/1 64/21/1
f 65/1/1 66/2/1 67/3/1 68/4/1
f 69/2/1 70/5/1 71/6/1 72/3/1
f 73/13/1 74/14/1 75/2/1 76/1/1
f 77/14/1 78/15/1 79/5/1 80/2/1
f 81/25/1 82/26/1 83/20/1 84/19/1
f 85/26/1 86/27/1 87/23/1 88/20/1
f 89/13/1 90/14/1 91/2/1 92/1/1
f 93/14/1 94/15/1 95/5/1 96/2/1
f 97/19/1 98/20/1 99/21/1 100/22/1
f 101/20/1 102/23/1 103/24/1 104/21/1
f 105/25/1 106/26/1 107/20/1 108/19/1
f 109/26/1 110/27/1 111/23/1 112/20/1
f 113/19/1 114/20/1 115/21/1 116/22/1
f 117/20/1 118/23/1 119/24/1 120/21/1
f 121/25/1 122/26/1 123/20/1 124/19/1
f 125/26/1 126/27/1 127/23/1 128/20/1

