# Tiled2Unity generated file. Do not modify by hand.
# Wavefront file for 'SalleEW_mesh_0001.obj'

# Vertices (Count = 928)
v -1368 -984 0
v -1392 -984 0
v -1392 -960 0
v -1368 -960 0
v -1392 -984 0
v -1416 -984 0
v -1416 -960 0
v -1392 -960 0
v -1416 -984 0
v -1440 -984 0
v -1440 -960 0
v -1416 -960 0
v -1440 -984 0
v -1464 -984 0
v -1464 -960 0
v -1440 -960 0
v -1464 -984 0
v -1488 -984 0
v -1488 -960 0
v -1464 -960 0
v -1488 -984 0
v -1512 -984 0
v -1512 -960 0
v -1488 -960 0
v -1512 -984 0
v -1536 -984 0
v -1536 -960 0
v -1512 -960 0
v -1536 -984 0
v -1560 -984 0
v -1560 -960 0
v -1536 -960 0
v -1560 -984 0
v -1584 -984 0
v -1584 -960 0
v -1560 -960 0
v -1584 -984 0
v -1608 -984 0
v -1608 -960 0
v -1584 -960 0
v -1608 -984 0
v -1632 -984 0
v -1632 -960 0
v -1608 -960 0
v -1632 -984 0
v -1656 -984 0
v -1656 -960 0
v -1632 -960 0
v -1656 -984 0
v -1680 -984 0
v -1680 -960 0
v -1656 -960 0
v -1680 -984 0
v -1704 -984 0
v -1704 -960 0
v -1680 -960 0
v -1704 -984 0
v -1728 -984 0
v -1728 -960 0
v -1704 -960 0
v -1728 -984 0
v -1752 -984 0
v -1752 -960 0
v -1728 -960 0
v -1752 -984 0
v -1776 -984 0
v -1776 -960 0
v -1752 -960 0
v -1776 -984 0
v -1800 -984 0
v -1800 -960 0
v -1776 -960 0
v -1800 -984 0
v -1824 -984 0
v -1824 -960 0
v -1800 -960 0
v -1824 -984 0
v -1848 -984 0
v -1848 -960 0
v -1824 -960 0
v -1848 -984 0
v -1872 -984 0
v -1872 -960 0
v -1848 -960 0
v -1872 -984 0
v -1896 -984 0
v -1896 -960 0
v -1872 -960 0
v -1896 -984 0
v -1920 -984 0
v -1920 -960 0
v -1896 -960 0
v -1920 -984 0
v -1944 -984 0
v -1944 -960 0
v -1920 -960 0
v -1368 -1008 0
v -1392 -1008 0
v -1392 -984 0
v -1368 -984 0
v -1392 -1008 0
v -1416 -1008 0
v -1416 -984 0
v -1392 -984 0
v -1416 -1008 0
v -1440 -1008 0
v -1440 -984 0
v -1416 -984 0
v -1440 -1008 0
v -1464 -1008 0
v -1464 -984 0
v -1440 -984 0
v -1464 -1008 0
v -1488 -1008 0
v -1488 -984 0
v -1464 -984 0
v -1488 -1008 0
v -1512 -1008 0
v -1512 -984 0
v -1488 -984 0
v -1512 -1008 0
v -1536 -1008 0
v -1536 -984 0
v -1512 -984 0
v -1536 -1008 0
v -1560 -1008 0
v -1560 -984 0
v -1536 -984 0
v -1560 -1008 0
v -1584 -1008 0
v -1584 -984 0
v -1560 -984 0
v -1584 -1008 0
v -1608 -1008 0
v -1608 -984 0
v -1584 -984 0
v -1608 -1008 0
v -1632 -1008 0
v -1632 -984 0
v -1608 -984 0
v -1632 -1008 0
v -1656 -1008 0
v -1656 -984 0
v -1632 -984 0
v -1656 -1008 0
v -1680 -1008 0
v -1680 -984 0
v -1656 -984 0
v -1680 -1008 0
v -1704 -1008 0
v -1704 -984 0
v -1680 -984 0
v -1704 -1008 0
v -1728 -1008 0
v -1728 -984 0
v -1704 -984 0
v -1728 -1008 0
v -1752 -1008 0
v -1752 -984 0
v -1728 -984 0
v -1752 -1008 0
v -1776 -1008 0
v -1776 -984 0
v -1752 -984 0
v -1776 -1008 0
v -1800 -1008 0
v -1800 -984 0
v -1776 -984 0
v -1800 -1008 0
v -1824 -1008 0
v -1824 -984 0
v -1800 -984 0
v -1824 -1008 0
v -1848 -1008 0
v -1848 -984 0
v -1824 -984 0
v -1848 -1008 0
v -1872 -1008 0
v -1872 -984 0
v -1848 -984 0
v -1872 -1008 0
v -1896 -1008 0
v -1896 -984 0
v -1872 -984 0
v -1896 -1008 0
v -1920 -1008 0
v -1920 -984 0
v -1896 -984 0
v -1920 -1008 0
v -1944 -1008 0
v -1944 -984 0
v -1920 -984 0
v -1368 -1032 0
v -1392 -1032 0
v -1392 -1008 0
v -1368 -1008 0
v -1392 -1032 0
v -1416 -1032 0
v -1416 -1008 0
v -1392 -1008 0
v -1416 -1032 0
v -1440 -1032 0
v -1440 -1008 0
v -1416 -1008 0
v -1440 -1032 0
v -1464 -1032 0
v -1464 -1008 0
v -1440 -1008 0
v -1464 -1032 0
v -1488 -1032 0
v -1488 -1008 0
v -1464 -1008 0
v -1488 -1032 0
v -1512 -1032 0
v -1512 -1008 0
v -1488 -1008 0
v -1512 -1032 0
v -1536 -1032 0
v -1536 -1008 0
v -1512 -1008 0
v -1536 -1032 0
v -1560 -1032 0
v -1560 -1008 0
v -1536 -1008 0
v -1560 -1032 0
v -1584 -1032 0
v -1584 -1008 0
v -1560 -1008 0
v -1584 -1032 0
v -1608 -1032 0
v -1608 -1008 0
v -1584 -1008 0
v -1608 -1032 0
v -1632 -1032 0
v -1632 -1008 0
v -1608 -1008 0
v -1632 -1032 0
v -1656 -1032 0
v -1656 -1008 0
v -1632 -1008 0
v -1656 -1032 0
v -1680 -1032 0
v -1680 -1008 0
v -1656 -1008 0
v -1680 -1032 0
v -1704 -1032 0
v -1704 -1008 0
v -1680 -1008 0
v -1704 -1032 0
v -1728 -1032 0
v -1728 -1008 0
v -1704 -1008 0
v -1728 -1032 0
v -1752 -1032 0
v -1752 -1008 0
v -1728 -1008 0
v -1752 -1032 0
v -1776 -1032 0
v -1776 -1008 0
v -1752 -1008 0
v -1776 -1032 0
v -1800 -1032 0
v -1800 -1008 0
v -1776 -1008 0
v -1800 -1032 0
v -1824 -1032 0
v -1824 -1008 0
v -1800 -1008 0
v -1824 -1032 0
v -1848 -1032 0
v -1848 -1008 0
v -1824 -1008 0
v -1848 -1032 0
v -1872 -1032 0
v -1872 -1008 0
v -1848 -1008 0
v -1872 -1032 0
v -1896 -1032 0
v -1896 -1008 0
v -1872 -1008 0
v -1896 -1032 0
v -1920 -1032 0
v -1920 -1008 0
v -1896 -1008 0
v -1920 -1032 0
v -1944 -1032 0
v -1944 -1008 0
v -1920 -1008 0
v -1368 -1056 0
v -1392 -1056 0
v -1392 -1032 0
v -1368 -1032 0
v -1392 -1056 0
v -1416 -1056 0
v -1416 -1032 0
v -1392 -1032 0
v -1896 -1056 0
v -1920 -1056 0
v -1920 -1032 0
v -1896 -1032 0
v -1920 -1056 0
v -1944 -1056 0
v -1944 -1032 0
v -1920 -1032 0
v -1368 -1080 0
v -1392 -1080 0
v -1392 -1056 0
v -1368 -1056 0
v -1392 -1080 0
v -1416 -1080 0
v -1416 -1056 0
v -1392 -1056 0
v -1896 -1080 0
v -1920 -1080 0
v -1920 -1056 0
v -1896 -1056 0
v -1920 -1080 0
v -1944 -1080 0
v -1944 -1056 0
v -1920 -1056 0
v -1272 -1104 0
v -1296 -1104 0
v -1296 -1080 0
v -1272 -1080 0
v -1296 -1104 0
v -1320 -1104 0
v -1320 -1080 0
v -1296 -1080 0
v -1320 -1104 0
v -1344 -1104 0
v -1344 -1080 0
v -1320 -1080 0
v -1344 -1104 0
v -1368 -1104 0
v -1368 -1080 0
v -1344 -1080 0
v -1368 -1104 0
v -1392 -1104 0
v -1392 -1080 0
v -1368 -1080 0
v -1392 -1104 0
v -1416 -1104 0
v -1416 -1080 0
v -1392 -1080 0
v -1896 -1104 0
v -1920 -1104 0
v -1920 -1080 0
v -1896 -1080 0
v -1920 -1104 0
v -1944 -1104 0
v -1944 -1080 0
v -1920 -1080 0
v -1944 -1104 0
v -1968 -1104 0
v -1968 -1080 0
v -1944 -1080 0
v -1968 -1104 0
v -1992 -1104 0
v -1992 -1080 0
v -1968 -1080 0
v -1992 -1104 0
v -2016 -1104 0
v -2016 -1080 0
v -1992 -1080 0
v -2016 -1104 0
v -2040 -1104 0
v -2040 -1080 0
v -2016 -1080 0
v -1272 -1128 0
v -1296 -1128 0
v -1296 -1104 0
v -1272 -1104 0
v -1296 -1128 0
v -1320 -1128 0
v -1320 -1104 0
v -1296 -1104 0
v -1320 -1128 0
v -1344 -1128 0
v -1344 -1104 0
v -1320 -1104 0
v -1344 -1128 0
v -1368 -1128 0
v -1368 -1104 0
v -1344 -1104 0
v -1368 -1128 0
v -1392 -1128 0
v -1392 -1104 0
v -1368 -1104 0
v -1392 -1128 0
v -1416 -1128 0
v -1416 -1104 0
v -1392 -1104 0
v -1896 -1128 0
v -1920 -1128 0
v -1920 -1104 0
v -1896 -1104 0
v -1920 -1128 0
v -1944 -1128 0
v -1944 -1104 0
v -1920 -1104 0
v -1944 -1128 0
v -1968 -1128 0
v -1968 -1104 0
v -1944 -1104 0
v -1968 -1128 0
v -1992 -1128 0
v -1992 -1104 0
v -1968 -1104 0
v -1992 -1128 0
v -2016 -1128 0
v -2016 -1104 0
v -1992 -1104 0
v -2016 -1128 0
v -2040 -1128 0
v -2040 -1104 0
v -2016 -1104 0
v -1272 -1152 0
v -1296 -1152 0
v -1296 -1128 0
v -1272 -1128 0
v -1296 -1152 0
v -1320 -1152 0
v -1320 -1128 0
v -1296 -1128 0
v -1320 -1152 0
v -1344 -1152 0
v -1344 -1128 0
v -1320 -1128 0
v -1344 -1152 0
v -1368 -1152 0
v -1368 -1128 0
v -1344 -1128 0
v -1368 -1152 0
v -1392 -1152 0
v -1392 -1128 0
v -1368 -1128 0
v -1392 -1152 0
v -1416 -1152 0
v -1416 -1128 0
v -1392 -1128 0
v -1896 -1152 0
v -1920 -1152 0
v -1920 -1128 0
v -1896 -1128 0
v -1920 -1152 0
v -1944 -1152 0
v -1944 -1128 0
v -1920 -1128 0
v -1944 -1152 0
v -1968 -1152 0
v -1968 -1128 0
v -1944 -1128 0
v -1968 -1152 0
v -1992 -1152 0
v -1992 -1128 0
v -1968 -1128 0
v -1992 -1152 0
v -2016 -1152 0
v -2016 -1128 0
v -1992 -1128 0
v -2016 -1152 0
v -2040 -1152 0
v -2040 -1128 0
v -2016 -1128 0
v -1272 -1248 0
v -1296 -1248 0
v -1296 -1224 0
v -1272 -1224 0
v -1296 -1248 0
v -1320 -1248 0
v -1320 -1224 0
v -1296 -1224 0
v -1320 -1248 0
v -1344 -1248 0
v -1344 -1224 0
v -1320 -1224 0
v -1344 -1248 0
v -1368 -1248 0
v -1368 -1224 0
v -1344 -1224 0
v -1368 -1248 0
v -1392 -1248 0
v -1392 -1224 0
v -1368 -1224 0
v -1392 -1248 0
v -1416 -1248 0
v -1416 -1224 0
v -1392 -1224 0
v -1896 -1248 0
v -1920 -1248 0
v -1920 -1224 0
v -1896 -1224 0
v -1920 -1248 0
v -1944 -1248 0
v -1944 -1224 0
v -1920 -1224 0
v -1944 -1248 0
v -1968 -1248 0
v -1968 -1224 0
v -1944 -1224 0
v -1968 -1248 0
v -1992 -1248 0
v -1992 -1224 0
v -1968 -1224 0
v -1992 -1248 0
v -2016 -1248 0
v -2016 -1224 0
v -1992 -1224 0
v -2016 -1248 0
v -2040 -1248 0
v -2040 -1224 0
v -2016 -1224 0
v -1272 -1272 0
v -1296 -1272 0
v -1296 -1248 0
v -1272 -1248 0
v -1296 -1272 0
v -1320 -1272 0
v -1320 -1248 0
v -1296 -1248 0
v -1320 -1272 0
v -1344 -1272 0
v -1344 -1248 0
v -1320 -1248 0
v -1344 -1272 0
v -1368 -1272 0
v -1368 -1248 0
v -1344 -1248 0
v -1368 -1272 0
v -1392 -1272 0
v -1392 -1248 0
v -1368 -1248 0
v -1392 -1272 0
v -1416 -1272 0
v -1416 -1248 0
v -1392 -1248 0
v -1896 -1272 0
v -1920 -1272 0
v -1920 -1248 0
v -1896 -1248 0
v -1920 -1272 0
v -1944 -1272 0
v -1944 -1248 0
v -1920 -1248 0
v -1944 -1272 0
v -1968 -1272 0
v -1968 -1248 0
v -1944 -1248 0
v -1968 -1272 0
v -1992 -1272 0
v -1992 -1248 0
v -1968 -1248 0
v -1992 -1272 0
v -2016 -1272 0
v -2016 -1248 0
v -1992 -1248 0
v -2016 -1272 0
v -2040 -1272 0
v -2040 -1248 0
v -2016 -1248 0
v -1272 -1296 0
v -1296 -1296 0
v -1296 -1272 0
v -1272 -1272 0
v -1296 -1296 0
v -1320 -1296 0
v -1320 -1272 0
v -1296 -1272 0
v -1320 -1296 0
v -1344 -1296 0
v -1344 -1272 0
v -1320 -1272 0
v -1344 -1296 0
v -1368 -1296 0
v -1368 -1272 0
v -1344 -1272 0
v -1368 -1296 0
v -1392 -1296 0
v -1392 -1272 0
v -1368 -1272 0
v -1392 -1296 0
v -1416 -1296 0
v -1416 -1272 0
v -1392 -1272 0
v -1896 -1296 0
v -1920 -1296 0
v -1920 -1272 0
v -1896 -1272 0
v -1920 -1296 0
v -1944 -1296 0
v -1944 -1272 0
v -1920 -1272 0
v -1944 -1296 0
v -1968 -1296 0
v -1968 -1272 0
v -1944 -1272 0
v -1968 -1296 0
v -1992 -1296 0
v -1992 -1272 0
v -1968 -1272 0
v -1992 -1296 0
v -2016 -1296 0
v -2016 -1272 0
v -1992 -1272 0
v -2016 -1296 0
v -2040 -1296 0
v -2040 -1272 0
v -2016 -1272 0
v -1368 -1320 0
v -1392 -1320 0
v -1392 -1296 0
v -1368 -1296 0
v -1392 -1320 0
v -1416 -1320 0
v -1416 -1296 0
v -1392 -1296 0
v -1896 -1320 0
v -1920 -1320 0
v -1920 -1296 0
v -1896 -1296 0
v -1920 -1320 0
v -1944 -1320 0
v -1944 -1296 0
v -1920 -1296 0
v -1368 -1344 0
v -1392 -1344 0
v -1392 -1320 0
v -1368 -1320 0
v -1392 -1344 0
v -1416 -1344 0
v -1416 -1320 0
v -1392 -1320 0
v -1896 -1344 0
v -1920 -1344 0
v -1920 -1320 0
v -1896 -1320 0
v -1920 -1344 0
v -1944 -1344 0
v -1944 -1320 0
v -1920 -1320 0
v -1368 -1368 0
v -1392 -1368 0
v -1392 -1344 0
v -1368 -1344 0
v -1392 -1368 0
v -1416 -1368 0
v -1416 -1344 0
v -1392 -1344 0
v -1416 -1368 0
v -1440 -1368 0
v -1440 -1344 0
v -1416 -1344 0
v -1440 -1368 0
v -1464 -1368 0
v -1464 -1344 0
v -1440 -1344 0
v -1464 -1368 0
v -1488 -1368 0
v -1488 -1344 0
v -1464 -1344 0
v -1488 -1368 0
v -1512 -1368 0
v -1512 -1344 0
v -1488 -1344 0
v -1512 -1368 0
v -1536 -1368 0
v -1536 -1344 0
v -1512 -1344 0
v -1536 -1368 0
v -1560 -1368 0
v -1560 -1344 0
v -1536 -1344 0
v -1560 -1368 0
v -1584 -1368 0
v -1584 -1344 0
v -1560 -1344 0
v -1584 -1368 0
v -1608 -1368 0
v -1608 -1344 0
v -1584 -1344 0
v -1608 -1368 0
v -1632 -1368 0
v -1632 -1344 0
v -1608 -1344 0
v -1632 -1368 0
v -1656 -1368 0
v -1656 -1344 0
v -1632 -1344 0
v -1656 -1368 0
v -1680 -1368 0
v -1680 -1344 0
v -1656 -1344 0
v -1680 -1368 0
v -1704 -1368 0
v -1704 -1344 0
v -1680 -1344 0
v -1704 -1368 0
v -1728 -1368 0
v -1728 -1344 0
v -1704 -1344 0
v -1728 -1368 0
v -1752 -1368 0
v -1752 -1344 0
v -1728 -1344 0
v -1752 -1368 0
v -1776 -1368 0
v -1776 -1344 0
v -1752 -1344 0
v -1776 -1368 0
v -1800 -1368 0
v -1800 -1344 0
v -1776 -1344 0
v -1800 -1368 0
v -1824 -1368 0
v -1824 -1344 0
v -1800 -1344 0
v -1824 -1368 0
v -1848 -1368 0
v -1848 -1344 0
v -1824 -1344 0
v -1848 -1368 0
v -1872 -1368 0
v -1872 -1344 0
v -1848 -1344 0
v -1872 -1368 0
v -1896 -1368 0
v -1896 -1344 0
v -1872 -1344 0
v -1896 -1368 0
v -1920 -1368 0
v -1920 -1344 0
v -1896 -1344 0
v -1920 -1368 0
v -1944 -1368 0
v -1944 -1344 0
v -1920 -1344 0
v -1368 -1392 0
v -1392 -1392 0
v -1392 -1368 0
v -1368 -1368 0
v -1392 -1392 0
v -1416 -1392 0
v -1416 -1368 0
v -1392 -1368 0
v -1416 -1392 0
v -1440 -1392 0
v -1440 -1368 0
v -1416 -1368 0
v -1440 -1392 0
v -1464 -1392 0
v -1464 -1368 0
v -1440 -1368 0
v -1464 -1392 0
v -1488 -1392 0
v -1488 -1368 0
v -1464 -1368 0
v -1488 -1392 0
v -1512 -1392 0
v -1512 -1368 0
v -1488 -1368 0
v -1512 -1392 0
v -1536 -1392 0
v -1536 -1368 0
v -1512 -1368 0
v -1536 -1392 0
v -1560 -1392 0
v -1560 -1368 0
v -1536 -1368 0
v -1560 -1392 0
v -1584 -1392 0
v -1584 -1368 0
v -1560 -1368 0
v -1584 -1392 0
v -1608 -1392 0
v -1608 -1368 0
v -1584 -1368 0
v -1608 -1392 0
v -1632 -1392 0
v -1632 -1368 0
v -1608 -1368 0
v -1632 -1392 0
v -1656 -1392 0
v -1656 -1368 0
v -1632 -1368 0
v -1656 -1392 0
v -1680 -1392 0
v -1680 -1368 0
v -1656 -1368 0
v -1680 -1392 0
v -1704 -1392 0
v -1704 -1368 0
v -1680 -1368 0
v -1704 -1392 0
v -1728 -1392 0
v -1728 -1368 0
v -1704 -1368 0
v -1728 -1392 0
v -1752 -1392 0
v -1752 -1368 0
v -1728 -1368 0
v -1752 -1392 0
v -1776 -1392 0
v -1776 -1368 0
v -1752 -1368 0
v -1776 -1392 0
v -1800 -1392 0
v -1800 -1368 0
v -1776 -1368 0
v -1800 -1392 0
v -1824 -1392 0
v -1824 -1368 0
v -1800 -1368 0
v -1824 -1392 0
v -1848 -1392 0
v -1848 -1368 0
v -1824 -1368 0
v -1848 -1392 0
v -1872 -1392 0
v -1872 -1368 0
v -1848 -1368 0
v -1872 -1392 0
v -1896 -1392 0
v -1896 -1368 0
v -1872 -1368 0
v -1896 -1392 0
v -1920 -1392 0
v -1920 -1368 0
v -1896 -1368 0
v -1920 -1392 0
v -1944 -1392 0
v -1944 -1368 0
v -1920 -1368 0
v -1368 -1416 0
v -1392 -1416 0
v -1392 -1392 0
v -1368 -1392 0
v -1392 -1416 0
v -1416 -1416 0
v -1416 -1392 0
v -1392 -1392 0
v -1416 -1416 0
v -1440 -1416 0
v -1440 -1392 0
v -1416 -1392 0
v -1440 -1416 0
v -1464 -1416 0
v -1464 -1392 0
v -1440 -1392 0
v -1464 -1416 0
v -1488 -1416 0
v -1488 -1392 0
v -1464 -1392 0
v -1488 -1416 0
v -1512 -1416 0
v -1512 -1392 0
v -1488 -1392 0
v -1512 -1416 0
v -1536 -1416 0
v -1536 -1392 0
v -1512 -1392 0
v -1536 -1416 0
v -1560 -1416 0
v -1560 -1392 0
v -1536 -1392 0
v -1560 -1416 0
v -1584 -1416 0
v -1584 -1392 0
v -1560 -1392 0
v -1584 -1416 0
v -1608 -1416 0
v -1608 -1392 0
v -1584 -1392 0
v -1608 -1416 0
v -1632 -1416 0
v -1632 -1392 0
v -1608 -1392 0
v -1632 -1416 0
v -1656 -1416 0
v -1656 -1392 0
v -1632 -1392 0
v -1656 -1416 0
v -1680 -1416 0
v -1680 -1392 0
v -1656 -1392 0
v -1680 -1416 0
v -1704 -1416 0
v -1704 -1392 0
v -1680 -1392 0
v -1704 -1416 0
v -1728 -1416 0
v -1728 -1392 0
v -1704 -1392 0
v -1728 -1416 0
v -1752 -1416 0
v -1752 -1392 0
v -1728 -1392 0
v -1752 -1416 0
v -1776 -1416 0
v -1776 -1392 0
v -1752 -1392 0
v -1776 -1416 0
v -1800 -1416 0
v -1800 -1392 0
v -1776 -1392 0
v -1800 -1416 0
v -1824 -1416 0
v -1824 -1392 0
v -1800 -1392 0
v -1824 -1416 0
v -1848 -1416 0
v -1848 -1392 0
v -1824 -1392 0
v -1848 -1416 0
v -1872 -1416 0
v -1872 -1392 0
v -1848 -1392 0
v -1872 -1416 0
v -1896 -1416 0
v -1896 -1392 0
v -1872 -1392 0
v -1896 -1416 0
v -1920 -1416 0
v -1920 -1392 0
v -1896 -1392 0
v -1920 -1416 0
v -1944 -1416 0
v -1944 -1392 0
v -1920 -1392 0

# Texture cooridinates (Count = 44)
vt 0.125 0.8666667
vt 0.15625 0.8666667
vt 0.15625 0.9
vt 0.125 0.9
vt 0.1875 0.8666667
vt 0.21875 0.8666667
vt 0.21875 0.9
vt 0.1875 0.9
vt 0.1875 0.8
vt 0.21875 0.8
vt 0.21875 0.8333333
vt 0.1875 0.8333333
vt 0.25 0.8666667
vt 0.25 0.9
vt 0.25 0.8333333
vt 0.125 0.7
vt 0.15625 0.7
vt 0.15625 0.7333333
vt 0.125 0.7333333
vt 0.1875 0.7
vt 0.1875 0.7333333
vt 0.21875 0.7
vt 0.21875 0.7333333
vt 0.25 0.7
vt 0.25 0.7333333
vt 0.125 0.8333333
vt 0.15625 0.8333333
vt 0.125 0.6666666
vt 0.15625 0.6666666
vt 0.1875 0.6666666
vt 0.21875 0.6666666
vt 0.25 0.6666666
vt 0.15625 0.8
vt 0.25 0.8
vt 0.125 0.8
vt 0.1875 0.7666667
vt 0.21875 0.7666667
vt 0.15625 0.7666667
vt 0.125 0.7666667
vt 0.125 0.9333333
vt 0.15625 0.9333333
vt 0.15625 0.9666666
vt 0.125 0.9666666
vt 0.25 0.7666667

# Normal
vn 0 0 -1

# Mesh description
g SalleEW_mesh_0001

# Faces
f 1/1/1 2/2/1 3/3/1 4/4/1
f 5/5/1 6/6/1 7/7/1 8/8/1
f 9/9/1 10/10/1 11/11/1 12/12/1
f 13/2/1 14/5/1 15/8/1 16/3/1
f 17/5/1 18/6/1 19/7/1 20/8/1
f 21/2/1 22/5/1 23/8/1 24/3/1
f 25/5/1 26/6/1 27/7/1 28/8/1
f 29/2/1 30/5/1 31/8/1 32/3/1
f 33/5/1 34/6/1 35/7/1 36/8/1
f 37/2/1 38/5/1 39/8/1 40/3/1
f 41/5/1 42/6/1 43/7/1 44/8/1
f 45/2/1 46/5/1 47/8/1 48/3/1
f 49/5/1 50/6/1 51/7/1 52/8/1
f 53/2/1 54/5/1 55/8/1 56/3/1
f 57/5/1 58/6/1 59/7/1 60/8/1
f 61/2/1 62/5/1 63/8/1 64/3/1
f 65/5/1 66/6/1 67/7/1 68/8/1
f 69/2/1 70/5/1 71/8/1 72/3/1
f 73/5/1 74/6/1 75/7/1 76/8/1
f 77/2/1 78/5/1 79/8/1 80/3/1
f 81/5/1 82/6/1 83/7/1 84/8/1
f 85/5/1 86/6/1 87/7/1 88/8/1
f 89/5/1 90/6/1 91/7/1 92/8/1
f 93/6/1 94/13/1 95/14/1 96/7/1
f 97/1/1 98/2/1 99/3/1 100/4/1
f 101/11/1 102/15/1 103/13/1 104/6/1
f 105/16/1 106/17/1 107/18/1 108/19/1
f 109/17/1 110/20/1 111/21/1 112/18/1
f 113/17/1 114/20/1 115/21/1 116/18/1
f 117/20/1 118/22/1 119/23/1 120/21/1
f 121/17/1 122/20/1 123/21/1 124/18/1
f 125/20/1 126/22/1 127/23/1 128/21/1
f 129/17/1 130/20/1 131/21/1 132/18/1
f 133/20/1 134/22/1 135/23/1 136/21/1
f 137/17/1 138/20/1 139/21/1 140/18/1
f 141/20/1 142/22/1 143/23/1 144/21/1
f 145/17/1 146/20/1 147/21/1 148/18/1
f 149/20/1 150/22/1 151/23/1 152/21/1
f 153/17/1 154/20/1 155/21/1 156/18/1
f 157/20/1 158/22/1 159/23/1 160/21/1
f 161/17/1 162/20/1 163/21/1 164/18/1
f 165/20/1 166/22/1 167/23/1 168/21/1
f 169/17/1 170/20/1 171/21/1 172/18/1
f 173/17/1 174/20/1 175/21/1 176/18/1
f 177/20/1 178/22/1 179/23/1 180/21/1
f 181/22/1 182/24/1 183/25/1 184/23/1
f 185/26/1 186/27/1 187/2/1 188/1/1
f 189/11/1 190/15/1 191/13/1 192/6/1
f 193/26/1 194/27/1 195/2/1 196/1/1
f 197/6/1 198/13/1 199/14/1 200/7/1
f 201/28/1 202/29/1 203/17/1 204/16/1
f 205/29/1 206/30/1 207/20/1 208/17/1
f 209/29/1 210/30/1 211/20/1 212/17/1
f 213/30/1 214/31/1 215/22/1 216/20/1
f 217/29/1 218/30/1 219/20/1 220/17/1
f 221/30/1 222/31/1 223/22/1 224/20/1
f 225/29/1 226/30/1 227/20/1 228/17/1
f 229/30/1 230/31/1 231/22/1 232/20/1
f 233/29/1 234/30/1 235/20/1 236/17/1
f 237/30/1 238/31/1 239/22/1 240/20/1
f 241/29/1 242/30/1 243/20/1 244/17/1
f 245/30/1 246/31/1 247/22/1 248/20/1
f 249/29/1 250/30/1 251/20/1 252/17/1
f 253/30/1 254/31/1 255/22/1 256/20/1
f 257/29/1 258/30/1 259/20/1 260/17/1
f 261/30/1 262/31/1 263/22/1 264/20/1
f 265/29/1 266/30/1 267/20/1 268/17/1
f 269/29/1 270/30/1 271/20/1 272/17/1
f 273/30/1 274/31/1 275/22/1 276/20/1
f 277/31/1 278/32/1 279/24/1 280/22/1
f 281/1/1 282/2/1 283/3/1 284/4/1
f 285/6/1 286/13/1 287/14/1 288/7/1
f 289/1/1 290/2/1 291/3/1 292/4/1
f 293/11/1 294/15/1 295/13/1 296/6/1
f 297/26/1 298/27/1 299/2/1 300/1/1
f 301/11/1 302/15/1 303/13/1 304/6/1
f 305/27/1 306/12/1 307/5/1 308/2/1
f 309/6/1 310/13/1 311/14/1 312/7/1
f 313/1/1 314/2/1 315/3/1 316/4/1
f 317/2/1 318/5/1 319/8/1 320/3/1
f 321/33/1 322/9/1 323/12/1 324/27/1
f 325/9/1 326/10/1 327/11/1 328/12/1
f 329/33/1 330/9/1 331/12/1 332/27/1
f 333/33/1 334/9/1 335/12/1 336/27/1
f 337/9/1 338/10/1 339/11/1 340/12/1
f 341/10/1 342/34/1 343/15/1 344/11/1
f 345/35/1 346/33/1 347/27/1 348/26/1
f 349/33/1 350/9/1 351/12/1 352/27/1
f 353/33/1 354/9/1 355/12/1 356/27/1
f 357/9/1 358/10/1 359/11/1 360/12/1
f 361/33/1 362/9/1 363/12/1 364/27/1
f 365/9/1 366/10/1 367/11/1 368/12/1
f 369/36/1 370/37/1 371/10/1 372/9/1
f 373/38/1 374/36/1 375/9/1 376/33/1
f 377/36/1 378/37/1 379/10/1 380/9/1
f 381/17/1 382/20/1 383/21/1 384/18/1
f 385/20/1 386/22/1 387/23/1 388/21/1
f 389/38/1 390/36/1 391/9/1 392/33/1
f 393/39/1 394/38/1 395/33/1 396/35/1
f 397/38/1 398/36/1 399/9/1 400/33/1
f 401/36/1 402/37/1 403/10/1 404/9/1
f 405/38/1 406/36/1 407/9/1 408/33/1
f 409/36/1 410/37/1 411/10/1 412/9/1
f 413/38/1 414/36/1 415/9/1 416/33/1
f 417/30/1 418/31/1 419/22/1 420/20/1
f 421/29/1 422/30/1 423/20/1 424/17/1
f 425/30/1 426/31/1 427/22/1 428/20/1
f 429/29/1 430/30/1 431/20/1 432/17/1
f 433/30/1 434/31/1 435/22/1 436/20/1
f 437/29/1 438/30/1 439/20/1 440/17/1
f 441/28/1 442/29/1 443/17/1 444/16/1
f 445/29/1 446/30/1 447/20/1 448/17/1
f 449/30/1 450/31/1 451/22/1 452/20/1
f 453/29/1 454/30/1 455/20/1 456/17/1
f 457/30/1 458/31/1 459/22/1 460/20/1
f 461/29/1 462/30/1 463/20/1 464/17/1
f 465/9/1 466/10/1 467/11/1 468/12/1
f 469/33/1 470/9/1 471/12/1 472/27/1
f 473/9/1 474/10/1 475/11/1 476/12/1
f 477/33/1 478/9/1 479/12/1 480/27/1
f 481/2/1 482/5/1 483/8/1 484/3/1
f 485/6/1 486/13/1 487/14/1 488/7/1
f 489/1/1 490/2/1 491/3/1 492/4/1
f 493/27/1 494/12/1 495/5/1 496/2/1
f 497/9/1 498/10/1 499/11/1 500/12/1
f 501/33/1 502/9/1 503/12/1 504/27/1
f 505/9/1 506/10/1 507/11/1 508/12/1
f 509/33/1 510/9/1 511/12/1 512/27/1
f 513/38/1 514/36/1 515/9/1 516/33/1
f 517/38/1 518/36/1 519/9/1 520/33/1
f 521/36/1 522/37/1 523/10/1 524/9/1
f 525/38/1 526/36/1 527/9/1 528/33/1
f 529/1/1 530/2/1 531/3/1 532/4/1
f 533/11/1 534/15/1 535/13/1 536/6/1
f 537/1/1 538/2/1 539/3/1 540/4/1
f 541/6/1 542/13/1 543/14/1 544/7/1
f 545/38/1 546/36/1 547/9/1 548/33/1
f 549/38/1 550/36/1 551/9/1 552/33/1
f 553/36/1 554/37/1 555/10/1 556/9/1
f 557/38/1 558/36/1 559/9/1 560/33/1
f 561/28/1 562/29/1 563/17/1 564/16/1
f 565/29/1 566/30/1 567/20/1 568/17/1
f 569/30/1 570/31/1 571/22/1 572/20/1
f 573/29/1 574/30/1 575/20/1 576/17/1
f 577/1/1 578/2/1 579/3/1 580/4/1
f 581/11/1 582/15/1 583/13/1 584/6/1
f 585/26/1 586/27/1 587/2/1 588/1/1
f 589/11/1 590/15/1 591/13/1 592/6/1
f 593/28/1 594/29/1 595/17/1 596/16/1
f 597/29/1 598/30/1 599/20/1 600/17/1
f 601/30/1 602/31/1 603/22/1 604/20/1
f 605/29/1 606/30/1 607/20/1 608/17/1
f 609/26/1 610/27/1 611/2/1 612/1/1
f 613/6/1 614/13/1 615/14/1 616/7/1
f 617/1/1 618/2/1 619/3/1 620/4/1
f 621/6/1 622/13/1 623/14/1 624/7/1
f 625/1/1 626/2/1 627/3/1 628/4/1
f 629/2/1 630/5/1 631/8/1 632/3/1
f 633/2/1 634/5/1 635/8/1 636/3/1
f 637/11/1 638/15/1 639/13/1 640/6/1
f 641/40/1 642/41/1 643/42/1 644/43/1
f 645/33/1 646/9/1 647/12/1 648/27/1
f 649/9/1 650/10/1 651/11/1 652/12/1
f 653/33/1 654/9/1 655/12/1 656/27/1
f 657/9/1 658/10/1 659/11/1 660/12/1
f 661/33/1 662/9/1 663/12/1 664/27/1
f 665/9/1 666/10/1 667/11/1 668/12/1
f 669/33/1 670/9/1 671/12/1 672/27/1
f 673/9/1 674/10/1 675/11/1 676/12/1
f 677/33/1 678/9/1 679/12/1 680/27/1
f 681/9/1 682/10/1 683/11/1 684/12/1
f 685/33/1 686/9/1 687/12/1 688/27/1
f 689/9/1 690/10/1 691/11/1 692/12/1
f 693/33/1 694/9/1 695/12/1 696/27/1
f 697/9/1 698/10/1 699/11/1 700/12/1
f 701/33/1 702/9/1 703/12/1 704/27/1
f 705/9/1 706/10/1 707/11/1 708/12/1
f 709/33/1 710/9/1 711/12/1 712/27/1
f 713/9/1 714/10/1 715/11/1 716/12/1
f 717/33/1 718/9/1 719/12/1 720/27/1
f 721/9/1 722/10/1 723/11/1 724/12/1
f 725/33/1 726/9/1 727/12/1 728/27/1
f 729/9/1 730/10/1 731/11/1 732/12/1
f 733/10/1 734/34/1 735/15/1 736/11/1
f 737/19/1 738/18/1 739/38/1 740/39/1
f 741/18/1 742/21/1 743/36/1 744/38/1
f 745/21/1 746/23/1 747/37/1 748/36/1
f 749/18/1 750/21/1 751/36/1 752/38/1
f 753/21/1 754/23/1 755/37/1 756/36/1
f 757/18/1 758/21/1 759/36/1 760/38/1
f 761/21/1 762/23/1 763/37/1 764/36/1
f 765/18/1 766/21/1 767/36/1 768/38/1
f 769/21/1 770/23/1 771/37/1 772/36/1
f 773/18/1 774/21/1 775/36/1 776/38/1
f 777/21/1 778/23/1 779/37/1 780/36/1
f 781/18/1 782/21/1 783/36/1 784/38/1
f 785/21/1 786/23/1 787/37/1 788/36/1
f 789/18/1 790/21/1 791/36/1 792/38/1
f 793/21/1 794/23/1 795/37/1 796/36/1
f 797/18/1 798/21/1 799/36/1 800/38/1
f 801/21/1 802/23/1 803/37/1 804/36/1
f 805/18/1 806/21/1 807/36/1 808/38/1
f 809/21/1 810/23/1 811/37/1 812/36/1
f 813/18/1 814/21/1 815/36/1 816/38/1
f 817/21/1 818/23/1 819/37/1 820/36/1
f 821/18/1 822/21/1 823/36/1 824/38/1
f 825/21/1 826/23/1 827/37/1 828/36/1
f 829/23/1 830/25/1 831/44/1 832/37/1
f 833/28/1 834/29/1 835/17/1 836/16/1
f 837/29/1 838/30/1 839/20/1 840/17/1
f 841/30/1 842/31/1 843/22/1 844/20/1
f 845/29/1 846/30/1 847/20/1 848/17/1
f 849/30/1 850/31/1 851/22/1 852/20/1
f 853/29/1 854/30/1 855/20/1 856/17/1
f 857/30/1 858/31/1 859/22/1 860/20/1
f 861/29/1 862/30/1 863/20/1 864/17/1
f 865/30/1 866/31/1 867/22/1 868/20/1
f 869/29/1 870/30/1 871/20/1 872/17/1
f 873/30/1 874/31/1 875/22/1 876/20/1
f 877/29/1 878/30/1 879/20/1 880/17/1
f 881/30/1 882/31/1 883/22/1 884/20/1
f 885/29/1 886/30/1 887/20/1 888/17/1
f 889/30/1 890/31/1 891/22/1 892/20/1
f 893/29/1 894/30/1 895/20/1 896/17/1
f 897/30/1 898/31/1 899/22/1 900/20/1
f 901/29/1 902/30/1 903/20/1 904/17/1
f 905/30/1 906/31/1 907/22/1 908/20/1
f 909/29/1 910/30/1 911/20/1 912/17/1
f 913/30/1 914/31/1 915/22/1 916/20/1
f 917/29/1 918/30/1 919/20/1 920/17/1
f 921/30/1 922/31/1 923/22/1 924/20/1
f 925/31/1 926/32/1 927/24/1 928/22/1

