# Tiled2Unity generated file. Do not modify by hand.
# Wavefront file for 'SalleN-Tonneaux_mesh_0006.obj'

# Vertices (Count = 40)
v -1800 -1032 0
v -1824 -1032 0
v -1824 -1008 0
v -1800 -1008 0
v -1824 -1032 0
v -1848 -1032 0
v -1848 -1008 0
v -1824 -1008 0
v -1848 -1032 0
v -1872 -1032 0
v -1872 -1008 0
v -1848 -1008 0
v -1872 -1032 0
v -1896 -1032 0
v -1896 -1008 0
v -1872 -1008 0
v -1800 -1056 0
v -1824 -1056 0
v -1824 -1032 0
v -1800 -1032 0
v -1824 -1056 0
v -1848 -1056 0
v -1848 -1032 0
v -1824 -1032 0
v -1848 -1056 0
v -1872 -1056 0
v -1872 -1032 0
v -1848 -1032 0
v -1872 -1056 0
v -1896 -1056 0
v -1896 -1032 0
v -1872 -1032 0
v -1416 -1104 0
v -1440 -1104 0
v -1440 -1080 0
v -1416 -1080 0
v -1440 -1104 0
v -1464 -1104 0
v -1464 -1080 0
v -1440 -1080 0

# Texture cooridinates (Count = 21)
vt 0.5 0.40625
vt 0.53125 0.40625
vt 0.53125 0.4375
vt 0.5 0.4375
vt 0.5625 0.40625
vt 0.5625 0.4375
vt 0.59375 0.40625
vt 0.59375 0.4375
vt 0.625 0.40625
vt 0.625 0.4375
vt 0.5 0.375
vt 0.53125 0.375
vt 0.5625 0.375
vt 0.59375 0.375
vt 0.625 0.375
vt 0.875 0.15625
vt 0.90625 0.15625
vt 0.90625 0.1875
vt 0.875 0.1875
vt 0.9375 0.15625
vt 0.9375 0.1875

# Normal
vn 0 0 -1

# Mesh description
g SalleN-Tonneaux_mesh_0006

# Faces
f 1/1/1 2/2/1 3/3/1 4/4/1
f 5/2/1 6/5/1 7/6/1 8/3/1
f 9/5/1 10/7/1 11/8/1 12/6/1
f 13/7/1 14/9/1 15/10/1 16/8/1
f 17/11/1 18/12/1 19/2/1 20/1/1
f 21/12/1 22/13/1 23/5/1 24/2/1
f 25/13/1 26/14/1 27/7/1 28/5/1
f 29/14/1 30/15/1 31/9/1 32/7/1
f 33/16/1 34/17/1 35/18/1 36/19/1
f 37/17/1 38/20/1 39/21/1 40/18/1

