# Tiled2Unity generated file. Do not modify by hand.
# Wavefront file for 'SalleN-Tonneaux_mesh_0004.obj'

# Vertices (Count = 48)
v -1776 -1080 0
v -1800 -1080 0
v -1800 -1056 0
v -1776 -1056 0
v -1800 -1080 0
v -1824 -1080 0
v -1824 -1056 0
v -1800 -1056 0
v -1776 -1104 0
v -1800 -1104 0
v -1800 -1080 0
v -1776 -1080 0
v -1800 -1104 0
v -1824 -1104 0
v -1824 -1080 0
v -1800 -1080 0
v -1824 -1104 0
v -1848 -1104 0
v -1848 -1080 0
v -1824 -1080 0
v -1848 -1104 0
v -1872 -1104 0
v -1872 -1080 0
v -1848 -1080 0
v -1416 -1128 0
v -1440 -1128 0
v -1440 -1104 0
v -1416 -1104 0
v -1440 -1128 0
v -1464 -1128 0
v -1464 -1104 0
v -1440 -1104 0
v -1824 -1128 0
v -1848 -1128 0
v -1848 -1104 0
v -1824 -1104 0
v -1848 -1128 0
v -1872 -1128 0
v -1872 -1104 0
v -1848 -1104 0
v -1416 -1152 0
v -1440 -1152 0
v -1440 -1128 0
v -1416 -1128 0
v -1440 -1152 0
v -1464 -1152 0
v -1464 -1128 0
v -1440 -1128 0

# Texture cooridinates (Count = 18)
vt 0.5 0.28125
vt 0.53125 0.28125
vt 0.53125 0.3125
vt 0.5 0.3125
vt 0.5625 0.28125
vt 0.5625 0.3125
vt 0.5 0.25
vt 0.53125 0.25
vt 0.5625 0.25
vt 0.9375 0.15625
vt 0.96875 0.15625
vt 0.96875 0.1875
vt 0.9375 0.1875
vt 1 0.15625
vt 1 0.1875
vt 0.9375 0.125
vt 0.96875 0.125
vt 1 0.125

# Normal
vn 0 0 -1

# Mesh description
g SalleN-Tonneaux_mesh_0004

# Faces
f 1/1/1 2/2/1 3/3/1 4/4/1
f 5/2/1 6/5/1 7/6/1 8/3/1
f 9/7/1 10/8/1 11/2/1 12/1/1
f 13/8/1 14/9/1 15/5/1 16/2/1
f 17/1/1 18/2/1 19/3/1 20/4/1
f 21/2/1 22/5/1 23/6/1 24/3/1
f 25/10/1 26/11/1 27/12/1 28/13/1
f 29/11/1 30/14/1 31/15/1 32/12/1
f 33/7/1 34/8/1 35/2/1 36/1/1
f 37/8/1 38/9/1 39/5/1 40/2/1
f 41/16/1 42/17/1 43/11/1 44/10/1
f 45/17/1 46/18/1 47/14/1 48/11/1

