# Tiled2Unity generated file. Do not modify by hand.
# Wavefront file for 'Map_1_mesh_0001.obj'

# Vertices (Count = 816)
v -816 -576 0
v -840 -576 0
v -840 -552 0
v -816 -552 0
v -840 -576 0
v -864 -576 0
v -864 -552 0
v -840 -552 0
v -864 -576 0
v -888 -576 0
v -888 -552 0
v -864 -552 0
v -888 -576 0
v -912 -576 0
v -912 -552 0
v -888 -552 0
v -912 -576 0
v -936 -576 0
v -936 -552 0
v -912 -552 0
v -936 -576 0
v -960 -576 0
v -960 -552 0
v -936 -552 0
v -960 -576 0
v -984 -576 0
v -984 -552 0
v -960 -552 0
v -984 -576 0
v -1008 -576 0
v -1008 -552 0
v -984 -552 0
v -1008 -576 0
v -1032 -576 0
v -1032 -552 0
v -1008 -552 0
v -1032 -576 0
v -1056 -576 0
v -1056 -552 0
v -1032 -552 0
v -816 -600 0
v -840 -600 0
v -840 -576 0
v -816 -576 0
v -840 -600 0
v -864 -600 0
v -864 -576 0
v -840 -576 0
v -864 -600 0
v -888 -600 0
v -888 -576 0
v -864 -576 0
v -888 -600 0
v -912 -600 0
v -912 -576 0
v -888 -576 0
v -912 -600 0
v -936 -600 0
v -936 -576 0
v -912 -576 0
v -936 -600 0
v -960 -600 0
v -960 -576 0
v -936 -576 0
v -960 -600 0
v -984 -600 0
v -984 -576 0
v -960 -576 0
v -984 -600 0
v -1008 -600 0
v -1008 -576 0
v -984 -576 0
v -1008 -600 0
v -1032 -600 0
v -1032 -576 0
v -1008 -576 0
v -1032 -600 0
v -1056 -600 0
v -1056 -576 0
v -1032 -576 0
v -816 -624 0
v -840 -624 0
v -840 -600 0
v -816 -600 0
v -840 -624 0
v -864 -624 0
v -864 -600 0
v -840 -600 0
v -864 -624 0
v -888 -624 0
v -888 -600 0
v -864 -600 0
v -888 -624 0
v -912 -624 0
v -912 -600 0
v -888 -600 0
v -912 -624 0
v -936 -624 0
v -936 -600 0
v -912 -600 0
v -936 -624 0
v -960 -624 0
v -960 -600 0
v -936 -600 0
v -960 -624 0
v -984 -624 0
v -984 -600 0
v -960 -600 0
v -984 -624 0
v -1008 -624 0
v -1008 -600 0
v -984 -600 0
v -1008 -624 0
v -1032 -624 0
v -1032 -600 0
v -1008 -600 0
v -1032 -624 0
v -1056 -624 0
v -1056 -600 0
v -1032 -600 0
v -768 -648 0
v -792 -648 0
v -792 -624 0
v -768 -624 0
v -792 -648 0
v -816 -648 0
v -816 -624 0
v -792 -624 0
v -816 -648 0
v -840 -648 0
v -840 -624 0
v -816 -624 0
v -840 -648 0
v -864 -648 0
v -864 -624 0
v -840 -624 0
v -864 -648 0
v -888 -648 0
v -888 -624 0
v -864 -624 0
v -888 -648 0
v -912 -648 0
v -912 -624 0
v -888 -624 0
v -912 -648 0
v -936 -648 0
v -936 -624 0
v -912 -624 0
v -936 -648 0
v -960 -648 0
v -960 -624 0
v -936 -624 0
v -960 -648 0
v -984 -648 0
v -984 -624 0
v -960 -624 0
v -984 -648 0
v -1008 -648 0
v -1008 -624 0
v -984 -624 0
v -1008 -648 0
v -1032 -648 0
v -1032 -624 0
v -1008 -624 0
v -1032 -648 0
v -1056 -648 0
v -1056 -624 0
v -1032 -624 0
v -1056 -648 0
v -1080 -648 0
v -1080 -624 0
v -1056 -624 0
v -1080 -648 0
v -1104 -648 0
v -1104 -624 0
v -1080 -624 0
v -768 -672 0
v -792 -672 0
v -792 -648 0
v -768 -648 0
v -792 -672 0
v -816 -672 0
v -816 -648 0
v -792 -648 0
v -816 -672 0
v -840 -672 0
v -840 -648 0
v -816 -648 0
v -840 -672 0
v -864 -672 0
v -864 -648 0
v -840 -648 0
v -864 -672 0
v -888 -672 0
v -888 -648 0
v -864 -648 0
v -888 -672 0
v -912 -672 0
v -912 -648 0
v -888 -648 0
v -912 -672 0
v -936 -672 0
v -936 -648 0
v -912 -648 0
v -936 -672 0
v -960 -672 0
v -960 -648 0
v -936 -648 0
v -960 -672 0
v -984 -672 0
v -984 -648 0
v -960 -648 0
v -984 -672 0
v -1008 -672 0
v -1008 -648 0
v -984 -648 0
v -1008 -672 0
v -1032 -672 0
v -1032 -648 0
v -1008 -648 0
v -1032 -672 0
v -1056 -672 0
v -1056 -648 0
v -1032 -648 0
v -1056 -672 0
v -1080 -672 0
v -1080 -648 0
v -1056 -648 0
v -1080 -672 0
v -1104 -672 0
v -1104 -648 0
v -1080 -648 0
v -720 -696 0
v -744 -696 0
v -744 -672 0
v -720 -672 0
v -744 -696 0
v -768 -696 0
v -768 -672 0
v -744 -672 0
v -768 -696 0
v -792 -696 0
v -792 -672 0
v -768 -672 0
v -792 -696 0
v -816 -696 0
v -816 -672 0
v -792 -672 0
v -816 -696 0
v -840 -696 0
v -840 -672 0
v -816 -672 0
v -840 -696 0
v -864 -696 0
v -864 -672 0
v -840 -672 0
v -864 -696 0
v -888 -696 0
v -888 -672 0
v -864 -672 0
v -888 -696 0
v -912 -696 0
v -912 -672 0
v -888 -672 0
v -912 -696 0
v -936 -696 0
v -936 -672 0
v -912 -672 0
v -936 -696 0
v -960 -696 0
v -960 -672 0
v -936 -672 0
v -960 -696 0
v -984 -696 0
v -984 -672 0
v -960 -672 0
v -984 -696 0
v -1008 -696 0
v -1008 -672 0
v -984 -672 0
v -1008 -696 0
v -1032 -696 0
v -1032 -672 0
v -1008 -672 0
v -1032 -696 0
v -1056 -696 0
v -1056 -672 0
v -1032 -672 0
v -1056 -696 0
v -1080 -696 0
v -1080 -672 0
v -1056 -672 0
v -1080 -696 0
v -1104 -696 0
v -1104 -672 0
v -1080 -672 0
v -1104 -696 0
v -1128 -696 0
v -1128 -672 0
v -1104 -672 0
v -1128 -696 0
v -1152 -696 0
v -1152 -672 0
v -1128 -672 0
v -720 -720 0
v -744 -720 0
v -744 -696 0
v -720 -696 0
v -744 -720 0
v -768 -720 0
v -768 -696 0
v -744 -696 0
v -768 -720 0
v -792 -720 0
v -792 -696 0
v -768 -696 0
v -792 -720 0
v -816 -720 0
v -816 -696 0
v -792 -696 0
v -1056 -720 0
v -1080 -720 0
v -1080 -696 0
v -1056 -696 0
v -1080 -720 0
v -1104 -720 0
v -1104 -696 0
v -1080 -696 0
v -1104 -720 0
v -1128 -720 0
v -1128 -696 0
v -1104 -696 0
v -1128 -720 0
v -1152 -720 0
v -1152 -696 0
v -1128 -696 0
v -720 -744 0
v -744 -744 0
v -744 -720 0
v -720 -720 0
v -744 -744 0
v -768 -744 0
v -768 -720 0
v -744 -720 0
v -768 -744 0
v -792 -744 0
v -792 -720 0
v -768 -720 0
v -792 -744 0
v -816 -744 0
v -816 -720 0
v -792 -720 0
v -1056 -744 0
v -1080 -744 0
v -1080 -720 0
v -1056 -720 0
v -1080 -744 0
v -1104 -744 0
v -1104 -720 0
v -1080 -720 0
v -1104 -744 0
v -1128 -744 0
v -1128 -720 0
v -1104 -720 0
v -1128 -744 0
v -1152 -744 0
v -1152 -720 0
v -1128 -720 0
v -720 -768 0
v -744 -768 0
v -744 -744 0
v -720 -744 0
v -744 -768 0
v -768 -768 0
v -768 -744 0
v -744 -744 0
v -768 -768 0
v -792 -768 0
v -792 -744 0
v -768 -744 0
v -792 -768 0
v -816 -768 0
v -816 -744 0
v -792 -744 0
v -1056 -768 0
v -1080 -768 0
v -1080 -744 0
v -1056 -744 0
v -1080 -768 0
v -1104 -768 0
v -1104 -744 0
v -1080 -744 0
v -1104 -768 0
v -1128 -768 0
v -1128 -744 0
v -1104 -744 0
v -1128 -768 0
v -1152 -768 0
v -1152 -744 0
v -1128 -744 0
v -720 -792 0
v -744 -792 0
v -744 -768 0
v -720 -768 0
v -744 -792 0
v -768 -792 0
v -768 -768 0
v -744 -768 0
v -1104 -792 0
v -1128 -792 0
v -1128 -768 0
v -1104 -768 0
v -1128 -792 0
v -1152 -792 0
v -1152 -768 0
v -1128 -768 0
v -720 -816 0
v -744 -816 0
v -744 -792 0
v -720 -792 0
v -744 -816 0
v -768 -816 0
v -768 -792 0
v -744 -792 0
v -1104 -816 0
v -1128 -816 0
v -1128 -792 0
v -1104 -792 0
v -1128 -816 0
v -1152 -816 0
v -1152 -792 0
v -1128 -792 0
v -720 -840 0
v -744 -840 0
v -744 -816 0
v -720 -816 0
v -744 -840 0
v -768 -840 0
v -768 -816 0
v -744 -816 0
v -840 -840 0
v -864 -840 0
v -864 -816 0
v -840 -816 0
v -1104 -840 0
v -1128 -840 0
v -1128 -816 0
v -1104 -816 0
v -1128 -840 0
v -1152 -840 0
v -1152 -816 0
v -1128 -816 0
v -720 -864 0
v -744 -864 0
v -744 -840 0
v -720 -840 0
v -744 -864 0
v -768 -864 0
v -768 -840 0
v -744 -840 0
v -1104 -864 0
v -1128 -864 0
v -1128 -840 0
v -1104 -840 0
v -1128 -864 0
v -1152 -864 0
v -1152 -840 0
v -1128 -840 0
v -720 -888 0
v -744 -888 0
v -744 -864 0
v -720 -864 0
v -744 -888 0
v -768 -888 0
v -768 -864 0
v -744 -864 0
v -864 -888 0
v -888 -888 0
v -888 -864 0
v -864 -864 0
v -1104 -888 0
v -1128 -888 0
v -1128 -864 0
v -1104 -864 0
v -1128 -888 0
v -1152 -888 0
v -1152 -864 0
v -1128 -864 0
v -720 -912 0
v -744 -912 0
v -744 -888 0
v -720 -888 0
v -744 -912 0
v -768 -912 0
v -768 -888 0
v -744 -888 0
v -1104 -912 0
v -1128 -912 0
v -1128 -888 0
v -1104 -888 0
v -1128 -912 0
v -1152 -912 0
v -1152 -888 0
v -1128 -888 0
v -720 -936 0
v -744 -936 0
v -744 -912 0
v -720 -912 0
v -744 -936 0
v -768 -936 0
v -768 -912 0
v -744 -912 0
v -1104 -936 0
v -1128 -936 0
v -1128 -912 0
v -1104 -912 0
v -1128 -936 0
v -1152 -936 0
v -1152 -912 0
v -1128 -912 0
v -720 -960 0
v -744 -960 0
v -744 -936 0
v -720 -936 0
v -744 -960 0
v -768 -960 0
v -768 -936 0
v -744 -936 0
v -1104 -960 0
v -1128 -960 0
v -1128 -936 0
v -1104 -936 0
v -1128 -960 0
v -1152 -960 0
v -1152 -936 0
v -1128 -936 0
v -720 -984 0
v -744 -984 0
v -744 -960 0
v -720 -960 0
v -744 -984 0
v -768 -984 0
v -768 -960 0
v -744 -960 0
v -768 -984 0
v -792 -984 0
v -792 -960 0
v -768 -960 0
v -792 -984 0
v -816 -984 0
v -816 -960 0
v -792 -960 0
v -816 -984 0
v -840 -984 0
v -840 -960 0
v -816 -960 0
v -840 -984 0
v -864 -984 0
v -864 -960 0
v -840 -960 0
v -864 -984 0
v -888 -984 0
v -888 -960 0
v -864 -960 0
v -888 -984 0
v -912 -984 0
v -912 -960 0
v -888 -960 0
v -912 -984 0
v -936 -984 0
v -936 -960 0
v -912 -960 0
v -936 -984 0
v -960 -984 0
v -960 -960 0
v -936 -960 0
v -960 -984 0
v -984 -984 0
v -984 -960 0
v -960 -960 0
v -984 -984 0
v -1008 -984 0
v -1008 -960 0
v -984 -960 0
v -1008 -984 0
v -1032 -984 0
v -1032 -960 0
v -1008 -960 0
v -1032 -984 0
v -1056 -984 0
v -1056 -960 0
v -1032 -960 0
v -1056 -984 0
v -1080 -984 0
v -1080 -960 0
v -1056 -960 0
v -1080 -984 0
v -1104 -984 0
v -1104 -960 0
v -1080 -960 0
v -1104 -984 0
v -1128 -984 0
v -1128 -960 0
v -1104 -960 0
v -1128 -984 0
v -1152 -984 0
v -1152 -960 0
v -1128 -960 0
v -720 -1008 0
v -744 -1008 0
v -744 -984 0
v -720 -984 0
v -744 -1008 0
v -768 -1008 0
v -768 -984 0
v -744 -984 0
v -768 -1008 0
v -792 -1008 0
v -792 -984 0
v -768 -984 0
v -792 -1008 0
v -816 -1008 0
v -816 -984 0
v -792 -984 0
v -816 -1008 0
v -840 -1008 0
v -840 -984 0
v -816 -984 0
v -840 -1008 0
v -864 -1008 0
v -864 -984 0
v -840 -984 0
v -864 -1008 0
v -888 -1008 0
v -888 -984 0
v -864 -984 0
v -888 -1008 0
v -912 -1008 0
v -912 -984 0
v -888 -984 0
v -912 -1008 0
v -936 -1008 0
v -936 -984 0
v -912 -984 0
v -936 -1008 0
v -960 -1008 0
v -960 -984 0
v -936 -984 0
v -960 -1008 0
v -984 -1008 0
v -984 -984 0
v -960 -984 0
v -984 -1008 0
v -1008 -1008 0
v -1008 -984 0
v -984 -984 0
v -1008 -1008 0
v -1032 -1008 0
v -1032 -984 0
v -1008 -984 0
v -1032 -1008 0
v -1056 -1008 0
v -1056 -984 0
v -1032 -984 0
v -1056 -1008 0
v -1080 -1008 0
v -1080 -984 0
v -1056 -984 0
v -1080 -1008 0
v -1104 -1008 0
v -1104 -984 0
v -1080 -984 0
v -1104 -1008 0
v -1128 -1008 0
v -1128 -984 0
v -1104 -984 0
v -1128 -1008 0
v -1152 -1008 0
v -1152 -984 0
v -1128 -984 0
v -720 -1032 0
v -744 -1032 0
v -744 -1008 0
v -720 -1008 0
v -744 -1032 0
v -768 -1032 0
v -768 -1008 0
v -744 -1008 0
v -768 -1032 0
v -792 -1032 0
v -792 -1008 0
v -768 -1008 0
v -792 -1032 0
v -816 -1032 0
v -816 -1008 0
v -792 -1008 0
v -816 -1032 0
v -840 -1032 0
v -840 -1008 0
v -816 -1008 0
v -840 -1032 0
v -864 -1032 0
v -864 -1008 0
v -840 -1008 0
v -864 -1032 0
v -888 -1032 0
v -888 -1008 0
v -864 -1008 0
v -888 -1032 0
v -912 -1032 0
v -912 -1008 0
v -888 -1008 0
v -912 -1032 0
v -936 -1032 0
v -936 -1008 0
v -912 -1008 0
v -936 -1032 0
v -960 -1032 0
v -960 -1008 0
v -936 -1008 0
v -960 -1032 0
v -984 -1032 0
v -984 -1008 0
v -960 -1008 0
v -984 -1032 0
v -1008 -1032 0
v -1008 -1008 0
v -984 -1008 0
v -1008 -1032 0
v -1032 -1032 0
v -1032 -1008 0
v -1008 -1008 0
v -1032 -1032 0
v -1056 -1032 0
v -1056 -1008 0
v -1032 -1008 0
v -1056 -1032 0
v -1080 -1032 0
v -1080 -1008 0
v -1056 -1008 0
v -1080 -1032 0
v -1104 -1032 0
v -1104 -1008 0
v -1080 -1008 0
v -1104 -1032 0
v -1128 -1032 0
v -1128 -1008 0
v -1104 -1008 0
v -1128 -1032 0
v -1152 -1032 0
v -1152 -1008 0
v -1128 -1008 0
v -744 -1056 0
v -768 -1056 0
v -768 -1032 0
v -744 -1032 0
v -768 -1056 0
v -792 -1056 0
v -792 -1032 0
v -768 -1032 0
v -792 -1056 0
v -816 -1056 0
v -816 -1032 0
v -792 -1032 0
v -816 -1056 0
v -840 -1056 0
v -840 -1032 0
v -816 -1032 0
v -840 -1056 0
v -864 -1056 0
v -864 -1032 0
v -840 -1032 0
v -864 -1056 0
v -888 -1056 0
v -888 -1032 0
v -864 -1032 0
v -888 -1056 0
v -912 -1056 0
v -912 -1032 0
v -888 -1032 0
v -912 -1056 0
v -936 -1056 0
v -936 -1032 0
v -912 -1032 0
v -936 -1056 0
v -960 -1056 0
v -960 -1032 0
v -936 -1032 0
v -960 -1056 0
v -984 -1056 0
v -984 -1032 0
v -960 -1032 0
v -984 -1056 0
v -1008 -1056 0
v -1008 -1032 0
v -984 -1032 0
v -1008 -1056 0
v -1032 -1056 0
v -1032 -1032 0
v -1008 -1032 0
v -1032 -1056 0
v -1056 -1056 0
v -1056 -1032 0
v -1032 -1032 0
v -1056 -1056 0
v -1080 -1056 0
v -1080 -1032 0
v -1056 -1032 0
v -1080 -1056 0
v -1104 -1056 0
v -1104 -1032 0
v -1080 -1032 0
v -1104 -1056 0
v -1128 -1056 0
v -1128 -1032 0
v -1104 -1032 0

# Texture cooridinates (Count = 50)
vt 0.125 0.9666666
vt 0.15625 0.9666666
vt 0.15625 1
vt 0.125 1
vt 0.1875 0.9
vt 0.21875 0.9
vt 0.21875 0.9333333
vt 0.1875 0.9333333
vt 0.15625 0.9
vt 0.15625 0.9333333
vt 0.1875 0.9666666
vt 0.1875 1
vt 0.125 0.8666667
vt 0.15625 0.8666667
vt 0.125 0.9
vt 0.15625 0.8
vt 0.1875 0.8
vt 0.1875 0.8333333
vt 0.15625 0.8333333
vt 0.21875 0.8
vt 0.21875 0.8333333
vt 0.21875 0.8666667
vt 0.25 0.8666667
vt 0.25 0.9
vt 0.125 0.7666667
vt 0.15625 0.7666667
vt 0.125 0.8
vt 0.1875 0.7666667
vt 0.21875 0.7666667
vt 0.25 0.7666667
vt 0.25 0.8
vt 0.125 0.7333333
vt 0.15625 0.7333333
vt 0.1875 0.7333333
vt 0.21875 0.7333333
vt 0.25 0.7333333
vt 0.125 0.9333333
vt 0.125 0.7
vt 0.15625 0.7
vt 0.1875 0.7
vt 0.21875 0.7
vt 0.25 0.7
vt 0.125 0.6666666
vt 0.15625 0.6666666
vt 0.1875 0.6666666
vt 0.21875 0.6666666
vt 0.25 0.6666666
vt 0.25 0.8333333
vt 0.125 0.8333333
vt 0.1875 0.8666667

# Normal
vn 0 0 -1

# Mesh description
g Map_1_mesh_0001

# Faces
f 1/1/1 2/2/1 3/3/1 4/4/1
f 5/5/1 6/6/1 7/7/1 8/8/1
f 9/9/1 10/5/1 11/8/1 12/10/1
f 13/5/1 14/6/1 15/7/1 16/8/1
f 17/9/1 18/5/1 19/8/1 20/10/1
f 21/5/1 22/6/1 23/7/1 24/8/1
f 25/9/1 26/5/1 27/8/1 28/10/1
f 29/5/1 30/6/1 31/7/1 32/8/1
f 33/9/1 34/5/1 35/8/1 36/10/1
f 37/2/1 38/11/1 39/12/1 40/3/1
f 41/13/1 42/14/1 43/9/1 44/15/1
f 45/16/1 46/17/1 47/18/1 48/19/1
f 49/17/1 50/20/1 51/21/1 52/18/1
f 53/16/1 54/17/1 55/18/1 56/19/1
f 57/17/1 58/20/1 59/21/1 60/18/1
f 61/16/1 62/17/1 63/18/1 64/19/1
f 65/17/1 66/20/1 67/21/1 68/18/1
f 69/16/1 70/17/1 71/18/1 72/19/1
f 73/17/1 74/20/1 75/21/1 76/18/1
f 77/22/1 78/23/1 79/24/1 80/6/1
f 81/25/1 82/26/1 83/16/1 84/27/1
f 85/26/1 86/28/1 87/17/1 88/16/1
f 89/28/1 90/29/1 91/20/1 92/17/1
f 93/26/1 94/28/1 95/17/1 96/16/1
f 97/28/1 98/29/1 99/20/1 100/17/1
f 101/26/1 102/28/1 103/17/1 104/16/1
f 105/28/1 106/29/1 107/20/1 108/17/1
f 109/26/1 110/28/1 111/17/1 112/16/1
f 113/28/1 114/29/1 115/20/1 116/17/1
f 117/29/1 118/30/1 119/31/1 120/20/1
f 121/1/1 122/2/1 123/3/1 124/4/1
f 125/2/1 126/11/1 127/12/1 128/3/1
f 129/32/1 130/33/1 131/26/1 132/25/1
f 133/33/1 134/34/1 135/28/1 136/26/1
f 137/34/1 138/35/1 139/29/1 140/28/1
f 141/33/1 142/34/1 143/28/1 144/26/1
f 145/34/1 146/35/1 147/29/1 148/28/1
f 149/33/1 150/34/1 151/28/1 152/26/1
f 153/34/1 154/35/1 155/29/1 156/28/1
f 157/33/1 158/34/1 159/28/1 160/26/1
f 161/34/1 162/35/1 163/29/1 164/28/1
f 165/35/1 166/36/1 167/30/1 168/29/1
f 169/1/1 170/2/1 171/3/1 172/4/1
f 173/2/1 174/11/1 175/12/1 176/3/1
f 177/37/1 178/10/1 179/2/1 180/1/1
f 181/10/1 182/8/1 183/11/1 184/2/1
f 185/38/1 186/39/1 187/33/1 188/32/1
f 189/39/1 190/40/1 191/34/1 192/33/1
f 193/40/1 194/41/1 195/35/1 196/34/1
f 197/39/1 198/40/1 199/34/1 200/33/1
f 201/40/1 202/41/1 203/35/1 204/34/1
f 205/39/1 206/40/1 207/34/1 208/33/1
f 209/40/1 210/41/1 211/35/1 212/34/1
f 213/39/1 214/40/1 215/34/1 216/33/1
f 217/40/1 218/41/1 219/35/1 220/34/1
f 221/41/1 222/42/1 223/36/1 224/35/1
f 225/37/1 226/10/1 227/2/1 228/1/1
f 229/10/1 230/8/1 231/11/1 232/2/1
f 233/1/1 234/2/1 235/3/1 236/4/1
f 237/2/1 238/11/1 239/12/1 240/3/1
f 241/25/1 242/26/1 243/16/1 244/27/1
f 245/29/1 246/30/1 247/31/1 248/20/1
f 249/43/1 250/44/1 251/39/1 252/38/1
f 253/44/1 254/45/1 255/40/1 256/39/1
f 257/45/1 258/46/1 259/41/1 260/40/1
f 261/44/1 262/45/1 263/40/1 264/39/1
f 265/45/1 266/46/1 267/41/1 268/40/1
f 269/44/1 270/45/1 271/40/1 272/39/1
f 273/45/1 274/46/1 275/41/1 276/40/1
f 277/44/1 278/45/1 279/40/1 280/39/1
f 281/45/1 282/46/1 283/41/1 284/40/1
f 285/46/1 286/47/1 287/42/1 288/41/1
f 289/25/1 290/26/1 291/16/1 292/27/1
f 293/29/1 294/30/1 295/31/1 296/20/1
f 297/1/1 298/2/1 299/3/1 300/4/1
f 301/2/1 302/11/1 303/12/1 304/3/1
f 305/13/1 306/14/1 307/9/1 308/15/1
f 309/22/1 310/23/1 311/24/1 312/6/1
f 313/32/1 314/33/1 315/26/1 316/25/1
f 317/35/1 318/36/1 319/30/1 320/29/1
f 321/32/1 322/33/1 323/26/1 324/25/1
f 325/35/1 326/36/1 327/30/1 328/29/1
f 329/37/1 330/10/1 331/2/1 332/1/1
f 333/10/1 334/8/1 335/11/1 336/2/1
f 337/13/1 338/14/1 339/9/1 340/15/1
f 341/21/1 342/48/1 343/23/1 344/22/1
f 345/38/1 346/39/1 347/33/1 348/32/1
f 349/41/1 350/42/1 351/36/1 352/35/1
f 353/38/1 354/39/1 355/33/1 356/32/1
f 357/41/1 358/42/1 359/36/1 360/35/1
f 361/13/1 362/14/1 363/9/1 364/15/1
f 365/22/1 366/23/1 367/24/1 368/6/1
f 369/13/1 370/14/1 371/9/1 372/15/1
f 373/22/1 374/23/1 375/24/1 376/6/1
f 377/43/1 378/44/1 379/39/1 380/38/1
f 381/46/1 382/47/1 383/42/1 384/41/1
f 385/43/1 386/44/1 387/39/1 388/38/1
f 389/46/1 390/47/1 391/42/1 392/41/1
f 393/49/1 394/19/1 395/14/1 396/13/1
f 397/22/1 398/23/1 399/24/1 400/6/1
f 401/13/1 402/14/1 403/9/1 404/15/1
f 405/21/1 406/48/1 407/23/1 408/22/1
f 409/13/1 410/14/1 411/9/1 412/15/1
f 413/21/1 414/48/1 415/23/1 416/22/1
f 417/13/1 418/14/1 419/9/1 420/15/1
f 421/22/1 422/23/1 423/24/1 424/6/1
f 425/49/1 426/19/1 427/14/1 428/13/1
f 429/21/1 430/48/1 431/23/1 432/22/1
f 433/13/1 434/14/1 435/9/1 436/15/1
f 437/21/1 438/48/1 439/23/1 440/22/1
f 441/50/1 442/22/1 443/6/1 444/5/1
f 445/13/1 446/14/1 447/9/1 448/15/1
f 449/22/1 450/23/1 451/24/1 452/6/1
f 453/13/1 454/14/1 455/9/1 456/15/1
f 457/22/1 458/23/1 459/24/1 460/6/1
f 461/13/1 462/14/1 463/9/1 464/15/1
f 465/22/1 466/23/1 467/24/1 468/6/1
f 469/13/1 470/14/1 471/9/1 472/15/1
f 473/22/1 474/23/1 475/24/1 476/6/1
f 477/14/1 478/50/1 479/5/1 480/9/1
f 481/49/1 482/19/1 483/14/1 484/13/1
f 485/21/1 486/48/1 487/23/1 488/22/1
f 489/49/1 490/19/1 491/14/1 492/13/1
f 493/21/1 494/48/1 495/23/1 496/22/1
f 497/13/1 498/14/1 499/9/1 500/15/1
f 501/22/1 502/23/1 503/24/1 504/6/1
f 505/13/1 506/14/1 507/9/1 508/15/1
f 509/22/1 510/23/1 511/24/1 512/6/1
f 513/49/1 514/19/1 515/14/1 516/13/1
f 517/21/1 518/48/1 519/23/1 520/22/1
f 521/37/1 522/10/1 523/2/1 524/1/1
f 525/10/1 526/8/1 527/11/1 528/2/1
f 529/37/1 530/10/1 531/2/1 532/1/1
f 533/10/1 534/8/1 535/11/1 536/2/1
f 537/32/1 538/33/1 539/26/1 540/25/1
f 541/1/1 542/2/1 543/3/1 544/4/1
f 545/9/1 546/5/1 547/8/1 548/10/1
f 549/9/1 550/5/1 551/8/1 552/10/1
f 553/5/1 554/6/1 555/7/1 556/8/1
f 557/9/1 558/5/1 559/8/1 560/10/1
f 561/5/1 562/6/1 563/7/1 564/8/1
f 565/9/1 566/5/1 567/8/1 568/10/1
f 569/5/1 570/6/1 571/7/1 572/8/1
f 573/9/1 574/5/1 575/8/1 576/10/1
f 577/5/1 578/6/1 579/7/1 580/8/1
f 581/9/1 582/5/1 583/8/1 584/10/1
f 585/5/1 586/6/1 587/7/1 588/8/1
f 589/9/1 590/5/1 591/8/1 592/10/1
f 593/9/1 594/5/1 595/8/1 596/10/1
f 597/5/1 598/6/1 599/7/1 600/8/1
f 601/2/1 602/11/1 603/12/1 604/3/1
f 605/35/1 606/36/1 607/30/1 608/29/1
f 609/32/1 610/33/1 611/26/1 612/25/1
f 613/37/1 614/10/1 615/2/1 616/1/1
f 617/16/1 618/17/1 619/18/1 620/19/1
f 621/17/1 622/20/1 623/21/1 624/18/1
f 625/17/1 626/20/1 627/21/1 628/18/1
f 629/16/1 630/17/1 631/18/1 632/19/1
f 633/17/1 634/20/1 635/21/1 636/18/1
f 637/17/1 638/20/1 639/21/1 640/18/1
f 641/16/1 642/17/1 643/18/1 644/19/1
f 645/17/1 646/20/1 647/21/1 648/18/1
f 649/17/1 650/20/1 651/21/1 652/18/1
f 653/16/1 654/17/1 655/18/1 656/19/1
f 657/17/1 658/20/1 659/21/1 660/18/1
f 661/17/1 662/20/1 663/21/1 664/18/1
f 665/16/1 666/17/1 667/18/1 668/19/1
f 669/17/1 670/20/1 671/21/1 672/18/1
f 673/10/1 674/8/1 675/11/1 676/2/1
f 677/35/1 678/36/1 679/30/1 680/29/1
f 681/43/1 682/44/1 683/39/1 684/38/1
f 685/25/1 686/26/1 687/16/1 688/27/1
f 689/26/1 690/28/1 691/17/1 692/16/1
f 693/28/1 694/29/1 695/20/1 696/17/1
f 697/26/1 698/28/1 699/17/1 700/16/1
f 701/28/1 702/29/1 703/20/1 704/17/1
f 705/26/1 706/28/1 707/17/1 708/16/1
f 709/28/1 710/29/1 711/20/1 712/17/1
f 713/26/1 714/28/1 715/17/1 716/16/1
f 717/28/1 718/29/1 719/20/1 720/17/1
f 721/28/1 722/29/1 723/20/1 724/17/1
f 725/26/1 726/28/1 727/17/1 728/16/1
f 729/28/1 730/29/1 731/20/1 732/17/1
f 733/26/1 734/28/1 735/17/1 736/16/1
f 737/28/1 738/29/1 739/20/1 740/17/1
f 741/28/1 742/29/1 743/20/1 744/17/1
f 745/29/1 746/30/1 747/31/1 748/20/1
f 749/46/1 750/47/1 751/42/1 752/41/1
f 753/43/1 754/44/1 755/39/1 756/38/1
f 757/44/1 758/45/1 759/40/1 760/39/1
f 761/45/1 762/46/1 763/41/1 764/40/1
f 765/44/1 766/45/1 767/40/1 768/39/1
f 769/45/1 770/46/1 771/41/1 772/40/1
f 773/44/1 774/45/1 775/40/1 776/39/1
f 777/45/1 778/46/1 779/41/1 780/40/1
f 781/44/1 782/45/1 783/40/1 784/39/1
f 785/45/1 786/46/1 787/41/1 788/40/1
f 789/45/1 790/46/1 791/41/1 792/40/1
f 793/44/1 794/45/1 795/40/1 796/39/1
f 797/45/1 798/46/1 799/41/1 800/40/1
f 801/44/1 802/45/1 803/40/1 804/39/1
f 805/45/1 806/46/1 807/41/1 808/40/1
f 809/45/1 810/46/1 811/41/1 812/40/1
f 813/45/1 814/46/1 815/41/1 816/40/1

