# Tiled2Unity generated file. Do not modify by hand.
# Wavefront file for 'Map_1_mesh_0002.obj'

# Vertices (Count = 560)
v -816 -720 0
v -840 -720 0
v -840 -696 0
v -816 -696 0
v -840 -720 0
v -864 -720 0
v -864 -696 0
v -840 -696 0
v -864 -720 0
v -888 -720 0
v -888 -696 0
v -864 -696 0
v -888 -720 0
v -912 -720 0
v -912 -696 0
v -888 -696 0
v -912 -720 0
v -936 -720 0
v -936 -696 0
v -912 -696 0
v -936 -720 0
v -960 -720 0
v -960 -696 0
v -936 -696 0
v -960 -720 0
v -984 -720 0
v -984 -696 0
v -960 -696 0
v -984 -720 0
v -1008 -720 0
v -1008 -696 0
v -984 -696 0
v -1008 -720 0
v -1032 -720 0
v -1032 -696 0
v -1008 -696 0
v -1032 -720 0
v -1056 -720 0
v -1056 -696 0
v -1032 -696 0
v -816 -744 0
v -840 -744 0
v -840 -720 0
v -816 -720 0
v -840 -744 0
v -864 -744 0
v -864 -720 0
v -840 -720 0
v -864 -744 0
v -888 -744 0
v -888 -720 0
v -864 -720 0
v -888 -744 0
v -912 -744 0
v -912 -720 0
v -888 -720 0
v -912 -744 0
v -936 -744 0
v -936 -720 0
v -912 -720 0
v -936 -744 0
v -960 -744 0
v -960 -720 0
v -936 -720 0
v -960 -744 0
v -984 -744 0
v -984 -720 0
v -960 -720 0
v -984 -744 0
v -1008 -744 0
v -1008 -720 0
v -984 -720 0
v -1008 -744 0
v -1032 -744 0
v -1032 -720 0
v -1008 -720 0
v -1032 -744 0
v -1056 -744 0
v -1056 -720 0
v -1032 -720 0
v -816 -768 0
v -840 -768 0
v -840 -744 0
v -816 -744 0
v -840 -768 0
v -864 -768 0
v -864 -744 0
v -840 -744 0
v -864 -768 0
v -888 -768 0
v -888 -744 0
v -864 -744 0
v -888 -768 0
v -912 -768 0
v -912 -744 0
v -888 -744 0
v -912 -768 0
v -936 -768 0
v -936 -744 0
v -912 -744 0
v -936 -768 0
v -960 -768 0
v -960 -744 0
v -936 -744 0
v -960 -768 0
v -984 -768 0
v -984 -744 0
v -960 -744 0
v -984 -768 0
v -1008 -768 0
v -1008 -744 0
v -984 -744 0
v -1008 -768 0
v -1032 -768 0
v -1032 -744 0
v -1008 -744 0
v -1032 -768 0
v -1056 -768 0
v -1056 -744 0
v -1032 -744 0
v -768 -792 0
v -792 -792 0
v -792 -768 0
v -768 -768 0
v -792 -792 0
v -816 -792 0
v -816 -768 0
v -792 -768 0
v -816 -792 0
v -840 -792 0
v -840 -768 0
v -816 -768 0
v -840 -792 0
v -864 -792 0
v -864 -768 0
v -840 -768 0
v -864 -792 0
v -888 -792 0
v -888 -768 0
v -864 -768 0
v -888 -792 0
v -912 -792 0
v -912 -768 0
v -888 -768 0
v -912 -792 0
v -936 -792 0
v -936 -768 0
v -912 -768 0
v -936 -792 0
v -960 -792 0
v -960 -768 0
v -936 -768 0
v -960 -792 0
v -984 -792 0
v -984 -768 0
v -960 -768 0
v -984 -792 0
v -1008 -792 0
v -1008 -768 0
v -984 -768 0
v -1008 -792 0
v -1032 -792 0
v -1032 -768 0
v -1008 -768 0
v -1032 -792 0
v -1056 -792 0
v -1056 -768 0
v -1032 -768 0
v -1056 -792 0
v -1080 -792 0
v -1080 -768 0
v -1056 -768 0
v -1080 -792 0
v -1104 -792 0
v -1104 -768 0
v -1080 -768 0
v -768 -816 0
v -792 -816 0
v -792 -792 0
v -768 -792 0
v -792 -816 0
v -816 -816 0
v -816 -792 0
v -792 -792 0
v -816 -816 0
v -840 -816 0
v -840 -792 0
v -816 -792 0
v -840 -816 0
v -864 -816 0
v -864 -792 0
v -840 -792 0
v -864 -816 0
v -888 -816 0
v -888 -792 0
v -864 -792 0
v -888 -816 0
v -912 -816 0
v -912 -792 0
v -888 -792 0
v -912 -816 0
v -936 -816 0
v -936 -792 0
v -912 -792 0
v -936 -816 0
v -960 -816 0
v -960 -792 0
v -936 -792 0
v -960 -816 0
v -984 -816 0
v -984 -792 0
v -960 -792 0
v -984 -816 0
v -1008 -816 0
v -1008 -792 0
v -984 -792 0
v -1008 -816 0
v -1032 -816 0
v -1032 -792 0
v -1008 -792 0
v -1032 -816 0
v -1056 -816 0
v -1056 -792 0
v -1032 -792 0
v -1056 -816 0
v -1080 -816 0
v -1080 -792 0
v -1056 -792 0
v -1080 -816 0
v -1104 -816 0
v -1104 -792 0
v -1080 -792 0
v -768 -840 0
v -792 -840 0
v -792 -816 0
v -768 -816 0
v -792 -840 0
v -816 -840 0
v -816 -816 0
v -792 -816 0
v -816 -840 0
v -840 -840 0
v -840 -816 0
v -816 -816 0
v -864 -840 0
v -888 -840 0
v -888 -816 0
v -864 -816 0
v -888 -840 0
v -912 -840 0
v -912 -816 0
v -888 -816 0
v -912 -840 0
v -936 -840 0
v -936 -816 0
v -912 -816 0
v -936 -840 0
v -960 -840 0
v -960 -816 0
v -936 -816 0
v -960 -840 0
v -984 -840 0
v -984 -816 0
v -960 -816 0
v -984 -840 0
v -1008 -840 0
v -1008 -816 0
v -984 -816 0
v -1008 -840 0
v -1032 -840 0
v -1032 -816 0
v -1008 -816 0
v -1032 -840 0
v -1056 -840 0
v -1056 -816 0
v -1032 -816 0
v -1056 -840 0
v -1080 -840 0
v -1080 -816 0
v -1056 -816 0
v -1080 -840 0
v -1104 -840 0
v -1104 -816 0
v -1080 -816 0
v -768 -864 0
v -792 -864 0
v -792 -840 0
v -768 -840 0
v -792 -864 0
v -816 -864 0
v -816 -840 0
v -792 -840 0
v -816 -864 0
v -840 -864 0
v -840 -840 0
v -816 -840 0
v -840 -864 0
v -864 -864 0
v -864 -840 0
v -840 -840 0
v -864 -864 0
v -888 -864 0
v -888 -840 0
v -864 -840 0
v -888 -864 0
v -912 -864 0
v -912 -840 0
v -888 -840 0
v -912 -864 0
v -936 -864 0
v -936 -840 0
v -912 -840 0
v -936 -864 0
v -960 -864 0
v -960 -840 0
v -936 -840 0
v -960 -864 0
v -984 -864 0
v -984 -840 0
v -960 -840 0
v -984 -864 0
v -1008 -864 0
v -1008 -840 0
v -984 -840 0
v -1008 -864 0
v -1032 -864 0
v -1032 -840 0
v -1008 -840 0
v -1032 -864 0
v -1056 -864 0
v -1056 -840 0
v -1032 -840 0
v -1056 -864 0
v -1080 -864 0
v -1080 -840 0
v -1056 -840 0
v -1080 -864 0
v -1104 -864 0
v -1104 -840 0
v -1080 -840 0
v -768 -888 0
v -792 -888 0
v -792 -864 0
v -768 -864 0
v -792 -888 0
v -816 -888 0
v -816 -864 0
v -792 -864 0
v -816 -888 0
v -840 -888 0
v -840 -864 0
v -816 -864 0
v -840 -888 0
v -864 -888 0
v -864 -864 0
v -840 -864 0
v -888 -888 0
v -912 -888 0
v -912 -864 0
v -888 -864 0
v -912 -888 0
v -936 -888 0
v -936 -864 0
v -912 -864 0
v -936 -888 0
v -960 -888 0
v -960 -864 0
v -936 -864 0
v -960 -888 0
v -984 -888 0
v -984 -864 0
v -960 -864 0
v -984 -888 0
v -1008 -888 0
v -1008 -864 0
v -984 -864 0
v -1008 -888 0
v -1032 -888 0
v -1032 -864 0
v -1008 -864 0
v -1032 -888 0
v -1056 -888 0
v -1056 -864 0
v -1032 -864 0
v -1056 -888 0
v -1080 -888 0
v -1080 -864 0
v -1056 -864 0
v -1080 -888 0
v -1104 -888 0
v -1104 -864 0
v -1080 -864 0
v -768 -912 0
v -792 -912 0
v -792 -888 0
v -768 -888 0
v -792 -912 0
v -816 -912 0
v -816 -888 0
v -792 -888 0
v -816 -912 0
v -840 -912 0
v -840 -888 0
v -816 -888 0
v -840 -912 0
v -864 -912 0
v -864 -888 0
v -840 -888 0
v -864 -912 0
v -888 -912 0
v -888 -888 0
v -864 -888 0
v -888 -912 0
v -912 -912 0
v -912 -888 0
v -888 -888 0
v -912 -912 0
v -936 -912 0
v -936 -888 0
v -912 -888 0
v -936 -912 0
v -960 -912 0
v -960 -888 0
v -936 -888 0
v -960 -912 0
v -984 -912 0
v -984 -888 0
v -960 -888 0
v -984 -912 0
v -1008 -912 0
v -1008 -888 0
v -984 -888 0
v -1008 -912 0
v -1032 -912 0
v -1032 -888 0
v -1008 -888 0
v -1032 -912 0
v -1056 -912 0
v -1056 -888 0
v -1032 -888 0
v -1056 -912 0
v -1080 -912 0
v -1080 -888 0
v -1056 -888 0
v -1080 -912 0
v -1104 -912 0
v -1104 -888 0
v -1080 -888 0
v -768 -936 0
v -792 -936 0
v -792 -912 0
v -768 -912 0
v -792 -936 0
v -816 -936 0
v -816 -912 0
v -792 -912 0
v -816 -936 0
v -840 -936 0
v -840 -912 0
v -816 -912 0
v -840 -936 0
v -864 -936 0
v -864 -912 0
v -840 -912 0
v -864 -936 0
v -888 -936 0
v -888 -912 0
v -864 -912 0
v -888 -936 0
v -912 -936 0
v -912 -912 0
v -888 -912 0
v -912 -936 0
v -936 -936 0
v -936 -912 0
v -912 -912 0
v -936 -936 0
v -960 -936 0
v -960 -912 0
v -936 -912 0
v -960 -936 0
v -984 -936 0
v -984 -912 0
v -960 -912 0
v -984 -936 0
v -1008 -936 0
v -1008 -912 0
v -984 -912 0
v -1008 -936 0
v -1032 -936 0
v -1032 -912 0
v -1008 -912 0
v -1032 -936 0
v -1056 -936 0
v -1056 -912 0
v -1032 -912 0
v -1056 -936 0
v -1080 -936 0
v -1080 -912 0
v -1056 -912 0
v -1080 -936 0
v -1104 -936 0
v -1104 -912 0
v -1080 -912 0
v -768 -960 0
v -792 -960 0
v -792 -936 0
v -768 -936 0
v -792 -960 0
v -816 -960 0
v -816 -936 0
v -792 -936 0
v -816 -960 0
v -840 -960 0
v -840 -936 0
v -816 -936 0
v -840 -960 0
v -864 -960 0
v -864 -936 0
v -840 -936 0
v -864 -960 0
v -888 -960 0
v -888 -936 0
v -864 -936 0
v -888 -960 0
v -912 -960 0
v -912 -936 0
v -888 -936 0
v -912 -960 0
v -936 -960 0
v -936 -936 0
v -912 -936 0
v -936 -960 0
v -960 -960 0
v -960 -936 0
v -936 -936 0
v -960 -960 0
v -984 -960 0
v -984 -936 0
v -960 -936 0
v -984 -960 0
v -1008 -960 0
v -1008 -936 0
v -984 -936 0
v -1008 -960 0
v -1032 -960 0
v -1032 -936 0
v -1008 -936 0
v -1032 -960 0
v -1056 -960 0
v -1056 -936 0
v -1032 -936 0
v -1056 -960 0
v -1080 -960 0
v -1080 -936 0
v -1056 -936 0
v -1080 -960 0
v -1104 -960 0
v -1104 -936 0
v -1080 -936 0

# Texture cooridinates (Count = 28)
vt 0.25 0.7083334
vt 0.28125 0.7083334
vt 0.28125 0.75
vt 0.25 0.75
vt 0.28125 0.625
vt 0.3125 0.625
vt 0.3125 0.6666666
vt 0.28125 0.6666666
vt 0.34375 0.625
vt 0.34375 0.6666666
vt 0.3125 0.7083334
vt 0.3125 0.75
vt 0.25 0.5833334
vt 0.28125 0.5833334
vt 0.25 0.625
vt 0.34375 0.7083334
vt 0.34375 0.75
vt 0.375 0.7083334
vt 0.375 0.75
vt 0.34375 0.5833334
vt 0.375 0.5833334
vt 0.375 0.625
vt 0.25 0.5416666
vt 0.28125 0.5416666
vt 0.375 0.6666666
vt 0.34375 0.5416666
vt 0.375 0.5416666
vt 0.25 0.6666666

# Normal
vn 0 0 -1

# Mesh description
g Map_1_mesh_0002

# Faces
f 1/1/1 2/2/1 3/3/1 4/4/1
f 5/5/1 6/6/1 7/7/1 8/8/1
f 9/6/1 10/9/1 11/10/1 12/7/1
f 13/5/1 14/6/1 15/7/1 16/8/1
f 17/6/1 18/9/1 19/10/1 20/7/1
f 21/5/1 22/6/1 23/7/1 24/8/1
f 25/6/1 26/9/1 27/10/1 28/7/1
f 29/5/1 30/6/1 31/7/1 32/8/1
f 33/6/1 34/9/1 35/10/1 36/7/1
f 37/2/1 38/11/1 39/12/1 40/3/1
f 41/13/1 42/14/1 43/5/1 44/15/1
f 45/11/1 46/16/1 47/17/1 48/12/1
f 49/16/1 50/18/1 51/19/1 52/17/1
f 53/11/1 54/16/1 55/17/1 56/12/1
f 57/16/1 58/18/1 59/19/1 60/17/1
f 61/11/1 62/16/1 63/17/1 64/12/1
f 65/11/1 66/16/1 67/17/1 68/12/1
f 69/11/1 70/16/1 71/17/1 72/12/1
f 73/16/1 74/18/1 75/19/1 76/17/1
f 77/20/1 78/21/1 79/22/1 80/9/1
f 81/23/1 82/24/1 83/14/1 84/13/1
f 85/7/1 86/10/1 87/16/1 88/11/1
f 89/10/1 90/25/1 91/18/1 92/16/1
f 93/7/1 94/10/1 95/16/1 96/11/1
f 97/10/1 98/25/1 99/18/1 100/16/1
f 101/7/1 102/10/1 103/16/1 104/11/1
f 105/7/1 106/10/1 107/16/1 108/11/1
f 109/7/1 110/10/1 111/16/1 112/11/1
f 113/10/1 114/25/1 115/18/1 116/16/1
f 117/26/1 118/27/1 119/21/1 120/20/1
f 121/1/1 122/2/1 123/3/1 124/4/1
f 125/5/1 126/6/1 127/7/1 128/8/1
f 129/15/1 130/5/1 131/8/1 132/28/1
f 133/11/1 134/16/1 135/17/1 136/12/1
f 137/16/1 138/18/1 139/19/1 140/17/1
f 141/11/1 142/16/1 143/17/1 144/12/1
f 145/16/1 146/18/1 147/19/1 148/17/1
f 149/11/1 150/16/1 151/17/1 152/12/1
f 153/11/1 154/16/1 155/17/1 156/12/1
f 157/11/1 158/16/1 159/17/1 160/12/1
f 161/16/1 162/18/1 163/19/1 164/17/1
f 165/9/1 166/22/1 167/25/1 168/10/1
f 169/5/1 170/6/1 171/7/1 172/8/1
f 173/2/1 174/11/1 175/12/1 176/3/1
f 177/13/1 178/14/1 179/5/1 180/15/1
f 181/11/1 182/16/1 183/17/1 184/12/1
f 185/16/1 186/18/1 187/19/1 188/17/1
f 189/7/1 190/10/1 191/16/1 192/11/1
f 193/10/1 194/25/1 195/18/1 196/16/1
f 197/11/1 198/16/1 199/17/1 200/12/1
f 201/16/1 202/18/1 203/19/1 204/17/1
f 205/7/1 206/10/1 207/16/1 208/11/1
f 209/7/1 210/10/1 211/16/1 212/11/1
f 213/7/1 214/10/1 215/16/1 216/11/1
f 217/10/1 218/25/1 219/18/1 220/16/1
f 221/11/1 222/16/1 223/17/1 224/12/1
f 225/16/1 226/18/1 227/19/1 228/17/1
f 229/20/1 230/21/1 231/22/1 232/9/1
f 233/23/1 234/24/1 235/14/1 236/13/1
f 237/7/1 238/10/1 239/16/1 240/11/1
f 241/10/1 242/25/1 243/18/1 244/16/1
f 245/11/1 246/16/1 247/17/1 248/12/1
f 249/7/1 250/10/1 251/16/1 252/11/1
f 253/10/1 254/25/1 255/18/1 256/16/1
f 257/11/1 258/16/1 259/17/1 260/12/1
f 261/16/1 262/18/1 263/19/1 264/17/1
f 265/11/1 266/16/1 267/17/1 268/12/1
f 269/16/1 270/18/1 271/19/1 272/17/1
f 273/7/1 274/10/1 275/16/1 276/11/1
f 277/10/1 278/25/1 279/18/1 280/16/1
f 281/26/1 282/27/1 283/21/1 284/20/1
f 285/13/1 286/14/1 287/5/1 288/15/1
f 289/11/1 290/16/1 291/17/1 292/12/1
f 293/16/1 294/18/1 295/19/1 296/17/1
f 297/16/1 298/18/1 299/19/1 300/17/1
f 301/7/1 302/10/1 303/16/1 304/11/1
f 305/11/1 306/16/1 307/17/1 308/12/1
f 309/16/1 310/18/1 311/19/1 312/17/1
f 313/7/1 314/10/1 315/16/1 316/11/1
f 317/10/1 318/25/1 319/18/1 320/16/1
f 321/7/1 322/10/1 323/16/1 324/11/1
f 325/10/1 326/25/1 327/18/1 328/16/1
f 329/11/1 330/16/1 331/17/1 332/12/1
f 333/16/1 334/18/1 335/19/1 336/17/1
f 337/20/1 338/21/1 339/22/1 340/9/1
f 341/13/1 342/14/1 343/5/1 344/15/1
f 345/7/1 346/10/1 347/16/1 348/11/1
f 349/10/1 350/25/1 351/18/1 352/16/1
f 353/10/1 354/25/1 355/18/1 356/16/1
f 357/7/1 358/10/1 359/16/1 360/11/1
f 361/10/1 362/25/1 363/18/1 364/16/1
f 365/11/1 366/16/1 367/17/1 368/12/1
f 369/16/1 370/18/1 371/19/1 372/17/1
f 373/11/1 374/16/1 375/17/1 376/12/1
f 377/16/1 378/18/1 379/19/1 380/17/1
f 381/7/1 382/10/1 383/16/1 384/11/1
f 385/10/1 386/25/1 387/18/1 388/16/1
f 389/26/1 390/27/1 391/21/1 392/20/1
f 393/13/1 394/14/1 395/5/1 396/15/1
f 397/11/1 398/16/1 399/17/1 400/12/1
f 401/16/1 402/18/1 403/19/1 404/17/1
f 405/11/1 406/16/1 407/17/1 408/12/1
f 409/16/1 410/18/1 411/19/1 412/17/1
f 413/16/1 414/18/1 415/19/1 416/17/1
f 417/11/1 418/16/1 419/17/1 420/12/1
f 421/16/1 422/18/1 423/19/1 424/17/1
f 425/10/1 426/25/1 427/18/1 428/16/1
f 429/7/1 430/10/1 431/16/1 432/11/1
f 433/10/1 434/25/1 435/18/1 436/16/1
f 437/11/1 438/16/1 439/17/1 440/12/1
f 441/16/1 442/18/1 443/19/1 444/17/1
f 445/20/1 446/21/1 447/22/1 448/9/1
f 449/23/1 450/24/1 451/14/1 452/13/1
f 453/11/1 454/16/1 455/17/1 456/12/1
f 457/16/1 458/18/1 459/19/1 460/17/1
f 461/16/1 462/18/1 463/19/1 464/17/1
f 465/11/1 466/16/1 467/17/1 468/12/1
f 469/16/1 470/18/1 471/19/1 472/17/1
f 473/11/1 474/16/1 475/17/1 476/12/1
f 477/16/1 478/18/1 479/19/1 480/17/1
f 481/11/1 482/16/1 483/17/1 484/12/1
f 485/11/1 486/16/1 487/17/1 488/12/1
f 489/16/1 490/18/1 491/19/1 492/17/1
f 493/11/1 494/16/1 495/17/1 496/12/1
f 497/16/1 498/18/1 499/19/1 500/17/1
f 501/26/1 502/27/1 503/21/1 504/20/1
f 505/28/1 506/8/1 507/2/1 508/1/1
f 509/7/1 510/10/1 511/16/1 512/11/1
f 513/10/1 514/25/1 515/18/1 516/16/1
f 517/10/1 518/25/1 519/18/1 520/16/1
f 521/7/1 522/10/1 523/16/1 524/11/1
f 525/10/1 526/25/1 527/18/1 528/16/1
f 529/7/1 530/10/1 531/16/1 532/11/1
f 533/10/1 534/25/1 535/18/1 536/16/1
f 537/7/1 538/10/1 539/16/1 540/11/1
f 541/7/1 542/10/1 543/16/1 544/11/1
f 545/10/1 546/25/1 547/18/1 548/16/1
f 549/7/1 550/10/1 551/16/1 552/11/1
f 553/10/1 554/25/1 555/18/1 556/16/1
f 557/8/1 558/7/1 559/11/1 560/2/1

