# Tiled2Unity generated file. Do not modify by hand.
# Wavefront file for 'SalleNEW_mesh_0004.obj'

# Vertices (Count = 112)
v -1440 -1080 0
v -1464 -1080 0
v -1464 -1056 0
v -1440 -1056 0
v -1464 -1080 0
v -1488 -1080 0
v -1488 -1056 0
v -1464 -1056 0
v -1824 -1080 0
v -1848 -1080 0
v -1848 -1056 0
v -1824 -1056 0
v -1848 -1080 0
v -1872 -1080 0
v -1872 -1056 0
v -1848 -1056 0
v -1440 -1104 0
v -1464 -1104 0
v -1464 -1080 0
v -1440 -1080 0
v -1464 -1104 0
v -1488 -1104 0
v -1488 -1080 0
v -1464 -1080 0
v -1728 -1104 0
v -1752 -1104 0
v -1752 -1080 0
v -1728 -1080 0
v -1752 -1104 0
v -1776 -1104 0
v -1776 -1080 0
v -1752 -1080 0
v -1824 -1104 0
v -1848 -1104 0
v -1848 -1080 0
v -1824 -1080 0
v -1848 -1104 0
v -1872 -1104 0
v -1872 -1080 0
v -1848 -1080 0
v -1728 -1128 0
v -1752 -1128 0
v -1752 -1104 0
v -1728 -1104 0
v -1752 -1128 0
v -1776 -1128 0
v -1776 -1104 0
v -1752 -1104 0
v -1536 -1152 0
v -1560 -1152 0
v -1560 -1128 0
v -1536 -1128 0
v -1560 -1152 0
v -1584 -1152 0
v -1584 -1128 0
v -1560 -1128 0
v -1536 -1176 0
v -1560 -1176 0
v -1560 -1152 0
v -1536 -1152 0
v -1560 -1176 0
v -1584 -1176 0
v -1584 -1152 0
v -1560 -1152 0
v -1680 -1224 0
v -1704 -1224 0
v -1704 -1200 0
v -1680 -1200 0
v -1704 -1224 0
v -1728 -1224 0
v -1728 -1200 0
v -1704 -1200 0
v -1680 -1248 0
v -1704 -1248 0
v -1704 -1224 0
v -1680 -1224 0
v -1704 -1248 0
v -1728 -1248 0
v -1728 -1224 0
v -1704 -1224 0
v -1464 -1272 0
v -1488 -1272 0
v -1488 -1248 0
v -1464 -1248 0
v -1488 -1272 0
v -1512 -1272 0
v -1512 -1248 0
v -1488 -1248 0
v -1776 -1272 0
v -1800 -1272 0
v -1800 -1248 0
v -1776 -1248 0
v -1800 -1272 0
v -1824 -1272 0
v -1824 -1248 0
v -1800 -1248 0
v -1464 -1296 0
v -1488 -1296 0
v -1488 -1272 0
v -1464 -1272 0
v -1488 -1296 0
v -1512 -1296 0
v -1512 -1272 0
v -1488 -1272 0
v -1776 -1296 0
v -1800 -1296 0
v -1800 -1272 0
v -1776 -1272 0
v -1800 -1296 0
v -1824 -1296 0
v -1824 -1272 0
v -1800 -1272 0

# Texture cooridinates (Count = 9)
vt 0.625 0.9583333
vt 0.65625 0.9583333
vt 0.65625 1
vt 0.625 1
vt 0.6875 0.9583333
vt 0.6875 1
vt 0.625 0.9166667
vt 0.65625 0.9166667
vt 0.6875 0.9166667

# Normal
vn 0 0 -1

# Mesh description
g SalleNEW_mesh_0004

# Faces
f 1/1/1 2/2/1 3/3/1 4/4/1
f 5/2/1 6/5/1 7/6/1 8/3/1
f 9/1/1 10/2/1 11/3/1 12/4/1
f 13/2/1 14/5/1 15/6/1 16/3/1
f 17/7/1 18/8/1 19/2/1 20/1/1
f 21/8/1 22/9/1 23/5/1 24/2/1
f 25/1/1 26/2/1 27/3/1 28/4/1
f 29/2/1 30/5/1 31/6/1 32/3/1
f 33/7/1 34/8/1 35/2/1 36/1/1
f 37/8/1 38/9/1 39/5/1 40/2/1
f 41/7/1 42/8/1 43/2/1 44/1/1
f 45/8/1 46/9/1 47/5/1 48/2/1
f 49/1/1 50/2/1 51/3/1 52/4/1
f 53/2/1 54/5/1 55/6/1 56/3/1
f 57/7/1 58/8/1 59/2/1 60/1/1
f 61/8/1 62/9/1 63/5/1 64/2/1
f 65/1/1 66/2/1 67/3/1 68/4/1
f 69/2/1 70/5/1 71/6/1 72/3/1
f 73/7/1 74/8/1 75/2/1 76/1/1
f 77/8/1 78/9/1 79/5/1 80/2/1
f 81/1/1 82/2/1 83/3/1 84/4/1
f 85/2/1 86/5/1 87/6/1 88/3/1
f 89/1/1 90/2/1 91/3/1 92/4/1
f 93/2/1 94/5/1 95/6/1 96/3/1
f 97/7/1 98/8/1 99/2/1 100/1/1
f 101/8/1 102/9/1 103/5/1 104/2/1
f 105/7/1 106/8/1 107/2/1 108/1/1
f 109/8/1 110/9/1 111/5/1 112/2/1

