# Tiled2Unity generated file. Do not modify by hand.
# Wavefront file for 'SalleNSEW-Rails_mesh_0010.obj'

# Vertices (Count = 48)
v -1440 -1080 0
v -1464 -1080 0
v -1464 -1056 0
v -1440 -1056 0
v -1464 -1080 0
v -1488 -1080 0
v -1488 -1056 0
v -1464 -1056 0
v -1440 -1104 0
v -1464 -1104 0
v -1464 -1080 0
v -1440 -1080 0
v -1464 -1104 0
v -1488 -1104 0
v -1488 -1080 0
v -1464 -1080 0
v -1800 -1272 0
v -1824 -1272 0
v -1824 -1248 0
v -1800 -1248 0
v -1824 -1272 0
v -1848 -1272 0
v -1848 -1248 0
v -1824 -1248 0
v -1512 -1296 0
v -1536 -1296 0
v -1536 -1272 0
v -1512 -1272 0
v -1536 -1296 0
v -1560 -1296 0
v -1560 -1272 0
v -1536 -1272 0
v -1800 -1296 0
v -1824 -1296 0
v -1824 -1272 0
v -1800 -1272 0
v -1824 -1296 0
v -1848 -1296 0
v -1848 -1272 0
v -1824 -1272 0
v -1512 -1320 0
v -1536 -1320 0
v -1536 -1296 0
v -1512 -1296 0
v -1536 -1320 0
v -1560 -1320 0
v -1560 -1296 0
v -1536 -1296 0

# Texture cooridinates (Count = 18)
vt 0.375 0.78125
vt 0.40625 0.78125
vt 0.40625 0.8125
vt 0.375 0.8125
vt 0.4375 0.78125
vt 0.4375 0.8125
vt 0.375 0.75
vt 0.40625 0.75
vt 0.4375 0.75
vt 0.375 0.90625
vt 0.40625 0.90625
vt 0.40625 0.9375
vt 0.375 0.9375
vt 0.4375 0.90625
vt 0.4375 0.9375
vt 0.375 0.875
vt 0.40625 0.875
vt 0.4375 0.875

# Normal
vn 0 0 -1

# Mesh description
g SalleNSEW-Rails_mesh_0010

# Faces
f 1/1/1 2/2/1 3/3/1 4/4/1
f 5/2/1 6/5/1 7/6/1 8/3/1
f 9/7/1 10/8/1 11/2/1 12/1/1
f 13/8/1 14/9/1 15/5/1 16/2/1
f 17/1/1 18/2/1 19/3/1 20/4/1
f 21/2/1 22/5/1 23/6/1 24/3/1
f 25/10/1 26/11/1 27/12/1 28/13/1
f 29/11/1 30/14/1 31/15/1 32/12/1
f 33/7/1 34/8/1 35/2/1 36/1/1
f 37/8/1 38/9/1 39/5/1 40/2/1
f 41/16/1 42/17/1 43/11/1 44/10/1
f 45/17/1 46/18/1 47/14/1 48/11/1

