# Tiled2Unity generated file. Do not modify by hand.
# Wavefront file for 'SalleNSEW-Rails_mesh_0009.obj'

# Vertices (Count = 208)
v -1800 -1056 0
v -1824 -1056 0
v -1824 -1032 0
v -1800 -1032 0
v -1824 -1056 0
v -1848 -1056 0
v -1848 -1032 0
v -1824 -1032 0
v -1800 -1080 0
v -1824 -1080 0
v -1824 -1056 0
v -1800 -1056 0
v -1824 -1080 0
v -1848 -1080 0
v -1848 -1056 0
v -1824 -1056 0
v -1800 -1104 0
v -1824 -1104 0
v -1824 -1080 0
v -1800 -1080 0
v -1824 -1104 0
v -1848 -1104 0
v -1848 -1080 0
v -1824 -1080 0
v -1800 -1128 0
v -1824 -1128 0
v -1824 -1104 0
v -1800 -1104 0
v -1824 -1128 0
v -1848 -1128 0
v -1848 -1104 0
v -1824 -1104 0
v -1800 -1152 0
v -1824 -1152 0
v -1824 -1128 0
v -1800 -1128 0
v -1824 -1152 0
v -1848 -1152 0
v -1848 -1128 0
v -1824 -1128 0
v -1800 -1176 0
v -1824 -1176 0
v -1824 -1152 0
v -1800 -1152 0
v -1824 -1176 0
v -1848 -1176 0
v -1848 -1152 0
v -1824 -1152 0
v -1800 -1200 0
v -1824 -1200 0
v -1824 -1176 0
v -1800 -1176 0
v -1824 -1200 0
v -1848 -1200 0
v -1848 -1176 0
v -1824 -1176 0
v -1800 -1224 0
v -1824 -1224 0
v -1824 -1200 0
v -1800 -1200 0
v -1824 -1224 0
v -1848 -1224 0
v -1848 -1200 0
v -1824 -1200 0
v -1464 -1248 0
v -1488 -1248 0
v -1488 -1224 0
v -1464 -1224 0
v -1488 -1248 0
v -1512 -1248 0
v -1512 -1224 0
v -1488 -1224 0
v -1512 -1248 0
v -1536 -1248 0
v -1536 -1224 0
v -1512 -1224 0
v -1536 -1248 0
v -1560 -1248 0
v -1560 -1224 0
v -1536 -1224 0
v -1560 -1248 0
v -1584 -1248 0
v -1584 -1224 0
v -1560 -1224 0
v -1584 -1248 0
v -1608 -1248 0
v -1608 -1224 0
v -1584 -1224 0
v -1608 -1248 0
v -1632 -1248 0
v -1632 -1224 0
v -1608 -1224 0
v -1632 -1248 0
v -1656 -1248 0
v -1656 -1224 0
v -1632 -1224 0
v -1656 -1248 0
v -1680 -1248 0
v -1680 -1224 0
v -1656 -1224 0
v -1680 -1248 0
v -1704 -1248 0
v -1704 -1224 0
v -1680 -1224 0
v -1704 -1248 0
v -1728 -1248 0
v -1728 -1224 0
v -1704 -1224 0
v -1728 -1248 0
v -1752 -1248 0
v -1752 -1224 0
v -1728 -1224 0
v -1752 -1248 0
v -1776 -1248 0
v -1776 -1224 0
v -1752 -1224 0
v -1776 -1248 0
v -1800 -1248 0
v -1800 -1224 0
v -1776 -1224 0
v -1800 -1248 0
v -1824 -1248 0
v -1824 -1224 0
v -1800 -1224 0
v -1824 -1248 0
v -1848 -1248 0
v -1848 -1224 0
v -1824 -1224 0
v -1464 -1272 0
v -1488 -1272 0
v -1488 -1248 0
v -1464 -1248 0
v -1488 -1272 0
v -1512 -1272 0
v -1512 -1248 0
v -1488 -1248 0
v -1512 -1272 0
v -1536 -1272 0
v -1536 -1248 0
v -1512 -1248 0
v -1536 -1272 0
v -1560 -1272 0
v -1560 -1248 0
v -1536 -1248 0
v -1560 -1272 0
v -1584 -1272 0
v -1584 -1248 0
v -1560 -1248 0
v -1584 -1272 0
v -1608 -1272 0
v -1608 -1248 0
v -1584 -1248 0
v -1608 -1272 0
v -1632 -1272 0
v -1632 -1248 0
v -1608 -1248 0
v -1632 -1272 0
v -1656 -1272 0
v -1656 -1248 0
v -1632 -1248 0
v -1656 -1272 0
v -1680 -1272 0
v -1680 -1248 0
v -1656 -1248 0
v -1680 -1272 0
v -1704 -1272 0
v -1704 -1248 0
v -1680 -1248 0
v -1704 -1272 0
v -1728 -1272 0
v -1728 -1248 0
v -1704 -1248 0
v -1728 -1272 0
v -1752 -1272 0
v -1752 -1248 0
v -1728 -1248 0
v -1752 -1272 0
v -1776 -1272 0
v -1776 -1248 0
v -1752 -1248 0
v -1776 -1272 0
v -1800 -1272 0
v -1800 -1248 0
v -1776 -1248 0
v -1464 -1296 0
v -1488 -1296 0
v -1488 -1272 0
v -1464 -1272 0
v -1488 -1296 0
v -1512 -1296 0
v -1512 -1272 0
v -1488 -1272 0
v -1464 -1320 0
v -1488 -1320 0
v -1488 -1296 0
v -1464 -1296 0
v -1488 -1320 0
v -1512 -1320 0
v -1512 -1296 0
v -1488 -1296 0
v -1464 -1344 0
v -1488 -1344 0
v -1488 -1320 0
v -1464 -1320 0
v -1488 -1344 0
v -1512 -1344 0
v -1512 -1320 0
v -1488 -1320 0

# Texture cooridinates (Count = 35)
vt 0 0.15625
vt 0.03125 0.15625
vt 0.03125 0.1875
vt 0 0.1875
vt 0.0625 0.15625
vt 0.0625 0.1875
vt 0 0.125
vt 0.03125 0.125
vt 0.0625 0.125
vt 0 0.09375
vt 0.03125 0.09375
vt 0.0625 0.09375
vt 0 0.0625
vt 0.03125 0.0625
vt 0.0625 0.0625
vt 0.125 0.09375
vt 0.15625 0.09375
vt 0.15625 0.125
vt 0.125 0.125
vt 0.1875 0.09375
vt 0.1875 0.125
vt 0.125 0.15625
vt 0.15625 0.15625
vt 0.15625 0.1875
vt 0.125 0.1875
vt 0.1875 0.15625
vt 0.1875 0.1875
vt 0.1875 0.03125
vt 0.21875 0.03125
vt 0.21875 0.0625
vt 0.1875 0.0625
vt 0.25 0.03125
vt 0.25 0.0625
vt 0.125 0.0625
vt 0.15625 0.0625

# Normal
vn 0 0 -1

# Mesh description
g SalleNSEW-Rails_mesh_0009

# Faces
f 1/1/1 2/2/1 3/3/1 4/4/1
f 5/2/1 6/5/1 7/6/1 8/3/1
f 9/7/1 10/8/1 11/2/1 12/1/1
f 13/8/1 14/9/1 15/5/1 16/2/1
f 17/10/1 18/11/1 19/8/1 20/7/1
f 21/11/1 22/12/1 23/9/1 24/8/1
f 25/13/1 26/14/1 27/11/1 28/10/1
f 29/14/1 30/15/1 31/12/1 32/11/1
f 33/10/1 34/11/1 35/8/1 36/7/1
f 37/11/1 38/12/1 39/9/1 40/8/1
f 41/13/1 42/14/1 43/11/1 44/10/1
f 45/14/1 46/15/1 47/12/1 48/11/1
f 49/10/1 50/11/1 51/8/1 52/7/1
f 53/11/1 54/12/1 55/9/1 56/8/1
f 57/13/1 58/14/1 59/11/1 60/10/1
f 61/14/1 62/15/1 63/12/1 64/11/1
f 65/16/1 66/17/1 67/18/1 68/19/1
f 69/17/1 70/20/1 71/21/1 72/18/1
f 73/22/1 74/23/1 75/24/1 76/25/1
f 77/23/1 78/26/1 79/27/1 80/24/1
f 81/22/1 82/23/1 83/24/1 84/25/1
f 85/23/1 86/26/1 87/27/1 88/24/1
f 89/22/1 90/23/1 91/24/1 92/25/1
f 93/23/1 94/26/1 95/27/1 96/24/1
f 97/22/1 98/23/1 99/24/1 100/25/1
f 101/23/1 102/26/1 103/27/1 104/24/1
f 105/22/1 106/23/1 107/24/1 108/25/1
f 109/23/1 110/26/1 111/27/1 112/24/1
f 113/22/1 114/23/1 115/24/1 116/25/1
f 117/23/1 118/26/1 119/27/1 120/24/1
f 121/28/1 122/29/1 123/30/1 124/31/1
f 125/29/1 126/32/1 127/33/1 128/30/1
f 129/34/1 130/35/1 131/17/1 132/16/1
f 133/35/1 134/31/1 135/20/1 136/17/1
f 137/19/1 138/18/1 139/23/1 140/22/1
f 141/18/1 142/21/1 143/26/1 144/23/1
f 145/19/1 146/18/1 147/23/1 148/22/1
f 149/18/1 150/21/1 151/26/1 152/23/1
f 153/19/1 154/18/1 155/23/1 156/22/1
f 157/18/1 158/21/1 159/26/1 160/23/1
f 161/19/1 162/18/1 163/23/1 164/22/1
f 165/18/1 166/21/1 167/26/1 168/23/1
f 169/19/1 170/18/1 171/23/1 172/22/1
f 173/18/1 174/21/1 175/26/1 176/23/1
f 177/19/1 178/18/1 179/23/1 180/22/1
f 181/18/1 182/21/1 183/26/1 184/23/1
f 185/10/1 186/11/1 187/8/1 188/7/1
f 189/11/1 190/12/1 191/9/1 192/8/1
f 193/10/1 194/11/1 195/8/1 196/7/1
f 197/11/1 198/12/1 199/9/1 200/8/1
f 201/13/1 202/14/1 203/11/1 204/10/1
f 205/14/1 206/15/1 207/12/1 208/11/1

