# Tiled2Unity generated file. Do not modify by hand.
# Wavefront file for 'SalleNEW-SF_mesh_0002.obj'

# Vertices (Count = 128)
v -1464 -1008 0
v -1488 -1008 0
v -1488 -984 0
v -1464 -984 0
v -1488 -1008 0
v -1512 -1008 0
v -1512 -984 0
v -1488 -984 0
v -1464 -1032 0
v -1488 -1032 0
v -1488 -1008 0
v -1464 -1008 0
v -1488 -1032 0
v -1512 -1032 0
v -1512 -1008 0
v -1488 -1008 0
v -1656 -1080 0
v -1680 -1080 0
v -1680 -1056 0
v -1656 -1056 0
v -1680 -1080 0
v -1704 -1080 0
v -1704 -1056 0
v -1680 -1056 0
v -1776 -1080 0
v -1800 -1080 0
v -1800 -1056 0
v -1776 -1056 0
v -1800 -1080 0
v -1824 -1080 0
v -1824 -1056 0
v -1800 -1056 0
v -1656 -1104 0
v -1680 -1104 0
v -1680 -1080 0
v -1656 -1080 0
v -1680 -1104 0
v -1704 -1104 0
v -1704 -1080 0
v -1680 -1080 0
v -1776 -1104 0
v -1800 -1104 0
v -1800 -1080 0
v -1776 -1080 0
v -1800 -1104 0
v -1824 -1104 0
v -1824 -1080 0
v -1800 -1080 0
v -1512 -1128 0
v -1536 -1128 0
v -1536 -1104 0
v -1512 -1104 0
v -1536 -1128 0
v -1560 -1128 0
v -1560 -1104 0
v -1536 -1104 0
v -1512 -1152 0
v -1536 -1152 0
v -1536 -1128 0
v -1512 -1128 0
v -1536 -1152 0
v -1560 -1152 0
v -1560 -1128 0
v -1536 -1128 0
v -1608 -1248 0
v -1632 -1248 0
v -1632 -1224 0
v -1608 -1224 0
v -1632 -1248 0
v -1656 -1248 0
v -1656 -1224 0
v -1632 -1224 0
v -1464 -1272 0
v -1488 -1272 0
v -1488 -1248 0
v -1464 -1248 0
v -1488 -1272 0
v -1512 -1272 0
v -1512 -1248 0
v -1488 -1248 0
v -1608 -1272 0
v -1632 -1272 0
v -1632 -1248 0
v -1608 -1248 0
v -1632 -1272 0
v -1656 -1272 0
v -1656 -1248 0
v -1632 -1248 0
v -1776 -1272 0
v -1800 -1272 0
v -1800 -1248 0
v -1776 -1248 0
v -1800 -1272 0
v -1824 -1272 0
v -1824 -1248 0
v -1800 -1248 0
v -1464 -1296 0
v -1488 -1296 0
v -1488 -1272 0
v -1464 -1272 0
v -1488 -1296 0
v -1512 -1296 0
v -1512 -1272 0
v -1488 -1272 0
v -1776 -1296 0
v -1800 -1296 0
v -1800 -1272 0
v -1776 -1272 0
v -1800 -1296 0
v -1824 -1296 0
v -1824 -1272 0
v -1800 -1272 0
v -1848 -1392 0
v -1872 -1392 0
v -1872 -1368 0
v -1848 -1368 0
v -1872 -1392 0
v -1896 -1392 0
v -1896 -1368 0
v -1872 -1368 0
v -1848 -1416 0
v -1872 -1416 0
v -1872 -1392 0
v -1848 -1392 0
v -1872 -1416 0
v -1896 -1416 0
v -1896 -1392 0
v -1872 -1392 0

# Texture cooridinates (Count = 18)
vt 0.875 0.9583333
vt 0.90625 0.9583333
vt 0.90625 1
vt 0.875 1
vt 0.9375 0.9583333
vt 0.9375 1
vt 0.875 0.9166667
vt 0.90625 0.9166667
vt 0.9375 0.9166667
vt 0.875 0.7083334
vt 0.90625 0.7083334
vt 0.90625 0.75
vt 0.875 0.75
vt 0.9375 0.7083334
vt 0.9375 0.75
vt 0.875 0.6666666
vt 0.90625 0.6666666
vt 0.9375 0.6666666

# Normal
vn 0 0 -1

# Mesh description
g SalleNEW-SF_mesh_0002

# Faces
f 1/1/1 2/2/1 3/3/1 4/4/1
f 5/2/1 6/5/1 7/6/1 8/3/1
f 9/7/1 10/8/1 11/2/1 12/1/1
f 13/8/1 14/9/1 15/5/1 16/2/1
f 17/10/1 18/11/1 19/12/1 20/13/1
f 21/11/1 22/14/1 23/15/1 24/12/1
f 25/1/1 26/2/1 27/3/1 28/4/1
f 29/2/1 30/5/1 31/6/1 32/3/1
f 33/16/1 34/17/1 35/11/1 36/10/1
f 37/17/1 38/18/1 39/14/1 40/11/1
f 41/7/1 42/8/1 43/2/1 44/1/1
f 45/8/1 46/9/1 47/5/1 48/2/1
f 49/10/1 50/11/1 51/12/1 52/13/1
f 53/11/1 54/14/1 55/15/1 56/12/1
f 57/16/1 58/17/1 59/11/1 60/10/1
f 61/17/1 62/18/1 63/14/1 64/11/1
f 65/1/1 66/2/1 67/3/1 68/4/1
f 69/2/1 70/5/1 71/6/1 72/3/1
f 73/1/1 74/2/1 75/3/1 76/4/1
f 77/2/1 78/5/1 79/6/1 80/3/1
f 81/7/1 82/8/1 83/2/1 84/1/1
f 85/8/1 86/9/1 87/5/1 88/2/1
f 89/10/1 90/11/1 91/12/1 92/13/1
f 93/11/1 94/14/1 95/15/1 96/12/1
f 97/7/1 98/8/1 99/2/1 100/1/1
f 101/8/1 102/9/1 103/5/1 104/2/1
f 105/16/1 106/17/1 107/11/1 108/10/1
f 109/17/1 110/18/1 111/14/1 112/11/1
f 113/1/1 114/2/1 115/3/1 116/4/1
f 117/2/1 118/5/1 119/6/1 120/3/1
f 121/7/1 122/8/1 123/2/1 124/1/1
f 125/8/1 126/9/1 127/5/1 128/2/1

