# Tiled2Unity generated file. Do not modify by hand.
# Wavefront file for 'SalleSW_mesh_0005.obj'

# Vertices (Count = 64)
v -1560 -1128 0
v -1584 -1128 0
v -1584 -1104 0
v -1560 -1104 0
v -1584 -1128 0
v -1608 -1128 0
v -1608 -1104 0
v -1584 -1104 0
v -1560 -1152 0
v -1584 -1152 0
v -1584 -1128 0
v -1560 -1128 0
v -1584 -1152 0
v -1608 -1152 0
v -1608 -1128 0
v -1584 -1128 0
v -1776 -1152 0
v -1800 -1152 0
v -1800 -1128 0
v -1776 -1128 0
v -1800 -1152 0
v -1824 -1152 0
v -1824 -1128 0
v -1800 -1128 0
v -1440 -1176 0
v -1464 -1176 0
v -1464 -1152 0
v -1440 -1152 0
v -1464 -1176 0
v -1488 -1176 0
v -1488 -1152 0
v -1464 -1152 0
v -1776 -1176 0
v -1800 -1176 0
v -1800 -1152 0
v -1776 -1152 0
v -1800 -1176 0
v -1824 -1176 0
v -1824 -1152 0
v -1800 -1152 0
v -1440 -1200 0
v -1464 -1200 0
v -1464 -1176 0
v -1440 -1176 0
v -1464 -1200 0
v -1488 -1200 0
v -1488 -1176 0
v -1464 -1176 0
v -1680 -1200 0
v -1704 -1200 0
v -1704 -1176 0
v -1680 -1176 0
v -1704 -1200 0
v -1728 -1200 0
v -1728 -1176 0
v -1704 -1176 0
v -1680 -1224 0
v -1704 -1224 0
v -1704 -1200 0
v -1680 -1200 0
v -1704 -1224 0
v -1728 -1224 0
v -1728 -1200 0
v -1704 -1200 0

# Texture cooridinates (Count = 9)
vt 0.1875 0.15625
vt 0.21875 0.15625
vt 0.21875 0.1875
vt 0.1875 0.1875
vt 0.25 0.15625
vt 0.25 0.1875
vt 0.1875 0.125
vt 0.21875 0.125
vt 0.25 0.125

# Normal
vn 0 0 -1

# Mesh description
g SalleSW_mesh_0005

# Faces
f 1/1/1 2/2/1 3/3/1 4/4/1
f 5/2/1 6/5/1 7/6/1 8/3/1
f 9/7/1 10/8/1 11/2/1 12/1/1
f 13/8/1 14/9/1 15/5/1 16/2/1
f 17/1/1 18/2/1 19/3/1 20/4/1
f 21/2/1 22/5/1 23/6/1 24/3/1
f 25/1/1 26/2/1 27/3/1 28/4/1
f 29/2/1 30/5/1 31/6/1 32/3/1
f 33/7/1 34/8/1 35/2/1 36/1/1
f 37/8/1 38/9/1 39/5/1 40/2/1
f 41/7/1 42/8/1 43/2/1 44/1/1
f 45/8/1 46/9/1 47/5/1 48/2/1
f 49/1/1 50/2/1 51/3/1 52/4/1
f 53/2/1 54/5/1 55/6/1 56/3/1
f 57/7/1 58/8/1 59/2/1 60/1/1
f 61/8/1 62/9/1 63/5/1 64/2/1

