# Tiled2Unity generated file. Do not modify by hand.
# Wavefront file for 'SalleSW_mesh_0004.obj'

# Vertices (Count = 160)
v -1656 -1008 0
v -1680 -1008 0
v -1680 -984 0
v -1656 -984 0
v -1680 -1008 0
v -1704 -1008 0
v -1704 -984 0
v -1680 -984 0
v -1848 -1008 0
v -1872 -1008 0
v -1872 -984 0
v -1848 -984 0
v -1872 -1008 0
v -1896 -1008 0
v -1896 -984 0
v -1872 -984 0
v -1656 -1032 0
v -1680 -1032 0
v -1680 -1008 0
v -1656 -1008 0
v -1680 -1032 0
v -1704 -1032 0
v -1704 -1008 0
v -1680 -1008 0
v -1848 -1032 0
v -1872 -1032 0
v -1872 -1008 0
v -1848 -1008 0
v -1872 -1032 0
v -1896 -1032 0
v -1896 -1008 0
v -1872 -1008 0
v -1680 -1104 0
v -1704 -1104 0
v -1704 -1080 0
v -1680 -1080 0
v -1704 -1104 0
v -1728 -1104 0
v -1728 -1080 0
v -1704 -1080 0
v -1296 -1128 0
v -1320 -1128 0
v -1320 -1104 0
v -1296 -1104 0
v -1320 -1128 0
v -1344 -1128 0
v -1344 -1104 0
v -1320 -1104 0
v -1680 -1128 0
v -1704 -1128 0
v -1704 -1104 0
v -1680 -1104 0
v -1704 -1128 0
v -1728 -1128 0
v -1728 -1104 0
v -1704 -1104 0
v -1296 -1152 0
v -1320 -1152 0
v -1320 -1128 0
v -1296 -1128 0
v -1320 -1152 0
v -1344 -1152 0
v -1344 -1128 0
v -1320 -1128 0
v -1560 -1176 0
v -1584 -1176 0
v -1584 -1152 0
v -1560 -1152 0
v -1584 -1176 0
v -1608 -1176 0
v -1608 -1152 0
v -1584 -1152 0
v -1560 -1200 0
v -1584 -1200 0
v -1584 -1176 0
v -1560 -1176 0
v -1584 -1200 0
v -1608 -1200 0
v -1608 -1176 0
v -1584 -1176 0
v -1800 -1248 0
v -1824 -1248 0
v -1824 -1224 0
v -1800 -1224 0
v -1824 -1248 0
v -1848 -1248 0
v -1848 -1224 0
v -1824 -1224 0
v -1320 -1272 0
v -1344 -1272 0
v -1344 -1248 0
v -1320 -1248 0
v -1344 -1272 0
v -1368 -1272 0
v -1368 -1248 0
v -1344 -1248 0
v -1800 -1272 0
v -1824 -1272 0
v -1824 -1248 0
v -1800 -1248 0
v -1824 -1272 0
v -1848 -1272 0
v -1848 -1248 0
v -1824 -1248 0
v -1320 -1296 0
v -1344 -1296 0
v -1344 -1272 0
v -1320 -1272 0
v -1344 -1296 0
v -1368 -1296 0
v -1368 -1272 0
v -1344 -1272 0
v -1392 -1392 0
v -1416 -1392 0
v -1416 -1368 0
v -1392 -1368 0
v -1416 -1392 0
v -1440 -1392 0
v -1440 -1368 0
v -1416 -1368 0
v -1512 -1392 0
v -1536 -1392 0
v -1536 -1368 0
v -1512 -1368 0
v -1536 -1392 0
v -1560 -1392 0
v -1560 -1368 0
v -1536 -1368 0
v -1776 -1392 0
v -1800 -1392 0
v -1800 -1368 0
v -1776 -1368 0
v -1800 -1392 0
v -1824 -1392 0
v -1824 -1368 0
v -1800 -1368 0
v -1392 -1416 0
v -1416 -1416 0
v -1416 -1392 0
v -1392 -1392 0
v -1416 -1416 0
v -1440 -1416 0
v -1440 -1392 0
v -1416 -1392 0
v -1512 -1416 0
v -1536 -1416 0
v -1536 -1392 0
v -1512 -1392 0
v -1536 -1416 0
v -1560 -1416 0
v -1560 -1392 0
v -1536 -1392 0
v -1776 -1416 0
v -1800 -1416 0
v -1800 -1392 0
v -1776 -1392 0
v -1800 -1416 0
v -1824 -1416 0
v -1824 -1392 0
v -1800 -1392 0

# Texture cooridinates (Count = 27)
vt 0.5625 0.71875
vt 0.59375 0.71875
vt 0.59375 0.75
vt 0.5625 0.75
vt 0.625 0.71875
vt 0.625 0.75
vt 0.5625 0.6875
vt 0.59375 0.6875
vt 0.625 0.6875
vt 0.0625 0.59375
vt 0.09375 0.59375
vt 0.09375 0.625
vt 0.0625 0.625
vt 0.125 0.59375
vt 0.125 0.625
vt 0.6875 0.71875
vt 0.71875 0.71875
vt 0.71875 0.75
vt 0.6875 0.75
vt 0.75 0.71875
vt 0.75 0.75
vt 0.0625 0.5625
vt 0.09375 0.5625
vt 0.125 0.5625
vt 0.6875 0.6875
vt 0.71875 0.6875
vt 0.75 0.6875

# Normal
vn 0 0 -1

# Mesh description
g SalleSW_mesh_0004

# Faces
f 1/1/1 2/2/1 3/3/1 4/4/1
f 5/2/1 6/5/1 7/6/1 8/3/1
f 9/1/1 10/2/1 11/3/1 12/4/1
f 13/2/1 14/5/1 15/6/1 16/3/1
f 17/7/1 18/8/1 19/2/1 20/1/1
f 21/8/1 22/9/1 23/5/1 24/2/1
f 25/7/1 26/8/1 27/2/1 28/1/1
f 29/8/1 30/9/1 31/5/1 32/2/1
f 33/10/1 34/11/1 35/12/1 36/13/1
f 37/11/1 38/14/1 39/15/1 40/12/1
f 41/16/1 42/17/1 43/18/1 44/19/1
f 45/17/1 46/20/1 47/21/1 48/18/1
f 49/22/1 50/23/1 51/11/1 52/10/1
f 53/23/1 54/24/1 55/14/1 56/11/1
f 57/25/1 58/26/1 59/17/1 60/16/1
f 61/26/1 62/27/1 63/20/1 64/17/1
f 65/10/1 66/11/1 67/12/1 68/13/1
f 69/11/1 70/14/1 71/15/1 72/12/1
f 73/22/1 74/23/1 75/11/1 76/10/1
f 77/23/1 78/24/1 79/14/1 80/11/1
f 81/10/1 82/11/1 83/12/1 84/13/1
f 85/11/1 86/14/1 87/15/1 88/12/1
f 89/16/1 90/17/1 91/18/1 92/19/1
f 93/17/1 94/20/1 95/21/1 96/18/1
f 97/22/1 98/23/1 99/11/1 100/10/1
f 101/23/1 102/24/1 103/14/1 104/11/1
f 105/25/1 106/26/1 107/17/1 108/16/1
f 109/26/1 110/27/1 111/20/1 112/17/1
f 113/1/1 114/2/1 115/3/1 116/4/1
f 117/2/1 118/5/1 119/6/1 120/3/1
f 121/16/1 122/17/1 123/18/1 124/19/1
f 125/17/1 126/20/1 127/21/1 128/18/1
f 129/1/1 130/2/1 131/3/1 132/4/1
f 133/2/1 134/5/1 135/6/1 136/3/1
f 137/7/1 138/8/1 139/2/1 140/1/1
f 141/8/1 142/9/1 143/5/1 144/2/1
f 145/25/1 146/26/1 147/17/1 148/16/1
f 149/26/1 150/27/1 151/20/1 152/17/1
f 153/7/1 154/8/1 155/2/1 156/1/1
f 157/8/1 158/9/1 159/5/1 160/2/1

