# Tiled2Unity generated file. Do not modify by hand.
# Wavefront file for 'SalleSW_mesh_0003.obj'

# Vertices (Count = 48)
v -1464 -1008 0
v -1488 -1008 0
v -1488 -984 0
v -1464 -984 0
v -1488 -1008 0
v -1512 -1008 0
v -1512 -984 0
v -1488 -984 0
v -1536 -1008 0
v -1560 -1008 0
v -1560 -984 0
v -1536 -984 0
v -1560 -1008 0
v -1584 -1008 0
v -1584 -984 0
v -1560 -984 0
v -1776 -1008 0
v -1800 -1008 0
v -1800 -984 0
v -1776 -984 0
v -1800 -1008 0
v -1824 -1008 0
v -1824 -984 0
v -1800 -984 0
v -1464 -1032 0
v -1488 -1032 0
v -1488 -1008 0
v -1464 -1008 0
v -1488 -1032 0
v -1512 -1032 0
v -1512 -1008 0
v -1488 -1008 0
v -1536 -1032 0
v -1560 -1032 0
v -1560 -1008 0
v -1536 -1008 0
v -1560 -1032 0
v -1584 -1032 0
v -1584 -1008 0
v -1560 -1008 0
v -1776 -1032 0
v -1800 -1032 0
v -1800 -1008 0
v -1776 -1008 0
v -1800 -1032 0
v -1824 -1032 0
v -1824 -1008 0
v -1800 -1008 0

# Texture cooridinates (Count = 27)
vt 0.8125 0.21875
vt 0.84375 0.21875
vt 0.84375 0.25
vt 0.8125 0.25
vt 0.875 0.21875
vt 0.875 0.25
vt 0.9375 0.15625
vt 0.96875 0.15625
vt 0.96875 0.1875
vt 0.9375 0.1875
vt 1 0.15625
vt 1 0.1875
vt 0.6875 0.65625
vt 0.71875 0.65625
vt 0.71875 0.6875
vt 0.6875 0.6875
vt 0.75 0.65625
vt 0.75 0.6875
vt 0.8125 0.1875
vt 0.84375 0.1875
vt 0.875 0.1875
vt 0.9375 0.125
vt 0.96875 0.125
vt 1 0.125
vt 0.6875 0.625
vt 0.71875 0.625
vt 0.75 0.625

# Normal
vn 0 0 -1

# Mesh description
g SalleSW_mesh_0003

# Faces
f 1/1/1 2/2/1 3/3/1 4/4/1
f 5/2/1 6/5/1 7/6/1 8/3/1
f 9/7/1 10/8/1 11/9/1 12/10/1
f 13/8/1 14/11/1 15/12/1 16/9/1
f 17/13/1 18/14/1 19/15/1 20/16/1
f 21/14/1 22/17/1 23/18/1 24/15/1
f 25/19/1 26/20/1 27/2/1 28/1/1
f 29/20/1 30/21/1 31/5/1 32/2/1
f 33/22/1 34/23/1 35/8/1 36/7/1
f 37/23/1 38/24/1 39/11/1 40/8/1
f 41/25/1 42/26/1 43/14/1 44/13/1
f 45/26/1 46/27/1 47/17/1 48/14/1

