# Tiled2Unity generated file. Do not modify by hand.
# Wavefront file for 'SalleNS-SF---SP_mesh_0005.obj'

# Vertices (Count = 32)
v -1536 -1200 0
v -1560 -1200 0
v -1560 -1176 0
v -1536 -1176 0
v -1560 -1200 0
v -1584 -1200 0
v -1584 -1176 0
v -1560 -1176 0
v -1536 -1224 0
v -1560 -1224 0
v -1560 -1200 0
v -1536 -1200 0
v -1560 -1224 0
v -1584 -1224 0
v -1584 -1200 0
v -1560 -1200 0
v -1656 -1272 0
v -1680 -1272 0
v -1680 -1248 0
v -1656 -1248 0
v -1680 -1272 0
v -1704 -1272 0
v -1704 -1248 0
v -1680 -1248 0
v -1656 -1296 0
v -1680 -1296 0
v -1680 -1272 0
v -1656 -1272 0
v -1680 -1296 0
v -1704 -1296 0
v -1704 -1272 0
v -1680 -1272 0

# Texture cooridinates (Count = 9)
vt 0.875 0.9583333
vt 0.90625 0.9583333
vt 0.90625 1
vt 0.875 1
vt 0.9375 0.9583333
vt 0.9375 1
vt 0.875 0.9166667
vt 0.90625 0.9166667
vt 0.9375 0.9166667

# Normal
vn 0 0 -1

# Mesh description
g SalleNS-SF---SP_mesh_0005

# Faces
f 1/1/1 2/2/1 3/3/1 4/4/1
f 5/2/1 6/5/1 7/6/1 8/3/1
f 9/7/1 10/8/1 11/2/1 12/1/1
f 13/8/1 14/9/1 15/5/1 16/2/1
f 17/1/1 18/2/1 19/3/1 20/4/1
f 21/2/1 22/5/1 23/6/1 24/3/1
f 25/7/1 26/8/1 27/2/1 28/1/1
f 29/8/1 30/9/1 31/5/1 32/2/1

