# Tiled2Unity generated file. Do not modify by hand.
# Wavefront file for 'SalleNS-SF---SP_mesh_0006.obj'

# Vertices (Count = 144)
v -1368 -960 0
v -1392 -960 0
v -1392 -936 0
v -1368 -936 0
v -1392 -960 0
v -1416 -960 0
v -1416 -936 0
v -1392 -936 0
v -1416 -960 0
v -1440 -960 0
v -1440 -936 0
v -1416 -936 0
v -1440 -960 0
v -1464 -960 0
v -1464 -936 0
v -1440 -936 0
v -1464 -960 0
v -1488 -960 0
v -1488 -936 0
v -1464 -936 0
v -1488 -960 0
v -1512 -960 0
v -1512 -936 0
v -1488 -936 0
v -1512 -960 0
v -1536 -960 0
v -1536 -936 0
v -1512 -936 0
v -1536 -960 0
v -1560 -960 0
v -1560 -936 0
v -1536 -936 0
v -1560 -960 0
v -1584 -960 0
v -1584 -936 0
v -1560 -936 0
v -1728 -960 0
v -1752 -960 0
v -1752 -936 0
v -1728 -936 0
v -1752 -960 0
v -1776 -960 0
v -1776 -936 0
v -1752 -936 0
v -1776 -960 0
v -1800 -960 0
v -1800 -936 0
v -1776 -936 0
v -1800 -960 0
v -1824 -960 0
v -1824 -936 0
v -1800 -936 0
v -1824 -960 0
v -1848 -960 0
v -1848 -936 0
v -1824 -936 0
v -1848 -960 0
v -1872 -960 0
v -1872 -936 0
v -1848 -936 0
v -1872 -960 0
v -1896 -960 0
v -1896 -936 0
v -1872 -936 0
v -1896 -960 0
v -1920 -960 0
v -1920 -936 0
v -1896 -936 0
v -1920 -960 0
v -1944 -960 0
v -1944 -936 0
v -1920 -936 0
v -1416 -1344 0
v -1440 -1344 0
v -1440 -1320 0
v -1416 -1320 0
v -1440 -1344 0
v -1464 -1344 0
v -1464 -1320 0
v -1440 -1320 0
v -1464 -1344 0
v -1488 -1344 0
v -1488 -1320 0
v -1464 -1320 0
v -1488 -1344 0
v -1512 -1344 0
v -1512 -1320 0
v -1488 -1320 0
v -1512 -1344 0
v -1536 -1344 0
v -1536 -1320 0
v -1512 -1320 0
v -1536 -1344 0
v -1560 -1344 0
v -1560 -1320 0
v -1536 -1320 0
v -1560 -1344 0
v -1584 -1344 0
v -1584 -1320 0
v -1560 -1320 0
v -1584 -1344 0
v -1608 -1344 0
v -1608 -1320 0
v -1584 -1320 0
v -1608 -1344 0
v -1632 -1344 0
v -1632 -1320 0
v -1608 -1320 0
v -1680 -1344 0
v -1704 -1344 0
v -1704 -1320 0
v -1680 -1320 0
v -1704 -1344 0
v -1728 -1344 0
v -1728 -1320 0
v -1704 -1320 0
v -1728 -1344 0
v -1752 -1344 0
v -1752 -1320 0
v -1728 -1320 0
v -1752 -1344 0
v -1776 -1344 0
v -1776 -1320 0
v -1752 -1320 0
v -1776 -1344 0
v -1800 -1344 0
v -1800 -1320 0
v -1776 -1320 0
v -1800 -1344 0
v -1824 -1344 0
v -1824 -1320 0
v -1800 -1320 0
v -1824 -1344 0
v -1848 -1344 0
v -1848 -1320 0
v -1824 -1320 0
v -1848 -1344 0
v -1872 -1344 0
v -1872 -1320 0
v -1848 -1320 0
v -1872 -1344 0
v -1896 -1344 0
v -1896 -1320 0
v -1872 -1320 0

# Texture cooridinates (Count = 6)
vt 0.28125 0.9
vt 0.3125 0.9
vt 0.3125 0.9333333
vt 0.28125 0.9333333
vt 0.34375 0.9
vt 0.34375 0.9333333

# Normal
vn 0 0 -1

# Mesh description
g SalleNS-SF---SP_mesh_0006

# Faces
f 1/1/1 2/2/1 3/3/1 4/4/1
f 5/1/1 6/2/1 7/3/1 8/4/1
f 9/1/1 10/2/1 11/3/1 12/4/1
f 13/1/1 14/2/1 15/3/1 16/4/1
f 17/1/1 18/2/1 19/3/1 20/4/1
f 21/1/1 22/2/1 23/3/1 24/4/1
f 25/1/1 26/2/1 27/3/1 28/4/1
f 29/1/1 30/2/1 31/3/1 32/4/1
f 33/2/1 34/5/1 35/6/1 36/3/1
f 37/1/1 38/2/1 39/3/1 40/4/1
f 41/1/1 42/2/1 43/3/1 44/4/1
f 45/1/1 46/2/1 47/3/1 48/4/1
f 49/1/1 50/2/1 51/3/1 52/4/1
f 53/1/1 54/2/1 55/3/1 56/4/1
f 57/1/1 58/2/1 59/3/1 60/4/1
f 61/1/1 62/2/1 63/3/1 64/4/1
f 65/1/1 66/2/1 67/3/1 68/4/1
f 69/2/1 70/5/1 71/6/1 72/3/1
f 73/1/1 74/2/1 75/3/1 76/4/1
f 77/2/1 78/5/1 79/6/1 80/3/1
f 81/2/1 82/5/1 83/6/1 84/3/1
f 85/2/1 86/5/1 87/6/1 88/3/1
f 89/2/1 90/5/1 91/6/1 92/3/1
f 93/2/1 94/5/1 95/6/1 96/3/1
f 97/2/1 98/5/1 99/6/1 100/3/1
f 101/2/1 102/5/1 103/6/1 104/3/1
f 105/2/1 106/5/1 107/6/1 108/3/1
f 109/1/1 110/2/1 111/3/1 112/4/1
f 113/2/1 114/5/1 115/6/1 116/3/1
f 117/2/1 118/5/1 119/6/1 120/3/1
f 121/2/1 122/5/1 123/6/1 124/3/1
f 125/2/1 126/5/1 127/6/1 128/3/1
f 129/2/1 130/5/1 131/6/1 132/3/1
f 133/2/1 134/5/1 135/6/1 136/3/1
f 137/2/1 138/5/1 139/6/1 140/3/1
f 141/2/1 142/5/1 143/6/1 144/3/1

