# Tiled2Unity generated file. Do not modify by hand.
# Wavefront file for 'SalleNS-SF---SP_mesh_0003.obj'

# Vertices (Count = 128)
v -1416 -1128 0
v -1440 -1128 0
v -1440 -1104 0
v -1416 -1104 0
v -1440 -1128 0
v -1464 -1128 0
v -1464 -1104 0
v -1440 -1104 0
v -1464 -1128 0
v -1488 -1128 0
v -1488 -1104 0
v -1464 -1104 0
v -1488 -1128 0
v -1512 -1128 0
v -1512 -1104 0
v -1488 -1104 0
v -1512 -1128 0
v -1536 -1128 0
v -1536 -1104 0
v -1512 -1104 0
v -1536 -1128 0
v -1560 -1128 0
v -1560 -1104 0
v -1536 -1104 0
v -1560 -1128 0
v -1584 -1128 0
v -1584 -1104 0
v -1560 -1104 0
v -1584 -1128 0
v -1608 -1128 0
v -1608 -1104 0
v -1584 -1104 0
v -1704 -1128 0
v -1728 -1128 0
v -1728 -1104 0
v -1704 -1104 0
v -1728 -1128 0
v -1752 -1128 0
v -1752 -1104 0
v -1728 -1104 0
v -1752 -1128 0
v -1776 -1128 0
v -1776 -1104 0
v -1752 -1104 0
v -1776 -1128 0
v -1800 -1128 0
v -1800 -1104 0
v -1776 -1104 0
v -1800 -1128 0
v -1824 -1128 0
v -1824 -1104 0
v -1800 -1104 0
v -1824 -1128 0
v -1848 -1128 0
v -1848 -1104 0
v -1824 -1104 0
v -1848 -1128 0
v -1872 -1128 0
v -1872 -1104 0
v -1848 -1104 0
v -1872 -1128 0
v -1896 -1128 0
v -1896 -1104 0
v -1872 -1104 0
v -1416 -1152 0
v -1440 -1152 0
v -1440 -1128 0
v -1416 -1128 0
v -1440 -1152 0
v -1464 -1152 0
v -1464 -1128 0
v -1440 -1128 0
v -1464 -1152 0
v -1488 -1152 0
v -1488 -1128 0
v -1464 -1128 0
v -1488 -1152 0
v -1512 -1152 0
v -1512 -1128 0
v -1488 -1128 0
v -1512 -1152 0
v -1536 -1152 0
v -1536 -1128 0
v -1512 -1128 0
v -1536 -1152 0
v -1560 -1152 0
v -1560 -1128 0
v -1536 -1128 0
v -1560 -1152 0
v -1584 -1152 0
v -1584 -1128 0
v -1560 -1128 0
v -1584 -1152 0
v -1608 -1152 0
v -1608 -1128 0
v -1584 -1128 0
v -1704 -1152 0
v -1728 -1152 0
v -1728 -1128 0
v -1704 -1128 0
v -1728 -1152 0
v -1752 -1152 0
v -1752 -1128 0
v -1728 -1128 0
v -1752 -1152 0
v -1776 -1152 0
v -1776 -1128 0
v -1752 -1128 0
v -1776 -1152 0
v -1800 -1152 0
v -1800 -1128 0
v -1776 -1128 0
v -1800 -1152 0
v -1824 -1152 0
v -1824 -1128 0
v -1800 -1128 0
v -1824 -1152 0
v -1848 -1152 0
v -1848 -1128 0
v -1824 -1128 0
v -1848 -1152 0
v -1872 -1152 0
v -1872 -1128 0
v -1848 -1128 0
v -1872 -1152 0
v -1896 -1152 0
v -1896 -1128 0
v -1872 -1128 0

# Texture cooridinates (Count = 15)
vt 0.4375 0.90625
vt 0.46875 0.90625
vt 0.46875 0.9375
vt 0.4375 0.9375
vt 0.5 0.90625
vt 0.5 0.9375
vt 0.375 0.90625
vt 0.40625 0.90625
vt 0.40625 0.9375
vt 0.375 0.9375
vt 0.4375 0.875
vt 0.46875 0.875
vt 0.5 0.875
vt 0.375 0.875
vt 0.40625 0.875

# Normal
vn 0 0 -1

# Mesh description
g SalleNS-SF---SP_mesh_0003

# Faces
f 1/1/1 2/2/1 3/3/1 4/4/1
f 5/2/1 6/5/1 7/6/1 8/3/1
f 9/1/1 10/2/1 11/3/1 12/4/1
f 13/2/1 14/5/1 15/6/1 16/3/1
f 17/1/1 18/2/1 19/3/1 20/4/1
f 21/2/1 22/5/1 23/6/1 24/3/1
f 25/7/1 26/8/1 27/9/1 28/10/1
f 29/8/1 30/1/1 31/4/1 32/9/1
f 33/7/1 34/8/1 35/9/1 36/10/1
f 37/8/1 38/1/1 39/4/1 40/9/1
f 41/1/1 42/2/1 43/3/1 44/4/1
f 45/2/1 46/5/1 47/6/1 48/3/1
f 49/7/1 50/8/1 51/9/1 52/10/1
f 53/8/1 54/1/1 55/4/1 56/9/1
f 57/1/1 58/2/1 59/3/1 60/4/1
f 61/2/1 62/5/1 63/6/1 64/3/1
f 65/11/1 66/12/1 67/2/1 68/1/1
f 69/12/1 70/13/1 71/5/1 72/2/1
f 73/11/1 74/12/1 75/2/1 76/1/1
f 77/12/1 78/13/1 79/5/1 80/2/1
f 81/11/1 82/12/1 83/2/1 84/1/1
f 85/12/1 86/13/1 87/5/1 88/2/1
f 89/14/1 90/15/1 91/8/1 92/7/1
f 93/15/1 94/11/1 95/1/1 96/8/1
f 97/14/1 98/15/1 99/8/1 100/7/1
f 101/15/1 102/11/1 103/1/1 104/8/1
f 105/11/1 106/12/1 107/2/1 108/1/1
f 109/12/1 110/13/1 111/5/1 112/2/1
f 113/14/1 114/15/1 115/8/1 116/7/1
f 117/15/1 118/11/1 119/1/1 120/8/1
f 121/11/1 122/12/1 123/2/1 124/1/1
f 125/12/1 126/13/1 127/5/1 128/2/1

