# Tiled2Unity generated file. Do not modify by hand.
# Wavefront file for 'SalleNS-SF---SP_mesh_0004.obj'

# Vertices (Count = 48)
v -1752 -1176 0
v -1776 -1176 0
v -1776 -1152 0
v -1752 -1152 0
v -1776 -1176 0
v -1800 -1176 0
v -1800 -1152 0
v -1776 -1152 0
v -1752 -1200 0
v -1776 -1200 0
v -1776 -1176 0
v -1752 -1176 0
v -1776 -1200 0
v -1800 -1200 0
v -1800 -1176 0
v -1776 -1176 0
v -1488 -1272 0
v -1512 -1272 0
v -1512 -1248 0
v -1488 -1248 0
v -1512 -1272 0
v -1536 -1272 0
v -1536 -1248 0
v -1512 -1248 0
v -1824 -1272 0
v -1848 -1272 0
v -1848 -1248 0
v -1824 -1248 0
v -1848 -1272 0
v -1872 -1272 0
v -1872 -1248 0
v -1848 -1248 0
v -1488 -1296 0
v -1512 -1296 0
v -1512 -1272 0
v -1488 -1272 0
v -1512 -1296 0
v -1536 -1296 0
v -1536 -1272 0
v -1512 -1272 0
v -1824 -1296 0
v -1848 -1296 0
v -1848 -1272 0
v -1824 -1272 0
v -1848 -1296 0
v -1872 -1296 0
v -1872 -1272 0
v -1848 -1272 0

# Texture cooridinates (Count = 18)
vt 0 0.28125
vt 0.03125 0.28125
vt 0.03125 0.3125
vt 0 0.3125
vt 0.0625 0.28125
vt 0.0625 0.3125
vt 0 0.25
vt 0.03125 0.25
vt 0.0625 0.25
vt 0.1875 0.28125
vt 0.21875 0.28125
vt 0.21875 0.3125
vt 0.1875 0.3125
vt 0.25 0.28125
vt 0.25 0.3125
vt 0.1875 0.25
vt 0.21875 0.25
vt 0.25 0.25

# Normal
vn 0 0 -1

# Mesh description
g SalleNS-SF---SP_mesh_0004

# Faces
f 1/1/1 2/2/1 3/3/1 4/4/1
f 5/2/1 6/5/1 7/6/1 8/3/1
f 9/7/1 10/8/1 11/2/1 12/1/1
f 13/8/1 14/9/1 15/5/1 16/2/1
f 17/10/1 18/11/1 19/12/1 20/13/1
f 21/11/1 22/14/1 23/15/1 24/12/1
f 25/10/1 26/11/1 27/12/1 28/13/1
f 29/11/1 30/14/1 31/15/1 32/12/1
f 33/16/1 34/17/1 35/11/1 36/10/1
f 37/17/1 38/18/1 39/14/1 40/11/1
f 41/16/1 42/17/1 43/11/1 44/10/1
f 45/17/1 46/18/1 47/14/1 48/11/1

