# Tiled2Unity generated file. Do not modify by hand.
# Wavefront file for 'SalleSW-Triste_mesh_0007.obj'

# Vertices (Count = 136)
v -1800 -1104 0
v -1824 -1104 0
v -1824 -1080 0
v -1800 -1080 0
v -1824 -1104 0
v -1848 -1104 0
v -1848 -1080 0
v -1824 -1080 0
v -1848 -1104 0
v -1872 -1104 0
v -1872 -1080 0
v -1848 -1080 0
v -1872 -1104 0
v -1896 -1104 0
v -1896 -1080 0
v -1872 -1080 0
v -1800 -1128 0
v -1824 -1128 0
v -1824 -1104 0
v -1800 -1104 0
v -1824 -1128 0
v -1848 -1128 0
v -1848 -1104 0
v -1824 -1104 0
v -1848 -1128 0
v -1872 -1128 0
v -1872 -1104 0
v -1848 -1104 0
v -1872 -1128 0
v -1896 -1128 0
v -1896 -1104 0
v -1872 -1104 0
v -1704 -1152 0
v -1728 -1152 0
v -1728 -1128 0
v -1704 -1128 0
v -1728 -1152 0
v -1752 -1152 0
v -1752 -1128 0
v -1728 -1128 0
v -1848 -1152 0
v -1872 -1152 0
v -1872 -1128 0
v -1848 -1128 0
v -1872 -1152 0
v -1896 -1152 0
v -1896 -1128 0
v -1872 -1128 0
v -1704 -1176 0
v -1728 -1176 0
v -1728 -1152 0
v -1704 -1152 0
v -1728 -1176 0
v -1752 -1176 0
v -1752 -1152 0
v -1728 -1152 0
v -1800 -1176 0
v -1824 -1176 0
v -1824 -1152 0
v -1800 -1152 0
v -1824 -1176 0
v -1848 -1176 0
v -1848 -1152 0
v -1824 -1152 0
v -1848 -1176 0
v -1872 -1176 0
v -1872 -1152 0
v -1848 -1152 0
v -1872 -1176 0
v -1896 -1176 0
v -1896 -1152 0
v -1872 -1152 0
v -1800 -1200 0
v -1824 -1200 0
v -1824 -1176 0
v -1800 -1176 0
v -1824 -1200 0
v -1848 -1200 0
v -1848 -1176 0
v -1824 -1176 0
v -1848 -1200 0
v -1872 -1200 0
v -1872 -1176 0
v -1848 -1176 0
v -1872 -1200 0
v -1896 -1200 0
v -1896 -1176 0
v -1872 -1176 0
v -1848 -1224 0
v -1872 -1224 0
v -1872 -1200 0
v -1848 -1200 0
v -1872 -1224 0
v -1896 -1224 0
v -1896 -1200 0
v -1872 -1200 0
v -1848 -1248 0
v -1872 -1248 0
v -1872 -1224 0
v -1848 -1224 0
v -1872 -1248 0
v -1896 -1248 0
v -1896 -1224 0
v -1872 -1224 0
v -1464 -1296 0
v -1488 -1296 0
v -1488 -1272 0
v -1464 -1272 0
v -1488 -1296 0
v -1512 -1296 0
v -1512 -1272 0
v -1488 -1272 0
v -1512 -1296 0
v -1536 -1296 0
v -1536 -1272 0
v -1512 -1272 0
v -1536 -1296 0
v -1560 -1296 0
v -1560 -1272 0
v -1536 -1272 0
v -1464 -1320 0
v -1488 -1320 0
v -1488 -1296 0
v -1464 -1296 0
v -1488 -1320 0
v -1512 -1320 0
v -1512 -1296 0
v -1488 -1296 0
v -1512 -1320 0
v -1536 -1320 0
v -1536 -1296 0
v -1512 -1296 0
v -1536 -1320 0
v -1560 -1320 0
v -1560 -1296 0
v -1536 -1296 0

# Texture cooridinates (Count = 42)
vt 0.0625 0.40625
vt 0.09375 0.40625
vt 0.09375 0.4375
vt 0.0625 0.4375
vt 0.125 0.40625
vt 0.125 0.4375
vt 0.0625 0.59375
vt 0.09375 0.59375
vt 0.09375 0.625
vt 0.0625 0.625
vt 0.125 0.59375
vt 0.125 0.625
vt 0.0625 0.375
vt 0.09375 0.375
vt 0.125 0.375
vt 0.0625 0.5625
vt 0.09375 0.5625
vt 0.125 0.5625
vt 0.625 0.03125
vt 0.65625 0.03125
vt 0.65625 0.0625
vt 0.625 0.0625
vt 0.6875 0.03125
vt 0.6875 0.0625
vt 0.625 0
vt 0.65625 0
vt 0.6875 0
vt 0.0625 0.53125
vt 0.09375 0.53125
vt 0.125 0.53125
vt 0.0625 0.5
vt 0.09375 0.5
vt 0.125 0.5
vt 0 0.15625
vt 0.03125 0.15625
vt 0.03125 0.1875
vt 0 0.1875
vt 0.0625 0.15625
vt 0.0625 0.1875
vt 0 0.125
vt 0.03125 0.125
vt 0.0625 0.125

# Normal
vn 0 0 -1

# Mesh description
g SalleSW-Triste_mesh_0007

# Faces
f 1/1/1 2/2/1 3/3/1 4/4/1
f 5/2/1 6/5/1 7/6/1 8/3/1
f 9/7/1 10/8/1 11/9/1 12/10/1
f 13/8/1 14/11/1 15/12/1 16/9/1
f 17/13/1 18/14/1 19/2/1 20/1/1
f 21/14/1 22/15/1 23/5/1 24/2/1
f 25/16/1 26/17/1 27/8/1 28/7/1
f 29/17/1 30/18/1 31/11/1 32/8/1
f 33/19/1 34/20/1 35/21/1 36/22/1
f 37/20/1 38/23/1 39/24/1 40/21/1
f 41/7/1 42/8/1 43/9/1 44/10/1
f 45/8/1 46/11/1 47/12/1 48/9/1
f 49/25/1 50/26/1 51/20/1 52/19/1
f 53/26/1 54/27/1 55/23/1 56/20/1
f 57/28/1 58/29/1 59/17/1 60/16/1
f 61/29/1 62/30/1 63/18/1 64/17/1
f 65/7/1 66/8/1 67/9/1 68/10/1
f 69/8/1 70/11/1 71/12/1 72/9/1
f 73/31/1 74/32/1 75/29/1 76/28/1
f 77/32/1 78/33/1 79/30/1 80/29/1
f 81/16/1 82/17/1 83/8/1 84/7/1
f 85/17/1 86/18/1 87/11/1 88/8/1
f 89/7/1 90/8/1 91/9/1 92/10/1
f 93/8/1 94/11/1 95/12/1 96/9/1
f 97/16/1 98/17/1 99/8/1 100/7/1
f 101/17/1 102/18/1 103/11/1 104/8/1
f 105/34/1 106/35/1 107/36/1 108/37/1
f 109/35/1 110/38/1 111/39/1 112/36/1
f 113/34/1 114/35/1 115/36/1 116/37/1
f 117/35/1 118/38/1 119/39/1 120/36/1
f 121/40/1 122/41/1 123/35/1 124/34/1
f 125/41/1 126/42/1 127/38/1 128/35/1
f 129/40/1 130/41/1 131/35/1 132/34/1
f 133/41/1 134/42/1 135/38/1 136/35/1

