# Tiled2Unity generated file. Do not modify by hand.
# Wavefront file for 'SalleNE-SF---SP_mesh_0004.obj'

# Vertices (Count = 32)
v -1440 -1152 0
v -1464 -1152 0
v -1464 -1128 0
v -1440 -1128 0
v -1464 -1152 0
v -1488 -1152 0
v -1488 -1128 0
v -1464 -1128 0
v -1536 -1152 0
v -1560 -1152 0
v -1560 -1128 0
v -1536 -1128 0
v -1560 -1152 0
v -1584 -1152 0
v -1584 -1128 0
v -1560 -1128 0
v -1440 -1272 0
v -1464 -1272 0
v -1464 -1248 0
v -1440 -1248 0
v -1464 -1272 0
v -1488 -1272 0
v -1488 -1248 0
v -1464 -1248 0
v -1536 -1272 0
v -1560 -1272 0
v -1560 -1248 0
v -1536 -1248 0
v -1560 -1272 0
v -1584 -1272 0
v -1584 -1248 0
v -1560 -1248 0

# Texture cooridinates (Count = 6)
vt 0.25 0.09375
vt 0.28125 0.09375
vt 0.28125 0.125
vt 0.25 0.125
vt 0.3125 0.09375
vt 0.3125 0.125

# Normal
vn 0 0 -1

# Mesh description
g SalleNE-SF---SP_mesh_0004

# Faces
f 1/1/1 2/2/1 3/3/1 4/4/1
f 5/2/1 6/5/1 7/6/1 8/3/1
f 9/1/1 10/2/1 11/3/1 12/4/1
f 13/2/1 14/5/1 15/6/1 16/3/1
f 17/1/1 18/2/1 19/3/1 20/4/1
f 21/2/1 22/5/1 23/6/1 24/3/1
f 25/1/1 26/2/1 27/3/1 28/4/1
f 29/2/1 30/5/1 31/6/1 32/3/1

