# Tiled2Unity generated file. Do not modify by hand.
# Wavefront file for 'BossRoom-Alt_mesh_0005.obj'

# Vertices (Count = 144)
v -144 -72 0
v -168 -72 0
v -168 -48 0
v -144 -48 0
v -168 -72 0
v -192 -72 0
v -192 -48 0
v -168 -48 0
v -288 -72 0
v -312 -72 0
v -312 -48 0
v -288 -48 0
v -312 -72 0
v -336 -72 0
v -336 -48 0
v -312 -48 0
v -624 -72 0
v -648 -72 0
v -648 -48 0
v -624 -48 0
v -648 -72 0
v -672 -72 0
v -672 -48 0
v -648 -48 0
v -672 -72 0
v -696 -72 0
v -696 -48 0
v -672 -48 0
v -696 -72 0
v -720 -72 0
v -720 -48 0
v -696 -48 0
v -144 -96 0
v -168 -96 0
v -168 -72 0
v -144 -72 0
v -168 -96 0
v -192 -96 0
v -192 -72 0
v -168 -72 0
v -288 -96 0
v -312 -96 0
v -312 -72 0
v -288 -72 0
v -312 -96 0
v -336 -96 0
v -336 -72 0
v -312 -72 0
v -624 -96 0
v -648 -96 0
v -648 -72 0
v -624 -72 0
v -648 -96 0
v -672 -96 0
v -672 -72 0
v -648 -72 0
v -672 -96 0
v -696 -96 0
v -696 -72 0
v -672 -72 0
v -696 -96 0
v -720 -96 0
v -720 -72 0
v -696 -72 0
v -48 -120 0
v -72 -120 0
v -72 -96 0
v -48 -96 0
v -72 -120 0
v -96 -120 0
v -96 -96 0
v -72 -96 0
v -48 -144 0
v -72 -144 0
v -72 -120 0
v -48 -120 0
v -72 -144 0
v -96 -144 0
v -96 -120 0
v -72 -120 0
v -48 -264 0
v -72 -264 0
v -72 -240 0
v -48 -240 0
v -72 -264 0
v -96 -264 0
v -96 -240 0
v -72 -240 0
v -48 -288 0
v -72 -288 0
v -72 -264 0
v -48 -264 0
v -72 -288 0
v -96 -288 0
v -96 -264 0
v -72 -264 0
v -144 -552 0
v -168 -552 0
v -168 -528 0
v -144 -528 0
v -168 -552 0
v -192 -552 0
v -192 -528 0
v -168 -528 0
v -384 -552 0
v -408 -552 0
v -408 -528 0
v -384 -528 0
v -408 -552 0
v -432 -552 0
v -432 -528 0
v -408 -528 0
v -672 -552 0
v -696 -552 0
v -696 -528 0
v -672 -528 0
v -696 -552 0
v -720 -552 0
v -720 -528 0
v -696 -528 0
v -144 -576 0
v -168 -576 0
v -168 -552 0
v -144 -552 0
v -168 -576 0
v -192 -576 0
v -192 -552 0
v -168 -552 0
v -384 -576 0
v -408 -576 0
v -408 -552 0
v -384 -552 0
v -408 -576 0
v -432 -576 0
v -432 -552 0
v -408 -552 0
v -672 -576 0
v -696 -576 0
v -696 -552 0
v -672 -552 0
v -696 -576 0
v -720 -576 0
v -720 -552 0
v -696 -552 0

# Texture cooridinates (Count = 21)
vt 0.8125 0.90625
vt 0.84375 0.90625
vt 0.84375 0.9375
vt 0.8125 0.9375
vt 0.875 0.90625
vt 0.875 0.9375
vt 0.75 0.75
vt 0.78125 0.75
vt 0.78125 0.78125
vt 0.75 0.78125
vt 0.8125 0.75
vt 0.8125 0.78125
vt 0.75 0.71875
vt 0.78125 0.71875
vt 0.8125 0.71875
vt 0.8125 0.875
vt 0.84375 0.875
vt 0.875 0.875
vt 0.75 0.6875
vt 0.78125 0.6875
vt 0.8125 0.6875

# Normal
vn 0 0 -1

# Mesh description
g BossRoom-Alt_mesh_0005

# Faces
f 1/1/1 2/2/1 3/3/1 4/4/1
f 5/2/1 6/5/1 7/6/1 8/3/1
f 9/7/1 10/8/1 11/9/1 12/10/1
f 13/8/1 14/11/1 15/12/1 16/9/1
f 17/13/1 18/14/1 19/8/1 20/7/1
f 21/14/1 22/15/1 23/11/1 24/8/1
f 25/1/1 26/2/1 27/3/1 28/4/1
f 29/2/1 30/5/1 31/6/1 32/3/1
f 33/16/1 34/17/1 35/2/1 36/1/1
f 37/17/1 38/18/1 39/5/1 40/2/1
f 41/13/1 42/14/1 43/8/1 44/7/1
f 45/14/1 46/15/1 47/11/1 48/8/1
f 49/19/1 50/20/1 51/14/1 52/13/1
f 53/20/1 54/21/1 55/15/1 56/14/1
f 57/16/1 58/17/1 59/2/1 60/1/1
f 61/17/1 62/18/1 63/5/1 64/2/1
f 65/1/1 66/2/1 67/3/1 68/4/1
f 69/2/1 70/5/1 71/6/1 72/3/1
f 73/16/1 74/17/1 75/2/1 76/1/1
f 77/17/1 78/18/1 79/5/1 80/2/1
f 81/1/1 82/2/1 83/3/1 84/4/1
f 85/2/1 86/5/1 87/6/1 88/3/1
f 89/16/1 90/17/1 91/2/1 92/1/1
f 93/17/1 94/18/1 95/5/1 96/2/1
f 97/1/1 98/2/1 99/3/1 100/4/1
f 101/2/1 102/5/1 103/6/1 104/3/1
f 105/13/1 106/14/1 107/8/1 108/7/1
f 109/14/1 110/15/1 111/11/1 112/8/1
f 113/1/1 114/2/1 115/3/1 116/4/1
f 117/2/1 118/5/1 119/6/1 120/3/1
f 121/16/1 122/17/1 123/2/1 124/1/1
f 125/17/1 126/18/1 127/5/1 128/2/1
f 129/19/1 130/20/1 131/14/1 132/13/1
f 133/20/1 134/21/1 135/15/1 136/14/1
f 137/16/1 138/17/1 139/2/1 140/1/1
f 141/17/1 142/18/1 143/5/1 144/2/1

