# Tiled2Unity generated file. Do not modify by hand.
# Wavefront file for 'SalleN-SF---SP_mesh_0005.obj'

# Vertices (Count = 16)
v -1512 -1008 0
v -1536 -1008 0
v -1536 -984 0
v -1512 -984 0
v -1536 -1008 0
v -1560 -1008 0
v -1560 -984 0
v -1536 -984 0
v -1512 -1032 0
v -1536 -1032 0
v -1536 -1008 0
v -1512 -1008 0
v -1536 -1032 0
v -1560 -1032 0
v -1560 -1008 0
v -1536 -1008 0

# Texture cooridinates (Count = 9)
vt 0.0625 0.53125
vt 0.09375 0.53125
vt 0.09375 0.5625
vt 0.0625 0.5625
vt 0.125 0.53125
vt 0.125 0.5625
vt 0.0625 0.5
vt 0.09375 0.5
vt 0.125 0.5

# Normal
vn 0 0 -1

# Mesh description
g SalleN-SF---SP_mesh_0005

# Faces
f 1/1/1 2/2/1 3/3/1 4/4/1
f 5/2/1 6/5/1 7/6/1 8/3/1
f 9/7/1 10/8/1 11/2/1 12/1/1
f 13/8/1 14/9/1 15/5/1 16/2/1

