# Tiled2Unity generated file. Do not modify by hand.
# Wavefront file for 'SalleN-SF---SP_mesh_0006.obj'

# Vertices (Count = 80)
v -1848 -1080 0
v -1872 -1080 0
v -1872 -1056 0
v -1848 -1056 0
v -1872 -1080 0
v -1896 -1080 0
v -1896 -1056 0
v -1872 -1056 0
v -1848 -1104 0
v -1872 -1104 0
v -1872 -1080 0
v -1848 -1080 0
v -1872 -1104 0
v -1896 -1104 0
v -1896 -1080 0
v -1872 -1080 0
v -1848 -1128 0
v -1872 -1128 0
v -1872 -1104 0
v -1848 -1104 0
v -1872 -1128 0
v -1896 -1128 0
v -1896 -1104 0
v -1872 -1104 0
v -1848 -1152 0
v -1872 -1152 0
v -1872 -1128 0
v -1848 -1128 0
v -1872 -1152 0
v -1896 -1152 0
v -1896 -1128 0
v -1872 -1128 0
v -1848 -1176 0
v -1872 -1176 0
v -1872 -1152 0
v -1848 -1152 0
v -1872 -1176 0
v -1896 -1176 0
v -1896 -1152 0
v -1872 -1152 0
v -1848 -1200 0
v -1872 -1200 0
v -1872 -1176 0
v -1848 -1176 0
v -1872 -1200 0
v -1896 -1200 0
v -1896 -1176 0
v -1872 -1176 0
v -1848 -1224 0
v -1872 -1224 0
v -1872 -1200 0
v -1848 -1200 0
v -1872 -1224 0
v -1896 -1224 0
v -1896 -1200 0
v -1872 -1200 0
v -1848 -1248 0
v -1872 -1248 0
v -1872 -1224 0
v -1848 -1224 0
v -1872 -1248 0
v -1896 -1248 0
v -1896 -1224 0
v -1872 -1224 0
v -1848 -1272 0
v -1872 -1272 0
v -1872 -1248 0
v -1848 -1248 0
v -1872 -1272 0
v -1896 -1272 0
v -1896 -1248 0
v -1872 -1248 0
v -1848 -1296 0
v -1872 -1296 0
v -1872 -1272 0
v -1848 -1272 0
v -1872 -1296 0
v -1896 -1296 0
v -1896 -1272 0
v -1872 -1272 0

# Texture cooridinates (Count = 21)
vt 0 0.53125
vt 0.03125 0.53125
vt 0.03125 0.5625
vt 0 0.5625
vt 0.0625 0.53125
vt 0.0625 0.5625
vt 0 0.5
vt 0.03125 0.5
vt 0.0625 0.5
vt 0 0.46875
vt 0.03125 0.46875
vt 0.0625 0.46875
vt 0 0.4375
vt 0.03125 0.4375
vt 0.0625 0.4375
vt 0 0.40625
vt 0.03125 0.40625
vt 0.0625 0.40625
vt 0 0.375
vt 0.03125 0.375
vt 0.0625 0.375

# Normal
vn 0 0 -1

# Mesh description
g SalleN-SF---SP_mesh_0006

# Faces
f 1/1/1 2/2/1 3/3/1 4/4/1
f 5/2/1 6/5/1 7/6/1 8/3/1
f 9/7/1 10/8/1 11/2/1 12/1/1
f 13/8/1 14/9/1 15/5/1 16/2/1
f 17/10/1 18/11/1 19/8/1 20/7/1
f 21/11/1 22/12/1 23/9/1 24/8/1
f 25/13/1 26/14/1 27/11/1 28/10/1
f 29/14/1 30/15/1 31/12/1 32/11/1
f 33/10/1 34/11/1 35/8/1 36/7/1
f 37/11/1 38/12/1 39/9/1 40/8/1
f 41/13/1 42/14/1 43/11/1 44/10/1
f 45/14/1 46/15/1 47/12/1 48/11/1
f 49/10/1 50/11/1 51/8/1 52/7/1
f 53/11/1 54/12/1 55/9/1 56/8/1
f 57/13/1 58/14/1 59/11/1 60/10/1
f 61/14/1 62/15/1 63/12/1 64/11/1
f 65/16/1 66/17/1 67/14/1 68/13/1
f 69/17/1 70/18/1 71/15/1 72/14/1
f 73/19/1 74/20/1 75/17/1 76/16/1
f 77/20/1 78/21/1 79/18/1 80/17/1

