# Tiled2Unity generated file. Do not modify by hand.
# Wavefront file for 'SalleN-SF---SP_mesh_0002.obj'

# Vertices (Count = 168)
v -1416 -1008 0
v -1440 -1008 0
v -1440 -984 0
v -1416 -984 0
v -1440 -1008 0
v -1464 -1008 0
v -1464 -984 0
v -1440 -984 0
v -1416 -1032 0
v -1440 -1032 0
v -1440 -1008 0
v -1416 -1008 0
v -1440 -1032 0
v -1464 -1032 0
v -1464 -1008 0
v -1440 -1008 0
v -1416 -1080 0
v -1440 -1080 0
v -1440 -1056 0
v -1416 -1056 0
v -1440 -1080 0
v -1464 -1080 0
v -1464 -1056 0
v -1440 -1056 0
v -1464 -1080 0
v -1488 -1080 0
v -1488 -1056 0
v -1464 -1056 0
v -1488 -1080 0
v -1512 -1080 0
v -1512 -1056 0
v -1488 -1056 0
v -1512 -1080 0
v -1536 -1080 0
v -1536 -1056 0
v -1512 -1056 0
v -1416 -1104 0
v -1440 -1104 0
v -1440 -1080 0
v -1416 -1080 0
v -1440 -1104 0
v -1464 -1104 0
v -1464 -1080 0
v -1440 -1080 0
v -1464 -1104 0
v -1488 -1104 0
v -1488 -1080 0
v -1464 -1080 0
v -1488 -1104 0
v -1512 -1104 0
v -1512 -1080 0
v -1488 -1080 0
v -1512 -1104 0
v -1536 -1104 0
v -1536 -1080 0
v -1512 -1080 0
v -1416 -1176 0
v -1440 -1176 0
v -1440 -1152 0
v -1416 -1152 0
v -1440 -1176 0
v -1464 -1176 0
v -1464 -1152 0
v -1440 -1152 0
v -1464 -1176 0
v -1488 -1176 0
v -1488 -1152 0
v -1464 -1152 0
v -1488 -1176 0
v -1512 -1176 0
v -1512 -1152 0
v -1488 -1152 0
v -1512 -1176 0
v -1536 -1176 0
v -1536 -1152 0
v -1512 -1152 0
v -1416 -1200 0
v -1440 -1200 0
v -1440 -1176 0
v -1416 -1176 0
v -1440 -1200 0
v -1464 -1200 0
v -1464 -1176 0
v -1440 -1176 0
v -1464 -1200 0
v -1488 -1200 0
v -1488 -1176 0
v -1464 -1176 0
v -1488 -1200 0
v -1512 -1200 0
v -1512 -1176 0
v -1488 -1176 0
v -1512 -1200 0
v -1536 -1200 0
v -1536 -1176 0
v -1512 -1176 0
v -1416 -1272 0
v -1440 -1272 0
v -1440 -1248 0
v -1416 -1248 0
v -1440 -1272 0
v -1464 -1272 0
v -1464 -1248 0
v -1440 -1248 0
v -1464 -1272 0
v -1488 -1272 0
v -1488 -1248 0
v -1464 -1248 0
v -1488 -1272 0
v -1512 -1272 0
v -1512 -1248 0
v -1488 -1248 0
v -1512 -1272 0
v -1536 -1272 0
v -1536 -1248 0
v -1512 -1248 0
v -1416 -1296 0
v -1440 -1296 0
v -1440 -1272 0
v -1416 -1272 0
v -1440 -1296 0
v -1464 -1296 0
v -1464 -1272 0
v -1440 -1272 0
v -1464 -1296 0
v -1488 -1296 0
v -1488 -1272 0
v -1464 -1272 0
v -1488 -1296 0
v -1512 -1296 0
v -1512 -1272 0
v -1488 -1272 0
v -1512 -1296 0
v -1536 -1296 0
v -1536 -1272 0
v -1512 -1272 0
v -1464 -1392 0
v -1488 -1392 0
v -1488 -1368 0
v -1464 -1368 0
v -1488 -1392 0
v -1512 -1392 0
v -1512 -1368 0
v -1488 -1368 0
v -1800 -1392 0
v -1824 -1392 0
v -1824 -1368 0
v -1800 -1368 0
v -1824 -1392 0
v -1848 -1392 0
v -1848 -1368 0
v -1824 -1368 0
v -1464 -1416 0
v -1488 -1416 0
v -1488 -1392 0
v -1464 -1392 0
v -1488 -1416 0
v -1512 -1416 0
v -1512 -1392 0
v -1488 -1392 0
v -1800 -1416 0
v -1824 -1416 0
v -1824 -1392 0
v -1800 -1392 0
v -1824 -1416 0
v -1848 -1416 0
v -1848 -1392 0
v -1824 -1392 0

# Texture cooridinates (Count = 36)
vt 0.3125 0.15625
vt 0.34375 0.15625
vt 0.34375 0.1875
vt 0.3125 0.1875
vt 0.375 0.15625
vt 0.375 0.1875
vt 0.3125 0.125
vt 0.34375 0.125
vt 0.375 0.125
vt 0.09375 0.28125
vt 0.125 0.28125
vt 0.125 0.3125
vt 0.09375 0.3125
vt 0.15625 0.28125
vt 0.15625 0.3125
vt 0.1875 0.28125
vt 0.1875 0.3125
vt 0.21875 0.28125
vt 0.21875 0.3125
vt 0.25 0.28125
vt 0.25 0.3125
vt 0.09375 0.25
vt 0.125 0.25
vt 0.15625 0.25
vt 0.1875 0.25
vt 0.21875 0.25
vt 0.25 0.25
vt 0.375 0.53125
vt 0.40625 0.53125
vt 0.40625 0.5625
vt 0.375 0.5625
vt 0.4375 0.53125
vt 0.4375 0.5625
vt 0.375 0.5
vt 0.40625 0.5
vt 0.4375 0.5

# Normal
vn 0 0 -1

# Mesh description
g SalleN-SF---SP_mesh_0002

# Faces
f 1/1/1 2/2/1 3/3/1 4/4/1
f 5/2/1 6/5/1 7/6/1 8/3/1
f 9/7/1 10/8/1 11/2/1 12/1/1
f 13/8/1 14/9/1 15/5/1 16/2/1
f 17/10/1 18/11/1 19/12/1 20/13/1
f 21/11/1 22/14/1 23/15/1 24/12/1
f 25/14/1 26/16/1 27/17/1 28/15/1
f 29/16/1 30/18/1 31/19/1 32/17/1
f 33/18/1 34/20/1 35/21/1 36/19/1
f 37/22/1 38/23/1 39/11/1 40/10/1
f 41/23/1 42/24/1 43/14/1 44/11/1
f 45/24/1 46/25/1 47/16/1 48/14/1
f 49/25/1 50/26/1 51/18/1 52/16/1
f 53/26/1 54/27/1 55/20/1 56/18/1
f 57/10/1 58/11/1 59/12/1 60/13/1
f 61/11/1 62/14/1 63/15/1 64/12/1
f 65/14/1 66/16/1 67/17/1 68/15/1
f 69/16/1 70/18/1 71/19/1 72/17/1
f 73/18/1 74/20/1 75/21/1 76/19/1
f 77/22/1 78/23/1 79/11/1 80/10/1
f 81/23/1 82/24/1 83/14/1 84/11/1
f 85/24/1 86/25/1 87/16/1 88/14/1
f 89/25/1 90/26/1 91/18/1 92/16/1
f 93/26/1 94/27/1 95/20/1 96/18/1
f 97/10/1 98/11/1 99/12/1 100/13/1
f 101/11/1 102/14/1 103/15/1 104/12/1
f 105/14/1 106/16/1 107/17/1 108/15/1
f 109/16/1 110/18/1 111/19/1 112/17/1
f 113/18/1 114/20/1 115/21/1 116/19/1
f 117/22/1 118/23/1 119/11/1 120/10/1
f 121/23/1 122/24/1 123/14/1 124/11/1
f 125/24/1 126/25/1 127/16/1 128/14/1
f 129/25/1 130/26/1 131/18/1 132/16/1
f 133/26/1 134/27/1 135/20/1 136/18/1
f 137/28/1 138/29/1 139/30/1 140/31/1
f 141/29/1 142/32/1 143/33/1 144/30/1
f 145/28/1 146/29/1 147/30/1 148/31/1
f 149/29/1 150/32/1 151/33/1 152/30/1
f 153/34/1 154/35/1 155/29/1 156/28/1
f 157/35/1 158/36/1 159/32/1 160/29/1
f 161/34/1 162/35/1 163/29/1 164/28/1
f 165/35/1 166/36/1 167/32/1 168/29/1

