# Tiled2Unity generated file. Do not modify by hand.
# Wavefront file for 'SalleNSEW_mesh_0001.obj'

# Vertices (Count = 960)
v -1584 -888 0
v -1608 -888 0
v -1608 -864 0
v -1584 -864 0
v -1608 -888 0
v -1632 -888 0
v -1632 -864 0
v -1608 -864 0
v -1680 -888 0
v -1704 -888 0
v -1704 -864 0
v -1680 -864 0
v -1704 -888 0
v -1728 -888 0
v -1728 -864 0
v -1704 -864 0
v -1584 -912 0
v -1608 -912 0
v -1608 -888 0
v -1584 -888 0
v -1608 -912 0
v -1632 -912 0
v -1632 -888 0
v -1608 -888 0
v -1680 -912 0
v -1704 -912 0
v -1704 -888 0
v -1680 -888 0
v -1704 -912 0
v -1728 -912 0
v -1728 -888 0
v -1704 -888 0
v -1584 -936 0
v -1608 -936 0
v -1608 -912 0
v -1584 -912 0
v -1608 -936 0
v -1632 -936 0
v -1632 -912 0
v -1608 -912 0
v -1680 -936 0
v -1704 -936 0
v -1704 -912 0
v -1680 -912 0
v -1704 -936 0
v -1728 -936 0
v -1728 -912 0
v -1704 -912 0
v -1584 -960 0
v -1608 -960 0
v -1608 -936 0
v -1584 -936 0
v -1608 -960 0
v -1632 -960 0
v -1632 -936 0
v -1608 -936 0
v -1680 -960 0
v -1704 -960 0
v -1704 -936 0
v -1680 -936 0
v -1704 -960 0
v -1728 -960 0
v -1728 -936 0
v -1704 -936 0
v -1368 -984 0
v -1392 -984 0
v -1392 -960 0
v -1368 -960 0
v -1392 -984 0
v -1416 -984 0
v -1416 -960 0
v -1392 -960 0
v -1416 -984 0
v -1440 -984 0
v -1440 -960 0
v -1416 -960 0
v -1440 -984 0
v -1464 -984 0
v -1464 -960 0
v -1440 -960 0
v -1464 -984 0
v -1488 -984 0
v -1488 -960 0
v -1464 -960 0
v -1488 -984 0
v -1512 -984 0
v -1512 -960 0
v -1488 -960 0
v -1512 -984 0
v -1536 -984 0
v -1536 -960 0
v -1512 -960 0
v -1536 -984 0
v -1560 -984 0
v -1560 -960 0
v -1536 -960 0
v -1560 -984 0
v -1584 -984 0
v -1584 -960 0
v -1560 -960 0
v -1584 -984 0
v -1608 -984 0
v -1608 -960 0
v -1584 -960 0
v -1608 -984 0
v -1632 -984 0
v -1632 -960 0
v -1608 -960 0
v -1680 -984 0
v -1704 -984 0
v -1704 -960 0
v -1680 -960 0
v -1704 -984 0
v -1728 -984 0
v -1728 -960 0
v -1704 -960 0
v -1728 -984 0
v -1752 -984 0
v -1752 -960 0
v -1728 -960 0
v -1752 -984 0
v -1776 -984 0
v -1776 -960 0
v -1752 -960 0
v -1776 -984 0
v -1800 -984 0
v -1800 -960 0
v -1776 -960 0
v -1800 -984 0
v -1824 -984 0
v -1824 -960 0
v -1800 -960 0
v -1824 -984 0
v -1848 -984 0
v -1848 -960 0
v -1824 -960 0
v -1848 -984 0
v -1872 -984 0
v -1872 -960 0
v -1848 -960 0
v -1872 -984 0
v -1896 -984 0
v -1896 -960 0
v -1872 -960 0
v -1896 -984 0
v -1920 -984 0
v -1920 -960 0
v -1896 -960 0
v -1920 -984 0
v -1944 -984 0
v -1944 -960 0
v -1920 -960 0
v -1368 -1008 0
v -1392 -1008 0
v -1392 -984 0
v -1368 -984 0
v -1392 -1008 0
v -1416 -1008 0
v -1416 -984 0
v -1392 -984 0
v -1416 -1008 0
v -1440 -1008 0
v -1440 -984 0
v -1416 -984 0
v -1440 -1008 0
v -1464 -1008 0
v -1464 -984 0
v -1440 -984 0
v -1464 -1008 0
v -1488 -1008 0
v -1488 -984 0
v -1464 -984 0
v -1488 -1008 0
v -1512 -1008 0
v -1512 -984 0
v -1488 -984 0
v -1512 -1008 0
v -1536 -1008 0
v -1536 -984 0
v -1512 -984 0
v -1536 -1008 0
v -1560 -1008 0
v -1560 -984 0
v -1536 -984 0
v -1560 -1008 0
v -1584 -1008 0
v -1584 -984 0
v -1560 -984 0
v -1584 -1008 0
v -1608 -1008 0
v -1608 -984 0
v -1584 -984 0
v -1608 -1008 0
v -1632 -1008 0
v -1632 -984 0
v -1608 -984 0
v -1680 -1008 0
v -1704 -1008 0
v -1704 -984 0
v -1680 -984 0
v -1704 -1008 0
v -1728 -1008 0
v -1728 -984 0
v -1704 -984 0
v -1728 -1008 0
v -1752 -1008 0
v -1752 -984 0
v -1728 -984 0
v -1752 -1008 0
v -1776 -1008 0
v -1776 -984 0
v -1752 -984 0
v -1776 -1008 0
v -1800 -1008 0
v -1800 -984 0
v -1776 -984 0
v -1800 -1008 0
v -1824 -1008 0
v -1824 -984 0
v -1800 -984 0
v -1824 -1008 0
v -1848 -1008 0
v -1848 -984 0
v -1824 -984 0
v -1848 -1008 0
v -1872 -1008 0
v -1872 -984 0
v -1848 -984 0
v -1872 -1008 0
v -1896 -1008 0
v -1896 -984 0
v -1872 -984 0
v -1896 -1008 0
v -1920 -1008 0
v -1920 -984 0
v -1896 -984 0
v -1920 -1008 0
v -1944 -1008 0
v -1944 -984 0
v -1920 -984 0
v -1368 -1032 0
v -1392 -1032 0
v -1392 -1008 0
v -1368 -1008 0
v -1392 -1032 0
v -1416 -1032 0
v -1416 -1008 0
v -1392 -1008 0
v -1416 -1032 0
v -1440 -1032 0
v -1440 -1008 0
v -1416 -1008 0
v -1440 -1032 0
v -1464 -1032 0
v -1464 -1008 0
v -1440 -1008 0
v -1464 -1032 0
v -1488 -1032 0
v -1488 -1008 0
v -1464 -1008 0
v -1488 -1032 0
v -1512 -1032 0
v -1512 -1008 0
v -1488 -1008 0
v -1512 -1032 0
v -1536 -1032 0
v -1536 -1008 0
v -1512 -1008 0
v -1536 -1032 0
v -1560 -1032 0
v -1560 -1008 0
v -1536 -1008 0
v -1560 -1032 0
v -1584 -1032 0
v -1584 -1008 0
v -1560 -1008 0
v -1584 -1032 0
v -1608 -1032 0
v -1608 -1008 0
v -1584 -1008 0
v -1608 -1032 0
v -1632 -1032 0
v -1632 -1008 0
v -1608 -1008 0
v -1680 -1032 0
v -1704 -1032 0
v -1704 -1008 0
v -1680 -1008 0
v -1704 -1032 0
v -1728 -1032 0
v -1728 -1008 0
v -1704 -1008 0
v -1728 -1032 0
v -1752 -1032 0
v -1752 -1008 0
v -1728 -1008 0
v -1752 -1032 0
v -1776 -1032 0
v -1776 -1008 0
v -1752 -1008 0
v -1776 -1032 0
v -1800 -1032 0
v -1800 -1008 0
v -1776 -1008 0
v -1800 -1032 0
v -1824 -1032 0
v -1824 -1008 0
v -1800 -1008 0
v -1824 -1032 0
v -1848 -1032 0
v -1848 -1008 0
v -1824 -1008 0
v -1848 -1032 0
v -1872 -1032 0
v -1872 -1008 0
v -1848 -1008 0
v -1872 -1032 0
v -1896 -1032 0
v -1896 -1008 0
v -1872 -1008 0
v -1896 -1032 0
v -1920 -1032 0
v -1920 -1008 0
v -1896 -1008 0
v -1920 -1032 0
v -1944 -1032 0
v -1944 -1008 0
v -1920 -1008 0
v -1368 -1056 0
v -1392 -1056 0
v -1392 -1032 0
v -1368 -1032 0
v -1392 -1056 0
v -1416 -1056 0
v -1416 -1032 0
v -1392 -1032 0
v -1896 -1056 0
v -1920 -1056 0
v -1920 -1032 0
v -1896 -1032 0
v -1920 -1056 0
v -1944 -1056 0
v -1944 -1032 0
v -1920 -1032 0
v -1368 -1080 0
v -1392 -1080 0
v -1392 -1056 0
v -1368 -1056 0
v -1392 -1080 0
v -1416 -1080 0
v -1416 -1056 0
v -1392 -1056 0
v -1896 -1080 0
v -1920 -1080 0
v -1920 -1056 0
v -1896 -1056 0
v -1920 -1080 0
v -1944 -1080 0
v -1944 -1056 0
v -1920 -1056 0
v -1272 -1104 0
v -1296 -1104 0
v -1296 -1080 0
v -1272 -1080 0
v -1296 -1104 0
v -1320 -1104 0
v -1320 -1080 0
v -1296 -1080 0
v -1320 -1104 0
v -1344 -1104 0
v -1344 -1080 0
v -1320 -1080 0
v -1344 -1104 0
v -1368 -1104 0
v -1368 -1080 0
v -1344 -1080 0
v -1368 -1104 0
v -1392 -1104 0
v -1392 -1080 0
v -1368 -1080 0
v -1392 -1104 0
v -1416 -1104 0
v -1416 -1080 0
v -1392 -1080 0
v -1896 -1104 0
v -1920 -1104 0
v -1920 -1080 0
v -1896 -1080 0
v -1920 -1104 0
v -1944 -1104 0
v -1944 -1080 0
v -1920 -1080 0
v -1944 -1104 0
v -1968 -1104 0
v -1968 -1080 0
v -1944 -1080 0
v -1968 -1104 0
v -1992 -1104 0
v -1992 -1080 0
v -1968 -1080 0
v -1992 -1104 0
v -2016 -1104 0
v -2016 -1080 0
v -1992 -1080 0
v -2016 -1104 0
v -2040 -1104 0
v -2040 -1080 0
v -2016 -1080 0
v -1272 -1128 0
v -1296 -1128 0
v -1296 -1104 0
v -1272 -1104 0
v -1296 -1128 0
v -1320 -1128 0
v -1320 -1104 0
v -1296 -1104 0
v -1320 -1128 0
v -1344 -1128 0
v -1344 -1104 0
v -1320 -1104 0
v -1344 -1128 0
v -1368 -1128 0
v -1368 -1104 0
v -1344 -1104 0
v -1368 -1128 0
v -1392 -1128 0
v -1392 -1104 0
v -1368 -1104 0
v -1392 -1128 0
v -1416 -1128 0
v -1416 -1104 0
v -1392 -1104 0
v -1896 -1128 0
v -1920 -1128 0
v -1920 -1104 0
v -1896 -1104 0
v -1920 -1128 0
v -1944 -1128 0
v -1944 -1104 0
v -1920 -1104 0
v -1944 -1128 0
v -1968 -1128 0
v -1968 -1104 0
v -1944 -1104 0
v -1968 -1128 0
v -1992 -1128 0
v -1992 -1104 0
v -1968 -1104 0
v -1992 -1128 0
v -2016 -1128 0
v -2016 -1104 0
v -1992 -1104 0
v -2016 -1128 0
v -2040 -1128 0
v -2040 -1104 0
v -2016 -1104 0
v -1272 -1152 0
v -1296 -1152 0
v -1296 -1128 0
v -1272 -1128 0
v -1296 -1152 0
v -1320 -1152 0
v -1320 -1128 0
v -1296 -1128 0
v -1320 -1152 0
v -1344 -1152 0
v -1344 -1128 0
v -1320 -1128 0
v -1344 -1152 0
v -1368 -1152 0
v -1368 -1128 0
v -1344 -1128 0
v -1368 -1152 0
v -1392 -1152 0
v -1392 -1128 0
v -1368 -1128 0
v -1392 -1152 0
v -1416 -1152 0
v -1416 -1128 0
v -1392 -1128 0
v -1896 -1152 0
v -1920 -1152 0
v -1920 -1128 0
v -1896 -1128 0
v -1920 -1152 0
v -1944 -1152 0
v -1944 -1128 0
v -1920 -1128 0
v -1944 -1152 0
v -1968 -1152 0
v -1968 -1128 0
v -1944 -1128 0
v -1968 -1152 0
v -1992 -1152 0
v -1992 -1128 0
v -1968 -1128 0
v -1992 -1152 0
v -2016 -1152 0
v -2016 -1128 0
v -1992 -1128 0
v -2016 -1152 0
v -2040 -1152 0
v -2040 -1128 0
v -2016 -1128 0
v -1272 -1248 0
v -1296 -1248 0
v -1296 -1224 0
v -1272 -1224 0
v -1296 -1248 0
v -1320 -1248 0
v -1320 -1224 0
v -1296 -1224 0
v -1320 -1248 0
v -1344 -1248 0
v -1344 -1224 0
v -1320 -1224 0
v -1344 -1248 0
v -1368 -1248 0
v -1368 -1224 0
v -1344 -1224 0
v -1368 -1248 0
v -1392 -1248 0
v -1392 -1224 0
v -1368 -1224 0
v -1392 -1248 0
v -1416 -1248 0
v -1416 -1224 0
v -1392 -1224 0
v -1896 -1248 0
v -1920 -1248 0
v -1920 -1224 0
v -1896 -1224 0
v -1920 -1248 0
v -1944 -1248 0
v -1944 -1224 0
v -1920 -1224 0
v -1944 -1248 0
v -1968 -1248 0
v -1968 -1224 0
v -1944 -1224 0
v -1968 -1248 0
v -1992 -1248 0
v -1992 -1224 0
v -1968 -1224 0
v -1992 -1248 0
v -2016 -1248 0
v -2016 -1224 0
v -1992 -1224 0
v -2016 -1248 0
v -2040 -1248 0
v -2040 -1224 0
v -2016 -1224 0
v -1272 -1272 0
v -1296 -1272 0
v -1296 -1248 0
v -1272 -1248 0
v -1296 -1272 0
v -1320 -1272 0
v -1320 -1248 0
v -1296 -1248 0
v -1320 -1272 0
v -1344 -1272 0
v -1344 -1248 0
v -1320 -1248 0
v -1344 -1272 0
v -1368 -1272 0
v -1368 -1248 0
v -1344 -1248 0
v -1368 -1272 0
v -1392 -1272 0
v -1392 -1248 0
v -1368 -1248 0
v -1392 -1272 0
v -1416 -1272 0
v -1416 -1248 0
v -1392 -1248 0
v -1896 -1272 0
v -1920 -1272 0
v -1920 -1248 0
v -1896 -1248 0
v -1920 -1272 0
v -1944 -1272 0
v -1944 -1248 0
v -1920 -1248 0
v -1944 -1272 0
v -1968 -1272 0
v -1968 -1248 0
v -1944 -1248 0
v -1968 -1272 0
v -1992 -1272 0
v -1992 -1248 0
v -1968 -1248 0
v -1992 -1272 0
v -2016 -1272 0
v -2016 -1248 0
v -1992 -1248 0
v -2016 -1272 0
v -2040 -1272 0
v -2040 -1248 0
v -2016 -1248 0
v -1272 -1296 0
v -1296 -1296 0
v -1296 -1272 0
v -1272 -1272 0
v -1296 -1296 0
v -1320 -1296 0
v -1320 -1272 0
v -1296 -1272 0
v -1320 -1296 0
v -1344 -1296 0
v -1344 -1272 0
v -1320 -1272 0
v -1344 -1296 0
v -1368 -1296 0
v -1368 -1272 0
v -1344 -1272 0
v -1368 -1296 0
v -1392 -1296 0
v -1392 -1272 0
v -1368 -1272 0
v -1392 -1296 0
v -1416 -1296 0
v -1416 -1272 0
v -1392 -1272 0
v -1896 -1296 0
v -1920 -1296 0
v -1920 -1272 0
v -1896 -1272 0
v -1920 -1296 0
v -1944 -1296 0
v -1944 -1272 0
v -1920 -1272 0
v -1944 -1296 0
v -1968 -1296 0
v -1968 -1272 0
v -1944 -1272 0
v -1968 -1296 0
v -1992 -1296 0
v -1992 -1272 0
v -1968 -1272 0
v -1992 -1296 0
v -2016 -1296 0
v -2016 -1272 0
v -1992 -1272 0
v -2016 -1296 0
v -2040 -1296 0
v -2040 -1272 0
v -2016 -1272 0
v -1368 -1320 0
v -1392 -1320 0
v -1392 -1296 0
v -1368 -1296 0
v -1392 -1320 0
v -1416 -1320 0
v -1416 -1296 0
v -1392 -1296 0
v -1896 -1320 0
v -1920 -1320 0
v -1920 -1296 0
v -1896 -1296 0
v -1920 -1320 0
v -1944 -1320 0
v -1944 -1296 0
v -1920 -1296 0
v -1368 -1344 0
v -1392 -1344 0
v -1392 -1320 0
v -1368 -1320 0
v -1392 -1344 0
v -1416 -1344 0
v -1416 -1320 0
v -1392 -1320 0
v -1896 -1344 0
v -1920 -1344 0
v -1920 -1320 0
v -1896 -1320 0
v -1920 -1344 0
v -1944 -1344 0
v -1944 -1320 0
v -1920 -1320 0
v -1368 -1368 0
v -1392 -1368 0
v -1392 -1344 0
v -1368 -1344 0
v -1392 -1368 0
v -1416 -1368 0
v -1416 -1344 0
v -1392 -1344 0
v -1416 -1368 0
v -1440 -1368 0
v -1440 -1344 0
v -1416 -1344 0
v -1440 -1368 0
v -1464 -1368 0
v -1464 -1344 0
v -1440 -1344 0
v -1464 -1368 0
v -1488 -1368 0
v -1488 -1344 0
v -1464 -1344 0
v -1488 -1368 0
v -1512 -1368 0
v -1512 -1344 0
v -1488 -1344 0
v -1512 -1368 0
v -1536 -1368 0
v -1536 -1344 0
v -1512 -1344 0
v -1536 -1368 0
v -1560 -1368 0
v -1560 -1344 0
v -1536 -1344 0
v -1560 -1368 0
v -1584 -1368 0
v -1584 -1344 0
v -1560 -1344 0
v -1584 -1368 0
v -1608 -1368 0
v -1608 -1344 0
v -1584 -1344 0
v -1608 -1368 0
v -1632 -1368 0
v -1632 -1344 0
v -1608 -1344 0
v -1680 -1368 0
v -1704 -1368 0
v -1704 -1344 0
v -1680 -1344 0
v -1704 -1368 0
v -1728 -1368 0
v -1728 -1344 0
v -1704 -1344 0
v -1728 -1368 0
v -1752 -1368 0
v -1752 -1344 0
v -1728 -1344 0
v -1752 -1368 0
v -1776 -1368 0
v -1776 -1344 0
v -1752 -1344 0
v -1776 -1368 0
v -1800 -1368 0
v -1800 -1344 0
v -1776 -1344 0
v -1800 -1368 0
v -1824 -1368 0
v -1824 -1344 0
v -1800 -1344 0
v -1824 -1368 0
v -1848 -1368 0
v -1848 -1344 0
v -1824 -1344 0
v -1848 -1368 0
v -1872 -1368 0
v -1872 -1344 0
v -1848 -1344 0
v -1872 -1368 0
v -1896 -1368 0
v -1896 -1344 0
v -1872 -1344 0
v -1896 -1368 0
v -1920 -1368 0
v -1920 -1344 0
v -1896 -1344 0
v -1920 -1368 0
v -1944 -1368 0
v -1944 -1344 0
v -1920 -1344 0
v -1368 -1392 0
v -1392 -1392 0
v -1392 -1368 0
v -1368 -1368 0
v -1392 -1392 0
v -1416 -1392 0
v -1416 -1368 0
v -1392 -1368 0
v -1416 -1392 0
v -1440 -1392 0
v -1440 -1368 0
v -1416 -1368 0
v -1440 -1392 0
v -1464 -1392 0
v -1464 -1368 0
v -1440 -1368 0
v -1464 -1392 0
v -1488 -1392 0
v -1488 -1368 0
v -1464 -1368 0
v -1488 -1392 0
v -1512 -1392 0
v -1512 -1368 0
v -1488 -1368 0
v -1512 -1392 0
v -1536 -1392 0
v -1536 -1368 0
v -1512 -1368 0
v -1536 -1392 0
v -1560 -1392 0
v -1560 -1368 0
v -1536 -1368 0
v -1560 -1392 0
v -1584 -1392 0
v -1584 -1368 0
v -1560 -1368 0
v -1584 -1392 0
v -1608 -1392 0
v -1608 -1368 0
v -1584 -1368 0
v -1608 -1392 0
v -1632 -1392 0
v -1632 -1368 0
v -1608 -1368 0
v -1680 -1392 0
v -1704 -1392 0
v -1704 -1368 0
v -1680 -1368 0
v -1704 -1392 0
v -1728 -1392 0
v -1728 -1368 0
v -1704 -1368 0
v -1728 -1392 0
v -1752 -1392 0
v -1752 -1368 0
v -1728 -1368 0
v -1752 -1392 0
v -1776 -1392 0
v -1776 -1368 0
v -1752 -1368 0
v -1776 -1392 0
v -1800 -1392 0
v -1800 -1368 0
v -1776 -1368 0
v -1800 -1392 0
v -1824 -1392 0
v -1824 -1368 0
v -1800 -1368 0
v -1824 -1392 0
v -1848 -1392 0
v -1848 -1368 0
v -1824 -1368 0
v -1848 -1392 0
v -1872 -1392 0
v -1872 -1368 0
v -1848 -1368 0
v -1872 -1392 0
v -1896 -1392 0
v -1896 -1368 0
v -1872 -1368 0
v -1896 -1392 0
v -1920 -1392 0
v -1920 -1368 0
v -1896 -1368 0
v -1920 -1392 0
v -1944 -1392 0
v -1944 -1368 0
v -1920 -1368 0
v -1368 -1416 0
v -1392 -1416 0
v -1392 -1392 0
v -1368 -1392 0
v -1392 -1416 0
v -1416 -1416 0
v -1416 -1392 0
v -1392 -1392 0
v -1416 -1416 0
v -1440 -1416 0
v -1440 -1392 0
v -1416 -1392 0
v -1440 -1416 0
v -1464 -1416 0
v -1464 -1392 0
v -1440 -1392 0
v -1464 -1416 0
v -1488 -1416 0
v -1488 -1392 0
v -1464 -1392 0
v -1488 -1416 0
v -1512 -1416 0
v -1512 -1392 0
v -1488 -1392 0
v -1512 -1416 0
v -1536 -1416 0
v -1536 -1392 0
v -1512 -1392 0
v -1536 -1416 0
v -1560 -1416 0
v -1560 -1392 0
v -1536 -1392 0
v -1560 -1416 0
v -1584 -1416 0
v -1584 -1392 0
v -1560 -1392 0
v -1584 -1416 0
v -1608 -1416 0
v -1608 -1392 0
v -1584 -1392 0
v -1608 -1416 0
v -1632 -1416 0
v -1632 -1392 0
v -1608 -1392 0
v -1680 -1416 0
v -1704 -1416 0
v -1704 -1392 0
v -1680 -1392 0
v -1704 -1416 0
v -1728 -1416 0
v -1728 -1392 0
v -1704 -1392 0
v -1728 -1416 0
v -1752 -1416 0
v -1752 -1392 0
v -1728 -1392 0
v -1752 -1416 0
v -1776 -1416 0
v -1776 -1392 0
v -1752 -1392 0
v -1776 -1416 0
v -1800 -1416 0
v -1800 -1392 0
v -1776 -1392 0
v -1800 -1416 0
v -1824 -1416 0
v -1824 -1392 0
v -1800 -1392 0
v -1824 -1416 0
v -1848 -1416 0
v -1848 -1392 0
v -1824 -1392 0
v -1848 -1416 0
v -1872 -1416 0
v -1872 -1392 0
v -1848 -1392 0
v -1872 -1416 0
v -1896 -1416 0
v -1896 -1392 0
v -1872 -1392 0
v -1896 -1416 0
v -1920 -1416 0
v -1920 -1392 0
v -1896 -1392 0
v -1920 -1416 0
v -1944 -1416 0
v -1944 -1392 0
v -1920 -1392 0
v -1584 -1440 0
v -1608 -1440 0
v -1608 -1416 0
v -1584 -1416 0
v -1608 -1440 0
v -1632 -1440 0
v -1632 -1416 0
v -1608 -1416 0
v -1680 -1440 0
v -1704 -1440 0
v -1704 -1416 0
v -1680 -1416 0
v -1704 -1440 0
v -1728 -1440 0
v -1728 -1416 0
v -1704 -1416 0

# Texture cooridinates (Count = 44)
vt 0.125 0.8666667
vt 0.15625 0.8666667
vt 0.15625 0.9
vt 0.125 0.9
vt 0.21875 0.8666667
vt 0.25 0.8666667
vt 0.25 0.9
vt 0.21875 0.9
vt 0.125 0.8333333
vt 0.15625 0.8333333
vt 0.21875 0.8333333
vt 0.25 0.8333333
vt 0.1875 0.8666667
vt 0.1875 0.9
vt 0.1875 0.8
vt 0.21875 0.8
vt 0.1875 0.8333333
vt 0.15625 0.8
vt 0.25 0.8
vt 0.125 0.9333333
vt 0.15625 0.9333333
vt 0.15625 0.9666666
vt 0.125 0.9666666
vt 0.125 0.7
vt 0.15625 0.7
vt 0.15625 0.7333333
vt 0.125 0.7333333
vt 0.1875 0.7
vt 0.1875 0.7333333
vt 0.21875 0.7
vt 0.21875 0.7333333
vt 0.1875 0.7666667
vt 0.15625 0.7666667
vt 0.21875 0.7666667
vt 0.25 0.7333333
vt 0.25 0.7666667
vt 0.125 0.7666667
vt 0.25 0.7
vt 0.125 0.6666666
vt 0.15625 0.6666666
vt 0.1875 0.6666666
vt 0.21875 0.6666666
vt 0.25 0.6666666
vt 0.125 0.8

# Normal
vn 0 0 -1

# Mesh description
g SalleNSEW_mesh_0001

# Faces
f 1/1/1 2/2/1 3/3/1 4/4/1
f 5/5/1 6/6/1 7/7/1 8/8/1
f 9/1/1 10/2/1 11/3/1 12/4/1
f 13/5/1 14/6/1 15/7/1 16/8/1
f 17/9/1 18/10/1 19/2/1 20/1/1
f 21/11/1 22/12/1 23/6/1 24/5/1
f 25/9/1 26/10/1 27/2/1 28/1/1
f 29/11/1 30/12/1 31/6/1 32/5/1
f 33/9/1 34/10/1 35/2/1 36/1/1
f 37/5/1 38/6/1 39/7/1 40/8/1
f 41/9/1 42/10/1 43/2/1 44/1/1
f 45/5/1 46/6/1 47/7/1 48/8/1
f 49/2/1 50/13/1 51/14/1 52/3/1
f 53/11/1 54/12/1 55/6/1 56/5/1
f 57/1/1 58/2/1 59/3/1 60/4/1
f 61/2/1 62/13/1 63/14/1 64/3/1
f 65/1/1 66/2/1 67/3/1 68/4/1
f 69/13/1 70/5/1 71/8/1 72/14/1
f 73/15/1 74/16/1 75/11/1 76/17/1
f 77/2/1 78/13/1 79/14/1 80/3/1
f 81/13/1 82/5/1 83/8/1 84/14/1
f 85/2/1 86/13/1 87/14/1 88/3/1
f 89/18/1 90/15/1 91/17/1 92/10/1
f 93/15/1 94/16/1 95/11/1 96/17/1
f 97/18/1 98/15/1 99/17/1 100/10/1
f 101/15/1 102/16/1 103/11/1 104/17/1
f 105/16/1 106/19/1 107/12/1 108/11/1
f 109/20/1 110/21/1 111/22/1 112/23/1
f 113/18/1 114/15/1 115/17/1 116/10/1
f 117/15/1 118/16/1 119/11/1 120/17/1
f 121/18/1 122/15/1 123/17/1 124/10/1
f 125/2/1 126/13/1 127/14/1 128/3/1
f 129/13/1 130/5/1 131/8/1 132/14/1
f 133/2/1 134/13/1 135/14/1 136/3/1
f 137/13/1 138/5/1 139/8/1 140/14/1
f 141/13/1 142/5/1 143/8/1 144/14/1
f 145/13/1 146/5/1 147/8/1 148/14/1
f 149/5/1 150/6/1 151/7/1 152/8/1
f 153/1/1 154/2/1 155/3/1 156/4/1
f 157/11/1 158/12/1 159/6/1 160/5/1
f 161/24/1 162/25/1 163/26/1 164/27/1
f 165/25/1 166/28/1 167/29/1 168/26/1
f 169/25/1 170/28/1 171/29/1 172/26/1
f 173/28/1 174/30/1 175/31/1 176/29/1
f 177/26/1 178/29/1 179/32/1 180/33/1
f 181/29/1 182/31/1 183/34/1 184/32/1
f 185/26/1 186/29/1 187/32/1 188/33/1
f 189/29/1 190/31/1 191/34/1 192/32/1
f 193/31/1 194/35/1 195/36/1 196/34/1
f 197/27/1 198/26/1 199/33/1 200/37/1
f 201/26/1 202/29/1 203/32/1 204/33/1
f 205/29/1 206/31/1 207/34/1 208/32/1
f 209/26/1 210/29/1 211/32/1 212/33/1
f 213/28/1 214/30/1 215/31/1 216/29/1
f 217/25/1 218/28/1 219/29/1 220/26/1
f 221/25/1 222/28/1 223/29/1 224/26/1
f 225/28/1 226/30/1 227/31/1 228/29/1
f 229/30/1 230/38/1 231/35/1 232/31/1
f 233/9/1 234/10/1 235/2/1 236/1/1
f 237/11/1 238/12/1 239/6/1 240/5/1
f 241/9/1 242/10/1 243/2/1 244/1/1
f 245/5/1 246/6/1 247/7/1 248/8/1
f 249/39/1 250/40/1 251/25/1 252/24/1
f 253/40/1 254/41/1 255/28/1 256/25/1
f 257/40/1 258/41/1 259/28/1 260/25/1
f 261/41/1 262/42/1 263/30/1 264/28/1
f 265/40/1 266/41/1 267/28/1 268/25/1
f 269/41/1 270/42/1 271/30/1 272/28/1
f 273/40/1 274/41/1 275/28/1 276/25/1
f 277/41/1 278/42/1 279/30/1 280/28/1
f 281/42/1 282/43/1 283/38/1 284/30/1
f 285/39/1 286/40/1 287/25/1 288/24/1
f 289/40/1 290/41/1 291/28/1 292/25/1
f 293/41/1 294/42/1 295/30/1 296/28/1
f 297/40/1 298/41/1 299/28/1 300/25/1
f 301/41/1 302/42/1 303/30/1 304/28/1
f 305/40/1 306/41/1 307/28/1 308/25/1
f 309/40/1 310/41/1 311/28/1 312/25/1
f 313/41/1 314/42/1 315/30/1 316/28/1
f 317/42/1 318/43/1 319/38/1 320/30/1
f 321/1/1 322/2/1 323/3/1 324/4/1
f 325/5/1 326/6/1 327/7/1 328/8/1
f 329/9/1 330/10/1 331/2/1 332/1/1
f 333/11/1 334/12/1 335/6/1 336/5/1
f 337/9/1 338/10/1 339/2/1 340/1/1
f 341/11/1 342/12/1 343/6/1 344/5/1
f 345/10/1 346/17/1 347/13/1 348/2/1
f 349/5/1 350/6/1 351/7/1 352/8/1
f 353/1/1 354/2/1 355/3/1 356/4/1
f 357/2/1 358/13/1 359/14/1 360/3/1
f 361/18/1 362/15/1 363/17/1 364/10/1
f 365/18/1 366/15/1 367/17/1 368/10/1
f 369/15/1 370/16/1 371/11/1 372/17/1
f 373/18/1 374/15/1 375/17/1 376/10/1
f 377/15/1 378/16/1 379/11/1 380/17/1
f 381/16/1 382/19/1 383/12/1 384/11/1
f 385/44/1 386/18/1 387/10/1 388/9/1
f 389/18/1 390/15/1 391/17/1 392/10/1
f 393/18/1 394/15/1 395/17/1 396/10/1
f 397/15/1 398/16/1 399/11/1 400/17/1
f 401/18/1 402/15/1 403/17/1 404/10/1
f 405/15/1 406/16/1 407/11/1 408/17/1
f 409/32/1 410/34/1 411/16/1 412/15/1
f 413/33/1 414/32/1 415/15/1 416/18/1
f 417/32/1 418/34/1 419/16/1 420/15/1
f 421/25/1 422/28/1 423/29/1 424/26/1
f 425/28/1 426/30/1 427/31/1 428/29/1
f 429/33/1 430/32/1 431/15/1 432/18/1
f 433/37/1 434/33/1 435/18/1 436/44/1
f 437/33/1 438/32/1 439/15/1 440/18/1
f 441/32/1 442/34/1 443/16/1 444/15/1
f 445/33/1 446/32/1 447/15/1 448/18/1
f 449/32/1 450/34/1 451/16/1 452/15/1
f 453/33/1 454/32/1 455/15/1 456/18/1
f 457/41/1 458/42/1 459/30/1 460/28/1
f 461/40/1 462/41/1 463/28/1 464/25/1
f 465/41/1 466/42/1 467/30/1 468/28/1
f 469/40/1 470/41/1 471/28/1 472/25/1
f 473/41/1 474/42/1 475/30/1 476/28/1
f 477/40/1 478/41/1 479/28/1 480/25/1
f 481/39/1 482/40/1 483/25/1 484/24/1
f 485/40/1 486/41/1 487/28/1 488/25/1
f 489/41/1 490/42/1 491/30/1 492/28/1
f 493/40/1 494/41/1 495/28/1 496/25/1
f 497/41/1 498/42/1 499/30/1 500/28/1
f 501/40/1 502/41/1 503/28/1 504/25/1
f 505/15/1 506/16/1 507/11/1 508/17/1
f 509/18/1 510/15/1 511/17/1 512/10/1
f 513/15/1 514/16/1 515/11/1 516/17/1
f 517/18/1 518/15/1 519/17/1 520/10/1
f 521/2/1 522/13/1 523/14/1 524/3/1
f 525/5/1 526/6/1 527/7/1 528/8/1
f 529/1/1 530/2/1 531/3/1 532/4/1
f 533/10/1 534/17/1 535/13/1 536/2/1
f 537/15/1 538/16/1 539/11/1 540/17/1
f 541/18/1 542/15/1 543/17/1 544/10/1
f 545/15/1 546/16/1 547/11/1 548/17/1
f 549/18/1 550/15/1 551/17/1 552/10/1
f 553/33/1 554/32/1 555/15/1 556/18/1
f 557/33/1 558/32/1 559/15/1 560/18/1
f 561/32/1 562/34/1 563/16/1 564/15/1
f 565/33/1 566/32/1 567/15/1 568/18/1
f 569/1/1 570/2/1 571/3/1 572/4/1
f 573/11/1 574/12/1 575/6/1 576/5/1
f 577/1/1 578/2/1 579/3/1 580/4/1
f 581/5/1 582/6/1 583/7/1 584/8/1
f 585/33/1 586/32/1 587/15/1 588/18/1
f 589/33/1 590/32/1 591/15/1 592/18/1
f 593/32/1 594/34/1 595/16/1 596/15/1
f 597/33/1 598/32/1 599/15/1 600/18/1
f 601/39/1 602/40/1 603/25/1 604/24/1
f 605/40/1 606/41/1 607/28/1 608/25/1
f 609/41/1 610/42/1 611/30/1 612/28/1
f 613/40/1 614/41/1 615/28/1 616/25/1
f 617/1/1 618/2/1 619/3/1 620/4/1
f 621/11/1 622/12/1 623/6/1 624/5/1
f 625/9/1 626/10/1 627/2/1 628/1/1
f 629/11/1 630/12/1 631/6/1 632/5/1
f 633/39/1 634/40/1 635/25/1 636/24/1
f 637/40/1 638/41/1 639/28/1 640/25/1
f 641/41/1 642/42/1 643/30/1 644/28/1
f 645/40/1 646/41/1 647/28/1 648/25/1
f 649/9/1 650/10/1 651/2/1 652/1/1
f 653/11/1 654/12/1 655/6/1 656/5/1
f 657/9/1 658/10/1 659/2/1 660/1/1
f 661/11/1 662/12/1 663/6/1 664/5/1
f 665/1/1 666/2/1 667/3/1 668/4/1
f 669/2/1 670/13/1 671/14/1 672/3/1
f 673/2/1 674/13/1 675/14/1 676/3/1
f 677/11/1 678/12/1 679/6/1 680/5/1
f 681/20/1 682/21/1 683/22/1 684/23/1
f 685/18/1 686/15/1 687/17/1 688/10/1
f 689/15/1 690/16/1 691/11/1 692/17/1
f 693/18/1 694/15/1 695/17/1 696/10/1
f 697/15/1 698/16/1 699/11/1 700/17/1
f 701/18/1 702/15/1 703/17/1 704/10/1
f 705/15/1 706/16/1 707/11/1 708/17/1
f 709/18/1 710/15/1 711/17/1 712/10/1
f 713/15/1 714/16/1 715/11/1 716/17/1
f 717/2/1 718/13/1 719/14/1 720/3/1
f 721/11/1 722/12/1 723/6/1 724/5/1
f 725/9/1 726/10/1 727/2/1 728/1/1
f 729/2/1 730/13/1 731/14/1 732/3/1
f 733/18/1 734/15/1 735/17/1 736/10/1
f 737/15/1 738/16/1 739/11/1 740/17/1
f 741/18/1 742/15/1 743/17/1 744/10/1
f 745/15/1 746/16/1 747/11/1 748/17/1
f 749/18/1 750/15/1 751/17/1 752/10/1
f 753/15/1 754/16/1 755/11/1 756/17/1
f 757/18/1 758/15/1 759/17/1 760/10/1
f 761/15/1 762/16/1 763/11/1 764/17/1
f 765/16/1 766/19/1 767/12/1 768/11/1
f 769/27/1 770/26/1 771/33/1 772/37/1
f 773/26/1 774/29/1 775/32/1 776/33/1
f 777/29/1 778/31/1 779/34/1 780/32/1
f 781/26/1 782/29/1 783/32/1 784/33/1
f 785/29/1 786/31/1 787/34/1 788/32/1
f 789/26/1 790/29/1 791/32/1 792/33/1
f 793/29/1 794/31/1 795/34/1 796/32/1
f 797/26/1 798/29/1 799/32/1 800/33/1
f 801/29/1 802/31/1 803/34/1 804/32/1
f 805/9/1 806/10/1 807/2/1 808/1/1
f 809/5/1 810/6/1 811/7/1 812/8/1
f 813/9/1 814/10/1 815/2/1 816/1/1
f 817/5/1 818/6/1 819/7/1 820/8/1
f 821/26/1 822/29/1 823/32/1 824/33/1
f 825/29/1 826/31/1 827/34/1 828/32/1
f 829/26/1 830/29/1 831/32/1 832/33/1
f 833/29/1 834/31/1 835/34/1 836/32/1
f 837/26/1 838/29/1 839/32/1 840/33/1
f 841/29/1 842/31/1 843/34/1 844/32/1
f 845/26/1 846/29/1 847/32/1 848/33/1
f 849/29/1 850/31/1 851/34/1 852/32/1
f 853/31/1 854/35/1 855/36/1 856/34/1
f 857/39/1 858/40/1 859/25/1 860/24/1
f 861/40/1 862/41/1 863/28/1 864/25/1
f 865/41/1 866/42/1 867/30/1 868/28/1
f 869/40/1 870/41/1 871/28/1 872/25/1
f 873/41/1 874/42/1 875/30/1 876/28/1
f 877/40/1 878/41/1 879/28/1 880/25/1
f 881/41/1 882/42/1 883/30/1 884/28/1
f 885/40/1 886/41/1 887/28/1 888/25/1
f 889/41/1 890/42/1 891/30/1 892/28/1
f 893/1/1 894/2/1 895/3/1 896/4/1
f 897/11/1 898/12/1 899/6/1 900/5/1
f 901/1/1 902/2/1 903/3/1 904/4/1
f 905/5/1 906/6/1 907/7/1 908/8/1
f 909/40/1 910/41/1 911/28/1 912/25/1
f 913/41/1 914/42/1 915/30/1 916/28/1
f 917/40/1 918/41/1 919/28/1 920/25/1
f 921/41/1 922/42/1 923/30/1 924/28/1
f 925/40/1 926/41/1 927/28/1 928/25/1
f 929/41/1 930/42/1 931/30/1 932/28/1
f 933/40/1 934/41/1 935/28/1 936/25/1
f 937/41/1 938/42/1 939/30/1 940/28/1
f 941/42/1 942/43/1 943/38/1 944/30/1
f 945/9/1 946/10/1 947/2/1 948/1/1
f 949/16/1 950/19/1 951/12/1 952/11/1
f 953/20/1 954/21/1 955/22/1 956/23/1
f 957/11/1 958/12/1 959/6/1 960/5/1

