# Tiled2Unity generated file. Do not modify by hand.
# Wavefront file for 'SalleNSEW_mesh_0003.obj'

# Vertices (Count = 112)
v -1632 -1056 0
v -1656 -1056 0
v -1656 -1032 0
v -1632 -1032 0
v -1656 -1056 0
v -1680 -1056 0
v -1680 -1032 0
v -1656 -1032 0
v -1512 -1080 0
v -1536 -1080 0
v -1536 -1056 0
v -1512 -1056 0
v -1536 -1080 0
v -1560 -1080 0
v -1560 -1056 0
v -1536 -1056 0
v -1632 -1080 0
v -1656 -1080 0
v -1656 -1056 0
v -1632 -1056 0
v -1656 -1080 0
v -1680 -1080 0
v -1680 -1056 0
v -1656 -1056 0
v -1728 -1080 0
v -1752 -1080 0
v -1752 -1056 0
v -1728 -1056 0
v -1752 -1080 0
v -1776 -1080 0
v -1776 -1056 0
v -1752 -1056 0
v -1512 -1104 0
v -1536 -1104 0
v -1536 -1080 0
v -1512 -1080 0
v -1536 -1104 0
v -1560 -1104 0
v -1560 -1080 0
v -1536 -1080 0
v -1728 -1104 0
v -1752 -1104 0
v -1752 -1080 0
v -1728 -1080 0
v -1752 -1104 0
v -1776 -1104 0
v -1776 -1080 0
v -1752 -1080 0
v -1608 -1152 0
v -1632 -1152 0
v -1632 -1128 0
v -1608 -1128 0
v -1632 -1152 0
v -1656 -1152 0
v -1656 -1128 0
v -1632 -1128 0
v -1800 -1152 0
v -1824 -1152 0
v -1824 -1128 0
v -1800 -1128 0
v -1824 -1152 0
v -1848 -1152 0
v -1848 -1128 0
v -1824 -1128 0
v -1608 -1176 0
v -1632 -1176 0
v -1632 -1152 0
v -1608 -1152 0
v -1632 -1176 0
v -1656 -1176 0
v -1656 -1152 0
v -1632 -1152 0
v -1800 -1176 0
v -1824 -1176 0
v -1824 -1152 0
v -1800 -1152 0
v -1824 -1176 0
v -1848 -1176 0
v -1848 -1152 0
v -1824 -1152 0
v -1464 -1200 0
v -1488 -1200 0
v -1488 -1176 0
v -1464 -1176 0
v -1488 -1200 0
v -1512 -1200 0
v -1512 -1176 0
v -1488 -1176 0
v -1464 -1224 0
v -1488 -1224 0
v -1488 -1200 0
v -1464 -1200 0
v -1488 -1224 0
v -1512 -1224 0
v -1512 -1200 0
v -1488 -1200 0
v -1560 -1296 0
v -1584 -1296 0
v -1584 -1272 0
v -1560 -1272 0
v -1584 -1296 0
v -1608 -1296 0
v -1608 -1272 0
v -1584 -1272 0
v -1560 -1320 0
v -1584 -1320 0
v -1584 -1296 0
v -1560 -1296 0
v -1584 -1320 0
v -1608 -1320 0
v -1608 -1296 0
v -1584 -1296 0

# Texture cooridinates (Count = 18)
vt 0.0625 0.59375
vt 0.09375 0.59375
vt 0.09375 0.625
vt 0.0625 0.625
vt 0.125 0.59375
vt 0.125 0.625
vt 0.0625 0.5625
vt 0.09375 0.5625
vt 0.125 0.5625
vt 0.625 0.03125
vt 0.65625 0.03125
vt 0.65625 0.0625
vt 0.625 0.0625
vt 0.6875 0.03125
vt 0.6875 0.0625
vt 0.625 0
vt 0.65625 0
vt 0.6875 0

# Normal
vn 0 0 -1

# Mesh description
g SalleNSEW_mesh_0003

# Faces
f 1/1/1 2/2/1 3/3/1 4/4/1
f 5/2/1 6/5/1 7/6/1 8/3/1
f 9/1/1 10/2/1 11/3/1 12/4/1
f 13/2/1 14/5/1 15/6/1 16/3/1
f 17/7/1 18/8/1 19/2/1 20/1/1
f 21/8/1 22/9/1 23/5/1 24/2/1
f 25/10/1 26/11/1 27/12/1 28/13/1
f 29/11/1 30/14/1 31/15/1 32/12/1
f 33/7/1 34/8/1 35/2/1 36/1/1
f 37/8/1 38/9/1 39/5/1 40/2/1
f 41/16/1 42/17/1 43/11/1 44/10/1
f 45/17/1 46/18/1 47/14/1 48/11/1
f 49/1/1 50/2/1 51/3/1 52/4/1
f 53/2/1 54/5/1 55/6/1 56/3/1
f 57/1/1 58/2/1 59/3/1 60/4/1
f 61/2/1 62/5/1 63/6/1 64/3/1
f 65/7/1 66/8/1 67/2/1 68/1/1
f 69/8/1 70/9/1 71/5/1 72/2/1
f 73/7/1 74/8/1 75/2/1 76/1/1
f 77/8/1 78/9/1 79/5/1 80/2/1
f 81/1/1 82/2/1 83/3/1 84/4/1
f 85/2/1 86/5/1 87/6/1 88/3/1
f 89/7/1 90/8/1 91/2/1 92/1/1
f 93/8/1 94/9/1 95/5/1 96/2/1
f 97/1/1 98/2/1 99/3/1 100/4/1
f 101/2/1 102/5/1 103/6/1 104/3/1
f 105/7/1 106/8/1 107/2/1 108/1/1
f 109/8/1 110/9/1 111/5/1 112/2/1

