# Tiled2Unity generated file. Do not modify by hand.
# Wavefront file for 'SalleN_mesh_0004.obj'

# Vertices (Count = 80)
v -1800 -1104 0
v -1824 -1104 0
v -1824 -1080 0
v -1800 -1080 0
v -1824 -1104 0
v -1848 -1104 0
v -1848 -1080 0
v -1824 -1080 0
v -1464 -1128 0
v -1488 -1128 0
v -1488 -1104 0
v -1464 -1104 0
v -1488 -1128 0
v -1512 -1128 0
v -1512 -1104 0
v -1488 -1104 0
v -1800 -1128 0
v -1824 -1128 0
v -1824 -1104 0
v -1800 -1104 0
v -1824 -1128 0
v -1848 -1128 0
v -1848 -1104 0
v -1824 -1104 0
v -1464 -1152 0
v -1488 -1152 0
v -1488 -1128 0
v -1464 -1128 0
v -1488 -1152 0
v -1512 -1152 0
v -1512 -1128 0
v -1488 -1128 0
v -1608 -1176 0
v -1632 -1176 0
v -1632 -1152 0
v -1608 -1152 0
v -1632 -1176 0
v -1656 -1176 0
v -1656 -1152 0
v -1632 -1152 0
v -1608 -1200 0
v -1632 -1200 0
v -1632 -1176 0
v -1608 -1176 0
v -1632 -1200 0
v -1656 -1200 0
v -1656 -1176 0
v -1632 -1176 0
v -1488 -1224 0
v -1512 -1224 0
v -1512 -1200 0
v -1488 -1200 0
v -1512 -1224 0
v -1536 -1224 0
v -1536 -1200 0
v -1512 -1200 0
v -1488 -1248 0
v -1512 -1248 0
v -1512 -1224 0
v -1488 -1224 0
v -1512 -1248 0
v -1536 -1248 0
v -1536 -1224 0
v -1512 -1224 0
v -1776 -1248 0
v -1800 -1248 0
v -1800 -1224 0
v -1776 -1224 0
v -1800 -1248 0
v -1824 -1248 0
v -1824 -1224 0
v -1800 -1224 0
v -1776 -1272 0
v -1800 -1272 0
v -1800 -1248 0
v -1776 -1248 0
v -1800 -1272 0
v -1824 -1272 0
v -1824 -1248 0
v -1800 -1248 0

# Texture cooridinates (Count = 9)
vt 0.5 0.9583333
vt 0.53125 0.9583333
vt 0.53125 1
vt 0.5 1
vt 0.5625 0.9583333
vt 0.5625 1
vt 0.5 0.9166667
vt 0.53125 0.9166667
vt 0.5625 0.9166667

# Normal
vn 0 0 -1

# Mesh description
g SalleN_mesh_0004

# Faces
f 1/1/1 2/2/1 3/3/1 4/4/1
f 5/2/1 6/5/1 7/6/1 8/3/1
f 9/1/1 10/2/1 11/3/1 12/4/1
f 13/2/1 14/5/1 15/6/1 16/3/1
f 17/7/1 18/8/1 19/2/1 20/1/1
f 21/8/1 22/9/1 23/5/1 24/2/1
f 25/7/1 26/8/1 27/2/1 28/1/1
f 29/8/1 30/9/1 31/5/1 32/2/1
f 33/1/1 34/2/1 35/3/1 36/4/1
f 37/2/1 38/5/1 39/6/1 40/3/1
f 41/7/1 42/8/1 43/2/1 44/1/1
f 45/8/1 46/9/1 47/5/1 48/2/1
f 49/1/1 50/2/1 51/3/1 52/4/1
f 53/2/1 54/5/1 55/6/1 56/3/1
f 57/7/1 58/8/1 59/2/1 60/1/1
f 61/8/1 62/9/1 63/5/1 64/2/1
f 65/1/1 66/2/1 67/3/1 68/4/1
f 69/2/1 70/5/1 71/6/1 72/3/1
f 73/7/1 74/8/1 75/2/1 76/1/1
f 77/8/1 78/9/1 79/5/1 80/2/1

