# Tiled2Unity generated file. Do not modify by hand.
# Wavefront file for 'SalleN_mesh_0003.obj'

# Vertices (Count = 352)
v -1440 -1008 0
v -1464 -1008 0
v -1464 -984 0
v -1440 -984 0
v -1464 -1008 0
v -1488 -1008 0
v -1488 -984 0
v -1464 -984 0
v -1512 -1008 0
v -1536 -1008 0
v -1536 -984 0
v -1512 -984 0
v -1536 -1008 0
v -1560 -1008 0
v -1560 -984 0
v -1536 -984 0
v -1560 -1008 0
v -1584 -1008 0
v -1584 -984 0
v -1560 -984 0
v -1584 -1008 0
v -1608 -1008 0
v -1608 -984 0
v -1584 -984 0
v -1704 -1008 0
v -1728 -1008 0
v -1728 -984 0
v -1704 -984 0
v -1728 -1008 0
v -1752 -1008 0
v -1752 -984 0
v -1728 -984 0
v -1752 -1008 0
v -1776 -1008 0
v -1776 -984 0
v -1752 -984 0
v -1776 -1008 0
v -1800 -1008 0
v -1800 -984 0
v -1776 -984 0
v -1800 -1008 0
v -1824 -1008 0
v -1824 -984 0
v -1800 -984 0
v -1824 -1008 0
v -1848 -1008 0
v -1848 -984 0
v -1824 -984 0
v -1440 -1032 0
v -1464 -1032 0
v -1464 -1008 0
v -1440 -1008 0
v -1464 -1032 0
v -1488 -1032 0
v -1488 -1008 0
v -1464 -1008 0
v -1512 -1032 0
v -1536 -1032 0
v -1536 -1008 0
v -1512 -1008 0
v -1536 -1032 0
v -1560 -1032 0
v -1560 -1008 0
v -1536 -1008 0
v -1560 -1032 0
v -1584 -1032 0
v -1584 -1008 0
v -1560 -1008 0
v -1584 -1032 0
v -1608 -1032 0
v -1608 -1008 0
v -1584 -1008 0
v -1704 -1032 0
v -1728 -1032 0
v -1728 -1008 0
v -1704 -1008 0
v -1728 -1032 0
v -1752 -1032 0
v -1752 -1008 0
v -1728 -1008 0
v -1752 -1032 0
v -1776 -1032 0
v -1776 -1008 0
v -1752 -1008 0
v -1776 -1032 0
v -1800 -1032 0
v -1800 -1008 0
v -1776 -1008 0
v -1800 -1032 0
v -1824 -1032 0
v -1824 -1008 0
v -1800 -1008 0
v -1824 -1032 0
v -1848 -1032 0
v -1848 -1008 0
v -1824 -1008 0
v -1464 -1056 0
v -1488 -1056 0
v -1488 -1032 0
v -1464 -1032 0
v -1488 -1056 0
v -1512 -1056 0
v -1512 -1032 0
v -1488 -1032 0
v -1752 -1056 0
v -1776 -1056 0
v -1776 -1032 0
v -1752 -1032 0
v -1776 -1056 0
v -1800 -1056 0
v -1800 -1032 0
v -1776 -1032 0
v -1464 -1080 0
v -1488 -1080 0
v -1488 -1056 0
v -1464 -1056 0
v -1488 -1080 0
v -1512 -1080 0
v -1512 -1056 0
v -1488 -1056 0
v -1752 -1080 0
v -1776 -1080 0
v -1776 -1056 0
v -1752 -1056 0
v -1776 -1080 0
v -1800 -1080 0
v -1800 -1056 0
v -1776 -1056 0
v -1560 -1104 0
v -1584 -1104 0
v -1584 -1080 0
v -1560 -1080 0
v -1584 -1104 0
v -1608 -1104 0
v -1608 -1080 0
v -1584 -1080 0
v -1680 -1104 0
v -1704 -1104 0
v -1704 -1080 0
v -1680 -1080 0
v -1704 -1104 0
v -1728 -1104 0
v -1728 -1080 0
v -1704 -1080 0
v -1560 -1128 0
v -1584 -1128 0
v -1584 -1104 0
v -1560 -1104 0
v -1584 -1128 0
v -1608 -1128 0
v -1608 -1104 0
v -1584 -1104 0
v -1680 -1128 0
v -1704 -1128 0
v -1704 -1104 0
v -1680 -1104 0
v -1704 -1128 0
v -1728 -1128 0
v -1728 -1104 0
v -1704 -1104 0
v -1752 -1152 0
v -1776 -1152 0
v -1776 -1128 0
v -1752 -1128 0
v -1776 -1152 0
v -1800 -1152 0
v -1800 -1128 0
v -1776 -1128 0
v -1440 -1176 0
v -1464 -1176 0
v -1464 -1152 0
v -1440 -1152 0
v -1464 -1176 0
v -1488 -1176 0
v -1488 -1152 0
v -1464 -1152 0
v -1752 -1176 0
v -1776 -1176 0
v -1776 -1152 0
v -1752 -1152 0
v -1776 -1176 0
v -1800 -1176 0
v -1800 -1152 0
v -1776 -1152 0
v -1824 -1176 0
v -1848 -1176 0
v -1848 -1152 0
v -1824 -1152 0
v -1848 -1176 0
v -1872 -1176 0
v -1872 -1152 0
v -1848 -1152 0
v -1440 -1200 0
v -1464 -1200 0
v -1464 -1176 0
v -1440 -1176 0
v -1464 -1200 0
v -1488 -1200 0
v -1488 -1176 0
v -1464 -1176 0
v -1824 -1200 0
v -1848 -1200 0
v -1848 -1176 0
v -1824 -1176 0
v -1848 -1200 0
v -1872 -1200 0
v -1872 -1176 0
v -1848 -1176 0
v -1704 -1224 0
v -1728 -1224 0
v -1728 -1200 0
v -1704 -1200 0
v -1728 -1224 0
v -1752 -1224 0
v -1752 -1200 0
v -1728 -1200 0
v -1440 -1248 0
v -1464 -1248 0
v -1464 -1224 0
v -1440 -1224 0
v -1464 -1248 0
v -1488 -1248 0
v -1488 -1224 0
v -1464 -1224 0
v -1704 -1248 0
v -1728 -1248 0
v -1728 -1224 0
v -1704 -1224 0
v -1728 -1248 0
v -1752 -1248 0
v -1752 -1224 0
v -1728 -1224 0
v -1440 -1272 0
v -1464 -1272 0
v -1464 -1248 0
v -1440 -1248 0
v -1464 -1272 0
v -1488 -1272 0
v -1488 -1248 0
v -1464 -1248 0
v -1584 -1272 0
v -1608 -1272 0
v -1608 -1248 0
v -1584 -1248 0
v -1608 -1272 0
v -1632 -1272 0
v -1632 -1248 0
v -1608 -1248 0
v -1656 -1272 0
v -1680 -1272 0
v -1680 -1248 0
v -1656 -1248 0
v -1680 -1272 0
v -1704 -1272 0
v -1704 -1248 0
v -1680 -1248 0
v -1584 -1296 0
v -1608 -1296 0
v -1608 -1272 0
v -1584 -1272 0
v -1608 -1296 0
v -1632 -1296 0
v -1632 -1272 0
v -1608 -1272 0
v -1656 -1296 0
v -1680 -1296 0
v -1680 -1272 0
v -1656 -1272 0
v -1680 -1296 0
v -1704 -1296 0
v -1704 -1272 0
v -1680 -1272 0
v -1512 -1392 0
v -1536 -1392 0
v -1536 -1368 0
v -1512 -1368 0
v -1536 -1392 0
v -1560 -1392 0
v -1560 -1368 0
v -1536 -1368 0
v -1608 -1392 0
v -1632 -1392 0
v -1632 -1368 0
v -1608 -1368 0
v -1632 -1392 0
v -1656 -1392 0
v -1656 -1368 0
v -1632 -1368 0
v -1680 -1392 0
v -1704 -1392 0
v -1704 -1368 0
v -1680 -1368 0
v -1704 -1392 0
v -1728 -1392 0
v -1728 -1368 0
v -1704 -1368 0
v -1800 -1392 0
v -1824 -1392 0
v -1824 -1368 0
v -1800 -1368 0
v -1824 -1392 0
v -1848 -1392 0
v -1848 -1368 0
v -1824 -1368 0
v -1848 -1392 0
v -1872 -1392 0
v -1872 -1368 0
v -1848 -1368 0
v -1872 -1392 0
v -1896 -1392 0
v -1896 -1368 0
v -1872 -1368 0
v -1512 -1416 0
v -1536 -1416 0
v -1536 -1392 0
v -1512 -1392 0
v -1536 -1416 0
v -1560 -1416 0
v -1560 -1392 0
v -1536 -1392 0
v -1608 -1416 0
v -1632 -1416 0
v -1632 -1392 0
v -1608 -1392 0
v -1632 -1416 0
v -1656 -1416 0
v -1656 -1392 0
v -1632 -1392 0
v -1680 -1416 0
v -1704 -1416 0
v -1704 -1392 0
v -1680 -1392 0
v -1704 -1416 0
v -1728 -1416 0
v -1728 -1392 0
v -1704 -1392 0
v -1800 -1416 0
v -1824 -1416 0
v -1824 -1392 0
v -1800 -1392 0
v -1824 -1416 0
v -1848 -1416 0
v -1848 -1392 0
v -1824 -1392 0
v -1848 -1416 0
v -1872 -1416 0
v -1872 -1392 0
v -1848 -1392 0
v -1872 -1416 0
v -1896 -1416 0
v -1896 -1392 0
v -1872 -1392 0

# Texture cooridinates (Count = 42)
vt 0.6875 0.40625
vt 0.71875 0.40625
vt 0.71875 0.4375
vt 0.6875 0.4375
vt 0.75 0.40625
vt 0.75 0.4375
vt 0.9375 0.40625
vt 0.96875 0.40625
vt 0.96875 0.4375
vt 0.9375 0.4375
vt 1 0.40625
vt 1 0.4375
vt 0.6875 0.375
vt 0.71875 0.375
vt 0.75 0.375
vt 0.9375 0.375
vt 0.96875 0.375
vt 1 0.375
vt 0.125 0.28125
vt 0.15625 0.28125
vt 0.15625 0.3125
vt 0.125 0.3125
vt 0.1875 0.28125
vt 0.1875 0.3125
vt 0.1875 0.15625
vt 0.21875 0.15625
vt 0.21875 0.1875
vt 0.1875 0.1875
vt 0.25 0.15625
vt 0.25 0.1875
vt 0.125 0.25
vt 0.15625 0.25
vt 0.1875 0.25
vt 0.1875 0.125
vt 0.21875 0.125
vt 0.25 0.125
vt 0.21875 0.28125
vt 0.21875 0.3125
vt 0.25 0.28125
vt 0.25 0.3125
vt 0.21875 0.25
vt 0.25 0.25

# Normal
vn 0 0 -1

# Mesh description
g SalleN_mesh_0003

# Faces
f 1/1/1 2/2/1 3/3/1 4/4/1
f 5/2/1 6/5/1 7/6/1 8/3/1
f 9/1/1 10/2/1 11/3/1 12/4/1
f 13/2/1 14/5/1 15/6/1 16/3/1
f 17/1/1 18/2/1 19/3/1 20/4/1
f 21/2/1 22/5/1 23/6/1 24/3/1
f 25/7/1 26/8/1 27/9/1 28/10/1
f 29/8/1 30/11/1 31/12/1 32/9/1
f 33/1/1 34/2/1 35/3/1 36/4/1
f 37/2/1 38/5/1 39/6/1 40/3/1
f 41/1/1 42/2/1 43/3/1 44/4/1
f 45/2/1 46/5/1 47/6/1 48/3/1
f 49/13/1 50/14/1 51/2/1 52/1/1
f 53/14/1 54/15/1 55/5/1 56/2/1
f 57/13/1 58/14/1 59/2/1 60/1/1
f 61/14/1 62/15/1 63/5/1 64/2/1
f 65/13/1 66/14/1 67/2/1 68/1/1
f 69/14/1 70/15/1 71/5/1 72/2/1
f 73/16/1 74/17/1 75/8/1 76/7/1
f 77/17/1 78/18/1 79/11/1 80/8/1
f 81/13/1 82/14/1 83/2/1 84/1/1
f 85/14/1 86/15/1 87/5/1 88/2/1
f 89/13/1 90/14/1 91/2/1 92/1/1
f 93/14/1 94/15/1 95/5/1 96/2/1
f 97/19/1 98/20/1 99/21/1 100/22/1
f 101/20/1 102/23/1 103/24/1 104/21/1
f 105/25/1 106/26/1 107/27/1 108/28/1
f 109/26/1 110/29/1 111/30/1 112/27/1
f 113/31/1 114/32/1 115/20/1 116/19/1
f 117/32/1 118/33/1 119/23/1 120/20/1
f 121/34/1 122/35/1 123/26/1 124/25/1
f 125/35/1 126/36/1 127/29/1 128/26/1
f 129/23/1 130/37/1 131/38/1 132/24/1
f 133/37/1 134/39/1 135/40/1 136/38/1
f 137/19/1 138/20/1 139/21/1 140/22/1
f 141/20/1 142/23/1 143/24/1 144/21/1
f 145/33/1 146/41/1 147/37/1 148/23/1
f 149/41/1 150/42/1 151/39/1 152/37/1
f 153/31/1 154/32/1 155/20/1 156/19/1
f 157/32/1 158/33/1 159/23/1 160/20/1
f 161/19/1 162/20/1 163/21/1 164/22/1
f 165/20/1 166/23/1 167/24/1 168/21/1
f 169/23/1 170/37/1 171/38/1 172/24/1
f 173/37/1 174/39/1 175/40/1 176/38/1
f 177/31/1 178/32/1 179/20/1 180/19/1
f 181/32/1 182/33/1 183/23/1 184/20/1
f 185/23/1 186/37/1 187/38/1 188/24/1
f 189/37/1 190/39/1 191/40/1 192/38/1
f 193/33/1 194/41/1 195/37/1 196/23/1
f 197/41/1 198/42/1 199/39/1 200/37/1
f 201/33/1 202/41/1 203/37/1 204/23/1
f 205/41/1 206/42/1 207/39/1 208/37/1
f 209/23/1 210/37/1 211/38/1 212/24/1
f 213/37/1 214/39/1 215/40/1 216/38/1
f 217/25/1 218/26/1 219/27/1 220/28/1
f 221/26/1 222/29/1 223/30/1 224/27/1
f 225/33/1 226/41/1 227/37/1 228/23/1
f 229/41/1 230/42/1 231/39/1 232/37/1
f 233/34/1 234/35/1 235/26/1 236/25/1
f 237/35/1 238/36/1 239/29/1 240/26/1
f 241/23/1 242/37/1 243/38/1 244/24/1
f 245/37/1 246/39/1 247/40/1 248/38/1
f 249/25/1 250/26/1 251/27/1 252/28/1
f 253/26/1 254/29/1 255/30/1 256/27/1
f 257/33/1 258/41/1 259/37/1 260/23/1
f 261/41/1 262/42/1 263/39/1 264/37/1
f 265/34/1 266/35/1 267/26/1 268/25/1
f 269/35/1 270/36/1 271/29/1 272/26/1
f 273/1/1 274/2/1 275/3/1 276/4/1
f 277/2/1 278/5/1 279/6/1 280/3/1
f 281/1/1 282/2/1 283/3/1 284/4/1
f 285/2/1 286/5/1 287/6/1 288/3/1
f 289/1/1 290/2/1 291/3/1 292/4/1
f 293/2/1 294/5/1 295/6/1 296/3/1
f 297/7/1 298/8/1 299/9/1 300/10/1
f 301/8/1 302/11/1 303/12/1 304/9/1
f 305/1/1 306/2/1 307/3/1 308/4/1
f 309/2/1 310/5/1 311/6/1 312/3/1
f 313/13/1 314/14/1 315/2/1 316/1/1
f 317/14/1 318/15/1 319/5/1 320/2/1
f 321/13/1 322/14/1 323/2/1 324/1/1
f 325/14/1 326/15/1 327/5/1 328/2/1
f 329/13/1 330/14/1 331/2/1 332/1/1
f 333/14/1 334/15/1 335/5/1 336/2/1
f 337/16/1 338/17/1 339/8/1 340/7/1
f 341/17/1 342/18/1 343/11/1 344/8/1
f 345/13/1 346/14/1 347/2/1 348/1/1
f 349/14/1 350/15/1 351/5/1 352/2/1

