# Tiled2Unity generated file. Do not modify by hand.
# Wavefront file for 'SalleNSE-SF---SP_mesh_0003.obj'

# Vertices (Count = 152)
v -1512 -1008 0
v -1536 -1008 0
v -1536 -984 0
v -1512 -984 0
v -1536 -1008 0
v -1560 -1008 0
v -1560 -984 0
v -1536 -984 0
v -1512 -1032 0
v -1536 -1032 0
v -1536 -1008 0
v -1512 -1008 0
v -1536 -1032 0
v -1560 -1032 0
v -1560 -1008 0
v -1536 -1008 0
v -1488 -1128 0
v -1512 -1128 0
v -1512 -1104 0
v -1488 -1104 0
v -1512 -1128 0
v -1536 -1128 0
v -1536 -1104 0
v -1512 -1104 0
v -1536 -1128 0
v -1560 -1128 0
v -1560 -1104 0
v -1536 -1104 0
v -1560 -1128 0
v -1584 -1128 0
v -1584 -1104 0
v -1560 -1104 0
v -1488 -1152 0
v -1512 -1152 0
v -1512 -1128 0
v -1488 -1128 0
v -1512 -1152 0
v -1536 -1152 0
v -1536 -1128 0
v -1512 -1128 0
v -1536 -1152 0
v -1560 -1152 0
v -1560 -1128 0
v -1536 -1128 0
v -1560 -1152 0
v -1584 -1152 0
v -1584 -1128 0
v -1560 -1128 0
v -1968 -1152 0
v -1992 -1152 0
v -1992 -1128 0
v -1968 -1128 0
v -1992 -1152 0
v -2016 -1152 0
v -2016 -1128 0
v -1992 -1128 0
v -1488 -1176 0
v -1512 -1176 0
v -1512 -1152 0
v -1488 -1152 0
v -1512 -1176 0
v -1536 -1176 0
v -1536 -1152 0
v -1512 -1152 0
v -1536 -1176 0
v -1560 -1176 0
v -1560 -1152 0
v -1536 -1152 0
v -1560 -1176 0
v -1584 -1176 0
v -1584 -1152 0
v -1560 -1152 0
v -1800 -1272 0
v -1824 -1272 0
v -1824 -1248 0
v -1800 -1248 0
v -1824 -1272 0
v -1848 -1272 0
v -1848 -1248 0
v -1824 -1248 0
v -1848 -1272 0
v -1872 -1272 0
v -1872 -1248 0
v -1848 -1248 0
v -1872 -1272 0
v -1896 -1272 0
v -1896 -1248 0
v -1872 -1248 0
v -1800 -1296 0
v -1824 -1296 0
v -1824 -1272 0
v -1800 -1272 0
v -1824 -1296 0
v -1848 -1296 0
v -1848 -1272 0
v -1824 -1272 0
v -1848 -1296 0
v -1872 -1296 0
v -1872 -1272 0
v -1848 -1272 0
v -1872 -1296 0
v -1896 -1296 0
v -1896 -1272 0
v -1872 -1272 0
v -1968 -1296 0
v -1992 -1296 0
v -1992 -1272 0
v -1968 -1272 0
v -1992 -1296 0
v -2016 -1296 0
v -2016 -1272 0
v -1992 -1272 0
v -1800 -1320 0
v -1824 -1320 0
v -1824 -1296 0
v -1800 -1296 0
v -1824 -1320 0
v -1848 -1320 0
v -1848 -1296 0
v -1824 -1296 0
v -1848 -1320 0
v -1872 -1320 0
v -1872 -1296 0
v -1848 -1296 0
v -1872 -1320 0
v -1896 -1320 0
v -1896 -1296 0
v -1872 -1296 0
v -1416 -1344 0
v -1440 -1344 0
v -1440 -1320 0
v -1416 -1320 0
v -1440 -1344 0
v -1464 -1344 0
v -1464 -1320 0
v -1440 -1320 0
v -1800 -1344 0
v -1824 -1344 0
v -1824 -1320 0
v -1800 -1320 0
v -1824 -1344 0
v -1848 -1344 0
v -1848 -1320 0
v -1824 -1320 0
v -1848 -1344 0
v -1872 -1344 0
v -1872 -1320 0
v -1848 -1320 0
v -1872 -1344 0
v -1896 -1344 0
v -1896 -1320 0
v -1872 -1320 0

# Texture cooridinates (Count = 46)
vt 0.25 0.59375
vt 0.28125 0.59375
vt 0.28125 0.625
vt 0.25 0.625
vt 0.3125 0.59375
vt 0.3125 0.625
vt 0.25 0.5625
vt 0.28125 0.5625
vt 0.3125 0.5625
vt 0.375 0.25
vt 0.40625 0.25
vt 0.40625 0.28125
vt 0.375 0.28125
vt 0.4375 0.25
vt 0.4375 0.28125
vt 0.46875 0.25
vt 0.46875 0.28125
vt 0.5 0.25
vt 0.5 0.28125
vt 0.375 0.21875
vt 0.40625 0.21875
vt 0.4375 0.21875
vt 0.46875 0.21875
vt 0.5 0.21875
vt 0.375 0.5625
vt 0.40625 0.5625
vt 0.40625 0.59375
vt 0.375 0.59375
vt 0.4375 0.5625
vt 0.4375 0.59375
vt 0.375 0.1875
vt 0.40625 0.1875
vt 0.4375 0.1875
vt 0.46875 0.1875
vt 0.5 0.1875
vt 0.40625 0.3125
vt 0.375 0.3125
vt 0.4375 0.3125
vt 0.46875 0.3125
vt 0.5 0.3125
vt 0.125 0.46875
vt 0.15625 0.46875
vt 0.15625 0.5
vt 0.125 0.5
vt 0.1875 0.46875
vt 0.1875 0.5

# Normal
vn 0 0 -1

# Mesh description
g SalleNSE-SF---SP_mesh_0003

# Faces
f 1/1/1 2/2/1 3/3/1 4/4/1
f 5/2/1 6/5/1 7/6/1 8/3/1
f 9/7/1 10/8/1 11/2/1 12/1/1
f 13/8/1 14/9/1 15/5/1 16/2/1
f 17/10/1 18/11/1 19/12/1 20/13/1
f 21/11/1 22/14/1 23/15/1 24/12/1
f 25/14/1 26/16/1 27/17/1 28/15/1
f 29/16/1 30/18/1 31/19/1 32/17/1
f 33/20/1 34/21/1 35/11/1 36/10/1
f 37/21/1 38/22/1 39/14/1 40/11/1
f 41/22/1 42/23/1 43/16/1 44/14/1
f 45/23/1 46/24/1 47/18/1 48/16/1
f 49/25/1 50/26/1 51/27/1 52/28/1
f 53/26/1 54/29/1 55/30/1 56/27/1
f 57/31/1 58/32/1 59/21/1 60/20/1
f 61/32/1 62/33/1 63/22/1 64/21/1
f 65/33/1 66/34/1 67/23/1 68/22/1
f 69/34/1 70/35/1 71/24/1 72/23/1
f 73/13/1 74/12/1 75/36/1 76/37/1
f 77/12/1 78/15/1 79/38/1 80/36/1
f 81/15/1 82/17/1 83/39/1 84/38/1
f 85/17/1 86/19/1 87/40/1 88/39/1
f 89/10/1 90/11/1 91/12/1 92/13/1
f 93/11/1 94/14/1 95/15/1 96/12/1
f 97/14/1 98/16/1 99/17/1 100/15/1
f 101/16/1 102/18/1 103/19/1 104/17/1
f 105/25/1 106/26/1 107/27/1 108/28/1
f 109/26/1 110/29/1 111/30/1 112/27/1
f 113/20/1 114/21/1 115/11/1 116/10/1
f 117/21/1 118/22/1 119/14/1 120/11/1
f 121/22/1 122/23/1 123/16/1 124/14/1
f 125/23/1 126/24/1 127/18/1 128/16/1
f 129/41/1 130/42/1 131/43/1 132/44/1
f 133/42/1 134/45/1 135/46/1 136/43/1
f 137/31/1 138/32/1 139/21/1 140/20/1
f 141/32/1 142/33/1 143/22/1 144/21/1
f 145/33/1 146/34/1 147/23/1 148/22/1
f 149/34/1 150/35/1 151/24/1 152/23/1

