# Tiled2Unity generated file. Do not modify by hand.
# Wavefront file for 'SalleNSE-SF---SP_mesh_0005.obj'

# Vertices (Count = 112)
v -1416 -1056 0
v -1440 -1056 0
v -1440 -1032 0
v -1416 -1032 0
v -1440 -1056 0
v -1464 -1056 0
v -1464 -1032 0
v -1440 -1032 0
v -1416 -1080 0
v -1440 -1080 0
v -1440 -1056 0
v -1416 -1056 0
v -1440 -1080 0
v -1464 -1080 0
v -1464 -1056 0
v -1440 -1056 0
v -1416 -1104 0
v -1440 -1104 0
v -1440 -1080 0
v -1416 -1080 0
v -1440 -1104 0
v -1464 -1104 0
v -1464 -1080 0
v -1440 -1080 0
v -1488 -1104 0
v -1512 -1104 0
v -1512 -1080 0
v -1488 -1080 0
v -1512 -1104 0
v -1536 -1104 0
v -1536 -1080 0
v -1512 -1080 0
v -1536 -1104 0
v -1560 -1104 0
v -1560 -1080 0
v -1536 -1080 0
v -1560 -1104 0
v -1584 -1104 0
v -1584 -1080 0
v -1560 -1080 0
v -1416 -1128 0
v -1440 -1128 0
v -1440 -1104 0
v -1416 -1104 0
v -1440 -1128 0
v -1464 -1128 0
v -1464 -1104 0
v -1440 -1104 0
v -1416 -1152 0
v -1440 -1152 0
v -1440 -1128 0
v -1416 -1128 0
v -1440 -1152 0
v -1464 -1152 0
v -1464 -1128 0
v -1440 -1128 0
v -1416 -1176 0
v -1440 -1176 0
v -1440 -1152 0
v -1416 -1152 0
v -1440 -1176 0
v -1464 -1176 0
v -1464 -1152 0
v -1440 -1152 0
v -1416 -1200 0
v -1440 -1200 0
v -1440 -1176 0
v -1416 -1176 0
v -1440 -1200 0
v -1464 -1200 0
v -1464 -1176 0
v -1440 -1176 0
v -1416 -1224 0
v -1440 -1224 0
v -1440 -1200 0
v -1416 -1200 0
v -1440 -1224 0
v -1464 -1224 0
v -1464 -1200 0
v -1440 -1200 0
v -1416 -1248 0
v -1440 -1248 0
v -1440 -1224 0
v -1416 -1224 0
v -1440 -1248 0
v -1464 -1248 0
v -1464 -1224 0
v -1440 -1224 0
v -1416 -1272 0
v -1440 -1272 0
v -1440 -1248 0
v -1416 -1248 0
v -1440 -1272 0
v -1464 -1272 0
v -1464 -1248 0
v -1440 -1248 0
v -1416 -1296 0
v -1440 -1296 0
v -1440 -1272 0
v -1416 -1272 0
v -1440 -1296 0
v -1464 -1296 0
v -1464 -1272 0
v -1440 -1272 0
v -1416 -1320 0
v -1440 -1320 0
v -1440 -1296 0
v -1416 -1296 0
v -1440 -1320 0
v -1464 -1320 0
v -1464 -1296 0
v -1440 -1296 0

# Texture cooridinates (Count = 25)
vt 0.125 0.53125
vt 0.15625 0.53125
vt 0.15625 0.5625
vt 0.125 0.5625
vt 0.1875 0.53125
vt 0.1875 0.5625
vt 0.125 0.5
vt 0.15625 0.5
vt 0.1875 0.5
vt 0.125 0.46875
vt 0.15625 0.46875
vt 0.1875 0.46875
vt 0.375 0.28125
vt 0.40625 0.28125
vt 0.40625 0.3125
vt 0.375 0.3125
vt 0.4375 0.28125
vt 0.4375 0.3125
vt 0.46875 0.28125
vt 0.46875 0.3125
vt 0.5 0.28125
vt 0.5 0.3125
vt 0.125 0.4375
vt 0.15625 0.4375
vt 0.1875 0.4375

# Normal
vn 0 0 -1

# Mesh description
g SalleNSE-SF---SP_mesh_0005

# Faces
f 1/1/1 2/2/1 3/3/1 4/4/1
f 5/2/1 6/5/1 7/6/1 8/3/1
f 9/7/1 10/8/1 11/2/1 12/1/1
f 13/8/1 14/9/1 15/5/1 16/2/1
f 17/10/1 18/11/1 19/8/1 20/7/1
f 21/11/1 22/12/1 23/9/1 24/8/1
f 25/13/1 26/14/1 27/15/1 28/16/1
f 29/14/1 30/17/1 31/18/1 32/15/1
f 33/17/1 34/19/1 35/20/1 36/18/1
f 37/19/1 38/21/1 39/22/1 40/20/1
f 41/23/1 42/24/1 43/11/1 44/10/1
f 45/24/1 46/25/1 47/12/1 48/11/1
f 49/10/1 50/11/1 51/8/1 52/7/1
f 53/11/1 54/12/1 55/9/1 56/8/1
f 57/23/1 58/24/1 59/11/1 60/10/1
f 61/24/1 62/25/1 63/12/1 64/11/1
f 65/10/1 66/11/1 67/8/1 68/7/1
f 69/11/1 70/12/1 71/9/1 72/8/1
f 73/23/1 74/24/1 75/11/1 76/10/1
f 77/24/1 78/25/1 79/12/1 80/11/1
f 81/10/1 82/11/1 83/8/1 84/7/1
f 85/11/1 86/12/1 87/9/1 88/8/1
f 89/23/1 90/24/1 91/11/1 92/10/1
f 93/24/1 94/25/1 95/12/1 96/11/1
f 97/10/1 98/11/1 99/8/1 100/7/1
f 101/11/1 102/12/1 103/9/1 104/8/1
f 105/23/1 106/24/1 107/11/1 108/10/1
f 109/24/1 110/25/1 111/12/1 112/11/1

