# Tiled2Unity generated file. Do not modify by hand.
# Wavefront file for 'SalleNE-Flaque_mesh_0006.obj'

# Vertices (Count = 192)
v -1416 -1152 0
v -1440 -1152 0
v -1440 -1128 0
v -1416 -1128 0
v -1440 -1152 0
v -1464 -1152 0
v -1464 -1128 0
v -1440 -1128 0
v -1464 -1152 0
v -1488 -1152 0
v -1488 -1128 0
v -1464 -1128 0
v -1488 -1152 0
v -1512 -1152 0
v -1512 -1128 0
v -1488 -1128 0
v -1416 -1176 0
v -1440 -1176 0
v -1440 -1152 0
v -1416 -1152 0
v -1440 -1176 0
v -1464 -1176 0
v -1464 -1152 0
v -1440 -1152 0
v -1464 -1176 0
v -1488 -1176 0
v -1488 -1152 0
v -1464 -1152 0
v -1488 -1176 0
v -1512 -1176 0
v -1512 -1152 0
v -1488 -1152 0
v -1416 -1200 0
v -1440 -1200 0
v -1440 -1176 0
v -1416 -1176 0
v -1440 -1200 0
v -1464 -1200 0
v -1464 -1176 0
v -1440 -1176 0
v -1464 -1200 0
v -1488 -1200 0
v -1488 -1176 0
v -1464 -1176 0
v -1488 -1200 0
v -1512 -1200 0
v -1512 -1176 0
v -1488 -1176 0
v -1416 -1224 0
v -1440 -1224 0
v -1440 -1200 0
v -1416 -1200 0
v -1440 -1224 0
v -1464 -1224 0
v -1464 -1200 0
v -1440 -1200 0
v -1464 -1224 0
v -1488 -1224 0
v -1488 -1200 0
v -1464 -1200 0
v -1488 -1224 0
v -1512 -1224 0
v -1512 -1200 0
v -1488 -1200 0
v -1608 -1248 0
v -1632 -1248 0
v -1632 -1224 0
v -1608 -1224 0
v -1632 -1248 0
v -1656 -1248 0
v -1656 -1224 0
v -1632 -1224 0
v -1656 -1248 0
v -1680 -1248 0
v -1680 -1224 0
v -1656 -1224 0
v -1680 -1248 0
v -1704 -1248 0
v -1704 -1224 0
v -1680 -1224 0
v -1416 -1272 0
v -1440 -1272 0
v -1440 -1248 0
v -1416 -1248 0
v -1440 -1272 0
v -1464 -1272 0
v -1464 -1248 0
v -1440 -1248 0
v -1464 -1272 0
v -1488 -1272 0
v -1488 -1248 0
v -1464 -1248 0
v -1488 -1272 0
v -1512 -1272 0
v -1512 -1248 0
v -1488 -1248 0
v -1608 -1272 0
v -1632 -1272 0
v -1632 -1248 0
v -1608 -1248 0
v -1632 -1272 0
v -1656 -1272 0
v -1656 -1248 0
v -1632 -1248 0
v -1656 -1272 0
v -1680 -1272 0
v -1680 -1248 0
v -1656 -1248 0
v -1680 -1272 0
v -1704 -1272 0
v -1704 -1248 0
v -1680 -1248 0
v -1416 -1296 0
v -1440 -1296 0
v -1440 -1272 0
v -1416 -1272 0
v -1440 -1296 0
v -1464 -1296 0
v -1464 -1272 0
v -1440 -1272 0
v -1464 -1296 0
v -1488 -1296 0
v -1488 -1272 0
v -1464 -1272 0
v -1488 -1296 0
v -1512 -1296 0
v -1512 -1272 0
v -1488 -1272 0
v -1608 -1296 0
v -1632 -1296 0
v -1632 -1272 0
v -1608 -1272 0
v -1632 -1296 0
v -1656 -1296 0
v -1656 -1272 0
v -1632 -1272 0
v -1656 -1296 0
v -1680 -1296 0
v -1680 -1272 0
v -1656 -1272 0
v -1680 -1296 0
v -1704 -1296 0
v -1704 -1272 0
v -1680 -1272 0
v -1416 -1320 0
v -1440 -1320 0
v -1440 -1296 0
v -1416 -1296 0
v -1440 -1320 0
v -1464 -1320 0
v -1464 -1296 0
v -1440 -1296 0
v -1464 -1320 0
v -1488 -1320 0
v -1488 -1296 0
v -1464 -1296 0
v -1488 -1320 0
v -1512 -1320 0
v -1512 -1296 0
v -1488 -1296 0
v -1608 -1320 0
v -1632 -1320 0
v -1632 -1296 0
v -1608 -1296 0
v -1632 -1320 0
v -1656 -1320 0
v -1656 -1296 0
v -1632 -1296 0
v -1656 -1320 0
v -1680 -1320 0
v -1680 -1296 0
v -1656 -1296 0
v -1680 -1320 0
v -1704 -1320 0
v -1704 -1296 0
v -1680 -1296 0
v -1416 -1344 0
v -1440 -1344 0
v -1440 -1320 0
v -1416 -1320 0
v -1440 -1344 0
v -1464 -1344 0
v -1464 -1320 0
v -1440 -1320 0
v -1464 -1344 0
v -1488 -1344 0
v -1488 -1320 0
v -1464 -1320 0
v -1488 -1344 0
v -1512 -1344 0
v -1512 -1320 0
v -1488 -1320 0

# Texture cooridinates (Count = 25)
vt 0.375 0.875
vt 0.40625 0.875
vt 0.40625 0.9166667
vt 0.375 0.9166667
vt 0.4375 0.875
vt 0.4375 0.9166667
vt 0.46875 0.875
vt 0.46875 0.9166667
vt 0.5 0.875
vt 0.5 0.9166667
vt 0.375 0.8333333
vt 0.40625 0.8333333
vt 0.4375 0.8333333
vt 0.46875 0.8333333
vt 0.5 0.8333333
vt 0.375 0.7916667
vt 0.40625 0.7916667
vt 0.4375 0.7916667
vt 0.46875 0.7916667
vt 0.5 0.7916667
vt 0.375 0.75
vt 0.40625 0.75
vt 0.4375 0.75
vt 0.46875 0.75
vt 0.5 0.75

# Normal
vn 0 0 -1

# Mesh description
g SalleNE-Flaque_mesh_0006

# Faces
f 1/1/1 2/2/1 3/3/1 4/4/1
f 5/2/1 6/5/1 7/6/1 8/3/1
f 9/5/1 10/7/1 11/8/1 12/6/1
f 13/7/1 14/9/1 15/10/1 16/8/1
f 17/11/1 18/12/1 19/2/1 20/1/1
f 21/12/1 22/13/1 23/5/1 24/2/1
f 25/13/1 26/14/1 27/7/1 28/5/1
f 29/14/1 30/15/1 31/9/1 32/7/1
f 33/16/1 34/17/1 35/12/1 36/11/1
f 37/17/1 38/18/1 39/13/1 40/12/1
f 41/18/1 42/19/1 43/14/1 44/13/1
f 45/19/1 46/20/1 47/15/1 48/14/1
f 49/21/1 50/22/1 51/17/1 52/16/1
f 53/22/1 54/23/1 55/18/1 56/17/1
f 57/23/1 58/24/1 59/19/1 60/18/1
f 61/24/1 62/25/1 63/20/1 64/19/1
f 65/1/1 66/2/1 67/3/1 68/4/1
f 69/2/1 70/5/1 71/6/1 72/3/1
f 73/5/1 74/7/1 75/8/1 76/6/1
f 77/7/1 78/9/1 79/10/1 80/8/1
f 81/1/1 82/2/1 83/3/1 84/4/1
f 85/2/1 86/5/1 87/6/1 88/3/1
f 89/5/1 90/7/1 91/8/1 92/6/1
f 93/7/1 94/9/1 95/10/1 96/8/1
f 97/11/1 98/12/1 99/2/1 100/1/1
f 101/12/1 102/13/1 103/5/1 104/2/1
f 105/13/1 106/14/1 107/7/1 108/5/1
f 109/14/1 110/15/1 111/9/1 112/7/1
f 113/11/1 114/12/1 115/2/1 116/1/1
f 117/12/1 118/13/1 119/5/1 120/2/1
f 121/13/1 122/14/1 123/7/1 124/5/1
f 125/14/1 126/15/1 127/9/1 128/7/1
f 129/16/1 130/17/1 131/12/1 132/11/1
f 133/17/1 134/18/1 135/13/1 136/12/1
f 137/18/1 138/19/1 139/14/1 140/13/1
f 141/19/1 142/20/1 143/15/1 144/14/1
f 145/16/1 146/17/1 147/12/1 148/11/1
f 149/17/1 150/18/1 151/13/1 152/12/1
f 153/18/1 154/19/1 155/14/1 156/13/1
f 157/19/1 158/20/1 159/15/1 160/14/1
f 161/21/1 162/22/1 163/17/1 164/16/1
f 165/22/1 166/23/1 167/18/1 168/17/1
f 169/23/1 170/24/1 171/19/1 172/18/1
f 173/24/1 174/25/1 175/20/1 176/19/1
f 177/21/1 178/22/1 179/17/1 180/16/1
f 181/22/1 182/23/1 183/18/1 184/17/1
f 185/23/1 186/24/1 187/19/1 188/18/1
f 189/24/1 190/25/1 191/20/1 192/19/1

