# Tiled2Unity generated file. Do not modify by hand.
# Wavefront file for 'SalleNE-Flaque_mesh_0007.obj'

# Vertices (Count = 192)
v -1368 -960 0
v -1392 -960 0
v -1392 -936 0
v -1368 -936 0
v -1392 -960 0
v -1416 -960 0
v -1416 -936 0
v -1392 -936 0
v -1416 -960 0
v -1440 -960 0
v -1440 -936 0
v -1416 -936 0
v -1440 -960 0
v -1464 -960 0
v -1464 -936 0
v -1440 -936 0
v -1464 -960 0
v -1488 -960 0
v -1488 -936 0
v -1464 -936 0
v -1488 -960 0
v -1512 -960 0
v -1512 -936 0
v -1488 -936 0
v -1512 -960 0
v -1536 -960 0
v -1536 -936 0
v -1512 -936 0
v -1536 -960 0
v -1560 -960 0
v -1560 -936 0
v -1536 -936 0
v -1560 -960 0
v -1584 -960 0
v -1584 -936 0
v -1560 -936 0
v -1728 -960 0
v -1752 -960 0
v -1752 -936 0
v -1728 -936 0
v -1752 -960 0
v -1776 -960 0
v -1776 -936 0
v -1752 -936 0
v -1776 -960 0
v -1800 -960 0
v -1800 -936 0
v -1776 -936 0
v -1800 -960 0
v -1824 -960 0
v -1824 -936 0
v -1800 -936 0
v -1824 -960 0
v -1848 -960 0
v -1848 -936 0
v -1824 -936 0
v -1848 -960 0
v -1872 -960 0
v -1872 -936 0
v -1848 -936 0
v -1872 -960 0
v -1896 -960 0
v -1896 -936 0
v -1872 -936 0
v -1896 -960 0
v -1920 -960 0
v -1920 -936 0
v -1896 -936 0
v -1920 -960 0
v -1944 -960 0
v -1944 -936 0
v -1920 -936 0
v -1944 -1080 0
v -1968 -1080 0
v -1968 -1056 0
v -1944 -1056 0
v -1968 -1080 0
v -1992 -1080 0
v -1992 -1056 0
v -1968 -1056 0
v -1992 -1080 0
v -2016 -1080 0
v -2016 -1056 0
v -1992 -1056 0
v -2016 -1080 0
v -2040 -1080 0
v -2040 -1056 0
v -2016 -1056 0
v -1896 -1224 0
v -1920 -1224 0
v -1920 -1200 0
v -1896 -1200 0
v -1920 -1224 0
v -1944 -1224 0
v -1944 -1200 0
v -1920 -1200 0
v -1944 -1224 0
v -1968 -1224 0
v -1968 -1200 0
v -1944 -1200 0
v -1968 -1224 0
v -1992 -1224 0
v -1992 -1200 0
v -1968 -1200 0
v -1992 -1224 0
v -2016 -1224 0
v -2016 -1200 0
v -1992 -1200 0
v -2016 -1224 0
v -2040 -1224 0
v -2040 -1200 0
v -2016 -1200 0
v -1416 -1344 0
v -1440 -1344 0
v -1440 -1320 0
v -1416 -1320 0
v -1440 -1344 0
v -1464 -1344 0
v -1464 -1320 0
v -1440 -1320 0
v -1464 -1344 0
v -1488 -1344 0
v -1488 -1320 0
v -1464 -1320 0
v -1488 -1344 0
v -1512 -1344 0
v -1512 -1320 0
v -1488 -1320 0
v -1512 -1344 0
v -1536 -1344 0
v -1536 -1320 0
v -1512 -1320 0
v -1536 -1344 0
v -1560 -1344 0
v -1560 -1320 0
v -1536 -1320 0
v -1560 -1344 0
v -1584 -1344 0
v -1584 -1320 0
v -1560 -1320 0
v -1584 -1344 0
v -1608 -1344 0
v -1608 -1320 0
v -1584 -1320 0
v -1608 -1344 0
v -1632 -1344 0
v -1632 -1320 0
v -1608 -1320 0
v -1632 -1344 0
v -1656 -1344 0
v -1656 -1320 0
v -1632 -1320 0
v -1656 -1344 0
v -1680 -1344 0
v -1680 -1320 0
v -1656 -1320 0
v -1680 -1344 0
v -1704 -1344 0
v -1704 -1320 0
v -1680 -1320 0
v -1704 -1344 0
v -1728 -1344 0
v -1728 -1320 0
v -1704 -1320 0
v -1728 -1344 0
v -1752 -1344 0
v -1752 -1320 0
v -1728 -1320 0
v -1752 -1344 0
v -1776 -1344 0
v -1776 -1320 0
v -1752 -1320 0
v -1776 -1344 0
v -1800 -1344 0
v -1800 -1320 0
v -1776 -1320 0
v -1800 -1344 0
v -1824 -1344 0
v -1824 -1320 0
v -1800 -1320 0
v -1824 -1344 0
v -1848 -1344 0
v -1848 -1320 0
v -1824 -1320 0
v -1848 -1344 0
v -1872 -1344 0
v -1872 -1320 0
v -1848 -1320 0
v -1872 -1344 0
v -1896 -1344 0
v -1896 -1320 0
v -1872 -1320 0

# Texture cooridinates (Count = 10)
vt 0.125 0.9
vt 0.15625 0.9
vt 0.15625 0.9333333
vt 0.125 0.9333333
vt 0.1875 0.9
vt 0.1875 0.9333333
vt 0.21875 0.9
vt 0.21875 0.9333333
vt 0.25 0.9
vt 0.25 0.9333333

# Normal
vn 0 0 -1

# Mesh description
g SalleNE-Flaque_mesh_0007

# Faces
f 1/1/1 2/2/1 3/3/1 4/4/1
f 5/2/1 6/5/1 7/6/1 8/3/1
f 9/5/1 10/7/1 11/8/1 12/6/1
f 13/2/1 14/5/1 15/6/1 16/3/1
f 17/5/1 18/7/1 19/8/1 20/6/1
f 21/2/1 22/5/1 23/6/1 24/3/1
f 25/5/1 26/7/1 27/8/1 28/6/1
f 29/2/1 30/5/1 31/6/1 32/3/1
f 33/5/1 34/7/1 35/8/1 36/6/1
f 37/2/1 38/5/1 39/6/1 40/3/1
f 41/5/1 42/7/1 43/8/1 44/6/1
f 45/2/1 46/5/1 47/6/1 48/3/1
f 49/5/1 50/7/1 51/8/1 52/6/1
f 53/2/1 54/5/1 55/6/1 56/3/1
f 57/5/1 58/7/1 59/8/1 60/6/1
f 61/2/1 62/5/1 63/6/1 64/3/1
f 65/5/1 66/7/1 67/8/1 68/6/1
f 69/7/1 70/9/1 71/10/1 72/8/1
f 73/2/1 74/5/1 75/6/1 76/3/1
f 77/5/1 78/7/1 79/8/1 80/6/1
f 81/2/1 82/5/1 83/6/1 84/3/1
f 85/5/1 86/7/1 87/8/1 88/6/1
f 89/1/1 90/2/1 91/3/1 92/4/1
f 93/2/1 94/5/1 95/6/1 96/3/1
f 97/2/1 98/5/1 99/6/1 100/3/1
f 101/2/1 102/5/1 103/6/1 104/3/1
f 105/5/1 106/7/1 107/8/1 108/6/1
f 109/2/1 110/5/1 111/6/1 112/3/1
f 113/2/1 114/5/1 115/6/1 116/3/1
f 117/5/1 118/7/1 119/8/1 120/6/1
f 121/2/1 122/5/1 123/6/1 124/3/1
f 125/5/1 126/7/1 127/8/1 128/6/1
f 129/2/1 130/5/1 131/6/1 132/3/1
f 133/5/1 134/7/1 135/8/1 136/6/1
f 137/2/1 138/5/1 139/6/1 140/3/1
f 141/5/1 142/7/1 143/8/1 144/6/1
f 145/2/1 146/5/1 147/6/1 148/3/1
f 149/5/1 150/7/1 151/8/1 152/6/1
f 153/2/1 154/5/1 155/6/1 156/3/1
f 157/5/1 158/7/1 159/8/1 160/6/1
f 161/2/1 162/5/1 163/6/1 164/3/1
f 165/5/1 166/7/1 167/8/1 168/6/1
f 169/2/1 170/5/1 171/6/1 172/3/1
f 173/5/1 174/7/1 175/8/1 176/6/1
f 177/2/1 178/5/1 179/6/1 180/3/1
f 181/5/1 182/7/1 183/8/1 184/6/1
f 185/2/1 186/5/1 187/6/1 188/3/1
f 189/5/1 190/7/1 191/8/1 192/6/1

