# Tiled2Unity generated file. Do not modify by hand.
# Wavefront file for 'SalleSEW-Humide_mesh_0001.obj'

# Vertices (Count = 920)
v -1368 -984 0
v -1392 -984 0
v -1392 -960 0
v -1368 -960 0
v -1392 -984 0
v -1416 -984 0
v -1416 -960 0
v -1392 -960 0
v -1416 -984 0
v -1440 -984 0
v -1440 -960 0
v -1416 -960 0
v -1440 -984 0
v -1464 -984 0
v -1464 -960 0
v -1440 -960 0
v -1464 -984 0
v -1488 -984 0
v -1488 -960 0
v -1464 -960 0
v -1488 -984 0
v -1512 -984 0
v -1512 -960 0
v -1488 -960 0
v -1512 -984 0
v -1536 -984 0
v -1536 -960 0
v -1512 -960 0
v -1536 -984 0
v -1560 -984 0
v -1560 -960 0
v -1536 -960 0
v -1560 -984 0
v -1584 -984 0
v -1584 -960 0
v -1560 -960 0
v -1584 -984 0
v -1608 -984 0
v -1608 -960 0
v -1584 -960 0
v -1608 -984 0
v -1632 -984 0
v -1632 -960 0
v -1608 -960 0
v -1632 -984 0
v -1656 -984 0
v -1656 -960 0
v -1632 -960 0
v -1656 -984 0
v -1680 -984 0
v -1680 -960 0
v -1656 -960 0
v -1680 -984 0
v -1704 -984 0
v -1704 -960 0
v -1680 -960 0
v -1704 -984 0
v -1728 -984 0
v -1728 -960 0
v -1704 -960 0
v -1728 -984 0
v -1752 -984 0
v -1752 -960 0
v -1728 -960 0
v -1752 -984 0
v -1776 -984 0
v -1776 -960 0
v -1752 -960 0
v -1776 -984 0
v -1800 -984 0
v -1800 -960 0
v -1776 -960 0
v -1800 -984 0
v -1824 -984 0
v -1824 -960 0
v -1800 -960 0
v -1824 -984 0
v -1848 -984 0
v -1848 -960 0
v -1824 -960 0
v -1848 -984 0
v -1872 -984 0
v -1872 -960 0
v -1848 -960 0
v -1872 -984 0
v -1896 -984 0
v -1896 -960 0
v -1872 -960 0
v -1896 -984 0
v -1920 -984 0
v -1920 -960 0
v -1896 -960 0
v -1920 -984 0
v -1944 -984 0
v -1944 -960 0
v -1920 -960 0
v -1368 -1008 0
v -1392 -1008 0
v -1392 -984 0
v -1368 -984 0
v -1392 -1008 0
v -1416 -1008 0
v -1416 -984 0
v -1392 -984 0
v -1416 -1008 0
v -1440 -1008 0
v -1440 -984 0
v -1416 -984 0
v -1440 -1008 0
v -1464 -1008 0
v -1464 -984 0
v -1440 -984 0
v -1464 -1008 0
v -1488 -1008 0
v -1488 -984 0
v -1464 -984 0
v -1488 -1008 0
v -1512 -1008 0
v -1512 -984 0
v -1488 -984 0
v -1512 -1008 0
v -1536 -1008 0
v -1536 -984 0
v -1512 -984 0
v -1536 -1008 0
v -1560 -1008 0
v -1560 -984 0
v -1536 -984 0
v -1560 -1008 0
v -1584 -1008 0
v -1584 -984 0
v -1560 -984 0
v -1584 -1008 0
v -1608 -1008 0
v -1608 -984 0
v -1584 -984 0
v -1608 -1008 0
v -1632 -1008 0
v -1632 -984 0
v -1608 -984 0
v -1632 -1008 0
v -1656 -1008 0
v -1656 -984 0
v -1632 -984 0
v -1656 -1008 0
v -1680 -1008 0
v -1680 -984 0
v -1656 -984 0
v -1680 -1008 0
v -1704 -1008 0
v -1704 -984 0
v -1680 -984 0
v -1704 -1008 0
v -1728 -1008 0
v -1728 -984 0
v -1704 -984 0
v -1728 -1008 0
v -1752 -1008 0
v -1752 -984 0
v -1728 -984 0
v -1752 -1008 0
v -1776 -1008 0
v -1776 -984 0
v -1752 -984 0
v -1776 -1008 0
v -1800 -1008 0
v -1800 -984 0
v -1776 -984 0
v -1800 -1008 0
v -1824 -1008 0
v -1824 -984 0
v -1800 -984 0
v -1824 -1008 0
v -1848 -1008 0
v -1848 -984 0
v -1824 -984 0
v -1848 -1008 0
v -1872 -1008 0
v -1872 -984 0
v -1848 -984 0
v -1872 -1008 0
v -1896 -1008 0
v -1896 -984 0
v -1872 -984 0
v -1896 -1008 0
v -1920 -1008 0
v -1920 -984 0
v -1896 -984 0
v -1920 -1008 0
v -1944 -1008 0
v -1944 -984 0
v -1920 -984 0
v -1368 -1032 0
v -1392 -1032 0
v -1392 -1008 0
v -1368 -1008 0
v -1392 -1032 0
v -1416 -1032 0
v -1416 -1008 0
v -1392 -1008 0
v -1416 -1032 0
v -1440 -1032 0
v -1440 -1008 0
v -1416 -1008 0
v -1440 -1032 0
v -1464 -1032 0
v -1464 -1008 0
v -1440 -1008 0
v -1464 -1032 0
v -1488 -1032 0
v -1488 -1008 0
v -1464 -1008 0
v -1488 -1032 0
v -1512 -1032 0
v -1512 -1008 0
v -1488 -1008 0
v -1512 -1032 0
v -1536 -1032 0
v -1536 -1008 0
v -1512 -1008 0
v -1536 -1032 0
v -1560 -1032 0
v -1560 -1008 0
v -1536 -1008 0
v -1560 -1032 0
v -1584 -1032 0
v -1584 -1008 0
v -1560 -1008 0
v -1584 -1032 0
v -1608 -1032 0
v -1608 -1008 0
v -1584 -1008 0
v -1608 -1032 0
v -1632 -1032 0
v -1632 -1008 0
v -1608 -1008 0
v -1632 -1032 0
v -1656 -1032 0
v -1656 -1008 0
v -1632 -1008 0
v -1656 -1032 0
v -1680 -1032 0
v -1680 -1008 0
v -1656 -1008 0
v -1680 -1032 0
v -1704 -1032 0
v -1704 -1008 0
v -1680 -1008 0
v -1704 -1032 0
v -1728 -1032 0
v -1728 -1008 0
v -1704 -1008 0
v -1728 -1032 0
v -1752 -1032 0
v -1752 -1008 0
v -1728 -1008 0
v -1752 -1032 0
v -1776 -1032 0
v -1776 -1008 0
v -1752 -1008 0
v -1776 -1032 0
v -1800 -1032 0
v -1800 -1008 0
v -1776 -1008 0
v -1800 -1032 0
v -1824 -1032 0
v -1824 -1008 0
v -1800 -1008 0
v -1824 -1032 0
v -1848 -1032 0
v -1848 -1008 0
v -1824 -1008 0
v -1848 -1032 0
v -1872 -1032 0
v -1872 -1008 0
v -1848 -1008 0
v -1872 -1032 0
v -1896 -1032 0
v -1896 -1008 0
v -1872 -1008 0
v -1896 -1032 0
v -1920 -1032 0
v -1920 -1008 0
v -1896 -1008 0
v -1920 -1032 0
v -1944 -1032 0
v -1944 -1008 0
v -1920 -1008 0
v -1368 -1056 0
v -1392 -1056 0
v -1392 -1032 0
v -1368 -1032 0
v -1392 -1056 0
v -1416 -1056 0
v -1416 -1032 0
v -1392 -1032 0
v -1896 -1056 0
v -1920 -1056 0
v -1920 -1032 0
v -1896 -1032 0
v -1920 -1056 0
v -1944 -1056 0
v -1944 -1032 0
v -1920 -1032 0
v -1368 -1080 0
v -1392 -1080 0
v -1392 -1056 0
v -1368 -1056 0
v -1392 -1080 0
v -1416 -1080 0
v -1416 -1056 0
v -1392 -1056 0
v -1896 -1080 0
v -1920 -1080 0
v -1920 -1056 0
v -1896 -1056 0
v -1920 -1080 0
v -1944 -1080 0
v -1944 -1056 0
v -1920 -1056 0
v -1272 -1104 0
v -1296 -1104 0
v -1296 -1080 0
v -1272 -1080 0
v -1296 -1104 0
v -1320 -1104 0
v -1320 -1080 0
v -1296 -1080 0
v -1320 -1104 0
v -1344 -1104 0
v -1344 -1080 0
v -1320 -1080 0
v -1344 -1104 0
v -1368 -1104 0
v -1368 -1080 0
v -1344 -1080 0
v -1368 -1104 0
v -1392 -1104 0
v -1392 -1080 0
v -1368 -1080 0
v -1392 -1104 0
v -1416 -1104 0
v -1416 -1080 0
v -1392 -1080 0
v -1896 -1104 0
v -1920 -1104 0
v -1920 -1080 0
v -1896 -1080 0
v -1920 -1104 0
v -1944 -1104 0
v -1944 -1080 0
v -1920 -1080 0
v -1944 -1104 0
v -1968 -1104 0
v -1968 -1080 0
v -1944 -1080 0
v -1968 -1104 0
v -1992 -1104 0
v -1992 -1080 0
v -1968 -1080 0
v -1992 -1104 0
v -2016 -1104 0
v -2016 -1080 0
v -1992 -1080 0
v -2016 -1104 0
v -2040 -1104 0
v -2040 -1080 0
v -2016 -1080 0
v -1272 -1128 0
v -1296 -1128 0
v -1296 -1104 0
v -1272 -1104 0
v -1296 -1128 0
v -1320 -1128 0
v -1320 -1104 0
v -1296 -1104 0
v -1320 -1128 0
v -1344 -1128 0
v -1344 -1104 0
v -1320 -1104 0
v -1344 -1128 0
v -1368 -1128 0
v -1368 -1104 0
v -1344 -1104 0
v -1368 -1128 0
v -1392 -1128 0
v -1392 -1104 0
v -1368 -1104 0
v -1392 -1128 0
v -1416 -1128 0
v -1416 -1104 0
v -1392 -1104 0
v -1896 -1128 0
v -1920 -1128 0
v -1920 -1104 0
v -1896 -1104 0
v -1920 -1128 0
v -1944 -1128 0
v -1944 -1104 0
v -1920 -1104 0
v -1944 -1128 0
v -1968 -1128 0
v -1968 -1104 0
v -1944 -1104 0
v -1968 -1128 0
v -1992 -1128 0
v -1992 -1104 0
v -1968 -1104 0
v -1992 -1128 0
v -2016 -1128 0
v -2016 -1104 0
v -1992 -1104 0
v -2016 -1128 0
v -2040 -1128 0
v -2040 -1104 0
v -2016 -1104 0
v -1272 -1152 0
v -1296 -1152 0
v -1296 -1128 0
v -1272 -1128 0
v -1296 -1152 0
v -1320 -1152 0
v -1320 -1128 0
v -1296 -1128 0
v -1320 -1152 0
v -1344 -1152 0
v -1344 -1128 0
v -1320 -1128 0
v -1344 -1152 0
v -1368 -1152 0
v -1368 -1128 0
v -1344 -1128 0
v -1368 -1152 0
v -1392 -1152 0
v -1392 -1128 0
v -1368 -1128 0
v -1392 -1152 0
v -1416 -1152 0
v -1416 -1128 0
v -1392 -1128 0
v -1896 -1152 0
v -1920 -1152 0
v -1920 -1128 0
v -1896 -1128 0
v -1920 -1152 0
v -1944 -1152 0
v -1944 -1128 0
v -1920 -1128 0
v -1944 -1152 0
v -1968 -1152 0
v -1968 -1128 0
v -1944 -1128 0
v -1968 -1152 0
v -1992 -1152 0
v -1992 -1128 0
v -1968 -1128 0
v -1992 -1152 0
v -2016 -1152 0
v -2016 -1128 0
v -1992 -1128 0
v -2016 -1152 0
v -2040 -1152 0
v -2040 -1128 0
v -2016 -1128 0
v -1272 -1248 0
v -1296 -1248 0
v -1296 -1224 0
v -1272 -1224 0
v -1296 -1248 0
v -1320 -1248 0
v -1320 -1224 0
v -1296 -1224 0
v -1320 -1248 0
v -1344 -1248 0
v -1344 -1224 0
v -1320 -1224 0
v -1344 -1248 0
v -1368 -1248 0
v -1368 -1224 0
v -1344 -1224 0
v -1368 -1248 0
v -1392 -1248 0
v -1392 -1224 0
v -1368 -1224 0
v -1392 -1248 0
v -1416 -1248 0
v -1416 -1224 0
v -1392 -1224 0
v -1896 -1248 0
v -1920 -1248 0
v -1920 -1224 0
v -1896 -1224 0
v -1920 -1248 0
v -1944 -1248 0
v -1944 -1224 0
v -1920 -1224 0
v -1944 -1248 0
v -1968 -1248 0
v -1968 -1224 0
v -1944 -1224 0
v -1968 -1248 0
v -1992 -1248 0
v -1992 -1224 0
v -1968 -1224 0
v -1992 -1248 0
v -2016 -1248 0
v -2016 -1224 0
v -1992 -1224 0
v -2016 -1248 0
v -2040 -1248 0
v -2040 -1224 0
v -2016 -1224 0
v -1272 -1272 0
v -1296 -1272 0
v -1296 -1248 0
v -1272 -1248 0
v -1296 -1272 0
v -1320 -1272 0
v -1320 -1248 0
v -1296 -1248 0
v -1320 -1272 0
v -1344 -1272 0
v -1344 -1248 0
v -1320 -1248 0
v -1344 -1272 0
v -1368 -1272 0
v -1368 -1248 0
v -1344 -1248 0
v -1368 -1272 0
v -1392 -1272 0
v -1392 -1248 0
v -1368 -1248 0
v -1392 -1272 0
v -1416 -1272 0
v -1416 -1248 0
v -1392 -1248 0
v -1896 -1272 0
v -1920 -1272 0
v -1920 -1248 0
v -1896 -1248 0
v -1920 -1272 0
v -1944 -1272 0
v -1944 -1248 0
v -1920 -1248 0
v -1944 -1272 0
v -1968 -1272 0
v -1968 -1248 0
v -1944 -1248 0
v -1968 -1272 0
v -1992 -1272 0
v -1992 -1248 0
v -1968 -1248 0
v -1992 -1272 0
v -2016 -1272 0
v -2016 -1248 0
v -1992 -1248 0
v -2016 -1272 0
v -2040 -1272 0
v -2040 -1248 0
v -2016 -1248 0
v -1272 -1296 0
v -1296 -1296 0
v -1296 -1272 0
v -1272 -1272 0
v -1296 -1296 0
v -1320 -1296 0
v -1320 -1272 0
v -1296 -1272 0
v -1320 -1296 0
v -1344 -1296 0
v -1344 -1272 0
v -1320 -1272 0
v -1344 -1296 0
v -1368 -1296 0
v -1368 -1272 0
v -1344 -1272 0
v -1368 -1296 0
v -1392 -1296 0
v -1392 -1272 0
v -1368 -1272 0
v -1392 -1296 0
v -1416 -1296 0
v -1416 -1272 0
v -1392 -1272 0
v -1896 -1296 0
v -1920 -1296 0
v -1920 -1272 0
v -1896 -1272 0
v -1920 -1296 0
v -1944 -1296 0
v -1944 -1272 0
v -1920 -1272 0
v -1944 -1296 0
v -1968 -1296 0
v -1968 -1272 0
v -1944 -1272 0
v -1968 -1296 0
v -1992 -1296 0
v -1992 -1272 0
v -1968 -1272 0
v -1992 -1296 0
v -2016 -1296 0
v -2016 -1272 0
v -1992 -1272 0
v -2016 -1296 0
v -2040 -1296 0
v -2040 -1272 0
v -2016 -1272 0
v -1368 -1320 0
v -1392 -1320 0
v -1392 -1296 0
v -1368 -1296 0
v -1392 -1320 0
v -1416 -1320 0
v -1416 -1296 0
v -1392 -1296 0
v -1896 -1320 0
v -1920 -1320 0
v -1920 -1296 0
v -1896 -1296 0
v -1920 -1320 0
v -1944 -1320 0
v -1944 -1296 0
v -1920 -1296 0
v -1368 -1344 0
v -1392 -1344 0
v -1392 -1320 0
v -1368 -1320 0
v -1392 -1344 0
v -1416 -1344 0
v -1416 -1320 0
v -1392 -1320 0
v -1896 -1344 0
v -1920 -1344 0
v -1920 -1320 0
v -1896 -1320 0
v -1920 -1344 0
v -1944 -1344 0
v -1944 -1320 0
v -1920 -1320 0
v -1368 -1368 0
v -1392 -1368 0
v -1392 -1344 0
v -1368 -1344 0
v -1392 -1368 0
v -1416 -1368 0
v -1416 -1344 0
v -1392 -1344 0
v -1416 -1368 0
v -1440 -1368 0
v -1440 -1344 0
v -1416 -1344 0
v -1440 -1368 0
v -1464 -1368 0
v -1464 -1344 0
v -1440 -1344 0
v -1464 -1368 0
v -1488 -1368 0
v -1488 -1344 0
v -1464 -1344 0
v -1488 -1368 0
v -1512 -1368 0
v -1512 -1344 0
v -1488 -1344 0
v -1512 -1368 0
v -1536 -1368 0
v -1536 -1344 0
v -1512 -1344 0
v -1536 -1368 0
v -1560 -1368 0
v -1560 -1344 0
v -1536 -1344 0
v -1560 -1368 0
v -1584 -1368 0
v -1584 -1344 0
v -1560 -1344 0
v -1584 -1368 0
v -1608 -1368 0
v -1608 -1344 0
v -1584 -1344 0
v -1608 -1368 0
v -1632 -1368 0
v -1632 -1344 0
v -1608 -1344 0
v -1680 -1368 0
v -1704 -1368 0
v -1704 -1344 0
v -1680 -1344 0
v -1704 -1368 0
v -1728 -1368 0
v -1728 -1344 0
v -1704 -1344 0
v -1728 -1368 0
v -1752 -1368 0
v -1752 -1344 0
v -1728 -1344 0
v -1752 -1368 0
v -1776 -1368 0
v -1776 -1344 0
v -1752 -1344 0
v -1776 -1368 0
v -1800 -1368 0
v -1800 -1344 0
v -1776 -1344 0
v -1800 -1368 0
v -1824 -1368 0
v -1824 -1344 0
v -1800 -1344 0
v -1824 -1368 0
v -1848 -1368 0
v -1848 -1344 0
v -1824 -1344 0
v -1848 -1368 0
v -1872 -1368 0
v -1872 -1344 0
v -1848 -1344 0
v -1872 -1368 0
v -1896 -1368 0
v -1896 -1344 0
v -1872 -1344 0
v -1896 -1368 0
v -1920 -1368 0
v -1920 -1344 0
v -1896 -1344 0
v -1920 -1368 0
v -1944 -1368 0
v -1944 -1344 0
v -1920 -1344 0
v -1368 -1392 0
v -1392 -1392 0
v -1392 -1368 0
v -1368 -1368 0
v -1392 -1392 0
v -1416 -1392 0
v -1416 -1368 0
v -1392 -1368 0
v -1416 -1392 0
v -1440 -1392 0
v -1440 -1368 0
v -1416 -1368 0
v -1440 -1392 0
v -1464 -1392 0
v -1464 -1368 0
v -1440 -1368 0
v -1464 -1392 0
v -1488 -1392 0
v -1488 -1368 0
v -1464 -1368 0
v -1488 -1392 0
v -1512 -1392 0
v -1512 -1368 0
v -1488 -1368 0
v -1512 -1392 0
v -1536 -1392 0
v -1536 -1368 0
v -1512 -1368 0
v -1536 -1392 0
v -1560 -1392 0
v -1560 -1368 0
v -1536 -1368 0
v -1560 -1392 0
v -1584 -1392 0
v -1584 -1368 0
v -1560 -1368 0
v -1584 -1392 0
v -1608 -1392 0
v -1608 -1368 0
v -1584 -1368 0
v -1608 -1392 0
v -1632 -1392 0
v -1632 -1368 0
v -1608 -1368 0
v -1680 -1392 0
v -1704 -1392 0
v -1704 -1368 0
v -1680 -1368 0
v -1704 -1392 0
v -1728 -1392 0
v -1728 -1368 0
v -1704 -1368 0
v -1728 -1392 0
v -1752 -1392 0
v -1752 -1368 0
v -1728 -1368 0
v -1752 -1392 0
v -1776 -1392 0
v -1776 -1368 0
v -1752 -1368 0
v -1776 -1392 0
v -1800 -1392 0
v -1800 -1368 0
v -1776 -1368 0
v -1800 -1392 0
v -1824 -1392 0
v -1824 -1368 0
v -1800 -1368 0
v -1824 -1392 0
v -1848 -1392 0
v -1848 -1368 0
v -1824 -1368 0
v -1848 -1392 0
v -1872 -1392 0
v -1872 -1368 0
v -1848 -1368 0
v -1872 -1392 0
v -1896 -1392 0
v -1896 -1368 0
v -1872 -1368 0
v -1896 -1392 0
v -1920 -1392 0
v -1920 -1368 0
v -1896 -1368 0
v -1920 -1392 0
v -1944 -1392 0
v -1944 -1368 0
v -1920 -1368 0
v -1368 -1416 0
v -1392 -1416 0
v -1392 -1392 0
v -1368 -1392 0
v -1392 -1416 0
v -1416 -1416 0
v -1416 -1392 0
v -1392 -1392 0
v -1416 -1416 0
v -1440 -1416 0
v -1440 -1392 0
v -1416 -1392 0
v -1440 -1416 0
v -1464 -1416 0
v -1464 -1392 0
v -1440 -1392 0
v -1464 -1416 0
v -1488 -1416 0
v -1488 -1392 0
v -1464 -1392 0
v -1488 -1416 0
v -1512 -1416 0
v -1512 -1392 0
v -1488 -1392 0
v -1512 -1416 0
v -1536 -1416 0
v -1536 -1392 0
v -1512 -1392 0
v -1536 -1416 0
v -1560 -1416 0
v -1560 -1392 0
v -1536 -1392 0
v -1560 -1416 0
v -1584 -1416 0
v -1584 -1392 0
v -1560 -1392 0
v -1584 -1416 0
v -1608 -1416 0
v -1608 -1392 0
v -1584 -1392 0
v -1608 -1416 0
v -1632 -1416 0
v -1632 -1392 0
v -1608 -1392 0
v -1680 -1416 0
v -1704 -1416 0
v -1704 -1392 0
v -1680 -1392 0
v -1704 -1416 0
v -1728 -1416 0
v -1728 -1392 0
v -1704 -1392 0
v -1728 -1416 0
v -1752 -1416 0
v -1752 -1392 0
v -1728 -1392 0
v -1752 -1416 0
v -1776 -1416 0
v -1776 -1392 0
v -1752 -1392 0
v -1776 -1416 0
v -1800 -1416 0
v -1800 -1392 0
v -1776 -1392 0
v -1800 -1416 0
v -1824 -1416 0
v -1824 -1392 0
v -1800 -1392 0
v -1824 -1416 0
v -1848 -1416 0
v -1848 -1392 0
v -1824 -1392 0
v -1848 -1416 0
v -1872 -1416 0
v -1872 -1392 0
v -1848 -1392 0
v -1872 -1416 0
v -1896 -1416 0
v -1896 -1392 0
v -1872 -1392 0
v -1896 -1416 0
v -1920 -1416 0
v -1920 -1392 0
v -1896 -1392 0
v -1920 -1416 0
v -1944 -1416 0
v -1944 -1392 0
v -1920 -1392 0
v -1584 -1440 0
v -1608 -1440 0
v -1608 -1416 0
v -1584 -1416 0
v -1608 -1440 0
v -1632 -1440 0
v -1632 -1416 0
v -1608 -1416 0
v -1680 -1440 0
v -1704 -1440 0
v -1704 -1416 0
v -1680 -1416 0
v -1704 -1440 0
v -1728 -1440 0
v -1728 -1416 0
v -1704 -1416 0

# Texture cooridinates (Count = 44)
vt 0.125 0.8666667
vt 0.15625 0.8666667
vt 0.15625 0.9
vt 0.125 0.9
vt 0.1875 0.8666667
vt 0.21875 0.8666667
vt 0.21875 0.9
vt 0.1875 0.9
vt 0.1875 0.8
vt 0.21875 0.8
vt 0.21875 0.8333333
vt 0.1875 0.8333333
vt 0.15625 0.8
vt 0.15625 0.8333333
vt 0.25 0.8666667
vt 0.25 0.9
vt 0.25 0.8333333
vt 0.125 0.7
vt 0.15625 0.7
vt 0.15625 0.7333333
vt 0.125 0.7333333
vt 0.1875 0.7
vt 0.1875 0.7333333
vt 0.21875 0.7
vt 0.21875 0.7333333
vt 0.1875 0.7666667
vt 0.15625 0.7666667
vt 0.21875 0.7666667
vt 0.25 0.7
vt 0.25 0.7333333
vt 0.125 0.8333333
vt 0.125 0.6666666
vt 0.15625 0.6666666
vt 0.1875 0.6666666
vt 0.21875 0.6666666
vt 0.25 0.6666666
vt 0.25 0.8
vt 0.125 0.8
vt 0.125 0.7666667
vt 0.125 0.9333333
vt 0.15625 0.9333333
vt 0.15625 0.9666666
vt 0.125 0.9666666
vt 0.25 0.7666667

# Normal
vn 0 0 -1

# Mesh description
g SalleSEW-Humide_mesh_0001

# Faces
f 1/1/1 2/2/1 3/3/1 4/4/1
f 5/5/1 6/6/1 7/7/1 8/8/1
f 9/9/1 10/10/1 11/11/1 12/12/1
f 13/2/1 14/5/1 15/8/1 16/3/1
f 17/5/1 18/6/1 19/7/1 20/8/1
f 21/2/1 22/5/1 23/8/1 24/3/1
f 25/13/1 26/9/1 27/12/1 28/14/1
f 29/9/1 30/10/1 31/11/1 32/12/1
f 33/13/1 34/9/1 35/12/1 36/14/1
f 37/9/1 38/10/1 39/11/1 40/12/1
f 41/13/1 42/9/1 43/12/1 44/14/1
f 45/9/1 46/10/1 47/11/1 48/12/1
f 49/13/1 50/9/1 51/12/1 52/14/1
f 53/9/1 54/10/1 55/11/1 56/12/1
f 57/13/1 58/9/1 59/12/1 60/14/1
f 61/9/1 62/10/1 63/11/1 64/12/1
f 65/13/1 66/9/1 67/12/1 68/14/1
f 69/2/1 70/5/1 71/8/1 72/3/1
f 73/5/1 74/6/1 75/7/1 76/8/1
f 77/2/1 78/5/1 79/8/1 80/3/1
f 81/5/1 82/6/1 83/7/1 84/8/1
f 85/5/1 86/6/1 87/7/1 88/8/1
f 89/5/1 90/6/1 91/7/1 92/8/1
f 93/6/1 94/15/1 95/16/1 96/7/1
f 97/1/1 98/2/1 99/3/1 100/4/1
f 101/11/1 102/17/1 103/15/1 104/6/1
f 105/18/1 106/19/1 107/20/1 108/21/1
f 109/19/1 110/22/1 111/23/1 112/20/1
f 113/19/1 114/22/1 115/23/1 116/20/1
f 117/22/1 118/24/1 119/25/1 120/23/1
f 121/20/1 122/23/1 123/26/1 124/27/1
f 125/23/1 126/25/1 127/28/1 128/26/1
f 129/20/1 130/23/1 131/26/1 132/27/1
f 133/23/1 134/25/1 135/28/1 136/26/1
f 137/20/1 138/23/1 139/26/1 140/27/1
f 141/23/1 142/25/1 143/28/1 144/26/1
f 145/20/1 146/23/1 147/26/1 148/27/1
f 149/23/1 150/25/1 151/28/1 152/26/1
f 153/20/1 154/23/1 155/26/1 156/27/1
f 157/23/1 158/25/1 159/28/1 160/26/1
f 161/20/1 162/23/1 163/26/1 164/27/1
f 165/22/1 166/24/1 167/25/1 168/23/1
f 169/19/1 170/22/1 171/23/1 172/20/1
f 173/19/1 174/22/1 175/23/1 176/20/1
f 177/22/1 178/24/1 179/25/1 180/23/1
f 181/24/1 182/29/1 183/30/1 184/25/1
f 185/31/1 186/14/1 187/2/1 188/1/1
f 189/11/1 190/17/1 191/15/1 192/6/1
f 193/31/1 194/14/1 195/2/1 196/1/1
f 197/6/1 198/15/1 199/16/1 200/7/1
f 201/32/1 202/33/1 203/19/1 204/18/1
f 205/33/1 206/34/1 207/22/1 208/19/1
f 209/33/1 210/34/1 211/22/1 212/19/1
f 213/34/1 214/35/1 215/24/1 216/22/1
f 217/33/1 218/34/1 219/22/1 220/19/1
f 221/34/1 222/35/1 223/24/1 224/22/1
f 225/33/1 226/34/1 227/22/1 228/19/1
f 229/34/1 230/35/1 231/24/1 232/22/1
f 233/33/1 234/34/1 235/22/1 236/19/1
f 237/34/1 238/35/1 239/24/1 240/22/1
f 241/33/1 242/34/1 243/22/1 244/19/1
f 245/34/1 246/35/1 247/24/1 248/22/1
f 249/33/1 250/34/1 251/22/1 252/19/1
f 253/34/1 254/35/1 255/24/1 256/22/1
f 257/33/1 258/34/1 259/22/1 260/19/1
f 261/34/1 262/35/1 263/24/1 264/22/1
f 265/33/1 266/34/1 267/22/1 268/19/1
f 269/33/1 270/34/1 271/22/1 272/19/1
f 273/34/1 274/35/1 275/24/1 276/22/1
f 277/35/1 278/36/1 279/29/1 280/24/1
f 281/1/1 282/2/1 283/3/1 284/4/1
f 285/6/1 286/15/1 287/16/1 288/7/1
f 289/31/1 290/14/1 291/2/1 292/1/1
f 293/11/1 294/17/1 295/15/1 296/6/1
f 297/31/1 298/14/1 299/2/1 300/1/1
f 301/11/1 302/17/1 303/15/1 304/6/1
f 305/14/1 306/12/1 307/5/1 308/2/1
f 309/6/1 310/15/1 311/16/1 312/7/1
f 313/1/1 314/2/1 315/3/1 316/4/1
f 317/2/1 318/5/1 319/8/1 320/3/1
f 321/13/1 322/9/1 323/12/1 324/14/1
f 325/13/1 326/9/1 327/12/1 328/14/1
f 329/9/1 330/10/1 331/11/1 332/12/1
f 333/13/1 334/9/1 335/12/1 336/14/1
f 337/9/1 338/10/1 339/11/1 340/12/1
f 341/10/1 342/37/1 343/17/1 344/11/1
f 345/38/1 346/13/1 347/14/1 348/31/1
f 349/13/1 350/9/1 351/12/1 352/14/1
f 353/13/1 354/9/1 355/12/1 356/14/1
f 357/9/1 358/10/1 359/11/1 360/12/1
f 361/13/1 362/9/1 363/12/1 364/14/1
f 365/9/1 366/10/1 367/11/1 368/12/1
f 369/26/1 370/28/1 371/10/1 372/9/1
f 373/27/1 374/26/1 375/9/1 376/13/1
f 377/26/1 378/28/1 379/10/1 380/9/1
f 381/19/1 382/22/1 383/23/1 384/20/1
f 385/22/1 386/24/1 387/25/1 388/23/1
f 389/27/1 390/26/1 391/9/1 392/13/1
f 393/39/1 394/27/1 395/13/1 396/38/1
f 397/27/1 398/26/1 399/9/1 400/13/1
f 401/26/1 402/28/1 403/10/1 404/9/1
f 405/27/1 406/26/1 407/9/1 408/13/1
f 409/26/1 410/28/1 411/10/1 412/9/1
f 413/27/1 414/26/1 415/9/1 416/13/1
f 417/34/1 418/35/1 419/24/1 420/22/1
f 421/33/1 422/34/1 423/22/1 424/19/1
f 425/34/1 426/35/1 427/24/1 428/22/1
f 429/33/1 430/34/1 431/22/1 432/19/1
f 433/34/1 434/35/1 435/24/1 436/22/1
f 437/33/1 438/34/1 439/22/1 440/19/1
f 441/32/1 442/33/1 443/19/1 444/18/1
f 445/33/1 446/34/1 447/22/1 448/19/1
f 449/34/1 450/35/1 451/24/1 452/22/1
f 453/33/1 454/34/1 455/22/1 456/19/1
f 457/34/1 458/35/1 459/24/1 460/22/1
f 461/33/1 462/34/1 463/22/1 464/19/1
f 465/9/1 466/10/1 467/11/1 468/12/1
f 469/13/1 470/9/1 471/12/1 472/14/1
f 473/9/1 474/10/1 475/11/1 476/12/1
f 477/13/1 478/9/1 479/12/1 480/14/1
f 481/2/1 482/5/1 483/8/1 484/3/1
f 485/6/1 486/15/1 487/16/1 488/7/1
f 489/1/1 490/2/1 491/3/1 492/4/1
f 493/14/1 494/12/1 495/5/1 496/2/1
f 497/9/1 498/10/1 499/11/1 500/12/1
f 501/13/1 502/9/1 503/12/1 504/14/1
f 505/9/1 506/10/1 507/11/1 508/12/1
f 509/13/1 510/9/1 511/12/1 512/14/1
f 513/27/1 514/26/1 515/9/1 516/13/1
f 517/27/1 518/26/1 519/9/1 520/13/1
f 521/26/1 522/28/1 523/10/1 524/9/1
f 525/27/1 526/26/1 527/9/1 528/13/1
f 529/1/1 530/2/1 531/3/1 532/4/1
f 533/11/1 534/17/1 535/15/1 536/6/1
f 537/1/1 538/2/1 539/3/1 540/4/1
f 541/6/1 542/15/1 543/16/1 544/7/1
f 545/27/1 546/26/1 547/9/1 548/13/1
f 549/27/1 550/26/1 551/9/1 552/13/1
f 553/26/1 554/28/1 555/10/1 556/9/1
f 557/27/1 558/26/1 559/9/1 560/13/1
f 561/32/1 562/33/1 563/19/1 564/18/1
f 565/33/1 566/34/1 567/22/1 568/19/1
f 569/34/1 570/35/1 571/24/1 572/22/1
f 573/33/1 574/34/1 575/22/1 576/19/1
f 577/1/1 578/2/1 579/3/1 580/4/1
f 581/11/1 582/17/1 583/15/1 584/6/1
f 585/31/1 586/14/1 587/2/1 588/1/1
f 589/11/1 590/17/1 591/15/1 592/6/1
f 593/32/1 594/33/1 595/19/1 596/18/1
f 597/33/1 598/34/1 599/22/1 600/19/1
f 601/34/1 602/35/1 603/24/1 604/22/1
f 605/33/1 606/34/1 607/22/1 608/19/1
f 609/31/1 610/14/1 611/2/1 612/1/1
f 613/11/1 614/17/1 615/15/1 616/6/1
f 617/31/1 618/14/1 619/2/1 620/1/1
f 621/11/1 622/17/1 623/15/1 624/6/1
f 625/1/1 626/2/1 627/3/1 628/4/1
f 629/2/1 630/5/1 631/8/1 632/3/1
f 633/2/1 634/5/1 635/8/1 636/3/1
f 637/11/1 638/17/1 639/15/1 640/6/1
f 641/40/1 642/41/1 643/42/1 644/43/1
f 645/13/1 646/9/1 647/12/1 648/14/1
f 649/9/1 650/10/1 651/11/1 652/12/1
f 653/13/1 654/9/1 655/12/1 656/14/1
f 657/9/1 658/10/1 659/11/1 660/12/1
f 661/13/1 662/9/1 663/12/1 664/14/1
f 665/9/1 666/10/1 667/11/1 668/12/1
f 669/13/1 670/9/1 671/12/1 672/14/1
f 673/9/1 674/10/1 675/11/1 676/12/1
f 677/2/1 678/5/1 679/8/1 680/3/1
f 681/11/1 682/17/1 683/15/1 684/6/1
f 685/31/1 686/14/1 687/2/1 688/1/1
f 689/2/1 690/5/1 691/8/1 692/3/1
f 693/13/1 694/9/1 695/12/1 696/14/1
f 697/9/1 698/10/1 699/11/1 700/12/1
f 701/13/1 702/9/1 703/12/1 704/14/1
f 705/9/1 706/10/1 707/11/1 708/12/1
f 709/13/1 710/9/1 711/12/1 712/14/1
f 713/9/1 714/10/1 715/11/1 716/12/1
f 717/13/1 718/9/1 719/12/1 720/14/1
f 721/9/1 722/10/1 723/11/1 724/12/1
f 725/10/1 726/37/1 727/17/1 728/11/1
f 729/21/1 730/20/1 731/27/1 732/39/1
f 733/20/1 734/23/1 735/26/1 736/27/1
f 737/23/1 738/25/1 739/28/1 740/26/1
f 741/20/1 742/23/1 743/26/1 744/27/1
f 745/23/1 746/25/1 747/28/1 748/26/1
f 749/20/1 750/23/1 751/26/1 752/27/1
f 753/23/1 754/25/1 755/28/1 756/26/1
f 757/20/1 758/23/1 759/26/1 760/27/1
f 761/23/1 762/25/1 763/28/1 764/26/1
f 765/31/1 766/14/1 767/2/1 768/1/1
f 769/6/1 770/15/1 771/16/1 772/7/1
f 773/31/1 774/14/1 775/2/1 776/1/1
f 777/6/1 778/15/1 779/16/1 780/7/1
f 781/20/1 782/23/1 783/26/1 784/27/1
f 785/23/1 786/25/1 787/28/1 788/26/1
f 789/20/1 790/23/1 791/26/1 792/27/1
f 793/23/1 794/25/1 795/28/1 796/26/1
f 797/20/1 798/23/1 799/26/1 800/27/1
f 801/23/1 802/25/1 803/28/1 804/26/1
f 805/20/1 806/23/1 807/26/1 808/27/1
f 809/23/1 810/25/1 811/28/1 812/26/1
f 813/25/1 814/30/1 815/44/1 816/28/1
f 817/32/1 818/33/1 819/19/1 820/18/1
f 821/33/1 822/34/1 823/22/1 824/19/1
f 825/34/1 826/35/1 827/24/1 828/22/1
f 829/33/1 830/34/1 831/22/1 832/19/1
f 833/34/1 834/35/1 835/24/1 836/22/1
f 837/33/1 838/34/1 839/22/1 840/19/1
f 841/34/1 842/35/1 843/24/1 844/22/1
f 845/33/1 846/34/1 847/22/1 848/19/1
f 849/34/1 850/35/1 851/24/1 852/22/1
f 853/1/1 854/2/1 855/3/1 856/4/1
f 857/11/1 858/17/1 859/15/1 860/6/1
f 861/1/1 862/2/1 863/3/1 864/4/1
f 865/6/1 866/15/1 867/16/1 868/7/1
f 869/33/1 870/34/1 871/22/1 872/19/1
f 873/34/1 874/35/1 875/24/1 876/22/1
f 877/33/1 878/34/1 879/22/1 880/19/1
f 881/34/1 882/35/1 883/24/1 884/22/1
f 885/33/1 886/34/1 887/22/1 888/19/1
f 889/34/1 890/35/1 891/24/1 892/22/1
f 893/33/1 894/34/1 895/22/1 896/19/1
f 897/34/1 898/35/1 899/24/1 900/22/1
f 901/35/1 902/36/1 903/29/1 904/24/1
f 905/31/1 906/14/1 907/2/1 908/1/1
f 909/10/1 910/37/1 911/17/1 912/11/1
f 913/40/1 914/41/1 915/42/1 916/43/1
f 917/11/1 918/17/1 919/15/1 920/6/1

