# Tiled2Unity generated file. Do not modify by hand.
# Wavefront file for 'SalleSEW-Humide_mesh_0003.obj'

# Vertices (Count = 208)
v -1416 -1008 0
v -1440 -1008 0
v -1440 -984 0
v -1416 -984 0
v -1440 -1008 0
v -1464 -1008 0
v -1464 -984 0
v -1440 -984 0
v -1728 -1008 0
v -1752 -1008 0
v -1752 -984 0
v -1728 -984 0
v -1752 -1008 0
v -1776 -1008 0
v -1776 -984 0
v -1752 -984 0
v -1848 -1008 0
v -1872 -1008 0
v -1872 -984 0
v -1848 -984 0
v -1872 -1008 0
v -1896 -1008 0
v -1896 -984 0
v -1872 -984 0
v -1416 -1032 0
v -1440 -1032 0
v -1440 -1008 0
v -1416 -1008 0
v -1440 -1032 0
v -1464 -1032 0
v -1464 -1008 0
v -1440 -1008 0
v -1728 -1032 0
v -1752 -1032 0
v -1752 -1008 0
v -1728 -1008 0
v -1752 -1032 0
v -1776 -1032 0
v -1776 -1008 0
v -1752 -1008 0
v -1848 -1032 0
v -1872 -1032 0
v -1872 -1008 0
v -1848 -1008 0
v -1872 -1032 0
v -1896 -1032 0
v -1896 -1008 0
v -1872 -1008 0
v -1344 -1128 0
v -1368 -1128 0
v -1368 -1104 0
v -1344 -1104 0
v -1368 -1128 0
v -1392 -1128 0
v -1392 -1104 0
v -1368 -1104 0
v -1680 -1128 0
v -1704 -1128 0
v -1704 -1104 0
v -1680 -1104 0
v -1704 -1128 0
v -1728 -1128 0
v -1728 -1104 0
v -1704 -1104 0
v -1896 -1128 0
v -1920 -1128 0
v -1920 -1104 0
v -1896 -1104 0
v -1920 -1128 0
v -1944 -1128 0
v -1944 -1104 0
v -1920 -1104 0
v -1344 -1152 0
v -1368 -1152 0
v -1368 -1128 0
v -1344 -1128 0
v -1368 -1152 0
v -1392 -1152 0
v -1392 -1128 0
v -1368 -1128 0
v -1512 -1152 0
v -1536 -1152 0
v -1536 -1128 0
v -1512 -1128 0
v -1536 -1152 0
v -1560 -1152 0
v -1560 -1128 0
v -1536 -1128 0
v -1680 -1152 0
v -1704 -1152 0
v -1704 -1128 0
v -1680 -1128 0
v -1704 -1152 0
v -1728 -1152 0
v -1728 -1128 0
v -1704 -1128 0
v -1896 -1152 0
v -1920 -1152 0
v -1920 -1128 0
v -1896 -1128 0
v -1920 -1152 0
v -1944 -1152 0
v -1944 -1128 0
v -1920 -1128 0
v -1512 -1176 0
v -1536 -1176 0
v -1536 -1152 0
v -1512 -1152 0
v -1536 -1176 0
v -1560 -1176 0
v -1560 -1152 0
v -1536 -1152 0
v -1608 -1176 0
v -1632 -1176 0
v -1632 -1152 0
v -1608 -1152 0
v -1632 -1176 0
v -1656 -1176 0
v -1656 -1152 0
v -1632 -1152 0
v -1776 -1176 0
v -1800 -1176 0
v -1800 -1152 0
v -1776 -1152 0
v -1800 -1176 0
v -1824 -1176 0
v -1824 -1152 0
v -1800 -1152 0
v -1608 -1200 0
v -1632 -1200 0
v -1632 -1176 0
v -1608 -1176 0
v -1632 -1200 0
v -1656 -1200 0
v -1656 -1176 0
v -1632 -1176 0
v -1776 -1200 0
v -1800 -1200 0
v -1800 -1176 0
v -1776 -1176 0
v -1800 -1200 0
v -1824 -1200 0
v -1824 -1176 0
v -1800 -1176 0
v -1704 -1224 0
v -1728 -1224 0
v -1728 -1200 0
v -1704 -1200 0
v -1728 -1224 0
v -1752 -1224 0
v -1752 -1200 0
v -1728 -1200 0
v -1704 -1248 0
v -1728 -1248 0
v -1728 -1224 0
v -1704 -1224 0
v -1728 -1248 0
v -1752 -1248 0
v -1752 -1224 0
v -1728 -1224 0
v -1416 -1272 0
v -1440 -1272 0
v -1440 -1248 0
v -1416 -1248 0
v -1440 -1272 0
v -1464 -1272 0
v -1464 -1248 0
v -1440 -1248 0
v -1416 -1296 0
v -1440 -1296 0
v -1440 -1272 0
v -1416 -1272 0
v -1440 -1296 0
v -1464 -1296 0
v -1464 -1272 0
v -1440 -1272 0
v -1584 -1296 0
v -1608 -1296 0
v -1608 -1272 0
v -1584 -1272 0
v -1608 -1296 0
v -1632 -1296 0
v -1632 -1272 0
v -1608 -1272 0
v -1800 -1296 0
v -1824 -1296 0
v -1824 -1272 0
v -1800 -1272 0
v -1824 -1296 0
v -1848 -1296 0
v -1848 -1272 0
v -1824 -1272 0
v -1584 -1320 0
v -1608 -1320 0
v -1608 -1296 0
v -1584 -1296 0
v -1608 -1320 0
v -1632 -1320 0
v -1632 -1296 0
v -1608 -1296 0
v -1800 -1320 0
v -1824 -1320 0
v -1824 -1296 0
v -1800 -1296 0
v -1824 -1320 0
v -1848 -1320 0
v -1848 -1296 0
v -1824 -1296 0

# Texture cooridinates (Count = 51)
vt 0.9375 0.40625
vt 0.96875 0.40625
vt 0.96875 0.4375
vt 0.9375 0.4375
vt 1 0.40625
vt 1 0.4375
vt 0.6875 0.40625
vt 0.71875 0.40625
vt 0.71875 0.4375
vt 0.6875 0.4375
vt 0.75 0.40625
vt 0.75 0.4375
vt 0.9375 0.375
vt 0.96875 0.375
vt 1 0.375
vt 0.6875 0.375
vt 0.71875 0.375
vt 0.75 0.375
vt 0.1875 0.28125
vt 0.21875 0.28125
vt 0.21875 0.3125
vt 0.1875 0.3125
vt 0.25 0.28125
vt 0.25 0.3125
vt 0.1875 0.15625
vt 0.21875 0.15625
vt 0.21875 0.1875
vt 0.1875 0.1875
vt 0.25 0.15625
vt 0.25 0.1875
vt 0.1875 0.25
vt 0.21875 0.25
vt 0.25 0.25
vt 0.1875 0.125
vt 0.21875 0.125
vt 0.25 0.125
vt 0.0625 0.28125
vt 0.09375 0.28125
vt 0.09375 0.3125
vt 0.0625 0.3125
vt 0.125 0.28125
vt 0.125 0.3125
vt 0.0625 0.25
vt 0.09375 0.25
vt 0.125 0.25
vt 0 0.28125
vt 0.03125 0.28125
vt 0.03125 0.3125
vt 0 0.3125
vt 0 0.25
vt 0.03125 0.25

# Normal
vn 0 0 -1

# Mesh description
g SalleSEW-Humide_mesh_0003

# Faces
f 1/1/1 2/2/1 3/3/1 4/4/1
f 5/2/1 6/5/1 7/6/1 8/3/1
f 9/7/1 10/8/1 11/9/1 12/10/1
f 13/8/1 14/11/1 15/12/1 16/9/1
f 17/7/1 18/8/1 19/9/1 20/10/1
f 21/8/1 22/11/1 23/12/1 24/9/1
f 25/13/1 26/14/1 27/2/1 28/1/1
f 29/14/1 30/15/1 31/5/1 32/2/1
f 33/16/1 34/17/1 35/8/1 36/7/1
f 37/17/1 38/18/1 39/11/1 40/8/1
f 41/16/1 42/17/1 43/8/1 44/7/1
f 45/17/1 46/18/1 47/11/1 48/8/1
f 49/1/1 50/2/1 51/3/1 52/4/1
f 53/2/1 54/5/1 55/6/1 56/3/1
f 57/19/1 58/20/1 59/21/1 60/22/1
f 61/20/1 62/23/1 63/24/1 64/21/1
f 65/7/1 66/8/1 67/9/1 68/10/1
f 69/8/1 70/11/1 71/12/1 72/9/1
f 73/13/1 74/14/1 75/2/1 76/1/1
f 77/14/1 78/15/1 79/5/1 80/2/1
f 81/25/1 82/26/1 83/27/1 84/28/1
f 85/26/1 86/29/1 87/30/1 88/27/1
f 89/31/1 90/32/1 91/20/1 92/19/1
f 93/32/1 94/33/1 95/23/1 96/20/1
f 97/16/1 98/17/1 99/8/1 100/7/1
f 101/17/1 102/18/1 103/11/1 104/8/1
f 105/34/1 106/35/1 107/26/1 108/25/1
f 109/35/1 110/36/1 111/29/1 112/26/1
f 113/37/1 114/38/1 115/39/1 116/40/1
f 117/38/1 118/41/1 119/42/1 120/39/1
f 121/19/1 122/20/1 123/21/1 124/22/1
f 125/20/1 126/23/1 127/24/1 128/21/1
f 129/43/1 130/44/1 131/38/1 132/37/1
f 133/44/1 134/45/1 135/41/1 136/38/1
f 137/31/1 138/32/1 139/20/1 140/19/1
f 141/32/1 142/33/1 143/23/1 144/20/1
f 145/19/1 146/20/1 147/21/1 148/22/1
f 149/20/1 150/23/1 151/24/1 152/21/1
f 153/31/1 154/32/1 155/20/1 156/19/1
f 157/32/1 158/33/1 159/23/1 160/20/1
f 161/25/1 162/26/1 163/27/1 164/28/1
f 165/26/1 166/29/1 167/30/1 168/27/1
f 169/34/1 170/35/1 171/26/1 172/25/1
f 173/35/1 174/36/1 175/29/1 176/26/1
f 177/46/1 178/47/1 179/48/1 180/49/1
f 181/47/1 182/37/1 183/40/1 184/48/1
f 185/46/1 186/47/1 187/48/1 188/49/1
f 189/47/1 190/37/1 191/40/1 192/48/1
f 193/50/1 194/51/1 195/47/1 196/46/1
f 197/51/1 198/43/1 199/37/1 200/47/1
f 201/50/1 202/51/1 203/47/1 204/46/1
f 205/51/1 206/43/1 207/37/1 208/47/1

