# Tiled2Unity generated file. Do not modify by hand.
# Wavefront file for 'SalleS-SF_mesh_0003.obj'

# Vertices (Count = 56)
v -1464 -1008 0
v -1488 -1008 0
v -1488 -984 0
v -1464 -984 0
v -1488 -1008 0
v -1512 -1008 0
v -1512 -984 0
v -1488 -984 0
v -1728 -1008 0
v -1752 -1008 0
v -1752 -984 0
v -1728 -984 0
v -1752 -1008 0
v -1776 -1008 0
v -1776 -984 0
v -1752 -984 0
v -1728 -1032 0
v -1752 -1032 0
v -1752 -1008 0
v -1728 -1008 0
v -1752 -1032 0
v -1776 -1032 0
v -1776 -1008 0
v -1752 -1008 0
v -1416 -1392 0
v -1440 -1392 0
v -1440 -1368 0
v -1416 -1368 0
v -1440 -1392 0
v -1464 -1392 0
v -1464 -1368 0
v -1440 -1368 0
v -1800 -1392 0
v -1824 -1392 0
v -1824 -1368 0
v -1800 -1368 0
v -1824 -1392 0
v -1848 -1392 0
v -1848 -1368 0
v -1824 -1368 0
v -1416 -1416 0
v -1440 -1416 0
v -1440 -1392 0
v -1416 -1392 0
v -1440 -1416 0
v -1464 -1416 0
v -1464 -1392 0
v -1440 -1392 0
v -1800 -1416 0
v -1824 -1416 0
v -1824 -1392 0
v -1800 -1392 0
v -1824 -1416 0
v -1848 -1416 0
v -1848 -1392 0
v -1824 -1392 0

# Texture cooridinates (Count = 24)
vt 0.625 0.5625
vt 0.65625 0.5625
vt 0.65625 0.59375
vt 0.625 0.59375
vt 0.6875 0.5625
vt 0.6875 0.59375
vt 0.75 0.71875
vt 0.78125 0.71875
vt 0.78125 0.75
vt 0.75 0.75
vt 0.8125 0.71875
vt 0.8125 0.75
vt 0.75 0.6875
vt 0.78125 0.6875
vt 0.8125 0.6875
vt 0.5 0.53125
vt 0.53125 0.53125
vt 0.53125 0.5625
vt 0.5 0.5625
vt 0.5625 0.53125
vt 0.5625 0.5625
vt 0.5 0.5
vt 0.53125 0.5
vt 0.5625 0.5

# Normal
vn 0 0 -1

# Mesh description
g SalleS-SF_mesh_0003

# Faces
f 1/1/1 2/2/1 3/3/1 4/4/1
f 5/2/1 6/5/1 7/6/1 8/3/1
f 9/7/1 10/8/1 11/9/1 12/10/1
f 13/8/1 14/11/1 15/12/1 16/9/1
f 17/13/1 18/14/1 19/8/1 20/7/1
f 21/14/1 22/15/1 23/11/1 24/8/1
f 25/7/1 26/8/1 27/9/1 28/10/1
f 29/8/1 30/11/1 31/12/1 32/9/1
f 33/16/1 34/17/1 35/18/1 36/19/1
f 37/17/1 38/20/1 39/21/1 40/18/1
f 41/13/1 42/14/1 43/8/1 44/7/1
f 45/14/1 46/15/1 47/11/1 48/8/1
f 49/22/1 50/23/1 51/17/1 52/16/1
f 53/23/1 54/24/1 55/20/1 56/17/1

