# Tiled2Unity generated file. Do not modify by hand.
# Wavefront file for 'SalleS-SF_mesh_0002.obj'

# Vertices (Count = 16)
v -1680 -1368 0
v -1704 -1368 0
v -1704 -1344 0
v -1680 -1344 0
v -1680 -1392 0
v -1704 -1392 0
v -1704 -1368 0
v -1680 -1368 0
v -1680 -1416 0
v -1704 -1416 0
v -1704 -1392 0
v -1680 -1392 0
v -1680 -1440 0
v -1704 -1440 0
v -1704 -1416 0
v -1680 -1416 0

# Texture cooridinates (Count = 10)
vt 0.125 0.8333333
vt 0.15625 0.8333333
vt 0.15625 0.8666667
vt 0.125 0.8666667
vt 0.15625 0.9
vt 0.125 0.9
vt 0.125 0.9333333
vt 0.15625 0.9333333
vt 0.15625 0.9666666
vt 0.125 0.9666666

# Normal
vn 0 0 -1

# Mesh description
g SalleS-SF_mesh_0002

# Faces
f 1/1/1 2/2/1 3/3/1 4/4/1
f 5/1/1 6/2/1 7/3/1 8/4/1
f 9/4/1 10/3/1 11/5/1 12/6/1
f 13/7/1 14/8/1 15/9/1 16/10/1

