# Tiled2Unity generated file. Do not modify by hand.
# Wavefront file for 'SalleNW-Occulte_mesh_0004.obj'

# Vertices (Count = 96)
v -1464 -1008 0
v -1488 -1008 0
v -1488 -984 0
v -1464 -984 0
v -1488 -1008 0
v -1512 -1008 0
v -1512 -984 0
v -1488 -984 0
v -1512 -1008 0
v -1536 -1008 0
v -1536 -984 0
v -1512 -984 0
v -1536 -1008 0
v -1560 -1008 0
v -1560 -984 0
v -1536 -984 0
v -1560 -1008 0
v -1584 -1008 0
v -1584 -984 0
v -1560 -984 0
v -1584 -1008 0
v -1608 -1008 0
v -1608 -984 0
v -1584 -984 0
v -1704 -1008 0
v -1728 -1008 0
v -1728 -984 0
v -1704 -984 0
v -1728 -1008 0
v -1752 -1008 0
v -1752 -984 0
v -1728 -984 0
v -1752 -1008 0
v -1776 -1008 0
v -1776 -984 0
v -1752 -984 0
v -1776 -1008 0
v -1800 -1008 0
v -1800 -984 0
v -1776 -984 0
v -1800 -1008 0
v -1824 -1008 0
v -1824 -984 0
v -1800 -984 0
v -1824 -1008 0
v -1848 -1008 0
v -1848 -984 0
v -1824 -984 0
v -1464 -1032 0
v -1488 -1032 0
v -1488 -1008 0
v -1464 -1008 0
v -1488 -1032 0
v -1512 -1032 0
v -1512 -1008 0
v -1488 -1008 0
v -1512 -1032 0
v -1536 -1032 0
v -1536 -1008 0
v -1512 -1008 0
v -1536 -1032 0
v -1560 -1032 0
v -1560 -1008 0
v -1536 -1008 0
v -1560 -1032 0
v -1584 -1032 0
v -1584 -1008 0
v -1560 -1008 0
v -1584 -1032 0
v -1608 -1032 0
v -1608 -1008 0
v -1584 -1008 0
v -1704 -1032 0
v -1728 -1032 0
v -1728 -1008 0
v -1704 -1008 0
v -1728 -1032 0
v -1752 -1032 0
v -1752 -1008 0
v -1728 -1008 0
v -1752 -1032 0
v -1776 -1032 0
v -1776 -1008 0
v -1752 -1008 0
v -1776 -1032 0
v -1800 -1032 0
v -1800 -1008 0
v -1776 -1008 0
v -1800 -1032 0
v -1824 -1032 0
v -1824 -1008 0
v -1800 -1008 0
v -1824 -1032 0
v -1848 -1032 0
v -1848 -1008 0
v -1824 -1008 0

# Texture cooridinates (Count = 35)
vt 0.6875 0.96875
vt 0.71875 0.96875
vt 0.71875 1
vt 0.6875 1
vt 0.75 0.96875
vt 0.75 1
vt 0.78125 0.96875
vt 0.78125 1
vt 0.8125 0.96875
vt 0.8125 1
vt 0.84375 0.96875
vt 0.84375 1
vt 0.875 0.96875
vt 0.875 1
vt 0.6875 0.90625
vt 0.71875 0.90625
vt 0.71875 0.9375
vt 0.6875 0.9375
vt 0.75 0.90625
vt 0.75 0.9375
vt 0.78125 0.90625
vt 0.78125 0.9375
vt 0.8125 0.90625
vt 0.8125 0.9375
vt 0.84375 0.90625
vt 0.84375 0.9375
vt 0.875 0.90625
vt 0.875 0.9375
vt 0.6875 0.875
vt 0.71875 0.875
vt 0.75 0.875
vt 0.78125 0.875
vt 0.8125 0.875
vt 0.84375 0.875
vt 0.875 0.875

# Normal
vn 0 0 -1

# Mesh description
g SalleNW-Occulte_mesh_0004

# Faces
f 1/1/1 2/2/1 3/3/1 4/4/1
f 5/2/1 6/5/1 7/6/1 8/3/1
f 9/5/1 10/7/1 11/8/1 12/6/1
f 13/7/1 14/9/1 15/10/1 16/8/1
f 17/9/1 18/11/1 19/12/1 20/10/1
f 21/11/1 22/13/1 23/14/1 24/12/1
f 25/15/1 26/16/1 27/17/1 28/18/1
f 29/16/1 30/19/1 31/20/1 32/17/1
f 33/19/1 34/21/1 35/22/1 36/20/1
f 37/21/1 38/23/1 39/24/1 40/22/1
f 41/23/1 42/25/1 43/26/1 44/24/1
f 45/25/1 46/27/1 47/28/1 48/26/1
f 49/18/1 50/17/1 51/2/1 52/1/1
f 53/17/1 54/20/1 55/5/1 56/2/1
f 57/20/1 58/22/1 59/7/1 60/5/1
f 61/22/1 62/24/1 63/9/1 64/7/1
f 65/24/1 66/26/1 67/11/1 68/9/1
f 69/26/1 70/28/1 71/13/1 72/11/1
f 73/29/1 74/30/1 75/16/1 76/15/1
f 77/30/1 78/31/1 79/19/1 80/16/1
f 81/31/1 82/32/1 83/21/1 84/19/1
f 85/32/1 86/33/1 87/23/1 88/21/1
f 89/33/1 90/34/1 91/25/1 92/23/1
f 93/34/1 94/35/1 95/27/1 96/25/1

