# Tiled2Unity generated file. Do not modify by hand.
# Wavefront file for 'SalleNW-Occulte_mesh_0008.obj'

# Vertices (Count = 96)
v -1728 -1080 0
v -1752 -1080 0
v -1752 -1056 0
v -1728 -1056 0
v -1752 -1080 0
v -1776 -1080 0
v -1776 -1056 0
v -1752 -1056 0
v -1728 -1104 0
v -1752 -1104 0
v -1752 -1080 0
v -1728 -1080 0
v -1752 -1104 0
v -1776 -1104 0
v -1776 -1080 0
v -1752 -1080 0
v -1632 -1128 0
v -1656 -1128 0
v -1656 -1104 0
v -1632 -1104 0
v -1656 -1128 0
v -1680 -1128 0
v -1680 -1104 0
v -1656 -1104 0
v -1632 -1152 0
v -1656 -1152 0
v -1656 -1128 0
v -1632 -1128 0
v -1656 -1152 0
v -1680 -1152 0
v -1680 -1128 0
v -1656 -1128 0
v -1536 -1176 0
v -1560 -1176 0
v -1560 -1152 0
v -1536 -1152 0
v -1560 -1176 0
v -1584 -1176 0
v -1584 -1152 0
v -1560 -1152 0
v -1416 -1200 0
v -1440 -1200 0
v -1440 -1176 0
v -1416 -1176 0
v -1440 -1200 0
v -1464 -1200 0
v -1464 -1176 0
v -1440 -1176 0
v -1536 -1200 0
v -1560 -1200 0
v -1560 -1176 0
v -1536 -1176 0
v -1560 -1200 0
v -1584 -1200 0
v -1584 -1176 0
v -1560 -1176 0
v -1680 -1200 0
v -1704 -1200 0
v -1704 -1176 0
v -1680 -1176 0
v -1704 -1200 0
v -1728 -1200 0
v -1728 -1176 0
v -1704 -1176 0
v -1416 -1224 0
v -1440 -1224 0
v -1440 -1200 0
v -1416 -1200 0
v -1440 -1224 0
v -1464 -1224 0
v -1464 -1200 0
v -1440 -1200 0
v -1680 -1224 0
v -1704 -1224 0
v -1704 -1200 0
v -1680 -1200 0
v -1704 -1224 0
v -1728 -1224 0
v -1728 -1200 0
v -1704 -1200 0
v -1464 -1296 0
v -1488 -1296 0
v -1488 -1272 0
v -1464 -1272 0
v -1488 -1296 0
v -1512 -1296 0
v -1512 -1272 0
v -1488 -1272 0
v -1464 -1320 0
v -1488 -1320 0
v -1488 -1296 0
v -1464 -1296 0
v -1488 -1320 0
v -1512 -1320 0
v -1512 -1296 0
v -1488 -1296 0

# Texture cooridinates (Count = 9)
vt 0.75 0.9583333
vt 0.78125 0.9583333
vt 0.78125 1
vt 0.75 1
vt 0.8125 0.9583333
vt 0.8125 1
vt 0.75 0.9166667
vt 0.78125 0.9166667
vt 0.8125 0.9166667

# Normal
vn 0 0 -1

# Mesh description
g SalleNW-Occulte_mesh_0008

# Faces
f 1/1/1 2/2/1 3/3/1 4/4/1
f 5/2/1 6/5/1 7/6/1 8/3/1
f 9/7/1 10/8/1 11/2/1 12/1/1
f 13/8/1 14/9/1 15/5/1 16/2/1
f 17/1/1 18/2/1 19/3/1 20/4/1
f 21/2/1 22/5/1 23/6/1 24/3/1
f 25/7/1 26/8/1 27/2/1 28/1/1
f 29/8/1 30/9/1 31/5/1 32/2/1
f 33/1/1 34/2/1 35/3/1 36/4/1
f 37/2/1 38/5/1 39/6/1 40/3/1
f 41/1/1 42/2/1 43/3/1 44/4/1
f 45/2/1 46/5/1 47/6/1 48/3/1
f 49/7/1 50/8/1 51/2/1 52/1/1
f 53/8/1 54/9/1 55/5/1 56/2/1
f 57/1/1 58/2/1 59/3/1 60/4/1
f 61/2/1 62/5/1 63/6/1 64/3/1
f 65/7/1 66/8/1 67/2/1 68/1/1
f 69/8/1 70/9/1 71/5/1 72/2/1
f 73/7/1 74/8/1 75/2/1 76/1/1
f 77/8/1 78/9/1 79/5/1 80/2/1
f 81/1/1 82/2/1 83/3/1 84/4/1
f 85/2/1 86/5/1 87/6/1 88/3/1
f 89/7/1 90/8/1 91/2/1 92/1/1
f 93/8/1 94/9/1 95/5/1 96/2/1

