# Tiled2Unity generated file. Do not modify by hand.
# Wavefront file for 'salleAlise_mesh_0005.obj'

# Vertices (Count = 128)
v -44 -77 0
v -45 -77 0
v -45 -76 0
v -44 -76 0
v -45 -77 0
v -46 -77 0
v -46 -76 0
v -45 -76 0
v -46 -77 0
v -47 -77 0
v -47 -76 0
v -46 -76 0
v -47 -77 0
v -48 -77 0
v -48 -76 0
v -47 -76 0
v -44 -78 0
v -45 -78 0
v -45 -77 0
v -44 -77 0
v -45 -78 0
v -46 -78 0
v -46 -77 0
v -45 -77 0
v -46 -78 0
v -47 -78 0
v -47 -77 0
v -46 -77 0
v -47 -78 0
v -48 -78 0
v -48 -77 0
v -47 -77 0
v -26 -79 0
v -27 -79 0
v -27 -78 0
v -26 -78 0
v -27 -79 0
v -28 -79 0
v -28 -78 0
v -27 -78 0
v -66 -79 0
v -67 -79 0
v -67 -78 0
v -66 -78 0
v -67 -79 0
v -68 -79 0
v -68 -78 0
v -67 -78 0
v -26 -80 0
v -27 -80 0
v -27 -79 0
v -26 -79 0
v -27 -80 0
v -28 -80 0
v -28 -79 0
v -27 -79 0
v -66 -80 0
v -67 -80 0
v -67 -79 0
v -66 -79 0
v -67 -80 0
v -68 -80 0
v -68 -79 0
v -67 -79 0
v -26 -81 0
v -27 -81 0
v -27 -80 0
v -26 -80 0
v -27 -81 0
v -28 -81 0
v -28 -80 0
v -27 -80 0
v -62 -81 0
v -63 -81 0
v -63 -80 0
v -62 -80 0
v -63 -81 0
v -64 -81 0
v -64 -80 0
v -63 -80 0
v -64 -81 0
v -65 -81 0
v -65 -80 0
v -64 -80 0
v -65 -81 0
v -66 -81 0
v -66 -80 0
v -65 -80 0
v -66 -81 0
v -67 -81 0
v -67 -80 0
v -66 -80 0
v -67 -81 0
v -68 -81 0
v -68 -80 0
v -67 -80 0
v -26 -82 0
v -27 -82 0
v -27 -81 0
v -26 -81 0
v -27 -82 0
v -28 -82 0
v -28 -81 0
v -27 -81 0
v -62 -82 0
v -63 -82 0
v -63 -81 0
v -62 -81 0
v -63 -82 0
v -64 -82 0
v -64 -81 0
v -63 -81 0
v -64 -82 0
v -65 -82 0
v -65 -81 0
v -64 -81 0
v -65 -82 0
v -66 -82 0
v -66 -81 0
v -65 -81 0
v -66 -82 0
v -67 -82 0
v -67 -81 0
v -66 -81 0
v -67 -82 0
v -68 -82 0
v -68 -81 0
v -67 -81 0

# Texture cooridinates (Count = 44)
vt 0.8125 0.65625
vt 0.84375 0.65625
vt 0.84375 0.6875
vt 0.8125 0.6875
vt 0.875 0.65625
vt 0.875 0.6875
vt 0.90625 0.65625
vt 0.90625 0.6875
vt 0.9375 0.65625
vt 0.9375 0.6875
vt 0.8125 0.625
vt 0.84375 0.625
vt 0.875 0.625
vt 0.90625 0.625
vt 0.9375 0.625
vt 0.75 0.59375
vt 0.78125 0.59375
vt 0.78125 0.625
vt 0.75 0.625
vt 0.8125 0.59375
vt 0.75 0.5625
vt 0.78125 0.5625
vt 0.8125 0.5625
vt 0.75 0.53125
vt 0.78125 0.53125
vt 0.8125 0.53125
vt 0.6875 0.09375
vt 0.71875 0.09375
vt 0.71875 0.125
vt 0.6875 0.125
vt 0.75 0.09375
vt 0.75 0.125
vt 0.78125 0.09375
vt 0.78125 0.125
vt 0.8125 0.09375
vt 0.8125 0.125
vt 0.75 0.5
vt 0.78125 0.5
vt 0.8125 0.5
vt 0.6875 0.0625
vt 0.71875 0.0625
vt 0.75 0.0625
vt 0.78125 0.0625
vt 0.8125 0.0625

# Normal
vn 0 0 -1

# Mesh description
g salleAlise_mesh_0005

# Faces
f 1/1/1 2/2/1 3/3/1 4/4/1
f 5/2/1 6/5/1 7/6/1 8/3/1
f 9/5/1 10/7/1 11/8/1 12/6/1
f 13/7/1 14/9/1 15/10/1 16/8/1
f 17/11/1 18/12/1 19/2/1 20/1/1
f 21/12/1 22/13/1 23/5/1 24/2/1
f 25/13/1 26/14/1 27/7/1 28/5/1
f 29/14/1 30/15/1 31/9/1 32/7/1
f 33/16/1 34/17/1 35/18/1 36/19/1
f 37/17/1 38/20/1 39/11/1 40/18/1
f 41/16/1 42/17/1 43/18/1 44/19/1
f 45/17/1 46/20/1 47/11/1 48/18/1
f 49/21/1 50/22/1 51/17/1 52/16/1
f 53/22/1 54/23/1 55/20/1 56/17/1
f 57/21/1 58/22/1 59/17/1 60/16/1
f 61/22/1 62/23/1 63/20/1 64/17/1
f 65/24/1 66/25/1 67/22/1 68/21/1
f 69/25/1 70/26/1 71/23/1 72/22/1
f 73/27/1 74/28/1 75/29/1 76/30/1
f 77/28/1 78/31/1 79/32/1 80/29/1
f 81/31/1 82/33/1 83/34/1 84/32/1
f 85/33/1 86/35/1 87/36/1 88/34/1
f 89/24/1 90/25/1 91/22/1 92/21/1
f 93/25/1 94/26/1 95/23/1 96/22/1
f 97/37/1 98/38/1 99/25/1 100/24/1
f 101/38/1 102/39/1 103/26/1 104/25/1
f 105/40/1 106/41/1 107/28/1 108/27/1
f 109/41/1 110/42/1 111/31/1 112/28/1
f 113/42/1 114/43/1 115/33/1 116/31/1
f 117/43/1 118/44/1 119/35/1 120/33/1
f 121/37/1 122/38/1 123/25/1 124/24/1
f 125/38/1 126/39/1 127/26/1 128/25/1

