# Tiled2Unity generated file. Do not modify by hand.
# Wavefront file for 'salleAlise_mesh_0010.obj'

# Vertices (Count = 160)
v -26 -90 0
v -27 -90 0
v -27 -89 0
v -26 -89 0
v -27 -90 0
v -28 -90 0
v -28 -89 0
v -27 -89 0
v -28 -90 0
v -29 -90 0
v -29 -89 0
v -28 -89 0
v -29 -90 0
v -30 -90 0
v -30 -89 0
v -29 -89 0
v -30 -90 0
v -31 -90 0
v -31 -89 0
v -30 -89 0
v -31 -90 0
v -32 -90 0
v -32 -89 0
v -31 -89 0
v -32 -90 0
v -33 -90 0
v -33 -89 0
v -32 -89 0
v -33 -90 0
v -34 -90 0
v -34 -89 0
v -33 -89 0
v -34 -90 0
v -35 -90 0
v -35 -89 0
v -34 -89 0
v -35 -90 0
v -36 -90 0
v -36 -89 0
v -35 -89 0
v -36 -90 0
v -37 -90 0
v -37 -89 0
v -36 -89 0
v -37 -90 0
v -38 -90 0
v -38 -89 0
v -37 -89 0
v -38 -90 0
v -39 -90 0
v -39 -89 0
v -38 -89 0
v -39 -90 0
v -40 -90 0
v -40 -89 0
v -39 -89 0
v -40 -90 0
v -41 -90 0
v -41 -89 0
v -40 -89 0
v -41 -90 0
v -42 -90 0
v -42 -89 0
v -41 -89 0
v -42 -90 0
v -43 -90 0
v -43 -89 0
v -42 -89 0
v -43 -90 0
v -44 -90 0
v -44 -89 0
v -43 -89 0
v -48 -90 0
v -49 -90 0
v -49 -89 0
v -48 -89 0
v -49 -90 0
v -50 -90 0
v -50 -89 0
v -49 -89 0
v -26 -91 0
v -27 -91 0
v -27 -90 0
v -26 -90 0
v -27 -91 0
v -28 -91 0
v -28 -90 0
v -27 -90 0
v -28 -91 0
v -29 -91 0
v -29 -90 0
v -28 -90 0
v -29 -91 0
v -30 -91 0
v -30 -90 0
v -29 -90 0
v -30 -91 0
v -31 -91 0
v -31 -90 0
v -30 -90 0
v -31 -91 0
v -32 -91 0
v -32 -90 0
v -31 -90 0
v -32 -91 0
v -33 -91 0
v -33 -90 0
v -32 -90 0
v -33 -91 0
v -34 -91 0
v -34 -90 0
v -33 -90 0
v -34 -91 0
v -35 -91 0
v -35 -90 0
v -34 -90 0
v -35 -91 0
v -36 -91 0
v -36 -90 0
v -35 -90 0
v -36 -91 0
v -37 -91 0
v -37 -90 0
v -36 -90 0
v -37 -91 0
v -38 -91 0
v -38 -90 0
v -37 -90 0
v -38 -91 0
v -39 -91 0
v -39 -90 0
v -38 -90 0
v -39 -91 0
v -40 -91 0
v -40 -90 0
v -39 -90 0
v -40 -91 0
v -41 -91 0
v -41 -90 0
v -40 -90 0
v -41 -91 0
v -42 -91 0
v -42 -90 0
v -41 -90 0
v -42 -91 0
v -43 -91 0
v -43 -90 0
v -42 -90 0
v -43 -91 0
v -44 -91 0
v -44 -90 0
v -43 -90 0
v -48 -91 0
v -49 -91 0
v -49 -90 0
v -48 -90 0
v -49 -91 0
v -50 -91 0
v -50 -90 0
v -49 -90 0

# Texture cooridinates (Count = 23)
vt 0.15625 0.9
vt 0.1875 0.9
vt 0.1875 0.9333333
vt 0.15625 0.9333333
vt 0.21875 0.9
vt 0.21875 0.9333333
vt 0.25 0.9
vt 0.25 0.9333333
vt 0.125 0.9
vt 0.125 0.9333333
vt 0.15625 0.8
vt 0.1875 0.8
vt 0.1875 0.8333333
vt 0.15625 0.8333333
vt 0.21875 0.8
vt 0.21875 0.8333333
vt 0.21875 0.9666666
vt 0.1875 0.9666666
vt 0.21875 0.8666667
vt 0.25 0.8666667
vt 0.125 0.8666667
vt 0.15625 0.8666667
vt 0.25 0.9666666

# Normal
vn 0 0 -1

# Mesh description
g salleAlise_mesh_0010

# Faces
f 1/1/1 2/2/1 3/3/1 4/4/1
f 5/2/1 6/5/1 7/6/1 8/3/1
f 9/1/1 10/2/1 11/3/1 12/4/1
f 13/2/1 14/5/1 15/6/1 16/3/1
f 17/1/1 18/2/1 19/3/1 20/4/1
f 21/2/1 22/5/1 23/6/1 24/3/1
f 25/1/1 26/2/1 27/3/1 28/4/1
f 29/2/1 30/5/1 31/6/1 32/3/1
f 33/1/1 34/2/1 35/3/1 36/4/1
f 37/2/1 38/5/1 39/6/1 40/3/1
f 41/1/1 42/2/1 43/3/1 44/4/1
f 45/2/1 46/5/1 47/6/1 48/3/1
f 49/1/1 50/2/1 51/3/1 52/4/1
f 53/2/1 54/5/1 55/6/1 56/3/1
f 57/1/1 58/2/1 59/3/1 60/4/1
f 61/2/1 62/5/1 63/6/1 64/3/1
f 65/2/1 66/5/1 67/6/1 68/3/1
f 69/5/1 70/7/1 71/8/1 72/6/1
f 73/9/1 74/1/1 75/4/1 76/10/1
f 77/1/1 78/2/1 79/3/1 80/4/1
f 81/11/1 82/12/1 83/13/1 84/14/1
f 85/12/1 86/15/1 87/16/1 88/13/1
f 89/11/1 90/12/1 91/13/1 92/14/1
f 93/12/1 94/15/1 95/16/1 96/13/1
f 97/11/1 98/12/1 99/13/1 100/14/1
f 101/12/1 102/15/1 103/16/1 104/13/1
f 105/11/1 106/12/1 107/13/1 108/14/1
f 109/12/1 110/15/1 111/16/1 112/13/1
f 113/11/1 114/12/1 115/13/1 116/14/1
f 117/12/1 118/15/1 119/16/1 120/13/1
f 121/11/1 122/12/1 123/13/1 124/14/1
f 125/12/1 126/15/1 127/16/1 128/13/1
f 129/11/1 130/12/1 131/13/1 132/14/1
f 133/12/1 134/15/1 135/16/1 136/13/1
f 137/11/1 138/12/1 139/13/1 140/14/1
f 141/12/1 142/15/1 143/16/1 144/13/1
f 145/3/1 146/6/1 147/17/1 148/18/1
f 149/19/1 150/20/1 151/7/1 152/5/1
f 153/21/1 154/22/1 155/1/1 156/9/1
f 157/6/1 158/8/1 159/23/1 160/17/1

