# Tiled2Unity generated file. Do not modify by hand.
# Wavefront file for 'salleAlise_mesh_0001.obj'

# Vertices (Count = 576)
v -32 -68 0
v -33 -68 0
v -33 -67 0
v -32 -67 0
v -33 -68 0
v -34 -68 0
v -34 -67 0
v -33 -67 0
v -34 -68 0
v -35 -68 0
v -35 -67 0
v -34 -67 0
v -35 -68 0
v -36 -68 0
v -36 -67 0
v -35 -67 0
v -36 -68 0
v -37 -68 0
v -37 -67 0
v -36 -67 0
v -37 -68 0
v -38 -68 0
v -38 -67 0
v -37 -67 0
v -38 -68 0
v -39 -68 0
v -39 -67 0
v -38 -67 0
v -39 -68 0
v -40 -68 0
v -40 -67 0
v -39 -67 0
v -40 -68 0
v -41 -68 0
v -41 -67 0
v -40 -67 0
v -41 -68 0
v -42 -68 0
v -42 -67 0
v -41 -67 0
v -42 -68 0
v -43 -68 0
v -43 -67 0
v -42 -67 0
v -43 -68 0
v -44 -68 0
v -44 -67 0
v -43 -67 0
v -44 -68 0
v -45 -68 0
v -45 -67 0
v -44 -67 0
v -45 -68 0
v -46 -68 0
v -46 -67 0
v -45 -67 0
v -46 -68 0
v -47 -68 0
v -47 -67 0
v -46 -67 0
v -47 -68 0
v -48 -68 0
v -48 -67 0
v -47 -67 0
v -48 -68 0
v -49 -68 0
v -49 -67 0
v -48 -67 0
v -49 -68 0
v -50 -68 0
v -50 -67 0
v -49 -67 0
v -50 -68 0
v -51 -68 0
v -51 -67 0
v -50 -67 0
v -51 -68 0
v -52 -68 0
v -52 -67 0
v -51 -67 0
v -52 -68 0
v -53 -68 0
v -53 -67 0
v -52 -67 0
v -53 -68 0
v -54 -68 0
v -54 -67 0
v -53 -67 0
v -54 -68 0
v -55 -68 0
v -55 -67 0
v -54 -67 0
v -55 -68 0
v -56 -68 0
v -56 -67 0
v -55 -67 0
v -56 -68 0
v -57 -68 0
v -57 -67 0
v -56 -67 0
v -57 -68 0
v -58 -68 0
v -58 -67 0
v -57 -67 0
v -58 -68 0
v -59 -68 0
v -59 -67 0
v -58 -67 0
v -59 -68 0
v -60 -68 0
v -60 -67 0
v -59 -67 0
v -60 -68 0
v -61 -68 0
v -61 -67 0
v -60 -67 0
v -61 -68 0
v -62 -68 0
v -62 -67 0
v -61 -67 0
v -32 -69 0
v -33 -69 0
v -33 -68 0
v -32 -68 0
v -33 -69 0
v -34 -69 0
v -34 -68 0
v -33 -68 0
v -34 -69 0
v -35 -69 0
v -35 -68 0
v -34 -68 0
v -35 -69 0
v -36 -69 0
v -36 -68 0
v -35 -68 0
v -36 -69 0
v -37 -69 0
v -37 -68 0
v -36 -68 0
v -37 -69 0
v -38 -69 0
v -38 -68 0
v -37 -68 0
v -38 -69 0
v -39 -69 0
v -39 -68 0
v -38 -68 0
v -39 -69 0
v -40 -69 0
v -40 -68 0
v -39 -68 0
v -40 -69 0
v -41 -69 0
v -41 -68 0
v -40 -68 0
v -41 -69 0
v -42 -69 0
v -42 -68 0
v -41 -68 0
v -42 -69 0
v -43 -69 0
v -43 -68 0
v -42 -68 0
v -43 -69 0
v -44 -69 0
v -44 -68 0
v -43 -68 0
v -44 -69 0
v -45 -69 0
v -45 -68 0
v -44 -68 0
v -45 -69 0
v -46 -69 0
v -46 -68 0
v -45 -68 0
v -46 -69 0
v -47 -69 0
v -47 -68 0
v -46 -68 0
v -47 -69 0
v -48 -69 0
v -48 -68 0
v -47 -68 0
v -48 -69 0
v -49 -69 0
v -49 -68 0
v -48 -68 0
v -49 -69 0
v -50 -69 0
v -50 -68 0
v -49 -68 0
v -50 -69 0
v -51 -69 0
v -51 -68 0
v -50 -68 0
v -51 -69 0
v -52 -69 0
v -52 -68 0
v -51 -68 0
v -52 -69 0
v -53 -69 0
v -53 -68 0
v -52 -68 0
v -53 -69 0
v -54 -69 0
v -54 -68 0
v -53 -68 0
v -54 -69 0
v -55 -69 0
v -55 -68 0
v -54 -68 0
v -55 -69 0
v -56 -69 0
v -56 -68 0
v -55 -68 0
v -56 -69 0
v -57 -69 0
v -57 -68 0
v -56 -68 0
v -57 -69 0
v -58 -69 0
v -58 -68 0
v -57 -68 0
v -58 -69 0
v -59 -69 0
v -59 -68 0
v -58 -68 0
v -59 -69 0
v -60 -69 0
v -60 -68 0
v -59 -68 0
v -60 -69 0
v -61 -69 0
v -61 -68 0
v -60 -68 0
v -61 -69 0
v -62 -69 0
v -62 -68 0
v -61 -68 0
v -32 -70 0
v -33 -70 0
v -33 -69 0
v -32 -69 0
v -33 -70 0
v -34 -70 0
v -34 -69 0
v -33 -69 0
v -60 -70 0
v -61 -70 0
v -61 -69 0
v -60 -69 0
v -61 -70 0
v -62 -70 0
v -62 -69 0
v -61 -69 0
v -32 -71 0
v -33 -71 0
v -33 -70 0
v -32 -70 0
v -33 -71 0
v -34 -71 0
v -34 -70 0
v -33 -70 0
v -60 -71 0
v -61 -71 0
v -61 -70 0
v -60 -70 0
v -61 -71 0
v -62 -71 0
v -62 -70 0
v -61 -70 0
v -32 -72 0
v -33 -72 0
v -33 -71 0
v -32 -71 0
v -33 -72 0
v -34 -72 0
v -34 -71 0
v -33 -71 0
v -60 -72 0
v -61 -72 0
v -61 -71 0
v -60 -71 0
v -61 -72 0
v -62 -72 0
v -62 -71 0
v -61 -71 0
v -32 -73 0
v -33 -73 0
v -33 -72 0
v -32 -72 0
v -33 -73 0
v -34 -73 0
v -34 -72 0
v -33 -72 0
v -60 -73 0
v -61 -73 0
v -61 -72 0
v -60 -72 0
v -61 -73 0
v -62 -73 0
v -62 -72 0
v -61 -72 0
v -26 -74 0
v -27 -74 0
v -27 -73 0
v -26 -73 0
v -27 -74 0
v -28 -74 0
v -28 -73 0
v -27 -73 0
v -28 -74 0
v -29 -74 0
v -29 -73 0
v -28 -73 0
v -29 -74 0
v -30 -74 0
v -30 -73 0
v -29 -73 0
v -30 -74 0
v -31 -74 0
v -31 -73 0
v -30 -73 0
v -31 -74 0
v -32 -74 0
v -32 -73 0
v -31 -73 0
v -32 -74 0
v -33 -74 0
v -33 -73 0
v -32 -73 0
v -33 -74 0
v -34 -74 0
v -34 -73 0
v -33 -73 0
v -60 -74 0
v -61 -74 0
v -61 -73 0
v -60 -73 0
v -61 -74 0
v -62 -74 0
v -62 -73 0
v -61 -73 0
v -62 -74 0
v -63 -74 0
v -63 -73 0
v -62 -73 0
v -63 -74 0
v -64 -74 0
v -64 -73 0
v -63 -73 0
v -64 -74 0
v -65 -74 0
v -65 -73 0
v -64 -73 0
v -65 -74 0
v -66 -74 0
v -66 -73 0
v -65 -73 0
v -66 -74 0
v -67 -74 0
v -67 -73 0
v -66 -73 0
v -67 -74 0
v -68 -74 0
v -68 -73 0
v -67 -73 0
v -68 -74 0
v -69 -74 0
v -69 -73 0
v -68 -73 0
v -69 -74 0
v -70 -74 0
v -70 -73 0
v -69 -73 0
v -26 -75 0
v -27 -75 0
v -27 -74 0
v -26 -74 0
v -27 -75 0
v -28 -75 0
v -28 -74 0
v -27 -74 0
v -28 -75 0
v -29 -75 0
v -29 -74 0
v -28 -74 0
v -29 -75 0
v -30 -75 0
v -30 -74 0
v -29 -74 0
v -30 -75 0
v -31 -75 0
v -31 -74 0
v -30 -74 0
v -31 -75 0
v -32 -75 0
v -32 -74 0
v -31 -74 0
v -32 -75 0
v -33 -75 0
v -33 -74 0
v -32 -74 0
v -33 -75 0
v -34 -75 0
v -34 -74 0
v -33 -74 0
v -60 -75 0
v -61 -75 0
v -61 -74 0
v -60 -74 0
v -61 -75 0
v -62 -75 0
v -62 -74 0
v -61 -74 0
v -62 -75 0
v -63 -75 0
v -63 -74 0
v -62 -74 0
v -63 -75 0
v -64 -75 0
v -64 -74 0
v -63 -74 0
v -64 -75 0
v -65 -75 0
v -65 -74 0
v -64 -74 0
v -65 -75 0
v -66 -75 0
v -66 -74 0
v -65 -74 0
v -66 -75 0
v -67 -75 0
v -67 -74 0
v -66 -74 0
v -67 -75 0
v -68 -75 0
v -68 -74 0
v -67 -74 0
v -68 -75 0
v -69 -75 0
v -69 -74 0
v -68 -74 0
v -69 -75 0
v -70 -75 0
v -70 -74 0
v -69 -74 0
v -68 -76 0
v -69 -76 0
v -69 -75 0
v -68 -75 0
v -69 -76 0
v -70 -76 0
v -70 -75 0
v -69 -75 0
v -68 -77 0
v -69 -77 0
v -69 -76 0
v -68 -76 0
v -69 -77 0
v -70 -77 0
v -70 -76 0
v -69 -76 0
v -68 -78 0
v -69 -78 0
v -69 -77 0
v -68 -77 0
v -69 -78 0
v -70 -78 0
v -70 -77 0
v -69 -77 0
v -68 -79 0
v -69 -79 0
v -69 -78 0
v -68 -78 0
v -69 -79 0
v -70 -79 0
v -70 -78 0
v -69 -78 0
v -68 -80 0
v -69 -80 0
v -69 -79 0
v -68 -79 0
v -69 -80 0
v -70 -80 0
v -70 -79 0
v -69 -79 0
v -68 -81 0
v -69 -81 0
v -69 -80 0
v -68 -80 0
v -69 -81 0
v -70 -81 0
v -70 -80 0
v -69 -80 0
v -68 -82 0
v -69 -82 0
v -69 -81 0
v -68 -81 0
v -69 -82 0
v -70 -82 0
v -70 -81 0
v -69 -81 0
v -68 -83 0
v -69 -83 0
v -69 -82 0
v -68 -82 0
v -69 -83 0
v -70 -83 0
v -70 -82 0
v -69 -82 0
v -68 -84 0
v -69 -84 0
v -69 -83 0
v -68 -83 0
v -69 -84 0
v -70 -84 0
v -70 -83 0
v -69 -83 0
v -68 -85 0
v -69 -85 0
v -69 -84 0
v -68 -84 0
v -69 -85 0
v -70 -85 0
v -70 -84 0
v -69 -84 0
v -68 -86 0
v -69 -86 0
v -69 -85 0
v -68 -85 0
v -69 -86 0
v -70 -86 0
v -70 -85 0
v -69 -85 0
v -68 -87 0
v -69 -87 0
v -69 -86 0
v -68 -86 0
v -69 -87 0
v -70 -87 0
v -70 -86 0
v -69 -86 0
v -68 -88 0
v -69 -88 0
v -69 -87 0
v -68 -87 0
v -69 -88 0
v -70 -88 0
v -70 -87 0
v -69 -87 0
v -68 -89 0
v -69 -89 0
v -69 -88 0
v -68 -88 0
v -69 -89 0
v -70 -89 0
v -70 -88 0
v -69 -88 0
v -68 -90 0
v -69 -90 0
v -69 -89 0
v -68 -89 0
v -69 -90 0
v -70 -90 0
v -70 -89 0
v -69 -89 0
v -68 -91 0
v -69 -91 0
v -69 -90 0
v -68 -90 0
v -69 -91 0
v -70 -91 0
v -70 -90 0
v -69 -90 0

# Texture cooridinates (Count = 33)
vt 0.125 0.9666666
vt 0.15625 0.9666666
vt 0.15625 1
vt 0.125 1
vt 0.15625 0.9
vt 0.1875 0.9
vt 0.1875 0.9333333
vt 0.15625 0.9333333
vt 0.21875 0.9
vt 0.21875 0.9333333
vt 0.25 0.9
vt 0.25 0.9333333
vt 0.125 0.8666667
vt 0.15625 0.8666667
vt 0.125 0.9
vt 0.25 0.9666666
vt 0.21875 0.9666666
vt 0.15625 0.8
vt 0.1875 0.8
vt 0.1875 0.8333333
vt 0.15625 0.8333333
vt 0.21875 0.8
vt 0.21875 0.8333333
vt 0.1875 0.9666666
vt 0.25 0.8333333
vt 0.25 0.8666667
vt 0.21875 0.8666667
vt 0.125 0.8333333
vt 0.21875 1
vt 0.1875 1
vt 0.25 1
vt 0.25 0.8
vt 0.125 0.8

# Normal
vn 0 0 -1

# Mesh description
g salleAlise_mesh_0001

# Faces
f 1/1/1 2/2/1 3/3/1 4/4/1
f 5/5/1 6/6/1 7/7/1 8/8/1
f 9/6/1 10/9/1 11/10/1 12/7/1
f 13/5/1 14/6/1 15/7/1 16/8/1
f 17/6/1 18/9/1 19/10/1 20/7/1
f 21/5/1 22/6/1 23/7/1 24/8/1
f 25/6/1 26/9/1 27/10/1 28/7/1
f 29/5/1 30/6/1 31/7/1 32/8/1
f 33/6/1 34/9/1 35/10/1 36/7/1
f 37/5/1 38/6/1 39/7/1 40/8/1
f 41/6/1 42/9/1 43/10/1 44/7/1
f 45/5/1 46/6/1 47/7/1 48/8/1
f 49/6/1 50/9/1 51/10/1 52/7/1
f 53/5/1 54/6/1 55/7/1 56/8/1
f 57/6/1 58/9/1 59/10/1 60/7/1
f 61/5/1 62/6/1 63/7/1 64/8/1
f 65/6/1 66/9/1 67/10/1 68/7/1
f 69/5/1 70/6/1 71/7/1 72/8/1
f 73/6/1 74/9/1 75/10/1 76/7/1
f 77/5/1 78/6/1 79/7/1 80/8/1
f 81/6/1 82/9/1 83/10/1 84/7/1
f 85/5/1 86/6/1 87/7/1 88/8/1
f 89/6/1 90/9/1 91/10/1 92/7/1
f 93/5/1 94/6/1 95/7/1 96/8/1
f 97/6/1 98/9/1 99/10/1 100/7/1
f 101/5/1 102/6/1 103/7/1 104/8/1
f 105/6/1 106/9/1 107/10/1 108/7/1
f 109/5/1 110/6/1 111/7/1 112/8/1
f 113/6/1 114/9/1 115/10/1 116/7/1
f 117/9/1 118/11/1 119/12/1 120/10/1
f 121/13/1 122/14/1 123/5/1 124/15/1
f 125/10/1 126/12/1 127/16/1 128/17/1
f 129/18/1 130/19/1 131/20/1 132/21/1
f 133/19/1 134/22/1 135/23/1 136/20/1
f 137/18/1 138/19/1 139/20/1 140/21/1
f 141/19/1 142/22/1 143/23/1 144/20/1
f 145/18/1 146/19/1 147/20/1 148/21/1
f 149/19/1 150/22/1 151/23/1 152/20/1
f 153/18/1 154/19/1 155/20/1 156/21/1
f 157/19/1 158/22/1 159/23/1 160/20/1
f 161/18/1 162/19/1 163/20/1 164/21/1
f 165/19/1 166/22/1 167/23/1 168/20/1
f 169/18/1 170/19/1 171/20/1 172/21/1
f 173/19/1 174/22/1 175/23/1 176/20/1
f 177/18/1 178/19/1 179/20/1 180/21/1
f 181/19/1 182/22/1 183/23/1 184/20/1
f 185/18/1 186/19/1 187/20/1 188/21/1
f 189/19/1 190/22/1 191/23/1 192/20/1
f 193/18/1 194/19/1 195/20/1 196/21/1
f 197/19/1 198/22/1 199/23/1 200/20/1
f 201/18/1 202/19/1 203/20/1 204/21/1
f 205/19/1 206/22/1 207/23/1 208/20/1
f 209/18/1 210/19/1 211/20/1 212/21/1
f 213/19/1 214/22/1 215/23/1 216/20/1
f 217/18/1 218/19/1 219/20/1 220/21/1
f 221/19/1 222/22/1 223/23/1 224/20/1
f 225/18/1 226/19/1 227/20/1 228/21/1
f 229/19/1 230/22/1 231/23/1 232/20/1
f 233/7/1 234/10/1 235/17/1 236/24/1
f 237/23/1 238/25/1 239/26/1 240/27/1
f 241/28/1 242/21/1 243/14/1 244/13/1
f 245/23/1 246/25/1 247/26/1 248/27/1
f 249/28/1 250/21/1 251/14/1 252/13/1
f 253/23/1 254/25/1 255/26/1 256/27/1
f 257/13/1 258/14/1 259/5/1 260/15/1
f 261/27/1 262/26/1 263/11/1 264/9/1
f 265/13/1 266/14/1 267/5/1 268/15/1
f 269/27/1 270/26/1 271/11/1 272/9/1
f 273/28/1 274/21/1 275/14/1 276/13/1
f 277/23/1 278/25/1 279/26/1 280/27/1
f 281/28/1 282/21/1 283/14/1 284/13/1
f 285/23/1 286/25/1 287/26/1 288/27/1
f 289/13/1 290/14/1 291/5/1 292/15/1
f 293/27/1 294/26/1 295/11/1 296/9/1
f 297/13/1 298/14/1 299/5/1 300/15/1
f 301/27/1 302/26/1 303/11/1 304/9/1
f 305/5/1 306/6/1 307/7/1 308/8/1
f 309/6/1 310/9/1 311/10/1 312/7/1
f 313/5/1 314/6/1 315/7/1 316/8/1
f 317/6/1 318/9/1 319/10/1 320/7/1
f 321/5/1 322/6/1 323/7/1 324/8/1
f 325/6/1 326/9/1 327/10/1 328/7/1
f 329/24/1 330/17/1 331/29/1 332/30/1
f 333/23/1 334/25/1 335/26/1 336/27/1
f 337/28/1 338/21/1 339/14/1 340/13/1
f 341/17/1 342/16/1 343/31/1 344/29/1
f 345/5/1 346/6/1 347/7/1 348/8/1
f 349/6/1 350/9/1 351/10/1 352/7/1
f 353/5/1 354/6/1 355/7/1 356/8/1
f 357/6/1 358/9/1 359/10/1 360/7/1
f 361/5/1 362/6/1 363/7/1 364/8/1
f 365/6/1 366/9/1 367/10/1 368/7/1
f 369/6/1 370/9/1 371/10/1 372/7/1
f 373/9/1 374/11/1 375/12/1 376/10/1
f 377/18/1 378/19/1 379/20/1 380/21/1
f 381/19/1 382/22/1 383/23/1 384/20/1
f 385/18/1 386/19/1 387/20/1 388/21/1
f 389/19/1 390/22/1 391/23/1 392/20/1
f 393/18/1 394/19/1 395/20/1 396/21/1
f 397/19/1 398/22/1 399/23/1 400/20/1
f 401/19/1 402/22/1 403/23/1 404/20/1
f 405/22/1 406/32/1 407/25/1 408/23/1
f 409/33/1 410/18/1 411/21/1 412/28/1
f 413/18/1 414/19/1 415/20/1 416/21/1
f 417/18/1 418/19/1 419/20/1 420/21/1
f 421/19/1 422/22/1 423/23/1 424/20/1
f 425/18/1 426/19/1 427/20/1 428/21/1
f 429/19/1 430/22/1 431/23/1 432/20/1
f 433/18/1 434/19/1 435/20/1 436/21/1
f 437/19/1 438/22/1 439/23/1 440/20/1
f 441/7/1 442/10/1 443/17/1 444/24/1
f 445/27/1 446/26/1 447/11/1 448/9/1
f 449/13/1 450/14/1 451/5/1 452/15/1
f 453/27/1 454/26/1 455/11/1 456/9/1
f 457/28/1 458/21/1 459/14/1 460/13/1
f 461/23/1 462/25/1 463/26/1 464/27/1
f 465/13/1 466/14/1 467/5/1 468/15/1
f 469/27/1 470/26/1 471/11/1 472/9/1
f 473/28/1 474/21/1 475/14/1 476/13/1
f 477/23/1 478/25/1 479/26/1 480/27/1
f 481/13/1 482/14/1 483/5/1 484/15/1
f 485/27/1 486/26/1 487/11/1 488/9/1
f 489/28/1 490/21/1 491/14/1 492/13/1
f 493/23/1 494/25/1 495/26/1 496/27/1
f 497/13/1 498/14/1 499/5/1 500/15/1
f 501/27/1 502/26/1 503/11/1 504/9/1
f 505/28/1 506/21/1 507/14/1 508/13/1
f 509/23/1 510/25/1 511/26/1 512/27/1
f 513/13/1 514/14/1 515/5/1 516/15/1
f 517/27/1 518/26/1 519/11/1 520/9/1
f 521/28/1 522/21/1 523/14/1 524/13/1
f 525/23/1 526/25/1 527/26/1 528/27/1
f 529/13/1 530/14/1 531/5/1 532/15/1
f 533/27/1 534/26/1 535/11/1 536/9/1
f 537/28/1 538/21/1 539/14/1 540/13/1
f 541/23/1 542/25/1 543/26/1 544/27/1
f 545/13/1 546/14/1 547/5/1 548/15/1
f 549/27/1 550/26/1 551/11/1 552/9/1
f 553/28/1 554/21/1 555/14/1 556/13/1
f 557/23/1 558/25/1 559/26/1 560/27/1
f 561/24/1 562/17/1 563/29/1 564/30/1
f 565/23/1 566/25/1 567/26/1 568/27/1
f 569/19/1 570/22/1 571/23/1 572/20/1
f 573/22/1 574/32/1 575/25/1 576/23/1

