# Tiled2Unity generated file. Do not modify by hand.
# Wavefront file for 'SalleS-SF---SP_mesh_0003.obj'

# Vertices (Count = 184)
v -1464 -1008 0
v -1488 -1008 0
v -1488 -984 0
v -1464 -984 0
v -1488 -1008 0
v -1512 -1008 0
v -1512 -984 0
v -1488 -984 0
v -1464 -1032 0
v -1488 -1032 0
v -1488 -1008 0
v -1464 -1008 0
v -1488 -1032 0
v -1512 -1032 0
v -1512 -1008 0
v -1488 -1008 0
v -1776 -1104 0
v -1800 -1104 0
v -1800 -1080 0
v -1776 -1080 0
v -1800 -1104 0
v -1824 -1104 0
v -1824 -1080 0
v -1800 -1080 0
v -1776 -1128 0
v -1800 -1128 0
v -1800 -1104 0
v -1776 -1104 0
v -1800 -1128 0
v -1824 -1128 0
v -1824 -1104 0
v -1800 -1104 0
v -1416 -1176 0
v -1440 -1176 0
v -1440 -1152 0
v -1416 -1152 0
v -1440 -1176 0
v -1464 -1176 0
v -1464 -1152 0
v -1440 -1152 0
v -1464 -1176 0
v -1488 -1176 0
v -1488 -1152 0
v -1464 -1152 0
v -1488 -1176 0
v -1512 -1176 0
v -1512 -1152 0
v -1488 -1152 0
v -1512 -1176 0
v -1536 -1176 0
v -1536 -1152 0
v -1512 -1152 0
v -1536 -1176 0
v -1560 -1176 0
v -1560 -1152 0
v -1536 -1152 0
v -1416 -1200 0
v -1440 -1200 0
v -1440 -1176 0
v -1416 -1176 0
v -1440 -1200 0
v -1464 -1200 0
v -1464 -1176 0
v -1440 -1176 0
v -1464 -1200 0
v -1488 -1200 0
v -1488 -1176 0
v -1464 -1176 0
v -1488 -1200 0
v -1512 -1200 0
v -1512 -1176 0
v -1488 -1176 0
v -1512 -1200 0
v -1536 -1200 0
v -1536 -1176 0
v -1512 -1176 0
v -1536 -1200 0
v -1560 -1200 0
v -1560 -1176 0
v -1536 -1176 0
v -1656 -1200 0
v -1680 -1200 0
v -1680 -1176 0
v -1656 -1176 0
v -1680 -1200 0
v -1704 -1200 0
v -1704 -1176 0
v -1680 -1176 0
v -1416 -1224 0
v -1440 -1224 0
v -1440 -1200 0
v -1416 -1200 0
v -1440 -1224 0
v -1464 -1224 0
v -1464 -1200 0
v -1440 -1200 0
v -1464 -1224 0
v -1488 -1224 0
v -1488 -1200 0
v -1464 -1200 0
v -1488 -1224 0
v -1512 -1224 0
v -1512 -1200 0
v -1488 -1200 0
v -1512 -1224 0
v -1536 -1224 0
v -1536 -1200 0
v -1512 -1200 0
v -1536 -1224 0
v -1560 -1224 0
v -1560 -1200 0
v -1536 -1200 0
v -1656 -1224 0
v -1680 -1224 0
v -1680 -1200 0
v -1656 -1200 0
v -1680 -1224 0
v -1704 -1224 0
v -1704 -1200 0
v -1680 -1200 0
v -1800 -1248 0
v -1824 -1248 0
v -1824 -1224 0
v -1800 -1224 0
v -1824 -1248 0
v -1848 -1248 0
v -1848 -1224 0
v -1824 -1224 0
v -1800 -1272 0
v -1824 -1272 0
v -1824 -1248 0
v -1800 -1248 0
v -1824 -1272 0
v -1848 -1272 0
v -1848 -1248 0
v -1824 -1248 0
v -1392 -1392 0
v -1416 -1392 0
v -1416 -1368 0
v -1392 -1368 0
v -1416 -1392 0
v -1440 -1392 0
v -1440 -1368 0
v -1416 -1368 0
v -1464 -1392 0
v -1488 -1392 0
v -1488 -1368 0
v -1464 -1368 0
v -1488 -1392 0
v -1512 -1392 0
v -1512 -1368 0
v -1488 -1368 0
v -1800 -1392 0
v -1824 -1392 0
v -1824 -1368 0
v -1800 -1368 0
v -1824 -1392 0
v -1848 -1392 0
v -1848 -1368 0
v -1824 -1368 0
v -1872 -1392 0
v -1896 -1392 0
v -1896 -1368 0
v -1872 -1368 0
v -1896 -1392 0
v -1920 -1392 0
v -1920 -1368 0
v -1896 -1368 0
v -1392 -1416 0
v -1416 -1416 0
v -1416 -1392 0
v -1392 -1392 0
v -1416 -1416 0
v -1440 -1416 0
v -1440 -1392 0
v -1416 -1392 0
v -1872 -1416 0
v -1896 -1416 0
v -1896 -1392 0
v -1872 -1392 0
v -1896 -1416 0
v -1920 -1416 0
v -1920 -1392 0
v -1896 -1392 0

# Texture cooridinates (Count = 45)
vt 0.5 0.78125
vt 0.53125 0.78125
vt 0.53125 0.8125
vt 0.5 0.8125
vt 0.5625 0.78125
vt 0.5625 0.8125
vt 0.5 0.75
vt 0.53125 0.75
vt 0.5625 0.75
vt 0.375 0.34375
vt 0.40625 0.34375
vt 0.40625 0.375
vt 0.375 0.375
vt 0.4375 0.34375
vt 0.4375 0.375
vt 0.375 0.3125
vt 0.40625 0.3125
vt 0.4375 0.3125
vt 0.1875 0.1875
vt 0.21875 0.1875
vt 0.21875 0.21875
vt 0.1875 0.21875
vt 0.25 0.1875
vt 0.25 0.21875
vt 0.1875 0.15625
vt 0.21875 0.15625
vt 0.25 0.15625
vt 0.1875 0.125
vt 0.21875 0.125
vt 0.25 0.125
vt 0.3125 0.15625
vt 0.34375 0.15625
vt 0.34375 0.1875
vt 0.3125 0.1875
vt 0.375 0.15625
vt 0.375 0.1875
vt 0.375 0.5625
vt 0.40625 0.5625
vt 0.40625 0.59375
vt 0.375 0.59375
vt 0.4375 0.5625
vt 0.4375 0.59375
vt 0.3125 0.125
vt 0.34375 0.125
vt 0.375 0.125

# Normal
vn 0 0 -1

# Mesh description
g SalleS-SF---SP_mesh_0003

# Faces
f 1/1/1 2/2/1 3/3/1 4/4/1
f 5/2/1 6/5/1 7/6/1 8/3/1
f 9/7/1 10/8/1 11/2/1 12/1/1
f 13/8/1 14/9/1 15/5/1 16/2/1
f 17/10/1 18/11/1 19/12/1 20/13/1
f 21/11/1 22/14/1 23/15/1 24/12/1
f 25/16/1 26/17/1 27/11/1 28/10/1
f 29/17/1 30/18/1 31/14/1 32/11/1
f 33/19/1 34/20/1 35/21/1 36/22/1
f 37/20/1 38/23/1 39/24/1 40/21/1
f 41/19/1 42/20/1 43/21/1 44/22/1
f 45/20/1 46/23/1 47/24/1 48/21/1
f 49/19/1 50/20/1 51/21/1 52/22/1
f 53/20/1 54/23/1 55/24/1 56/21/1
f 57/25/1 58/26/1 59/20/1 60/19/1
f 61/26/1 62/27/1 63/23/1 64/20/1
f 65/25/1 66/26/1 67/20/1 68/19/1
f 69/26/1 70/27/1 71/23/1 72/20/1
f 73/25/1 74/26/1 75/20/1 76/19/1
f 77/26/1 78/27/1 79/23/1 80/20/1
f 81/10/1 82/11/1 83/12/1 84/13/1
f 85/11/1 86/14/1 87/15/1 88/12/1
f 89/28/1 90/29/1 91/26/1 92/25/1
f 93/29/1 94/30/1 95/27/1 96/26/1
f 97/28/1 98/29/1 99/26/1 100/25/1
f 101/29/1 102/30/1 103/27/1 104/26/1
f 105/28/1 106/29/1 107/26/1 108/25/1
f 109/29/1 110/30/1 111/27/1 112/26/1
f 113/16/1 114/17/1 115/11/1 116/10/1
f 117/17/1 118/18/1 119/14/1 120/11/1
f 121/10/1 122/11/1 123/12/1 124/13/1
f 125/11/1 126/14/1 127/15/1 128/12/1
f 129/16/1 130/17/1 131/11/1 132/10/1
f 133/17/1 134/18/1 135/14/1 136/11/1
f 137/31/1 138/32/1 139/33/1 140/34/1
f 141/32/1 142/35/1 143/36/1 144/33/1
f 145/37/1 146/38/1 147/39/1 148/40/1
f 149/38/1 150/41/1 151/42/1 152/39/1
f 153/37/1 154/38/1 155/39/1 156/40/1
f 157/38/1 158/41/1 159/42/1 160/39/1
f 161/1/1 162/2/1 163/3/1 164/4/1
f 165/2/1 166/5/1 167/6/1 168/3/1
f 169/43/1 170/44/1 171/32/1 172/31/1
f 173/44/1 174/45/1 175/35/1 176/32/1
f 177/7/1 178/8/1 179/2/1 180/1/1
f 181/8/1 182/9/1 183/5/1 184/2/1

