# Tiled2Unity generated file. Do not modify by hand.
# Wavefront file for 'SalleS-SF---SP_mesh_0005.obj'

# Vertices (Count = 152)
v -1512 -1008 0
v -1536 -1008 0
v -1536 -984 0
v -1512 -984 0
v -1536 -1008 0
v -1560 -1008 0
v -1560 -984 0
v -1536 -984 0
v -1560 -1008 0
v -1584 -1008 0
v -1584 -984 0
v -1560 -984 0
v -1584 -1008 0
v -1608 -1008 0
v -1608 -984 0
v -1584 -984 0
v -1608 -1008 0
v -1632 -1008 0
v -1632 -984 0
v -1608 -984 0
v -1632 -1008 0
v -1656 -1008 0
v -1656 -984 0
v -1632 -984 0
v -1656 -1008 0
v -1680 -1008 0
v -1680 -984 0
v -1656 -984 0
v -1680 -1008 0
v -1704 -1008 0
v -1704 -984 0
v -1680 -984 0
v -1704 -1008 0
v -1728 -1008 0
v -1728 -984 0
v -1704 -984 0
v -1728 -1008 0
v -1752 -1008 0
v -1752 -984 0
v -1728 -984 0
v -1752 -1008 0
v -1776 -1008 0
v -1776 -984 0
v -1752 -984 0
v -1776 -1008 0
v -1800 -1008 0
v -1800 -984 0
v -1776 -984 0
v -1800 -1008 0
v -1824 -1008 0
v -1824 -984 0
v -1800 -984 0
v -1824 -1008 0
v -1848 -1008 0
v -1848 -984 0
v -1824 -984 0
v -1848 -1008 0
v -1872 -1008 0
v -1872 -984 0
v -1848 -984 0
v -1872 -1008 0
v -1896 -1008 0
v -1896 -984 0
v -1872 -984 0
v -1512 -1032 0
v -1536 -1032 0
v -1536 -1008 0
v -1512 -1008 0
v -1536 -1032 0
v -1560 -1032 0
v -1560 -1008 0
v -1536 -1008 0
v -1560 -1032 0
v -1584 -1032 0
v -1584 -1008 0
v -1560 -1008 0
v -1584 -1032 0
v -1608 -1032 0
v -1608 -1008 0
v -1584 -1008 0
v -1608 -1032 0
v -1632 -1032 0
v -1632 -1008 0
v -1608 -1008 0
v -1632 -1032 0
v -1656 -1032 0
v -1656 -1008 0
v -1632 -1008 0
v -1656 -1032 0
v -1680 -1032 0
v -1680 -1008 0
v -1656 -1008 0
v -1680 -1032 0
v -1704 -1032 0
v -1704 -1008 0
v -1680 -1008 0
v -1704 -1032 0
v -1728 -1032 0
v -1728 -1008 0
v -1704 -1008 0
v -1728 -1032 0
v -1752 -1032 0
v -1752 -1008 0
v -1728 -1008 0
v -1752 -1032 0
v -1776 -1032 0
v -1776 -1008 0
v -1752 -1008 0
v -1776 -1032 0
v -1800 -1032 0
v -1800 -1008 0
v -1776 -1008 0
v -1800 -1032 0
v -1824 -1032 0
v -1824 -1008 0
v -1800 -1008 0
v -1824 -1032 0
v -1848 -1032 0
v -1848 -1008 0
v -1824 -1008 0
v -1848 -1032 0
v -1872 -1032 0
v -1872 -1008 0
v -1848 -1008 0
v -1872 -1032 0
v -1896 -1032 0
v -1896 -1008 0
v -1872 -1008 0
v -1416 -1152 0
v -1440 -1152 0
v -1440 -1128 0
v -1416 -1128 0
v -1440 -1152 0
v -1464 -1152 0
v -1464 -1128 0
v -1440 -1128 0
v -1464 -1152 0
v -1488 -1152 0
v -1488 -1128 0
v -1464 -1128 0
v -1488 -1152 0
v -1512 -1152 0
v -1512 -1128 0
v -1488 -1128 0
v -1512 -1152 0
v -1536 -1152 0
v -1536 -1128 0
v -1512 -1128 0
v -1536 -1152 0
v -1560 -1152 0
v -1560 -1128 0
v -1536 -1128 0

# Texture cooridinates (Count = 21)
vt 0 0.40625
vt 0.03125 0.40625
vt 0.03125 0.4375
vt 0 0.4375
vt 0.0625 0.40625
vt 0.0625 0.4375
vt 0.09375 0.40625
vt 0.09375 0.4375
vt 0.125 0.40625
vt 0.125 0.4375
vt 0 0.375
vt 0.03125 0.375
vt 0.0625 0.375
vt 0.09375 0.375
vt 0.125 0.375
vt 0.1875 0.21875
vt 0.21875 0.21875
vt 0.21875 0.25
vt 0.1875 0.25
vt 0.25 0.21875
vt 0.25 0.25

# Normal
vn 0 0 -1

# Mesh description
g SalleS-SF---SP_mesh_0005

# Faces
f 1/1/1 2/2/1 3/3/1 4/4/1
f 5/2/1 6/5/1 7/6/1 8/3/1
f 9/5/1 10/7/1 11/8/1 12/6/1
f 13/7/1 14/9/1 15/10/1 16/8/1
f 17/5/1 18/7/1 19/8/1 20/6/1
f 21/7/1 22/9/1 23/10/1 24/8/1
f 25/5/1 26/7/1 27/8/1 28/6/1
f 29/7/1 30/9/1 31/10/1 32/8/1
f 33/5/1 34/7/1 35/8/1 36/6/1
f 37/7/1 38/9/1 39/10/1 40/8/1
f 41/5/1 42/7/1 43/8/1 44/6/1
f 45/7/1 46/9/1 47/10/1 48/8/1
f 49/5/1 50/7/1 51/8/1 52/6/1
f 53/7/1 54/9/1 55/10/1 56/8/1
f 57/5/1 58/7/1 59/8/1 60/6/1
f 61/7/1 62/9/1 63/10/1 64/8/1
f 65/11/1 66/12/1 67/2/1 68/1/1
f 69/12/1 70/13/1 71/5/1 72/2/1
f 73/13/1 74/14/1 75/7/1 76/5/1
f 77/14/1 78/15/1 79/9/1 80/7/1
f 81/13/1 82/14/1 83/7/1 84/5/1
f 85/14/1 86/15/1 87/9/1 88/7/1
f 89/13/1 90/14/1 91/7/1 92/5/1
f 93/14/1 94/15/1 95/9/1 96/7/1
f 97/13/1 98/14/1 99/7/1 100/5/1
f 101/14/1 102/15/1 103/9/1 104/7/1
f 105/13/1 106/14/1 107/7/1 108/5/1
f 109/14/1 110/15/1 111/9/1 112/7/1
f 113/13/1 114/14/1 115/7/1 116/5/1
f 117/14/1 118/15/1 119/9/1 120/7/1
f 121/13/1 122/14/1 123/7/1 124/5/1
f 125/14/1 126/15/1 127/9/1 128/7/1
f 129/16/1 130/17/1 131/18/1 132/19/1
f 133/17/1 134/20/1 135/21/1 136/18/1
f 137/16/1 138/17/1 139/18/1 140/19/1
f 141/17/1 142/20/1 143/21/1 144/18/1
f 145/16/1 146/17/1 147/18/1 148/19/1
f 149/17/1 150/20/1 151/21/1 152/18/1

