# Tiled2Unity generated file. Do not modify by hand.
# Wavefront file for 'SalleNS_mesh_0005.obj'

# Vertices (Count = 272)
v -1728 -1056 0
v -1752 -1056 0
v -1752 -1032 0
v -1728 -1032 0
v -1752 -1056 0
v -1776 -1056 0
v -1776 -1032 0
v -1752 -1032 0
v -1776 -1056 0
v -1800 -1056 0
v -1800 -1032 0
v -1776 -1032 0
v -1800 -1056 0
v -1824 -1056 0
v -1824 -1032 0
v -1800 -1032 0
v -1824 -1056 0
v -1848 -1056 0
v -1848 -1032 0
v -1824 -1032 0
v -1848 -1056 0
v -1872 -1056 0
v -1872 -1032 0
v -1848 -1032 0
v -1872 -1056 0
v -1896 -1056 0
v -1896 -1032 0
v -1872 -1032 0
v -1728 -1080 0
v -1752 -1080 0
v -1752 -1056 0
v -1728 -1056 0
v -1752 -1080 0
v -1776 -1080 0
v -1776 -1056 0
v -1752 -1056 0
v -1776 -1080 0
v -1800 -1080 0
v -1800 -1056 0
v -1776 -1056 0
v -1800 -1080 0
v -1824 -1080 0
v -1824 -1056 0
v -1800 -1056 0
v -1824 -1080 0
v -1848 -1080 0
v -1848 -1056 0
v -1824 -1056 0
v -1848 -1080 0
v -1872 -1080 0
v -1872 -1056 0
v -1848 -1056 0
v -1872 -1080 0
v -1896 -1080 0
v -1896 -1056 0
v -1872 -1056 0
v -1608 -1104 0
v -1632 -1104 0
v -1632 -1080 0
v -1608 -1080 0
v -1632 -1104 0
v -1656 -1104 0
v -1656 -1080 0
v -1632 -1080 0
v -1728 -1104 0
v -1752 -1104 0
v -1752 -1080 0
v -1728 -1080 0
v -1752 -1104 0
v -1776 -1104 0
v -1776 -1080 0
v -1752 -1080 0
v -1776 -1104 0
v -1800 -1104 0
v -1800 -1080 0
v -1776 -1080 0
v -1800 -1104 0
v -1824 -1104 0
v -1824 -1080 0
v -1800 -1080 0
v -1824 -1104 0
v -1848 -1104 0
v -1848 -1080 0
v -1824 -1080 0
v -1848 -1104 0
v -1872 -1104 0
v -1872 -1080 0
v -1848 -1080 0
v -1872 -1104 0
v -1896 -1104 0
v -1896 -1080 0
v -1872 -1080 0
v -1608 -1128 0
v -1632 -1128 0
v -1632 -1104 0
v -1608 -1104 0
v -1632 -1128 0
v -1656 -1128 0
v -1656 -1104 0
v -1632 -1104 0
v -1728 -1128 0
v -1752 -1128 0
v -1752 -1104 0
v -1728 -1104 0
v -1752 -1128 0
v -1776 -1128 0
v -1776 -1104 0
v -1752 -1104 0
v -1776 -1128 0
v -1800 -1128 0
v -1800 -1104 0
v -1776 -1104 0
v -1800 -1128 0
v -1824 -1128 0
v -1824 -1104 0
v -1800 -1104 0
v -1824 -1128 0
v -1848 -1128 0
v -1848 -1104 0
v -1824 -1104 0
v -1848 -1128 0
v -1872 -1128 0
v -1872 -1104 0
v -1848 -1104 0
v -1872 -1128 0
v -1896 -1128 0
v -1896 -1104 0
v -1872 -1104 0
v -1560 -1224 0
v -1584 -1224 0
v -1584 -1200 0
v -1560 -1200 0
v -1584 -1224 0
v -1608 -1224 0
v -1608 -1200 0
v -1584 -1200 0
v -1560 -1248 0
v -1584 -1248 0
v -1584 -1224 0
v -1560 -1224 0
v -1584 -1248 0
v -1608 -1248 0
v -1608 -1224 0
v -1584 -1224 0
v -1416 -1272 0
v -1440 -1272 0
v -1440 -1248 0
v -1416 -1248 0
v -1440 -1272 0
v -1464 -1272 0
v -1464 -1248 0
v -1440 -1248 0
v -1464 -1272 0
v -1488 -1272 0
v -1488 -1248 0
v -1464 -1248 0
v -1488 -1272 0
v -1512 -1272 0
v -1512 -1248 0
v -1488 -1248 0
v -1512 -1272 0
v -1536 -1272 0
v -1536 -1248 0
v -1512 -1248 0
v -1536 -1272 0
v -1560 -1272 0
v -1560 -1248 0
v -1536 -1248 0
v -1560 -1272 0
v -1584 -1272 0
v -1584 -1248 0
v -1560 -1248 0
v -1752 -1272 0
v -1776 -1272 0
v -1776 -1248 0
v -1752 -1248 0
v -1776 -1272 0
v -1800 -1272 0
v -1800 -1248 0
v -1776 -1248 0
v -1416 -1296 0
v -1440 -1296 0
v -1440 -1272 0
v -1416 -1272 0
v -1440 -1296 0
v -1464 -1296 0
v -1464 -1272 0
v -1440 -1272 0
v -1464 -1296 0
v -1488 -1296 0
v -1488 -1272 0
v -1464 -1272 0
v -1488 -1296 0
v -1512 -1296 0
v -1512 -1272 0
v -1488 -1272 0
v -1512 -1296 0
v -1536 -1296 0
v -1536 -1272 0
v -1512 -1272 0
v -1536 -1296 0
v -1560 -1296 0
v -1560 -1272 0
v -1536 -1272 0
v -1560 -1296 0
v -1584 -1296 0
v -1584 -1272 0
v -1560 -1272 0
v -1752 -1296 0
v -1776 -1296 0
v -1776 -1272 0
v -1752 -1272 0
v -1776 -1296 0
v -1800 -1296 0
v -1800 -1272 0
v -1776 -1272 0
v -1416 -1320 0
v -1440 -1320 0
v -1440 -1296 0
v -1416 -1296 0
v -1440 -1320 0
v -1464 -1320 0
v -1464 -1296 0
v -1440 -1296 0
v -1464 -1320 0
v -1488 -1320 0
v -1488 -1296 0
v -1464 -1296 0
v -1488 -1320 0
v -1512 -1320 0
v -1512 -1296 0
v -1488 -1296 0
v -1512 -1320 0
v -1536 -1320 0
v -1536 -1296 0
v -1512 -1296 0
v -1536 -1320 0
v -1560 -1320 0
v -1560 -1296 0
v -1536 -1296 0
v -1560 -1320 0
v -1584 -1320 0
v -1584 -1296 0
v -1560 -1296 0
v -1416 -1344 0
v -1440 -1344 0
v -1440 -1320 0
v -1416 -1320 0
v -1440 -1344 0
v -1464 -1344 0
v -1464 -1320 0
v -1440 -1320 0
v -1464 -1344 0
v -1488 -1344 0
v -1488 -1320 0
v -1464 -1320 0
v -1488 -1344 0
v -1512 -1344 0
v -1512 -1320 0
v -1488 -1320 0
v -1512 -1344 0
v -1536 -1344 0
v -1536 -1320 0
v -1512 -1320 0
v -1536 -1344 0
v -1560 -1344 0
v -1560 -1320 0
v -1536 -1320 0
v -1560 -1344 0
v -1584 -1344 0
v -1584 -1320 0
v -1560 -1320 0

# Texture cooridinates (Count = 31)
vt 0.875 0.375
vt 0.90625 0.375
vt 0.90625 0.4166667
vt 0.875 0.4166667
vt 0.9375 0.375
vt 0.9375 0.4166667
vt 0.96875 0.375
vt 0.96875 0.4166667
vt 0.875 0.3333333
vt 0.90625 0.3333333
vt 0.9375 0.3333333
vt 0.96875 0.3333333
vt 0.875 0.4583333
vt 0.90625 0.4583333
vt 0.90625 0.5
vt 0.875 0.5
vt 0.9375 0.4583333
vt 0.9375 0.5
vt 0.875 0.2916667
vt 0.90625 0.2916667
vt 0.9375 0.2916667
vt 0.96875 0.2916667
vt 0.875 0.25
vt 0.90625 0.25
vt 0.9375 0.25
vt 0.96875 0.25
vt 1 0.375
vt 1 0.4166667
vt 1 0.3333333
vt 1 0.2916667
vt 1 0.25

# Normal
vn 0 0 -1

# Mesh description
g SalleNS_mesh_0005

# Faces
f 1/1/1 2/2/1 3/3/1 4/4/1
f 5/2/1 6/5/1 7/6/1 8/3/1
f 9/2/1 10/5/1 11/6/1 12/3/1
f 13/5/1 14/7/1 15/8/1 16/6/1
f 17/2/1 18/5/1 19/6/1 20/3/1
f 21/2/1 22/5/1 23/6/1 24/3/1
f 25/5/1 26/7/1 27/8/1 28/6/1
f 29/9/1 30/10/1 31/2/1 32/1/1
f 33/10/1 34/11/1 35/5/1 36/2/1
f 37/10/1 38/11/1 39/5/1 40/2/1
f 41/11/1 42/12/1 43/7/1 44/5/1
f 45/10/1 46/11/1 47/5/1 48/2/1
f 49/10/1 50/11/1 51/5/1 52/2/1
f 53/11/1 54/12/1 55/7/1 56/5/1
f 57/13/1 58/14/1 59/15/1 60/16/1
f 61/14/1 62/17/1 63/18/1 64/15/1
f 65/19/1 66/20/1 67/10/1 68/9/1
f 69/20/1 70/21/1 71/11/1 72/10/1
f 73/20/1 74/21/1 75/11/1 76/10/1
f 77/21/1 78/22/1 79/12/1 80/11/1
f 81/20/1 82/21/1 83/11/1 84/10/1
f 85/20/1 86/21/1 87/11/1 88/10/1
f 89/21/1 90/22/1 91/12/1 92/11/1
f 93/4/1 94/3/1 95/14/1 96/13/1
f 97/3/1 98/6/1 99/17/1 100/14/1
f 101/23/1 102/24/1 103/20/1 104/19/1
f 105/24/1 106/25/1 107/21/1 108/20/1
f 109/24/1 110/25/1 111/21/1 112/20/1
f 113/25/1 114/26/1 115/22/1 116/21/1
f 117/24/1 118/25/1 119/21/1 120/20/1
f 121/24/1 122/25/1 123/21/1 124/20/1
f 125/25/1 126/26/1 127/22/1 128/21/1
f 129/13/1 130/14/1 131/15/1 132/16/1
f 133/14/1 134/17/1 135/18/1 136/15/1
f 137/4/1 138/3/1 139/14/1 140/13/1
f 141/3/1 142/6/1 143/17/1 144/14/1
f 145/2/1 146/5/1 147/6/1 148/3/1
f 149/5/1 150/7/1 151/8/1 152/6/1
f 153/2/1 154/5/1 155/6/1 156/3/1
f 157/5/1 158/7/1 159/8/1 160/6/1
f 161/2/1 162/5/1 163/6/1 164/3/1
f 165/5/1 166/7/1 167/8/1 168/6/1
f 169/7/1 170/27/1 171/28/1 172/8/1
f 173/13/1 174/14/1 175/15/1 176/16/1
f 177/14/1 178/17/1 179/18/1 180/15/1
f 181/10/1 182/11/1 183/5/1 184/2/1
f 185/11/1 186/12/1 187/7/1 188/5/1
f 189/10/1 190/11/1 191/5/1 192/2/1
f 193/11/1 194/12/1 195/7/1 196/5/1
f 197/10/1 198/11/1 199/5/1 200/2/1
f 201/11/1 202/12/1 203/7/1 204/5/1
f 205/12/1 206/29/1 207/27/1 208/7/1
f 209/4/1 210/3/1 211/14/1 212/13/1
f 213/3/1 214/6/1 215/17/1 216/14/1
f 217/20/1 218/21/1 219/11/1 220/10/1
f 221/21/1 222/22/1 223/12/1 224/11/1
f 225/20/1 226/21/1 227/11/1 228/10/1
f 229/21/1 230/22/1 231/12/1 232/11/1
f 233/20/1 234/21/1 235/11/1 236/10/1
f 237/21/1 238/22/1 239/12/1 240/11/1
f 241/22/1 242/30/1 243/29/1 244/12/1
f 245/24/1 246/25/1 247/21/1 248/20/1
f 249/25/1 250/26/1 251/22/1 252/21/1
f 253/24/1 254/25/1 255/21/1 256/20/1
f 257/25/1 258/26/1 259/22/1 260/21/1
f 261/24/1 262/25/1 263/21/1 264/20/1
f 265/25/1 266/26/1 267/22/1 268/21/1
f 269/26/1 270/31/1 271/30/1 272/22/1

