# Tiled2Unity generated file. Do not modify by hand.
# Wavefront file for 'SalleE-SF---SP_mesh_0006.obj'

# Vertices (Count = 16)
v -1848 -1008 0
v -1872 -1008 0
v -1872 -984 0
v -1848 -984 0
v -1872 -1008 0
v -1896 -1008 0
v -1896 -984 0
v -1872 -984 0
v -1848 -1032 0
v -1872 -1032 0
v -1872 -1008 0
v -1848 -1008 0
v -1872 -1032 0
v -1896 -1032 0
v -1896 -1008 0
v -1872 -1008 0

# Texture cooridinates (Count = 9)
vt 0.6875 0.71875
vt 0.71875 0.71875
vt 0.71875 0.75
vt 0.6875 0.75
vt 0.75 0.71875
vt 0.75 0.75
vt 0.6875 0.6875
vt 0.71875 0.6875
vt 0.75 0.6875

# Normal
vn 0 0 -1

# Mesh description
g SalleE-SF---SP_mesh_0006

# Faces
f 1/1/1 2/2/1 3/3/1 4/4/1
f 5/2/1 6/5/1 7/6/1 8/3/1
f 9/7/1 10/8/1 11/2/1 12/1/1
f 13/8/1 14/9/1 15/5/1 16/2/1

