# Tiled2Unity generated file. Do not modify by hand.
# Wavefront file for 'SalleSE-SF_mesh_0003.obj'

# Vertices (Count = 16)
v -1608 -1224 0
v -1632 -1224 0
v -1632 -1200 0
v -1608 -1200 0
v -1632 -1224 0
v -1656 -1224 0
v -1656 -1200 0
v -1632 -1200 0
v -1752 -1296 0
v -1776 -1296 0
v -1776 -1272 0
v -1752 -1272 0
v -1776 -1296 0
v -1800 -1296 0
v -1800 -1272 0
v -1776 -1272 0

# Texture cooridinates (Count = 6)
vt 0.9375 0.90625
vt 0.96875 0.90625
vt 0.96875 0.9375
vt 0.9375 0.9375
vt 1 0.90625
vt 1 0.9375

# Normal
vn 0 0 -1

# Mesh description
g SalleSE-SF_mesh_0003

# Faces
f 1/1/1 2/2/1 3/3/1 4/4/1
f 5/2/1 6/5/1 7/6/1 8/3/1
f 9/1/1 10/2/1 11/3/1 12/4/1
f 13/2/1 14/5/1 15/6/1 16/3/1

