# Tiled2Unity generated file. Do not modify by hand.
# Wavefront file for 'SalleSE-Bar_mesh_0009.obj'

# Vertices (Count = 36)
v -1560 -1056 0
v -1584 -1056 0
v -1584 -1032 0
v -1560 -1032 0
v -1584 -1056 0
v -1608 -1056 0
v -1608 -1032 0
v -1584 -1032 0
v -1608 -1056 0
v -1632 -1056 0
v -1632 -1032 0
v -1608 -1032 0
v -1512 -1080 0
v -1536 -1080 0
v -1536 -1056 0
v -1512 -1056 0
v -1536 -1080 0
v -1560 -1080 0
v -1560 -1056 0
v -1536 -1056 0
v -1560 -1080 0
v -1584 -1080 0
v -1584 -1056 0
v -1560 -1056 0
v -1584 -1080 0
v -1608 -1080 0
v -1608 -1056 0
v -1584 -1056 0
v -1512 -1104 0
v -1536 -1104 0
v -1536 -1080 0
v -1512 -1080 0
v -1536 -1104 0
v -1560 -1104 0
v -1560 -1080 0
v -1536 -1080 0

# Texture cooridinates (Count = 13)
vt 0.5 0.9583333
vt 0.53125 0.9583333
vt 0.53125 1
vt 0.5 1
vt 0.5625 0.9583333
vt 0.5625 1
vt 0.09375 0.7083334
vt 0.125 0.7083334
vt 0.125 0.75
vt 0.09375 0.75
vt 0.5 0.9166667
vt 0.53125 0.9166667
vt 0.5625 0.9166667

# Normal
vn 0 0 -1

# Mesh description
g SalleSE-Bar_mesh_0009

# Faces
f 1/1/1 2/2/1 3/3/1 4/4/1
f 5/2/1 6/5/1 7/6/1 8/3/1
f 9/7/1 10/8/1 11/9/1 12/10/1
f 13/1/1 14/2/1 15/3/1 16/4/1
f 17/2/1 18/5/1 19/6/1 20/3/1
f 21/11/1 22/12/1 23/2/1 24/1/1
f 25/12/1 26/13/1 27/5/1 28/2/1
f 29/11/1 30/12/1 31/2/1 32/1/1
f 33/12/1 34/13/1 35/5/1 36/2/1

