# Tiled2Unity generated file. Do not modify by hand.
# Wavefront file for 'SalleSE-Bar_mesh_0002.obj'

# Vertices (Count = 64)
v -1416 -1056 0
v -1440 -1056 0
v -1440 -1032 0
v -1416 -1032 0
v -1440 -1056 0
v -1464 -1056 0
v -1464 -1032 0
v -1440 -1032 0
v -1464 -1056 0
v -1488 -1056 0
v -1488 -1032 0
v -1464 -1032 0
v -1488 -1056 0
v -1512 -1056 0
v -1512 -1032 0
v -1488 -1032 0
v -1512 -1056 0
v -1536 -1056 0
v -1536 -1032 0
v -1512 -1032 0
v -1536 -1056 0
v -1560 -1056 0
v -1560 -1032 0
v -1536 -1032 0
v -1560 -1056 0
v -1584 -1056 0
v -1584 -1032 0
v -1560 -1032 0
v -1584 -1056 0
v -1608 -1056 0
v -1608 -1032 0
v -1584 -1032 0
v -1416 -1080 0
v -1440 -1080 0
v -1440 -1056 0
v -1416 -1056 0
v -1440 -1080 0
v -1464 -1080 0
v -1464 -1056 0
v -1440 -1056 0
v -1464 -1080 0
v -1488 -1080 0
v -1488 -1056 0
v -1464 -1056 0
v -1488 -1080 0
v -1512 -1080 0
v -1512 -1056 0
v -1488 -1056 0
v -1512 -1080 0
v -1536 -1080 0
v -1536 -1056 0
v -1512 -1056 0
v -1536 -1080 0
v -1560 -1080 0
v -1560 -1056 0
v -1536 -1056 0
v -1560 -1080 0
v -1584 -1080 0
v -1584 -1056 0
v -1560 -1056 0
v -1584 -1080 0
v -1608 -1080 0
v -1608 -1056 0
v -1584 -1056 0

# Texture cooridinates (Count = 15)
vt 0.25 0.84375
vt 0.3125 0.84375
vt 0.3125 0.875
vt 0.25 0.875
vt 0.25 0.28125
vt 0.3125 0.28125
vt 0.3125 0.3125
vt 0.25 0.3125
vt 0.375 0.28125
vt 0.375 0.3125
vt 0.375 0.84375
vt 0.375 0.875
vt 0.25 0.8125
vt 0.3125 0.8125
vt 0.375 0.8125

# Normal
vn 0 0 -1

# Mesh description
g SalleSE-Bar_mesh_0002

# Faces
f 1/1/1 2/2/1 3/3/1 4/4/1
f 5/1/1 6/2/1 7/3/1 8/4/1
f 9/1/1 10/2/1 11/3/1 12/4/1
f 13/1/1 14/2/1 15/3/1 16/4/1
f 17/5/1 18/6/1 19/7/1 20/8/1
f 21/6/1 22/9/1 23/10/1 24/7/1
f 25/1/1 26/2/1 27/3/1 28/4/1
f 29/2/1 30/11/1 31/12/1 32/3/1
f 33/5/1 34/6/1 35/7/1 36/8/1
f 37/6/1 38/9/1 39/10/1 40/7/1
f 41/13/1 42/14/1 43/2/1 44/1/1
f 45/13/1 46/14/1 47/2/1 48/1/1
f 49/13/1 50/14/1 51/2/1 52/1/1
f 53/13/1 54/14/1 55/2/1 56/1/1
f 57/13/1 58/14/1 59/2/1 60/1/1
f 61/14/1 62/15/1 63/11/1 64/2/1

