# Tiled2Unity generated file. Do not modify by hand.
# Wavefront file for 'SalleSE-Bar_mesh_0004.obj'

# Vertices (Count = 24)
v -1632 -1056 0
v -1656 -1056 0
v -1656 -1032 0
v -1632 -1032 0
v -1608 -1080 0
v -1632 -1080 0
v -1632 -1056 0
v -1608 -1056 0
v -1632 -1080 0
v -1656 -1080 0
v -1656 -1056 0
v -1632 -1056 0
v -1608 -1104 0
v -1632 -1104 0
v -1632 -1080 0
v -1608 -1080 0
v -1608 -1128 0
v -1632 -1128 0
v -1632 -1104 0
v -1608 -1104 0
v -1608 -1152 0
v -1632 -1152 0
v -1632 -1128 0
v -1608 -1128 0

# Texture cooridinates (Count = 10)
vt 0.46875 0.5416666
vt 0.5 0.5416666
vt 0.5 0.5833334
vt 0.46875 0.5833334
vt 0.46875 0.6666666
vt 0.5 0.6666666
vt 0.5 0.7083334
vt 0.46875 0.7083334
vt 0.46875 0.5
vt 0.5 0.5

# Normal
vn 0 0 -1

# Mesh description
g SalleSE-Bar_mesh_0004

# Faces
f 1/1/1 2/2/1 3/3/1 4/4/1
f 5/5/1 6/6/1 7/7/1 8/8/1
f 9/9/1 10/10/1 11/2/1 12/1/1
f 13/1/1 14/2/1 15/3/1 16/4/1
f 17/1/1 18/2/1 19/3/1 20/4/1
f 21/9/1 22/10/1 23/2/1 24/1/1

