# Tiled2Unity generated file. Do not modify by hand.
# Wavefront file for 'SalleSE-Bar_mesh_0006.obj'

# Vertices (Count = 224)
v -1560 -1008 0
v -1584 -1008 0
v -1584 -984 0
v -1560 -984 0
v -1584 -1008 0
v -1608 -1008 0
v -1608 -984 0
v -1584 -984 0
v -1752 -1008 0
v -1776 -1008 0
v -1776 -984 0
v -1752 -984 0
v -1776 -1008 0
v -1800 -1008 0
v -1800 -984 0
v -1776 -984 0
v -1560 -1032 0
v -1584 -1032 0
v -1584 -1008 0
v -1560 -1008 0
v -1584 -1032 0
v -1608 -1032 0
v -1608 -1008 0
v -1584 -1008 0
v -1680 -1032 0
v -1704 -1032 0
v -1704 -1008 0
v -1680 -1008 0
v -1704 -1032 0
v -1728 -1032 0
v -1728 -1008 0
v -1704 -1008 0
v -1752 -1032 0
v -1776 -1032 0
v -1776 -1008 0
v -1752 -1008 0
v -1776 -1032 0
v -1800 -1032 0
v -1800 -1008 0
v -1776 -1008 0
v -1680 -1056 0
v -1704 -1056 0
v -1704 -1032 0
v -1680 -1032 0
v -1704 -1056 0
v -1728 -1056 0
v -1728 -1032 0
v -1704 -1032 0
v -1608 -1080 0
v -1632 -1080 0
v -1632 -1056 0
v -1608 -1056 0
v -1632 -1080 0
v -1656 -1080 0
v -1656 -1056 0
v -1632 -1056 0
v -1608 -1104 0
v -1632 -1104 0
v -1632 -1080 0
v -1608 -1080 0
v -1632 -1104 0
v -1656 -1104 0
v -1656 -1080 0
v -1632 -1080 0
v -1968 -1104 0
v -1992 -1104 0
v -1992 -1080 0
v -1968 -1080 0
v -1992 -1104 0
v -2016 -1104 0
v -2016 -1080 0
v -1992 -1080 0
v -1488 -1128 0
v -1512 -1128 0
v -1512 -1104 0
v -1488 -1104 0
v -1512 -1128 0
v -1536 -1128 0
v -1536 -1104 0
v -1512 -1104 0
v -1968 -1128 0
v -1992 -1128 0
v -1992 -1104 0
v -1968 -1104 0
v -1992 -1128 0
v -2016 -1128 0
v -2016 -1104 0
v -1992 -1104 0
v -1440 -1152 0
v -1464 -1152 0
v -1464 -1128 0
v -1440 -1128 0
v -1464 -1152 0
v -1488 -1152 0
v -1488 -1128 0
v -1464 -1128 0
v -1488 -1152 0
v -1512 -1152 0
v -1512 -1128 0
v -1488 -1128 0
v -1512 -1152 0
v -1536 -1152 0
v -1536 -1128 0
v -1512 -1128 0
v -1536 -1152 0
v -1560 -1152 0
v -1560 -1128 0
v -1536 -1128 0
v -1560 -1152 0
v -1584 -1152 0
v -1584 -1128 0
v -1560 -1128 0
v -1608 -1152 0
v -1632 -1152 0
v -1632 -1128 0
v -1608 -1128 0
v -1632 -1152 0
v -1656 -1152 0
v -1656 -1128 0
v -1632 -1128 0
v -1440 -1176 0
v -1464 -1176 0
v -1464 -1152 0
v -1440 -1152 0
v -1464 -1176 0
v -1488 -1176 0
v -1488 -1152 0
v -1464 -1152 0
v -1536 -1176 0
v -1560 -1176 0
v -1560 -1152 0
v -1536 -1152 0
v -1560 -1176 0
v -1584 -1176 0
v -1584 -1152 0
v -1560 -1152 0
v -1608 -1176 0
v -1632 -1176 0
v -1632 -1152 0
v -1608 -1152 0
v -1632 -1176 0
v -1656 -1176 0
v -1656 -1152 0
v -1632 -1152 0
v -1512 -1200 0
v -1536 -1200 0
v -1536 -1176 0
v -1512 -1176 0
v -1536 -1200 0
v -1560 -1200 0
v -1560 -1176 0
v -1536 -1176 0
v -1560 -1200 0
v -1584 -1200 0
v -1584 -1176 0
v -1560 -1176 0
v -1584 -1200 0
v -1608 -1200 0
v -1608 -1176 0
v -1584 -1176 0
v -1824 -1200 0
v -1848 -1200 0
v -1848 -1176 0
v -1824 -1176 0
v -1848 -1200 0
v -1872 -1200 0
v -1872 -1176 0
v -1848 -1176 0
v -1512 -1224 0
v -1536 -1224 0
v -1536 -1200 0
v -1512 -1200 0
v -1536 -1224 0
v -1560 -1224 0
v -1560 -1200 0
v -1536 -1200 0
v -1560 -1224 0
v -1584 -1224 0
v -1584 -1200 0
v -1560 -1200 0
v -1584 -1224 0
v -1608 -1224 0
v -1608 -1200 0
v -1584 -1200 0
v -1824 -1224 0
v -1848 -1224 0
v -1848 -1200 0
v -1824 -1200 0
v -1848 -1224 0
v -1872 -1224 0
v -1872 -1200 0
v -1848 -1200 0
v -1632 -1272 0
v -1656 -1272 0
v -1656 -1248 0
v -1632 -1248 0
v -1656 -1272 0
v -1680 -1272 0
v -1680 -1248 0
v -1656 -1248 0
v -1848 -1272 0
v -1872 -1272 0
v -1872 -1248 0
v -1848 -1248 0
v -1872 -1272 0
v -1896 -1272 0
v -1896 -1248 0
v -1872 -1248 0
v -1632 -1296 0
v -1656 -1296 0
v -1656 -1272 0
v -1632 -1272 0
v -1656 -1296 0
v -1680 -1296 0
v -1680 -1272 0
v -1656 -1272 0
v -1848 -1296 0
v -1872 -1296 0
v -1872 -1272 0
v -1848 -1272 0
v -1872 -1296 0
v -1896 -1296 0
v -1896 -1272 0
v -1872 -1272 0

# Texture cooridinates (Count = 69)
vt 0.6875 0.40625
vt 0.71875 0.40625
vt 0.71875 0.4375
vt 0.6875 0.4375
vt 0.75 0.40625
vt 0.75 0.4375
vt 0.6875 0.375
vt 0.71875 0.375
vt 0.75 0.375
vt 0.125 0.15625
vt 0.15625 0.15625
vt 0.15625 0.1875
vt 0.125 0.1875
vt 0.1875 0.15625
vt 0.1875 0.1875
vt 0.125 0.125
vt 0.15625 0.125
vt 0.1875 0.125
vt 0.125 0.28125
vt 0.15625 0.28125
vt 0.15625 0.3125
vt 0.125 0.3125
vt 0.1875 0.28125
vt 0.1875 0.3125
vt 0.125 0.25
vt 0.15625 0.25
vt 0.1875 0.25
vt 0 0.90625
vt 0.03125 0.90625
vt 0.03125 0.9375
vt 0 0.9375
vt 0.0625 0.90625
vt 0.0625 0.9375
vt 0.4375 0.96875
vt 0.46875 0.96875
vt 0.46875 1
vt 0.4375 1
vt 0.5 0.96875
vt 0.5 1
vt 0 0.875
vt 0.03125 0.875
vt 0.0625 0.875
vt 0.3125 0.34375
vt 0.34375 0.34375
vt 0.34375 0.375
vt 0.3125 0.375
vt 0.375 0.34375
vt 0.375 0.375
vt 0.4375 0.9375
vt 0.46875 0.9375
vt 0.5 0.9375
vt 0 0.28125
vt 0.03125 0.28125
vt 0.03125 0.3125
vt 0 0.3125
vt 0.0625 0.28125
vt 0.0625 0.3125
vt 0.3125 0.3125
vt 0.34375 0.3125
vt 0.375 0.3125
vt 0 0.25
vt 0.03125 0.25
vt 0.0625 0.25
vt 0.21875 0.15625
vt 0.21875 0.1875
vt 0.25 0.15625
vt 0.25 0.1875
vt 0.21875 0.125
vt 0.25 0.125

# Normal
vn 0 0 -1

# Mesh description
g SalleSE-Bar_mesh_0006

# Faces
f 1/1/1 2/2/1 3/3/1 4/4/1
f 5/2/1 6/5/1 7/6/1 8/3/1
f 9/1/1 10/2/1 11/3/1 12/4/1
f 13/2/1 14/5/1 15/6/1 16/3/1
f 17/7/1 18/8/1 19/2/1 20/1/1
f 21/8/1 22/9/1 23/5/1 24/2/1
f 25/10/1 26/11/1 27/12/1 28/13/1
f 29/11/1 30/14/1 31/15/1 32/12/1
f 33/7/1 34/8/1 35/2/1 36/1/1
f 37/8/1 38/9/1 39/5/1 40/2/1
f 41/16/1 42/17/1 43/11/1 44/10/1
f 45/17/1 46/18/1 47/14/1 48/11/1
f 49/19/1 50/20/1 51/21/1 52/22/1
f 53/20/1 54/23/1 55/24/1 56/21/1
f 57/25/1 58/26/1 59/20/1 60/19/1
f 61/26/1 62/27/1 63/23/1 64/20/1
f 65/28/1 66/29/1 67/30/1 68/31/1
f 69/29/1 70/32/1 71/33/1 72/30/1
f 73/34/1 74/35/1 75/36/1 76/37/1
f 77/35/1 78/38/1 79/39/1 80/36/1
f 81/40/1 82/41/1 83/29/1 84/28/1
f 85/41/1 86/42/1 87/32/1 88/29/1
f 89/43/1 90/44/1 91/45/1 92/46/1
f 93/44/1 94/47/1 95/48/1 96/45/1
f 97/49/1 98/50/1 99/35/1 100/34/1
f 101/50/1 102/51/1 103/38/1 104/35/1
f 105/43/1 106/44/1 107/45/1 108/46/1
f 109/44/1 110/47/1 111/48/1 112/45/1
f 113/52/1 114/53/1 115/54/1 116/55/1
f 117/53/1 118/56/1 119/57/1 120/54/1
f 121/58/1 122/59/1 123/44/1 124/43/1
f 125/59/1 126/60/1 127/47/1 128/44/1
f 129/58/1 130/59/1 131/44/1 132/43/1
f 133/59/1 134/60/1 135/47/1 136/44/1
f 137/61/1 138/62/1 139/53/1 140/52/1
f 141/62/1 142/63/1 143/56/1 144/53/1
f 145/52/1 146/53/1 147/54/1 148/55/1
f 149/53/1 150/56/1 151/57/1 152/54/1
f 153/14/1 154/64/1 155/65/1 156/15/1
f 157/64/1 158/66/1 159/67/1 160/65/1
f 161/14/1 162/64/1 163/65/1 164/15/1
f 165/64/1 166/66/1 167/67/1 168/65/1
f 169/61/1 170/62/1 171/53/1 172/52/1
f 173/62/1 174/63/1 175/56/1 176/53/1
f 177/18/1 178/68/1 179/64/1 180/14/1
f 181/68/1 182/69/1 183/66/1 184/64/1
f 185/18/1 186/68/1 187/64/1 188/14/1
f 189/68/1 190/69/1 191/66/1 192/64/1
f 193/14/1 194/64/1 195/65/1 196/15/1
f 197/64/1 198/66/1 199/67/1 200/65/1
f 201/52/1 202/53/1 203/54/1 204/55/1
f 205/53/1 206/56/1 207/57/1 208/54/1
f 209/18/1 210/68/1 211/64/1 212/14/1
f 213/68/1 214/69/1 215/66/1 216/64/1
f 217/61/1 218/62/1 219/53/1 220/52/1
f 221/62/1 222/63/1 223/56/1 224/53/1

