# Tiled2Unity generated file. Do not modify by hand.
# Wavefront file for 'SalleW_mesh_0001.obj'

# Vertices (Count = 856)
v -1368 -984 0
v -1392 -984 0
v -1392 -960 0
v -1368 -960 0
v -1392 -984 0
v -1416 -984 0
v -1416 -960 0
v -1392 -960 0
v -1416 -984 0
v -1440 -984 0
v -1440 -960 0
v -1416 -960 0
v -1440 -984 0
v -1464 -984 0
v -1464 -960 0
v -1440 -960 0
v -1464 -984 0
v -1488 -984 0
v -1488 -960 0
v -1464 -960 0
v -1488 -984 0
v -1512 -984 0
v -1512 -960 0
v -1488 -960 0
v -1512 -984 0
v -1536 -984 0
v -1536 -960 0
v -1512 -960 0
v -1536 -984 0
v -1560 -984 0
v -1560 -960 0
v -1536 -960 0
v -1560 -984 0
v -1584 -984 0
v -1584 -960 0
v -1560 -960 0
v -1584 -984 0
v -1608 -984 0
v -1608 -960 0
v -1584 -960 0
v -1608 -984 0
v -1632 -984 0
v -1632 -960 0
v -1608 -960 0
v -1632 -984 0
v -1656 -984 0
v -1656 -960 0
v -1632 -960 0
v -1656 -984 0
v -1680 -984 0
v -1680 -960 0
v -1656 -960 0
v -1680 -984 0
v -1704 -984 0
v -1704 -960 0
v -1680 -960 0
v -1704 -984 0
v -1728 -984 0
v -1728 -960 0
v -1704 -960 0
v -1728 -984 0
v -1752 -984 0
v -1752 -960 0
v -1728 -960 0
v -1752 -984 0
v -1776 -984 0
v -1776 -960 0
v -1752 -960 0
v -1776 -984 0
v -1800 -984 0
v -1800 -960 0
v -1776 -960 0
v -1800 -984 0
v -1824 -984 0
v -1824 -960 0
v -1800 -960 0
v -1824 -984 0
v -1848 -984 0
v -1848 -960 0
v -1824 -960 0
v -1848 -984 0
v -1872 -984 0
v -1872 -960 0
v -1848 -960 0
v -1872 -984 0
v -1896 -984 0
v -1896 -960 0
v -1872 -960 0
v -1896 -984 0
v -1920 -984 0
v -1920 -960 0
v -1896 -960 0
v -1920 -984 0
v -1944 -984 0
v -1944 -960 0
v -1920 -960 0
v -1368 -1008 0
v -1392 -1008 0
v -1392 -984 0
v -1368 -984 0
v -1392 -1008 0
v -1416 -1008 0
v -1416 -984 0
v -1392 -984 0
v -1416 -1008 0
v -1440 -1008 0
v -1440 -984 0
v -1416 -984 0
v -1440 -1008 0
v -1464 -1008 0
v -1464 -984 0
v -1440 -984 0
v -1464 -1008 0
v -1488 -1008 0
v -1488 -984 0
v -1464 -984 0
v -1488 -1008 0
v -1512 -1008 0
v -1512 -984 0
v -1488 -984 0
v -1512 -1008 0
v -1536 -1008 0
v -1536 -984 0
v -1512 -984 0
v -1536 -1008 0
v -1560 -1008 0
v -1560 -984 0
v -1536 -984 0
v -1560 -1008 0
v -1584 -1008 0
v -1584 -984 0
v -1560 -984 0
v -1584 -1008 0
v -1608 -1008 0
v -1608 -984 0
v -1584 -984 0
v -1608 -1008 0
v -1632 -1008 0
v -1632 -984 0
v -1608 -984 0
v -1632 -1008 0
v -1656 -1008 0
v -1656 -984 0
v -1632 -984 0
v -1656 -1008 0
v -1680 -1008 0
v -1680 -984 0
v -1656 -984 0
v -1680 -1008 0
v -1704 -1008 0
v -1704 -984 0
v -1680 -984 0
v -1704 -1008 0
v -1728 -1008 0
v -1728 -984 0
v -1704 -984 0
v -1728 -1008 0
v -1752 -1008 0
v -1752 -984 0
v -1728 -984 0
v -1752 -1008 0
v -1776 -1008 0
v -1776 -984 0
v -1752 -984 0
v -1776 -1008 0
v -1800 -1008 0
v -1800 -984 0
v -1776 -984 0
v -1800 -1008 0
v -1824 -1008 0
v -1824 -984 0
v -1800 -984 0
v -1824 -1008 0
v -1848 -1008 0
v -1848 -984 0
v -1824 -984 0
v -1848 -1008 0
v -1872 -1008 0
v -1872 -984 0
v -1848 -984 0
v -1872 -1008 0
v -1896 -1008 0
v -1896 -984 0
v -1872 -984 0
v -1896 -1008 0
v -1920 -1008 0
v -1920 -984 0
v -1896 -984 0
v -1920 -1008 0
v -1944 -1008 0
v -1944 -984 0
v -1920 -984 0
v -1368 -1032 0
v -1392 -1032 0
v -1392 -1008 0
v -1368 -1008 0
v -1392 -1032 0
v -1416 -1032 0
v -1416 -1008 0
v -1392 -1008 0
v -1416 -1032 0
v -1440 -1032 0
v -1440 -1008 0
v -1416 -1008 0
v -1440 -1032 0
v -1464 -1032 0
v -1464 -1008 0
v -1440 -1008 0
v -1464 -1032 0
v -1488 -1032 0
v -1488 -1008 0
v -1464 -1008 0
v -1488 -1032 0
v -1512 -1032 0
v -1512 -1008 0
v -1488 -1008 0
v -1512 -1032 0
v -1536 -1032 0
v -1536 -1008 0
v -1512 -1008 0
v -1536 -1032 0
v -1560 -1032 0
v -1560 -1008 0
v -1536 -1008 0
v -1560 -1032 0
v -1584 -1032 0
v -1584 -1008 0
v -1560 -1008 0
v -1584 -1032 0
v -1608 -1032 0
v -1608 -1008 0
v -1584 -1008 0
v -1608 -1032 0
v -1632 -1032 0
v -1632 -1008 0
v -1608 -1008 0
v -1632 -1032 0
v -1656 -1032 0
v -1656 -1008 0
v -1632 -1008 0
v -1656 -1032 0
v -1680 -1032 0
v -1680 -1008 0
v -1656 -1008 0
v -1680 -1032 0
v -1704 -1032 0
v -1704 -1008 0
v -1680 -1008 0
v -1704 -1032 0
v -1728 -1032 0
v -1728 -1008 0
v -1704 -1008 0
v -1728 -1032 0
v -1752 -1032 0
v -1752 -1008 0
v -1728 -1008 0
v -1752 -1032 0
v -1776 -1032 0
v -1776 -1008 0
v -1752 -1008 0
v -1776 -1032 0
v -1800 -1032 0
v -1800 -1008 0
v -1776 -1008 0
v -1800 -1032 0
v -1824 -1032 0
v -1824 -1008 0
v -1800 -1008 0
v -1824 -1032 0
v -1848 -1032 0
v -1848 -1008 0
v -1824 -1008 0
v -1848 -1032 0
v -1872 -1032 0
v -1872 -1008 0
v -1848 -1008 0
v -1872 -1032 0
v -1896 -1032 0
v -1896 -1008 0
v -1872 -1008 0
v -1896 -1032 0
v -1920 -1032 0
v -1920 -1008 0
v -1896 -1008 0
v -1920 -1032 0
v -1944 -1032 0
v -1944 -1008 0
v -1920 -1008 0
v -1368 -1056 0
v -1392 -1056 0
v -1392 -1032 0
v -1368 -1032 0
v -1392 -1056 0
v -1416 -1056 0
v -1416 -1032 0
v -1392 -1032 0
v -1896 -1056 0
v -1920 -1056 0
v -1920 -1032 0
v -1896 -1032 0
v -1920 -1056 0
v -1944 -1056 0
v -1944 -1032 0
v -1920 -1032 0
v -1368 -1080 0
v -1392 -1080 0
v -1392 -1056 0
v -1368 -1056 0
v -1392 -1080 0
v -1416 -1080 0
v -1416 -1056 0
v -1392 -1056 0
v -1896 -1080 0
v -1920 -1080 0
v -1920 -1056 0
v -1896 -1056 0
v -1920 -1080 0
v -1944 -1080 0
v -1944 -1056 0
v -1920 -1056 0
v -1272 -1104 0
v -1296 -1104 0
v -1296 -1080 0
v -1272 -1080 0
v -1296 -1104 0
v -1320 -1104 0
v -1320 -1080 0
v -1296 -1080 0
v -1320 -1104 0
v -1344 -1104 0
v -1344 -1080 0
v -1320 -1080 0
v -1344 -1104 0
v -1368 -1104 0
v -1368 -1080 0
v -1344 -1080 0
v -1368 -1104 0
v -1392 -1104 0
v -1392 -1080 0
v -1368 -1080 0
v -1392 -1104 0
v -1416 -1104 0
v -1416 -1080 0
v -1392 -1080 0
v -1896 -1104 0
v -1920 -1104 0
v -1920 -1080 0
v -1896 -1080 0
v -1920 -1104 0
v -1944 -1104 0
v -1944 -1080 0
v -1920 -1080 0
v -1272 -1128 0
v -1296 -1128 0
v -1296 -1104 0
v -1272 -1104 0
v -1296 -1128 0
v -1320 -1128 0
v -1320 -1104 0
v -1296 -1104 0
v -1320 -1128 0
v -1344 -1128 0
v -1344 -1104 0
v -1320 -1104 0
v -1344 -1128 0
v -1368 -1128 0
v -1368 -1104 0
v -1344 -1104 0
v -1368 -1128 0
v -1392 -1128 0
v -1392 -1104 0
v -1368 -1104 0
v -1392 -1128 0
v -1416 -1128 0
v -1416 -1104 0
v -1392 -1104 0
v -1896 -1128 0
v -1920 -1128 0
v -1920 -1104 0
v -1896 -1104 0
v -1920 -1128 0
v -1944 -1128 0
v -1944 -1104 0
v -1920 -1104 0
v -1272 -1152 0
v -1296 -1152 0
v -1296 -1128 0
v -1272 -1128 0
v -1296 -1152 0
v -1320 -1152 0
v -1320 -1128 0
v -1296 -1128 0
v -1320 -1152 0
v -1344 -1152 0
v -1344 -1128 0
v -1320 -1128 0
v -1344 -1152 0
v -1368 -1152 0
v -1368 -1128 0
v -1344 -1128 0
v -1368 -1152 0
v -1392 -1152 0
v -1392 -1128 0
v -1368 -1128 0
v -1392 -1152 0
v -1416 -1152 0
v -1416 -1128 0
v -1392 -1128 0
v -1896 -1152 0
v -1920 -1152 0
v -1920 -1128 0
v -1896 -1128 0
v -1920 -1152 0
v -1944 -1152 0
v -1944 -1128 0
v -1920 -1128 0
v -1896 -1176 0
v -1920 -1176 0
v -1920 -1152 0
v -1896 -1152 0
v -1920 -1176 0
v -1944 -1176 0
v -1944 -1152 0
v -1920 -1152 0
v -1896 -1200 0
v -1920 -1200 0
v -1920 -1176 0
v -1896 -1176 0
v -1920 -1200 0
v -1944 -1200 0
v -1944 -1176 0
v -1920 -1176 0
v -1896 -1224 0
v -1920 -1224 0
v -1920 -1200 0
v -1896 -1200 0
v -1920 -1224 0
v -1944 -1224 0
v -1944 -1200 0
v -1920 -1200 0
v -1272 -1248 0
v -1296 -1248 0
v -1296 -1224 0
v -1272 -1224 0
v -1296 -1248 0
v -1320 -1248 0
v -1320 -1224 0
v -1296 -1224 0
v -1320 -1248 0
v -1344 -1248 0
v -1344 -1224 0
v -1320 -1224 0
v -1344 -1248 0
v -1368 -1248 0
v -1368 -1224 0
v -1344 -1224 0
v -1368 -1248 0
v -1392 -1248 0
v -1392 -1224 0
v -1368 -1224 0
v -1392 -1248 0
v -1416 -1248 0
v -1416 -1224 0
v -1392 -1224 0
v -1896 -1248 0
v -1920 -1248 0
v -1920 -1224 0
v -1896 -1224 0
v -1920 -1248 0
v -1944 -1248 0
v -1944 -1224 0
v -1920 -1224 0
v -1272 -1272 0
v -1296 -1272 0
v -1296 -1248 0
v -1272 -1248 0
v -1296 -1272 0
v -1320 -1272 0
v -1320 -1248 0
v -1296 -1248 0
v -1320 -1272 0
v -1344 -1272 0
v -1344 -1248 0
v -1320 -1248 0
v -1344 -1272 0
v -1368 -1272 0
v -1368 -1248 0
v -1344 -1248 0
v -1368 -1272 0
v -1392 -1272 0
v -1392 -1248 0
v -1368 -1248 0
v -1392 -1272 0
v -1416 -1272 0
v -1416 -1248 0
v -1392 -1248 0
v -1896 -1272 0
v -1920 -1272 0
v -1920 -1248 0
v -1896 -1248 0
v -1920 -1272 0
v -1944 -1272 0
v -1944 -1248 0
v -1920 -1248 0
v -1272 -1296 0
v -1296 -1296 0
v -1296 -1272 0
v -1272 -1272 0
v -1296 -1296 0
v -1320 -1296 0
v -1320 -1272 0
v -1296 -1272 0
v -1320 -1296 0
v -1344 -1296 0
v -1344 -1272 0
v -1320 -1272 0
v -1344 -1296 0
v -1368 -1296 0
v -1368 -1272 0
v -1344 -1272 0
v -1368 -1296 0
v -1392 -1296 0
v -1392 -1272 0
v -1368 -1272 0
v -1392 -1296 0
v -1416 -1296 0
v -1416 -1272 0
v -1392 -1272 0
v -1896 -1296 0
v -1920 -1296 0
v -1920 -1272 0
v -1896 -1272 0
v -1920 -1296 0
v -1944 -1296 0
v -1944 -1272 0
v -1920 -1272 0
v -1368 -1320 0
v -1392 -1320 0
v -1392 -1296 0
v -1368 -1296 0
v -1392 -1320 0
v -1416 -1320 0
v -1416 -1296 0
v -1392 -1296 0
v -1896 -1320 0
v -1920 -1320 0
v -1920 -1296 0
v -1896 -1296 0
v -1920 -1320 0
v -1944 -1320 0
v -1944 -1296 0
v -1920 -1296 0
v -1368 -1344 0
v -1392 -1344 0
v -1392 -1320 0
v -1368 -1320 0
v -1392 -1344 0
v -1416 -1344 0
v -1416 -1320 0
v -1392 -1320 0
v -1896 -1344 0
v -1920 -1344 0
v -1920 -1320 0
v -1896 -1320 0
v -1920 -1344 0
v -1944 -1344 0
v -1944 -1320 0
v -1920 -1320 0
v -1368 -1368 0
v -1392 -1368 0
v -1392 -1344 0
v -1368 -1344 0
v -1392 -1368 0
v -1416 -1368 0
v -1416 -1344 0
v -1392 -1344 0
v -1416 -1368 0
v -1440 -1368 0
v -1440 -1344 0
v -1416 -1344 0
v -1440 -1368 0
v -1464 -1368 0
v -1464 -1344 0
v -1440 -1344 0
v -1464 -1368 0
v -1488 -1368 0
v -1488 -1344 0
v -1464 -1344 0
v -1488 -1368 0
v -1512 -1368 0
v -1512 -1344 0
v -1488 -1344 0
v -1512 -1368 0
v -1536 -1368 0
v -1536 -1344 0
v -1512 -1344 0
v -1536 -1368 0
v -1560 -1368 0
v -1560 -1344 0
v -1536 -1344 0
v -1560 -1368 0
v -1584 -1368 0
v -1584 -1344 0
v -1560 -1344 0
v -1584 -1368 0
v -1608 -1368 0
v -1608 -1344 0
v -1584 -1344 0
v -1608 -1368 0
v -1632 -1368 0
v -1632 -1344 0
v -1608 -1344 0
v -1632 -1368 0
v -1656 -1368 0
v -1656 -1344 0
v -1632 -1344 0
v -1656 -1368 0
v -1680 -1368 0
v -1680 -1344 0
v -1656 -1344 0
v -1680 -1368 0
v -1704 -1368 0
v -1704 -1344 0
v -1680 -1344 0
v -1704 -1368 0
v -1728 -1368 0
v -1728 -1344 0
v -1704 -1344 0
v -1728 -1368 0
v -1752 -1368 0
v -1752 -1344 0
v -1728 -1344 0
v -1752 -1368 0
v -1776 -1368 0
v -1776 -1344 0
v -1752 -1344 0
v -1776 -1368 0
v -1800 -1368 0
v -1800 -1344 0
v -1776 -1344 0
v -1800 -1368 0
v -1824 -1368 0
v -1824 -1344 0
v -1800 -1344 0
v -1824 -1368 0
v -1848 -1368 0
v -1848 -1344 0
v -1824 -1344 0
v -1848 -1368 0
v -1872 -1368 0
v -1872 -1344 0
v -1848 -1344 0
v -1872 -1368 0
v -1896 -1368 0
v -1896 -1344 0
v -1872 -1344 0
v -1896 -1368 0
v -1920 -1368 0
v -1920 -1344 0
v -1896 -1344 0
v -1920 -1368 0
v -1944 -1368 0
v -1944 -1344 0
v -1920 -1344 0
v -1368 -1392 0
v -1392 -1392 0
v -1392 -1368 0
v -1368 -1368 0
v -1392 -1392 0
v -1416 -1392 0
v -1416 -1368 0
v -1392 -1368 0
v -1416 -1392 0
v -1440 -1392 0
v -1440 -1368 0
v -1416 -1368 0
v -1440 -1392 0
v -1464 -1392 0
v -1464 -1368 0
v -1440 -1368 0
v -1464 -1392 0
v -1488 -1392 0
v -1488 -1368 0
v -1464 -1368 0
v -1488 -1392 0
v -1512 -1392 0
v -1512 -1368 0
v -1488 -1368 0
v -1512 -1392 0
v -1536 -1392 0
v -1536 -1368 0
v -1512 -1368 0
v -1536 -1392 0
v -1560 -1392 0
v -1560 -1368 0
v -1536 -1368 0
v -1560 -1392 0
v -1584 -1392 0
v -1584 -1368 0
v -1560 -1368 0
v -1584 -1392 0
v -1608 -1392 0
v -1608 -1368 0
v -1584 -1368 0
v -1608 -1392 0
v -1632 -1392 0
v -1632 -1368 0
v -1608 -1368 0
v -1632 -1392 0
v -1656 -1392 0
v -1656 -1368 0
v -1632 -1368 0
v -1656 -1392 0
v -1680 -1392 0
v -1680 -1368 0
v -1656 -1368 0
v -1680 -1392 0
v -1704 -1392 0
v -1704 -1368 0
v -1680 -1368 0
v -1704 -1392 0
v -1728 -1392 0
v -1728 -1368 0
v -1704 -1368 0
v -1728 -1392 0
v -1752 -1392 0
v -1752 -1368 0
v -1728 -1368 0
v -1752 -1392 0
v -1776 -1392 0
v -1776 -1368 0
v -1752 -1368 0
v -1776 -1392 0
v -1800 -1392 0
v -1800 -1368 0
v -1776 -1368 0
v -1800 -1392 0
v -1824 -1392 0
v -1824 -1368 0
v -1800 -1368 0
v -1824 -1392 0
v -1848 -1392 0
v -1848 -1368 0
v -1824 -1368 0
v -1848 -1392 0
v -1872 -1392 0
v -1872 -1368 0
v -1848 -1368 0
v -1872 -1392 0
v -1896 -1392 0
v -1896 -1368 0
v -1872 -1368 0
v -1896 -1392 0
v -1920 -1392 0
v -1920 -1368 0
v -1896 -1368 0
v -1920 -1392 0
v -1944 -1392 0
v -1944 -1368 0
v -1920 -1368 0
v -1368 -1416 0
v -1392 -1416 0
v -1392 -1392 0
v -1368 -1392 0
v -1392 -1416 0
v -1416 -1416 0
v -1416 -1392 0
v -1392 -1392 0
v -1416 -1416 0
v -1440 -1416 0
v -1440 -1392 0
v -1416 -1392 0
v -1440 -1416 0
v -1464 -1416 0
v -1464 -1392 0
v -1440 -1392 0
v -1464 -1416 0
v -1488 -1416 0
v -1488 -1392 0
v -1464 -1392 0
v -1488 -1416 0
v -1512 -1416 0
v -1512 -1392 0
v -1488 -1392 0
v -1512 -1416 0
v -1536 -1416 0
v -1536 -1392 0
v -1512 -1392 0
v -1536 -1416 0
v -1560 -1416 0
v -1560 -1392 0
v -1536 -1392 0
v -1560 -1416 0
v -1584 -1416 0
v -1584 -1392 0
v -1560 -1392 0
v -1584 -1416 0
v -1608 -1416 0
v -1608 -1392 0
v -1584 -1392 0
v -1608 -1416 0
v -1632 -1416 0
v -1632 -1392 0
v -1608 -1392 0
v -1632 -1416 0
v -1656 -1416 0
v -1656 -1392 0
v -1632 -1392 0
v -1656 -1416 0
v -1680 -1416 0
v -1680 -1392 0
v -1656 -1392 0
v -1680 -1416 0
v -1704 -1416 0
v -1704 -1392 0
v -1680 -1392 0
v -1704 -1416 0
v -1728 -1416 0
v -1728 -1392 0
v -1704 -1392 0
v -1728 -1416 0
v -1752 -1416 0
v -1752 -1392 0
v -1728 -1392 0
v -1752 -1416 0
v -1776 -1416 0
v -1776 -1392 0
v -1752 -1392 0
v -1776 -1416 0
v -1800 -1416 0
v -1800 -1392 0
v -1776 -1392 0
v -1800 -1416 0
v -1824 -1416 0
v -1824 -1392 0
v -1800 -1392 0
v -1824 -1416 0
v -1848 -1416 0
v -1848 -1392 0
v -1824 -1392 0
v -1848 -1416 0
v -1872 -1416 0
v -1872 -1392 0
v -1848 -1392 0
v -1872 -1416 0
v -1896 -1416 0
v -1896 -1392 0
v -1872 -1392 0
v -1896 -1416 0
v -1920 -1416 0
v -1920 -1392 0
v -1896 -1392 0
v -1920 -1416 0
v -1944 -1416 0
v -1944 -1392 0
v -1920 -1392 0

# Texture cooridinates (Count = 43)
vt 0.125 0.8666667
vt 0.15625 0.8666667
vt 0.15625 0.9
vt 0.125 0.9
vt 0.1875 0.8666667
vt 0.21875 0.8666667
vt 0.21875 0.9
vt 0.1875 0.9
vt 0.1875 0.8
vt 0.21875 0.8
vt 0.21875 0.8333333
vt 0.1875 0.8333333
vt 0.15625 0.8
vt 0.15625 0.8333333
vt 0.25 0.8666667
vt 0.25 0.9
vt 0.25 0.8333333
vt 0.125 0.7
vt 0.15625 0.7
vt 0.15625 0.7333333
vt 0.125 0.7333333
vt 0.1875 0.7
vt 0.1875 0.7333333
vt 0.21875 0.7
vt 0.21875 0.7333333
vt 0.1875 0.7666667
vt 0.15625 0.7666667
vt 0.21875 0.7666667
vt 0.25 0.7
vt 0.25 0.7333333
vt 0.125 0.8333333
vt 0.125 0.6666666
vt 0.15625 0.6666666
vt 0.1875 0.6666666
vt 0.21875 0.6666666
vt 0.25 0.6666666
vt 0.25 0.8
vt 0.125 0.9333333
vt 0.15625 0.9333333
vt 0.15625 0.9666666
vt 0.125 0.9666666
vt 0.125 0.7666667
vt 0.25 0.7666667

# Normal
vn 0 0 -1

# Mesh description
g SalleW_mesh_0001

# Faces
f 1/1/1 2/2/1 3/3/1 4/4/1
f 5/5/1 6/6/1 7/7/1 8/8/1
f 9/9/1 10/10/1 11/11/1 12/12/1
f 13/2/1 14/5/1 15/8/1 16/3/1
f 17/5/1 18/6/1 19/7/1 20/8/1
f 21/2/1 22/5/1 23/8/1 24/3/1
f 25/5/1 26/6/1 27/7/1 28/8/1
f 29/2/1 30/5/1 31/8/1 32/3/1
f 33/5/1 34/6/1 35/7/1 36/8/1
f 37/13/1 38/9/1 39/12/1 40/14/1
f 41/9/1 42/10/1 43/11/1 44/12/1
f 45/13/1 46/9/1 47/12/1 48/14/1
f 49/9/1 50/10/1 51/11/1 52/12/1
f 53/13/1 54/9/1 55/12/1 56/14/1
f 57/9/1 58/10/1 59/11/1 60/12/1
f 61/2/1 62/5/1 63/8/1 64/3/1
f 65/5/1 66/6/1 67/7/1 68/8/1
f 69/2/1 70/5/1 71/8/1 72/3/1
f 73/5/1 74/6/1 75/7/1 76/8/1
f 77/2/1 78/5/1 79/8/1 80/3/1
f 81/5/1 82/6/1 83/7/1 84/8/1
f 85/5/1 86/6/1 87/7/1 88/8/1
f 89/5/1 90/6/1 91/7/1 92/8/1
f 93/6/1 94/15/1 95/16/1 96/7/1
f 97/1/1 98/2/1 99/3/1 100/4/1
f 101/11/1 102/17/1 103/15/1 104/6/1
f 105/18/1 106/19/1 107/20/1 108/21/1
f 109/19/1 110/22/1 111/23/1 112/20/1
f 113/19/1 114/22/1 115/23/1 116/20/1
f 117/22/1 118/24/1 119/25/1 120/23/1
f 121/19/1 122/22/1 123/23/1 124/20/1
f 125/22/1 126/24/1 127/25/1 128/23/1
f 129/19/1 130/22/1 131/23/1 132/20/1
f 133/20/1 134/23/1 135/26/1 136/27/1
f 137/23/1 138/25/1 139/28/1 140/26/1
f 141/20/1 142/23/1 143/26/1 144/27/1
f 145/23/1 146/25/1 147/28/1 148/26/1
f 149/20/1 150/23/1 151/26/1 152/27/1
f 153/23/1 154/25/1 155/28/1 156/26/1
f 157/22/1 158/24/1 159/25/1 160/23/1
f 161/19/1 162/22/1 163/23/1 164/20/1
f 165/22/1 166/24/1 167/25/1 168/23/1
f 169/19/1 170/22/1 171/23/1 172/20/1
f 173/19/1 174/22/1 175/23/1 176/20/1
f 177/22/1 178/24/1 179/25/1 180/23/1
f 181/24/1 182/29/1 183/30/1 184/25/1
f 185/31/1 186/14/1 187/2/1 188/1/1
f 189/11/1 190/17/1 191/15/1 192/6/1
f 193/31/1 194/14/1 195/2/1 196/1/1
f 197/6/1 198/15/1 199/16/1 200/7/1
f 201/32/1 202/33/1 203/19/1 204/18/1
f 205/33/1 206/34/1 207/22/1 208/19/1
f 209/33/1 210/34/1 211/22/1 212/19/1
f 213/34/1 214/35/1 215/24/1 216/22/1
f 217/33/1 218/34/1 219/22/1 220/19/1
f 221/34/1 222/35/1 223/24/1 224/22/1
f 225/33/1 226/34/1 227/22/1 228/19/1
f 229/33/1 230/34/1 231/22/1 232/19/1
f 233/34/1 234/35/1 235/24/1 236/22/1
f 237/33/1 238/34/1 239/22/1 240/19/1
f 241/34/1 242/35/1 243/24/1 244/22/1
f 245/33/1 246/34/1 247/22/1 248/19/1
f 249/34/1 250/35/1 251/24/1 252/22/1
f 253/34/1 254/35/1 255/24/1 256/22/1
f 257/33/1 258/34/1 259/22/1 260/19/1
f 261/34/1 262/35/1 263/24/1 264/22/1
f 265/33/1 266/34/1 267/22/1 268/19/1
f 269/33/1 270/34/1 271/22/1 272/19/1
f 273/34/1 274/35/1 275/24/1 276/22/1
f 277/35/1 278/36/1 279/29/1 280/24/1
f 281/1/1 282/2/1 283/3/1 284/4/1
f 285/6/1 286/15/1 287/16/1 288/7/1
f 289/1/1 290/2/1 291/3/1 292/4/1
f 293/11/1 294/17/1 295/15/1 296/6/1
f 297/31/1 298/14/1 299/2/1 300/1/1
f 301/11/1 302/17/1 303/15/1 304/6/1
f 305/14/1 306/12/1 307/5/1 308/2/1
f 309/6/1 310/15/1 311/16/1 312/7/1
f 313/1/1 314/2/1 315/3/1 316/4/1
f 317/6/1 318/15/1 319/16/1 320/7/1
f 321/13/1 322/9/1 323/12/1 324/14/1
f 325/13/1 326/9/1 327/12/1 328/14/1
f 329/9/1 330/10/1 331/11/1 332/12/1
f 333/13/1 334/9/1 335/12/1 336/14/1
f 337/9/1 338/10/1 339/11/1 340/12/1
f 341/10/1 342/37/1 343/17/1 344/11/1
f 345/1/1 346/2/1 347/3/1 348/4/1
f 349/11/1 350/17/1 351/15/1 352/6/1
f 353/26/1 354/28/1 355/10/1 356/9/1
f 357/27/1 358/26/1 359/9/1 360/13/1
f 361/26/1 362/28/1 363/10/1 364/9/1
f 365/19/1 366/22/1 367/23/1 368/20/1
f 369/22/1 370/24/1 371/25/1 372/23/1
f 373/27/1 374/26/1 375/9/1 376/13/1
f 377/1/1 378/2/1 379/3/1 380/4/1
f 381/11/1 382/17/1 383/15/1 384/6/1
f 385/34/1 386/35/1 387/24/1 388/22/1
f 389/33/1 390/34/1 391/22/1 392/19/1
f 393/34/1 394/35/1 395/24/1 396/22/1
f 397/33/1 398/34/1 399/22/1 400/19/1
f 401/34/1 402/35/1 403/24/1 404/22/1
f 405/33/1 406/34/1 407/22/1 408/19/1
f 409/31/1 410/14/1 411/2/1 412/1/1
f 413/6/1 414/15/1 415/16/1 416/7/1
f 417/1/1 418/2/1 419/3/1 420/4/1
f 421/11/1 422/17/1 423/15/1 424/6/1
f 425/1/1 426/2/1 427/3/1 428/4/1
f 429/6/1 430/15/1 431/16/1 432/7/1
f 433/31/1 434/14/1 435/2/1 436/1/1
f 437/11/1 438/17/1 439/15/1 440/6/1
f 441/9/1 442/10/1 443/11/1 444/12/1
f 445/13/1 446/9/1 447/12/1 448/14/1
f 449/9/1 450/10/1 451/11/1 452/12/1
f 453/13/1 454/9/1 455/12/1 456/14/1
f 457/2/1 458/5/1 459/8/1 460/3/1
f 461/6/1 462/15/1 463/16/1 464/7/1
f 465/31/1 466/14/1 467/2/1 468/1/1
f 469/6/1 470/15/1 471/16/1 472/7/1
f 473/27/1 474/26/1 475/9/1 476/13/1
f 477/27/1 478/26/1 479/9/1 480/13/1
f 481/26/1 482/28/1 483/10/1 484/9/1
f 485/27/1 486/26/1 487/9/1 488/13/1
f 489/1/1 490/2/1 491/3/1 492/4/1
f 493/11/1 494/17/1 495/15/1 496/6/1
f 497/1/1 498/2/1 499/3/1 500/4/1
f 501/6/1 502/15/1 503/16/1 504/7/1
f 505/32/1 506/33/1 507/19/1 508/18/1
f 509/33/1 510/34/1 511/22/1 512/19/1
f 513/34/1 514/35/1 515/24/1 516/22/1
f 517/33/1 518/34/1 519/22/1 520/19/1
f 521/1/1 522/2/1 523/3/1 524/4/1
f 525/11/1 526/17/1 527/15/1 528/6/1
f 529/31/1 530/14/1 531/2/1 532/1/1
f 533/11/1 534/17/1 535/15/1 536/6/1
f 537/31/1 538/14/1 539/2/1 540/1/1
f 541/6/1 542/15/1 543/16/1 544/7/1
f 545/1/1 546/2/1 547/3/1 548/4/1
f 549/6/1 550/15/1 551/16/1 552/7/1
f 553/1/1 554/2/1 555/3/1 556/4/1
f 557/2/1 558/5/1 559/8/1 560/3/1
f 561/2/1 562/5/1 563/8/1 564/3/1
f 565/11/1 566/17/1 567/15/1 568/6/1
f 569/38/1 570/39/1 571/40/1 572/41/1
f 573/13/1 574/9/1 575/12/1 576/14/1
f 577/9/1 578/10/1 579/11/1 580/12/1
f 581/13/1 582/9/1 583/12/1 584/14/1
f 585/9/1 586/10/1 587/11/1 588/12/1
f 589/13/1 590/9/1 591/12/1 592/14/1
f 593/9/1 594/10/1 595/11/1 596/12/1
f 597/13/1 598/9/1 599/12/1 600/14/1
f 601/9/1 602/10/1 603/11/1 604/12/1
f 605/13/1 606/9/1 607/12/1 608/14/1
f 609/9/1 610/10/1 611/11/1 612/12/1
f 613/13/1 614/9/1 615/12/1 616/14/1
f 617/9/1 618/10/1 619/11/1 620/12/1
f 621/13/1 622/9/1 623/12/1 624/14/1
f 625/9/1 626/10/1 627/11/1 628/12/1
f 629/13/1 630/9/1 631/12/1 632/14/1
f 633/9/1 634/10/1 635/11/1 636/12/1
f 637/13/1 638/9/1 639/12/1 640/14/1
f 641/9/1 642/10/1 643/11/1 644/12/1
f 645/13/1 646/9/1 647/12/1 648/14/1
f 649/9/1 650/10/1 651/11/1 652/12/1
f 653/13/1 654/9/1 655/12/1 656/14/1
f 657/9/1 658/10/1 659/11/1 660/12/1
f 661/10/1 662/37/1 663/17/1 664/11/1
f 665/21/1 666/20/1 667/27/1 668/42/1
f 669/20/1 670/23/1 671/26/1 672/27/1
f 673/23/1 674/25/1 675/28/1 676/26/1
f 677/20/1 678/23/1 679/26/1 680/27/1
f 681/23/1 682/25/1 683/28/1 684/26/1
f 685/20/1 686/23/1 687/26/1 688/27/1
f 689/23/1 690/25/1 691/28/1 692/26/1
f 693/20/1 694/23/1 695/26/1 696/27/1
f 697/23/1 698/25/1 699/28/1 700/26/1
f 701/20/1 702/23/1 703/26/1 704/27/1
f 705/23/1 706/25/1 707/28/1 708/26/1
f 709/20/1 710/23/1 711/26/1 712/27/1
f 713/23/1 714/25/1 715/28/1 716/26/1
f 717/20/1 718/23/1 719/26/1 720/27/1
f 721/23/1 722/25/1 723/28/1 724/26/1
f 725/20/1 726/23/1 727/26/1 728/27/1
f 729/23/1 730/25/1 731/28/1 732/26/1
f 733/20/1 734/23/1 735/26/1 736/27/1
f 737/23/1 738/25/1 739/28/1 740/26/1
f 741/20/1 742/23/1 743/26/1 744/27/1
f 745/23/1 746/25/1 747/28/1 748/26/1
f 749/20/1 750/23/1 751/26/1 752/27/1
f 753/23/1 754/25/1 755/28/1 756/26/1
f 757/25/1 758/30/1 759/43/1 760/28/1
f 761/32/1 762/33/1 763/19/1 764/18/1
f 765/33/1 766/34/1 767/22/1 768/19/1
f 769/34/1 770/35/1 771/24/1 772/22/1
f 773/33/1 774/34/1 775/22/1 776/19/1
f 777/34/1 778/35/1 779/24/1 780/22/1
f 781/33/1 782/34/1 783/22/1 784/19/1
f 785/34/1 786/35/1 787/24/1 788/22/1
f 789/33/1 790/34/1 791/22/1 792/19/1
f 793/34/1 794/35/1 795/24/1 796/22/1
f 797/33/1 798/34/1 799/22/1 800/19/1
f 801/34/1 802/35/1 803/24/1 804/22/1
f 805/33/1 806/34/1 807/22/1 808/19/1
f 809/34/1 810/35/1 811/24/1 812/22/1
f 813/33/1 814/34/1 815/22/1 816/19/1
f 817/34/1 818/35/1 819/24/1 820/22/1
f 821/33/1 822/34/1 823/22/1 824/19/1
f 825/34/1 826/35/1 827/24/1 828/22/1
f 829/33/1 830/34/1 831/22/1 832/19/1
f 833/34/1 834/35/1 835/24/1 836/22/1
f 837/33/1 838/34/1 839/22/1 840/19/1
f 841/34/1 842/35/1 843/24/1 844/22/1
f 845/33/1 846/34/1 847/22/1 848/19/1
f 849/34/1 850/35/1 851/24/1 852/22/1
f 853/35/1 854/36/1 855/29/1 856/24/1

