# Tiled2Unity generated file. Do not modify by hand.
# Wavefront file for 'SalleW_mesh_0004.obj'

# Vertices (Count = 256)
v -1536 -1008 0
v -1560 -1008 0
v -1560 -984 0
v -1536 -984 0
v -1560 -1008 0
v -1584 -1008 0
v -1584 -984 0
v -1560 -984 0
v -1752 -1008 0
v -1776 -1008 0
v -1776 -984 0
v -1752 -984 0
v -1776 -1008 0
v -1800 -1008 0
v -1800 -984 0
v -1776 -984 0
v -1536 -1032 0
v -1560 -1032 0
v -1560 -1008 0
v -1536 -1008 0
v -1560 -1032 0
v -1584 -1032 0
v -1584 -1008 0
v -1560 -1008 0
v -1752 -1032 0
v -1776 -1032 0
v -1776 -1008 0
v -1752 -1008 0
v -1776 -1032 0
v -1800 -1032 0
v -1800 -1008 0
v -1776 -1008 0
v -1416 -1056 0
v -1440 -1056 0
v -1440 -1032 0
v -1416 -1032 0
v -1440 -1056 0
v -1464 -1056 0
v -1464 -1032 0
v -1440 -1032 0
v -1560 -1056 0
v -1584 -1056 0
v -1584 -1032 0
v -1560 -1032 0
v -1584 -1056 0
v -1608 -1056 0
v -1608 -1032 0
v -1584 -1032 0
v -1416 -1080 0
v -1440 -1080 0
v -1440 -1056 0
v -1416 -1056 0
v -1440 -1080 0
v -1464 -1080 0
v -1464 -1056 0
v -1440 -1056 0
v -1560 -1080 0
v -1584 -1080 0
v -1584 -1056 0
v -1560 -1056 0
v -1584 -1080 0
v -1608 -1080 0
v -1608 -1056 0
v -1584 -1056 0
v -1800 -1080 0
v -1824 -1080 0
v -1824 -1056 0
v -1800 -1056 0
v -1824 -1080 0
v -1848 -1080 0
v -1848 -1056 0
v -1824 -1056 0
v -1800 -1104 0
v -1824 -1104 0
v -1824 -1080 0
v -1800 -1080 0
v -1824 -1104 0
v -1848 -1104 0
v -1848 -1080 0
v -1824 -1080 0
v -1824 -1128 0
v -1848 -1128 0
v -1848 -1104 0
v -1824 -1104 0
v -1848 -1128 0
v -1872 -1128 0
v -1872 -1104 0
v -1848 -1104 0
v -1536 -1152 0
v -1560 -1152 0
v -1560 -1128 0
v -1536 -1128 0
v -1560 -1152 0
v -1584 -1152 0
v -1584 -1128 0
v -1560 -1128 0
v -1824 -1152 0
v -1848 -1152 0
v -1848 -1128 0
v -1824 -1128 0
v -1848 -1152 0
v -1872 -1152 0
v -1872 -1128 0
v -1848 -1128 0
v -1536 -1176 0
v -1560 -1176 0
v -1560 -1152 0
v -1536 -1152 0
v -1560 -1176 0
v -1584 -1176 0
v -1584 -1152 0
v -1560 -1152 0
v -1848 -1176 0
v -1872 -1176 0
v -1872 -1152 0
v -1848 -1152 0
v -1872 -1176 0
v -1896 -1176 0
v -1896 -1152 0
v -1872 -1152 0
v -1464 -1200 0
v -1488 -1200 0
v -1488 -1176 0
v -1464 -1176 0
v -1488 -1200 0
v -1512 -1200 0
v -1512 -1176 0
v -1488 -1176 0
v -1560 -1200 0
v -1584 -1200 0
v -1584 -1176 0
v -1560 -1176 0
v -1584 -1200 0
v -1608 -1200 0
v -1608 -1176 0
v -1584 -1176 0
v -1848 -1200 0
v -1872 -1200 0
v -1872 -1176 0
v -1848 -1176 0
v -1872 -1200 0
v -1896 -1200 0
v -1896 -1176 0
v -1872 -1176 0
v -1464 -1224 0
v -1488 -1224 0
v -1488 -1200 0
v -1464 -1200 0
v -1488 -1224 0
v -1512 -1224 0
v -1512 -1200 0
v -1488 -1200 0
v -1560 -1224 0
v -1584 -1224 0
v -1584 -1200 0
v -1560 -1200 0
v -1584 -1224 0
v -1608 -1224 0
v -1608 -1200 0
v -1584 -1200 0
v -1680 -1224 0
v -1704 -1224 0
v -1704 -1200 0
v -1680 -1200 0
v -1704 -1224 0
v -1728 -1224 0
v -1728 -1200 0
v -1704 -1200 0
v -1632 -1248 0
v -1656 -1248 0
v -1656 -1224 0
v -1632 -1224 0
v -1656 -1248 0
v -1680 -1248 0
v -1680 -1224 0
v -1656 -1224 0
v -1680 -1248 0
v -1704 -1248 0
v -1704 -1224 0
v -1680 -1224 0
v -1704 -1248 0
v -1728 -1248 0
v -1728 -1224 0
v -1704 -1224 0
v -1536 -1272 0
v -1560 -1272 0
v -1560 -1248 0
v -1536 -1248 0
v -1560 -1272 0
v -1584 -1272 0
v -1584 -1248 0
v -1560 -1248 0
v -1632 -1272 0
v -1656 -1272 0
v -1656 -1248 0
v -1632 -1248 0
v -1656 -1272 0
v -1680 -1272 0
v -1680 -1248 0
v -1656 -1248 0
v -1536 -1296 0
v -1560 -1296 0
v -1560 -1272 0
v -1536 -1272 0
v -1560 -1296 0
v -1584 -1296 0
v -1584 -1272 0
v -1560 -1272 0
v -1440 -1392 0
v -1464 -1392 0
v -1464 -1368 0
v -1440 -1368 0
v -1464 -1392 0
v -1488 -1392 0
v -1488 -1368 0
v -1464 -1368 0
v -1632 -1392 0
v -1656 -1392 0
v -1656 -1368 0
v -1632 -1368 0
v -1656 -1392 0
v -1680 -1392 0
v -1680 -1368 0
v -1656 -1368 0
v -1728 -1392 0
v -1752 -1392 0
v -1752 -1368 0
v -1728 -1368 0
v -1752 -1392 0
v -1776 -1392 0
v -1776 -1368 0
v -1752 -1368 0
v -1440 -1416 0
v -1464 -1416 0
v -1464 -1392 0
v -1440 -1392 0
v -1464 -1416 0
v -1488 -1416 0
v -1488 -1392 0
v -1464 -1392 0
v -1632 -1416 0
v -1656 -1416 0
v -1656 -1392 0
v -1632 -1392 0
v -1656 -1416 0
v -1680 -1416 0
v -1680 -1392 0
v -1656 -1392 0
v -1728 -1416 0
v -1752 -1416 0
v -1752 -1392 0
v -1728 -1392 0
v -1752 -1416 0
v -1776 -1416 0
v -1776 -1392 0
v -1752 -1392 0

# Texture cooridinates (Count = 38)
vt 0.6875 0.46875
vt 0.71875 0.46875
vt 0.71875 0.5
vt 0.6875 0.5
vt 0.75 0.46875
vt 0.75 0.5
vt 0.6875 0.4375
vt 0.71875 0.4375
vt 0.75 0.4375
vt 0.125 0.28125
vt 0.15625 0.28125
vt 0.15625 0.3125
vt 0.125 0.3125
vt 0.1875 0.28125
vt 0.1875 0.3125
vt 0.0625 0.28125
vt 0.09375 0.28125
vt 0.09375 0.3125
vt 0.0625 0.3125
vt 0.125 0.25
vt 0.15625 0.25
vt 0.1875 0.25
vt 0.0625 0.25
vt 0.09375 0.25
vt 0.25 0.34375
vt 0.28125 0.34375
vt 0.28125 0.375
vt 0.25 0.375
vt 0.3125 0.34375
vt 0.3125 0.375
vt 0.25 0.3125
vt 0.28125 0.3125
vt 0.3125 0.3125
vt 0.21875 0.28125
vt 0.21875 0.3125
vt 0.25 0.28125
vt 0.21875 0.25
vt 0.25 0.25

# Normal
vn 0 0 -1

# Mesh description
g SalleW_mesh_0004

# Faces
f 1/1/1 2/2/1 3/3/1 4/4/1
f 5/2/1 6/5/1 7/6/1 8/3/1
f 9/1/1 10/2/1 11/3/1 12/4/1
f 13/2/1 14/5/1 15/6/1 16/3/1
f 17/7/1 18/8/1 19/2/1 20/1/1
f 21/8/1 22/9/1 23/5/1 24/2/1
f 25/7/1 26/8/1 27/2/1 28/1/1
f 29/8/1 30/9/1 31/5/1 32/2/1
f 33/10/1 34/11/1 35/12/1 36/13/1
f 37/11/1 38/14/1 39/15/1 40/12/1
f 41/16/1 42/17/1 43/18/1 44/19/1
f 45/17/1 46/10/1 47/13/1 48/18/1
f 49/20/1 50/21/1 51/11/1 52/10/1
f 53/21/1 54/22/1 55/14/1 56/11/1
f 57/23/1 58/24/1 59/17/1 60/16/1
f 61/24/1 62/20/1 63/10/1 64/17/1
f 65/16/1 66/17/1 67/18/1 68/19/1
f 69/17/1 70/10/1 71/13/1 72/18/1
f 73/23/1 74/24/1 75/17/1 76/16/1
f 77/24/1 78/20/1 79/10/1 80/17/1
f 81/25/1 82/26/1 83/27/1 84/28/1
f 85/26/1 86/29/1 87/30/1 88/27/1
f 89/10/1 90/11/1 91/12/1 92/13/1
f 93/11/1 94/14/1 95/15/1 96/12/1
f 97/31/1 98/32/1 99/26/1 100/25/1
f 101/32/1 102/33/1 103/29/1 104/26/1
f 105/20/1 106/21/1 107/11/1 108/10/1
f 109/21/1 110/22/1 111/14/1 112/11/1
f 113/16/1 114/17/1 115/18/1 116/19/1
f 117/17/1 118/10/1 119/13/1 120/18/1
f 121/10/1 122/11/1 123/12/1 124/13/1
f 125/11/1 126/14/1 127/15/1 128/12/1
f 129/14/1 130/34/1 131/35/1 132/15/1
f 133/34/1 134/36/1 135/31/1 136/35/1
f 137/23/1 138/24/1 139/17/1 140/16/1
f 141/24/1 142/20/1 143/10/1 144/17/1
f 145/20/1 146/21/1 147/11/1 148/10/1
f 149/21/1 150/22/1 151/14/1 152/11/1
f 153/22/1 154/37/1 155/34/1 156/14/1
f 157/37/1 158/38/1 159/36/1 160/34/1
f 161/10/1 162/11/1 163/12/1 164/13/1
f 165/11/1 166/14/1 167/15/1 168/12/1
f 169/14/1 170/34/1 171/35/1 172/15/1
f 173/34/1 174/36/1 175/31/1 176/35/1
f 177/20/1 178/21/1 179/11/1 180/10/1
f 181/21/1 182/22/1 183/14/1 184/11/1
f 185/16/1 186/17/1 187/18/1 188/19/1
f 189/17/1 190/10/1 191/13/1 192/18/1
f 193/22/1 194/37/1 195/34/1 196/14/1
f 197/37/1 198/38/1 199/36/1 200/34/1
f 201/23/1 202/24/1 203/17/1 204/16/1
f 205/24/1 206/20/1 207/10/1 208/17/1
f 209/1/1 210/2/1 211/3/1 212/4/1
f 213/2/1 214/5/1 215/6/1 216/3/1
f 217/1/1 218/2/1 219/3/1 220/4/1
f 221/2/1 222/5/1 223/6/1 224/3/1
f 225/1/1 226/2/1 227/3/1 228/4/1
f 229/2/1 230/5/1 231/6/1 232/3/1
f 233/7/1 234/8/1 235/2/1 236/1/1
f 237/8/1 238/9/1 239/5/1 240/2/1
f 241/7/1 242/8/1 243/2/1 244/1/1
f 245/8/1 246/9/1 247/5/1 248/2/1
f 249/7/1 250/8/1 251/2/1 252/1/1
f 253/8/1 254/9/1 255/5/1 256/2/1

