# Tiled2Unity generated file. Do not modify by hand.
# Wavefront file for 'SalleNE-SF_mesh_0002.obj'

# Vertices (Count = 48)
v -1776 -1008 0
v -1800 -1008 0
v -1800 -984 0
v -1776 -984 0
v -1800 -1008 0
v -1824 -1008 0
v -1824 -984 0
v -1800 -984 0
v -1776 -1032 0
v -1800 -1032 0
v -1800 -1008 0
v -1776 -1008 0
v -1800 -1032 0
v -1824 -1032 0
v -1824 -1008 0
v -1800 -1008 0
v -1464 -1128 0
v -1488 -1128 0
v -1488 -1104 0
v -1464 -1104 0
v -1488 -1128 0
v -1512 -1128 0
v -1512 -1104 0
v -1488 -1104 0
v -1464 -1152 0
v -1488 -1152 0
v -1488 -1128 0
v -1464 -1128 0
v -1488 -1152 0
v -1512 -1152 0
v -1512 -1128 0
v -1488 -1128 0
v -1656 -1248 0
v -1680 -1248 0
v -1680 -1224 0
v -1656 -1224 0
v -1680 -1248 0
v -1704 -1248 0
v -1704 -1224 0
v -1680 -1224 0
v -1656 -1272 0
v -1680 -1272 0
v -1680 -1248 0
v -1656 -1248 0
v -1680 -1272 0
v -1704 -1272 0
v -1704 -1248 0
v -1680 -1248 0

# Texture cooridinates (Count = 18)
vt 0.75 0.90625
vt 0.78125 0.90625
vt 0.78125 0.9375
vt 0.75 0.9375
vt 0.8125 0.90625
vt 0.8125 0.9375
vt 0.75 0.875
vt 0.78125 0.875
vt 0.8125 0.875
vt 0.25 0.15625
vt 0.28125 0.15625
vt 0.28125 0.1875
vt 0.25 0.1875
vt 0.3125 0.15625
vt 0.3125 0.1875
vt 0.25 0.125
vt 0.28125 0.125
vt 0.3125 0.125

# Normal
vn 0 0 -1

# Mesh description
g SalleNE-SF_mesh_0002

# Faces
f 1/1/1 2/2/1 3/3/1 4/4/1
f 5/2/1 6/5/1 7/6/1 8/3/1
f 9/7/1 10/8/1 11/2/1 12/1/1
f 13/8/1 14/9/1 15/5/1 16/2/1
f 17/10/1 18/11/1 19/12/1 20/13/1
f 21/11/1 22/14/1 23/15/1 24/12/1
f 25/16/1 26/17/1 27/11/1 28/10/1
f 29/17/1 30/18/1 31/14/1 32/11/1
f 33/10/1 34/11/1 35/12/1 36/13/1
f 37/11/1 38/14/1 39/15/1 40/12/1
f 41/16/1 42/17/1 43/11/1 44/10/1
f 45/17/1 46/18/1 47/14/1 48/11/1

