# Tiled2Unity generated file. Do not modify by hand.
# Wavefront file for 'SalleSE_mesh_0005.obj'

# Vertices (Count = 80)
v -1560 -1080 0
v -1584 -1080 0
v -1584 -1056 0
v -1560 -1056 0
v -1584 -1080 0
v -1608 -1080 0
v -1608 -1056 0
v -1584 -1056 0
v -1560 -1104 0
v -1584 -1104 0
v -1584 -1080 0
v -1560 -1080 0
v -1584 -1104 0
v -1608 -1104 0
v -1608 -1080 0
v -1584 -1080 0
v -1800 -1152 0
v -1824 -1152 0
v -1824 -1128 0
v -1800 -1128 0
v -1824 -1152 0
v -1848 -1152 0
v -1848 -1128 0
v -1824 -1128 0
v -1800 -1176 0
v -1824 -1176 0
v -1824 -1152 0
v -1800 -1152 0
v -1824 -1176 0
v -1848 -1176 0
v -1848 -1152 0
v -1824 -1152 0
v -1440 -1200 0
v -1464 -1200 0
v -1464 -1176 0
v -1440 -1176 0
v -1464 -1200 0
v -1488 -1200 0
v -1488 -1176 0
v -1464 -1176 0
v -1440 -1224 0
v -1464 -1224 0
v -1464 -1200 0
v -1440 -1200 0
v -1464 -1224 0
v -1488 -1224 0
v -1488 -1200 0
v -1464 -1200 0
v -1584 -1272 0
v -1608 -1272 0
v -1608 -1248 0
v -1584 -1248 0
v -1608 -1272 0
v -1632 -1272 0
v -1632 -1248 0
v -1608 -1248 0
v -1584 -1296 0
v -1608 -1296 0
v -1608 -1272 0
v -1584 -1272 0
v -1608 -1296 0
v -1632 -1296 0
v -1632 -1272 0
v -1608 -1272 0
v -1776 -1296 0
v -1800 -1296 0
v -1800 -1272 0
v -1776 -1272 0
v -1800 -1296 0
v -1824 -1296 0
v -1824 -1272 0
v -1800 -1272 0
v -1776 -1320 0
v -1800 -1320 0
v -1800 -1296 0
v -1776 -1296 0
v -1800 -1320 0
v -1824 -1320 0
v -1824 -1296 0
v -1800 -1296 0

# Texture cooridinates (Count = 15)
vt 0.125 0.28125
vt 0.15625 0.28125
vt 0.15625 0.3125
vt 0.125 0.3125
vt 0.1875 0.28125
vt 0.1875 0.3125
vt 0.125 0.25
vt 0.15625 0.25
vt 0.1875 0.25
vt 0.21875 0.28125
vt 0.21875 0.3125
vt 0.25 0.28125
vt 0.25 0.3125
vt 0.21875 0.25
vt 0.25 0.25

# Normal
vn 0 0 -1

# Mesh description
g SalleSE_mesh_0005

# Faces
f 1/1/1 2/2/1 3/3/1 4/4/1
f 5/2/1 6/5/1 7/6/1 8/3/1
f 9/7/1 10/8/1 11/2/1 12/1/1
f 13/8/1 14/9/1 15/5/1 16/2/1
f 17/1/1 18/2/1 19/3/1 20/4/1
f 21/2/1 22/5/1 23/6/1 24/3/1
f 25/7/1 26/8/1 27/2/1 28/1/1
f 29/8/1 30/9/1 31/5/1 32/2/1
f 33/5/1 34/10/1 35/11/1 36/6/1
f 37/10/1 38/12/1 39/13/1 40/11/1
f 41/9/1 42/14/1 43/10/1 44/5/1
f 45/14/1 46/15/1 47/12/1 48/10/1
f 49/1/1 50/2/1 51/3/1 52/4/1
f 53/2/1 54/5/1 55/6/1 56/3/1
f 57/7/1 58/8/1 59/2/1 60/1/1
f 61/8/1 62/9/1 63/5/1 64/2/1
f 65/5/1 66/10/1 67/11/1 68/6/1
f 69/10/1 70/12/1 71/13/1 72/11/1
f 73/9/1 74/14/1 75/10/1 76/5/1
f 77/14/1 78/15/1 79/12/1 80/10/1

