# Tiled2Unity generated file. Do not modify by hand.
# Wavefront file for 'SalleSE_mesh_0003.obj'

# Vertices (Count = 80)
v -1512 -1008 0
v -1536 -1008 0
v -1536 -984 0
v -1512 -984 0
v -1536 -1008 0
v -1560 -1008 0
v -1560 -984 0
v -1536 -984 0
v -1632 -1008 0
v -1656 -1008 0
v -1656 -984 0
v -1632 -984 0
v -1656 -1008 0
v -1680 -1008 0
v -1680 -984 0
v -1656 -984 0
v -1800 -1008 0
v -1824 -1008 0
v -1824 -984 0
v -1800 -984 0
v -1824 -1008 0
v -1848 -1008 0
v -1848 -984 0
v -1824 -984 0
v -1512 -1032 0
v -1536 -1032 0
v -1536 -1008 0
v -1512 -1008 0
v -1536 -1032 0
v -1560 -1032 0
v -1560 -1008 0
v -1536 -1008 0
v -1632 -1032 0
v -1656 -1032 0
v -1656 -1008 0
v -1632 -1008 0
v -1656 -1032 0
v -1680 -1032 0
v -1680 -1008 0
v -1656 -1008 0
v -1800 -1032 0
v -1824 -1032 0
v -1824 -1008 0
v -1800 -1008 0
v -1824 -1032 0
v -1848 -1032 0
v -1848 -1008 0
v -1824 -1008 0
v -1440 -1392 0
v -1464 -1392 0
v -1464 -1368 0
v -1440 -1368 0
v -1464 -1392 0
v -1488 -1392 0
v -1488 -1368 0
v -1464 -1368 0
v -1824 -1392 0
v -1848 -1392 0
v -1848 -1368 0
v -1824 -1368 0
v -1848 -1392 0
v -1872 -1392 0
v -1872 -1368 0
v -1848 -1368 0
v -1440 -1416 0
v -1464 -1416 0
v -1464 -1392 0
v -1440 -1392 0
v -1464 -1416 0
v -1488 -1416 0
v -1488 -1392 0
v -1464 -1392 0
v -1824 -1416 0
v -1848 -1416 0
v -1848 -1392 0
v -1824 -1392 0
v -1848 -1416 0
v -1872 -1416 0
v -1872 -1392 0
v -1848 -1392 0

# Texture cooridinates (Count = 24)
vt 0.9375 0.15625
vt 0.96875 0.15625
vt 0.96875 0.1875
vt 0.9375 0.1875
vt 1 0.15625
vt 1 0.1875
vt 0.75 0.21875
vt 0.78125 0.21875
vt 0.78125 0.25
vt 0.75 0.25
vt 0.8125 0.21875
vt 0.8125 0.25
vt 0.84375 0.21875
vt 0.84375 0.25
vt 0.875 0.21875
vt 0.875 0.25
vt 0.9375 0.125
vt 0.96875 0.125
vt 1 0.125
vt 0.75 0.1875
vt 0.78125 0.1875
vt 0.8125 0.1875
vt 0.84375 0.1875
vt 0.875 0.1875

# Normal
vn 0 0 -1

# Mesh description
g SalleSE_mesh_0003

# Faces
f 1/1/1 2/2/1 3/3/1 4/4/1
f 5/2/1 6/5/1 7/6/1 8/3/1
f 9/7/1 10/8/1 11/9/1 12/10/1
f 13/8/1 14/11/1 15/12/1 16/9/1
f 17/11/1 18/13/1 19/14/1 20/12/1
f 21/13/1 22/15/1 23/16/1 24/14/1
f 25/17/1 26/18/1 27/2/1 28/1/1
f 29/18/1 30/19/1 31/5/1 32/2/1
f 33/20/1 34/21/1 35/8/1 36/7/1
f 37/21/1 38/22/1 39/11/1 40/8/1
f 41/22/1 42/23/1 43/13/1 44/11/1
f 45/23/1 46/24/1 47/15/1 48/13/1
f 49/7/1 50/8/1 51/9/1 52/10/1
f 53/8/1 54/11/1 55/12/1 56/9/1
f 57/7/1 58/8/1 59/9/1 60/10/1
f 61/8/1 62/11/1 63/12/1 64/9/1
f 65/20/1 66/21/1 67/8/1 68/7/1
f 69/21/1 70/22/1 71/11/1 72/8/1
f 73/20/1 74/21/1 75/8/1 76/7/1
f 77/21/1 78/22/1 79/11/1 80/8/1

