# Tiled2Unity generated file. Do not modify by hand.
# Wavefront file for 'SalleSE_mesh_0004.obj'

# Vertices (Count = 136)
v -1464 -1080 0
v -1488 -1080 0
v -1488 -1056 0
v -1464 -1056 0
v -1488 -1080 0
v -1512 -1080 0
v -1512 -1056 0
v -1488 -1056 0
v -1512 -1080 0
v -1536 -1080 0
v -1536 -1056 0
v -1512 -1056 0
v -1464 -1104 0
v -1488 -1104 0
v -1488 -1080 0
v -1464 -1080 0
v -1488 -1104 0
v -1512 -1104 0
v -1512 -1080 0
v -1488 -1080 0
v -1512 -1104 0
v -1536 -1104 0
v -1536 -1080 0
v -1512 -1080 0
v -1704 -1104 0
v -1728 -1104 0
v -1728 -1080 0
v -1704 -1080 0
v -1728 -1104 0
v -1752 -1104 0
v -1752 -1080 0
v -1728 -1080 0
v -1464 -1128 0
v -1488 -1128 0
v -1488 -1104 0
v -1464 -1104 0
v -1488 -1128 0
v -1512 -1128 0
v -1512 -1104 0
v -1488 -1104 0
v -1512 -1128 0
v -1536 -1128 0
v -1536 -1104 0
v -1512 -1104 0
v -1704 -1128 0
v -1728 -1128 0
v -1728 -1104 0
v -1704 -1104 0
v -1728 -1128 0
v -1752 -1128 0
v -1752 -1104 0
v -1728 -1104 0
v -1512 -1200 0
v -1536 -1200 0
v -1536 -1176 0
v -1512 -1176 0
v -1536 -1200 0
v -1560 -1200 0
v -1560 -1176 0
v -1536 -1176 0
v -1512 -1224 0
v -1536 -1224 0
v -1536 -1200 0
v -1512 -1200 0
v -1536 -1224 0
v -1560 -1224 0
v -1560 -1200 0
v -1536 -1200 0
v -1800 -1224 0
v -1824 -1224 0
v -1824 -1200 0
v -1800 -1200 0
v -1824 -1224 0
v -1848 -1224 0
v -1848 -1200 0
v -1824 -1200 0
v -1656 -1248 0
v -1680 -1248 0
v -1680 -1224 0
v -1656 -1224 0
v -1680 -1248 0
v -1704 -1248 0
v -1704 -1224 0
v -1680 -1224 0
v -1704 -1248 0
v -1728 -1248 0
v -1728 -1224 0
v -1704 -1224 0
v -1800 -1248 0
v -1824 -1248 0
v -1824 -1224 0
v -1800 -1224 0
v -1824 -1248 0
v -1848 -1248 0
v -1848 -1224 0
v -1824 -1224 0
v -1512 -1272 0
v -1536 -1272 0
v -1536 -1248 0
v -1512 -1248 0
v -1536 -1272 0
v -1560 -1272 0
v -1560 -1248 0
v -1536 -1248 0
v -1656 -1272 0
v -1680 -1272 0
v -1680 -1248 0
v -1656 -1248 0
v -1680 -1272 0
v -1704 -1272 0
v -1704 -1248 0
v -1680 -1248 0
v -1704 -1272 0
v -1728 -1272 0
v -1728 -1248 0
v -1704 -1248 0
v -1512 -1296 0
v -1536 -1296 0
v -1536 -1272 0
v -1512 -1272 0
v -1536 -1296 0
v -1560 -1296 0
v -1560 -1272 0
v -1536 -1272 0
v -1656 -1296 0
v -1680 -1296 0
v -1680 -1272 0
v -1656 -1272 0
v -1680 -1296 0
v -1704 -1296 0
v -1704 -1272 0
v -1680 -1272 0
v -1704 -1296 0
v -1728 -1296 0
v -1728 -1272 0
v -1704 -1272 0

# Texture cooridinates (Count = 25)
vt 0.875 0.375
vt 0.90625 0.375
vt 0.90625 0.4166667
vt 0.875 0.4166667
vt 0.9375 0.375
vt 0.9375 0.4166667
vt 0.90625 0.4583333
vt 0.9375 0.4583333
vt 0.9375 0.5
vt 0.90625 0.5
vt 0.875 0.3333333
vt 0.90625 0.3333333
vt 0.9375 0.2916667
vt 0.96875 0.2916667
vt 0.96875 0.3333333
vt 0.9375 0.3333333
vt 1 0.2916667
vt 1 0.3333333
vt 0.875 0.4583333
vt 0.875 0.5
vt 0.9375 0.25
vt 0.96875 0.25
vt 1 0.25
vt 0.90625 0.25
vt 0.90625 0.2916667

# Normal
vn 0 0 -1

# Mesh description
g SalleSE_mesh_0004

# Faces
f 1/1/1 2/2/1 3/3/1 4/4/1
f 5/2/1 6/5/1 7/6/1 8/3/1
f 9/7/1 10/8/1 11/9/1 12/10/1
f 13/11/1 14/12/1 15/2/1 16/1/1
f 17/13/1 18/14/1 19/15/1 20/16/1
f 21/14/1 22/17/1 23/18/1 24/15/1
f 25/19/1 26/7/1 27/10/1 28/20/1
f 29/7/1 30/8/1 31/9/1 32/10/1
f 33/4/1 34/3/1 35/7/1 36/19/1
f 37/21/1 38/22/1 39/14/1 40/13/1
f 41/22/1 42/23/1 43/17/1 44/14/1
f 45/4/1 46/3/1 47/7/1 48/19/1
f 49/3/1 50/6/1 51/8/1 52/7/1
f 53/19/1 54/7/1 55/10/1 56/20/1
f 57/7/1 58/8/1 59/9/1 60/10/1
f 61/4/1 62/3/1 63/7/1 64/19/1
f 65/3/1 66/6/1 67/8/1 68/7/1
f 69/19/1 70/7/1 71/10/1 72/20/1
f 73/7/1 74/8/1 75/9/1 76/10/1
f 77/1/1 78/2/1 79/3/1 80/4/1
f 81/2/1 82/5/1 83/6/1 84/3/1
f 85/7/1 86/8/1 87/9/1 88/10/1
f 89/4/1 90/3/1 91/7/1 92/19/1
f 93/3/1 94/6/1 95/8/1 96/7/1
f 97/19/1 98/7/1 99/10/1 100/20/1
f 101/7/1 102/8/1 103/9/1 104/10/1
f 105/11/1 106/12/1 107/2/1 108/1/1
f 109/13/1 110/14/1 111/15/1 112/16/1
f 113/14/1 114/17/1 115/18/1 116/15/1
f 117/4/1 118/3/1 119/7/1 120/19/1
f 121/3/1 122/6/1 123/8/1 124/7/1
f 125/4/1 126/3/1 127/7/1 128/19/1
f 129/24/1 130/21/1 131/13/1 132/25/1
f 133/22/1 134/23/1 135/17/1 136/14/1

