# Tiled2Unity generated file. Do not modify by hand.
# Wavefront file for 'SalleSE_mesh_0001.obj'

# Vertices (Count = 880)
v -1368 -984 0
v -1392 -984 0
v -1392 -960 0
v -1368 -960 0
v -1392 -984 0
v -1416 -984 0
v -1416 -960 0
v -1392 -960 0
v -1416 -984 0
v -1440 -984 0
v -1440 -960 0
v -1416 -960 0
v -1440 -984 0
v -1464 -984 0
v -1464 -960 0
v -1440 -960 0
v -1464 -984 0
v -1488 -984 0
v -1488 -960 0
v -1464 -960 0
v -1488 -984 0
v -1512 -984 0
v -1512 -960 0
v -1488 -960 0
v -1512 -984 0
v -1536 -984 0
v -1536 -960 0
v -1512 -960 0
v -1536 -984 0
v -1560 -984 0
v -1560 -960 0
v -1536 -960 0
v -1560 -984 0
v -1584 -984 0
v -1584 -960 0
v -1560 -960 0
v -1584 -984 0
v -1608 -984 0
v -1608 -960 0
v -1584 -960 0
v -1608 -984 0
v -1632 -984 0
v -1632 -960 0
v -1608 -960 0
v -1632 -984 0
v -1656 -984 0
v -1656 -960 0
v -1632 -960 0
v -1656 -984 0
v -1680 -984 0
v -1680 -960 0
v -1656 -960 0
v -1680 -984 0
v -1704 -984 0
v -1704 -960 0
v -1680 -960 0
v -1704 -984 0
v -1728 -984 0
v -1728 -960 0
v -1704 -960 0
v -1728 -984 0
v -1752 -984 0
v -1752 -960 0
v -1728 -960 0
v -1752 -984 0
v -1776 -984 0
v -1776 -960 0
v -1752 -960 0
v -1776 -984 0
v -1800 -984 0
v -1800 -960 0
v -1776 -960 0
v -1800 -984 0
v -1824 -984 0
v -1824 -960 0
v -1800 -960 0
v -1824 -984 0
v -1848 -984 0
v -1848 -960 0
v -1824 -960 0
v -1848 -984 0
v -1872 -984 0
v -1872 -960 0
v -1848 -960 0
v -1872 -984 0
v -1896 -984 0
v -1896 -960 0
v -1872 -960 0
v -1896 -984 0
v -1920 -984 0
v -1920 -960 0
v -1896 -960 0
v -1920 -984 0
v -1944 -984 0
v -1944 -960 0
v -1920 -960 0
v -1368 -1008 0
v -1392 -1008 0
v -1392 -984 0
v -1368 -984 0
v -1392 -1008 0
v -1416 -1008 0
v -1416 -984 0
v -1392 -984 0
v -1416 -1008 0
v -1440 -1008 0
v -1440 -984 0
v -1416 -984 0
v -1440 -1008 0
v -1464 -1008 0
v -1464 -984 0
v -1440 -984 0
v -1464 -1008 0
v -1488 -1008 0
v -1488 -984 0
v -1464 -984 0
v -1488 -1008 0
v -1512 -1008 0
v -1512 -984 0
v -1488 -984 0
v -1512 -1008 0
v -1536 -1008 0
v -1536 -984 0
v -1512 -984 0
v -1536 -1008 0
v -1560 -1008 0
v -1560 -984 0
v -1536 -984 0
v -1560 -1008 0
v -1584 -1008 0
v -1584 -984 0
v -1560 -984 0
v -1584 -1008 0
v -1608 -1008 0
v -1608 -984 0
v -1584 -984 0
v -1608 -1008 0
v -1632 -1008 0
v -1632 -984 0
v -1608 -984 0
v -1632 -1008 0
v -1656 -1008 0
v -1656 -984 0
v -1632 -984 0
v -1656 -1008 0
v -1680 -1008 0
v -1680 -984 0
v -1656 -984 0
v -1680 -1008 0
v -1704 -1008 0
v -1704 -984 0
v -1680 -984 0
v -1704 -1008 0
v -1728 -1008 0
v -1728 -984 0
v -1704 -984 0
v -1728 -1008 0
v -1752 -1008 0
v -1752 -984 0
v -1728 -984 0
v -1752 -1008 0
v -1776 -1008 0
v -1776 -984 0
v -1752 -984 0
v -1776 -1008 0
v -1800 -1008 0
v -1800 -984 0
v -1776 -984 0
v -1800 -1008 0
v -1824 -1008 0
v -1824 -984 0
v -1800 -984 0
v -1824 -1008 0
v -1848 -1008 0
v -1848 -984 0
v -1824 -984 0
v -1848 -1008 0
v -1872 -1008 0
v -1872 -984 0
v -1848 -984 0
v -1872 -1008 0
v -1896 -1008 0
v -1896 -984 0
v -1872 -984 0
v -1896 -1008 0
v -1920 -1008 0
v -1920 -984 0
v -1896 -984 0
v -1920 -1008 0
v -1944 -1008 0
v -1944 -984 0
v -1920 -984 0
v -1368 -1032 0
v -1392 -1032 0
v -1392 -1008 0
v -1368 -1008 0
v -1392 -1032 0
v -1416 -1032 0
v -1416 -1008 0
v -1392 -1008 0
v -1416 -1032 0
v -1440 -1032 0
v -1440 -1008 0
v -1416 -1008 0
v -1440 -1032 0
v -1464 -1032 0
v -1464 -1008 0
v -1440 -1008 0
v -1464 -1032 0
v -1488 -1032 0
v -1488 -1008 0
v -1464 -1008 0
v -1488 -1032 0
v -1512 -1032 0
v -1512 -1008 0
v -1488 -1008 0
v -1512 -1032 0
v -1536 -1032 0
v -1536 -1008 0
v -1512 -1008 0
v -1536 -1032 0
v -1560 -1032 0
v -1560 -1008 0
v -1536 -1008 0
v -1560 -1032 0
v -1584 -1032 0
v -1584 -1008 0
v -1560 -1008 0
v -1584 -1032 0
v -1608 -1032 0
v -1608 -1008 0
v -1584 -1008 0
v -1608 -1032 0
v -1632 -1032 0
v -1632 -1008 0
v -1608 -1008 0
v -1632 -1032 0
v -1656 -1032 0
v -1656 -1008 0
v -1632 -1008 0
v -1656 -1032 0
v -1680 -1032 0
v -1680 -1008 0
v -1656 -1008 0
v -1680 -1032 0
v -1704 -1032 0
v -1704 -1008 0
v -1680 -1008 0
v -1704 -1032 0
v -1728 -1032 0
v -1728 -1008 0
v -1704 -1008 0
v -1728 -1032 0
v -1752 -1032 0
v -1752 -1008 0
v -1728 -1008 0
v -1752 -1032 0
v -1776 -1032 0
v -1776 -1008 0
v -1752 -1008 0
v -1776 -1032 0
v -1800 -1032 0
v -1800 -1008 0
v -1776 -1008 0
v -1800 -1032 0
v -1824 -1032 0
v -1824 -1008 0
v -1800 -1008 0
v -1824 -1032 0
v -1848 -1032 0
v -1848 -1008 0
v -1824 -1008 0
v -1848 -1032 0
v -1872 -1032 0
v -1872 -1008 0
v -1848 -1008 0
v -1872 -1032 0
v -1896 -1032 0
v -1896 -1008 0
v -1872 -1008 0
v -1896 -1032 0
v -1920 -1032 0
v -1920 -1008 0
v -1896 -1008 0
v -1920 -1032 0
v -1944 -1032 0
v -1944 -1008 0
v -1920 -1008 0
v -1368 -1056 0
v -1392 -1056 0
v -1392 -1032 0
v -1368 -1032 0
v -1392 -1056 0
v -1416 -1056 0
v -1416 -1032 0
v -1392 -1032 0
v -1896 -1056 0
v -1920 -1056 0
v -1920 -1032 0
v -1896 -1032 0
v -1920 -1056 0
v -1944 -1056 0
v -1944 -1032 0
v -1920 -1032 0
v -1368 -1080 0
v -1392 -1080 0
v -1392 -1056 0
v -1368 -1056 0
v -1392 -1080 0
v -1416 -1080 0
v -1416 -1056 0
v -1392 -1056 0
v -1896 -1080 0
v -1920 -1080 0
v -1920 -1056 0
v -1896 -1056 0
v -1920 -1080 0
v -1944 -1080 0
v -1944 -1056 0
v -1920 -1056 0
v -1368 -1104 0
v -1392 -1104 0
v -1392 -1080 0
v -1368 -1080 0
v -1392 -1104 0
v -1416 -1104 0
v -1416 -1080 0
v -1392 -1080 0
v -1896 -1104 0
v -1920 -1104 0
v -1920 -1080 0
v -1896 -1080 0
v -1920 -1104 0
v -1944 -1104 0
v -1944 -1080 0
v -1920 -1080 0
v -1368 -1128 0
v -1392 -1128 0
v -1392 -1104 0
v -1368 -1104 0
v -1392 -1128 0
v -1416 -1128 0
v -1416 -1104 0
v -1392 -1104 0
v -1896 -1128 0
v -1920 -1128 0
v -1920 -1104 0
v -1896 -1104 0
v -1920 -1128 0
v -1944 -1128 0
v -1944 -1104 0
v -1920 -1104 0
v -1944 -1128 0
v -1968 -1128 0
v -1968 -1104 0
v -1944 -1104 0
v -1968 -1128 0
v -1992 -1128 0
v -1992 -1104 0
v -1968 -1104 0
v -1992 -1128 0
v -2016 -1128 0
v -2016 -1104 0
v -1992 -1104 0
v -2016 -1128 0
v -2040 -1128 0
v -2040 -1104 0
v -2016 -1104 0
v -1368 -1152 0
v -1392 -1152 0
v -1392 -1128 0
v -1368 -1128 0
v -1392 -1152 0
v -1416 -1152 0
v -1416 -1128 0
v -1392 -1128 0
v -1896 -1152 0
v -1920 -1152 0
v -1920 -1128 0
v -1896 -1128 0
v -1920 -1152 0
v -1944 -1152 0
v -1944 -1128 0
v -1920 -1128 0
v -1944 -1152 0
v -1968 -1152 0
v -1968 -1128 0
v -1944 -1128 0
v -1968 -1152 0
v -1992 -1152 0
v -1992 -1128 0
v -1968 -1128 0
v -1992 -1152 0
v -2016 -1152 0
v -2016 -1128 0
v -1992 -1128 0
v -2016 -1152 0
v -2040 -1152 0
v -2040 -1128 0
v -2016 -1128 0
v -1368 -1176 0
v -1392 -1176 0
v -1392 -1152 0
v -1368 -1152 0
v -1392 -1176 0
v -1416 -1176 0
v -1416 -1152 0
v -1392 -1152 0
v -1896 -1176 0
v -1920 -1176 0
v -1920 -1152 0
v -1896 -1152 0
v -1920 -1176 0
v -1944 -1176 0
v -1944 -1152 0
v -1920 -1152 0
v -1944 -1176 0
v -1968 -1176 0
v -1968 -1152 0
v -1944 -1152 0
v -1968 -1176 0
v -1992 -1176 0
v -1992 -1152 0
v -1968 -1152 0
v -1992 -1176 0
v -2016 -1176 0
v -2016 -1152 0
v -1992 -1152 0
v -2016 -1176 0
v -2040 -1176 0
v -2040 -1152 0
v -2016 -1152 0
v -1368 -1200 0
v -1392 -1200 0
v -1392 -1176 0
v -1368 -1176 0
v -1392 -1200 0
v -1416 -1200 0
v -1416 -1176 0
v -1392 -1176 0
v -1368 -1224 0
v -1392 -1224 0
v -1392 -1200 0
v -1368 -1200 0
v -1392 -1224 0
v -1416 -1224 0
v -1416 -1200 0
v -1392 -1200 0
v -1368 -1248 0
v -1392 -1248 0
v -1392 -1224 0
v -1368 -1224 0
v -1392 -1248 0
v -1416 -1248 0
v -1416 -1224 0
v -1392 -1224 0
v -1368 -1272 0
v -1392 -1272 0
v -1392 -1248 0
v -1368 -1248 0
v -1392 -1272 0
v -1416 -1272 0
v -1416 -1248 0
v -1392 -1248 0
v -1896 -1272 0
v -1920 -1272 0
v -1920 -1248 0
v -1896 -1248 0
v -1920 -1272 0
v -1944 -1272 0
v -1944 -1248 0
v -1920 -1248 0
v -1944 -1272 0
v -1968 -1272 0
v -1968 -1248 0
v -1944 -1248 0
v -1968 -1272 0
v -1992 -1272 0
v -1992 -1248 0
v -1968 -1248 0
v -1992 -1272 0
v -2016 -1272 0
v -2016 -1248 0
v -1992 -1248 0
v -2016 -1272 0
v -2040 -1272 0
v -2040 -1248 0
v -2016 -1248 0
v -1368 -1296 0
v -1392 -1296 0
v -1392 -1272 0
v -1368 -1272 0
v -1392 -1296 0
v -1416 -1296 0
v -1416 -1272 0
v -1392 -1272 0
v -1896 -1296 0
v -1920 -1296 0
v -1920 -1272 0
v -1896 -1272 0
v -1920 -1296 0
v -1944 -1296 0
v -1944 -1272 0
v -1920 -1272 0
v -1944 -1296 0
v -1968 -1296 0
v -1968 -1272 0
v -1944 -1272 0
v -1968 -1296 0
v -1992 -1296 0
v -1992 -1272 0
v -1968 -1272 0
v -1992 -1296 0
v -2016 -1296 0
v -2016 -1272 0
v -1992 -1272 0
v -2016 -1296 0
v -2040 -1296 0
v -2040 -1272 0
v -2016 -1272 0
v -1368 -1320 0
v -1392 -1320 0
v -1392 -1296 0
v -1368 -1296 0
v -1392 -1320 0
v -1416 -1320 0
v -1416 -1296 0
v -1392 -1296 0
v -1896 -1320 0
v -1920 -1320 0
v -1920 -1296 0
v -1896 -1296 0
v -1920 -1320 0
v -1944 -1320 0
v -1944 -1296 0
v -1920 -1296 0
v -1944 -1320 0
v -1968 -1320 0
v -1968 -1296 0
v -1944 -1296 0
v -1968 -1320 0
v -1992 -1320 0
v -1992 -1296 0
v -1968 -1296 0
v -1992 -1320 0
v -2016 -1320 0
v -2016 -1296 0
v -1992 -1296 0
v -2016 -1320 0
v -2040 -1320 0
v -2040 -1296 0
v -2016 -1296 0
v -1368 -1344 0
v -1392 -1344 0
v -1392 -1320 0
v -1368 -1320 0
v -1392 -1344 0
v -1416 -1344 0
v -1416 -1320 0
v -1392 -1320 0
v -1896 -1344 0
v -1920 -1344 0
v -1920 -1320 0
v -1896 -1320 0
v -1920 -1344 0
v -1944 -1344 0
v -1944 -1320 0
v -1920 -1320 0
v -1368 -1368 0
v -1392 -1368 0
v -1392 -1344 0
v -1368 -1344 0
v -1392 -1368 0
v -1416 -1368 0
v -1416 -1344 0
v -1392 -1344 0
v -1416 -1368 0
v -1440 -1368 0
v -1440 -1344 0
v -1416 -1344 0
v -1440 -1368 0
v -1464 -1368 0
v -1464 -1344 0
v -1440 -1344 0
v -1464 -1368 0
v -1488 -1368 0
v -1488 -1344 0
v -1464 -1344 0
v -1488 -1368 0
v -1512 -1368 0
v -1512 -1344 0
v -1488 -1344 0
v -1512 -1368 0
v -1536 -1368 0
v -1536 -1344 0
v -1512 -1344 0
v -1536 -1368 0
v -1560 -1368 0
v -1560 -1344 0
v -1536 -1344 0
v -1560 -1368 0
v -1584 -1368 0
v -1584 -1344 0
v -1560 -1344 0
v -1584 -1368 0
v -1608 -1368 0
v -1608 -1344 0
v -1584 -1344 0
v -1608 -1368 0
v -1632 -1368 0
v -1632 -1344 0
v -1608 -1344 0
v -1680 -1368 0
v -1704 -1368 0
v -1704 -1344 0
v -1680 -1344 0
v -1704 -1368 0
v -1728 -1368 0
v -1728 -1344 0
v -1704 -1344 0
v -1728 -1368 0
v -1752 -1368 0
v -1752 -1344 0
v -1728 -1344 0
v -1752 -1368 0
v -1776 -1368 0
v -1776 -1344 0
v -1752 -1344 0
v -1776 -1368 0
v -1800 -1368 0
v -1800 -1344 0
v -1776 -1344 0
v -1800 -1368 0
v -1824 -1368 0
v -1824 -1344 0
v -1800 -1344 0
v -1824 -1368 0
v -1848 -1368 0
v -1848 -1344 0
v -1824 -1344 0
v -1848 -1368 0
v -1872 -1368 0
v -1872 -1344 0
v -1848 -1344 0
v -1872 -1368 0
v -1896 -1368 0
v -1896 -1344 0
v -1872 -1344 0
v -1896 -1368 0
v -1920 -1368 0
v -1920 -1344 0
v -1896 -1344 0
v -1920 -1368 0
v -1944 -1368 0
v -1944 -1344 0
v -1920 -1344 0
v -1368 -1392 0
v -1392 -1392 0
v -1392 -1368 0
v -1368 -1368 0
v -1392 -1392 0
v -1416 -1392 0
v -1416 -1368 0
v -1392 -1368 0
v -1416 -1392 0
v -1440 -1392 0
v -1440 -1368 0
v -1416 -1368 0
v -1440 -1392 0
v -1464 -1392 0
v -1464 -1368 0
v -1440 -1368 0
v -1464 -1392 0
v -1488 -1392 0
v -1488 -1368 0
v -1464 -1368 0
v -1488 -1392 0
v -1512 -1392 0
v -1512 -1368 0
v -1488 -1368 0
v -1512 -1392 0
v -1536 -1392 0
v -1536 -1368 0
v -1512 -1368 0
v -1536 -1392 0
v -1560 -1392 0
v -1560 -1368 0
v -1536 -1368 0
v -1560 -1392 0
v -1584 -1392 0
v -1584 -1368 0
v -1560 -1368 0
v -1584 -1392 0
v -1608 -1392 0
v -1608 -1368 0
v -1584 -1368 0
v -1608 -1392 0
v -1632 -1392 0
v -1632 -1368 0
v -1608 -1368 0
v -1680 -1392 0
v -1704 -1392 0
v -1704 -1368 0
v -1680 -1368 0
v -1704 -1392 0
v -1728 -1392 0
v -1728 -1368 0
v -1704 -1368 0
v -1728 -1392 0
v -1752 -1392 0
v -1752 -1368 0
v -1728 -1368 0
v -1752 -1392 0
v -1776 -1392 0
v -1776 -1368 0
v -1752 -1368 0
v -1776 -1392 0
v -1800 -1392 0
v -1800 -1368 0
v -1776 -1368 0
v -1800 -1392 0
v -1824 -1392 0
v -1824 -1368 0
v -1800 -1368 0
v -1824 -1392 0
v -1848 -1392 0
v -1848 -1368 0
v -1824 -1368 0
v -1848 -1392 0
v -1872 -1392 0
v -1872 -1368 0
v -1848 -1368 0
v -1872 -1392 0
v -1896 -1392 0
v -1896 -1368 0
v -1872 -1368 0
v -1896 -1392 0
v -1920 -1392 0
v -1920 -1368 0
v -1896 -1368 0
v -1920 -1392 0
v -1944 -1392 0
v -1944 -1368 0
v -1920 -1368 0
v -1368 -1416 0
v -1392 -1416 0
v -1392 -1392 0
v -1368 -1392 0
v -1392 -1416 0
v -1416 -1416 0
v -1416 -1392 0
v -1392 -1392 0
v -1416 -1416 0
v -1440 -1416 0
v -1440 -1392 0
v -1416 -1392 0
v -1440 -1416 0
v -1464 -1416 0
v -1464 -1392 0
v -1440 -1392 0
v -1464 -1416 0
v -1488 -1416 0
v -1488 -1392 0
v -1464 -1392 0
v -1488 -1416 0
v -1512 -1416 0
v -1512 -1392 0
v -1488 -1392 0
v -1512 -1416 0
v -1536 -1416 0
v -1536 -1392 0
v -1512 -1392 0
v -1536 -1416 0
v -1560 -1416 0
v -1560 -1392 0
v -1536 -1392 0
v -1560 -1416 0
v -1584 -1416 0
v -1584 -1392 0
v -1560 -1392 0
v -1584 -1416 0
v -1608 -1416 0
v -1608 -1392 0
v -1584 -1392 0
v -1608 -1416 0
v -1632 -1416 0
v -1632 -1392 0
v -1608 -1392 0
v -1680 -1416 0
v -1704 -1416 0
v -1704 -1392 0
v -1680 -1392 0
v -1704 -1416 0
v -1728 -1416 0
v -1728 -1392 0
v -1704 -1392 0
v -1728 -1416 0
v -1752 -1416 0
v -1752 -1392 0
v -1728 -1392 0
v -1752 -1416 0
v -1776 -1416 0
v -1776 -1392 0
v -1752 -1392 0
v -1776 -1416 0
v -1800 -1416 0
v -1800 -1392 0
v -1776 -1392 0
v -1800 -1416 0
v -1824 -1416 0
v -1824 -1392 0
v -1800 -1392 0
v -1824 -1416 0
v -1848 -1416 0
v -1848 -1392 0
v -1824 -1392 0
v -1848 -1416 0
v -1872 -1416 0
v -1872 -1392 0
v -1848 -1392 0
v -1872 -1416 0
v -1896 -1416 0
v -1896 -1392 0
v -1872 -1392 0
v -1896 -1416 0
v -1920 -1416 0
v -1920 -1392 0
v -1896 -1392 0
v -1920 -1416 0
v -1944 -1416 0
v -1944 -1392 0
v -1920 -1392 0
v -1584 -1440 0
v -1608 -1440 0
v -1608 -1416 0
v -1584 -1416 0
v -1608 -1440 0
v -1632 -1440 0
v -1632 -1416 0
v -1608 -1416 0
v -1680 -1440 0
v -1704 -1440 0
v -1704 -1416 0
v -1680 -1416 0
v -1704 -1440 0
v -1728 -1440 0
v -1728 -1416 0
v -1704 -1416 0
v -1584 -1464 0
v -1608 -1464 0
v -1608 -1440 0
v -1584 -1440 0
v -1608 -1464 0
v -1632 -1464 0
v -1632 -1440 0
v -1608 -1440 0
v -1680 -1464 0
v -1704 -1464 0
v -1704 -1440 0
v -1680 -1440 0
v -1704 -1464 0
v -1728 -1464 0
v -1728 -1440 0
v -1704 -1440 0
v -1584 -1488 0
v -1608 -1488 0
v -1608 -1464 0
v -1584 -1464 0
v -1608 -1488 0
v -1632 -1488 0
v -1632 -1464 0
v -1608 -1464 0
v -1680 -1488 0
v -1704 -1488 0
v -1704 -1464 0
v -1680 -1464 0
v -1704 -1488 0
v -1728 -1488 0
v -1728 -1464 0
v -1704 -1464 0

# Texture cooridinates (Count = 44)
vt 0.125 0.8666667
vt 0.15625 0.8666667
vt 0.15625 0.9
vt 0.125 0.9
vt 0.1875 0.8666667
vt 0.21875 0.8666667
vt 0.21875 0.9
vt 0.1875 0.9
vt 0.1875 0.8
vt 0.21875 0.8
vt 0.21875 0.8333333
vt 0.1875 0.8333333
vt 0.15625 0.8
vt 0.15625 0.8333333
vt 0.25 0.8666667
vt 0.25 0.9
vt 0.25 0.8333333
vt 0.125 0.7
vt 0.15625 0.7
vt 0.15625 0.7333333
vt 0.125 0.7333333
vt 0.1875 0.7
vt 0.1875 0.7333333
vt 0.21875 0.7
vt 0.21875 0.7333333
vt 0.1875 0.7666667
vt 0.15625 0.7666667
vt 0.21875 0.7666667
vt 0.25 0.7
vt 0.25 0.7333333
vt 0.125 0.8333333
vt 0.125 0.6666666
vt 0.15625 0.6666666
vt 0.1875 0.6666666
vt 0.21875 0.6666666
vt 0.25 0.6666666
vt 0.125 0.8
vt 0.125 0.7666667
vt 0.125 0.9333333
vt 0.15625 0.9333333
vt 0.15625 0.9666666
vt 0.125 0.9666666
vt 0.25 0.8
vt 0.25 0.7666667

# Normal
vn 0 0 -1

# Mesh description
g SalleSE_mesh_0001

# Faces
f 1/1/1 2/2/1 3/3/1 4/4/1
f 5/5/1 6/6/1 7/7/1 8/8/1
f 9/9/1 10/10/1 11/11/1 12/12/1
f 13/2/1 14/5/1 15/8/1 16/3/1
f 17/5/1 18/6/1 19/7/1 20/8/1
f 21/2/1 22/5/1 23/8/1 24/3/1
f 25/13/1 26/9/1 27/12/1 28/14/1
f 29/9/1 30/10/1 31/11/1 32/12/1
f 33/13/1 34/9/1 35/12/1 36/14/1
f 37/9/1 38/10/1 39/11/1 40/12/1
f 41/13/1 42/9/1 43/12/1 44/14/1
f 45/9/1 46/10/1 47/11/1 48/12/1
f 49/13/1 50/9/1 51/12/1 52/14/1
f 53/9/1 54/10/1 55/11/1 56/12/1
f 57/13/1 58/9/1 59/12/1 60/14/1
f 61/9/1 62/10/1 63/11/1 64/12/1
f 65/13/1 66/9/1 67/12/1 68/14/1
f 69/2/1 70/5/1 71/8/1 72/3/1
f 73/5/1 74/6/1 75/7/1 76/8/1
f 77/2/1 78/5/1 79/8/1 80/3/1
f 81/5/1 82/6/1 83/7/1 84/8/1
f 85/5/1 86/6/1 87/7/1 88/8/1
f 89/5/1 90/6/1 91/7/1 92/8/1
f 93/6/1 94/15/1 95/16/1 96/7/1
f 97/1/1 98/2/1 99/3/1 100/4/1
f 101/11/1 102/17/1 103/15/1 104/6/1
f 105/18/1 106/19/1 107/20/1 108/21/1
f 109/19/1 110/22/1 111/23/1 112/20/1
f 113/19/1 114/22/1 115/23/1 116/20/1
f 117/22/1 118/24/1 119/25/1 120/23/1
f 121/20/1 122/23/1 123/26/1 124/27/1
f 125/23/1 126/25/1 127/28/1 128/26/1
f 129/20/1 130/23/1 131/26/1 132/27/1
f 133/23/1 134/25/1 135/28/1 136/26/1
f 137/20/1 138/23/1 139/26/1 140/27/1
f 141/23/1 142/25/1 143/28/1 144/26/1
f 145/20/1 146/23/1 147/26/1 148/27/1
f 149/23/1 150/25/1 151/28/1 152/26/1
f 153/20/1 154/23/1 155/26/1 156/27/1
f 157/23/1 158/25/1 159/28/1 160/26/1
f 161/20/1 162/23/1 163/26/1 164/27/1
f 165/22/1 166/24/1 167/25/1 168/23/1
f 169/19/1 170/22/1 171/23/1 172/20/1
f 173/19/1 174/22/1 175/23/1 176/20/1
f 177/22/1 178/24/1 179/25/1 180/23/1
f 181/24/1 182/29/1 183/30/1 184/25/1
f 185/31/1 186/14/1 187/2/1 188/1/1
f 189/11/1 190/17/1 191/15/1 192/6/1
f 193/31/1 194/14/1 195/2/1 196/1/1
f 197/6/1 198/15/1 199/16/1 200/7/1
f 201/32/1 202/33/1 203/19/1 204/18/1
f 205/33/1 206/34/1 207/22/1 208/19/1
f 209/33/1 210/34/1 211/22/1 212/19/1
f 213/34/1 214/35/1 215/24/1 216/22/1
f 217/33/1 218/34/1 219/22/1 220/19/1
f 221/34/1 222/35/1 223/24/1 224/22/1
f 225/33/1 226/34/1 227/22/1 228/19/1
f 229/34/1 230/35/1 231/24/1 232/22/1
f 233/33/1 234/34/1 235/22/1 236/19/1
f 237/34/1 238/35/1 239/24/1 240/22/1
f 241/33/1 242/34/1 243/22/1 244/19/1
f 245/34/1 246/35/1 247/24/1 248/22/1
f 249/33/1 250/34/1 251/22/1 252/19/1
f 253/34/1 254/35/1 255/24/1 256/22/1
f 257/33/1 258/34/1 259/22/1 260/19/1
f 261/34/1 262/35/1 263/24/1 264/22/1
f 265/33/1 266/34/1 267/22/1 268/19/1
f 269/33/1 270/34/1 271/22/1 272/19/1
f 273/34/1 274/35/1 275/24/1 276/22/1
f 277/35/1 278/36/1 279/29/1 280/24/1
f 281/1/1 282/2/1 283/3/1 284/4/1
f 285/6/1 286/15/1 287/16/1 288/7/1
f 289/31/1 290/14/1 291/2/1 292/1/1
f 293/11/1 294/17/1 295/15/1 296/6/1
f 297/31/1 298/14/1 299/2/1 300/1/1
f 301/11/1 302/17/1 303/15/1 304/6/1
f 305/1/1 306/2/1 307/3/1 308/4/1
f 309/6/1 310/15/1 311/16/1 312/7/1
f 313/1/1 314/2/1 315/3/1 316/4/1
f 317/6/1 318/15/1 319/16/1 320/7/1
f 321/1/1 322/2/1 323/3/1 324/4/1
f 325/11/1 326/17/1 327/15/1 328/6/1
f 329/1/1 330/2/1 331/3/1 332/4/1
f 333/2/1 334/5/1 335/8/1 336/3/1
f 337/1/1 338/2/1 339/3/1 340/4/1
f 341/11/1 342/17/1 343/15/1 344/6/1
f 345/37/1 346/13/1 347/14/1 348/31/1
f 349/13/1 350/9/1 351/12/1 352/14/1
f 353/13/1 354/9/1 355/12/1 356/14/1
f 357/9/1 358/10/1 359/11/1 360/12/1
f 361/13/1 362/9/1 363/12/1 364/14/1
f 365/9/1 366/10/1 367/11/1 368/12/1
f 369/31/1 370/14/1 371/2/1 372/1/1
f 373/6/1 374/15/1 375/16/1 376/7/1
f 377/38/1 378/27/1 379/13/1 380/37/1
f 381/27/1 382/26/1 383/9/1 384/13/1
f 385/26/1 386/28/1 387/10/1 388/9/1
f 389/27/1 390/26/1 391/9/1 392/13/1
f 393/26/1 394/28/1 395/10/1 396/9/1
f 397/27/1 398/26/1 399/9/1 400/13/1
f 401/1/1 402/2/1 403/3/1 404/4/1
f 405/11/1 406/17/1 407/15/1 408/6/1
f 409/32/1 410/33/1 411/19/1 412/18/1
f 413/33/1 414/34/1 415/22/1 416/19/1
f 417/34/1 418/35/1 419/24/1 420/22/1
f 421/33/1 422/34/1 423/22/1 424/19/1
f 425/34/1 426/35/1 427/24/1 428/22/1
f 429/33/1 430/34/1 431/22/1 432/19/1
f 433/1/1 434/2/1 435/3/1 436/4/1
f 437/6/1 438/15/1 439/16/1 440/7/1
f 441/31/1 442/14/1 443/2/1 444/1/1
f 445/11/1 446/17/1 447/15/1 448/6/1
f 449/31/1 450/14/1 451/2/1 452/1/1
f 453/6/1 454/15/1 455/16/1 456/7/1
f 457/1/1 458/2/1 459/3/1 460/4/1
f 461/6/1 462/15/1 463/16/1 464/7/1
f 465/1/1 466/2/1 467/3/1 468/4/1
f 469/14/1 470/12/1 471/5/1 472/2/1
f 473/9/1 474/10/1 475/11/1 476/12/1
f 477/13/1 478/9/1 479/12/1 480/14/1
f 481/9/1 482/10/1 483/11/1 484/12/1
f 485/13/1 486/9/1 487/12/1 488/14/1
f 489/31/1 490/14/1 491/2/1 492/1/1
f 493/11/1 494/17/1 495/15/1 496/6/1
f 497/1/1 498/2/1 499/3/1 500/4/1
f 501/6/1 502/15/1 503/16/1 504/7/1
f 505/27/1 506/26/1 507/9/1 508/13/1
f 509/27/1 510/26/1 511/9/1 512/13/1
f 513/26/1 514/28/1 515/10/1 516/9/1
f 517/27/1 518/26/1 519/9/1 520/13/1
f 521/31/1 522/14/1 523/2/1 524/1/1
f 525/6/1 526/15/1 527/16/1 528/7/1
f 529/31/1 530/14/1 531/2/1 532/1/1
f 533/11/1 534/17/1 535/15/1 536/6/1
f 537/32/1 538/33/1 539/19/1 540/18/1
f 541/33/1 542/34/1 543/22/1 544/19/1
f 545/34/1 546/35/1 547/24/1 548/22/1
f 549/33/1 550/34/1 551/22/1 552/19/1
f 553/1/1 554/2/1 555/3/1 556/4/1
f 557/2/1 558/5/1 559/8/1 560/3/1
f 561/2/1 562/5/1 563/8/1 564/3/1
f 565/11/1 566/17/1 567/15/1 568/6/1
f 569/39/1 570/40/1 571/41/1 572/42/1
f 573/13/1 574/9/1 575/12/1 576/14/1
f 577/9/1 578/10/1 579/11/1 580/12/1
f 581/13/1 582/9/1 583/12/1 584/14/1
f 585/9/1 586/10/1 587/11/1 588/12/1
f 589/13/1 590/9/1 591/12/1 592/14/1
f 593/9/1 594/10/1 595/11/1 596/12/1
f 597/13/1 598/9/1 599/12/1 600/14/1
f 601/9/1 602/10/1 603/11/1 604/12/1
f 605/2/1 606/5/1 607/8/1 608/3/1
f 609/11/1 610/17/1 611/15/1 612/6/1
f 613/31/1 614/14/1 615/2/1 616/1/1
f 617/2/1 618/5/1 619/8/1 620/3/1
f 621/13/1 622/9/1 623/12/1 624/14/1
f 625/9/1 626/10/1 627/11/1 628/12/1
f 629/13/1 630/9/1 631/12/1 632/14/1
f 633/9/1 634/10/1 635/11/1 636/12/1
f 637/13/1 638/9/1 639/12/1 640/14/1
f 641/9/1 642/10/1 643/11/1 644/12/1
f 645/13/1 646/9/1 647/12/1 648/14/1
f 649/9/1 650/10/1 651/11/1 652/12/1
f 653/10/1 654/43/1 655/17/1 656/11/1
f 657/21/1 658/20/1 659/27/1 660/38/1
f 661/20/1 662/23/1 663/26/1 664/27/1
f 665/23/1 666/25/1 667/28/1 668/26/1
f 669/20/1 670/23/1 671/26/1 672/27/1
f 673/23/1 674/25/1 675/28/1 676/26/1
f 677/20/1 678/23/1 679/26/1 680/27/1
f 681/23/1 682/25/1 683/28/1 684/26/1
f 685/20/1 686/23/1 687/26/1 688/27/1
f 689/23/1 690/25/1 691/28/1 692/26/1
f 693/31/1 694/14/1 695/2/1 696/1/1
f 697/6/1 698/15/1 699/16/1 700/7/1
f 701/31/1 702/14/1 703/2/1 704/1/1
f 705/6/1 706/15/1 707/16/1 708/7/1
f 709/20/1 710/23/1 711/26/1 712/27/1
f 713/23/1 714/25/1 715/28/1 716/26/1
f 717/20/1 718/23/1 719/26/1 720/27/1
f 721/23/1 722/25/1 723/28/1 724/26/1
f 725/20/1 726/23/1 727/26/1 728/27/1
f 729/23/1 730/25/1 731/28/1 732/26/1
f 733/20/1 734/23/1 735/26/1 736/27/1
f 737/23/1 738/25/1 739/28/1 740/26/1
f 741/25/1 742/30/1 743/44/1 744/28/1
f 745/32/1 746/33/1 747/19/1 748/18/1
f 749/33/1 750/34/1 751/22/1 752/19/1
f 753/34/1 754/35/1 755/24/1 756/22/1
f 757/33/1 758/34/1 759/22/1 760/19/1
f 761/34/1 762/35/1 763/24/1 764/22/1
f 765/33/1 766/34/1 767/22/1 768/19/1
f 769/34/1 770/35/1 771/24/1 772/22/1
f 773/33/1 774/34/1 775/22/1 776/19/1
f 777/34/1 778/35/1 779/24/1 780/22/1
f 781/2/1 782/5/1 783/8/1 784/3/1
f 785/11/1 786/17/1 787/15/1 788/6/1
f 789/1/1 790/2/1 791/3/1 792/4/1
f 793/2/1 794/5/1 795/8/1 796/3/1
f 797/33/1 798/34/1 799/22/1 800/19/1
f 801/34/1 802/35/1 803/24/1 804/22/1
f 805/33/1 806/34/1 807/22/1 808/19/1
f 809/34/1 810/35/1 811/24/1 812/22/1
f 813/33/1 814/34/1 815/22/1 816/19/1
f 817/34/1 818/35/1 819/24/1 820/22/1
f 821/33/1 822/34/1 823/22/1 824/19/1
f 825/34/1 826/35/1 827/24/1 828/22/1
f 829/35/1 830/36/1 831/29/1 832/24/1
f 833/9/1 834/10/1 835/11/1 836/12/1
f 837/10/1 838/43/1 839/17/1 840/11/1
f 841/39/1 842/40/1 843/41/1 844/42/1
f 845/13/1 846/9/1 847/12/1 848/14/1
f 849/23/1 850/25/1 851/28/1 852/26/1
f 853/25/1 854/30/1 855/44/1 856/28/1
f 857/21/1 858/20/1 859/27/1 860/38/1
f 861/20/1 862/23/1 863/26/1 864/27/1
f 865/34/1 866/35/1 867/24/1 868/22/1
f 869/35/1 870/36/1 871/29/1 872/24/1
f 873/32/1 874/33/1 875/19/1 876/18/1
f 877/33/1 878/34/1 879/22/1 880/19/1

