# Tiled2Unity generated file. Do not modify by hand.
# Wavefront file for 'SalleNW_mesh_0003.obj'

# Vertices (Count = 176)
v -1440 -1008 0
v -1464 -1008 0
v -1464 -984 0
v -1440 -984 0
v -1464 -1008 0
v -1488 -1008 0
v -1488 -984 0
v -1464 -984 0
v -1512 -1008 0
v -1536 -1008 0
v -1536 -984 0
v -1512 -984 0
v -1536 -1008 0
v -1560 -1008 0
v -1560 -984 0
v -1536 -984 0
v -1560 -1008 0
v -1584 -1008 0
v -1584 -984 0
v -1560 -984 0
v -1584 -1008 0
v -1608 -1008 0
v -1608 -984 0
v -1584 -984 0
v -1752 -1008 0
v -1776 -1008 0
v -1776 -984 0
v -1752 -984 0
v -1776 -1008 0
v -1800 -1008 0
v -1800 -984 0
v -1776 -984 0
v -1800 -1008 0
v -1824 -1008 0
v -1824 -984 0
v -1800 -984 0
v -1824 -1008 0
v -1848 -1008 0
v -1848 -984 0
v -1824 -984 0
v -1440 -1032 0
v -1464 -1032 0
v -1464 -1008 0
v -1440 -1008 0
v -1464 -1032 0
v -1488 -1032 0
v -1488 -1008 0
v -1464 -1008 0
v -1512 -1032 0
v -1536 -1032 0
v -1536 -1008 0
v -1512 -1008 0
v -1536 -1032 0
v -1560 -1032 0
v -1560 -1008 0
v -1536 -1008 0
v -1560 -1032 0
v -1584 -1032 0
v -1584 -1008 0
v -1560 -1008 0
v -1584 -1032 0
v -1608 -1032 0
v -1608 -1008 0
v -1584 -1008 0
v -1752 -1032 0
v -1776 -1032 0
v -1776 -1008 0
v -1752 -1008 0
v -1776 -1032 0
v -1800 -1032 0
v -1800 -1008 0
v -1776 -1008 0
v -1800 -1032 0
v -1824 -1032 0
v -1824 -1008 0
v -1800 -1008 0
v -1824 -1032 0
v -1848 -1032 0
v -1848 -1008 0
v -1824 -1008 0
v -1296 -1272 0
v -1320 -1272 0
v -1320 -1248 0
v -1296 -1248 0
v -1320 -1272 0
v -1344 -1272 0
v -1344 -1248 0
v -1320 -1248 0
v -1296 -1296 0
v -1320 -1296 0
v -1320 -1272 0
v -1296 -1272 0
v -1320 -1296 0
v -1344 -1296 0
v -1344 -1272 0
v -1320 -1272 0
v -1464 -1392 0
v -1488 -1392 0
v -1488 -1368 0
v -1464 -1368 0
v -1488 -1392 0
v -1512 -1392 0
v -1512 -1368 0
v -1488 -1368 0
v -1560 -1392 0
v -1584 -1392 0
v -1584 -1368 0
v -1560 -1368 0
v -1584 -1392 0
v -1608 -1392 0
v -1608 -1368 0
v -1584 -1368 0
v -1656 -1392 0
v -1680 -1392 0
v -1680 -1368 0
v -1656 -1368 0
v -1680 -1392 0
v -1704 -1392 0
v -1704 -1368 0
v -1680 -1368 0
v -1800 -1392 0
v -1824 -1392 0
v -1824 -1368 0
v -1800 -1368 0
v -1824 -1392 0
v -1848 -1392 0
v -1848 -1368 0
v -1824 -1368 0
v -1872 -1392 0
v -1896 -1392 0
v -1896 -1368 0
v -1872 -1368 0
v -1896 -1392 0
v -1920 -1392 0
v -1920 -1368 0
v -1896 -1368 0
v -1464 -1416 0
v -1488 -1416 0
v -1488 -1392 0
v -1464 -1392 0
v -1488 -1416 0
v -1512 -1416 0
v -1512 -1392 0
v -1488 -1392 0
v -1560 -1416 0
v -1584 -1416 0
v -1584 -1392 0
v -1560 -1392 0
v -1584 -1416 0
v -1608 -1416 0
v -1608 -1392 0
v -1584 -1392 0
v -1656 -1416 0
v -1680 -1416 0
v -1680 -1392 0
v -1656 -1392 0
v -1680 -1416 0
v -1704 -1416 0
v -1704 -1392 0
v -1680 -1392 0
v -1800 -1416 0
v -1824 -1416 0
v -1824 -1392 0
v -1800 -1392 0
v -1824 -1416 0
v -1848 -1416 0
v -1848 -1392 0
v -1824 -1392 0
v -1872 -1416 0
v -1896 -1416 0
v -1896 -1392 0
v -1872 -1392 0
v -1896 -1416 0
v -1920 -1416 0
v -1920 -1392 0
v -1896 -1392 0

# Texture cooridinates (Count = 26)
vt 0.9375 0.71875
vt 0.96875 0.71875
vt 0.96875 0.75
vt 0.9375 0.75
vt 1 0.71875
vt 1 0.75
vt 0.625 0.71875
vt 0.65625 0.71875
vt 0.65625 0.75
vt 0.625 0.75
vt 0.6875 0.71875
vt 0.6875 0.75
vt 0.6875 0.78125
vt 0.71875 0.78125
vt 0.71875 0.8125
vt 0.6875 0.8125
vt 0.75 0.78125
vt 0.75 0.8125
vt 0.9375 0.6875
vt 0.96875 0.6875
vt 1 0.6875
vt 0.625 0.6875
vt 0.65625 0.6875
vt 0.6875 0.6875
vt 0.71875 0.75
vt 0.75 0.75

# Normal
vn 0 0 -1

# Mesh description
g SalleNW_mesh_0003

# Faces
f 1/1/1 2/2/1 3/3/1 4/4/1
f 5/2/1 6/5/1 7/6/1 8/3/1
f 9/7/1 10/8/1 11/9/1 12/10/1
f 13/8/1 14/11/1 15/12/1 16/9/1
f 17/13/1 18/14/1 19/15/1 20/16/1
f 21/14/1 22/17/1 23/18/1 24/15/1
f 25/7/1 26/8/1 27/9/1 28/10/1
f 29/8/1 30/11/1 31/12/1 32/9/1
f 33/1/1 34/2/1 35/3/1 36/4/1
f 37/2/1 38/5/1 39/6/1 40/3/1
f 41/19/1 42/20/1 43/2/1 44/1/1
f 45/20/1 46/21/1 47/5/1 48/2/1
f 49/22/1 50/23/1 51/8/1 52/7/1
f 53/23/1 54/24/1 55/11/1 56/8/1
f 57/12/1 58/25/1 59/14/1 60/13/1
f 61/25/1 62/26/1 63/17/1 64/14/1
f 65/22/1 66/23/1 67/8/1 68/7/1
f 69/23/1 70/24/1 71/11/1 72/8/1
f 73/19/1 74/20/1 75/2/1 76/1/1
f 77/20/1 78/21/1 79/5/1 80/2/1
f 81/7/1 82/8/1 83/9/1 84/10/1
f 85/8/1 86/11/1 87/12/1 88/9/1
f 89/22/1 90/23/1 91/8/1 92/7/1
f 93/23/1 94/24/1 95/11/1 96/8/1
f 97/7/1 98/8/1 99/9/1 100/10/1
f 101/8/1 102/11/1 103/12/1 104/9/1
f 105/13/1 106/14/1 107/15/1 108/16/1
f 109/14/1 110/17/1 111/18/1 112/15/1
f 113/1/1 114/2/1 115/3/1 116/4/1
f 117/2/1 118/5/1 119/6/1 120/3/1
f 121/1/1 122/2/1 123/3/1 124/4/1
f 125/2/1 126/5/1 127/6/1 128/3/1
f 129/13/1 130/14/1 131/15/1 132/16/1
f 133/14/1 134/17/1 135/18/1 136/15/1
f 137/22/1 138/23/1 139/8/1 140/7/1
f 141/23/1 142/24/1 143/11/1 144/8/1
f 145/12/1 146/25/1 147/14/1 148/13/1
f 149/25/1 150/26/1 151/17/1 152/14/1
f 153/19/1 154/20/1 155/2/1 156/1/1
f 157/20/1 158/21/1 159/5/1 160/2/1
f 161/19/1 162/20/1 163/2/1 164/1/1
f 165/20/1 166/21/1 167/5/1 168/2/1
f 169/12/1 170/25/1 171/14/1 172/13/1
f 173/25/1 174/26/1 175/17/1 176/14/1

