# Tiled2Unity generated file. Do not modify by hand.
# Wavefront file for 'Salle-3_mesh_0003.obj'

# Vertices (Count = 688)
v -1056 -648 0
v -1080 -648 0
v -1080 -624 0
v -1056 -624 0
v -1080 -648 0
v -1104 -648 0
v -1104 -624 0
v -1080 -624 0
v -1104 -648 0
v -1128 -648 0
v -1128 -624 0
v -1104 -624 0
v -1128 -648 0
v -1152 -648 0
v -1152 -624 0
v -1128 -624 0
v -1152 -648 0
v -1176 -648 0
v -1176 -624 0
v -1152 -624 0
v -1176 -648 0
v -1200 -648 0
v -1200 -624 0
v -1176 -624 0
v -1200 -648 0
v -1224 -648 0
v -1224 -624 0
v -1200 -624 0
v -1224 -648 0
v -1248 -648 0
v -1248 -624 0
v -1224 -624 0
v -1248 -648 0
v -1272 -648 0
v -1272 -624 0
v -1248 -624 0
v -1272 -648 0
v -1296 -648 0
v -1296 -624 0
v -1272 -624 0
v -1296 -648 0
v -1320 -648 0
v -1320 -624 0
v -1296 -624 0
v -1320 -648 0
v -1344 -648 0
v -1344 -624 0
v -1320 -624 0
v -1344 -648 0
v -1368 -648 0
v -1368 -624 0
v -1344 -624 0
v -1368 -648 0
v -1392 -648 0
v -1392 -624 0
v -1368 -624 0
v -1392 -648 0
v -1416 -648 0
v -1416 -624 0
v -1392 -624 0
v -1416 -648 0
v -1440 -648 0
v -1440 -624 0
v -1416 -624 0
v -1440 -648 0
v -1464 -648 0
v -1464 -624 0
v -1440 -624 0
v -1464 -648 0
v -1488 -648 0
v -1488 -624 0
v -1464 -624 0
v -1488 -648 0
v -1512 -648 0
v -1512 -624 0
v -1488 -624 0
v -1512 -648 0
v -1536 -648 0
v -1536 -624 0
v -1512 -624 0
v -1536 -648 0
v -1560 -648 0
v -1560 -624 0
v -1536 -624 0
v -1560 -648 0
v -1584 -648 0
v -1584 -624 0
v -1560 -624 0
v -1584 -648 0
v -1608 -648 0
v -1608 -624 0
v -1584 -624 0
v -1608 -648 0
v -1632 -648 0
v -1632 -624 0
v -1608 -624 0
v -1632 -648 0
v -1656 -648 0
v -1656 -624 0
v -1632 -624 0
v -1656 -648 0
v -1680 -648 0
v -1680 -624 0
v -1656 -624 0
v -1680 -648 0
v -1704 -648 0
v -1704 -624 0
v -1680 -624 0
v -1704 -648 0
v -1728 -648 0
v -1728 -624 0
v -1704 -624 0
v -1728 -648 0
v -1752 -648 0
v -1752 -624 0
v -1728 -624 0
v -1752 -648 0
v -1776 -648 0
v -1776 -624 0
v -1752 -624 0
v -1776 -648 0
v -1800 -648 0
v -1800 -624 0
v -1776 -624 0
v -1800 -648 0
v -1824 -648 0
v -1824 -624 0
v -1800 -624 0
v -1824 -648 0
v -1848 -648 0
v -1848 -624 0
v -1824 -624 0
v -1848 -648 0
v -1872 -648 0
v -1872 -624 0
v -1848 -624 0
v -1872 -648 0
v -1896 -648 0
v -1896 -624 0
v -1872 -624 0
v -1896 -648 0
v -1920 -648 0
v -1920 -624 0
v -1896 -624 0
v -1920 -648 0
v -1944 -648 0
v -1944 -624 0
v -1920 -624 0
v -1272 -840 0
v -1296 -840 0
v -1296 -816 0
v -1272 -816 0
v -1296 -840 0
v -1320 -840 0
v -1320 -816 0
v -1296 -816 0
v -1320 -840 0
v -1344 -840 0
v -1344 -816 0
v -1320 -816 0
v -1344 -840 0
v -1368 -840 0
v -1368 -816 0
v -1344 -816 0
v -1368 -840 0
v -1392 -840 0
v -1392 -816 0
v -1368 -816 0
v -1392 -840 0
v -1416 -840 0
v -1416 -816 0
v -1392 -816 0
v -1416 -840 0
v -1440 -840 0
v -1440 -816 0
v -1416 -816 0
v -1440 -840 0
v -1464 -840 0
v -1464 -816 0
v -1440 -816 0
v -1464 -840 0
v -1488 -840 0
v -1488 -816 0
v -1464 -816 0
v -1488 -840 0
v -1512 -840 0
v -1512 -816 0
v -1488 -816 0
v -1512 -840 0
v -1536 -840 0
v -1536 -816 0
v -1512 -816 0
v -1536 -840 0
v -1560 -840 0
v -1560 -816 0
v -1536 -816 0
v -1560 -840 0
v -1584 -840 0
v -1584 -816 0
v -1560 -816 0
v -1584 -840 0
v -1608 -840 0
v -1608 -816 0
v -1584 -816 0
v -1608 -840 0
v -1632 -840 0
v -1632 -816 0
v -1608 -816 0
v -1632 -840 0
v -1656 -840 0
v -1656 -816 0
v -1632 -816 0
v -1656 -840 0
v -1680 -840 0
v -1680 -816 0
v -1656 -816 0
v -1680 -840 0
v -1704 -840 0
v -1704 -816 0
v -1680 -816 0
v -1704 -840 0
v -1728 -840 0
v -1728 -816 0
v -1704 -816 0
v -1728 -840 0
v -1752 -840 0
v -1752 -816 0
v -1728 -816 0
v -1752 -840 0
v -1776 -840 0
v -1776 -816 0
v -1752 -816 0
v -1944 -912 0
v -1968 -912 0
v -1968 -888 0
v -1944 -888 0
v -1968 -912 0
v -1992 -912 0
v -1992 -888 0
v -1968 -888 0
v -1992 -912 0
v -2016 -912 0
v -2016 -888 0
v -1992 -888 0
v -1920 -936 0
v -1944 -936 0
v -1944 -912 0
v -1920 -912 0
v -840 -1008 0
v -864 -1008 0
v -864 -984 0
v -840 -984 0
v -864 -1008 0
v -888 -1008 0
v -888 -984 0
v -864 -984 0
v -888 -1008 0
v -912 -1008 0
v -912 -984 0
v -888 -984 0
v -912 -1008 0
v -936 -1008 0
v -936 -984 0
v -912 -984 0
v -936 -1008 0
v -960 -1008 0
v -960 -984 0
v -936 -984 0
v -960 -1008 0
v -984 -1008 0
v -984 -984 0
v -960 -984 0
v -984 -1008 0
v -1008 -1008 0
v -1008 -984 0
v -984 -984 0
v -1008 -1008 0
v -1032 -1008 0
v -1032 -984 0
v -1008 -984 0
v -1032 -1008 0
v -1056 -1008 0
v -1056 -984 0
v -1032 -984 0
v -1056 -1008 0
v -1080 -1008 0
v -1080 -984 0
v -1056 -984 0
v -1776 -1056 0
v -1800 -1056 0
v -1800 -1032 0
v -1776 -1032 0
v -1800 -1056 0
v -1824 -1056 0
v -1824 -1032 0
v -1800 -1032 0
v -1824 -1056 0
v -1848 -1056 0
v -1848 -1032 0
v -1824 -1032 0
v -1848 -1056 0
v -1872 -1056 0
v -1872 -1032 0
v -1848 -1032 0
v -1872 -1056 0
v -1896 -1056 0
v -1896 -1032 0
v -1872 -1032 0
v -1896 -1056 0
v -1920 -1056 0
v -1920 -1032 0
v -1896 -1032 0
v -1920 -1056 0
v -1944 -1056 0
v -1944 -1032 0
v -1920 -1032 0
v -1944 -1056 0
v -1968 -1056 0
v -1968 -1032 0
v -1944 -1032 0
v -1968 -1056 0
v -1992 -1056 0
v -1992 -1032 0
v -1968 -1032 0
v -1992 -1056 0
v -2016 -1056 0
v -2016 -1032 0
v -1992 -1032 0
v -840 -1152 0
v -864 -1152 0
v -864 -1128 0
v -840 -1128 0
v -864 -1152 0
v -888 -1152 0
v -888 -1128 0
v -864 -1128 0
v -888 -1152 0
v -912 -1152 0
v -912 -1128 0
v -888 -1128 0
v -912 -1152 0
v -936 -1152 0
v -936 -1128 0
v -912 -1128 0
v -936 -1152 0
v -960 -1152 0
v -960 -1128 0
v -936 -1128 0
v -960 -1152 0
v -984 -1152 0
v -984 -1128 0
v -960 -1128 0
v -984 -1152 0
v -1008 -1152 0
v -1008 -1128 0
v -984 -1128 0
v -1008 -1152 0
v -1032 -1152 0
v -1032 -1128 0
v -1008 -1128 0
v -1032 -1152 0
v -1056 -1152 0
v -1056 -1128 0
v -1032 -1128 0
v -1056 -1152 0
v -1080 -1152 0
v -1080 -1128 0
v -1056 -1128 0
v -1080 -1152 0
v -1104 -1152 0
v -1104 -1128 0
v -1080 -1128 0
v -840 -1488 0
v -864 -1488 0
v -864 -1464 0
v -840 -1464 0
v -864 -1488 0
v -888 -1488 0
v -888 -1464 0
v -864 -1464 0
v -888 -1488 0
v -912 -1488 0
v -912 -1464 0
v -888 -1464 0
v -912 -1488 0
v -936 -1488 0
v -936 -1464 0
v -912 -1464 0
v -936 -1488 0
v -960 -1488 0
v -960 -1464 0
v -936 -1464 0
v -960 -1488 0
v -984 -1488 0
v -984 -1464 0
v -960 -1464 0
v -984 -1488 0
v -1008 -1488 0
v -1008 -1464 0
v -984 -1464 0
v -1008 -1488 0
v -1032 -1488 0
v -1032 -1464 0
v -1008 -1464 0
v -1032 -1488 0
v -1056 -1488 0
v -1056 -1464 0
v -1032 -1464 0
v -1272 -1488 0
v -1296 -1488 0
v -1296 -1464 0
v -1272 -1464 0
v -1296 -1488 0
v -1320 -1488 0
v -1320 -1464 0
v -1296 -1464 0
v -1320 -1488 0
v -1344 -1488 0
v -1344 -1464 0
v -1320 -1464 0
v -1344 -1488 0
v -1368 -1488 0
v -1368 -1464 0
v -1344 -1464 0
v -1368 -1488 0
v -1392 -1488 0
v -1392 -1464 0
v -1368 -1464 0
v -1392 -1488 0
v -1416 -1488 0
v -1416 -1464 0
v -1392 -1464 0
v -1416 -1488 0
v -1440 -1488 0
v -1440 -1464 0
v -1416 -1464 0
v -1440 -1488 0
v -1464 -1488 0
v -1464 -1464 0
v -1440 -1464 0
v -1464 -1488 0
v -1488 -1488 0
v -1488 -1464 0
v -1464 -1464 0
v -1488 -1488 0
v -1512 -1488 0
v -1512 -1464 0
v -1488 -1464 0
v -1512 -1488 0
v -1536 -1488 0
v -1536 -1464 0
v -1512 -1464 0
v -1536 -1488 0
v -1560 -1488 0
v -1560 -1464 0
v -1536 -1464 0
v -1560 -1488 0
v -1584 -1488 0
v -1584 -1464 0
v -1560 -1464 0
v -1584 -1488 0
v -1608 -1488 0
v -1608 -1464 0
v -1584 -1464 0
v -1608 -1488 0
v -1632 -1488 0
v -1632 -1464 0
v -1608 -1464 0
v -1632 -1488 0
v -1656 -1488 0
v -1656 -1464 0
v -1632 -1464 0
v -1656 -1488 0
v -1680 -1488 0
v -1680 -1464 0
v -1656 -1464 0
v -1680 -1488 0
v -1704 -1488 0
v -1704 -1464 0
v -1680 -1464 0
v -1704 -1488 0
v -1728 -1488 0
v -1728 -1464 0
v -1704 -1464 0
v -1728 -1488 0
v -1752 -1488 0
v -1752 -1464 0
v -1728 -1464 0
v -1752 -1488 0
v -1776 -1488 0
v -1776 -1464 0
v -1752 -1464 0
v -1776 -1488 0
v -1800 -1488 0
v -1800 -1464 0
v -1776 -1464 0
v -1800 -1488 0
v -1824 -1488 0
v -1824 -1464 0
v -1800 -1464 0
v -1824 -1488 0
v -1848 -1488 0
v -1848 -1464 0
v -1824 -1464 0
v -1848 -1488 0
v -1872 -1488 0
v -1872 -1464 0
v -1848 -1464 0
v -1872 -1488 0
v -1896 -1488 0
v -1896 -1464 0
v -1872 -1464 0
v -1896 -1488 0
v -1920 -1488 0
v -1920 -1464 0
v -1896 -1464 0
v -1920 -1488 0
v -1944 -1488 0
v -1944 -1464 0
v -1920 -1464 0
v -888 -1680 0
v -912 -1680 0
v -912 -1656 0
v -888 -1656 0
v -912 -1680 0
v -936 -1680 0
v -936 -1656 0
v -912 -1656 0
v -936 -1680 0
v -960 -1680 0
v -960 -1656 0
v -936 -1656 0
v -960 -1680 0
v -984 -1680 0
v -984 -1656 0
v -960 -1656 0
v -984 -1680 0
v -1008 -1680 0
v -1008 -1656 0
v -984 -1656 0
v -1008 -1680 0
v -1032 -1680 0
v -1032 -1656 0
v -1008 -1656 0
v -1032 -1680 0
v -1056 -1680 0
v -1056 -1656 0
v -1032 -1656 0
v -1056 -1680 0
v -1080 -1680 0
v -1080 -1656 0
v -1056 -1656 0
v -1080 -1680 0
v -1104 -1680 0
v -1104 -1656 0
v -1080 -1656 0
v -1104 -1680 0
v -1128 -1680 0
v -1128 -1656 0
v -1104 -1656 0
v -1128 -1680 0
v -1152 -1680 0
v -1152 -1656 0
v -1128 -1656 0
v -1152 -1680 0
v -1176 -1680 0
v -1176 -1656 0
v -1152 -1656 0
v -1176 -1680 0
v -1200 -1680 0
v -1200 -1656 0
v -1176 -1656 0
v -1200 -1680 0
v -1224 -1680 0
v -1224 -1656 0
v -1200 -1656 0
v -1224 -1680 0
v -1248 -1680 0
v -1248 -1656 0
v -1224 -1656 0
v -1248 -1680 0
v -1272 -1680 0
v -1272 -1656 0
v -1248 -1656 0
v -1272 -1680 0
v -1296 -1680 0
v -1296 -1656 0
v -1272 -1656 0
v -1296 -1680 0
v -1320 -1680 0
v -1320 -1656 0
v -1296 -1656 0
v -1320 -1680 0
v -1344 -1680 0
v -1344 -1656 0
v -1320 -1656 0
v -1344 -1680 0
v -1368 -1680 0
v -1368 -1656 0
v -1344 -1656 0
v -1368 -1680 0
v -1392 -1680 0
v -1392 -1656 0
v -1368 -1656 0
v -1392 -1680 0
v -1416 -1680 0
v -1416 -1656 0
v -1392 -1656 0
v -1416 -1680 0
v -1440 -1680 0
v -1440 -1656 0
v -1416 -1656 0
v -1440 -1680 0
v -1464 -1680 0
v -1464 -1656 0
v -1440 -1656 0
v -1464 -1680 0
v -1488 -1680 0
v -1488 -1656 0
v -1464 -1656 0
v -1488 -1680 0
v -1512 -1680 0
v -1512 -1656 0
v -1488 -1656 0
v -1512 -1680 0
v -1536 -1680 0
v -1536 -1656 0
v -1512 -1656 0
v -1536 -1680 0
v -1560 -1680 0
v -1560 -1656 0
v -1536 -1656 0
v -1560 -1680 0
v -1584 -1680 0
v -1584 -1656 0
v -1560 -1656 0
v -1584 -1680 0
v -1608 -1680 0
v -1608 -1656 0
v -1584 -1656 0
v -1608 -1680 0
v -1632 -1680 0
v -1632 -1656 0
v -1608 -1656 0
v -1632 -1680 0
v -1656 -1680 0
v -1656 -1656 0
v -1632 -1656 0
v -1656 -1680 0
v -1680 -1680 0
v -1680 -1656 0
v -1656 -1656 0
v -1680 -1680 0
v -1704 -1680 0
v -1704 -1656 0
v -1680 -1656 0
v -1704 -1680 0
v -1728 -1680 0
v -1728 -1656 0
v -1704 -1656 0
v -1728 -1680 0
v -1752 -1680 0
v -1752 -1656 0
v -1728 -1656 0
v -1752 -1680 0
v -1776 -1680 0
v -1776 -1656 0
v -1752 -1656 0
v -1776 -1680 0
v -1800 -1680 0
v -1800 -1656 0
v -1776 -1656 0
v -1800 -1680 0
v -1824 -1680 0
v -1824 -1656 0
v -1800 -1656 0
v -1824 -1680 0
v -1848 -1680 0
v -1848 -1656 0
v -1824 -1656 0
v -1848 -1680 0
v -1872 -1680 0
v -1872 -1656 0
v -1848 -1656 0
v -1872 -1680 0
v -1896 -1680 0
v -1896 -1656 0
v -1872 -1656 0

# Texture cooridinates (Count = 14)
vt 0.125 0.9
vt 0.15625 0.9
vt 0.15625 0.9333333
vt 0.125 0.9333333
vt 0.1875 0.9
vt 0.1875 0.9333333
vt 0.21875 0.9
vt 0.21875 0.9333333
vt 0.25 0.9
vt 0.25 0.9333333
vt 0.1875 0.8333333
vt 0.21875 0.8333333
vt 0.21875 0.8666667
vt 0.1875 0.8666667

# Normal
vn 0 0 -1

# Mesh description
g Salle-3_mesh_0003

# Faces
f 1/1/1 2/2/1 3/3/1 4/4/1
f 5/2/1 6/5/1 7/6/1 8/3/1
f 9/5/1 10/7/1 11/8/1 12/6/1
f 13/2/1 14/5/1 15/6/1 16/3/1
f 17/5/1 18/7/1 19/8/1 20/6/1
f 21/2/1 22/5/1 23/6/1 24/3/1
f 25/5/1 26/7/1 27/8/1 28/6/1
f 29/2/1 30/5/1 31/6/1 32/3/1
f 33/5/1 34/7/1 35/8/1 36/6/1
f 37/2/1 38/5/1 39/6/1 40/3/1
f 41/5/1 42/7/1 43/8/1 44/6/1
f 45/2/1 46/5/1 47/6/1 48/3/1
f 49/5/1 50/7/1 51/8/1 52/6/1
f 53/2/1 54/5/1 55/6/1 56/3/1
f 57/5/1 58/7/1 59/8/1 60/6/1
f 61/5/1 62/7/1 63/8/1 64/6/1
f 65/2/1 66/5/1 67/6/1 68/3/1
f 69/5/1 70/7/1 71/8/1 72/6/1
f 73/2/1 74/5/1 75/6/1 76/3/1
f 77/5/1 78/7/1 79/8/1 80/6/1
f 81/2/1 82/5/1 83/6/1 84/3/1
f 85/5/1 86/7/1 87/8/1 88/6/1
f 89/2/1 90/5/1 91/6/1 92/3/1
f 93/5/1 94/7/1 95/8/1 96/6/1
f 97/2/1 98/5/1 99/6/1 100/3/1
f 101/5/1 102/7/1 103/8/1 104/6/1
f 105/2/1 106/5/1 107/6/1 108/3/1
f 109/5/1 110/7/1 111/8/1 112/6/1
f 113/5/1 114/7/1 115/8/1 116/6/1
f 117/2/1 118/5/1 119/6/1 120/3/1
f 121/2/1 122/5/1 123/6/1 124/3/1
f 125/5/1 126/7/1 127/8/1 128/6/1
f 129/5/1 130/7/1 131/8/1 132/6/1
f 133/5/1 134/7/1 135/8/1 136/6/1
f 137/2/1 138/5/1 139/6/1 140/3/1
f 141/5/1 142/7/1 143/8/1 144/6/1
f 145/7/1 146/9/1 147/10/1 148/8/1
f 149/1/1 150/2/1 151/3/1 152/4/1
f 153/2/1 154/5/1 155/6/1 156/3/1
f 157/5/1 158/7/1 159/8/1 160/6/1
f 161/2/1 162/5/1 163/6/1 164/3/1
f 165/5/1 166/7/1 167/8/1 168/6/1
f 169/2/1 170/5/1 171/6/1 172/3/1
f 173/5/1 174/7/1 175/8/1 176/6/1
f 177/2/1 178/5/1 179/6/1 180/3/1
f 181/5/1 182/7/1 183/8/1 184/6/1
f 185/2/1 186/5/1 187/6/1 188/3/1
f 189/5/1 190/7/1 191/8/1 192/6/1
f 193/2/1 194/5/1 195/6/1 196/3/1
f 197/5/1 198/7/1 199/8/1 200/6/1
f 201/2/1 202/5/1 203/6/1 204/3/1
f 205/5/1 206/7/1 207/8/1 208/6/1
f 209/5/1 210/7/1 211/8/1 212/6/1
f 213/5/1 214/7/1 215/8/1 216/6/1
f 217/5/1 218/7/1 219/8/1 220/6/1
f 221/2/1 222/5/1 223/6/1 224/3/1
f 225/5/1 226/7/1 227/8/1 228/6/1
f 229/7/1 230/9/1 231/10/1 232/8/1
f 233/2/1 234/5/1 235/6/1 236/3/1
f 237/5/1 238/7/1 239/8/1 240/6/1
f 241/5/1 242/7/1 243/8/1 244/6/1
f 245/11/1 246/12/1 247/13/1 248/14/1
f 249/5/1 250/7/1 251/8/1 252/6/1
f 253/5/1 254/7/1 255/8/1 256/6/1
f 257/2/1 258/5/1 259/6/1 260/3/1
f 261/5/1 262/7/1 263/8/1 264/6/1
f 265/5/1 266/7/1 267/8/1 268/6/1
f 269/5/1 270/7/1 271/8/1 272/6/1
f 273/5/1 274/7/1 275/8/1 276/6/1
f 277/2/1 278/5/1 279/6/1 280/3/1
f 281/5/1 282/7/1 283/8/1 284/6/1
f 285/5/1 286/7/1 287/8/1 288/6/1
f 289/2/1 290/5/1 291/6/1 292/3/1
f 293/5/1 294/7/1 295/8/1 296/6/1
f 297/2/1 298/5/1 299/6/1 300/3/1
f 301/5/1 302/7/1 303/8/1 304/6/1
f 305/2/1 306/5/1 307/6/1 308/3/1
f 309/5/1 310/7/1 311/8/1 312/6/1
f 313/2/1 314/5/1 315/6/1 316/3/1
f 317/5/1 318/7/1 319/8/1 320/6/1
f 321/2/1 322/5/1 323/6/1 324/3/1
f 325/5/1 326/7/1 327/8/1 328/6/1
f 329/5/1 330/7/1 331/8/1 332/6/1
f 333/2/1 334/5/1 335/6/1 336/3/1
f 337/5/1 338/7/1 339/8/1 340/6/1
f 341/2/1 342/5/1 343/6/1 344/3/1
f 345/2/1 346/5/1 347/6/1 348/3/1
f 349/5/1 350/7/1 351/8/1 352/6/1
f 353/2/1 354/5/1 355/6/1 356/3/1
f 357/5/1 358/7/1 359/8/1 360/6/1
f 361/2/1 362/5/1 363/6/1 364/3/1
f 365/5/1 366/7/1 367/8/1 368/6/1
f 369/7/1 370/9/1 371/10/1 372/8/1
f 373/1/1 374/2/1 375/3/1 376/4/1
f 377/2/1 378/5/1 379/6/1 380/3/1
f 381/5/1 382/7/1 383/8/1 384/6/1
f 385/2/1 386/5/1 387/6/1 388/3/1
f 389/5/1 390/7/1 391/8/1 392/6/1
f 393/2/1 394/5/1 395/6/1 396/3/1
f 397/5/1 398/7/1 399/8/1 400/6/1
f 401/2/1 402/5/1 403/6/1 404/3/1
f 405/5/1 406/7/1 407/8/1 408/6/1
f 409/2/1 410/5/1 411/6/1 412/3/1
f 413/5/1 414/7/1 415/8/1 416/6/1
f 417/2/1 418/5/1 419/6/1 420/3/1
f 421/5/1 422/7/1 423/8/1 424/6/1
f 425/2/1 426/5/1 427/6/1 428/3/1
f 429/5/1 430/7/1 431/8/1 432/6/1
f 433/2/1 434/5/1 435/6/1 436/3/1
f 437/5/1 438/7/1 439/8/1 440/6/1
f 441/2/1 442/5/1 443/6/1 444/3/1
f 445/5/1 446/7/1 447/8/1 448/6/1
f 449/2/1 450/5/1 451/6/1 452/3/1
f 453/5/1 454/7/1 455/8/1 456/6/1
f 457/2/1 458/5/1 459/6/1 460/3/1
f 461/5/1 462/7/1 463/8/1 464/6/1
f 465/5/1 466/7/1 467/8/1 468/6/1
f 469/2/1 470/5/1 471/6/1 472/3/1
f 473/5/1 474/7/1 475/8/1 476/6/1
f 477/2/1 478/5/1 479/6/1 480/3/1
f 481/5/1 482/7/1 483/8/1 484/6/1
f 485/2/1 486/5/1 487/6/1 488/3/1
f 489/5/1 490/7/1 491/8/1 492/6/1
f 493/2/1 494/5/1 495/6/1 496/3/1
f 497/5/1 498/7/1 499/8/1 500/6/1
f 501/5/1 502/7/1 503/8/1 504/6/1
f 505/5/1 506/7/1 507/8/1 508/6/1
f 509/2/1 510/5/1 511/6/1 512/3/1
f 513/5/1 514/7/1 515/8/1 516/6/1
f 517/7/1 518/9/1 519/10/1 520/8/1
f 521/2/1 522/5/1 523/6/1 524/3/1
f 525/5/1 526/7/1 527/8/1 528/6/1
f 529/2/1 530/5/1 531/6/1 532/3/1
f 533/5/1 534/7/1 535/8/1 536/6/1
f 537/2/1 538/5/1 539/6/1 540/3/1
f 541/2/1 542/5/1 543/6/1 544/3/1
f 545/5/1 546/7/1 547/8/1 548/6/1
f 549/2/1 550/5/1 551/6/1 552/3/1
f 553/5/1 554/7/1 555/8/1 556/6/1
f 557/2/1 558/5/1 559/6/1 560/3/1
f 561/5/1 562/7/1 563/8/1 564/6/1
f 565/2/1 566/5/1 567/6/1 568/3/1
f 569/5/1 570/7/1 571/8/1 572/6/1
f 573/2/1 574/5/1 575/6/1 576/3/1
f 577/5/1 578/7/1 579/8/1 580/6/1
f 581/2/1 582/5/1 583/6/1 584/3/1
f 585/5/1 586/7/1 587/8/1 588/6/1
f 589/2/1 590/5/1 591/6/1 592/3/1
f 593/5/1 594/7/1 595/8/1 596/6/1
f 597/2/1 598/5/1 599/6/1 600/3/1
f 601/5/1 602/7/1 603/8/1 604/6/1
f 605/2/1 606/5/1 607/6/1 608/3/1
f 609/5/1 610/7/1 611/8/1 612/6/1
f 613/2/1 614/5/1 615/6/1 616/3/1
f 617/5/1 618/7/1 619/8/1 620/6/1
f 621/2/1 622/5/1 623/6/1 624/3/1
f 625/5/1 626/7/1 627/8/1 628/6/1
f 629/2/1 630/5/1 631/6/1 632/3/1
f 633/5/1 634/7/1 635/8/1 636/6/1
f 637/2/1 638/5/1 639/6/1 640/3/1
f 641/5/1 642/7/1 643/8/1 644/6/1
f 645/2/1 646/5/1 647/6/1 648/3/1
f 649/5/1 650/7/1 651/8/1 652/6/1
f 653/2/1 654/5/1 655/6/1 656/3/1
f 657/5/1 658/7/1 659/8/1 660/6/1
f 661/2/1 662/5/1 663/6/1 664/3/1
f 665/5/1 666/7/1 667/8/1 668/6/1
f 669/2/1 670/5/1 671/6/1 672/3/1
f 673/5/1 674/7/1 675/8/1 676/6/1
f 677/5/1 678/7/1 679/8/1 680/6/1
f 681/2/1 682/5/1 683/6/1 684/3/1
f 685/5/1 686/7/1 687/8/1 688/6/1

