# Tiled2Unity generated file. Do not modify by hand.
# Wavefront file for 'SalleNSE_mesh_0001.obj'

# Vertices (Count = 920)
v -1584 -888 0
v -1608 -888 0
v -1608 -864 0
v -1584 -864 0
v -1608 -888 0
v -1632 -888 0
v -1632 -864 0
v -1608 -864 0
v -1680 -888 0
v -1704 -888 0
v -1704 -864 0
v -1680 -864 0
v -1704 -888 0
v -1728 -888 0
v -1728 -864 0
v -1704 -864 0
v -1584 -912 0
v -1608 -912 0
v -1608 -888 0
v -1584 -888 0
v -1608 -912 0
v -1632 -912 0
v -1632 -888 0
v -1608 -888 0
v -1680 -912 0
v -1704 -912 0
v -1704 -888 0
v -1680 -888 0
v -1704 -912 0
v -1728 -912 0
v -1728 -888 0
v -1704 -888 0
v -1584 -936 0
v -1608 -936 0
v -1608 -912 0
v -1584 -912 0
v -1608 -936 0
v -1632 -936 0
v -1632 -912 0
v -1608 -912 0
v -1680 -936 0
v -1704 -936 0
v -1704 -912 0
v -1680 -912 0
v -1704 -936 0
v -1728 -936 0
v -1728 -912 0
v -1704 -912 0
v -1584 -960 0
v -1608 -960 0
v -1608 -936 0
v -1584 -936 0
v -1608 -960 0
v -1632 -960 0
v -1632 -936 0
v -1608 -936 0
v -1680 -960 0
v -1704 -960 0
v -1704 -936 0
v -1680 -936 0
v -1704 -960 0
v -1728 -960 0
v -1728 -936 0
v -1704 -936 0
v -1368 -984 0
v -1392 -984 0
v -1392 -960 0
v -1368 -960 0
v -1392 -984 0
v -1416 -984 0
v -1416 -960 0
v -1392 -960 0
v -1416 -984 0
v -1440 -984 0
v -1440 -960 0
v -1416 -960 0
v -1440 -984 0
v -1464 -984 0
v -1464 -960 0
v -1440 -960 0
v -1464 -984 0
v -1488 -984 0
v -1488 -960 0
v -1464 -960 0
v -1488 -984 0
v -1512 -984 0
v -1512 -960 0
v -1488 -960 0
v -1512 -984 0
v -1536 -984 0
v -1536 -960 0
v -1512 -960 0
v -1536 -984 0
v -1560 -984 0
v -1560 -960 0
v -1536 -960 0
v -1560 -984 0
v -1584 -984 0
v -1584 -960 0
v -1560 -960 0
v -1584 -984 0
v -1608 -984 0
v -1608 -960 0
v -1584 -960 0
v -1608 -984 0
v -1632 -984 0
v -1632 -960 0
v -1608 -960 0
v -1680 -984 0
v -1704 -984 0
v -1704 -960 0
v -1680 -960 0
v -1704 -984 0
v -1728 -984 0
v -1728 -960 0
v -1704 -960 0
v -1728 -984 0
v -1752 -984 0
v -1752 -960 0
v -1728 -960 0
v -1752 -984 0
v -1776 -984 0
v -1776 -960 0
v -1752 -960 0
v -1776 -984 0
v -1800 -984 0
v -1800 -960 0
v -1776 -960 0
v -1800 -984 0
v -1824 -984 0
v -1824 -960 0
v -1800 -960 0
v -1824 -984 0
v -1848 -984 0
v -1848 -960 0
v -1824 -960 0
v -1848 -984 0
v -1872 -984 0
v -1872 -960 0
v -1848 -960 0
v -1872 -984 0
v -1896 -984 0
v -1896 -960 0
v -1872 -960 0
v -1896 -984 0
v -1920 -984 0
v -1920 -960 0
v -1896 -960 0
v -1920 -984 0
v -1944 -984 0
v -1944 -960 0
v -1920 -960 0
v -1368 -1008 0
v -1392 -1008 0
v -1392 -984 0
v -1368 -984 0
v -1392 -1008 0
v -1416 -1008 0
v -1416 -984 0
v -1392 -984 0
v -1416 -1008 0
v -1440 -1008 0
v -1440 -984 0
v -1416 -984 0
v -1440 -1008 0
v -1464 -1008 0
v -1464 -984 0
v -1440 -984 0
v -1464 -1008 0
v -1488 -1008 0
v -1488 -984 0
v -1464 -984 0
v -1488 -1008 0
v -1512 -1008 0
v -1512 -984 0
v -1488 -984 0
v -1512 -1008 0
v -1536 -1008 0
v -1536 -984 0
v -1512 -984 0
v -1536 -1008 0
v -1560 -1008 0
v -1560 -984 0
v -1536 -984 0
v -1560 -1008 0
v -1584 -1008 0
v -1584 -984 0
v -1560 -984 0
v -1584 -1008 0
v -1608 -1008 0
v -1608 -984 0
v -1584 -984 0
v -1608 -1008 0
v -1632 -1008 0
v -1632 -984 0
v -1608 -984 0
v -1680 -1008 0
v -1704 -1008 0
v -1704 -984 0
v -1680 -984 0
v -1704 -1008 0
v -1728 -1008 0
v -1728 -984 0
v -1704 -984 0
v -1728 -1008 0
v -1752 -1008 0
v -1752 -984 0
v -1728 -984 0
v -1752 -1008 0
v -1776 -1008 0
v -1776 -984 0
v -1752 -984 0
v -1776 -1008 0
v -1800 -1008 0
v -1800 -984 0
v -1776 -984 0
v -1800 -1008 0
v -1824 -1008 0
v -1824 -984 0
v -1800 -984 0
v -1824 -1008 0
v -1848 -1008 0
v -1848 -984 0
v -1824 -984 0
v -1848 -1008 0
v -1872 -1008 0
v -1872 -984 0
v -1848 -984 0
v -1872 -1008 0
v -1896 -1008 0
v -1896 -984 0
v -1872 -984 0
v -1896 -1008 0
v -1920 -1008 0
v -1920 -984 0
v -1896 -984 0
v -1920 -1008 0
v -1944 -1008 0
v -1944 -984 0
v -1920 -984 0
v -1368 -1032 0
v -1392 -1032 0
v -1392 -1008 0
v -1368 -1008 0
v -1392 -1032 0
v -1416 -1032 0
v -1416 -1008 0
v -1392 -1008 0
v -1416 -1032 0
v -1440 -1032 0
v -1440 -1008 0
v -1416 -1008 0
v -1440 -1032 0
v -1464 -1032 0
v -1464 -1008 0
v -1440 -1008 0
v -1464 -1032 0
v -1488 -1032 0
v -1488 -1008 0
v -1464 -1008 0
v -1488 -1032 0
v -1512 -1032 0
v -1512 -1008 0
v -1488 -1008 0
v -1512 -1032 0
v -1536 -1032 0
v -1536 -1008 0
v -1512 -1008 0
v -1536 -1032 0
v -1560 -1032 0
v -1560 -1008 0
v -1536 -1008 0
v -1560 -1032 0
v -1584 -1032 0
v -1584 -1008 0
v -1560 -1008 0
v -1584 -1032 0
v -1608 -1032 0
v -1608 -1008 0
v -1584 -1008 0
v -1608 -1032 0
v -1632 -1032 0
v -1632 -1008 0
v -1608 -1008 0
v -1680 -1032 0
v -1704 -1032 0
v -1704 -1008 0
v -1680 -1008 0
v -1704 -1032 0
v -1728 -1032 0
v -1728 -1008 0
v -1704 -1008 0
v -1728 -1032 0
v -1752 -1032 0
v -1752 -1008 0
v -1728 -1008 0
v -1752 -1032 0
v -1776 -1032 0
v -1776 -1008 0
v -1752 -1008 0
v -1776 -1032 0
v -1800 -1032 0
v -1800 -1008 0
v -1776 -1008 0
v -1800 -1032 0
v -1824 -1032 0
v -1824 -1008 0
v -1800 -1008 0
v -1824 -1032 0
v -1848 -1032 0
v -1848 -1008 0
v -1824 -1008 0
v -1848 -1032 0
v -1872 -1032 0
v -1872 -1008 0
v -1848 -1008 0
v -1872 -1032 0
v -1896 -1032 0
v -1896 -1008 0
v -1872 -1008 0
v -1896 -1032 0
v -1920 -1032 0
v -1920 -1008 0
v -1896 -1008 0
v -1920 -1032 0
v -1944 -1032 0
v -1944 -1008 0
v -1920 -1008 0
v -1368 -1056 0
v -1392 -1056 0
v -1392 -1032 0
v -1368 -1032 0
v -1392 -1056 0
v -1416 -1056 0
v -1416 -1032 0
v -1392 -1032 0
v -1896 -1056 0
v -1920 -1056 0
v -1920 -1032 0
v -1896 -1032 0
v -1920 -1056 0
v -1944 -1056 0
v -1944 -1032 0
v -1920 -1032 0
v -1368 -1080 0
v -1392 -1080 0
v -1392 -1056 0
v -1368 -1056 0
v -1392 -1080 0
v -1416 -1080 0
v -1416 -1056 0
v -1392 -1056 0
v -1896 -1080 0
v -1920 -1080 0
v -1920 -1056 0
v -1896 -1056 0
v -1920 -1080 0
v -1944 -1080 0
v -1944 -1056 0
v -1920 -1056 0
v -1368 -1104 0
v -1392 -1104 0
v -1392 -1080 0
v -1368 -1080 0
v -1392 -1104 0
v -1416 -1104 0
v -1416 -1080 0
v -1392 -1080 0
v -1896 -1104 0
v -1920 -1104 0
v -1920 -1080 0
v -1896 -1080 0
v -1920 -1104 0
v -1944 -1104 0
v -1944 -1080 0
v -1920 -1080 0
v -1368 -1128 0
v -1392 -1128 0
v -1392 -1104 0
v -1368 -1104 0
v -1392 -1128 0
v -1416 -1128 0
v -1416 -1104 0
v -1392 -1104 0
v -1896 -1128 0
v -1920 -1128 0
v -1920 -1104 0
v -1896 -1104 0
v -1920 -1128 0
v -1944 -1128 0
v -1944 -1104 0
v -1920 -1104 0
v -1944 -1128 0
v -1968 -1128 0
v -1968 -1104 0
v -1944 -1104 0
v -1968 -1128 0
v -1992 -1128 0
v -1992 -1104 0
v -1968 -1104 0
v -1992 -1128 0
v -2016 -1128 0
v -2016 -1104 0
v -1992 -1104 0
v -2016 -1128 0
v -2040 -1128 0
v -2040 -1104 0
v -2016 -1104 0
v -1368 -1152 0
v -1392 -1152 0
v -1392 -1128 0
v -1368 -1128 0
v -1392 -1152 0
v -1416 -1152 0
v -1416 -1128 0
v -1392 -1128 0
v -1896 -1152 0
v -1920 -1152 0
v -1920 -1128 0
v -1896 -1128 0
v -1920 -1152 0
v -1944 -1152 0
v -1944 -1128 0
v -1920 -1128 0
v -1944 -1152 0
v -1968 -1152 0
v -1968 -1128 0
v -1944 -1128 0
v -1968 -1152 0
v -1992 -1152 0
v -1992 -1128 0
v -1968 -1128 0
v -1992 -1152 0
v -2016 -1152 0
v -2016 -1128 0
v -1992 -1128 0
v -2016 -1152 0
v -2040 -1152 0
v -2040 -1128 0
v -2016 -1128 0
v -1368 -1176 0
v -1392 -1176 0
v -1392 -1152 0
v -1368 -1152 0
v -1392 -1176 0
v -1416 -1176 0
v -1416 -1152 0
v -1392 -1152 0
v -1896 -1176 0
v -1920 -1176 0
v -1920 -1152 0
v -1896 -1152 0
v -1920 -1176 0
v -1944 -1176 0
v -1944 -1152 0
v -1920 -1152 0
v -1944 -1176 0
v -1968 -1176 0
v -1968 -1152 0
v -1944 -1152 0
v -1968 -1176 0
v -1992 -1176 0
v -1992 -1152 0
v -1968 -1152 0
v -1992 -1176 0
v -2016 -1176 0
v -2016 -1152 0
v -1992 -1152 0
v -2016 -1176 0
v -2040 -1176 0
v -2040 -1152 0
v -2016 -1152 0
v -1368 -1200 0
v -1392 -1200 0
v -1392 -1176 0
v -1368 -1176 0
v -1392 -1200 0
v -1416 -1200 0
v -1416 -1176 0
v -1392 -1176 0
v -1368 -1224 0
v -1392 -1224 0
v -1392 -1200 0
v -1368 -1200 0
v -1392 -1224 0
v -1416 -1224 0
v -1416 -1200 0
v -1392 -1200 0
v -1368 -1248 0
v -1392 -1248 0
v -1392 -1224 0
v -1368 -1224 0
v -1392 -1248 0
v -1416 -1248 0
v -1416 -1224 0
v -1392 -1224 0
v -1368 -1272 0
v -1392 -1272 0
v -1392 -1248 0
v -1368 -1248 0
v -1392 -1272 0
v -1416 -1272 0
v -1416 -1248 0
v -1392 -1248 0
v -1896 -1272 0
v -1920 -1272 0
v -1920 -1248 0
v -1896 -1248 0
v -1920 -1272 0
v -1944 -1272 0
v -1944 -1248 0
v -1920 -1248 0
v -1944 -1272 0
v -1968 -1272 0
v -1968 -1248 0
v -1944 -1248 0
v -1968 -1272 0
v -1992 -1272 0
v -1992 -1248 0
v -1968 -1248 0
v -1992 -1272 0
v -2016 -1272 0
v -2016 -1248 0
v -1992 -1248 0
v -2016 -1272 0
v -2040 -1272 0
v -2040 -1248 0
v -2016 -1248 0
v -1368 -1296 0
v -1392 -1296 0
v -1392 -1272 0
v -1368 -1272 0
v -1392 -1296 0
v -1416 -1296 0
v -1416 -1272 0
v -1392 -1272 0
v -1896 -1296 0
v -1920 -1296 0
v -1920 -1272 0
v -1896 -1272 0
v -1920 -1296 0
v -1944 -1296 0
v -1944 -1272 0
v -1920 -1272 0
v -1944 -1296 0
v -1968 -1296 0
v -1968 -1272 0
v -1944 -1272 0
v -1968 -1296 0
v -1992 -1296 0
v -1992 -1272 0
v -1968 -1272 0
v -1992 -1296 0
v -2016 -1296 0
v -2016 -1272 0
v -1992 -1272 0
v -2016 -1296 0
v -2040 -1296 0
v -2040 -1272 0
v -2016 -1272 0
v -1368 -1320 0
v -1392 -1320 0
v -1392 -1296 0
v -1368 -1296 0
v -1392 -1320 0
v -1416 -1320 0
v -1416 -1296 0
v -1392 -1296 0
v -1896 -1320 0
v -1920 -1320 0
v -1920 -1296 0
v -1896 -1296 0
v -1920 -1320 0
v -1944 -1320 0
v -1944 -1296 0
v -1920 -1296 0
v -1944 -1320 0
v -1968 -1320 0
v -1968 -1296 0
v -1944 -1296 0
v -1968 -1320 0
v -1992 -1320 0
v -1992 -1296 0
v -1968 -1296 0
v -1992 -1320 0
v -2016 -1320 0
v -2016 -1296 0
v -1992 -1296 0
v -2016 -1320 0
v -2040 -1320 0
v -2040 -1296 0
v -2016 -1296 0
v -1368 -1344 0
v -1392 -1344 0
v -1392 -1320 0
v -1368 -1320 0
v -1392 -1344 0
v -1416 -1344 0
v -1416 -1320 0
v -1392 -1320 0
v -1896 -1344 0
v -1920 -1344 0
v -1920 -1320 0
v -1896 -1320 0
v -1920 -1344 0
v -1944 -1344 0
v -1944 -1320 0
v -1920 -1320 0
v -1368 -1368 0
v -1392 -1368 0
v -1392 -1344 0
v -1368 -1344 0
v -1392 -1368 0
v -1416 -1368 0
v -1416 -1344 0
v -1392 -1344 0
v -1416 -1368 0
v -1440 -1368 0
v -1440 -1344 0
v -1416 -1344 0
v -1440 -1368 0
v -1464 -1368 0
v -1464 -1344 0
v -1440 -1344 0
v -1464 -1368 0
v -1488 -1368 0
v -1488 -1344 0
v -1464 -1344 0
v -1488 -1368 0
v -1512 -1368 0
v -1512 -1344 0
v -1488 -1344 0
v -1512 -1368 0
v -1536 -1368 0
v -1536 -1344 0
v -1512 -1344 0
v -1536 -1368 0
v -1560 -1368 0
v -1560 -1344 0
v -1536 -1344 0
v -1560 -1368 0
v -1584 -1368 0
v -1584 -1344 0
v -1560 -1344 0
v -1584 -1368 0
v -1608 -1368 0
v -1608 -1344 0
v -1584 -1344 0
v -1608 -1368 0
v -1632 -1368 0
v -1632 -1344 0
v -1608 -1344 0
v -1680 -1368 0
v -1704 -1368 0
v -1704 -1344 0
v -1680 -1344 0
v -1704 -1368 0
v -1728 -1368 0
v -1728 -1344 0
v -1704 -1344 0
v -1728 -1368 0
v -1752 -1368 0
v -1752 -1344 0
v -1728 -1344 0
v -1752 -1368 0
v -1776 -1368 0
v -1776 -1344 0
v -1752 -1344 0
v -1776 -1368 0
v -1800 -1368 0
v -1800 -1344 0
v -1776 -1344 0
v -1800 -1368 0
v -1824 -1368 0
v -1824 -1344 0
v -1800 -1344 0
v -1824 -1368 0
v -1848 -1368 0
v -1848 -1344 0
v -1824 -1344 0
v -1848 -1368 0
v -1872 -1368 0
v -1872 -1344 0
v -1848 -1344 0
v -1872 -1368 0
v -1896 -1368 0
v -1896 -1344 0
v -1872 -1344 0
v -1896 -1368 0
v -1920 -1368 0
v -1920 -1344 0
v -1896 -1344 0
v -1920 -1368 0
v -1944 -1368 0
v -1944 -1344 0
v -1920 -1344 0
v -1368 -1392 0
v -1392 -1392 0
v -1392 -1368 0
v -1368 -1368 0
v -1392 -1392 0
v -1416 -1392 0
v -1416 -1368 0
v -1392 -1368 0
v -1416 -1392 0
v -1440 -1392 0
v -1440 -1368 0
v -1416 -1368 0
v -1440 -1392 0
v -1464 -1392 0
v -1464 -1368 0
v -1440 -1368 0
v -1464 -1392 0
v -1488 -1392 0
v -1488 -1368 0
v -1464 -1368 0
v -1488 -1392 0
v -1512 -1392 0
v -1512 -1368 0
v -1488 -1368 0
v -1512 -1392 0
v -1536 -1392 0
v -1536 -1368 0
v -1512 -1368 0
v -1536 -1392 0
v -1560 -1392 0
v -1560 -1368 0
v -1536 -1368 0
v -1560 -1392 0
v -1584 -1392 0
v -1584 -1368 0
v -1560 -1368 0
v -1584 -1392 0
v -1608 -1392 0
v -1608 -1368 0
v -1584 -1368 0
v -1608 -1392 0
v -1632 -1392 0
v -1632 -1368 0
v -1608 -1368 0
v -1680 -1392 0
v -1704 -1392 0
v -1704 -1368 0
v -1680 -1368 0
v -1704 -1392 0
v -1728 -1392 0
v -1728 -1368 0
v -1704 -1368 0
v -1728 -1392 0
v -1752 -1392 0
v -1752 -1368 0
v -1728 -1368 0
v -1752 -1392 0
v -1776 -1392 0
v -1776 -1368 0
v -1752 -1368 0
v -1776 -1392 0
v -1800 -1392 0
v -1800 -1368 0
v -1776 -1368 0
v -1800 -1392 0
v -1824 -1392 0
v -1824 -1368 0
v -1800 -1368 0
v -1824 -1392 0
v -1848 -1392 0
v -1848 -1368 0
v -1824 -1368 0
v -1848 -1392 0
v -1872 -1392 0
v -1872 -1368 0
v -1848 -1368 0
v -1872 -1392 0
v -1896 -1392 0
v -1896 -1368 0
v -1872 -1368 0
v -1896 -1392 0
v -1920 -1392 0
v -1920 -1368 0
v -1896 -1368 0
v -1920 -1392 0
v -1944 -1392 0
v -1944 -1368 0
v -1920 -1368 0
v -1368 -1416 0
v -1392 -1416 0
v -1392 -1392 0
v -1368 -1392 0
v -1392 -1416 0
v -1416 -1416 0
v -1416 -1392 0
v -1392 -1392 0
v -1416 -1416 0
v -1440 -1416 0
v -1440 -1392 0
v -1416 -1392 0
v -1440 -1416 0
v -1464 -1416 0
v -1464 -1392 0
v -1440 -1392 0
v -1464 -1416 0
v -1488 -1416 0
v -1488 -1392 0
v -1464 -1392 0
v -1488 -1416 0
v -1512 -1416 0
v -1512 -1392 0
v -1488 -1392 0
v -1512 -1416 0
v -1536 -1416 0
v -1536 -1392 0
v -1512 -1392 0
v -1536 -1416 0
v -1560 -1416 0
v -1560 -1392 0
v -1536 -1392 0
v -1560 -1416 0
v -1584 -1416 0
v -1584 -1392 0
v -1560 -1392 0
v -1584 -1416 0
v -1608 -1416 0
v -1608 -1392 0
v -1584 -1392 0
v -1608 -1416 0
v -1632 -1416 0
v -1632 -1392 0
v -1608 -1392 0
v -1680 -1416 0
v -1704 -1416 0
v -1704 -1392 0
v -1680 -1392 0
v -1704 -1416 0
v -1728 -1416 0
v -1728 -1392 0
v -1704 -1392 0
v -1728 -1416 0
v -1752 -1416 0
v -1752 -1392 0
v -1728 -1392 0
v -1752 -1416 0
v -1776 -1416 0
v -1776 -1392 0
v -1752 -1392 0
v -1776 -1416 0
v -1800 -1416 0
v -1800 -1392 0
v -1776 -1392 0
v -1800 -1416 0
v -1824 -1416 0
v -1824 -1392 0
v -1800 -1392 0
v -1824 -1416 0
v -1848 -1416 0
v -1848 -1392 0
v -1824 -1392 0
v -1848 -1416 0
v -1872 -1416 0
v -1872 -1392 0
v -1848 -1392 0
v -1872 -1416 0
v -1896 -1416 0
v -1896 -1392 0
v -1872 -1392 0
v -1896 -1416 0
v -1920 -1416 0
v -1920 -1392 0
v -1896 -1392 0
v -1920 -1416 0
v -1944 -1416 0
v -1944 -1392 0
v -1920 -1392 0
v -1584 -1440 0
v -1608 -1440 0
v -1608 -1416 0
v -1584 -1416 0
v -1608 -1440 0
v -1632 -1440 0
v -1632 -1416 0
v -1608 -1416 0
v -1680 -1440 0
v -1704 -1440 0
v -1704 -1416 0
v -1680 -1416 0
v -1704 -1440 0
v -1728 -1440 0
v -1728 -1416 0
v -1704 -1416 0
v -1584 -1464 0
v -1608 -1464 0
v -1608 -1440 0
v -1584 -1440 0
v -1608 -1464 0
v -1632 -1464 0
v -1632 -1440 0
v -1608 -1440 0
v -1680 -1464 0
v -1704 -1464 0
v -1704 -1440 0
v -1680 -1440 0
v -1704 -1464 0
v -1728 -1464 0
v -1728 -1440 0
v -1704 -1440 0
v -1584 -1488 0
v -1608 -1488 0
v -1608 -1464 0
v -1584 -1464 0
v -1608 -1488 0
v -1632 -1488 0
v -1632 -1464 0
v -1608 -1464 0
v -1680 -1488 0
v -1704 -1488 0
v -1704 -1464 0
v -1680 -1464 0
v -1704 -1488 0
v -1728 -1488 0
v -1728 -1464 0
v -1704 -1464 0

# Texture cooridinates (Count = 44)
vt 0.125 0.8666667
vt 0.15625 0.8666667
vt 0.15625 0.9
vt 0.125 0.9
vt 0.21875 0.8666667
vt 0.25 0.8666667
vt 0.25 0.9
vt 0.21875 0.9
vt 0.125 0.8333333
vt 0.15625 0.8333333
vt 0.21875 0.8333333
vt 0.25 0.8333333
vt 0.1875 0.8666667
vt 0.1875 0.9
vt 0.1875 0.8
vt 0.21875 0.8
vt 0.1875 0.8333333
vt 0.15625 0.8
vt 0.25 0.8
vt 0.125 0.9333333
vt 0.15625 0.9333333
vt 0.15625 0.9666666
vt 0.125 0.9666666
vt 0.125 0.7
vt 0.15625 0.7
vt 0.15625 0.7333333
vt 0.125 0.7333333
vt 0.1875 0.7
vt 0.1875 0.7333333
vt 0.21875 0.7
vt 0.21875 0.7333333
vt 0.1875 0.7666667
vt 0.15625 0.7666667
vt 0.21875 0.7666667
vt 0.25 0.7333333
vt 0.25 0.7666667
vt 0.125 0.7666667
vt 0.25 0.7
vt 0.125 0.6666666
vt 0.15625 0.6666666
vt 0.1875 0.6666666
vt 0.21875 0.6666666
vt 0.25 0.6666666
vt 0.125 0.8

# Normal
vn 0 0 -1

# Mesh description
g SalleNSE_mesh_0001

# Faces
f 1/1/1 2/2/1 3/3/1 4/4/1
f 5/5/1 6/6/1 7/7/1 8/8/1
f 9/1/1 10/2/1 11/3/1 12/4/1
f 13/5/1 14/6/1 15/7/1 16/8/1
f 17/9/1 18/10/1 19/2/1 20/1/1
f 21/11/1 22/12/1 23/6/1 24/5/1
f 25/9/1 26/10/1 27/2/1 28/1/1
f 29/11/1 30/12/1 31/6/1 32/5/1
f 33/9/1 34/10/1 35/2/1 36/1/1
f 37/5/1 38/6/1 39/7/1 40/8/1
f 41/9/1 42/10/1 43/2/1 44/1/1
f 45/5/1 46/6/1 47/7/1 48/8/1
f 49/2/1 50/13/1 51/14/1 52/3/1
f 53/11/1 54/12/1 55/6/1 56/5/1
f 57/1/1 58/2/1 59/3/1 60/4/1
f 61/2/1 62/13/1 63/14/1 64/3/1
f 65/1/1 66/2/1 67/3/1 68/4/1
f 69/13/1 70/5/1 71/8/1 72/14/1
f 73/15/1 74/16/1 75/11/1 76/17/1
f 77/2/1 78/13/1 79/14/1 80/3/1
f 81/13/1 82/5/1 83/8/1 84/14/1
f 85/2/1 86/13/1 87/14/1 88/3/1
f 89/18/1 90/15/1 91/17/1 92/10/1
f 93/15/1 94/16/1 95/11/1 96/17/1
f 97/18/1 98/15/1 99/17/1 100/10/1
f 101/15/1 102/16/1 103/11/1 104/17/1
f 105/16/1 106/19/1 107/12/1 108/11/1
f 109/20/1 110/21/1 111/22/1 112/23/1
f 113/18/1 114/15/1 115/17/1 116/10/1
f 117/15/1 118/16/1 119/11/1 120/17/1
f 121/18/1 122/15/1 123/17/1 124/10/1
f 125/2/1 126/13/1 127/14/1 128/3/1
f 129/13/1 130/5/1 131/8/1 132/14/1
f 133/2/1 134/13/1 135/14/1 136/3/1
f 137/13/1 138/5/1 139/8/1 140/14/1
f 141/13/1 142/5/1 143/8/1 144/14/1
f 145/13/1 146/5/1 147/8/1 148/14/1
f 149/5/1 150/6/1 151/7/1 152/8/1
f 153/1/1 154/2/1 155/3/1 156/4/1
f 157/11/1 158/12/1 159/6/1 160/5/1
f 161/24/1 162/25/1 163/26/1 164/27/1
f 165/25/1 166/28/1 167/29/1 168/26/1
f 169/25/1 170/28/1 171/29/1 172/26/1
f 173/28/1 174/30/1 175/31/1 176/29/1
f 177/26/1 178/29/1 179/32/1 180/33/1
f 181/29/1 182/31/1 183/34/1 184/32/1
f 185/26/1 186/29/1 187/32/1 188/33/1
f 189/29/1 190/31/1 191/34/1 192/32/1
f 193/31/1 194/35/1 195/36/1 196/34/1
f 197/27/1 198/26/1 199/33/1 200/37/1
f 201/26/1 202/29/1 203/32/1 204/33/1
f 205/29/1 206/31/1 207/34/1 208/32/1
f 209/26/1 210/29/1 211/32/1 212/33/1
f 213/28/1 214/30/1 215/31/1 216/29/1
f 217/25/1 218/28/1 219/29/1 220/26/1
f 221/25/1 222/28/1 223/29/1 224/26/1
f 225/28/1 226/30/1 227/31/1 228/29/1
f 229/30/1 230/38/1 231/35/1 232/31/1
f 233/9/1 234/10/1 235/2/1 236/1/1
f 237/11/1 238/12/1 239/6/1 240/5/1
f 241/9/1 242/10/1 243/2/1 244/1/1
f 245/5/1 246/6/1 247/7/1 248/8/1
f 249/39/1 250/40/1 251/25/1 252/24/1
f 253/40/1 254/41/1 255/28/1 256/25/1
f 257/40/1 258/41/1 259/28/1 260/25/1
f 261/41/1 262/42/1 263/30/1 264/28/1
f 265/40/1 266/41/1 267/28/1 268/25/1
f 269/41/1 270/42/1 271/30/1 272/28/1
f 273/40/1 274/41/1 275/28/1 276/25/1
f 277/41/1 278/42/1 279/30/1 280/28/1
f 281/42/1 282/43/1 283/38/1 284/30/1
f 285/39/1 286/40/1 287/25/1 288/24/1
f 289/40/1 290/41/1 291/28/1 292/25/1
f 293/41/1 294/42/1 295/30/1 296/28/1
f 297/40/1 298/41/1 299/28/1 300/25/1
f 301/41/1 302/42/1 303/30/1 304/28/1
f 305/40/1 306/41/1 307/28/1 308/25/1
f 309/40/1 310/41/1 311/28/1 312/25/1
f 313/41/1 314/42/1 315/30/1 316/28/1
f 317/42/1 318/43/1 319/38/1 320/30/1
f 321/1/1 322/2/1 323/3/1 324/4/1
f 325/5/1 326/6/1 327/7/1 328/8/1
f 329/9/1 330/10/1 331/2/1 332/1/1
f 333/11/1 334/12/1 335/6/1 336/5/1
f 337/9/1 338/10/1 339/2/1 340/1/1
f 341/11/1 342/12/1 343/6/1 344/5/1
f 345/1/1 346/2/1 347/3/1 348/4/1
f 349/5/1 350/6/1 351/7/1 352/8/1
f 353/1/1 354/2/1 355/3/1 356/4/1
f 357/5/1 358/6/1 359/7/1 360/8/1
f 361/1/1 362/2/1 363/3/1 364/4/1
f 365/11/1 366/12/1 367/6/1 368/5/1
f 369/1/1 370/2/1 371/3/1 372/4/1
f 373/2/1 374/13/1 375/14/1 376/3/1
f 377/1/1 378/2/1 379/3/1 380/4/1
f 381/11/1 382/12/1 383/6/1 384/5/1
f 385/44/1 386/18/1 387/10/1 388/9/1
f 389/18/1 390/15/1 391/17/1 392/10/1
f 393/18/1 394/15/1 395/17/1 396/10/1
f 397/15/1 398/16/1 399/11/1 400/17/1
f 401/18/1 402/15/1 403/17/1 404/10/1
f 405/15/1 406/16/1 407/11/1 408/17/1
f 409/9/1 410/10/1 411/2/1 412/1/1
f 413/5/1 414/6/1 415/7/1 416/8/1
f 417/37/1 418/33/1 419/18/1 420/44/1
f 421/33/1 422/32/1 423/15/1 424/18/1
f 425/32/1 426/34/1 427/16/1 428/15/1
f 429/33/1 430/32/1 431/15/1 432/18/1
f 433/32/1 434/34/1 435/16/1 436/15/1
f 437/33/1 438/32/1 439/15/1 440/18/1
f 441/1/1 442/2/1 443/3/1 444/4/1
f 445/11/1 446/12/1 447/6/1 448/5/1
f 449/39/1 450/40/1 451/25/1 452/24/1
f 453/40/1 454/41/1 455/28/1 456/25/1
f 457/41/1 458/42/1 459/30/1 460/28/1
f 461/40/1 462/41/1 463/28/1 464/25/1
f 465/41/1 466/42/1 467/30/1 468/28/1
f 469/40/1 470/41/1 471/28/1 472/25/1
f 473/1/1 474/2/1 475/3/1 476/4/1
f 477/5/1 478/6/1 479/7/1 480/8/1
f 481/9/1 482/10/1 483/2/1 484/1/1
f 485/11/1 486/12/1 487/6/1 488/5/1
f 489/9/1 490/10/1 491/2/1 492/1/1
f 493/5/1 494/6/1 495/7/1 496/8/1
f 497/1/1 498/2/1 499/3/1 500/4/1
f 501/5/1 502/6/1 503/7/1 504/8/1
f 505/1/1 506/2/1 507/3/1 508/4/1
f 509/10/1 510/17/1 511/13/1 512/2/1
f 513/15/1 514/16/1 515/11/1 516/17/1
f 517/18/1 518/15/1 519/17/1 520/10/1
f 521/15/1 522/16/1 523/11/1 524/17/1
f 525/18/1 526/15/1 527/17/1 528/10/1
f 529/9/1 530/10/1 531/2/1 532/1/1
f 533/11/1 534/12/1 535/6/1 536/5/1
f 537/1/1 538/2/1 539/3/1 540/4/1
f 541/5/1 542/6/1 543/7/1 544/8/1
f 545/33/1 546/32/1 547/15/1 548/18/1
f 549/33/1 550/32/1 551/15/1 552/18/1
f 553/32/1 554/34/1 555/16/1 556/15/1
f 557/33/1 558/32/1 559/15/1 560/18/1
f 561/9/1 562/10/1 563/2/1 564/1/1
f 565/5/1 566/6/1 567/7/1 568/8/1
f 569/9/1 570/10/1 571/2/1 572/1/1
f 573/11/1 574/12/1 575/6/1 576/5/1
f 577/39/1 578/40/1 579/25/1 580/24/1
f 581/40/1 582/41/1 583/28/1 584/25/1
f 585/41/1 586/42/1 587/30/1 588/28/1
f 589/40/1 590/41/1 591/28/1 592/25/1
f 593/1/1 594/2/1 595/3/1 596/4/1
f 597/2/1 598/13/1 599/14/1 600/3/1
f 601/2/1 602/13/1 603/14/1 604/3/1
f 605/11/1 606/12/1 607/6/1 608/5/1
f 609/20/1 610/21/1 611/22/1 612/23/1
f 613/18/1 614/15/1 615/17/1 616/10/1
f 617/15/1 618/16/1 619/11/1 620/17/1
f 621/18/1 622/15/1 623/17/1 624/10/1
f 625/15/1 626/16/1 627/11/1 628/17/1
f 629/18/1 630/15/1 631/17/1 632/10/1
f 633/15/1 634/16/1 635/11/1 636/17/1
f 637/18/1 638/15/1 639/17/1 640/10/1
f 641/15/1 642/16/1 643/11/1 644/17/1
f 645/2/1 646/13/1 647/14/1 648/3/1
f 649/11/1 650/12/1 651/6/1 652/5/1
f 653/9/1 654/10/1 655/2/1 656/1/1
f 657/2/1 658/13/1 659/14/1 660/3/1
f 661/18/1 662/15/1 663/17/1 664/10/1
f 665/15/1 666/16/1 667/11/1 668/17/1
f 669/18/1 670/15/1 671/17/1 672/10/1
f 673/15/1 674/16/1 675/11/1 676/17/1
f 677/18/1 678/15/1 679/17/1 680/10/1
f 681/15/1 682/16/1 683/11/1 684/17/1
f 685/18/1 686/15/1 687/17/1 688/10/1
f 689/15/1 690/16/1 691/11/1 692/17/1
f 693/16/1 694/19/1 695/12/1 696/11/1
f 697/27/1 698/26/1 699/33/1 700/37/1
f 701/26/1 702/29/1 703/32/1 704/33/1
f 705/29/1 706/31/1 707/34/1 708/32/1
f 709/26/1 710/29/1 711/32/1 712/33/1
f 713/29/1 714/31/1 715/34/1 716/32/1
f 717/26/1 718/29/1 719/32/1 720/33/1
f 721/29/1 722/31/1 723/34/1 724/32/1
f 725/26/1 726/29/1 727/32/1 728/33/1
f 729/29/1 730/31/1 731/34/1 732/32/1
f 733/9/1 734/10/1 735/2/1 736/1/1
f 737/5/1 738/6/1 739/7/1 740/8/1
f 741/9/1 742/10/1 743/2/1 744/1/1
f 745/5/1 746/6/1 747/7/1 748/8/1
f 749/26/1 750/29/1 751/32/1 752/33/1
f 753/29/1 754/31/1 755/34/1 756/32/1
f 757/26/1 758/29/1 759/32/1 760/33/1
f 761/29/1 762/31/1 763/34/1 764/32/1
f 765/26/1 766/29/1 767/32/1 768/33/1
f 769/29/1 770/31/1 771/34/1 772/32/1
f 773/26/1 774/29/1 775/32/1 776/33/1
f 777/29/1 778/31/1 779/34/1 780/32/1
f 781/31/1 782/35/1 783/36/1 784/34/1
f 785/39/1 786/40/1 787/25/1 788/24/1
f 789/40/1 790/41/1 791/28/1 792/25/1
f 793/41/1 794/42/1 795/30/1 796/28/1
f 797/40/1 798/41/1 799/28/1 800/25/1
f 801/41/1 802/42/1 803/30/1 804/28/1
f 805/40/1 806/41/1 807/28/1 808/25/1
f 809/41/1 810/42/1 811/30/1 812/28/1
f 813/40/1 814/41/1 815/28/1 816/25/1
f 817/41/1 818/42/1 819/30/1 820/28/1
f 821/1/1 822/2/1 823/3/1 824/4/1
f 825/11/1 826/12/1 827/6/1 828/5/1
f 829/1/1 830/2/1 831/3/1 832/4/1
f 833/5/1 834/6/1 835/7/1 836/8/1
f 837/40/1 838/41/1 839/28/1 840/25/1
f 841/41/1 842/42/1 843/30/1 844/28/1
f 845/40/1 846/41/1 847/28/1 848/25/1
f 849/41/1 850/42/1 851/30/1 852/28/1
f 853/40/1 854/41/1 855/28/1 856/25/1
f 857/41/1 858/42/1 859/30/1 860/28/1
f 861/40/1 862/41/1 863/28/1 864/25/1
f 865/41/1 866/42/1 867/30/1 868/28/1
f 869/42/1 870/43/1 871/38/1 872/30/1
f 873/9/1 874/10/1 875/2/1 876/1/1
f 877/16/1 878/19/1 879/12/1 880/11/1
f 881/20/1 882/21/1 883/22/1 884/23/1
f 885/11/1 886/12/1 887/6/1 888/5/1
f 889/29/1 890/31/1 891/34/1 892/32/1
f 893/31/1 894/35/1 895/36/1 896/34/1
f 897/27/1 898/26/1 899/33/1 900/37/1
f 901/26/1 902/29/1 903/32/1 904/33/1
f 905/41/1 906/42/1 907/30/1 908/28/1
f 909/42/1 910/43/1 911/38/1 912/30/1
f 913/39/1 914/40/1 915/25/1 916/24/1
f 917/40/1 918/41/1 919/28/1 920/25/1

