# Tiled2Unity generated file. Do not modify by hand.
# Wavefront file for 'SalleEW-SF---SP_mesh_0002.obj'

# Vertices (Count = 144)
v -1464 -1008 0
v -1488 -1008 0
v -1488 -984 0
v -1464 -984 0
v -1488 -1008 0
v -1512 -1008 0
v -1512 -984 0
v -1488 -984 0
v -1800 -1008 0
v -1824 -1008 0
v -1824 -984 0
v -1800 -984 0
v -1824 -1008 0
v -1848 -1008 0
v -1848 -984 0
v -1824 -984 0
v -1464 -1032 0
v -1488 -1032 0
v -1488 -1008 0
v -1464 -1008 0
v -1488 -1032 0
v -1512 -1032 0
v -1512 -1008 0
v -1488 -1008 0
v -1800 -1032 0
v -1824 -1032 0
v -1824 -1008 0
v -1800 -1008 0
v -1824 -1032 0
v -1848 -1032 0
v -1848 -1008 0
v -1824 -1008 0
v -1752 -1080 0
v -1776 -1080 0
v -1776 -1056 0
v -1752 -1056 0
v -1776 -1080 0
v -1800 -1080 0
v -1800 -1056 0
v -1776 -1056 0
v -1752 -1104 0
v -1776 -1104 0
v -1776 -1080 0
v -1752 -1080 0
v -1776 -1104 0
v -1800 -1104 0
v -1800 -1080 0
v -1776 -1080 0
v -1320 -1128 0
v -1344 -1128 0
v -1344 -1104 0
v -1320 -1104 0
v -1344 -1128 0
v -1368 -1128 0
v -1368 -1104 0
v -1344 -1104 0
v -1944 -1128 0
v -1968 -1128 0
v -1968 -1104 0
v -1944 -1104 0
v -1968 -1128 0
v -1992 -1128 0
v -1992 -1104 0
v -1968 -1104 0
v -1320 -1152 0
v -1344 -1152 0
v -1344 -1128 0
v -1320 -1128 0
v -1344 -1152 0
v -1368 -1152 0
v -1368 -1128 0
v -1344 -1128 0
v -1944 -1152 0
v -1968 -1152 0
v -1968 -1128 0
v -1944 -1128 0
v -1968 -1152 0
v -1992 -1152 0
v -1992 -1128 0
v -1968 -1128 0
v -1536 -1176 0
v -1560 -1176 0
v -1560 -1152 0
v -1536 -1152 0
v -1560 -1176 0
v -1584 -1176 0
v -1584 -1152 0
v -1560 -1152 0
v -1536 -1200 0
v -1560 -1200 0
v -1560 -1176 0
v -1536 -1176 0
v -1560 -1200 0
v -1584 -1200 0
v -1584 -1176 0
v -1560 -1176 0
v -1680 -1248 0
v -1704 -1248 0
v -1704 -1224 0
v -1680 -1224 0
v -1704 -1248 0
v -1728 -1248 0
v -1728 -1224 0
v -1704 -1224 0
v -1680 -1272 0
v -1704 -1272 0
v -1704 -1248 0
v -1680 -1248 0
v -1704 -1272 0
v -1728 -1272 0
v -1728 -1248 0
v -1704 -1248 0
v -1416 -1392 0
v -1440 -1392 0
v -1440 -1368 0
v -1416 -1368 0
v -1440 -1392 0
v -1464 -1392 0
v -1464 -1368 0
v -1440 -1368 0
v -1848 -1392 0
v -1872 -1392 0
v -1872 -1368 0
v -1848 -1368 0
v -1872 -1392 0
v -1896 -1392 0
v -1896 -1368 0
v -1872 -1368 0
v -1416 -1416 0
v -1440 -1416 0
v -1440 -1392 0
v -1416 -1392 0
v -1440 -1416 0
v -1464 -1416 0
v -1464 -1392 0
v -1440 -1392 0
v -1848 -1416 0
v -1872 -1416 0
v -1872 -1392 0
v -1848 -1392 0
v -1872 -1416 0
v -1896 -1416 0
v -1896 -1392 0
v -1872 -1392 0

# Texture cooridinates (Count = 27)
vt 0.6875 0.90625
vt 0.71875 0.90625
vt 0.71875 0.9375
vt 0.6875 0.9375
vt 0.75 0.90625
vt 0.75 0.9375
vt 0.6875 0.875
vt 0.71875 0.875
vt 0.75 0.875
vt 0.1875 0.15625
vt 0.21875 0.15625
vt 0.21875 0.1875
vt 0.1875 0.1875
vt 0.25 0.15625
vt 0.25 0.1875
vt 0.1875 0.125
vt 0.21875 0.125
vt 0.25 0.125
vt 0.1875 0.53125
vt 0.21875 0.53125
vt 0.21875 0.5625
vt 0.1875 0.5625
vt 0.25 0.53125
vt 0.25 0.5625
vt 0.1875 0.5
vt 0.21875 0.5
vt 0.25 0.5

# Normal
vn 0 0 -1

# Mesh description
g SalleEW-SF---SP_mesh_0002

# Faces
f 1/1/1 2/2/1 3/3/1 4/4/1
f 5/2/1 6/5/1 7/6/1 8/3/1
f 9/1/1 10/2/1 11/3/1 12/4/1
f 13/2/1 14/5/1 15/6/1 16/3/1
f 17/7/1 18/8/1 19/2/1 20/1/1
f 21/8/1 22/9/1 23/5/1 24/2/1
f 25/7/1 26/8/1 27/2/1 28/1/1
f 29/8/1 30/9/1 31/5/1 32/2/1
f 33/10/1 34/11/1 35/12/1 36/13/1
f 37/11/1 38/14/1 39/15/1 40/12/1
f 41/16/1 42/17/1 43/11/1 44/10/1
f 45/17/1 46/18/1 47/14/1 48/11/1
f 49/19/1 50/20/1 51/21/1 52/22/1
f 53/20/1 54/23/1 55/24/1 56/21/1
f 57/19/1 58/20/1 59/21/1 60/22/1
f 61/20/1 62/23/1 63/24/1 64/21/1
f 65/25/1 66/26/1 67/20/1 68/19/1
f 69/26/1 70/27/1 71/23/1 72/20/1
f 73/25/1 74/26/1 75/20/1 76/19/1
f 77/26/1 78/27/1 79/23/1 80/20/1
f 81/10/1 82/11/1 83/12/1 84/13/1
f 85/11/1 86/14/1 87/15/1 88/12/1
f 89/16/1 90/17/1 91/11/1 92/10/1
f 93/17/1 94/18/1 95/14/1 96/11/1
f 97/10/1 98/11/1 99/12/1 100/13/1
f 101/11/1 102/14/1 103/15/1 104/12/1
f 105/16/1 106/17/1 107/11/1 108/10/1
f 109/17/1 110/18/1 111/14/1 112/11/1
f 113/1/1 114/2/1 115/3/1 116/4/1
f 117/2/1 118/5/1 119/6/1 120/3/1
f 121/1/1 122/2/1 123/3/1 124/4/1
f 125/2/1 126/5/1 127/6/1 128/3/1
f 129/7/1 130/8/1 131/2/1 132/1/1
f 133/8/1 134/9/1 135/5/1 136/2/1
f 137/7/1 138/8/1 139/2/1 140/1/1
f 141/8/1 142/9/1 143/5/1 144/2/1

