# Tiled2Unity generated file. Do not modify by hand.
# Wavefront file for 'SalleEW-SF---SP_mesh_0003.obj'

# Vertices (Count = 156)
v -1608 -1008 0
v -1632 -1008 0
v -1632 -984 0
v -1608 -984 0
v -1632 -1008 0
v -1656 -1008 0
v -1656 -984 0
v -1632 -984 0
v -1704 -1008 0
v -1728 -1008 0
v -1728 -984 0
v -1704 -984 0
v -1728 -1008 0
v -1752 -1008 0
v -1752 -984 0
v -1728 -984 0
v -1608 -1032 0
v -1632 -1032 0
v -1632 -1008 0
v -1608 -1008 0
v -1632 -1032 0
v -1656 -1032 0
v -1656 -1008 0
v -1632 -1008 0
v -1704 -1032 0
v -1728 -1032 0
v -1728 -1008 0
v -1704 -1008 0
v -1728 -1032 0
v -1752 -1032 0
v -1752 -1008 0
v -1728 -1008 0
v -1416 -1296 0
v -1440 -1296 0
v -1440 -1272 0
v -1416 -1272 0
v -1440 -1296 0
v -1464 -1296 0
v -1464 -1272 0
v -1440 -1272 0
v -1464 -1296 0
v -1488 -1296 0
v -1488 -1272 0
v -1464 -1272 0
v -1488 -1296 0
v -1512 -1296 0
v -1512 -1272 0
v -1488 -1272 0
v -1512 -1296 0
v -1536 -1296 0
v -1536 -1272 0
v -1512 -1272 0
v -1536 -1296 0
v -1560 -1296 0
v -1560 -1272 0
v -1536 -1272 0
v -1560 -1296 0
v -1584 -1296 0
v -1584 -1272 0
v -1560 -1272 0
v -1584 -1296 0
v -1608 -1296 0
v -1608 -1272 0
v -1584 -1272 0
v -1416 -1320 0
v -1440 -1320 0
v -1440 -1296 0
v -1416 -1296 0
v -1440 -1320 0
v -1464 -1320 0
v -1464 -1296 0
v -1440 -1296 0
v -1464 -1320 0
v -1488 -1320 0
v -1488 -1296 0
v -1464 -1296 0
v -1488 -1320 0
v -1512 -1320 0
v -1512 -1296 0
v -1488 -1296 0
v -1512 -1320 0
v -1536 -1320 0
v -1536 -1296 0
v -1512 -1296 0
v -1536 -1320 0
v -1560 -1320 0
v -1560 -1296 0
v -1536 -1296 0
v -1560 -1320 0
v -1584 -1320 0
v -1584 -1296 0
v -1560 -1296 0
v -1584 -1320 0
v -1608 -1320 0
v -1608 -1296 0
v -1584 -1296 0
v -1416 -1344 0
v -1440 -1344 0
v -1440 -1320 0
v -1416 -1320 0
v -1440 -1344 0
v -1464 -1344 0
v -1464 -1320 0
v -1440 -1320 0
v -1464 -1344 0
v -1488 -1344 0
v -1488 -1320 0
v -1464 -1320 0
v -1488 -1344 0
v -1512 -1344 0
v -1512 -1320 0
v -1488 -1320 0
v -1512 -1344 0
v -1536 -1344 0
v -1536 -1320 0
v -1512 -1320 0
v -1536 -1344 0
v -1560 -1344 0
v -1560 -1320 0
v -1536 -1320 0
v -1560 -1344 0
v -1584 -1344 0
v -1584 -1320 0
v -1560 -1320 0
v -1584 -1344 0
v -1608 -1344 0
v -1608 -1320 0
v -1584 -1320 0
v -1848 -1344 0
v -1872 -1344 0
v -1872 -1320 0
v -1848 -1320 0
v -1872 -1344 0
v -1896 -1344 0
v -1896 -1320 0
v -1872 -1320 0
v -1848 -1368 0
v -1872 -1368 0
v -1872 -1344 0
v -1848 -1344 0
v -1464 -1392 0
v -1488 -1392 0
v -1488 -1368 0
v -1464 -1368 0
v -1488 -1392 0
v -1512 -1392 0
v -1512 -1368 0
v -1488 -1368 0
v -1464 -1416 0
v -1488 -1416 0
v -1488 -1392 0
v -1464 -1392 0
v -1488 -1416 0
v -1512 -1416 0
v -1512 -1392 0
v -1488 -1392 0

# Texture cooridinates (Count = 62)
vt 0.1875 0.40625
vt 0.21875 0.40625
vt 0.21875 0.4375
vt 0.1875 0.4375
vt 0.25 0.40625
vt 0.25 0.4375
vt 0.5 0.78125
vt 0.53125 0.78125
vt 0.53125 0.8125
vt 0.5 0.8125
vt 0.5625 0.78125
vt 0.5625 0.8125
vt 0.1875 0.375
vt 0.21875 0.375
vt 0.25 0.375
vt 0.5 0.75
vt 0.53125 0.75
vt 0.5625 0.75
vt 0.75 0.0625
vt 0.78125 0.0625
vt 0.78125 0.09375
vt 0.75 0.09375
vt 0.8125 0.0625
vt 0.8125 0.09375
vt 0.84375 0.0625
vt 0.84375 0.09375
vt 0.875 0.0625
vt 0.875 0.09375
vt 0.90625 0.0625
vt 0.90625 0.09375
vt 0.9375 0.0625
vt 0.9375 0.09375
vt 0.96875 0.0625
vt 0.96875 0.09375
vt 1 0.0625
vt 1 0.09375
vt 0.75 0.03125
vt 0.78125 0.03125
vt 0.8125 0.03125
vt 0.84375 0.03125
vt 0.875 0.03125
vt 0.90625 0.03125
vt 0.9375 0.03125
vt 0.96875 0.03125
vt 1 0.03125
vt 0.75 0
vt 0.78125 0
vt 0.8125 0
vt 0.84375 0
vt 0.875 0
vt 0.90625 0
vt 0.9375 0
vt 0.96875 0
vt 1 0
vt 0 0.40625
vt 0.03125 0.40625
vt 0.03125 0.4375
vt 0 0.4375
vt 0.0625 0.40625
vt 0.0625 0.4375
vt 0 0.375
vt 0.03125 0.375

# Normal
vn 0 0 -1

# Mesh description
g SalleEW-SF---SP_mesh_0003

# Faces
f 1/1/1 2/2/1 3/3/1 4/4/1
f 5/2/1 6/5/1 7/6/1 8/3/1
f 9/7/1 10/8/1 11/9/1 12/10/1
f 13/8/1 14/11/1 15/12/1 16/9/1
f 17/13/1 18/14/1 19/2/1 20/1/1
f 21/14/1 22/15/1 23/5/1 24/2/1
f 25/16/1 26/17/1 27/8/1 28/7/1
f 29/17/1 30/18/1 31/11/1 32/8/1
f 33/19/1 34/20/1 35/21/1 36/22/1
f 37/20/1 38/23/1 39/24/1 40/21/1
f 41/23/1 42/25/1 43/26/1 44/24/1
f 45/25/1 46/27/1 47/28/1 48/26/1
f 49/27/1 50/29/1 51/30/1 52/28/1
f 53/29/1 54/31/1 55/32/1 56/30/1
f 57/31/1 58/33/1 59/34/1 60/32/1
f 61/33/1 62/35/1 63/36/1 64/34/1
f 65/37/1 66/38/1 67/20/1 68/19/1
f 69/38/1 70/39/1 71/23/1 72/20/1
f 73/39/1 74/40/1 75/25/1 76/23/1
f 77/40/1 78/41/1 79/27/1 80/25/1
f 81/41/1 82/42/1 83/29/1 84/27/1
f 85/42/1 86/43/1 87/31/1 88/29/1
f 89/43/1 90/44/1 91/33/1 92/31/1
f 93/44/1 94/45/1 95/35/1 96/33/1
f 97/46/1 98/47/1 99/38/1 100/37/1
f 101/47/1 102/48/1 103/39/1 104/38/1
f 105/48/1 106/49/1 107/40/1 108/39/1
f 109/49/1 110/50/1 111/41/1 112/40/1
f 113/50/1 114/51/1 115/42/1 116/41/1
f 117/51/1 118/52/1 119/43/1 120/42/1
f 121/52/1 122/53/1 123/44/1 124/43/1
f 125/53/1 126/54/1 127/45/1 128/44/1
f 129/55/1 130/56/1 131/57/1 132/58/1
f 133/56/1 134/59/1 135/60/1 136/57/1
f 137/61/1 138/62/1 139/56/1 140/55/1
f 141/7/1 142/8/1 143/9/1 144/10/1
f 145/8/1 146/11/1 147/12/1 148/9/1
f 149/16/1 150/17/1 151/8/1 152/7/1
f 153/17/1 154/18/1 155/11/1 156/8/1

