# Tiled2Unity generated file. Do not modify by hand.
# Wavefront file for 'SalleEW-SF---SP_mesh_0004.obj'

# Vertices (Count = 256)
v -1368 -960 0
v -1392 -960 0
v -1392 -936 0
v -1368 -936 0
v -1392 -960 0
v -1416 -960 0
v -1416 -936 0
v -1392 -936 0
v -1416 -960 0
v -1440 -960 0
v -1440 -936 0
v -1416 -936 0
v -1440 -960 0
v -1464 -960 0
v -1464 -936 0
v -1440 -936 0
v -1464 -960 0
v -1488 -960 0
v -1488 -936 0
v -1464 -936 0
v -1488 -960 0
v -1512 -960 0
v -1512 -936 0
v -1488 -936 0
v -1512 -960 0
v -1536 -960 0
v -1536 -936 0
v -1512 -936 0
v -1536 -960 0
v -1560 -960 0
v -1560 -936 0
v -1536 -936 0
v -1560 -960 0
v -1584 -960 0
v -1584 -936 0
v -1560 -936 0
v -1584 -960 0
v -1608 -960 0
v -1608 -936 0
v -1584 -936 0
v -1608 -960 0
v -1632 -960 0
v -1632 -936 0
v -1608 -936 0
v -1632 -960 0
v -1656 -960 0
v -1656 -936 0
v -1632 -936 0
v -1656 -960 0
v -1680 -960 0
v -1680 -936 0
v -1656 -936 0
v -1680 -960 0
v -1704 -960 0
v -1704 -936 0
v -1680 -936 0
v -1704 -960 0
v -1728 -960 0
v -1728 -936 0
v -1704 -936 0
v -1728 -960 0
v -1752 -960 0
v -1752 -936 0
v -1728 -936 0
v -1752 -960 0
v -1776 -960 0
v -1776 -936 0
v -1752 -936 0
v -1776 -960 0
v -1800 -960 0
v -1800 -936 0
v -1776 -936 0
v -1800 -960 0
v -1824 -960 0
v -1824 -936 0
v -1800 -936 0
v -1824 -960 0
v -1848 -960 0
v -1848 -936 0
v -1824 -936 0
v -1848 -960 0
v -1872 -960 0
v -1872 -936 0
v -1848 -936 0
v -1872 -960 0
v -1896 -960 0
v -1896 -936 0
v -1872 -936 0
v -1896 -960 0
v -1920 -960 0
v -1920 -936 0
v -1896 -936 0
v -1920 -960 0
v -1944 -960 0
v -1944 -936 0
v -1920 -936 0
v -1272 -1080 0
v -1296 -1080 0
v -1296 -1056 0
v -1272 -1056 0
v -1296 -1080 0
v -1320 -1080 0
v -1320 -1056 0
v -1296 -1056 0
v -1320 -1080 0
v -1344 -1080 0
v -1344 -1056 0
v -1320 -1056 0
v -1344 -1080 0
v -1368 -1080 0
v -1368 -1056 0
v -1344 -1056 0
v -1944 -1080 0
v -1968 -1080 0
v -1968 -1056 0
v -1944 -1056 0
v -1968 -1080 0
v -1992 -1080 0
v -1992 -1056 0
v -1968 -1056 0
v -1992 -1080 0
v -2016 -1080 0
v -2016 -1056 0
v -1992 -1056 0
v -2016 -1080 0
v -2040 -1080 0
v -2040 -1056 0
v -2016 -1056 0
v -1272 -1224 0
v -1296 -1224 0
v -1296 -1200 0
v -1272 -1200 0
v -1296 -1224 0
v -1320 -1224 0
v -1320 -1200 0
v -1296 -1200 0
v -1320 -1224 0
v -1344 -1224 0
v -1344 -1200 0
v -1320 -1200 0
v -1344 -1224 0
v -1368 -1224 0
v -1368 -1200 0
v -1344 -1200 0
v -1368 -1224 0
v -1392 -1224 0
v -1392 -1200 0
v -1368 -1200 0
v -1392 -1224 0
v -1416 -1224 0
v -1416 -1200 0
v -1392 -1200 0
v -1896 -1224 0
v -1920 -1224 0
v -1920 -1200 0
v -1896 -1200 0
v -1920 -1224 0
v -1944 -1224 0
v -1944 -1200 0
v -1920 -1200 0
v -1944 -1224 0
v -1968 -1224 0
v -1968 -1200 0
v -1944 -1200 0
v -1968 -1224 0
v -1992 -1224 0
v -1992 -1200 0
v -1968 -1200 0
v -1992 -1224 0
v -2016 -1224 0
v -2016 -1200 0
v -1992 -1200 0
v -2016 -1224 0
v -2040 -1224 0
v -2040 -1200 0
v -2016 -1200 0
v -1416 -1344 0
v -1440 -1344 0
v -1440 -1320 0
v -1416 -1320 0
v -1440 -1344 0
v -1464 -1344 0
v -1464 -1320 0
v -1440 -1320 0
v -1464 -1344 0
v -1488 -1344 0
v -1488 -1320 0
v -1464 -1320 0
v -1488 -1344 0
v -1512 -1344 0
v -1512 -1320 0
v -1488 -1320 0
v -1512 -1344 0
v -1536 -1344 0
v -1536 -1320 0
v -1512 -1320 0
v -1536 -1344 0
v -1560 -1344 0
v -1560 -1320 0
v -1536 -1320 0
v -1560 -1344 0
v -1584 -1344 0
v -1584 -1320 0
v -1560 -1320 0
v -1584 -1344 0
v -1608 -1344 0
v -1608 -1320 0
v -1584 -1320 0
v -1608 -1344 0
v -1632 -1344 0
v -1632 -1320 0
v -1608 -1320 0
v -1632 -1344 0
v -1656 -1344 0
v -1656 -1320 0
v -1632 -1320 0
v -1656 -1344 0
v -1680 -1344 0
v -1680 -1320 0
v -1656 -1320 0
v -1680 -1344 0
v -1704 -1344 0
v -1704 -1320 0
v -1680 -1320 0
v -1704 -1344 0
v -1728 -1344 0
v -1728 -1320 0
v -1704 -1320 0
v -1728 -1344 0
v -1752 -1344 0
v -1752 -1320 0
v -1728 -1320 0
v -1752 -1344 0
v -1776 -1344 0
v -1776 -1320 0
v -1752 -1320 0
v -1776 -1344 0
v -1800 -1344 0
v -1800 -1320 0
v -1776 -1320 0
v -1800 -1344 0
v -1824 -1344 0
v -1824 -1320 0
v -1800 -1320 0
v -1824 -1344 0
v -1848 -1344 0
v -1848 -1320 0
v -1824 -1320 0
v -1848 -1344 0
v -1872 -1344 0
v -1872 -1320 0
v -1848 -1320 0
v -1872 -1344 0
v -1896 -1344 0
v -1896 -1320 0
v -1872 -1320 0

# Texture cooridinates (Count = 10)
vt 0.125 0.9
vt 0.15625 0.9
vt 0.15625 0.9333333
vt 0.125 0.9333333
vt 0.1875 0.9
vt 0.1875 0.9333333
vt 0.21875 0.9
vt 0.21875 0.9333333
vt 0.25 0.9
vt 0.25 0.9333333

# Normal
vn 0 0 -1

# Mesh description
g SalleEW-SF---SP_mesh_0004

# Faces
f 1/1/1 2/2/1 3/3/1 4/4/1
f 5/2/1 6/5/1 7/6/1 8/3/1
f 9/2/1 10/5/1 11/6/1 12/3/1
f 13/5/1 14/7/1 15/8/1 16/6/1
f 17/5/1 18/7/1 19/8/1 20/6/1
f 21/2/1 22/5/1 23/6/1 24/3/1
f 25/2/1 26/5/1 27/6/1 28/3/1
f 29/5/1 30/7/1 31/8/1 32/6/1
f 33/2/1 34/5/1 35/6/1 36/3/1
f 37/5/1 38/7/1 39/8/1 40/6/1
f 41/2/1 42/5/1 43/6/1 44/3/1
f 45/5/1 46/7/1 47/8/1 48/6/1
f 49/2/1 50/5/1 51/6/1 52/3/1
f 53/5/1 54/7/1 55/8/1 56/6/1
f 57/5/1 58/7/1 59/8/1 60/6/1
f 61/5/1 62/7/1 63/8/1 64/6/1
f 65/5/1 66/7/1 67/8/1 68/6/1
f 69/5/1 70/7/1 71/8/1 72/6/1
f 73/2/1 74/5/1 75/6/1 76/3/1
f 77/5/1 78/7/1 79/8/1 80/6/1
f 81/2/1 82/5/1 83/6/1 84/3/1
f 85/5/1 86/7/1 87/8/1 88/6/1
f 89/5/1 90/7/1 91/8/1 92/6/1
f 93/7/1 94/9/1 95/10/1 96/8/1
f 97/2/1 98/5/1 99/6/1 100/3/1
f 101/5/1 102/7/1 103/8/1 104/6/1
f 105/2/1 106/5/1 107/6/1 108/3/1
f 109/5/1 110/7/1 111/8/1 112/6/1
f 113/2/1 114/5/1 115/6/1 116/3/1
f 117/5/1 118/7/1 119/8/1 120/6/1
f 121/2/1 122/5/1 123/6/1 124/3/1
f 125/5/1 126/7/1 127/8/1 128/6/1
f 129/2/1 130/5/1 131/6/1 132/3/1
f 133/5/1 134/7/1 135/8/1 136/6/1
f 137/2/1 138/5/1 139/6/1 140/3/1
f 141/5/1 142/7/1 143/8/1 144/6/1
f 145/5/1 146/7/1 147/8/1 148/6/1
f 149/7/1 150/9/1 151/10/1 152/8/1
f 153/1/1 154/2/1 155/3/1 156/4/1
f 157/2/1 158/5/1 159/6/1 160/3/1
f 161/2/1 162/5/1 163/6/1 164/3/1
f 165/5/1 166/7/1 167/8/1 168/6/1
f 169/2/1 170/5/1 171/6/1 172/3/1
f 173/5/1 174/7/1 175/8/1 176/6/1
f 177/2/1 178/5/1 179/6/1 180/3/1
f 181/2/1 182/5/1 183/6/1 184/3/1
f 185/2/1 186/5/1 187/6/1 188/3/1
f 189/2/1 190/5/1 191/6/1 192/3/1
f 193/5/1 194/7/1 195/8/1 196/6/1
f 197/2/1 198/5/1 199/6/1 200/3/1
f 201/5/1 202/7/1 203/8/1 204/6/1
f 205/2/1 206/5/1 207/6/1 208/3/1
f 209/5/1 210/7/1 211/8/1 212/6/1
f 213/2/1 214/5/1 215/6/1 216/3/1
f 217/5/1 218/7/1 219/8/1 220/6/1
f 221/2/1 222/5/1 223/6/1 224/3/1
f 225/5/1 226/7/1 227/8/1 228/6/1
f 229/2/1 230/5/1 231/6/1 232/3/1
f 233/5/1 234/7/1 235/8/1 236/6/1
f 237/5/1 238/7/1 239/8/1 240/6/1
f 241/2/1 242/5/1 243/6/1 244/3/1
f 245/5/1 246/7/1 247/8/1 248/6/1
f 249/2/1 250/5/1 251/6/1 252/3/1
f 253/5/1 254/7/1 255/8/1 256/6/1

