# Tiled2Unity generated file. Do not modify by hand.
# Wavefront file for 'SalleNEW-SF---SP_mesh_0004.obj'

# Vertices (Count = 168)
v -1704 -1008 0
v -1728 -1008 0
v -1728 -984 0
v -1704 -984 0
v -1728 -1008 0
v -1752 -1008 0
v -1752 -984 0
v -1728 -984 0
v -1704 -1032 0
v -1728 -1032 0
v -1728 -1008 0
v -1704 -1008 0
v -1728 -1032 0
v -1752 -1032 0
v -1752 -1008 0
v -1728 -1008 0
v -1440 -1104 0
v -1464 -1104 0
v -1464 -1080 0
v -1440 -1080 0
v -1464 -1104 0
v -1488 -1104 0
v -1488 -1080 0
v -1464 -1080 0
v -1824 -1104 0
v -1848 -1104 0
v -1848 -1080 0
v -1824 -1080 0
v -1848 -1104 0
v -1872 -1104 0
v -1872 -1080 0
v -1848 -1080 0
v -1536 -1176 0
v -1560 -1176 0
v -1560 -1152 0
v -1536 -1152 0
v -1560 -1176 0
v -1584 -1176 0
v -1584 -1152 0
v -1560 -1152 0
v -1752 -1272 0
v -1776 -1272 0
v -1776 -1248 0
v -1752 -1248 0
v -1776 -1272 0
v -1800 -1272 0
v -1800 -1248 0
v -1776 -1248 0
v -1800 -1272 0
v -1824 -1272 0
v -1824 -1248 0
v -1800 -1248 0
v -1824 -1272 0
v -1848 -1272 0
v -1848 -1248 0
v -1824 -1248 0
v -1848 -1272 0
v -1872 -1272 0
v -1872 -1248 0
v -1848 -1248 0
v -1872 -1272 0
v -1896 -1272 0
v -1896 -1248 0
v -1872 -1248 0
v -1728 -1296 0
v -1752 -1296 0
v -1752 -1272 0
v -1728 -1272 0
v -1752 -1296 0
v -1776 -1296 0
v -1776 -1272 0
v -1752 -1272 0
v -1824 -1296 0
v -1848 -1296 0
v -1848 -1272 0
v -1824 -1272 0
v -1848 -1296 0
v -1872 -1296 0
v -1872 -1272 0
v -1848 -1272 0
v -1440 -1320 0
v -1464 -1320 0
v -1464 -1296 0
v -1440 -1296 0
v -1464 -1320 0
v -1488 -1320 0
v -1488 -1296 0
v -1464 -1296 0
v -1488 -1320 0
v -1512 -1320 0
v -1512 -1296 0
v -1488 -1296 0
v -1512 -1320 0
v -1536 -1320 0
v -1536 -1296 0
v -1512 -1296 0
v -1560 -1320 0
v -1584 -1320 0
v -1584 -1296 0
v -1560 -1296 0
v -1584 -1320 0
v -1608 -1320 0
v -1608 -1296 0
v -1584 -1296 0
v -1608 -1320 0
v -1632 -1320 0
v -1632 -1296 0
v -1608 -1296 0
v -1632 -1320 0
v -1656 -1320 0
v -1656 -1296 0
v -1632 -1296 0
v -1728 -1320 0
v -1752 -1320 0
v -1752 -1296 0
v -1728 -1296 0
v -1752 -1320 0
v -1776 -1320 0
v -1776 -1296 0
v -1752 -1296 0
v -1824 -1320 0
v -1848 -1320 0
v -1848 -1296 0
v -1824 -1296 0
v -1848 -1320 0
v -1872 -1320 0
v -1872 -1296 0
v -1848 -1296 0
v -1440 -1344 0
v -1464 -1344 0
v -1464 -1320 0
v -1440 -1320 0
v -1464 -1344 0
v -1488 -1344 0
v -1488 -1320 0
v -1464 -1320 0
v -1488 -1344 0
v -1512 -1344 0
v -1512 -1320 0
v -1488 -1320 0
v -1512 -1344 0
v -1536 -1344 0
v -1536 -1320 0
v -1512 -1320 0
v -1560 -1344 0
v -1584 -1344 0
v -1584 -1320 0
v -1560 -1320 0
v -1584 -1344 0
v -1608 -1344 0
v -1608 -1320 0
v -1584 -1320 0
v -1608 -1344 0
v -1632 -1344 0
v -1632 -1320 0
v -1608 -1320 0
v -1632 -1344 0
v -1656 -1344 0
v -1656 -1320 0
v -1632 -1320 0
v -1728 -1344 0
v -1752 -1344 0
v -1752 -1320 0
v -1728 -1320 0
v -1752 -1344 0
v -1776 -1344 0
v -1776 -1320 0
v -1752 -1320 0

# Texture cooridinates (Count = 67)
vt 0.75 0.90625
vt 0.78125 0.90625
vt 0.78125 0.9375
vt 0.75 0.9375
vt 0.8125 0.90625
vt 0.8125 0.9375
vt 0.75 0.875
vt 0.78125 0.875
vt 0.8125 0.875
vt 0.9375 0.90625
vt 0.96875 0.90625
vt 0.96875 0.9375
vt 0.9375 0.9375
vt 1 0.90625
vt 1 0.9375
vt 0.625 0
vt 0.65625 0
vt 0.65625 0.03125
vt 0.625 0.03125
vt 0.6875 0
vt 0.6875 0.03125
vt 0.6875 0.0625
vt 0.71875 0.0625
vt 0.71875 0.09375
vt 0.6875 0.09375
vt 0.75 0.0625
vt 0.75 0.09375
vt 0.78125 0.0625
vt 0.78125 0.09375
vt 0.8125 0.0625
vt 0.8125 0.09375
vt 0.4375 0.34375
vt 0.46875 0.34375
vt 0.46875 0.375
vt 0.4375 0.375
vt 0.5 0.34375
vt 0.5 0.375
vt 0.6875 0.78125
vt 0.71875 0.78125
vt 0.71875 0.8125
vt 0.6875 0.8125
vt 0.75 0.78125
vt 0.75 0.8125
vt 0.875 0.78125
vt 0.90625 0.78125
vt 0.90625 0.8125
vt 0.875 0.8125
vt 0.9375 0.78125
vt 0.9375 0.8125
vt 0.96875 0.78125
vt 0.96875 0.8125
vt 1 0.78125
vt 1 0.8125
vt 0.4375 0.3125
vt 0.46875 0.3125
vt 0.5 0.3125
vt 0.6875 0.75
vt 0.71875 0.75
vt 0.75 0.75
vt 0.875 0.75
vt 0.90625 0.75
vt 0.9375 0.75
vt 0.96875 0.75
vt 1 0.75
vt 0.4375 0.28125
vt 0.46875 0.28125
vt 0.5 0.28125

# Normal
vn 0 0 -1

# Mesh description
g SalleNEW-SF---SP_mesh_0004

# Faces
f 1/1/1 2/2/1 3/3/1 4/4/1
f 5/2/1 6/5/1 7/6/1 8/3/1
f 9/7/1 10/8/1 11/2/1 12/1/1
f 13/8/1 14/9/1 15/5/1 16/2/1
f 17/10/1 18/11/1 19/12/1 20/13/1
f 21/11/1 22/14/1 23/15/1 24/12/1
f 25/10/1 26/11/1 27/12/1 28/13/1
f 29/11/1 30/14/1 31/15/1 32/12/1
f 33/10/1 34/11/1 35/12/1 36/13/1
f 37/11/1 38/14/1 39/15/1 40/12/1
f 41/16/1 42/17/1 43/18/1 44/19/1
f 45/17/1 46/20/1 47/21/1 48/18/1
f 49/22/1 50/23/1 51/24/1 52/25/1
f 53/23/1 54/26/1 55/27/1 56/24/1
f 57/26/1 58/28/1 59/29/1 60/27/1
f 61/28/1 62/30/1 63/31/1 64/29/1
f 65/32/1 66/33/1 67/34/1 68/35/1
f 69/33/1 70/36/1 71/37/1 72/34/1
f 73/38/1 74/39/1 75/40/1 76/41/1
f 77/39/1 78/42/1 79/43/1 80/40/1
f 81/44/1 82/45/1 83/46/1 84/47/1
f 85/45/1 86/48/1 87/49/1 88/46/1
f 89/48/1 90/50/1 91/51/1 92/49/1
f 93/50/1 94/52/1 95/53/1 96/51/1
f 97/44/1 98/45/1 99/46/1 100/47/1
f 101/45/1 102/48/1 103/49/1 104/46/1
f 105/48/1 106/50/1 107/51/1 108/49/1
f 109/50/1 110/52/1 111/53/1 112/51/1
f 113/54/1 114/55/1 115/33/1 116/32/1
f 117/55/1 118/56/1 119/36/1 120/33/1
f 121/57/1 122/58/1 123/39/1 124/38/1
f 125/58/1 126/59/1 127/42/1 128/39/1
f 129/60/1 130/61/1 131/45/1 132/44/1
f 133/61/1 134/62/1 135/48/1 136/45/1
f 137/62/1 138/63/1 139/50/1 140/48/1
f 141/63/1 142/64/1 143/52/1 144/50/1
f 145/60/1 146/61/1 147/45/1 148/44/1
f 149/61/1 150/62/1 151/48/1 152/45/1
f 153/62/1 154/63/1 155/50/1 156/48/1
f 157/63/1 158/64/1 159/52/1 160/50/1
f 161/65/1 162/66/1 163/55/1 164/54/1
f 165/66/1 166/67/1 167/56/1 168/55/1

