# Tiled2Unity generated file. Do not modify by hand.
# Wavefront file for 'SalleNEW-SF---SP_mesh_0002.obj'

# Vertices (Count = 64)
v -1512 -984 0
v -1536 -984 0
v -1536 -960 0
v -1512 -960 0
v -1536 -984 0
v -1560 -984 0
v -1560 -960 0
v -1536 -960 0
v -1560 -984 0
v -1584 -984 0
v -1584 -960 0
v -1560 -960 0
v -1584 -984 0
v -1608 -984 0
v -1608 -960 0
v -1584 -960 0
v -1512 -1008 0
v -1536 -1008 0
v -1536 -984 0
v -1512 -984 0
v -1536 -1008 0
v -1560 -1008 0
v -1560 -984 0
v -1536 -984 0
v -1560 -1008 0
v -1584 -1008 0
v -1584 -984 0
v -1560 -984 0
v -1584 -1008 0
v -1608 -1008 0
v -1608 -984 0
v -1584 -984 0
v -1512 -1032 0
v -1536 -1032 0
v -1536 -1008 0
v -1512 -1008 0
v -1536 -1032 0
v -1560 -1032 0
v -1560 -1008 0
v -1536 -1008 0
v -1560 -1032 0
v -1584 -1032 0
v -1584 -1008 0
v -1560 -1008 0
v -1584 -1032 0
v -1608 -1032 0
v -1608 -1008 0
v -1584 -1008 0
v -1512 -1056 0
v -1536 -1056 0
v -1536 -1032 0
v -1512 -1032 0
v -1536 -1056 0
v -1560 -1056 0
v -1560 -1032 0
v -1536 -1032 0
v -1560 -1056 0
v -1584 -1056 0
v -1584 -1032 0
v -1560 -1032 0
v -1584 -1056 0
v -1608 -1056 0
v -1608 -1032 0
v -1584 -1032 0

# Texture cooridinates (Count = 30)
vt 0.3125 0.71875
vt 0.34375 0.71875
vt 0.34375 0.75
vt 0.3125 0.75
vt 0.375 0.71875
vt 0.375 0.75
vt 0.4375 0.71875
vt 0.46875 0.71875
vt 0.46875 0.75
vt 0.4375 0.75
vt 0.5 0.71875
vt 0.5 0.75
vt 0.3125 0.6875
vt 0.34375 0.6875
vt 0.375 0.6875
vt 0.4375 0.6875
vt 0.46875 0.6875
vt 0.5 0.6875
vt 0.3125 0.65625
vt 0.34375 0.65625
vt 0.375 0.65625
vt 0.4375 0.65625
vt 0.46875 0.65625
vt 0.5 0.65625
vt 0.3125 0.625
vt 0.34375 0.625
vt 0.375 0.625
vt 0.4375 0.625
vt 0.46875 0.625
vt 0.5 0.625

# Normal
vn 0 0 -1

# Mesh description
g SalleNEW-SF---SP_mesh_0002

# Faces
f 1/1/1 2/2/1 3/3/1 4/4/1
f 5/2/1 6/5/1 7/6/1 8/3/1
f 9/7/1 10/8/1 11/9/1 12/10/1
f 13/8/1 14/11/1 15/12/1 16/9/1
f 17/13/1 18/14/1 19/2/1 20/1/1
f 21/14/1 22/15/1 23/5/1 24/2/1
f 25/16/1 26/17/1 27/8/1 28/7/1
f 29/17/1 30/18/1 31/11/1 32/8/1
f 33/19/1 34/20/1 35/14/1 36/13/1
f 37/20/1 38/21/1 39/15/1 40/14/1
f 41/22/1 42/23/1 43/17/1 44/16/1
f 45/23/1 46/24/1 47/18/1 48/17/1
f 49/25/1 50/26/1 51/20/1 52/19/1
f 53/26/1 54/27/1 55/21/1 56/20/1
f 57/28/1 58/29/1 59/23/1 60/22/1
f 61/29/1 62/30/1 63/24/1 64/23/1

