# Tiled2Unity generated file. Do not modify by hand.
# Wavefront file for 'BossRoom_mesh_0002.obj'

# Vertices (Count = 1016)
v -96 -48 0
v -120 -48 0
v -120 -24 0
v -96 -24 0
v -120 -48 0
v -144 -48 0
v -144 -24 0
v -120 -24 0
v -144 -48 0
v -168 -48 0
v -168 -24 0
v -144 -24 0
v -168 -48 0
v -192 -48 0
v -192 -24 0
v -168 -24 0
v -192 -48 0
v -216 -48 0
v -216 -24 0
v -192 -24 0
v -216 -48 0
v -240 -48 0
v -240 -24 0
v -216 -24 0
v -240 -48 0
v -264 -48 0
v -264 -24 0
v -240 -24 0
v -264 -48 0
v -288 -48 0
v -288 -24 0
v -264 -24 0
v -288 -48 0
v -312 -48 0
v -312 -24 0
v -288 -24 0
v -312 -48 0
v -336 -48 0
v -336 -24 0
v -312 -24 0
v -336 -48 0
v -360 -48 0
v -360 -24 0
v -336 -24 0
v -360 -48 0
v -384 -48 0
v -384 -24 0
v -360 -24 0
v -384 -48 0
v -408 -48 0
v -408 -24 0
v -384 -24 0
v -408 -48 0
v -432 -48 0
v -432 -24 0
v -408 -24 0
v -432 -48 0
v -456 -48 0
v -456 -24 0
v -432 -24 0
v -456 -48 0
v -480 -48 0
v -480 -24 0
v -456 -24 0
v -480 -48 0
v -504 -48 0
v -504 -24 0
v -480 -24 0
v -504 -48 0
v -528 -48 0
v -528 -24 0
v -504 -24 0
v -528 -48 0
v -552 -48 0
v -552 -24 0
v -528 -24 0
v -552 -48 0
v -576 -48 0
v -576 -24 0
v -552 -24 0
v -576 -48 0
v -600 -48 0
v -600 -24 0
v -576 -24 0
v -600 -48 0
v -624 -48 0
v -624 -24 0
v -600 -24 0
v -624 -48 0
v -648 -48 0
v -648 -24 0
v -624 -24 0
v -648 -48 0
v -672 -48 0
v -672 -24 0
v -648 -24 0
v -672 -48 0
v -696 -48 0
v -696 -24 0
v -672 -24 0
v -696 -48 0
v -720 -48 0
v -720 -24 0
v -696 -24 0
v -720 -48 0
v -744 -48 0
v -744 -24 0
v -720 -24 0
v -744 -48 0
v -768 -48 0
v -768 -24 0
v -744 -24 0
v -96 -72 0
v -120 -72 0
v -120 -48 0
v -96 -48 0
v -120 -72 0
v -144 -72 0
v -144 -48 0
v -120 -48 0
v -144 -72 0
v -168 -72 0
v -168 -48 0
v -144 -48 0
v -168 -72 0
v -192 -72 0
v -192 -48 0
v -168 -48 0
v -192 -72 0
v -216 -72 0
v -216 -48 0
v -192 -48 0
v -216 -72 0
v -240 -72 0
v -240 -48 0
v -216 -48 0
v -240 -72 0
v -264 -72 0
v -264 -48 0
v -240 -48 0
v -264 -72 0
v -288 -72 0
v -288 -48 0
v -264 -48 0
v -288 -72 0
v -312 -72 0
v -312 -48 0
v -288 -48 0
v -312 -72 0
v -336 -72 0
v -336 -48 0
v -312 -48 0
v -336 -72 0
v -360 -72 0
v -360 -48 0
v -336 -48 0
v -360 -72 0
v -384 -72 0
v -384 -48 0
v -360 -48 0
v -384 -72 0
v -408 -72 0
v -408 -48 0
v -384 -48 0
v -408 -72 0
v -432 -72 0
v -432 -48 0
v -408 -48 0
v -432 -72 0
v -456 -72 0
v -456 -48 0
v -432 -48 0
v -456 -72 0
v -480 -72 0
v -480 -48 0
v -456 -48 0
v -480 -72 0
v -504 -72 0
v -504 -48 0
v -480 -48 0
v -504 -72 0
v -528 -72 0
v -528 -48 0
v -504 -48 0
v -528 -72 0
v -552 -72 0
v -552 -48 0
v -528 -48 0
v -552 -72 0
v -576 -72 0
v -576 -48 0
v -552 -48 0
v -576 -72 0
v -600 -72 0
v -600 -48 0
v -576 -48 0
v -600 -72 0
v -624 -72 0
v -624 -48 0
v -600 -48 0
v -624 -72 0
v -648 -72 0
v -648 -48 0
v -624 -48 0
v -648 -72 0
v -672 -72 0
v -672 -48 0
v -648 -48 0
v -672 -72 0
v -696 -72 0
v -696 -48 0
v -672 -48 0
v -696 -72 0
v -720 -72 0
v -720 -48 0
v -696 -48 0
v -720 -72 0
v -744 -72 0
v -744 -48 0
v -720 -48 0
v -744 -72 0
v -768 -72 0
v -768 -48 0
v -744 -48 0
v 0 -96 0
v -24 -96 0
v -24 -72 0
v 0 -72 0
v -24 -96 0
v -48 -96 0
v -48 -72 0
v -24 -72 0
v -48 -96 0
v -72 -96 0
v -72 -72 0
v -48 -72 0
v -72 -96 0
v -96 -96 0
v -96 -72 0
v -72 -72 0
v -96 -96 0
v -120 -96 0
v -120 -72 0
v -96 -72 0
v -120 -96 0
v -144 -96 0
v -144 -72 0
v -120 -72 0
v -144 -96 0
v -168 -96 0
v -168 -72 0
v -144 -72 0
v -168 -96 0
v -192 -96 0
v -192 -72 0
v -168 -72 0
v -192 -96 0
v -216 -96 0
v -216 -72 0
v -192 -72 0
v -216 -96 0
v -240 -96 0
v -240 -72 0
v -216 -72 0
v -240 -96 0
v -264 -96 0
v -264 -72 0
v -240 -72 0
v -264 -96 0
v -288 -96 0
v -288 -72 0
v -264 -72 0
v -288 -96 0
v -312 -96 0
v -312 -72 0
v -288 -72 0
v -312 -96 0
v -336 -96 0
v -336 -72 0
v -312 -72 0
v -336 -96 0
v -360 -96 0
v -360 -72 0
v -336 -72 0
v -360 -96 0
v -384 -96 0
v -384 -72 0
v -360 -72 0
v -384 -96 0
v -408 -96 0
v -408 -72 0
v -384 -72 0
v -408 -96 0
v -432 -96 0
v -432 -72 0
v -408 -72 0
v -432 -96 0
v -456 -96 0
v -456 -72 0
v -432 -72 0
v -456 -96 0
v -480 -96 0
v -480 -72 0
v -456 -72 0
v -480 -96 0
v -504 -96 0
v -504 -72 0
v -480 -72 0
v -504 -96 0
v -528 -96 0
v -528 -72 0
v -504 -72 0
v -528 -96 0
v -552 -96 0
v -552 -72 0
v -528 -72 0
v -552 -96 0
v -576 -96 0
v -576 -72 0
v -552 -72 0
v -576 -96 0
v -600 -96 0
v -600 -72 0
v -576 -72 0
v -600 -96 0
v -624 -96 0
v -624 -72 0
v -600 -72 0
v -624 -96 0
v -648 -96 0
v -648 -72 0
v -624 -72 0
v -648 -96 0
v -672 -96 0
v -672 -72 0
v -648 -72 0
v -672 -96 0
v -696 -96 0
v -696 -72 0
v -672 -72 0
v -696 -96 0
v -720 -96 0
v -720 -72 0
v -696 -72 0
v -720 -96 0
v -744 -96 0
v -744 -72 0
v -720 -72 0
v -744 -96 0
v -768 -96 0
v -768 -72 0
v -744 -72 0
v 0 -120 0
v -24 -120 0
v -24 -96 0
v 0 -96 0
v -24 -120 0
v -48 -120 0
v -48 -96 0
v -24 -96 0
v -48 -120 0
v -72 -120 0
v -72 -96 0
v -48 -96 0
v -72 -120 0
v -96 -120 0
v -96 -96 0
v -72 -96 0
v -96 -120 0
v -120 -120 0
v -120 -96 0
v -96 -96 0
v -120 -120 0
v -144 -120 0
v -144 -96 0
v -120 -96 0
v -720 -120 0
v -744 -120 0
v -744 -96 0
v -720 -96 0
v -744 -120 0
v -768 -120 0
v -768 -96 0
v -744 -96 0
v 0 -144 0
v -24 -144 0
v -24 -120 0
v 0 -120 0
v -24 -144 0
v -48 -144 0
v -48 -120 0
v -24 -120 0
v -48 -144 0
v -72 -144 0
v -72 -120 0
v -48 -120 0
v -72 -144 0
v -96 -144 0
v -96 -120 0
v -72 -120 0
v -96 -144 0
v -120 -144 0
v -120 -120 0
v -96 -120 0
v -120 -144 0
v -144 -144 0
v -144 -120 0
v -120 -120 0
v -720 -144 0
v -744 -144 0
v -744 -120 0
v -720 -120 0
v -744 -144 0
v -768 -144 0
v -768 -120 0
v -744 -120 0
v -720 -168 0
v -744 -168 0
v -744 -144 0
v -720 -144 0
v -744 -168 0
v -768 -168 0
v -768 -144 0
v -744 -144 0
v -720 -192 0
v -744 -192 0
v -744 -168 0
v -720 -168 0
v -744 -192 0
v -768 -192 0
v -768 -168 0
v -744 -168 0
v -720 -216 0
v -744 -216 0
v -744 -192 0
v -720 -192 0
v -744 -216 0
v -768 -216 0
v -768 -192 0
v -744 -192 0
v 0 -240 0
v -24 -240 0
v -24 -216 0
v 0 -216 0
v -24 -240 0
v -48 -240 0
v -48 -216 0
v -24 -216 0
v -48 -240 0
v -72 -240 0
v -72 -216 0
v -48 -216 0
v -72 -240 0
v -96 -240 0
v -96 -216 0
v -72 -216 0
v -96 -240 0
v -120 -240 0
v -120 -216 0
v -96 -216 0
v -120 -240 0
v -144 -240 0
v -144 -216 0
v -120 -216 0
v -720 -240 0
v -744 -240 0
v -744 -216 0
v -720 -216 0
v -744 -240 0
v -768 -240 0
v -768 -216 0
v -744 -216 0
v 0 -264 0
v -24 -264 0
v -24 -240 0
v 0 -240 0
v -24 -264 0
v -48 -264 0
v -48 -240 0
v -24 -240 0
v -48 -264 0
v -72 -264 0
v -72 -240 0
v -48 -240 0
v -72 -264 0
v -96 -264 0
v -96 -240 0
v -72 -240 0
v -96 -264 0
v -120 -264 0
v -120 -240 0
v -96 -240 0
v -120 -264 0
v -144 -264 0
v -144 -240 0
v -120 -240 0
v -720 -264 0
v -744 -264 0
v -744 -240 0
v -720 -240 0
v -744 -264 0
v -768 -264 0
v -768 -240 0
v -744 -240 0
v 0 -288 0
v -24 -288 0
v -24 -264 0
v 0 -264 0
v -24 -288 0
v -48 -288 0
v -48 -264 0
v -24 -264 0
v -48 -288 0
v -72 -288 0
v -72 -264 0
v -48 -264 0
v -72 -288 0
v -96 -288 0
v -96 -264 0
v -72 -264 0
v -96 -288 0
v -120 -288 0
v -120 -264 0
v -96 -264 0
v -120 -288 0
v -144 -288 0
v -144 -264 0
v -120 -264 0
v -720 -288 0
v -744 -288 0
v -744 -264 0
v -720 -264 0
v -744 -288 0
v -768 -288 0
v -768 -264 0
v -744 -264 0
v -96 -312 0
v -120 -312 0
v -120 -288 0
v -96 -288 0
v -120 -312 0
v -144 -312 0
v -144 -288 0
v -120 -288 0
v -720 -312 0
v -744 -312 0
v -744 -288 0
v -720 -288 0
v -744 -312 0
v -768 -312 0
v -768 -288 0
v -744 -288 0
v -96 -336 0
v -120 -336 0
v -120 -312 0
v -96 -312 0
v -120 -336 0
v -144 -336 0
v -144 -312 0
v -120 -312 0
v -720 -336 0
v -744 -336 0
v -744 -312 0
v -720 -312 0
v -744 -336 0
v -768 -336 0
v -768 -312 0
v -744 -312 0
v -96 -360 0
v -120 -360 0
v -120 -336 0
v -96 -336 0
v -120 -360 0
v -144 -360 0
v -144 -336 0
v -120 -336 0
v -720 -360 0
v -744 -360 0
v -744 -336 0
v -720 -336 0
v -744 -360 0
v -768 -360 0
v -768 -336 0
v -744 -336 0
v -96 -384 0
v -120 -384 0
v -120 -360 0
v -96 -360 0
v -120 -384 0
v -144 -384 0
v -144 -360 0
v -120 -360 0
v -720 -384 0
v -744 -384 0
v -744 -360 0
v -720 -360 0
v -744 -384 0
v -768 -384 0
v -768 -360 0
v -744 -360 0
v -96 -408 0
v -120 -408 0
v -120 -384 0
v -96 -384 0
v -120 -408 0
v -144 -408 0
v -144 -384 0
v -120 -384 0
v -720 -408 0
v -744 -408 0
v -744 -384 0
v -720 -384 0
v -744 -408 0
v -768 -408 0
v -768 -384 0
v -744 -384 0
v -96 -432 0
v -120 -432 0
v -120 -408 0
v -96 -408 0
v -120 -432 0
v -144 -432 0
v -144 -408 0
v -120 -408 0
v -720 -432 0
v -744 -432 0
v -744 -408 0
v -720 -408 0
v -744 -432 0
v -768 -432 0
v -768 -408 0
v -744 -408 0
v -96 -456 0
v -120 -456 0
v -120 -432 0
v -96 -432 0
v -120 -456 0
v -144 -456 0
v -144 -432 0
v -120 -432 0
v -720 -456 0
v -744 -456 0
v -744 -432 0
v -720 -432 0
v -744 -456 0
v -768 -456 0
v -768 -432 0
v -744 -432 0
v -96 -480 0
v -120 -480 0
v -120 -456 0
v -96 -456 0
v -120 -480 0
v -144 -480 0
v -144 -456 0
v -120 -456 0
v -720 -480 0
v -744 -480 0
v -744 -456 0
v -720 -456 0
v -744 -480 0
v -768 -480 0
v -768 -456 0
v -744 -456 0
v -96 -504 0
v -120 -504 0
v -120 -480 0
v -96 -480 0
v -120 -504 0
v -144 -504 0
v -144 -480 0
v -120 -480 0
v -720 -504 0
v -744 -504 0
v -744 -480 0
v -720 -480 0
v -744 -504 0
v -768 -504 0
v -768 -480 0
v -744 -480 0
v -96 -528 0
v -120 -528 0
v -120 -504 0
v -96 -504 0
v -120 -528 0
v -144 -528 0
v -144 -504 0
v -120 -504 0
v -144 -528 0
v -168 -528 0
v -168 -504 0
v -144 -504 0
v -168 -528 0
v -192 -528 0
v -192 -504 0
v -168 -504 0
v -192 -528 0
v -216 -528 0
v -216 -504 0
v -192 -504 0
v -216 -528 0
v -240 -528 0
v -240 -504 0
v -216 -504 0
v -240 -528 0
v -264 -528 0
v -264 -504 0
v -240 -504 0
v -264 -528 0
v -288 -528 0
v -288 -504 0
v -264 -504 0
v -288 -528 0
v -312 -528 0
v -312 -504 0
v -288 -504 0
v -312 -528 0
v -336 -528 0
v -336 -504 0
v -312 -504 0
v -336 -528 0
v -360 -528 0
v -360 -504 0
v -336 -504 0
v -360 -528 0
v -384 -528 0
v -384 -504 0
v -360 -504 0
v -384 -528 0
v -408 -528 0
v -408 -504 0
v -384 -504 0
v -408 -528 0
v -432 -528 0
v -432 -504 0
v -408 -504 0
v -432 -528 0
v -456 -528 0
v -456 -504 0
v -432 -504 0
v -456 -528 0
v -480 -528 0
v -480 -504 0
v -456 -504 0
v -480 -528 0
v -504 -528 0
v -504 -504 0
v -480 -504 0
v -504 -528 0
v -528 -528 0
v -528 -504 0
v -504 -504 0
v -528 -528 0
v -552 -528 0
v -552 -504 0
v -528 -504 0
v -552 -528 0
v -576 -528 0
v -576 -504 0
v -552 -504 0
v -576 -528 0
v -600 -528 0
v -600 -504 0
v -576 -504 0
v -600 -528 0
v -624 -528 0
v -624 -504 0
v -600 -504 0
v -624 -528 0
v -648 -528 0
v -648 -504 0
v -624 -504 0
v -648 -528 0
v -672 -528 0
v -672 -504 0
v -648 -504 0
v -672 -528 0
v -696 -528 0
v -696 -504 0
v -672 -504 0
v -696 -528 0
v -720 -528 0
v -720 -504 0
v -696 -504 0
v -720 -528 0
v -744 -528 0
v -744 -504 0
v -720 -504 0
v -744 -528 0
v -768 -528 0
v -768 -504 0
v -744 -504 0
v -96 -552 0
v -120 -552 0
v -120 -528 0
v -96 -528 0
v -120 -552 0
v -144 -552 0
v -144 -528 0
v -120 -528 0
v -144 -552 0
v -168 -552 0
v -168 -528 0
v -144 -528 0
v -168 -552 0
v -192 -552 0
v -192 -528 0
v -168 -528 0
v -192 -552 0
v -216 -552 0
v -216 -528 0
v -192 -528 0
v -216 -552 0
v -240 -552 0
v -240 -528 0
v -216 -528 0
v -240 -552 0
v -264 -552 0
v -264 -528 0
v -240 -528 0
v -264 -552 0
v -288 -552 0
v -288 -528 0
v -264 -528 0
v -288 -552 0
v -312 -552 0
v -312 -528 0
v -288 -528 0
v -312 -552 0
v -336 -552 0
v -336 -528 0
v -312 -528 0
v -336 -552 0
v -360 -552 0
v -360 -528 0
v -336 -528 0
v -360 -552 0
v -384 -552 0
v -384 -528 0
v -360 -528 0
v -384 -552 0
v -408 -552 0
v -408 -528 0
v -384 -528 0
v -408 -552 0
v -432 -552 0
v -432 -528 0
v -408 -528 0
v -432 -552 0
v -456 -552 0
v -456 -528 0
v -432 -528 0
v -456 -552 0
v -480 -552 0
v -480 -528 0
v -456 -528 0
v -480 -552 0
v -504 -552 0
v -504 -528 0
v -480 -528 0
v -504 -552 0
v -528 -552 0
v -528 -528 0
v -504 -528 0
v -528 -552 0
v -552 -552 0
v -552 -528 0
v -528 -528 0
v -552 -552 0
v -576 -552 0
v -576 -528 0
v -552 -528 0
v -576 -552 0
v -600 -552 0
v -600 -528 0
v -576 -528 0
v -600 -552 0
v -624 -552 0
v -624 -528 0
v -600 -528 0
v -624 -552 0
v -648 -552 0
v -648 -528 0
v -624 -528 0
v -648 -552 0
v -672 -552 0
v -672 -528 0
v -648 -528 0
v -672 -552 0
v -696 -552 0
v -696 -528 0
v -672 -528 0
v -696 -552 0
v -720 -552 0
v -720 -528 0
v -696 -528 0
v -720 -552 0
v -744 -552 0
v -744 -528 0
v -720 -528 0
v -744 -552 0
v -768 -552 0
v -768 -528 0
v -744 -528 0
v -96 -576 0
v -120 -576 0
v -120 -552 0
v -96 -552 0
v -120 -576 0
v -144 -576 0
v -144 -552 0
v -120 -552 0
v -144 -576 0
v -168 -576 0
v -168 -552 0
v -144 -552 0
v -168 -576 0
v -192 -576 0
v -192 -552 0
v -168 -552 0
v -192 -576 0
v -216 -576 0
v -216 -552 0
v -192 -552 0
v -216 -576 0
v -240 -576 0
v -240 -552 0
v -216 -552 0
v -240 -576 0
v -264 -576 0
v -264 -552 0
v -240 -552 0
v -264 -576 0
v -288 -576 0
v -288 -552 0
v -264 -552 0
v -288 -576 0
v -312 -576 0
v -312 -552 0
v -288 -552 0
v -312 -576 0
v -336 -576 0
v -336 -552 0
v -312 -552 0
v -336 -576 0
v -360 -576 0
v -360 -552 0
v -336 -552 0
v -360 -576 0
v -384 -576 0
v -384 -552 0
v -360 -552 0
v -384 -576 0
v -408 -576 0
v -408 -552 0
v -384 -552 0
v -408 -576 0
v -432 -576 0
v -432 -552 0
v -408 -552 0
v -432 -576 0
v -456 -576 0
v -456 -552 0
v -432 -552 0
v -456 -576 0
v -480 -576 0
v -480 -552 0
v -456 -552 0
v -480 -576 0
v -504 -576 0
v -504 -552 0
v -480 -552 0
v -504 -576 0
v -528 -576 0
v -528 -552 0
v -504 -552 0
v -528 -576 0
v -552 -576 0
v -552 -552 0
v -528 -552 0
v -552 -576 0
v -576 -576 0
v -576 -552 0
v -552 -552 0
v -576 -576 0
v -600 -576 0
v -600 -552 0
v -576 -552 0
v -600 -576 0
v -624 -576 0
v -624 -552 0
v -600 -552 0
v -624 -576 0
v -648 -576 0
v -648 -552 0
v -624 -552 0
v -648 -576 0
v -672 -576 0
v -672 -552 0
v -648 -552 0
v -672 -576 0
v -696 -576 0
v -696 -552 0
v -672 -552 0
v -696 -576 0
v -720 -576 0
v -720 -552 0
v -696 -552 0
v -720 -576 0
v -744 -576 0
v -744 -552 0
v -720 -552 0
v -744 -576 0
v -768 -576 0
v -768 -552 0
v -744 -552 0

# Texture cooridinates (Count = 24)
vt 0.4375 0.1333333
vt 0.46875 0.1333333
vt 0.46875 0.1666667
vt 0.4375 0.1666667
vt 0.5 0.1333333
vt 0.5 0.1666667
vt 0.46875 0.2
vt 0.4375 0.2
vt 0.5 0.2
vt 0.375 0.03333336
vt 0.40625 0.03333336
vt 0.40625 0.06666666
vt 0.375 0.06666666
vt 0.4375 0.03333336
vt 0.4375 0.06666666
vt 0.46875 0.03333336
vt 0.46875 0.06666666
vt 0.5 0.03333336
vt 0.5 0.06666666
vt 0.375 0
vt 0.40625 0
vt 0.4375 0
vt 0.46875 0
vt 0.5 0

# Normal
vn 0 0 -1

# Mesh description
g BossRoom_mesh_0002

# Faces
f 1/1/1 2/2/1 3/3/1 4/4/1
f 5/2/1 6/5/1 7/6/1 8/3/1
f 9/1/1 10/2/1 11/3/1 12/4/1
f 13/2/1 14/5/1 15/6/1 16/3/1
f 17/1/1 18/2/1 19/3/1 20/4/1
f 21/2/1 22/5/1 23/6/1 24/3/1
f 25/1/1 26/2/1 27/3/1 28/4/1
f 29/2/1 30/5/1 31/6/1 32/3/1
f 33/1/1 34/2/1 35/3/1 36/4/1
f 37/2/1 38/5/1 39/6/1 40/3/1
f 41/1/1 42/2/1 43/3/1 44/4/1
f 45/2/1 46/5/1 47/6/1 48/3/1
f 49/1/1 50/2/1 51/3/1 52/4/1
f 53/2/1 54/5/1 55/6/1 56/3/1
f 57/1/1 58/2/1 59/3/1 60/4/1
f 61/2/1 62/5/1 63/6/1 64/3/1
f 65/1/1 66/2/1 67/3/1 68/4/1
f 69/2/1 70/5/1 71/6/1 72/3/1
f 73/1/1 74/2/1 75/3/1 76/4/1
f 77/2/1 78/5/1 79/6/1 80/3/1
f 81/1/1 82/2/1 83/3/1 84/4/1
f 85/2/1 86/5/1 87/6/1 88/3/1
f 89/1/1 90/2/1 91/3/1 92/4/1
f 93/2/1 94/5/1 95/6/1 96/3/1
f 97/1/1 98/2/1 99/3/1 100/4/1
f 101/2/1 102/5/1 103/6/1 104/3/1
f 105/1/1 106/2/1 107/3/1 108/4/1
f 109/2/1 110/5/1 111/6/1 112/3/1
f 113/4/1 114/3/1 115/7/1 116/8/1
f 117/3/1 118/6/1 119/9/1 120/7/1
f 121/10/1 122/11/1 123/12/1 124/13/1
f 125/11/1 126/14/1 127/15/1 128/12/1
f 129/14/1 130/16/1 131/17/1 132/15/1
f 133/16/1 134/18/1 135/19/1 136/17/1
f 137/10/1 138/11/1 139/12/1 140/13/1
f 141/11/1 142/14/1 143/15/1 144/12/1
f 145/14/1 146/16/1 147/17/1 148/15/1
f 149/16/1 150/18/1 151/19/1 152/17/1
f 153/10/1 154/11/1 155/12/1 156/13/1
f 157/11/1 158/14/1 159/15/1 160/12/1
f 161/14/1 162/16/1 163/17/1 164/15/1
f 165/16/1 166/18/1 167/19/1 168/17/1
f 169/10/1 170/11/1 171/12/1 172/13/1
f 173/11/1 174/14/1 175/15/1 176/12/1
f 177/14/1 178/16/1 179/17/1 180/15/1
f 181/16/1 182/18/1 183/19/1 184/17/1
f 185/10/1 186/11/1 187/12/1 188/13/1
f 189/11/1 190/14/1 191/15/1 192/12/1
f 193/14/1 194/16/1 195/17/1 196/15/1
f 197/16/1 198/18/1 199/19/1 200/17/1
f 201/10/1 202/11/1 203/12/1 204/13/1
f 205/11/1 206/14/1 207/15/1 208/12/1
f 209/14/1 210/16/1 211/17/1 212/15/1
f 213/16/1 214/18/1 215/19/1 216/17/1
f 217/4/1 218/3/1 219/7/1 220/8/1
f 221/3/1 222/6/1 223/9/1 224/7/1
f 225/1/1 226/2/1 227/3/1 228/4/1
f 229/2/1 230/5/1 231/6/1 232/3/1
f 233/1/1 234/2/1 235/3/1 236/4/1
f 237/2/1 238/5/1 239/6/1 240/3/1
f 241/1/1 242/2/1 243/3/1 244/4/1
f 245/2/1 246/5/1 247/6/1 248/3/1
f 249/20/1 250/21/1 251/11/1 252/10/1
f 253/21/1 254/22/1 255/14/1 256/11/1
f 257/22/1 258/23/1 259/16/1 260/14/1
f 261/23/1 262/24/1 263/18/1 264/16/1
f 265/20/1 266/21/1 267/11/1 268/10/1
f 269/21/1 270/22/1 271/14/1 272/11/1
f 273/22/1 274/23/1 275/16/1 276/14/1
f 277/23/1 278/24/1 279/18/1 280/16/1
f 281/20/1 282/21/1 283/11/1 284/10/1
f 285/21/1 286/22/1 287/14/1 288/11/1
f 289/22/1 290/23/1 291/16/1 292/14/1
f 293/23/1 294/24/1 295/18/1 296/16/1
f 297/20/1 298/21/1 299/11/1 300/10/1
f 301/21/1 302/22/1 303/14/1 304/11/1
f 305/22/1 306/23/1 307/16/1 308/14/1
f 309/23/1 310/24/1 311/18/1 312/16/1
f 313/20/1 314/21/1 315/11/1 316/10/1
f 317/21/1 318/22/1 319/14/1 320/11/1
f 321/22/1 322/23/1 323/16/1 324/14/1
f 325/23/1 326/24/1 327/18/1 328/16/1
f 329/20/1 330/21/1 331/11/1 332/10/1
f 333/21/1 334/22/1 335/14/1 336/11/1
f 337/22/1 338/23/1 339/16/1 340/14/1
f 341/23/1 342/24/1 343/18/1 344/16/1
f 345/1/1 346/2/1 347/3/1 348/4/1
f 349/2/1 350/5/1 351/6/1 352/3/1
f 353/14/1 354/16/1 355/17/1 356/15/1
f 357/16/1 358/18/1 359/19/1 360/17/1
f 361/10/1 362/11/1 363/12/1 364/13/1
f 365/11/1 366/14/1 367/15/1 368/12/1
f 369/14/1 370/16/1 371/17/1 372/15/1
f 373/16/1 374/18/1 375/19/1 376/17/1
f 377/4/1 378/3/1 379/7/1 380/8/1
f 381/3/1 382/6/1 383/9/1 384/7/1
f 385/22/1 386/23/1 387/16/1 388/14/1
f 389/23/1 390/24/1 391/18/1 392/16/1
f 393/20/1 394/21/1 395/11/1 396/10/1
f 397/21/1 398/22/1 399/14/1 400/11/1
f 401/22/1 402/23/1 403/16/1 404/14/1
f 405/23/1 406/24/1 407/18/1 408/16/1
f 409/1/1 410/2/1 411/3/1 412/4/1
f 413/2/1 414/5/1 415/6/1 416/3/1
f 417/4/1 418/3/1 419/7/1 420/8/1
f 421/3/1 422/6/1 423/9/1 424/7/1
f 425/1/1 426/2/1 427/3/1 428/4/1
f 429/2/1 430/5/1 431/6/1 432/3/1
f 433/4/1 434/3/1 435/7/1 436/8/1
f 437/3/1 438/6/1 439/9/1 440/7/1
f 441/1/1 442/2/1 443/3/1 444/4/1
f 445/2/1 446/5/1 447/6/1 448/3/1
f 449/1/1 450/2/1 451/3/1 452/4/1
f 453/2/1 454/5/1 455/6/1 456/3/1
f 457/1/1 458/2/1 459/3/1 460/4/1
f 461/2/1 462/5/1 463/6/1 464/3/1
f 465/1/1 466/2/1 467/3/1 468/4/1
f 469/2/1 470/5/1 471/6/1 472/3/1
f 473/10/1 474/11/1 475/12/1 476/13/1
f 477/11/1 478/14/1 479/15/1 480/12/1
f 481/14/1 482/16/1 483/17/1 484/15/1
f 485/16/1 486/18/1 487/19/1 488/17/1
f 489/4/1 490/3/1 491/7/1 492/8/1
f 493/3/1 494/6/1 495/9/1 496/7/1
f 497/4/1 498/3/1 499/7/1 500/8/1
f 501/3/1 502/6/1 503/9/1 504/7/1
f 505/20/1 506/21/1 507/11/1 508/10/1
f 509/21/1 510/22/1 511/14/1 512/11/1
f 513/22/1 514/23/1 515/16/1 516/14/1
f 517/23/1 518/24/1 519/18/1 520/16/1
f 521/1/1 522/2/1 523/3/1 524/4/1
f 525/2/1 526/5/1 527/6/1 528/3/1
f 529/1/1 530/2/1 531/3/1 532/4/1
f 533/2/1 534/5/1 535/6/1 536/3/1
f 537/4/1 538/3/1 539/7/1 540/8/1
f 541/3/1 542/6/1 543/9/1 544/7/1
f 545/4/1 546/3/1 547/7/1 548/8/1
f 549/3/1 550/6/1 551/9/1 552/7/1
f 553/1/1 554/2/1 555/3/1 556/4/1
f 557/2/1 558/5/1 559/6/1 560/3/1
f 561/1/1 562/2/1 563/3/1 564/4/1
f 565/2/1 566/5/1 567/6/1 568/3/1
f 569/4/1 570/3/1 571/7/1 572/8/1
f 573/3/1 574/6/1 575/9/1 576/7/1
f 577/4/1 578/3/1 579/7/1 580/8/1
f 581/3/1 582/6/1 583/9/1 584/7/1
f 585/1/1 586/2/1 587/3/1 588/4/1
f 589/2/1 590/5/1 591/6/1 592/3/1
f 593/1/1 594/2/1 595/3/1 596/4/1
f 597/2/1 598/5/1 599/6/1 600/3/1
f 601/4/1 602/3/1 603/7/1 604/8/1
f 605/3/1 606/6/1 607/9/1 608/7/1
f 609/4/1 610/3/1 611/7/1 612/8/1
f 613/3/1 614/6/1 615/9/1 616/7/1
f 617/1/1 618/2/1 619/3/1 620/4/1
f 621/2/1 622/5/1 623/6/1 624/3/1
f 625/1/1 626/2/1 627/3/1 628/4/1
f 629/2/1 630/5/1 631/6/1 632/3/1
f 633/4/1 634/3/1 635/7/1 636/8/1
f 637/3/1 638/6/1 639/9/1 640/7/1
f 641/4/1 642/3/1 643/7/1 644/8/1
f 645/3/1 646/6/1 647/9/1 648/7/1
f 649/1/1 650/2/1 651/3/1 652/4/1
f 653/2/1 654/5/1 655/6/1 656/3/1
f 657/1/1 658/2/1 659/3/1 660/4/1
f 661/2/1 662/5/1 663/6/1 664/3/1
f 665/4/1 666/3/1 667/7/1 668/8/1
f 669/3/1 670/6/1 671/9/1 672/7/1
f 673/4/1 674/3/1 675/7/1 676/8/1
f 677/3/1 678/6/1 679/9/1 680/7/1
f 681/1/1 682/2/1 683/3/1 684/4/1
f 685/2/1 686/5/1 687/6/1 688/3/1
f 689/1/1 690/2/1 691/3/1 692/4/1
f 693/2/1 694/5/1 695/6/1 696/3/1
f 697/1/1 698/2/1 699/3/1 700/4/1
f 701/2/1 702/5/1 703/6/1 704/3/1
f 705/1/1 706/2/1 707/3/1 708/4/1
f 709/2/1 710/5/1 711/6/1 712/3/1
f 713/1/1 714/2/1 715/3/1 716/4/1
f 717/2/1 718/5/1 719/6/1 720/3/1
f 721/1/1 722/2/1 723/3/1 724/4/1
f 725/2/1 726/5/1 727/6/1 728/3/1
f 729/1/1 730/2/1 731/3/1 732/4/1
f 733/2/1 734/5/1 735/6/1 736/3/1
f 737/1/1 738/2/1 739/3/1 740/4/1
f 741/2/1 742/5/1 743/6/1 744/3/1
f 745/1/1 746/2/1 747/3/1 748/4/1
f 749/2/1 750/5/1 751/6/1 752/3/1
f 753/1/1 754/2/1 755/3/1 756/4/1
f 757/2/1 758/5/1 759/6/1 760/3/1
f 761/1/1 762/2/1 763/3/1 764/4/1
f 765/2/1 766/5/1 767/6/1 768/3/1
f 769/1/1 770/2/1 771/3/1 772/4/1
f 773/2/1 774/5/1 775/6/1 776/3/1
f 777/1/1 778/2/1 779/3/1 780/4/1
f 781/2/1 782/5/1 783/6/1 784/3/1
f 785/1/1 786/2/1 787/3/1 788/4/1
f 789/2/1 790/5/1 791/6/1 792/3/1
f 793/10/1 794/11/1 795/12/1 796/13/1
f 797/11/1 798/14/1 799/15/1 800/12/1
f 801/14/1 802/16/1 803/17/1 804/15/1
f 805/16/1 806/18/1 807/19/1 808/17/1
f 809/10/1 810/11/1 811/12/1 812/13/1
f 813/11/1 814/14/1 815/15/1 816/12/1
f 817/14/1 818/16/1 819/17/1 820/15/1
f 821/16/1 822/18/1 823/19/1 824/17/1
f 825/10/1 826/11/1 827/12/1 828/13/1
f 829/11/1 830/14/1 831/15/1 832/12/1
f 833/14/1 834/16/1 835/17/1 836/15/1
f 837/16/1 838/18/1 839/19/1 840/17/1
f 841/10/1 842/11/1 843/12/1 844/13/1
f 845/11/1 846/14/1 847/15/1 848/12/1
f 849/14/1 850/16/1 851/17/1 852/15/1
f 853/16/1 854/18/1 855/19/1 856/17/1
f 857/10/1 858/11/1 859/12/1 860/13/1
f 861/11/1 862/14/1 863/15/1 864/12/1
f 865/14/1 866/16/1 867/17/1 868/15/1
f 869/16/1 870/18/1 871/19/1 872/17/1
f 873/10/1 874/11/1 875/12/1 876/13/1
f 877/11/1 878/14/1 879/15/1 880/12/1
f 881/14/1 882/16/1 883/17/1 884/15/1
f 885/16/1 886/18/1 887/19/1 888/17/1
f 889/10/1 890/11/1 891/12/1 892/13/1
f 893/11/1 894/14/1 895/15/1 896/12/1
f 897/14/1 898/16/1 899/17/1 900/15/1
f 901/16/1 902/18/1 903/19/1 904/17/1
f 905/20/1 906/21/1 907/11/1 908/10/1
f 909/21/1 910/22/1 911/14/1 912/11/1
f 913/22/1 914/23/1 915/16/1 916/14/1
f 917/23/1 918/24/1 919/18/1 920/16/1
f 921/20/1 922/21/1 923/11/1 924/10/1
f 925/21/1 926/22/1 927/14/1 928/11/1
f 929/22/1 930/23/1 931/16/1 932/14/1
f 933/23/1 934/24/1 935/18/1 936/16/1
f 937/20/1 938/21/1 939/11/1 940/10/1
f 941/21/1 942/22/1 943/14/1 944/11/1
f 945/22/1 946/23/1 947/16/1 948/14/1
f 949/23/1 950/24/1 951/18/1 952/16/1
f 953/20/1 954/21/1 955/11/1 956/10/1
f 957/21/1 958/22/1 959/14/1 960/11/1
f 961/22/1 962/23/1 963/16/1 964/14/1
f 965/23/1 966/24/1 967/18/1 968/16/1
f 969/20/1 970/21/1 971/11/1 972/10/1
f 973/21/1 974/22/1 975/14/1 976/11/1
f 977/22/1 978/23/1 979/16/1 980/14/1
f 981/23/1 982/24/1 983/18/1 984/16/1
f 985/20/1 986/21/1 987/11/1 988/10/1
f 989/21/1 990/22/1 991/14/1 992/11/1
f 993/22/1 994/23/1 995/16/1 996/14/1
f 997/23/1 998/24/1 999/18/1 1000/16/1
f 1001/20/1 1002/21/1 1003/11/1 1004/10/1
f 1005/21/1 1006/22/1 1007/14/1 1008/11/1
f 1009/22/1 1010/23/1 1011/16/1 1012/14/1
f 1013/23/1 1014/24/1 1015/18/1 1016/16/1

