# Tiled2Unity generated file. Do not modify by hand.
# Wavefront file for 'SalleNSW-Occulte_mesh_0005.obj'

# Vertices (Count = 32)
v -1392 -1152 0
v -1416 -1152 0
v -1416 -1128 0
v -1392 -1128 0
v -1416 -1152 0
v -1440 -1152 0
v -1440 -1128 0
v -1416 -1128 0
v -1392 -1176 0
v -1416 -1176 0
v -1416 -1152 0
v -1392 -1152 0
v -1416 -1176 0
v -1440 -1176 0
v -1440 -1152 0
v -1416 -1152 0
v -1680 -1296 0
v -1704 -1296 0
v -1704 -1272 0
v -1680 -1272 0
v -1704 -1296 0
v -1728 -1296 0
v -1728 -1272 0
v -1704 -1272 0
v -1680 -1320 0
v -1704 -1320 0
v -1704 -1296 0
v -1680 -1296 0
v -1704 -1320 0
v -1728 -1320 0
v -1728 -1296 0
v -1704 -1296 0

# Texture cooridinates (Count = 9)
vt 0.625 0.65625
vt 0.65625 0.65625
vt 0.65625 0.6875
vt 0.625 0.6875
vt 0.6875 0.65625
vt 0.6875 0.6875
vt 0.625 0.625
vt 0.65625 0.625
vt 0.6875 0.625

# Normal
vn 0 0 -1

# Mesh description
g SalleNSW-Occulte_mesh_0005

# Faces
f 1/1/1 2/2/1 3/3/1 4/4/1
f 5/2/1 6/5/1 7/6/1 8/3/1
f 9/7/1 10/8/1 11/2/1 12/1/1
f 13/8/1 14/9/1 15/5/1 16/2/1
f 17/1/1 18/2/1 19/3/1 20/4/1
f 21/2/1 22/5/1 23/6/1 24/3/1
f 25/7/1 26/8/1 27/2/1 28/1/1
f 29/8/1 30/9/1 31/5/1 32/2/1

