# Tiled2Unity generated file. Do not modify by hand.
# Wavefront file for 'SalleNSW-Occulte_mesh_0004.obj'

# Vertices (Count = 32)
v -1584 -1008 0
v -1608 -1008 0
v -1608 -984 0
v -1584 -984 0
v -1608 -1008 0
v -1632 -1008 0
v -1632 -984 0
v -1608 -984 0
v -1584 -1032 0
v -1608 -1032 0
v -1608 -1008 0
v -1584 -1008 0
v -1608 -1032 0
v -1632 -1032 0
v -1632 -1008 0
v -1608 -1008 0
v -1272 -1128 0
v -1296 -1128 0
v -1296 -1104 0
v -1272 -1104 0
v -1296 -1128 0
v -1320 -1128 0
v -1320 -1104 0
v -1296 -1104 0
v -1272 -1152 0
v -1296 -1152 0
v -1296 -1128 0
v -1272 -1128 0
v -1296 -1152 0
v -1320 -1152 0
v -1320 -1128 0
v -1296 -1128 0

# Texture cooridinates (Count = 9)
vt 0.9375 0.15625
vt 0.96875 0.15625
vt 0.96875 0.1875
vt 0.9375 0.1875
vt 1 0.15625
vt 1 0.1875
vt 0.9375 0.125
vt 0.96875 0.125
vt 1 0.125

# Normal
vn 0 0 -1

# Mesh description
g SalleNSW-Occulte_mesh_0004

# Faces
f 1/1/1 2/2/1 3/3/1 4/4/1
f 5/2/1 6/5/1 7/6/1 8/3/1
f 9/7/1 10/8/1 11/2/1 12/1/1
f 13/8/1 14/9/1 15/5/1 16/2/1
f 17/1/1 18/2/1 19/3/1 20/4/1
f 21/2/1 22/5/1 23/6/1 24/3/1
f 25/7/1 26/8/1 27/2/1 28/1/1
f 29/8/1 30/9/1 31/5/1 32/2/1

