# Tiled2Unity generated file. Do not modify by hand.
# Wavefront file for 'SalleDarkBoss_mesh_0006.obj'

# Vertices (Count = 208)
v -22 -19 0
v -23 -19 0
v -23 -18 0
v -22 -18 0
v -23 -19 0
v -24 -19 0
v -24 -18 0
v -23 -18 0
v -24 -19 0
v -25 -19 0
v -25 -18 0
v -24 -18 0
v -25 -19 0
v -26 -19 0
v -26 -18 0
v -25 -18 0
v -22 -20 0
v -23 -20 0
v -23 -19 0
v -22 -19 0
v -23 -20 0
v -24 -20 0
v -24 -19 0
v -23 -19 0
v -24 -20 0
v -25 -20 0
v -25 -19 0
v -24 -19 0
v -25 -20 0
v -26 -20 0
v -26 -19 0
v -25 -19 0
v -22 -21 0
v -23 -21 0
v -23 -20 0
v -22 -20 0
v -23 -21 0
v -24 -21 0
v -24 -20 0
v -23 -20 0
v -24 -21 0
v -25 -21 0
v -25 -20 0
v -24 -20 0
v -25 -21 0
v -26 -21 0
v -26 -20 0
v -25 -20 0
v -22 -22 0
v -23 -22 0
v -23 -21 0
v -22 -21 0
v -23 -22 0
v -24 -22 0
v -24 -21 0
v -23 -21 0
v -24 -22 0
v -25 -22 0
v -25 -21 0
v -24 -21 0
v -25 -22 0
v -26 -22 0
v -26 -21 0
v -25 -21 0
v -22 -23 0
v -23 -23 0
v -23 -22 0
v -22 -22 0
v -23 -23 0
v -24 -23 0
v -24 -22 0
v -23 -22 0
v -24 -23 0
v -25 -23 0
v -25 -22 0
v -24 -22 0
v -25 -23 0
v -26 -23 0
v -26 -22 0
v -25 -22 0
v -22 -24 0
v -23 -24 0
v -23 -23 0
v -22 -23 0
v -23 -24 0
v -24 -24 0
v -24 -23 0
v -23 -23 0
v -24 -24 0
v -25 -24 0
v -25 -23 0
v -24 -23 0
v -25 -24 0
v -26 -24 0
v -26 -23 0
v -25 -23 0
v -22 -25 0
v -23 -25 0
v -23 -24 0
v -22 -24 0
v -23 -25 0
v -24 -25 0
v -24 -24 0
v -23 -24 0
v -24 -25 0
v -25 -25 0
v -25 -24 0
v -24 -24 0
v -25 -25 0
v -26 -25 0
v -26 -24 0
v -25 -24 0
v -22 -26 0
v -23 -26 0
v -23 -25 0
v -22 -25 0
v -23 -26 0
v -24 -26 0
v -24 -25 0
v -23 -25 0
v -24 -26 0
v -25 -26 0
v -25 -25 0
v -24 -25 0
v -25 -26 0
v -26 -26 0
v -26 -25 0
v -25 -25 0
v -22 -27 0
v -23 -27 0
v -23 -26 0
v -22 -26 0
v -23 -27 0
v -24 -27 0
v -24 -26 0
v -23 -26 0
v -24 -27 0
v -25 -27 0
v -25 -26 0
v -24 -26 0
v -25 -27 0
v -26 -27 0
v -26 -26 0
v -25 -26 0
v -22 -28 0
v -23 -28 0
v -23 -27 0
v -22 -27 0
v -23 -28 0
v -24 -28 0
v -24 -27 0
v -23 -27 0
v -24 -28 0
v -25 -28 0
v -25 -27 0
v -24 -27 0
v -25 -28 0
v -26 -28 0
v -26 -27 0
v -25 -27 0
v -22 -29 0
v -23 -29 0
v -23 -28 0
v -22 -28 0
v -23 -29 0
v -24 -29 0
v -24 -28 0
v -23 -28 0
v -24 -29 0
v -25 -29 0
v -25 -28 0
v -24 -28 0
v -25 -29 0
v -26 -29 0
v -26 -28 0
v -25 -28 0
v -22 -30 0
v -23 -30 0
v -23 -29 0
v -22 -29 0
v -23 -30 0
v -24 -30 0
v -24 -29 0
v -23 -29 0
v -24 -30 0
v -25 -30 0
v -25 -29 0
v -24 -29 0
v -25 -30 0
v -26 -30 0
v -26 -29 0
v -25 -29 0
v -22 -31 0
v -23 -31 0
v -23 -30 0
v -22 -30 0
v -23 -31 0
v -24 -31 0
v -24 -30 0
v -23 -30 0
v -24 -31 0
v -25 -31 0
v -25 -30 0
v -24 -30 0
v -25 -31 0
v -26 -31 0
v -26 -30 0
v -25 -30 0

# Texture cooridinates (Count = 25)
vt 0.375 0.125
vt 0.40625 0.125
vt 0.40625 0.1666667
vt 0.375 0.1666667
vt 0.4375 0.125
vt 0.4375 0.1666667
vt 0.46875 0.125
vt 0.46875 0.1666667
vt 0.5 0.125
vt 0.5 0.1666667
vt 0.375 0.08333331
vt 0.40625 0.08333331
vt 0.4375 0.08333331
vt 0.46875 0.08333331
vt 0.5 0.08333331
vt 0.375 0.04166669
vt 0.40625 0.04166669
vt 0.46875 0.04166669
vt 0.5 0.04166669
vt 0.375 0
vt 0.40625 0
vt 0.4375 0
vt 0.4375 0.04166669
vt 0.46875 0
vt 0.5 0

# Normal
vn 0 0 -1

# Mesh description
g SalleDarkBoss_mesh_0006

# Faces
f 1/1/1 2/2/1 3/3/1 4/4/1
f 5/2/1 6/5/1 7/6/1 8/3/1
f 9/5/1 10/7/1 11/8/1 12/6/1
f 13/7/1 14/9/1 15/10/1 16/8/1
f 17/11/1 18/12/1 19/2/1 20/1/1
f 21/12/1 22/13/1 23/5/1 24/2/1
f 25/12/1 26/13/1 27/5/1 28/2/1
f 29/14/1 30/15/1 31/9/1 32/7/1
f 33/16/1 34/17/1 35/12/1 36/11/1
f 37/12/1 38/13/1 39/5/1 40/2/1
f 41/12/1 42/13/1 43/5/1 44/2/1
f 45/18/1 46/19/1 47/15/1 48/14/1
f 49/11/1 50/12/1 51/2/1 52/1/1
f 53/12/1 54/13/1 55/5/1 56/2/1
f 57/12/1 58/13/1 59/5/1 60/2/1
f 61/14/1 62/15/1 63/9/1 64/7/1
f 65/16/1 66/17/1 67/12/1 68/11/1
f 69/12/1 70/13/1 71/5/1 72/2/1
f 73/12/1 74/13/1 75/5/1 76/2/1
f 77/18/1 78/19/1 79/15/1 80/14/1
f 81/11/1 82/12/1 83/2/1 84/1/1
f 85/12/1 86/13/1 87/5/1 88/2/1
f 89/12/1 90/13/1 91/5/1 92/2/1
f 93/14/1 94/15/1 95/9/1 96/7/1
f 97/16/1 98/17/1 99/12/1 100/11/1
f 101/12/1 102/13/1 103/5/1 104/2/1
f 105/12/1 106/13/1 107/5/1 108/2/1
f 109/18/1 110/19/1 111/15/1 112/14/1
f 113/11/1 114/12/1 115/2/1 116/1/1
f 117/12/1 118/13/1 119/5/1 120/2/1
f 121/12/1 122/13/1 123/5/1 124/2/1
f 125/14/1 126/15/1 127/9/1 128/7/1
f 129/16/1 130/17/1 131/12/1 132/11/1
f 133/12/1 134/13/1 135/5/1 136/2/1
f 137/12/1 138/13/1 139/5/1 140/2/1
f 141/18/1 142/19/1 143/15/1 144/14/1
f 145/11/1 146/12/1 147/2/1 148/1/1
f 149/12/1 150/13/1 151/5/1 152/2/1
f 153/12/1 154/13/1 155/5/1 156/2/1
f 157/14/1 158/15/1 159/9/1 160/7/1
f 161/16/1 162/17/1 163/12/1 164/11/1
f 165/12/1 166/13/1 167/5/1 168/2/1
f 169/12/1 170/13/1 171/5/1 172/2/1
f 173/18/1 174/19/1 175/15/1 176/14/1
f 177/11/1 178/12/1 179/2/1 180/1/1
f 181/12/1 182/13/1 183/5/1 184/2/1
f 185/12/1 186/13/1 187/5/1 188/2/1
f 189/14/1 190/15/1 191/9/1 192/7/1
f 193/20/1 194/21/1 195/17/1 196/16/1
f 197/21/1 198/22/1 199/23/1 200/17/1
f 201/22/1 202/24/1 203/18/1 204/23/1
f 205/24/1 206/25/1 207/19/1 208/18/1

