# Tiled2Unity generated file. Do not modify by hand.
# Wavefront file for 'SalleDarkBoss_mesh_0003.obj'

# Vertices (Count = 16)
v -23 -12 0
v -24 -12 0
v -24 -11 0
v -23 -11 0
v -24 -12 0
v -25 -12 0
v -25 -11 0
v -24 -11 0
v -23 -13 0
v -24 -13 0
v -24 -12 0
v -23 -12 0
v -24 -13 0
v -25 -13 0
v -25 -12 0
v -24 -12 0

# Texture cooridinates (Count = 9)
vt 0.5625 0.84375
vt 0.59375 0.84375
vt 0.59375 0.875
vt 0.5625 0.875
vt 0.625 0.84375
vt 0.625 0.875
vt 0.5625 0.8125
vt 0.59375 0.8125
vt 0.625 0.8125

# Normal
vn 0 0 -1

# Mesh description
g SalleDarkBoss_mesh_0003

# Faces
f 1/1/1 2/2/1 3/3/1 4/4/1
f 5/2/1 6/5/1 7/6/1 8/3/1
f 9/7/1 10/8/1 11/2/1 12/1/1
f 13/8/1 14/9/1 15/5/1 16/2/1

