# Tiled2Unity generated file. Do not modify by hand.
# Wavefront file for 'SalleDarkBoss_mesh_0005.obj'

# Vertices (Count = 544)
v -17 -15 0
v -18 -15 0
v -18 -14 0
v -17 -14 0
v -18 -15 0
v -19 -15 0
v -19 -14 0
v -18 -14 0
v -21 -15 0
v -22 -15 0
v -22 -14 0
v -21 -14 0
v -26 -15 0
v -27 -15 0
v -27 -14 0
v -26 -14 0
v -29 -15 0
v -30 -15 0
v -30 -14 0
v -29 -14 0
v -30 -15 0
v -31 -15 0
v -31 -14 0
v -30 -14 0
v -17 -16 0
v -18 -16 0
v -18 -15 0
v -17 -15 0
v -18 -16 0
v -19 -16 0
v -19 -15 0
v -18 -15 0
v -21 -16 0
v -22 -16 0
v -22 -15 0
v -21 -15 0
v -26 -16 0
v -27 -16 0
v -27 -15 0
v -26 -15 0
v -29 -16 0
v -30 -16 0
v -30 -15 0
v -29 -15 0
v -30 -16 0
v -31 -16 0
v -31 -15 0
v -30 -15 0
v -17 -17 0
v -18 -17 0
v -18 -16 0
v -17 -16 0
v -18 -17 0
v -19 -17 0
v -19 -16 0
v -18 -16 0
v -21 -17 0
v -22 -17 0
v -22 -16 0
v -21 -16 0
v -26 -17 0
v -27 -17 0
v -27 -16 0
v -26 -16 0
v -29 -17 0
v -30 -17 0
v -30 -16 0
v -29 -16 0
v -30 -17 0
v -31 -17 0
v -31 -16 0
v -30 -16 0
v -17 -18 0
v -18 -18 0
v -18 -17 0
v -17 -17 0
v -18 -18 0
v -19 -18 0
v -19 -17 0
v -18 -17 0
v -21 -18 0
v -22 -18 0
v -22 -17 0
v -21 -17 0
v -26 -18 0
v -27 -18 0
v -27 -17 0
v -26 -17 0
v -29 -18 0
v -30 -18 0
v -30 -17 0
v -29 -17 0
v -30 -18 0
v -31 -18 0
v -31 -17 0
v -30 -17 0
v -17 -19 0
v -18 -19 0
v -18 -18 0
v -17 -18 0
v -18 -19 0
v -19 -19 0
v -19 -18 0
v -18 -18 0
v -29 -19 0
v -30 -19 0
v -30 -18 0
v -29 -18 0
v -30 -19 0
v -31 -19 0
v -31 -18 0
v -30 -18 0
v -15 -25 0
v -16 -25 0
v -16 -24 0
v -15 -24 0
v -16 -25 0
v -17 -25 0
v -17 -24 0
v -16 -24 0
v -17 -25 0
v -18 -25 0
v -18 -24 0
v -17 -24 0
v -18 -25 0
v -19 -25 0
v -19 -24 0
v -18 -24 0
v -19 -25 0
v -20 -25 0
v -20 -24 0
v -19 -24 0
v -20 -25 0
v -21 -25 0
v -21 -24 0
v -20 -24 0
v -27 -25 0
v -28 -25 0
v -28 -24 0
v -27 -24 0
v -28 -25 0
v -29 -25 0
v -29 -24 0
v -28 -24 0
v -29 -25 0
v -30 -25 0
v -30 -24 0
v -29 -24 0
v -30 -25 0
v -31 -25 0
v -31 -24 0
v -30 -24 0
v -31 -25 0
v -32 -25 0
v -32 -24 0
v -31 -24 0
v -32 -25 0
v -33 -25 0
v -33 -24 0
v -32 -24 0
v -15 -26 0
v -16 -26 0
v -16 -25 0
v -15 -25 0
v -16 -26 0
v -17 -26 0
v -17 -25 0
v -16 -25 0
v -17 -26 0
v -18 -26 0
v -18 -25 0
v -17 -25 0
v -18 -26 0
v -19 -26 0
v -19 -25 0
v -18 -25 0
v -19 -26 0
v -20 -26 0
v -20 -25 0
v -19 -25 0
v -20 -26 0
v -21 -26 0
v -21 -25 0
v -20 -25 0
v -27 -26 0
v -28 -26 0
v -28 -25 0
v -27 -25 0
v -28 -26 0
v -29 -26 0
v -29 -25 0
v -28 -25 0
v -29 -26 0
v -30 -26 0
v -30 -25 0
v -29 -25 0
v -30 -26 0
v -31 -26 0
v -31 -25 0
v -30 -25 0
v -31 -26 0
v -32 -26 0
v -32 -25 0
v -31 -25 0
v -32 -26 0
v -33 -26 0
v -33 -25 0
v -32 -25 0
v -15 -27 0
v -16 -27 0
v -16 -26 0
v -15 -26 0
v -16 -27 0
v -17 -27 0
v -17 -26 0
v -16 -26 0
v -17 -27 0
v -18 -27 0
v -18 -26 0
v -17 -26 0
v -18 -27 0
v -19 -27 0
v -19 -26 0
v -18 -26 0
v -19 -27 0
v -20 -27 0
v -20 -26 0
v -19 -26 0
v -20 -27 0
v -21 -27 0
v -21 -26 0
v -20 -26 0
v -27 -27 0
v -28 -27 0
v -28 -26 0
v -27 -26 0
v -28 -27 0
v -29 -27 0
v -29 -26 0
v -28 -26 0
v -29 -27 0
v -30 -27 0
v -30 -26 0
v -29 -26 0
v -30 -27 0
v -31 -27 0
v -31 -26 0
v -30 -26 0
v -31 -27 0
v -32 -27 0
v -32 -26 0
v -31 -26 0
v -32 -27 0
v -33 -27 0
v -33 -26 0
v -32 -26 0
v -15 -28 0
v -16 -28 0
v -16 -27 0
v -15 -27 0
v -16 -28 0
v -17 -28 0
v -17 -27 0
v -16 -27 0
v -17 -28 0
v -18 -28 0
v -18 -27 0
v -17 -27 0
v -18 -28 0
v -19 -28 0
v -19 -27 0
v -18 -27 0
v -19 -28 0
v -20 -28 0
v -20 -27 0
v -19 -27 0
v -20 -28 0
v -21 -28 0
v -21 -27 0
v -20 -27 0
v -27 -28 0
v -28 -28 0
v -28 -27 0
v -27 -27 0
v -28 -28 0
v -29 -28 0
v -29 -27 0
v -28 -27 0
v -29 -28 0
v -30 -28 0
v -30 -27 0
v -29 -27 0
v -30 -28 0
v -31 -28 0
v -31 -27 0
v -30 -27 0
v -31 -28 0
v -32 -28 0
v -32 -27 0
v -31 -27 0
v -32 -28 0
v -33 -28 0
v -33 -27 0
v -32 -27 0
v -15 -29 0
v -16 -29 0
v -16 -28 0
v -15 -28 0
v -16 -29 0
v -17 -29 0
v -17 -28 0
v -16 -28 0
v -17 -29 0
v -18 -29 0
v -18 -28 0
v -17 -28 0
v -18 -29 0
v -19 -29 0
v -19 -28 0
v -18 -28 0
v -19 -29 0
v -20 -29 0
v -20 -28 0
v -19 -28 0
v -20 -29 0
v -21 -29 0
v -21 -28 0
v -20 -28 0
v -27 -29 0
v -28 -29 0
v -28 -28 0
v -27 -28 0
v -28 -29 0
v -29 -29 0
v -29 -28 0
v -28 -28 0
v -29 -29 0
v -30 -29 0
v -30 -28 0
v -29 -28 0
v -30 -29 0
v -31 -29 0
v -31 -28 0
v -30 -28 0
v -31 -29 0
v -32 -29 0
v -32 -28 0
v -31 -28 0
v -32 -29 0
v -33 -29 0
v -33 -28 0
v -32 -28 0
v -15 -30 0
v -16 -30 0
v -16 -29 0
v -15 -29 0
v -16 -30 0
v -17 -30 0
v -17 -29 0
v -16 -29 0
v -17 -30 0
v -18 -30 0
v -18 -29 0
v -17 -29 0
v -18 -30 0
v -19 -30 0
v -19 -29 0
v -18 -29 0
v -19 -30 0
v -20 -30 0
v -20 -29 0
v -19 -29 0
v -20 -30 0
v -21 -30 0
v -21 -29 0
v -20 -29 0
v -27 -30 0
v -28 -30 0
v -28 -29 0
v -27 -29 0
v -28 -30 0
v -29 -30 0
v -29 -29 0
v -28 -29 0
v -29 -30 0
v -30 -30 0
v -30 -29 0
v -29 -29 0
v -30 -30 0
v -31 -30 0
v -31 -29 0
v -30 -29 0
v -31 -30 0
v -32 -30 0
v -32 -29 0
v -31 -29 0
v -32 -30 0
v -33 -30 0
v -33 -29 0
v -32 -29 0
v -21 -36 0
v -22 -36 0
v -22 -35 0
v -21 -35 0
v -22 -36 0
v -23 -36 0
v -23 -35 0
v -22 -35 0
v -23 -36 0
v -24 -36 0
v -24 -35 0
v -23 -35 0
v -24 -36 0
v -25 -36 0
v -25 -35 0
v -24 -35 0
v -25 -36 0
v -26 -36 0
v -26 -35 0
v -25 -35 0
v -26 -36 0
v -27 -36 0
v -27 -35 0
v -26 -35 0
v -21 -37 0
v -22 -37 0
v -22 -36 0
v -21 -36 0
v -22 -37 0
v -23 -37 0
v -23 -36 0
v -22 -36 0
v -23 -37 0
v -24 -37 0
v -24 -36 0
v -23 -36 0
v -24 -37 0
v -25 -37 0
v -25 -36 0
v -24 -36 0
v -25 -37 0
v -26 -37 0
v -26 -36 0
v -25 -36 0
v -26 -37 0
v -27 -37 0
v -27 -36 0
v -26 -36 0
v -21 -38 0
v -22 -38 0
v -22 -37 0
v -21 -37 0
v -22 -38 0
v -23 -38 0
v -23 -37 0
v -22 -37 0
v -23 -38 0
v -24 -38 0
v -24 -37 0
v -23 -37 0
v -24 -38 0
v -25 -38 0
v -25 -37 0
v -24 -37 0
v -25 -38 0
v -26 -38 0
v -26 -37 0
v -25 -37 0
v -26 -38 0
v -27 -38 0
v -27 -37 0
v -26 -37 0
v -21 -39 0
v -22 -39 0
v -22 -38 0
v -21 -38 0
v -22 -39 0
v -23 -39 0
v -23 -38 0
v -22 -38 0
v -23 -39 0
v -24 -39 0
v -24 -38 0
v -23 -38 0
v -24 -39 0
v -25 -39 0
v -25 -38 0
v -24 -38 0
v -25 -39 0
v -26 -39 0
v -26 -38 0
v -25 -38 0
v -26 -39 0
v -27 -39 0
v -27 -38 0
v -26 -38 0
v -21 -40 0
v -22 -40 0
v -22 -39 0
v -21 -39 0
v -22 -40 0
v -23 -40 0
v -23 -39 0
v -22 -39 0
v -23 -40 0
v -24 -40 0
v -24 -39 0
v -23 -39 0
v -24 -40 0
v -25 -40 0
v -25 -39 0
v -24 -39 0
v -25 -40 0
v -26 -40 0
v -26 -39 0
v -25 -39 0
v -26 -40 0
v -27 -40 0
v -27 -39 0
v -26 -39 0
v -21 -41 0
v -22 -41 0
v -22 -40 0
v -21 -40 0
v -22 -41 0
v -23 -41 0
v -23 -40 0
v -22 -40 0
v -23 -41 0
v -24 -41 0
v -24 -40 0
v -23 -40 0
v -24 -41 0
v -25 -41 0
v -25 -40 0
v -24 -40 0
v -25 -41 0
v -26 -41 0
v -26 -40 0
v -25 -40 0
v -26 -41 0
v -27 -41 0
v -27 -40 0
v -26 -40 0

# Texture cooridinates (Count = 87)
vt 0.25 0.78125
vt 0.28125 0.78125
vt 0.28125 0.8125
vt 0.25 0.8125
vt 0.3125 0.78125
vt 0.3125 0.8125
vt 0.625 0.34375
vt 0.65625 0.34375
vt 0.65625 0.375
vt 0.625 0.375
vt 0.71875 0.34375
vt 0.75 0.34375
vt 0.75 0.375
vt 0.71875 0.375
vt 0.25 0.75
vt 0.28125 0.75
vt 0.3125 0.75
vt 0.625 0.3125
vt 0.65625 0.3125
vt 0.71875 0.3125
vt 0.75 0.3125
vt 0.25 0.71875
vt 0.28125 0.71875
vt 0.3125 0.71875
vt 0.625 0.28125
vt 0.65625 0.28125
vt 0.71875 0.28125
vt 0.75 0.28125
vt 0.25 0.6875
vt 0.28125 0.6875
vt 0.3125 0.6875
vt 0.625 0.25
vt 0.65625 0.25
vt 0.71875 0.25
vt 0.75 0.25
vt 0.25 0.65625
vt 0.28125 0.65625
vt 0.3125 0.65625
vt 0 0.34375
vt 0.03125 0.34375
vt 0.03125 0.375
vt 0 0.375
vt 0.0625 0.34375
vt 0.0625 0.375
vt 0.09375 0.34375
vt 0.09375 0.375
vt 0.125 0.34375
vt 0.125 0.375
vt 0.15625 0.34375
vt 0.15625 0.375
vt 0.1875 0.34375
vt 0.1875 0.375
vt 0 0.3125
vt 0.03125 0.3125
vt 0.0625 0.3125
vt 0.09375 0.3125
vt 0.125 0.3125
vt 0.15625 0.3125
vt 0.1875 0.3125
vt 0 0.28125
vt 0.03125 0.28125
vt 0.0625 0.28125
vt 0.09375 0.28125
vt 0.125 0.28125
vt 0.15625 0.28125
vt 0.1875 0.28125
vt 0 0.25
vt 0.03125 0.25
vt 0.0625 0.25
vt 0.09375 0.25
vt 0.125 0.25
vt 0.15625 0.25
vt 0.1875 0.25
vt 0 0.21875
vt 0.03125 0.21875
vt 0.0625 0.21875
vt 0.09375 0.21875
vt 0.125 0.21875
vt 0.15625 0.21875
vt 0.1875 0.21875
vt 0 0.1875
vt 0.03125 0.1875
vt 0.0625 0.1875
vt 0.09375 0.1875
vt 0.125 0.1875
vt 0.15625 0.1875
vt 0.1875 0.1875

# Normal
vn 0 0 -1

# Mesh description
g SalleDarkBoss_mesh_0005

# Faces
f 1/1/1 2/2/1 3/3/1 4/4/1
f 5/2/1 6/5/1 7/6/1 8/3/1
f 9/7/1 10/8/1 11/9/1 12/10/1
f 13/11/1 14/12/1 15/13/1 16/14/1
f 17/1/1 18/2/1 19/3/1 20/4/1
f 21/2/1 22/5/1 23/6/1 24/3/1
f 25/15/1 26/16/1 27/2/1 28/1/1
f 29/16/1 30/17/1 31/5/1 32/2/1
f 33/18/1 34/19/1 35/8/1 36/7/1
f 37/20/1 38/21/1 39/12/1 40/11/1
f 41/15/1 42/16/1 43/2/1 44/1/1
f 45/16/1 46/17/1 47/5/1 48/2/1
f 49/22/1 50/23/1 51/16/1 52/15/1
f 53/23/1 54/24/1 55/17/1 56/16/1
f 57/25/1 58/26/1 59/19/1 60/18/1
f 61/27/1 62/28/1 63/21/1 64/20/1
f 65/22/1 66/23/1 67/16/1 68/15/1
f 69/23/1 70/24/1 71/17/1 72/16/1
f 73/29/1 74/30/1 75/23/1 76/22/1
f 77/30/1 78/31/1 79/24/1 80/23/1
f 81/32/1 82/33/1 83/26/1 84/25/1
f 85/34/1 86/35/1 87/28/1 88/27/1
f 89/29/1 90/30/1 91/23/1 92/22/1
f 93/30/1 94/31/1 95/24/1 96/23/1
f 97/36/1 98/37/1 99/30/1 100/29/1
f 101/37/1 102/38/1 103/31/1 104/30/1
f 105/36/1 106/37/1 107/30/1 108/29/1
f 109/37/1 110/38/1 111/31/1 112/30/1
f 113/39/1 114/40/1 115/41/1 116/42/1
f 117/40/1 118/43/1 119/44/1 120/41/1
f 121/43/1 122/45/1 123/46/1 124/44/1
f 125/45/1 126/47/1 127/48/1 128/46/1
f 129/47/1 130/49/1 131/50/1 132/48/1
f 133/49/1 134/51/1 135/52/1 136/50/1
f 137/39/1 138/40/1 139/41/1 140/42/1
f 141/40/1 142/43/1 143/44/1 144/41/1
f 145/43/1 146/45/1 147/46/1 148/44/1
f 149/45/1 150/47/1 151/48/1 152/46/1
f 153/47/1 154/49/1 155/50/1 156/48/1
f 157/49/1 158/51/1 159/52/1 160/50/1
f 161/53/1 162/54/1 163/40/1 164/39/1
f 165/54/1 166/55/1 167/43/1 168/40/1
f 169/55/1 170/56/1 171/45/1 172/43/1
f 173/56/1 174/57/1 175/47/1 176/45/1
f 177/57/1 178/58/1 179/49/1 180/47/1
f 181/58/1 182/59/1 183/51/1 184/49/1
f 185/53/1 186/54/1 187/40/1 188/39/1
f 189/54/1 190/55/1 191/43/1 192/40/1
f 193/55/1 194/56/1 195/45/1 196/43/1
f 197/56/1 198/57/1 199/47/1 200/45/1
f 201/57/1 202/58/1 203/49/1 204/47/1
f 205/58/1 206/59/1 207/51/1 208/49/1
f 209/60/1 210/61/1 211/54/1 212/53/1
f 213/61/1 214/62/1 215/55/1 216/54/1
f 217/62/1 218/63/1 219/56/1 220/55/1
f 221/63/1 222/64/1 223/57/1 224/56/1
f 225/64/1 226/65/1 227/58/1 228/57/1
f 229/65/1 230/66/1 231/59/1 232/58/1
f 233/60/1 234/61/1 235/54/1 236/53/1
f 237/61/1 238/62/1 239/55/1 240/54/1
f 241/62/1 242/63/1 243/56/1 244/55/1
f 245/63/1 246/64/1 247/57/1 248/56/1
f 249/64/1 250/65/1 251/58/1 252/57/1
f 253/65/1 254/66/1 255/59/1 256/58/1
f 257/67/1 258/68/1 259/61/1 260/60/1
f 261/68/1 262/69/1 263/62/1 264/61/1
f 265/69/1 266/70/1 267/63/1 268/62/1
f 269/70/1 270/71/1 271/64/1 272/63/1
f 273/71/1 274/72/1 275/65/1 276/64/1
f 277/72/1 278/73/1 279/66/1 280/65/1
f 281/67/1 282/68/1 283/61/1 284/60/1
f 285/68/1 286/69/1 287/62/1 288/61/1
f 289/69/1 290/70/1 291/63/1 292/62/1
f 293/70/1 294/71/1 295/64/1 296/63/1
f 297/71/1 298/72/1 299/65/1 300/64/1
f 301/72/1 302/73/1 303/66/1 304/65/1
f 305/74/1 306/75/1 307/68/1 308/67/1
f 309/75/1 310/76/1 311/69/1 312/68/1
f 313/76/1 314/77/1 315/70/1 316/69/1
f 317/77/1 318/78/1 319/71/1 320/70/1
f 321/78/1 322/79/1 323/72/1 324/71/1
f 325/79/1 326/80/1 327/73/1 328/72/1
f 329/74/1 330/75/1 331/68/1 332/67/1
f 333/75/1 334/76/1 335/69/1 336/68/1
f 337/76/1 338/77/1 339/70/1 340/69/1
f 341/77/1 342/78/1 343/71/1 344/70/1
f 345/78/1 346/79/1 347/72/1 348/71/1
f 349/79/1 350/80/1 351/73/1 352/72/1
f 353/81/1 354/82/1 355/75/1 356/74/1
f 357/82/1 358/83/1 359/76/1 360/75/1
f 361/83/1 362/84/1 363/77/1 364/76/1
f 365/84/1 366/85/1 367/78/1 368/77/1
f 369/85/1 370/86/1 371/79/1 372/78/1
f 373/86/1 374/87/1 375/80/1 376/79/1
f 377/81/1 378/82/1 379/75/1 380/74/1
f 381/82/1 382/83/1 383/76/1 384/75/1
f 385/83/1 386/84/1 387/77/1 388/76/1
f 389/84/1 390/85/1 391/78/1 392/77/1
f 393/85/1 394/86/1 395/79/1 396/78/1
f 397/86/1 398/87/1 399/80/1 400/79/1
f 401/39/1 402/40/1 403/41/1 404/42/1
f 405/40/1 406/43/1 407/44/1 408/41/1
f 409/43/1 410/45/1 411/46/1 412/44/1
f 413/45/1 414/47/1 415/48/1 416/46/1
f 417/47/1 418/49/1 419/50/1 420/48/1
f 421/49/1 422/51/1 423/52/1 424/50/1
f 425/53/1 426/54/1 427/40/1 428/39/1
f 429/54/1 430/55/1 431/43/1 432/40/1
f 433/55/1 434/56/1 435/45/1 436/43/1
f 437/56/1 438/57/1 439/47/1 440/45/1
f 441/57/1 442/58/1 443/49/1 444/47/1
f 445/58/1 446/59/1 447/51/1 448/49/1
f 449/60/1 450/61/1 451/54/1 452/53/1
f 453/61/1 454/62/1 455/55/1 456/54/1
f 457/62/1 458/63/1 459/56/1 460/55/1
f 461/63/1 462/64/1 463/57/1 464/56/1
f 465/64/1 466/65/1 467/58/1 468/57/1
f 469/65/1 470/66/1 471/59/1 472/58/1
f 473/67/1 474/68/1 475/61/1 476/60/1
f 477/68/1 478/69/1 479/62/1 480/61/1
f 481/69/1 482/70/1 483/63/1 484/62/1
f 485/70/1 486/71/1 487/64/1 488/63/1
f 489/71/1 490/72/1 491/65/1 492/64/1
f 493/72/1 494/73/1 495/66/1 496/65/1
f 497/74/1 498/75/1 499/68/1 500/67/1
f 501/75/1 502/76/1 503/69/1 504/68/1
f 505/76/1 506/77/1 507/70/1 508/69/1
f 509/77/1 510/78/1 511/71/1 512/70/1
f 513/78/1 514/79/1 515/72/1 516/71/1
f 517/79/1 518/80/1 519/73/1 520/72/1
f 521/81/1 522/82/1 523/75/1 524/74/1
f 525/82/1 526/83/1 527/76/1 528/75/1
f 529/83/1 530/84/1 531/77/1 532/76/1
f 533/84/1 534/85/1 535/78/1 536/77/1
f 537/85/1 538/86/1 539/79/1 540/78/1
f 541/86/1 542/87/1 543/80/1 544/79/1

